<?xml version="1.0" encoding="UTF-8"?>
<svg id="Layer_1" data-name="Layer 1" xmlns="http://www.w3.org/2000/svg" viewBox="0 0 785.76 491.1">
  <defs>
    <style>
      .cls-1 {
        fill: #040a02;
      }

      .cls-2 {
        fill: #c0ff72;
      }
    </style>
  </defs>
  <g>
    <path class="cls-2" d="M289.98,156.95l-6.81,27.91c-.71,2.93-4.02,13.15-7.33,13.21-3.68.08-8.63-12.96-9.76-16.35l-12.49-37.7c-2.69-8.13-15.88-50.48-23.16-51.13-3.46-.31-4.9,5.91-5.14,8.91-1.37,17.58,2.17,34.64,9.97,50.46,4.15,8.42,8.89,15.89,13.8,23.83,4.82,7.77,13.74,22.27,7.5,31.04-2.64,3.71-7.49,5.92-12.23,5.93l-32.84.12c3.08-4.46,4.83-8.82,4.83-14.39v-120.07c0-5.55-1.78-9.95-4.84-14.38l46.56-.02c5.2,0,8.91,2.5,11.54,6.92,2.39,4.95,4.27,10.09,5.93,15.5l11.52,37.57,11.68-38.11c2.96-9.67,6.22-21.89,17.21-21.88l46.33.02c-3.09,4.46-4.82,8.85-4.82,14.4v119.36c0,5.78,1.48,10.51,4.87,15.06h-49.2c3.15-4.35,4.86-8.89,4.86-14.39v-92.1c.01-3.82-.68-13.37-5.04-13.78-8.21-.78-20.63,54.65-22.92,64.03Z"/>
    <path class="cls-2" d="M525.31,150.47l-.03,49.07c0,4.89,2.1,8.86,4.8,13.33h-49.97c2.87-4.37,5-8.29,5-13.28v-78.07c0-4.99-2.26-8.86-5-13.21l37.96.03c4.01,0,6.5,4.23,6.76,7.79l.8,10.92c3.02-1.61,4.92-3.71,6.58-6.22,6.96-10.5,18.01-15.65,30.57-14.73,18.18,1.34,23.17,17.72,23.23,33.54l.22,57.9c.02,5.65,1.44,10.35,4.94,15.31h-50.04c2.93-4.36,4.97-8.37,4.97-13.37l-.03-55.77c0-3.23-1.76-7.22-4.29-8.68-5.23-3.02-11.57.11-13.94,5.36-1.3,2.89-2.54,6.4-2.54,10.08Z"/>
    <path class="cls-2" d="M434.88,213.01c-28.13,8.29-56.71-7.37-65.05-34.92-10.05-33.2,12.97-67.75,47.39-71.53,32.88-3.61,60.2,23.08,57.88,56.15-1.62,23.22-17.35,43.56-40.23,50.3ZM439.01,188.19c2.17-19.65-.67-39.59-8.51-57.69-2.68-6.18-9.27-17.01-16.57-15.78-6.85,1.15-9.98,13.84-10.64,20.18-2.01,19.18,1.06,38.68,8.63,56.39,2.57,6.01,9.43,17.27,16.43,16.23,6.77-1,9.98-13.13,10.66-19.32Z"/>
    <path class="cls-2" d="M699.41,181.46c31.81,15.01,37.72-1.52,42.43-1.45,6.02.09.45,27.65-27.04,33.82-20.62,4.62-42.14-2.67-55.58-18.97-13.47-16.34-14-37.6-7.03-56.63,6.11-16.66,20-28.17,37.44-31.11,8.28-1.4,16.13-1.55,24.23.48,18.06,4.53,29.83,20.7,29.38,39.31-.16,6.42-2.86,12.14-8.88,14.95-10.14,4.74-24.78,4.17-36.24,3.75-5.41-.2-10.58-.89-15.98.03-4.26,4.66,13.78,14.19,17.25,15.83ZM711.66,148.18c2.07-15.68-17.95-26.68-32.73-25.01-5.68.64-11.44,4.09-13.09,9.48-2.57,8.43,1.95,23.78,14.5,24.8,6.36.52,30.09.05,31.32-9.26Z"/>
    <path class="cls-2" d="M598.9,199.36v-64.98c0-6.89-6.82-7.1-7.03-9.28-.05-.55.82-1.74,1.5-2.07,10.5-5.18,29.18-14.78,40.3-16.23,2.75-.36,4.69,1.62,4.69,4.41l.04,86.97c0,5.71,1.52,10.41,4.86,15.02l-49.16-.05c3.05-4.42,4.8-8.49,4.81-13.8Z"/>
    <path class="cls-2" d="M639.91,79c-.53,12.19-9.63,19.81-21.07,20.06-13.29.3-22.64-9.14-22.27-22.42.32-11.61,8.3-20.58,20.33-20.93,6.26-.18,12.5,1.3,17.05,5.84,4.58,4.56,6.25,10.83,5.96,17.45Z"/>
  </g>
  <path class="cls-2" d="M63.07,213.9l-19.83-21.01,70.5-74.96c-7.68.02-14.19.12-21.31-.51-19.07-2.45-36.53-10.92-50.42-25.38l19.9-21.12c10.72,11.14,24,16.58,38.49,17.24,9.4.48,18.31-1.24,27.46-3.77,10.96-3.53,20.89-8.02,31.39-14.26l19.18,20.3c-10.86,21.44-19.69,46.3-16.16,70.64,1.86,12.64,7.08,23.79,15.52,33.08l-19.93,21.07c-12.59-13.75-20.12-30.28-23.18-48.64-1.38-9.15-1.22-17.68-1.07-27.61l-70.53,74.93Z"/>
  <path class="cls-2" d="M138.9,390c-6.08,0-11.01,5.07-11.01,11.38s4.93,11.4,11.01,11.4,11.02-5.08,11.02-11.4-4.94-11.38-11.02-11.38ZM138.9,390c-6.08,0-11.01,5.07-11.01,11.38s4.93,11.4,11.01,11.4,11.02-5.08,11.02-11.4-4.94-11.38-11.02-11.38ZM138.9,390c-6.08,0-11.01,5.07-11.01,11.38s4.93,11.4,11.01,11.4,11.02-5.08,11.02-11.4-4.94-11.38-11.02-11.38ZM138.9,390c-6.08,0-11.01,5.07-11.01,11.38s4.93,11.4,11.01,11.4,11.02-5.08,11.02-11.4-4.94-11.38-11.02-11.38ZM138.9,390c-6.08,0-11.01,5.07-11.01,11.38s4.93,11.4,11.01,11.4,11.02-5.08,11.02-11.4-4.94-11.38-11.02-11.38ZM138.9,390c-6.08,0-11.01,5.07-11.01,11.38s4.93,11.4,11.01,11.4,11.02-5.08,11.02-11.4-4.94-11.38-11.02-11.38ZM138.9,390c-6.08,0-11.01,5.07-11.01,11.38s4.93,11.4,11.01,11.4,11.02-5.08,11.02-11.4-4.94-11.38-11.02-11.38ZM138.9,390c-6.08,0-11.01,5.07-11.01,11.38s4.93,11.4,11.01,11.4,11.02-5.08,11.02-11.4-4.94-11.38-11.02-11.38ZM138.9,390c-6.08,0-11.01,5.07-11.01,11.38s4.93,11.4,11.01,11.4,11.02-5.08,11.02-11.4-4.94-11.38-11.02-11.38ZM359.66,397.59l-4.46,10.63h8.92l-4.46-10.63ZM359.66,397.59l-4.46,10.63h8.92l-4.46-10.63ZM138.9,390c-6.08,0-11.01,5.07-11.01,11.38s4.93,11.4,11.01,11.4,11.02-5.08,11.02-11.4-4.94-11.38-11.02-11.38ZM138.9,390c-6.08,0-11.01,5.07-11.01,11.38s4.93,11.4,11.01,11.4,11.02-5.08,11.02-11.4-4.94-11.38-11.02-11.38ZM359.66,397.59l-4.46,10.63h8.92l-4.46-10.63ZM359.66,397.59l-4.46,10.63h8.92l-4.46-10.63ZM138.9,390c-6.08,0-11.01,5.07-11.01,11.38s4.93,11.4,11.01,11.4,11.02-5.08,11.02-11.4-4.94-11.38-11.02-11.38ZM138.9,390c-6.08,0-11.01,5.07-11.01,11.38s4.93,11.4,11.01,11.4,11.02-5.08,11.02-11.4-4.94-11.38-11.02-11.38ZM359.66,397.59l-4.46,10.63h8.92l-4.46-10.63ZM359.66,397.59l-4.46,10.63h8.92l-4.46-10.63ZM138.9,390c-6.08,0-11.01,5.07-11.01,11.38s4.93,11.4,11.01,11.4,11.02-5.08,11.02-11.4-4.94-11.38-11.02-11.38ZM138.9,390c-6.08,0-11.01,5.07-11.01,11.38s4.93,11.4,11.01,11.4,11.02-5.08,11.02-11.4-4.94-11.38-11.02-11.38ZM359.66,397.59l-4.46,10.63h8.92l-4.46-10.63ZM359.66,397.59l-4.46,10.63h8.92l-4.46-10.63ZM138.9,390c-6.08,0-11.01,5.07-11.01,11.38s4.93,11.4,11.01,11.4,11.02-5.08,11.02-11.4-4.94-11.38-11.02-11.38ZM138.9,390c-6.08,0-11.01,5.07-11.01,11.38s4.93,11.4,11.01,11.4,11.02-5.08,11.02-11.4-4.94-11.38-11.02-11.38ZM359.66,397.59l-4.46,10.63h8.92l-4.46-10.63ZM359.66,397.59l-4.46,10.63h8.92l-4.46-10.63ZM138.9,390c-6.08,0-11.01,5.07-11.01,11.38s4.93,11.4,11.01,11.4,11.02-5.08,11.02-11.4-4.94-11.38-11.02-11.38ZM138.9,390c-6.08,0-11.01,5.07-11.01,11.38s4.93,11.4,11.01,11.4,11.02-5.08,11.02-11.4-4.94-11.38-11.02-11.38ZM359.66,397.59l-4.46,10.63h8.92l-4.46-10.63ZM359.66,397.59l-4.46,10.63h8.92l-4.46-10.63ZM138.9,390c-6.08,0-11.01,5.07-11.01,11.38s4.93,11.4,11.01,11.4,11.02-5.08,11.02-11.4-4.94-11.38-11.02-11.38ZM138.9,390c-6.08,0-11.01,5.07-11.01,11.38s4.93,11.4,11.01,11.4,11.02-5.08,11.02-11.4-4.94-11.38-11.02-11.38ZM359.66,397.59l-4.46,10.63h8.92l-4.46-10.63ZM359.66,397.59l-4.46,10.63h8.92l-4.46-10.63ZM138.9,390c-6.08,0-11.01,5.07-11.01,11.38s4.93,11.4,11.01,11.4,11.02-5.08,11.02-11.4-4.94-11.38-11.02-11.38ZM138.9,390c-6.08,0-11.01,5.07-11.01,11.38s4.93,11.4,11.01,11.4,11.02-5.08,11.02-11.4-4.94-11.38-11.02-11.38ZM359.66,397.59l-4.46,10.63h8.92l-4.46-10.63ZM359.66,397.59l-4.46,10.63h8.92l-4.46-10.63ZM138.9,390c-6.08,0-11.01,5.07-11.01,11.38s4.93,11.4,11.01,11.4,11.02-5.08,11.02-11.4-4.94-11.38-11.02-11.38ZM138.9,390c-6.08,0-11.01,5.07-11.01,11.38s4.93,11.4,11.01,11.4,11.02-5.08,11.02-11.4-4.94-11.38-11.02-11.38ZM359.66,397.59l-4.46,10.63h8.92l-4.46-10.63ZM359.66,397.59l-4.46,10.63h8.92l-4.46-10.63ZM138.9,390c-6.08,0-11.01,5.07-11.01,11.38s4.93,11.4,11.01,11.4,11.02-5.08,11.02-11.4-4.94-11.38-11.02-11.38ZM138.9,390c-6.08,0-11.01,5.07-11.01,11.38s4.93,11.4,11.01,11.4,11.02-5.08,11.02-11.4-4.94-11.38-11.02-11.38ZM359.66,397.59l-4.46,10.63h8.92l-4.46-10.63ZM359.66,397.59l-4.46,10.63h8.92l-4.46-10.63ZM138.9,390c-6.08,0-11.01,5.07-11.01,11.38s4.93,11.4,11.01,11.4,11.02-5.08,11.02-11.4-4.94-11.38-11.02-11.38ZM138.9,390c-6.08,0-11.01,5.07-11.01,11.38s4.93,11.4,11.01,11.4,11.02-5.08,11.02-11.4-4.94-11.38-11.02-11.38ZM359.66,397.59l-4.46,10.63h8.92l-4.46-10.63ZM359.66,397.59l-4.46,10.63h8.92l-4.46-10.63ZM138.9,390c-6.08,0-11.01,5.07-11.01,11.38s4.93,11.4,11.01,11.4,11.02-5.08,11.02-11.4-4.94-11.38-11.02-11.38ZM138.9,390c-6.08,0-11.01,5.07-11.01,11.38s4.93,11.4,11.01,11.4,11.02-5.08,11.02-11.4-4.94-11.38-11.02-11.38ZM359.66,397.59l-4.46,10.63h8.92l-4.46-10.63ZM359.66,397.59l-4.46,10.63h8.92l-4.46-10.63ZM138.9,390c-6.08,0-11.01,5.07-11.01,11.38s4.93,11.4,11.01,11.4,11.02-5.08,11.02-11.4-4.94-11.38-11.02-11.38ZM138.9,390c-6.08,0-11.01,5.07-11.01,11.38s4.93,11.4,11.01,11.4,11.02-5.08,11.02-11.4-4.94-11.38-11.02-11.38ZM359.66,397.59l-4.46,10.63h8.92l-4.46-10.63ZM359.66,397.59l-4.46,10.63h8.92l-4.46-10.63ZM138.9,390c-6.08,0-11.01,5.07-11.01,11.38s4.93,11.4,11.01,11.4,11.02-5.08,11.02-11.4-4.94-11.38-11.02-11.38ZM138.9,390c-6.08,0-11.01,5.07-11.01,11.38s4.93,11.4,11.01,11.4,11.02-5.08,11.02-11.4-4.94-11.38-11.02-11.38ZM359.66,397.59l-4.46,10.63h8.92l-4.46-10.63ZM359.66,397.59l-4.46,10.63h8.92l-4.46-10.63ZM138.9,390c-6.08,0-11.01,5.07-11.01,11.38s4.93,11.4,11.01,11.4,11.02-5.08,11.02-11.4-4.94-11.38-11.02-11.38ZM138.9,390c-6.08,0-11.01,5.07-11.01,11.38s4.93,11.4,11.01,11.4,11.02-5.08,11.02-11.4-4.94-11.38-11.02-11.38ZM359.66,397.59l-4.46,10.63h8.92l-4.46-10.63ZM359.66,397.59l-4.46,10.63h8.92l-4.46-10.63ZM138.9,390c-6.08,0-11.01,5.07-11.01,11.38s4.93,11.4,11.01,11.4,11.02-5.08,11.02-11.4-4.94-11.38-11.02-11.38ZM138.9,390c-6.08,0-11.01,5.07-11.01,11.38s4.93,11.4,11.01,11.4,11.02-5.08,11.02-11.4-4.94-11.38-11.02-11.38ZM359.66,397.59l-4.46,10.63h8.92l-4.46-10.63ZM359.66,397.59l-4.46,10.63h8.92l-4.46-10.63ZM138.9,390c-6.08,0-11.01,5.07-11.01,11.38s4.93,11.4,11.01,11.4,11.02-5.08,11.02-11.4-4.94-11.38-11.02-11.38ZM138.9,390c-6.08,0-11.01,5.07-11.01,11.38s4.93,11.4,11.01,11.4,11.02-5.08,11.02-11.4-4.94-11.38-11.02-11.38ZM359.66,397.59l-4.46,10.63h8.92l-4.46-10.63ZM359.66,397.59l-4.46,10.63h8.92l-4.46-10.63ZM138.9,390c-6.08,0-11.01,5.07-11.01,11.38s4.93,11.4,11.01,11.4,11.02-5.08,11.02-11.4-4.94-11.38-11.02-11.38ZM138.9,390c-6.08,0-11.01,5.07-11.01,11.38s4.93,11.4,11.01,11.4,11.02-5.08,11.02-11.4-4.94-11.38-11.02-11.38ZM359.66,397.59l-4.46,10.63h8.92l-4.46-10.63ZM359.66,397.59l-4.46,10.63h8.92l-4.46-10.63ZM138.9,390c-6.08,0-11.01,5.07-11.01,11.38s4.93,11.4,11.01,11.4,11.02-5.08,11.02-11.4-4.94-11.38-11.02-11.38ZM711.07,369.04H41.51v33.18c0,18.33,14.86,33.19,33.19,33.19h636.37c9.16,0,17.46-3.72,23.46-9.72,6.01-6.01,9.72-14.31,9.72-23.47,0-18.33-14.85-33.18-33.18-33.18ZM117.64,418.09h-6.08v-18.23l-8.73,10.26-8.73-10.26v18.23h-6.08v-34.17l14.81,17.85,14.81-17.85v34.17ZM138.9,418.47c-9.44,0-17.09-7.64-17.09-17.09s7.65-17.08,17.09-17.08,17.09,7.64,17.09,17.08-7.64,17.09-17.09,17.09ZM183.71,418.85l-17.47-19.36v18.6h-6.07v-34.17l17.46,19.36v-18.6h6.08v34.17ZM207.24,390.37h-11.38v10.06h8.35v5.7h-8.35v6.27h11.38v5.69h-17.46v-33.41h17.46v5.69ZM225.47,404.61v13.48h-6.07v-13.48l-10.64-19.93h6.84l6.83,13.29,6.83-13.29h6.85l-10.64,19.93ZM257.07,408.4c-2.37,0-4.29-1.92-4.29-4.29s1.92-4.29,4.29-4.29,4.28,1.93,4.28,4.29-1.92,4.29-4.28,4.29ZM300.81,390.37h-11.39v10.06h8.35v5.7h-8.35v11.96h-6.08v-33.41h17.47v5.69ZM311.44,418.09h-6.07v-33.41h6.07v33.41ZM341.06,418.85l-17.47-19.36v18.6h-6.08v-34.17l17.47,19.36v-18.6h6.08v34.17ZM368.3,418.09l-1.9-4.55h-13.48l-1.9,4.55h-6.55l15.19-34.17,15.19,34.17h-6.55ZM401.42,418.85l-17.46-19.36v18.6h-6.08v-34.17l17.47,19.36v-18.6h6.07v34.17ZM423.64,412.78c2.65,0,4.89-.81,6.83-2.28l3.23,4.55c-2.75,2.24-6.55,3.42-10.11,3.42-10.16,0-17.99-7.64-17.99-17.09s7.83-17.08,17.99-17.08c3.56,0,7.36,1.18,10.11,3.42l-3.23,4.55c-1.94-1.37-4.18-2.27-6.83-2.27-6.12,0-11.96,4.07-11.96,11.38s5.84,11.4,11.96,11.4ZM454.58,390.37h-11.38v10.06h8.35v5.7h-8.35v6.27h11.38v5.69h-17.47v-33.41h17.47v5.69ZM479.41,408.4c-2.37,0-4.29-1.92-4.29-4.29s1.92-4.29,4.29-4.29,4.3,1.93,4.3,4.29-1.92,4.29-4.3,4.29ZM521.57,418.09h-17.47v-33.41h6.07v27.72h11.4v5.69ZM532.58,418.09h-6.07v-33.41h6.07v33.41ZM556.12,390.37h-11.39v10.06h8.35v5.7h-8.35v11.96h-6.08v-33.41h17.47v5.69ZM578.14,390.37h-11.39v10.06h8.35v5.7h-8.35v6.27h11.39v5.69h-17.46v-33.41h17.46v5.69ZM593.52,418.47c-6.36,0-10.78-4.75-11.58-6.07l3.51-4.27c2.38,3.08,5.41,4.65,8.07,4.65,3.08,0,5.13-2.04,5.13-3.99,0-2.85-1.95-4.56-4.56-5.55-6.84-2.62-10.26-5.32-10.26-10.54,0-4.84,4.37-8.4,9.97-8.4,1.05,0,4.85-.19,9.07,3.7l-3.33,4.46c-1.46-1.33-3.27-2.46-5.83-2.46-1.85,0-3.8.99-3.8,2.7,0,1.99,1.43,3.03,3.8,3.99,5.65,2.28,11.01,4.55,11.01,11.81,0,5.32-4.46,9.97-11.2,9.97ZM626.74,390.37h-6.83v27.72h-6.08v-27.72h-6.83v-5.69h19.74v5.69ZM644.97,404.61v13.48h-6.08v-13.48l-10.63-19.93h6.84l6.83,13.29,6.83-13.29h6.84l-10.63,19.93ZM675.35,418.09h-17.47v-33.41h6.07v27.72h11.4v5.69ZM697.75,390.37h-11.4v10.06h8.35v5.7h-8.35v6.27h11.4v5.69h-17.47v-33.41h17.47v5.69ZM355.2,408.22h8.92l-4.46-10.63-4.46,10.63ZM138.9,390c-6.08,0-11.01,5.07-11.01,11.38s4.93,11.4,11.01,11.4,11.02-5.08,11.02-11.4-4.94-11.38-11.02-11.38ZM138.9,390c-6.08,0-11.01,5.07-11.01,11.38s4.93,11.4,11.01,11.4,11.02-5.08,11.02-11.4-4.94-11.38-11.02-11.38ZM359.66,397.59l-4.46,10.63h8.92l-4.46-10.63ZM359.66,397.59l-4.46,10.63h8.92l-4.46-10.63ZM138.9,390c-6.08,0-11.01,5.07-11.01,11.38s4.93,11.4,11.01,11.4,11.02-5.08,11.02-11.4-4.94-11.38-11.02-11.38ZM138.9,390c-6.08,0-11.01,5.07-11.01,11.38s4.93,11.4,11.01,11.4,11.02-5.08,11.02-11.4-4.94-11.38-11.02-11.38ZM359.66,397.59l-4.46,10.63h8.92l-4.46-10.63ZM359.66,397.59l-4.46,10.63h8.92l-4.46-10.63ZM138.9,390c-6.08,0-11.01,5.07-11.01,11.38s4.93,11.4,11.01,11.4,11.02-5.08,11.02-11.4-4.94-11.38-11.02-11.38ZM138.9,390c-6.08,0-11.01,5.07-11.01,11.38s4.93,11.4,11.01,11.4,11.02-5.08,11.02-11.4-4.94-11.38-11.02-11.38ZM359.66,397.59l-4.46,10.63h8.92l-4.46-10.63ZM359.66,397.59l-4.46,10.63h8.92l-4.46-10.63ZM138.9,390c-6.08,0-11.01,5.07-11.01,11.38s4.93,11.4,11.01,11.4,11.02-5.08,11.02-11.4-4.94-11.38-11.02-11.38ZM138.9,390c-6.08,0-11.01,5.07-11.01,11.38s4.93,11.4,11.01,11.4,11.02-5.08,11.02-11.4-4.94-11.38-11.02-11.38ZM359.66,397.59l-4.46,10.63h8.92l-4.46-10.63ZM359.66,397.59l-4.46,10.63h8.92l-4.46-10.63ZM138.9,390c-6.08,0-11.01,5.07-11.01,11.38s4.93,11.4,11.01,11.4,11.02-5.08,11.02-11.4-4.94-11.38-11.02-11.38ZM138.9,390c-6.08,0-11.01,5.07-11.01,11.38s4.93,11.4,11.01,11.4,11.02-5.08,11.02-11.4-4.94-11.38-11.02-11.38ZM359.66,397.59l-4.46,10.63h8.92l-4.46-10.63ZM359.66,397.59l-4.46,10.63h8.92l-4.46-10.63ZM138.9,390c-6.08,0-11.01,5.07-11.01,11.38s4.93,11.4,11.01,11.4,11.02-5.08,11.02-11.4-4.94-11.38-11.02-11.38ZM138.9,390c-6.08,0-11.01,5.07-11.01,11.38s4.93,11.4,11.01,11.4,11.02-5.08,11.02-11.4-4.94-11.38-11.02-11.38ZM359.66,397.59l-4.46,10.63h8.92l-4.46-10.63ZM359.66,397.59l-4.46,10.63h8.92l-4.46-10.63ZM138.9,390c-6.08,0-11.01,5.07-11.01,11.38s4.93,11.4,11.01,11.4,11.02-5.08,11.02-11.4-4.94-11.38-11.02-11.38ZM138.9,390c-6.08,0-11.01,5.07-11.01,11.38s4.93,11.4,11.01,11.4,11.02-5.08,11.02-11.4-4.94-11.38-11.02-11.38ZM359.66,397.59l-4.46,10.63h8.92l-4.46-10.63ZM359.66,397.59l-4.46,10.63h8.92l-4.46-10.63ZM138.9,390c-6.08,0-11.01,5.07-11.01,11.38s4.93,11.4,11.01,11.4,11.02-5.08,11.02-11.4-4.94-11.38-11.02-11.38ZM138.9,390c-6.08,0-11.01,5.07-11.01,11.38s4.93,11.4,11.01,11.4,11.02-5.08,11.02-11.4-4.94-11.38-11.02-11.38ZM359.66,397.59l-4.46,10.63h8.92l-4.46-10.63ZM359.66,397.59l-4.46,10.63h8.92l-4.46-10.63ZM138.9,390c-6.08,0-11.01,5.07-11.01,11.38s4.93,11.4,11.01,11.4,11.02-5.08,11.02-11.4-4.94-11.38-11.02-11.38ZM138.9,390c-6.08,0-11.01,5.07-11.01,11.38s4.93,11.4,11.01,11.4,11.02-5.08,11.02-11.4-4.94-11.38-11.02-11.38ZM359.66,397.59l-4.46,10.63h8.92l-4.46-10.63ZM359.66,397.59l-4.46,10.63h8.92l-4.46-10.63ZM138.9,390c-6.08,0-11.01,5.07-11.01,11.38s4.93,11.4,11.01,11.4,11.02-5.08,11.02-11.4-4.94-11.38-11.02-11.38ZM138.9,390c-6.08,0-11.01,5.07-11.01,11.38s4.93,11.4,11.01,11.4,11.02-5.08,11.02-11.4-4.94-11.38-11.02-11.38ZM359.66,397.59l-4.46,10.63h8.92l-4.46-10.63ZM359.66,397.59l-4.46,10.63h8.92l-4.46-10.63ZM138.9,390c-6.08,0-11.01,5.07-11.01,11.38s4.93,11.4,11.01,11.4,11.02-5.08,11.02-11.4-4.94-11.38-11.02-11.38ZM138.9,390c-6.08,0-11.01,5.07-11.01,11.38s4.93,11.4,11.01,11.4,11.02-5.08,11.02-11.4-4.94-11.38-11.02-11.38ZM359.66,397.59l-4.46,10.63h8.92l-4.46-10.63ZM359.66,397.59l-4.46,10.63h8.92l-4.46-10.63ZM138.9,390c-6.08,0-11.01,5.07-11.01,11.38s4.93,11.4,11.01,11.4,11.02-5.08,11.02-11.4-4.94-11.38-11.02-11.38ZM138.9,390c-6.08,0-11.01,5.07-11.01,11.38s4.93,11.4,11.01,11.4,11.02-5.08,11.02-11.4-4.94-11.38-11.02-11.38ZM359.66,397.59l-4.46,10.63h8.92l-4.46-10.63ZM359.66,397.59l-4.46,10.63h8.92l-4.46-10.63ZM138.9,390c-6.08,0-11.01,5.07-11.01,11.38s4.93,11.4,11.01,11.4,11.02-5.08,11.02-11.4-4.94-11.38-11.02-11.38ZM138.9,390c-6.08,0-11.01,5.07-11.01,11.38s4.93,11.4,11.01,11.4,11.02-5.08,11.02-11.4-4.94-11.38-11.02-11.38ZM359.66,397.59l-4.46,10.63h8.92l-4.46-10.63ZM359.66,397.59l-4.46,10.63h8.92l-4.46-10.63ZM138.9,390c-6.08,0-11.01,5.07-11.01,11.38s4.93,11.4,11.01,11.4,11.02-5.08,11.02-11.4-4.94-11.38-11.02-11.38ZM138.9,390c-6.08,0-11.01,5.07-11.01,11.38s4.93,11.4,11.01,11.4,11.02-5.08,11.02-11.4-4.94-11.38-11.02-11.38ZM359.66,397.59l-4.46,10.63h8.92l-4.46-10.63ZM359.66,397.59l-4.46,10.63h8.92l-4.46-10.63ZM138.9,390c-6.08,0-11.01,5.07-11.01,11.38s4.93,11.4,11.01,11.4,11.02-5.08,11.02-11.4-4.94-11.38-11.02-11.38ZM138.9,390c-6.08,0-11.01,5.07-11.01,11.38s4.93,11.4,11.01,11.4,11.02-5.08,11.02-11.4-4.94-11.38-11.02-11.38ZM359.66,397.59l-4.46,10.63h8.92l-4.46-10.63ZM359.66,397.59l-4.46,10.63h8.92l-4.46-10.63ZM138.9,390c-6.08,0-11.01,5.07-11.01,11.38s4.93,11.4,11.01,11.4,11.02-5.08,11.02-11.4-4.94-11.38-11.02-11.38ZM138.9,390c-6.08,0-11.01,5.07-11.01,11.38s4.93,11.4,11.01,11.4,11.02-5.08,11.02-11.4-4.94-11.38-11.02-11.38ZM359.66,397.59l-4.46,10.63h8.92l-4.46-10.63ZM359.66,397.59l-4.46,10.63h8.92l-4.46-10.63ZM138.9,390c-6.08,0-11.01,5.07-11.01,11.38s4.93,11.4,11.01,11.4,11.02-5.08,11.02-11.4-4.94-11.38-11.02-11.38ZM138.9,390c-6.08,0-11.01,5.07-11.01,11.38s4.93,11.4,11.01,11.4,11.02-5.08,11.02-11.4-4.94-11.38-11.02-11.38ZM359.66,397.59l-4.46,10.63h8.92l-4.46-10.63ZM359.66,397.59l-4.46,10.63h8.92l-4.46-10.63ZM138.9,390c-6.08,0-11.01,5.07-11.01,11.38s4.93,11.4,11.01,11.4,11.02-5.08,11.02-11.4-4.94-11.38-11.02-11.38ZM138.9,390c-6.08,0-11.01,5.07-11.01,11.38s4.93,11.4,11.01,11.4,11.02-5.08,11.02-11.4-4.94-11.38-11.02-11.38ZM359.66,397.59l-4.46,10.63h8.92l-4.46-10.63ZM359.66,397.59l-4.46,10.63h8.92l-4.46-10.63ZM138.9,390c-6.08,0-11.01,5.07-11.01,11.38s4.93,11.4,11.01,11.4,11.02-5.08,11.02-11.4-4.94-11.38-11.02-11.38ZM138.9,390c-6.08,0-11.01,5.07-11.01,11.38s4.93,11.4,11.01,11.4,11.02-5.08,11.02-11.4-4.94-11.38-11.02-11.38ZM138.9,390c-6.08,0-11.01,5.07-11.01,11.38s4.93,11.4,11.01,11.4,11.02-5.08,11.02-11.4-4.94-11.38-11.02-11.38ZM138.9,390c-6.08,0-11.01,5.07-11.01,11.38s4.93,11.4,11.01,11.4,11.02-5.08,11.02-11.4-4.94-11.38-11.02-11.38ZM138.9,390c-6.08,0-11.01,5.07-11.01,11.38s4.93,11.4,11.01,11.4,11.02-5.08,11.02-11.4-4.94-11.38-11.02-11.38ZM138.9,390c-6.08,0-11.01,5.07-11.01,11.38s4.93,11.4,11.01,11.4,11.02-5.08,11.02-11.4-4.94-11.38-11.02-11.38ZM138.9,390c-6.08,0-11.01,5.07-11.01,11.38s4.93,11.4,11.01,11.4,11.02-5.08,11.02-11.4-4.94-11.38-11.02-11.38ZM138.9,390c-6.08,0-11.01,5.07-11.01,11.38s4.93,11.4,11.01,11.4,11.02-5.08,11.02-11.4-4.94-11.38-11.02-11.38ZM138.9,390c-6.08,0-11.01,5.07-11.01,11.38s4.93,11.4,11.01,11.4,11.02-5.08,11.02-11.4-4.94-11.38-11.02-11.38Z"/>
  <polygon class="cls-1" points="686.35 390.37 686.35 400.43 694.7 400.43 694.7 406.13 686.35 406.13 686.35 412.4 697.75 412.4 697.75 418.09 680.28 418.09 680.28 384.68 697.75 384.68 697.75 390.37 686.35 390.37"/>
  <polygon class="cls-1" points="675.35 412.4 675.35 418.09 657.88 418.09 657.88 384.68 663.95 384.68 663.95 412.4 675.35 412.4"/>
  <polygon class="cls-1" points="655.6 384.68 644.97 404.61 644.97 418.09 638.89 418.09 638.89 404.61 628.26 384.68 635.1 384.68 641.93 397.97 648.76 384.68 655.6 384.68"/>
  <polygon class="cls-1" points="626.74 384.68 626.74 390.37 619.91 390.37 619.91 418.09 613.83 418.09 613.83 390.37 607 390.37 607 384.68 626.74 384.68"/>
  <path class="cls-1" d="M604.72,408.5c0,5.32-4.46,9.97-11.2,9.97-6.36,0-10.78-4.75-11.58-6.07l3.51-4.27c2.38,3.08,5.41,4.65,8.07,4.65,3.08,0,5.13-2.04,5.13-3.99,0-2.85-1.95-4.56-4.56-5.55-6.84-2.62-10.26-5.32-10.26-10.54,0-4.84,4.37-8.4,9.97-8.4,1.05,0,4.85-.19,9.07,3.7l-3.33,4.46c-1.46-1.33-3.27-2.46-5.83-2.46-1.85,0-3.8.99-3.8,2.7,0,1.99,1.43,3.03,3.8,3.99,5.65,2.28,11.01,4.55,11.01,11.81Z"/>
  <polygon class="cls-1" points="566.75 390.37 566.75 400.43 575.1 400.43 575.1 406.13 566.75 406.13 566.75 412.4 578.14 412.4 578.14 418.09 560.68 418.09 560.68 384.68 578.14 384.68 578.14 390.37 566.75 390.37"/>
  <polygon class="cls-1" points="544.73 390.37 544.73 400.43 553.08 400.43 553.08 406.13 544.73 406.13 544.73 418.09 538.65 418.09 538.65 384.68 556.12 384.68 556.12 390.37 544.73 390.37"/>
  <rect class="cls-1" x="526.51" y="384.68" width="6.07" height="33.41"/>
  <polygon class="cls-1" points="521.57 412.4 521.57 418.09 504.1 418.09 504.1 384.68 510.17 384.68 510.17 412.4 521.57 412.4"/>
  <path class="cls-1" d="M483.71,404.11c0,2.37-1.92,4.29-4.3,4.29s-4.29-1.92-4.29-4.29,1.92-4.29,4.29-4.29,4.3,1.93,4.3,4.29Z"/>
  <polygon class="cls-1" points="443.2 390.37 443.2 400.43 451.55 400.43 451.55 406.13 443.2 406.13 443.2 412.4 454.58 412.4 454.58 418.09 437.11 418.09 437.11 384.68 454.58 384.68 454.58 390.37 443.2 390.37"/>
  <path class="cls-1" d="M430.47,410.5l3.23,4.55c-2.75,2.24-6.55,3.42-10.11,3.42-10.16,0-17.99-7.64-17.99-17.09s7.83-17.08,17.99-17.08c3.56,0,7.36,1.18,10.11,3.42l-3.23,4.55c-1.94-1.37-4.18-2.27-6.83-2.27-6.12,0-11.96,4.07-11.96,11.38s5.84,11.4,11.96,11.4c2.65,0,4.89-.81,6.83-2.28Z"/>
  <polygon class="cls-1" points="401.42 384.68 401.42 418.85 383.96 399.49 383.96 418.09 377.88 418.09 377.88 383.92 395.35 403.28 395.35 384.68 401.42 384.68"/>
  <path class="cls-1" d="M359.66,383.92l-15.19,34.17h6.55l1.9-4.55h13.48l1.9,4.55h6.55l-15.19-34.17ZM355.2,408.22l4.46-10.63,4.46,10.63h-8.92Z"/>
  <polygon class="cls-1" points="341.06 384.68 341.06 418.85 323.59 399.49 323.59 418.09 317.51 418.09 317.51 383.92 334.98 403.28 334.98 384.68 341.06 384.68"/>
  <rect class="cls-1" x="305.37" y="384.68" width="6.07" height="33.41"/>
  <polygon class="cls-1" points="289.42 390.37 289.42 400.43 297.77 400.43 297.77 406.13 289.42 406.13 289.42 418.09 283.34 418.09 283.34 384.68 300.81 384.68 300.81 390.37 289.42 390.37"/>
  <path class="cls-1" d="M261.35,404.11c0,2.37-1.92,4.29-4.28,4.29s-4.29-1.92-4.29-4.29,1.92-4.29,4.29-4.29,4.28,1.93,4.28,4.29Z"/>
  <polygon class="cls-1" points="236.11 384.68 225.47 404.61 225.47 418.09 219.4 418.09 219.4 404.61 208.76 384.68 215.6 384.68 222.43 397.97 229.26 384.68 236.11 384.68"/>
  <polygon class="cls-1" points="195.86 390.37 195.86 400.43 204.21 400.43 204.21 406.13 195.86 406.13 195.86 412.4 207.24 412.4 207.24 418.09 189.78 418.09 189.78 384.68 207.24 384.68 207.24 390.37 195.86 390.37"/>
  <polygon class="cls-1" points="183.71 384.68 183.71 418.85 166.24 399.49 166.24 418.09 160.17 418.09 160.17 383.92 177.63 403.28 177.63 384.68 183.71 384.68"/>
  <path class="cls-1" d="M138.9,384.3c-9.44,0-17.09,7.64-17.09,17.08s7.65,17.09,17.09,17.09,17.09-7.64,17.09-17.09-7.64-17.08-17.09-17.08ZM138.9,412.78c-6.08,0-11.01-5.08-11.01-11.4s4.93-11.38,11.01-11.38,11.02,5.07,11.02,11.38-4.94,11.4-11.02,11.4Z"/>
  <polygon class="cls-1" points="117.64 383.92 117.64 418.09 111.56 418.09 111.56 399.86 102.83 410.12 94.1 399.86 94.1 418.09 88.02 418.09 88.02 383.92 102.83 401.77 117.64 383.92"/>
  <g>
    <g>
      <path class="cls-2" d="M42.01,233.44h64.05v23.06h-38.43v28.18h28.18v23.06h-28.18v38.43h-25.62v-112.73Z"/>
      <path class="cls-2" d="M139.2,256.5v28.18h28.18v23.06h-28.18v15.37h38.43v23.06h-64.05v-112.73h64.05v23.06h-38.43Z"/>
      <path class="cls-2" d="M262.01,311.26c0,19.86-15.69,37.47-39.71,37.47-22.42,0-36.99-16.01-39.71-20.5l14.25-17.93c8.01,10.41,16.49,15.37,25.46,15.37s14.09-6.89,14.09-12.81c0-7.69-4-11.53-12.81-14.89-23.06-8.81-34.59-17.45-34.59-36.03s15.85-31.07,36.19-31.07c3.52,0,17.13-.64,31.39,12.49l-13.77,18.89c-3.2-3.36-9.93-8.33-17.93-8.33-6.25,0-10.25,4-10.25,7.53,0,4.32,2.24,7.53,10.25,10.57,19.22,7.37,37.15,13.61,37.15,39.23Z"/>
      <path class="cls-2" d="M333.58,233.44v23.06h-23.06v89.67h-25.62v-89.67h-23.06v-23.06h71.74Z"/>
    </g>
    <g>
      <path class="cls-2" d="M420.72,323.11h31.87v23.06h-81.99l34.27-39.07c19.38-21.94,22.1-29.94,22.1-37.95,0-9.93-8.01-15.21-15.37-15.21s-15.37,5.28-15.37,15.21c0,3.84,1.28,8.97,3.36,11.85l-21.62,9.77c-4.64-5.6-7.37-14.89-7.37-21.62,0-20.18,16.17-38.27,40.99-38.27,23.06,0,40.99,16.81,40.99,38.27,0,14.09-8.65,26.58-16.65,36.03l-15.21,17.94Z"/>
      <path class="cls-2" d="M565.96,289.81c0,33.79-24.02,58.93-53.8,58.93s-53.8-25.14-53.8-58.93,24.02-58.93,53.8-58.93,53.8,25.14,53.8,58.93ZM540.34,289.81c0-21.14-12.65-35.87-28.18-35.87s-28.18,14.73-28.18,35.87,12.65,35.87,28.18,35.87,28.18-14.73,28.18-35.87Z"/>
      <path class="cls-2" d="M621.85,323.11h31.87v23.06h-81.99l34.27-39.07c19.38-21.94,22.1-29.94,22.1-37.95,0-9.93-8.01-15.21-15.37-15.21s-15.37,5.28-15.37,15.21c0,3.84,1.28,8.97,3.36,11.85l-21.62,9.77c-4.64-5.6-7.37-14.89-7.37-21.62,0-20.18,16.17-38.27,40.99-38.27,23.06,0,40.99,16.81,40.99,38.27,0,14.09-8.65,26.58-16.65,36.03l-15.21,17.94Z"/>
      <path class="cls-2" d="M744.03,307.74c0,22.74-17.61,40.99-42.27,40.99s-42.27-18.25-42.27-40.99c0-16.01,6.89-25.94,40.67-74.3h27.86l-23.86,33.31c23.7.32,39.87,19.38,39.87,40.99ZM718.41,307.74c0-9.93-6.73-17.93-16.65-17.93s-16.65,8.01-16.65,17.93,6.73,17.94,16.65,17.94,16.65-8.01,16.65-17.94Z"/>
    </g>
  </g>
</svg>