<?xml version="1.0" encoding="UTF-8"?>
<svg version="1.1" xmlns="http://www.w3.org/2000/svg" width="787" height="472">
<path d="M0 0 C251.79 0 503.58 0 763 0 C763 33.33 763 66.66 763 101 C728.16513706 101.00810491 728.16513706 101.00810491 714.65359497 101.0111084 C713.81251206 101.01129539 712.97142915 101.01148239 712.10485888 101.01167505 C656.43729209 101.02403316 600.76972533 101.03520616 545.10215759 101.04234314 C543.49103467 101.04255023 543.49103467 101.04255023 541.8473638 101.04276149 C518.50763435 101.04575403 495.16790488 101.04852427 471.82817537 101.05106533 C460.38325298 101.05231272 448.93833059 101.05360927 437.4934082 101.05493164 C436.35446883 101.0550624 435.21552946 101.05519316 434.04207677 101.05532788 C397.09068694 101.05959324 360.13929864 101.06710754 323.18790973 101.07629722 C285.23227542 101.08571957 247.27664195 101.09188306 209.32100649 101.09391499 C203.96652648 101.09420317 198.61204646 101.0945288 193.25756645 101.09487724 C191.67672659 101.09497838 191.67672659 101.09497838 190.06395056 101.09508156 C173.06307787 101.0962657 156.06220777 101.10091028 139.06133614 101.10683203 C121.99159704 101.11270454 104.92186054 101.11497169 87.85212047 101.11350138 C77.69654793 101.11273775 67.54098485 101.1147956 57.38541401 101.12079754 C50.61471886 101.12452753 43.84402996 101.1246778 37.0733344 101.12183181 C33.20703625 101.12031168 29.34075606 101.1204288 25.47445977 101.12488318 C21.32412099 101.12962886 17.17382403 101.12676676 13.02348423 101.12304783 C11.19365791 101.12698835 11.19365791 101.12698835 9.3268654 101.13100848 C7.6850986 101.12763754 7.6850986 101.12763754 6.0101648 101.1241985 C4.58411194 101.12443247 4.58411194 101.12443247 3.12924993 101.12467116 C1 101 1 101 0 100 C0 67 0 34 0 0 Z " fill="#ED1F26" transform="translate(10,253)"/>
<path d="M0 0 C10.57995655 8.62673381 16.88243158 20.96454797 18.78125 34.40625 C18.86314682 36.34548283 18.89916669 38.28707094 18.89477539 40.22802734 C18.89466209 41.90909073 18.89466209 41.90909073 18.89454651 43.62411499 C18.88938522 44.81807892 18.88422394 46.01204285 18.87890625 47.2421875 C18.8774913 48.47667633 18.87607635 49.71116516 18.87461853 50.98306274 C18.86903272 54.91581675 18.85648275 58.84851328 18.84375 62.78125 C18.83816912 65.45182208 18.83417058 68.12239363 18.83007812 70.79296875 C18.81991995 77.33076898 18.80034158 83.86844535 18.78125 90.40625 C8.55125 90.40625 -1.67875 90.40625 -12.21875 90.40625 C-12.25613281 86.75691406 -12.29351562 83.10757813 -12.33203125 79.34765625 C-12.37831079 75.79299096 -12.42952121 72.23842829 -12.48120117 68.68383789 C-12.51434912 66.22328994 -12.54241222 63.7626678 -12.56518555 61.30200195 C-12.59891755 57.75440003 -12.65124428 54.20747176 -12.70703125 50.66015625 C-12.71342117 49.5691713 -12.7198111 48.47818634 -12.72639465 47.35414124 C-12.86190603 40.23153791 -13.38241948 33.13537221 -17.83203125 27.28515625 C-22.93252767 23.33373719 -27.03583453 21.09436979 -33.65625 21.53125 C-39.72480167 22.42007827 -43.75545398 24.51936829 -47.59375 29.46875 C-50.3782051 34.50218806 -50.87672415 38.75863857 -50.21875 44.40625 C-48.16392746 50.77173287 -44.7932281 54.47409967 -38.90625 57.65625 C-31.25032971 59.79278589 -26.02668599 57.92321278 -19.21875 54.40625 C-18.55875 54.07625 -17.89875 53.74625 -17.21875 53.40625 C-17.21875 64.95625 -17.21875 76.50625 -17.21875 88.40625 C-31.36980162 92.44940761 -44.77647056 90.84260382 -57.73828125 83.98046875 C-69.92809878 76.24425384 -77.8197618 65.30726499 -81.76513672 51.49316406 C-84.70298633 37.97715842 -81.94831592 24.34742221 -74.96875 12.65625 C-66.76348755 0.54869713 -55.78498014 -7.35259701 -41.3359375 -10.15234375 C-26.01794887 -12.32143237 -12.53541019 -9.00430873 0 0 Z " fill="#ED2028" transform="translate(388.21875,137.59375)"/>
<path d="M0 0 C10.14656986 8.56787394 17.0849663 19.63607084 18.55908203 33.02246094 C19.71623985 48.78737588 15.67699025 62.00763973 5.45703125 74.24609375 C-2.89079508 83.15044184 -12.86877955 87.63703716 -24.6640625 89.99609375 C-29.2840625 89.99609375 -33.9040625 89.99609375 -38.6640625 89.99609375 C-38.6640625 79.43609375 -38.6640625 68.87609375 -38.6640625 57.99609375 C-35.0340625 57.99609375 -31.4040625 57.99609375 -27.6640625 57.99609375 C-21.15440391 55.52058978 -17.8314992 52.8974798 -14.4140625 46.74609375 C-12.63026164 40.20549058 -13.1056098 34.63364343 -16.46875 28.71875 C-19.8507313 23.84471812 -23.9409347 22.04533385 -29.6640625 20.99609375 C-37.23429571 20.87529216 -42.51397191 23.08831782 -48.1015625 28.24609375 C-48.6171875 28.82359375 -49.1328125 29.40109375 -49.6640625 29.99609375 C-50.0353125 28.75859375 -50.4065625 27.52109375 -50.7890625 26.24609375 C-53.9064156 16.9525763 -58.40636821 8.54083155 -64.6640625 0.99609375 C-45.30302319 -14.8303689 -20.10580119 -15.12357187 0 0 Z " fill="#ED2129" transform="translate(459.6640625,138.00390625)"/>
<path d="M0 0 C6.6825 -0.12375 6.6825 -0.12375 13.5 -0.25 C15.58344727 -0.30462402 15.58344727 -0.30462402 17.70898438 -0.36035156 C24.94727375 -0.42509102 29.93339994 -0.09348256 36 4 C38.67604554 8.01406832 38.82677249 11.28017257 38 16 C36.57000986 18.45141166 35.05830703 19.99315064 33 22 C33.763125 22.433125 34.52625 22.86625 35.3125 23.3125 C37.69069354 24.80578432 39.28877187 25.81534852 41 28 C41.74863808 32.74137451 41.57088906 37.42165966 39.9375 41.9375 C36.11727809 46.00418784 33.07852371 47.8074603 27.52368164 48.32202148 C23.36138158 48.39361396 19.2246115 48.34749051 15.0625 48.25 C7.6065625 48.12625 7.6065625 48.12625 0 48 C0 32.16 0 16.32 0 0 Z " fill="#FDEB01" transform="translate(578,278)"/>
<path d="M0 0 C3.5 1.875 3.5 1.875 6 4 C6 4.66 6 5.32 6 6 C6.64066406 5.566875 7.28132813 5.13375 7.94140625 4.6875 C16.87011893 -1.06094095 16.87011893 -1.06094095 23 0 C27.77885784 1.74612113 29.82503366 3.43276788 32 8 C32.34057617 11.3215332 32.34057617 11.3215332 32.29296875 15.05078125 C32.28872391 15.70958786 32.28447906 16.36839447 32.28010559 17.04716492 C32.26341196 19.13603885 32.22578058 21.22392139 32.1875 23.3125 C32.17244097 24.73501203 32.15875469 26.1575393 32.14648438 27.58007812 C32.11354003 31.05370351 32.06182408 34.52675487 32 38 C28.04 38 24.08 38 20 38 C19.93941406 36.13472656 19.87882812 34.26945312 19.81640625 32.34765625 C19.7320219 29.9192621 19.64737286 27.49087713 19.5625 25.0625 C19.52318359 23.83080078 19.48386719 22.59910156 19.44335938 21.33007812 C19.40146484 20.16025391 19.35957031 18.99042969 19.31640625 17.78515625 C19.26141968 16.15912476 19.26141968 16.15912476 19.20532227 14.50024414 C19.27635735 12.060737 19.27635735 12.060737 18 11 C16.12678052 10.83946185 16.12678052 10.83946185 14 10.875 C13.278125 10.87242187 12.55625 10.86984375 11.8125 10.8671875 C9.97910585 10.80304724 9.97910585 10.80304724 9 12 C8.84193469 13.92478813 8.748865 15.8549921 8.68359375 17.78515625 C8.62075195 19.53989258 8.62075195 19.53989258 8.55664062 21.33007812 C8.51732422 22.56177734 8.47800781 23.79347656 8.4375 25.0625 C8.37272461 26.91584961 8.37272461 26.91584961 8.30664062 28.80664062 C8.20015889 31.87094841 8.09953935 34.93545885 8 38 C4.04 38 0.08 38 -4 38 C-4.06058594 36.13472656 -4.12117188 34.26945312 -4.18359375 32.34765625 C-4.2679781 29.9192621 -4.35262714 27.49087713 -4.4375 25.0625 C-4.47681641 23.83080078 -4.51613281 22.59910156 -4.55664062 21.33007812 C-4.59853516 20.16025391 -4.64042969 18.99042969 -4.68359375 17.78515625 C-4.72025146 16.70113525 -4.75690918 15.61711426 -4.79467773 14.50024414 C-4.72364265 12.060737 -4.72364265 12.060737 -6 11 C-10.65088715 10.69476038 -10.65088715 10.69476038 -15 12 C-15.33 20.25 -15.66 28.5 -16 37 C-19.63 37 -23.26 37 -27 37 C-27 25.12 -27 13.24 -27 1 C-23.37 1 -19.74 1 -16 1 C-15.67 1.99 -15.34 2.98 -15 4 C-14.01 3.34 -13.02 2.68 -12 2 C-7.7113997 -0.42587492 -4.89397387 -0.621457 0 0 Z " fill="#FDEA01" transform="translate(406,289)"/>
<path d="M0 0 C3.375 1.3125 3.375 1.3125 6 3 C6.495 4.485 6.495 4.485 7 6 C7.64066406 5.566875 8.28132813 5.13375 8.94140625 4.6875 C17.87011893 -1.06094095 17.87011893 -1.06094095 24 0 C28.77885784 1.74612113 30.82503366 3.43276788 33 8 C33.34057617 11.3215332 33.34057617 11.3215332 33.29296875 15.05078125 C33.28872391 15.70958786 33.28447906 16.36839447 33.28010559 17.04716492 C33.26341196 19.13603885 33.22578058 21.22392139 33.1875 23.3125 C33.17244097 24.73501203 33.15875469 26.1575393 33.14648438 27.58007812 C33.11354003 31.05370351 33.06182408 34.52675487 33 38 C29.04 38 25.08 38 21 38 C20.93941406 36.13472656 20.87882812 34.26945312 20.81640625 32.34765625 C20.7320219 29.9192621 20.64737286 27.49087713 20.5625 25.0625 C20.52318359 23.83080078 20.48386719 22.59910156 20.44335938 21.33007812 C20.40146484 20.16025391 20.35957031 18.99042969 20.31640625 17.78515625 C20.26141968 16.15912476 20.26141968 16.15912476 20.20532227 14.50024414 C20.27635735 12.060737 20.27635735 12.060737 19 11 C14.34911285 10.69476038 14.34911285 10.69476038 10 12 C9.67 20.58 9.34 29.16 9 38 C5.04 38 1.08 38 -3 38 C-3.06058594 36.13472656 -3.12117188 34.26945312 -3.18359375 32.34765625 C-3.2679781 29.9192621 -3.35262714 27.49087713 -3.4375 25.0625 C-3.47681641 23.83080078 -3.51613281 22.59910156 -3.55664062 21.33007812 C-3.59853516 20.16025391 -3.64042969 18.99042969 -3.68359375 17.78515625 C-3.72025146 16.70113525 -3.75690918 15.61711426 -3.79467773 14.50024414 C-3.72364265 12.060737 -3.72364265 12.060737 -5 11 C-9.65088715 10.69476038 -9.65088715 10.69476038 -14 12 C-14.33 20.25 -14.66 28.5 -15 37 C-18.63 37 -22.26 37 -26 37 C-26 25.12 -26 13.24 -26 1 C-22.37 1 -18.74 1 -15 1 C-14.67 1.99 -14.34 2.98 -14 4 C-12.4840625 3.01 -12.4840625 3.01 -10.9375 2 C-7.1439904 -0.14914556 -4.39502395 -0.55936669 0 0 Z " fill="#FDEA01" transform="translate(116,289)"/>
<path d="M0 0 C4.95 0 9.9 0 15 0 C17.42519097 6.5129581 19.84616263 13.02746254 22.26318359 19.54345703 C23.08655967 21.76133898 23.91110085 23.97878875 24.73681641 26.19580078 C25.92133993 29.37680813 27.10170744 32.55933037 28.28125 35.7421875 C28.65310425 36.73805878 29.0249585 37.73393005 29.40808105 38.75997925 C29.74843384 39.68078278 30.08878662 40.6015863 30.43945312 41.55029297 C30.7414563 42.3630368 31.04345947 43.17578064 31.35461426 44.01315308 C32 46 32 46 32 48 C27.71 48 23.42 48 19 48 C18.34 45.03 17.68 42.06 17 39 C10.73 39 4.46 39 -2 39 C-2.99 41.97 -3.98 44.94 -5 48 C-8.96 48 -12.92 48 -17 48 C-16.32224177 44.61120885 -15.68936879 41.86940814 -14.52539062 38.70043945 C-14.22838257 37.88642166 -13.93137451 37.07240387 -13.62536621 36.23371887 C-13.30555786 35.36897446 -12.98574951 34.50423004 -12.65625 33.61328125 C-12.32709595 32.71506149 -11.99794189 31.81684174 -11.65881348 30.8914032 C-10.96452007 28.99883236 -10.26847781 27.10690229 -9.57080078 25.21557617 C-8.50044749 22.3137132 -7.43530734 19.40997891 -6.37109375 16.50585938 C-5.69561458 14.6665557 -5.01984343 12.82735922 -4.34375 10.98828125 C-4.02394165 10.11746414 -3.7041333 9.24664703 -3.37463379 8.34944153 C-3.07762573 7.54488022 -2.78061768 6.74031891 -2.47460938 5.91137695 C-2.08275452 4.84811943 -2.08275452 4.84811943 -1.6829834 3.76338196 C-1 2 -1 2 0 0 Z " fill="#FDEC01" transform="translate(54,278)"/>
<path d="M0 0 C1.13622803 0.00241699 1.13622803 0.00241699 2.29541016 0.00488281 C8.86669583 0.14949363 13.56332753 1.19670371 18.36450195 6.08105469 C20.19802455 9.26019814 20.02691573 11.67429573 19.98046875 15.328125 C19.97622391 15.98834656 19.97197906 16.64856812 19.96760559 17.32879639 C19.95087435 19.42795391 19.91323551 21.52613496 19.875 23.625 C19.85994584 25.05206942 19.84625871 26.47915396 19.83398438 27.90625 C19.80099001 31.39614817 19.74924743 34.8854787 19.6875 38.375 C15.7275 38.375 11.7675 38.375 7.6875 38.375 C7.3575 37.385 7.0275 36.395 6.6875 35.375 C5.90375 35.87 5.12 36.365 4.3125 36.875 C-0.36968864 38.81245737 -4.30890625 38.99314013 -9.3125 38.375 C-13.24943281 36.73461133 -14.70242021 35.24337351 -16.3125 31.375 C-16.8349082 28.30104016 -16.85576752 25.44802838 -16.3125 22.375 C-12.84340444 17.84590301 -9.57865393 15.81079883 -4.0625 14.75 C-0.09474015 14.35322401 3.70356194 14.30510635 7.6875 14.375 C6.3785428 11.25302522 6.3785428 11.25302522 3.6875 9.375 C-2.35165135 8.90025867 -7.60309151 9.38911879 -13.3125 11.375 C-13.3125 8.405 -13.3125 5.435 -13.3125 2.375 C-8.93393503 0.21594429 -4.79611211 -0.01048789 0 0 Z " fill="#FDEA01" transform="translate(639.3125,288.625)"/>
<path d="M0 0 C2.45212909 2.38843743 4.46064582 4.92129164 6 8 C6 11.63 6 15.26 6 19 C-2.58 19 -11.16 19 -20 19 C-18.52360997 24.06008639 -18.52360997 24.06008639 -15 26 C-7.75601996 26.91440404 -1.7179419 25.64312468 5 23 C5 26.3 5 29.6 5 33 C-3.6501638 35.84170953 -15.29742277 37.28084731 -23.8125 33.3125 C-27.92892974 30.32607058 -30.38576246 27.84271262 -32 23 C-32.91235706 10.95987813 -32.91235706 10.95987813 -30.3125 5.375 C-21.93416806 -3.22977334 -10.90191262 -6.41288978 0 0 Z " fill="#FDEA01" transform="translate(304,292)"/>
<path d="M0 0 C3.68615206 2.21937072 5.74805019 4.36011501 7.5 8.375 C7.5 12.005 7.5 15.635 7.5 19.375 C-1.08 19.375 -9.66 19.375 -18.5 19.375 C-16.16151858 25.29231018 -16.16151858 25.29231018 -12.5 27.375 C-5.89519133 28.10886763 -0.23641768 27.99800064 5.5 24.375 C6.16 24.375 6.82 24.375 7.5 24.375 C7.5 27.675 7.5 30.975 7.5 34.375 C2.57195842 36.326007 -1.65685045 36.72788815 -6.875 36.6875 C-7.62942383 36.68186035 -8.38384766 36.6762207 -9.16113281 36.67041016 C-15.16052127 36.53908414 -20.3155394 36.24596448 -25.0078125 32.015625 C-29.78346717 26.72147068 -30.98429554 21.88288832 -30.80859375 14.9375 C-30.21577172 10.01482592 -28.46092874 6.1665758 -24.78125 2.8046875 C-17.63270538 -2.49614008 -8.27389482 -3.7551952 0 0 Z " fill="#FDEC01" transform="translate(473.5,290.625)"/>
<path d="M0 0 C3.63 0 7.26 0 11 0 C11.33 9.57 11.66 19.14 12 29 C13.52625 26.525 15.0525 24.05 16.625 21.5 C19.60096441 17.08100405 21.55289382 14.37463155 26.84765625 13.00390625 C30.34126065 13.05721659 33.57459131 13.32491945 37 14 C34.18309866 18.50704214 31.03918717 22.19554118 27.29296875 25.97265625 C25.7997151 27.91762559 25.7997151 27.91762559 25.984375 30.265625 C27.43030566 34.15851524 29.67917089 37.30756559 32.0625 40.6875 C37 47.75358117 37 47.75358117 37 50 C32.40562025 50.89473238 28.5527239 51.21202269 24 50 C19.88284856 46.22616803 17.43985255 40.94275039 15 36 C14.01 36.66 13.02 37.32 12 38 C11.41518879 40.88595946 11.41518879 40.88595946 11.3125 44.125 C11.24675781 45.22070312 11.18101562 46.31640625 11.11328125 47.4453125 C11.07589844 48.28835938 11.03851562 49.13140625 11 50 C7.37 50 3.74 50 0 50 C0 33.5 0 17 0 0 Z " fill="#FDEF00" transform="translate(711,276)"/>
<path d="M0 0 C3.08106082 2.07792474 4.09343086 3.47478265 5.6875 6.8125 C6.02807617 10.1340332 6.02807617 10.1340332 5.98046875 13.86328125 C5.97622391 14.52208786 5.97197906 15.18089447 5.96760559 15.85966492 C5.95091196 17.94853885 5.91328058 20.03642139 5.875 22.125 C5.85994097 23.54751203 5.84625469 24.9700393 5.83398438 26.39257812 C5.80104003 29.86620351 5.74932408 33.33925487 5.6875 36.8125 C1.7275 36.8125 -2.2325 36.8125 -6.3125 36.8125 C-6.37308594 34.94722656 -6.43367187 33.08195312 -6.49609375 31.16015625 C-6.5804781 28.7317621 -6.66512714 26.30337713 -6.75 23.875 C-6.78931641 22.64330078 -6.82863281 21.41160156 -6.86914062 20.14257812 C-6.91103516 18.97275391 -6.95292969 17.80292969 -6.99609375 16.59765625 C-7.03275146 15.51363525 -7.06940918 14.42961426 -7.10717773 13.31274414 C-7.03614265 10.873237 -7.03614265 10.873237 -8.3125 9.8125 C-13.48985677 9.44197661 -13.48985677 9.44197661 -18.3125 10.8125 C-18.6425 19.0625 -18.9725 27.3125 -19.3125 35.8125 C-23.2725 35.8125 -27.2325 35.8125 -31.3125 35.8125 C-31.3125 23.9325 -31.3125 12.0525 -31.3125 -0.1875 C-27.3525 -0.1875 -23.3925 -0.1875 -19.3125 -0.1875 C-18.9825 0.8025 -18.6525 1.7925 -18.3125 2.8125 C-17.3225 2.1525 -16.3325 1.4925 -15.3125 0.8125 C-10.06415982 -2.16686079 -5.72930863 -2.05390309 0 0 Z " fill="#FDE801" transform="translate(697.3125,290.1875)"/>
<path d="M0 0 C2.7850376 1.81351286 4.03242466 2.90007458 5.6875 5.75 C6.02807617 8.95800781 6.02807617 8.95800781 5.98046875 12.703125 C5.97622391 13.36334656 5.97197906 14.02356812 5.96760559 14.70379639 C5.95087435 16.80295391 5.91323551 18.90113496 5.875 21 C5.85994584 22.42706942 5.84625871 23.85415396 5.83398438 25.28125 C5.80099001 28.77114817 5.74924743 32.2604787 5.6875 35.75 C2.0575 35.75 -1.5725 35.75 -5.3125 35.75 C-5.36148438 34.12449219 -5.41046875 32.49898438 -5.4609375 30.82421875 C-5.53596565 28.69529508 -5.61151346 26.56638968 -5.6875 24.4375 C-5.7184375 23.36564453 -5.749375 22.29378906 -5.78125 21.18945312 C-5.81992188 20.16142578 -5.85859375 19.13339844 -5.8984375 18.07421875 C-5.9298584 17.12635498 -5.9612793 16.17849121 -5.99365234 15.2019043 C-6.1614051 12.4969731 -6.1614051 12.4969731 -8.3125 9.75 C-11.6125 9.75 -14.9125 9.75 -18.3125 9.75 C-18.3125 18.66 -18.3125 27.57 -18.3125 36.75 C-22.2725 36.75 -26.2325 36.75 -30.3125 36.75 C-30.3125 24.54 -30.3125 12.33 -30.3125 -0.25 C-26.3525 -0.25 -22.3925 -0.25 -18.3125 -0.25 C-18.3125 0.74 -18.3125 1.73 -18.3125 2.75 C-17.3225 2.09 -16.3325 1.43 -15.3125 0.75 C-10.06330889 -2.22984384 -5.70526644 -2.15293073 0 0 Z " fill="#FDEB01" transform="translate(220.3125,290.25)"/>
<path d="M0 0 C3.07547026 2.07415436 4.09060968 3.48504368 5.6875 6.8125 C6.02807617 10.04223633 6.02807617 10.04223633 5.98046875 13.64453125 C5.9659668 15.58295898 5.9659668 15.58295898 5.95117188 17.56054688 C5.92610985 18.9153707 5.90071506 20.27018841 5.875 21.625 C5.85994013 22.99933445 5.84625401 24.37368468 5.83398438 25.74804688 C5.79866628 29.10326632 5.74933851 32.45768166 5.6875 35.8125 C2.0575 35.8125 -1.5725 35.8125 -5.3125 35.8125 C-5.36148437 34.27078125 -5.41046875 32.7290625 -5.4609375 31.140625 C-5.53597674 29.11456544 -5.61152408 27.08852465 -5.6875 25.0625 C-5.7184375 24.04671875 -5.749375 23.0309375 -5.78125 21.984375 C-5.81992187 21.0046875 -5.85859375 20.025 -5.8984375 19.015625 C-5.94556885 17.66452637 -5.94556885 17.66452637 -5.99365234 16.28613281 C-6.32387256 13.72427125 -7.02201673 12.03122563 -8.3125 9.8125 C-9.59125 9.791875 -10.87 9.77125 -12.1875 9.75 C-12.90679687 9.73839844 -13.62609375 9.72679687 -14.3671875 9.71484375 C-16.39435404 9.68600758 -16.39435404 9.68600758 -18.3125 10.8125 C-18.6425 19.0625 -18.9725 27.3125 -19.3125 35.8125 C-22.9425 35.8125 -26.5725 35.8125 -30.3125 35.8125 C-30.3125 23.9325 -30.3125 12.0525 -30.3125 -0.1875 C-26.3525 -0.1875 -22.3925 -0.1875 -18.3125 -0.1875 C-18.3125 0.8025 -18.3125 1.7925 -18.3125 2.8125 C-17.3225 2.1525 -16.3325 1.4925 -15.3125 0.8125 C-10.06415982 -2.16686079 -5.72930863 -2.05390309 0 0 Z " fill="#FDEE00" transform="translate(517.3125,290.1875)"/>
<path d="M0 0 C9.57 0 19.14 0 29 0 C29 2.97 29 5.94 29 9 C26.36 9 23.72 9 21 9 C21 19.23 21 29.46 21 40 C23.31 40 25.62 40 28 40 C28 42.64 28 45.28 28 48 C18.76 48 9.52 48 0 48 C0 45.36 0 42.72 0 40 C2.64 40 5.28 40 8 40 C8 29.77 8 19.54 8 9 C5.36 9 2.72 9 0 9 C0 6.03 0 3.06 0 0 Z " fill="#FDE901" transform="translate(155,278)"/>
<path d="M0 0 C1 1 1 1 1.09765625 3.06640625 C1.08605469 3.89011719 1.07445312 4.71382813 1.0625 5.5625 C1.05347656 6.38878906 1.04445313 7.21507812 1.03515625 8.06640625 C1.02355469 8.70449219 1.01195312 9.34257812 1 10 C0.47792969 9.7834375 -0.04414063 9.566875 -0.58203125 9.34375 C-6.843157 6.97526811 -12.347837 6.66428336 -19 7 C-19 8.32 -19 9.64 -19 11 C-17.98679687 11.15855469 -16.97359375 11.31710937 -15.9296875 11.48046875 C-2.58344847 13.74251499 -2.58344847 13.74251499 2 19 C3.41000664 21.82001327 3.24548451 23.87007255 3 27 C1.33142171 31.12236988 -1.04265978 33.03415358 -4.90698242 35.16650391 C-8.74128138 36.69342525 -12.55384924 36.49586229 -16.625 36.375 C-17.45773437 36.37371094 -18.29046875 36.37242187 -19.1484375 36.37109375 C-23.52250754 36.30840803 -27.0240128 36.0285649 -31 34 C-31 30.7 -31 27.4 -31 24 C-29.7625 24.495 -28.525 24.99 -27.25 25.5 C-21.51266858 27.4490456 -15.99334351 27.27380757 -10 27 C-9.67 26.01 -9.34 25.02 -9 24 C-10.51980469 23.76216797 -10.51980469 23.76216797 -12.0703125 23.51953125 C-25.41655153 21.25748501 -25.41655153 21.25748501 -30 16 C-31.57455739 12.85088521 -31.34799118 10.47991184 -31 7 C-28.38674915 2.88215018 -25.85485477 0.20384673 -21.15234375 -1.53515625 C-14.08291219 -3.06194818 -6.73825073 -2.54556139 0 0 Z " fill="#FDEB01" transform="translate(344,291)"/>
<path d="M0 0 C3.96 0 7.92 0 12 0 C12.95972174 2.54115002 13.91781494 5.08289457 14.875 7.625 C15.14441406 8.33785156 15.41382813 9.05070312 15.69140625 9.78515625 C17.2134184 13.83148122 18.66372172 17.88737656 20 22 C23.00916541 14.76519806 25.57418121 7.45072913 28 0 C31.96 0 35.92 0 40 0 C39.39517542 4.52251602 38.21652803 8.40566879 36.53125 12.640625 C36.29088013 13.24888123 36.05051025 13.85713745 35.80285645 14.48382568 C35.04075489 16.40812903 34.2704204 18.32901437 33.5 20.25 C32.98254975 21.5544801 32.46561769 22.85916587 31.94921875 24.1640625 C28.22067354 33.55865293 28.22067354 33.55865293 27 36 C22.38 36 17.76 36 13 36 C11.14435398 31.19612423 9.29305325 26.39060573 7.44580078 21.58349609 C6.8164667 19.94761736 6.18593709 18.31219804 5.55419922 16.67724609 C4.6475838 14.33029345 3.74524785 11.98173482 2.84375 9.6328125 C2.4172113 8.53273361 2.4172113 8.53273361 1.98205566 7.41043091 C0 2.22774341 0 2.22774341 0 0 Z " fill="#FDEC01" transform="translate(230,290)"/>
<path d="M0 0 C3.96 0 7.92 0 12 0 C12 3.3 12 6.6 12 10 C15.63 10 19.26 10 23 10 C23 12.64 23 15.28 23 18 C19.37 18 15.74 18 12 18 C12.14016167 21.14618209 12.28684905 24.29181816 12.4375 27.4375 C12.47681641 28.33533203 12.51613281 29.23316406 12.55664062 30.15820312 C12.59853516 31.01220703 12.64042969 31.86621094 12.68359375 32.74609375 C12.72025146 33.53685303 12.75690918 34.3276123 12.79467773 35.14233398 C12.80563257 37.01401441 12.80563257 37.01401441 14 38 C15.51928038 38.07179964 17.04167482 38.08392007 18.5625 38.0625 C19.38878906 38.05347656 20.21507812 38.04445313 21.06640625 38.03515625 C21.70449219 38.02355469 22.34257812 38.01195312 23 38 C23 40.64 23 43.28 23 46 C20.07539571 47.46230215 17.44347176 47.20908727 14.1875 47.25 C12.35251953 47.28867187 12.35251953 47.28867187 10.48046875 47.328125 C6.7278253 46.97434043 4.92801803 46.3340036 2 44 C0.02582831 40.86740169 -0.23796293 38.46481158 -0.1953125 34.796875 C-0.18564453 33.32734375 -0.18564453 33.32734375 -0.17578125 31.828125 C-0.15902344 30.81234375 -0.14226562 29.7965625 -0.125 28.75 C-0.11597656 27.71875 -0.10695313 26.6875 -0.09765625 25.625 C-0.07412011 23.08309713 -0.04124023 20.5416672 0 18 C-1.65 18 -3.3 18 -5 18 C-5 15.36 -5 12.72 -5 10 C-3.35 10 -1.7 10 0 10 C0 6.7 0 3.4 0 0 Z " fill="#FDEB01" transform="translate(352,280)"/>
<path d="M0 0 C3.63 0 7.26 0 11 0 C11 3.3 11 6.6 11 10 C14.63 10 18.26 10 22 10 C22 12.64 22 15.28 22 18 C18.37 18 14.74 18 11 18 C11.14046255 20.95867918 11.28712224 23.91682264 11.4375 26.875 C11.47681641 27.71675781 11.51613281 28.55851562 11.55664062 29.42578125 C11.59853516 30.23144531 11.64042969 31.03710938 11.68359375 31.8671875 C11.72025146 32.61081543 11.75690918 33.35444336 11.79467773 34.12060547 C11.89955865 36.08864312 11.89955865 36.08864312 13 38 C15.97 38 18.94 38 22 38 C22 40.97 22 43.94 22 47 C19.77110504 47.05428973 17.54182529 47.09292338 15.3125 47.125 C14.07113281 47.14820313 12.82976563 47.17140625 11.55078125 47.1953125 C7.23796481 46.95808387 4.37920692 46.47932404 1.37890625 43.26123047 C-0.31705424 40.48007147 -0.3469458 38.8167479 -0.29296875 35.578125 C-0.28330078 34.55332031 -0.27363281 33.52851563 -0.26367188 32.47265625 C-0.23853516 31.40917969 -0.21339844 30.34570312 -0.1875 29.25 C-0.17396484 28.17105469 -0.16042969 27.09210938 -0.14648438 25.98046875 C-0.11116584 23.3198058 -0.06184199 20.66015704 0 18 C-1.65 18 -3.3 18 -5 18 C-5 15.36 -5 12.72 -5 10 C-3.35 10 -1.7 10 0 10 C0 6.7 0 3.4 0 0 Z " fill="#FEEF00" transform="translate(532,280)"/>
<path d="M0 0 C2.10353495 -0.0810206 4.20795952 -0.13919907 6.3125 -0.1875 C7.48425781 -0.22230469 8.65601563 -0.25710938 9.86328125 -0.29296875 C13 0 13 0 14.88671875 1.359375 C16 3 16 3 16.5 5.4375 C16 8 16 8 14.1875 10.3125 C9.38894728 12.85291026 5.38876469 12.2596995 0 12 C0 8.04 0 4.08 0 0 Z " fill="#ED2622" transform="translate(591,306)"/>
<path d="M0 0 C8.36923077 -0.36923077 8.36923077 -0.36923077 11.5625 1.5 C12.036875 1.995 12.51125 2.49 13 3 C12.625 5.9375 12.625 5.9375 12 9 C9.47524538 10.26237731 7.68799534 10.09856404 4.875 10.0625 C3.26625 10.041875 1.6575 10.02125 0 10 C0 6.7 0 3.4 0 0 Z " fill="#ED2422" transform="translate(591,287)"/>
<path d="M0 0 C2.49936244 2.49936244 3.03723753 4.64808008 4.125 8 C4.47820312 9.0725 4.83140625 10.145 5.1953125 11.25 C6 14 6 14 6 16 C2.37 16 -1.26 16 -5 16 C-3.85388265 10.26941324 -2.47605477 5.28975338 0 0 Z " fill="#ED2921" transform="translate(61,292)"/>
<path d="M0 0 C1.21236328 0.02707031 1.21236328 0.02707031 2.44921875 0.0546875 C3.37154297 0.08949219 3.37154297 0.08949219 4.3125 0.125 C4.4375 3.5 4.4375 3.5 4.3125 7.125 C2.3125 9.125 2.3125 9.125 0.18359375 9.35546875 C-0.61949219 9.34128906 -1.42257812 9.32710938 -2.25 9.3125 C-3.45849609 9.30283203 -3.45849609 9.30283203 -4.69140625 9.29296875 C-6.6875 9.125 -6.6875 9.125 -7.6875 8.125 C-7.9375 5.1875 -7.9375 5.1875 -7.6875 2.125 C-4.48369983 -0.01086678 -3.66810033 -0.10632175 0 0 Z " fill="#ED2322" transform="translate(642.6875,309.875)"/>
<path d="M0 0 C1.17369141 -0.02513672 1.17369141 -0.02513672 2.37109375 -0.05078125 C4.5625 0.3125 4.5625 0.3125 6.34765625 1.58203125 C7.5625 3.3125 7.5625 3.3125 7.5625 7.3125 C2.6125 7.3125 -2.3375 7.3125 -7.4375 7.3125 C-6.26821859 1.46609293 -5.7515132 0.02833258 0 0 Z " fill="#EE2F20" transform="translate(462.4375,296.6875)"/>
<path d="M0 0 C0.78503906 -0.01675781 1.57007813 -0.03351563 2.37890625 -0.05078125 C3.39791016 0.12904297 3.39791016 0.12904297 4.4375 0.3125 C6.4375 3.3125 6.4375 3.3125 6.4375 7.3125 C1.4875 7.3125 -3.4625 7.3125 -8.5625 7.3125 C-8.2325 5.6625 -7.9025 4.0125 -7.5625 2.3125 C-4.45212372 0.23891581 -3.56688748 0.01762877 0 0 Z " fill="#EE3020" transform="translate(291.5625,296.6875)"/>
</svg>
