<?xml version="1.0" standalone="no"?>
<!DOCTYPE svg PUBLIC "-//W3C//DTD SVG 20010904//EN"
 "http://www.w3.org/TR/2001/REC-SVG-20010904/DTD/svg10.dtd">
<svg version="1.0" xmlns="http://www.w3.org/2000/svg"
 width="792.000000pt" height="276.000000pt" viewBox="0 0 792.000000 276.000000"
 preserveAspectRatio="xMidYMid meet">

<g transform="translate(0.000000,276.000000) scale(0.100000,-0.100000)"
fill="#000000" stroke="none">
<path d="M1385 2343 c-11 -2 -37 -9 -58 -14 l-38 -10 157 -165 c87 -90 159
-162 161 -160 2 2 8 31 14 66 l10 62 -108 111 c-59 62 -109 113 -112 113 -4 1
-15 0 -26 -3z"/>
<path d="M1687 1922 c-32 -233 -56 -426 -55 -428 2 -2 28 11 58 29 l55 33 51
380 c28 208 50 380 49 382 -2 2 -25 9 -52 16 l-49 13 -57 -425z"/>
<path d="M1157 2264 l-48 -25 43 -48 c24 -27 129 -139 233 -249 l190 -200 11
66 10 67 -140 148 c-78 82 -166 175 -196 208 l-55 59 -48 -26z"/>
<path d="M1926 2263 c-13 -65 -87 -636 -82 -640 9 -9 98 50 106 71 5 12 23
127 40 256 17 129 33 249 36 265 5 28 2 32 -41 53 -25 12 -47 22 -49 22 -3 0
-7 -12 -10 -27z"/>
<path d="M987 2157 l-37 -32 296 -313 c163 -172 298 -312 299 -310 1 2 6 33 9
69 l7 65 -262 277 c-144 152 -265 277 -268 277 -3 0 -23 -15 -44 -33z"/>
<path d="M2106 2178 c-6 -17 -56 -398 -56 -421 0 -16 5 -15 43 8 23 14 48 30
56 34 10 6 21 59 36 165 l21 157 -35 28 c-52 40 -61 44 -65 29z"/>
<path d="M5980 2130 l0 -60 60 0 60 0 0 60 0 60 -60 0 -60 0 0 -60z"/>
<path d="M3085 2156 c-162 -40 -240 -147 -240 -326 1 -192 107 -297 310 -307
50 -3 108 -1 130 4 l40 9 3 53 c3 52 2 53 -20 47 -13 -3 -50 -9 -83 -12 -151
-15 -244 66 -245 214 0 95 40 170 112 208 36 19 160 18 198 -1 l28 -15 7 51
c4 28 3 55 -2 60 -12 12 -106 29 -152 28 -20 0 -58 -6 -86 -13z"/>
<path d="M4703 2161 c-117 -30 -179 -140 -138 -247 20 -53 59 -85 145 -120 83
-34 107 -50 114 -80 8 -32 -7 -60 -44 -79 -37 -19 -83 -19 -149 1 -29 8 -54
14 -56 12 -1 -2 -5 -26 -8 -55 l-6 -52 57 -12 c85 -17 199 -8 252 22 64 35 92
87 88 164 -5 90 -28 116 -157 179 -101 49 -106 53 -109 85 -3 24 3 40 20 58
21 23 28 24 93 20 39 -3 79 -7 90 -9 18 -3 20 3 23 48 3 46 1 52 -20 58 -41
11 -162 15 -195 7z"/>
<path d="M3417 2154 c-4 -4 -7 -146 -7 -316 l0 -308 65 0 65 0 0 135 0 134
108 3 107 3 0 50 0 50 -107 3 -108 3 0 69 0 69 113 3 112 3 0 50 0 50 -171 3
c-93 1 -173 -1 -177 -4z"/>
<path d="M3962 2143 c-5 -10 -60 -148 -122 -308 -62 -159 -114 -293 -117 -297
-2 -5 26 -8 64 -8 l68 0 26 68 26 67 128 0 127 0 25 -67 25 -68 69 0 c38 0 69
4 69 8 0 4 -15 46 -34 93 -18 46 -73 184 -121 307 l-87 222 -69 0 c-55 0 -70
-3 -77 -17z m117 -242 c23 -63 41 -118 41 -123 0 -4 -38 -8 -85 -8 -47 0 -85
3 -85 8 0 11 83 243 86 240 1 -2 21 -55 43 -117z"/>
<path d="M6798 2102 l-48 -16 0 -48 0 -48 -45 0 -45 0 0 -45 0 -45 44 0 45 0
3 -155 3 -155 33 -32 c31 -32 36 -33 110 -33 l77 0 3 50 3 51 -42 -4 c-63 -6
-69 8 -69 154 l0 123 53 3 52 3 3 43 3 42 -55 0 -56 0 0 65 c0 72 1 72 -72 47z"/>
<path d="M5153 1979 c-151 -74 -177 -300 -48 -407 86 -70 234 -70 320 0 106
88 111 267 9 365 -23 23 -60 47 -81 52 -64 18 -153 13 -200 -10z m189 -108
c51 -56 50 -171 -2 -223 -23 -23 -37 -28 -75 -28 -38 0 -52 5 -75 28 -66 66
-45 219 34 253 37 15 89 2 118 -30z"/>
<path d="M5690 1984 c-46 -20 -77 -50 -103 -99 -17 -32 -22 -57 -22 -125 0
-68 5 -93 22 -125 43 -82 104 -115 210 -115 107 0 113 4 113 61 l0 48 -70 -6
c-81 -7 -113 8 -136 62 -50 121 30 243 142 218 48 -11 54 -6 54 52 0 21 -6 35
-16 39 -31 12 -159 5 -194 -10z"/>
<path d="M6302 1979 c-71 -36 -112 -115 -112 -219 0 -164 96 -249 269 -238 42
3 88 11 104 18 24 12 27 19 27 62 0 26 -1 48 -2 48 -2 0 -27 -9 -56 -20 -62
-24 -122 -26 -162 -5 -33 17 -60 52 -60 77 0 16 15 18 158 20 l157 3 -3 45
c-8 113 -53 192 -125 219 -49 19 -147 13 -195 -10z m167 -86 c12 -10 25 -33
30 -50 l10 -33 -100 0 c-94 0 -99 1 -99 21 0 11 13 34 29 50 35 34 95 40 130
12z"/>
<path d="M5980 1760 l0 -230 60 0 60 0 0 230 0 230 -60 0 -60 0 0 -230z"/>
<path d="M7000 1982 c0 -4 38 -113 85 -241 47 -128 85 -241 85 -250 0 -35 -38
-61 -89 -61 l-48 0 -7 -41 c-4 -23 -4 -44 -1 -47 3 -4 34 -8 68 -10 52 -3 67
0 96 20 19 12 43 35 53 49 17 23 228 562 228 582 0 4 -28 7 -62 5 l-61 -3 -50
-157 c-28 -87 -53 -158 -56 -158 -4 0 -30 72 -59 160 l-53 160 -65 0 c-35 0
-64 -4 -64 -8z"/>
<path d="M849 1877 l-106 -9 -27 -55 c-15 -31 -26 -56 -24 -58 2 -1 106 7 231
18 l228 20 -48 49 c-54 55 -49 54 -254 35z"/>
<path d="M2032 1631 l-363 -218 60 -23 c33 -12 66 -20 74 -18 31 7 647 384
647 395 0 21 -33 83 -44 83 -6 -1 -174 -99 -374 -219z"/>
<path d="M940 1691 c-151 -13 -278 -29 -281 -34 -9 -14 -21 -89 -15 -95 7 -6
626 47 649 56 15 6 11 14 -30 53 l-48 45 -275 -25z"/>
<path d="M2190 1504 c-151 -91 -278 -169 -283 -173 -4 -4 21 -17 56 -30 l64
-22 229 137 c126 75 234 142 241 148 15 14 -3 106 -20 106 -7 -1 -136 -75
-287 -166z"/>
<path d="M1000 1504 c-195 -18 -358 -33 -362 -34 -12 0 -21 -70 -12 -89 8 -16
33 -15 424 20 228 21 419 38 425 38 5 1 -13 24 -40 51 -27 28 -56 50 -65 49
-8 -1 -175 -16 -370 -35z"/>
<path d="M2316 1355 c-172 -104 -187 -115 -165 -123 13 -5 41 -17 63 -26 l38
-16 134 81 134 80 0 60 c0 32 -3 59 -7 59 -5 -1 -93 -52 -197 -115z"/>
<path d="M1368 1343 c-9 -2 -110 -146 -224 -320 -223 -339 -217 -324 -158
-369 l29 -23 233 354 c127 194 232 355 232 359 0 7 -85 6 -112 -1z"/>
<path d="M1132 1322 c-16 -5 -69 -77 -177 -241 l-154 -234 30 -38 c17 -22 34
-39 39 -39 7 0 370 544 370 555 0 7 -81 4 -108 -3z"/>
<path d="M1662 1266 l21 -63 326 -123 c179 -68 341 -130 358 -137 l33 -13 24
49 25 48 -398 152 c-220 83 -401 151 -404 151 -3 0 4 -29 15 -64z"/>
<path d="M4160 985 l0 -335 60 0 60 0 0 335 0 335 -60 0 -60 0 0 -335z"/>
<path d="M897 1303 c-23 -4 -43 -27 -114 -134 l-87 -130 28 -56 c15 -30 29
-54 31 -52 8 9 245 370 245 374 0 6 -61 4 -103 -2z"/>
<path d="M5710 1255 l0 -55 60 0 60 0 0 55 0 55 -60 0 -60 0 0 -55z"/>
<path d="M1521 1249 c-17 -28 -31 -56 -31 -62 1 -14 227 -717 233 -723 5 -6
86 12 94 20 7 7 -249 816 -258 816 -3 0 -20 -23 -38 -51z"/>
<path d="M2870 960 l0 -310 60 0 60 0 1 253 1 252 85 -252 85 -253 58 0 58 0
85 253 85 252 1 -252 1 -253 60 0 60 0 0 310 0 311 -101 -3 -101 -3 -72 -227
c-39 -126 -73 -228 -76 -228 -3 0 -37 102 -76 228 l-72 227 -101 3 -101 3 0
-311z"/>
<path d="M3775 1105 c-27 -8 -53 -14 -57 -15 -8 0 -12 -100 -4 -100 2 0 23 9
47 20 65 29 143 27 174 -5 14 -13 25 -35 25 -48 0 -24 -3 -24 -94 -29 -135 -7
-193 -47 -203 -139 -8 -79 65 -148 156 -149 39 0 120 35 128 56 9 25 23 15 23
-16 0 -30 1 -30 53 -30 l52 0 -5 177 c-6 199 -15 229 -79 267 -43 25 -150 31
-216 11z m182 -282 c-11 -69 -87 -112 -151 -87 -26 10 -37 39 -26 69 13 34 61
54 129 55 l54 0 -6 -37z"/>
<path d="M4475 1105 c-27 -8 -53 -14 -57 -15 -8 0 -12 -100 -4 -100 2 0 23 9
47 20 65 29 143 27 174 -5 14 -13 25 -35 25 -48 0 -24 -3 -24 -94 -29 -135 -7
-193 -47 -203 -139 -8 -79 65 -148 156 -149 39 0 120 35 128 56 9 25 23 15 23
-16 0 -30 1 -30 53 -30 l52 0 -5 177 c-6 199 -15 229 -79 267 -43 25 -150 31
-216 11z m182 -282 c-11 -69 -87 -112 -151 -87 -26 10 -37 39 -26 69 13 34 61
54 129 55 l54 0 -6 -37z"/>
<path d="M5397 1106 c-51 -19 -75 -42 -88 -87 -15 -48 -5 -100 24 -127 13 -12
48 -30 79 -41 83 -29 98 -39 98 -66 0 -50 -83 -69 -177 -40 -22 7 -23 4 -23
-39 0 -41 3 -46 28 -53 15 -5 61 -8 102 -8 88 1 143 22 171 69 23 37 25 106 4
145 -14 28 -71 61 -128 75 -15 3 -37 16 -48 27 -18 18 -19 23 -6 42 13 20 24
22 93 22 l79 0 0 40 c0 38 -1 40 -40 47 -62 11 -126 8 -168 -6z"/>
<path d="M6025 1105 c-27 -8 -53 -14 -57 -15 -8 0 -12 -100 -4 -100 2 0 23 9
47 20 65 29 143 27 174 -5 14 -13 25 -35 25 -48 0 -24 -3 -24 -94 -29 -135 -7
-193 -47 -203 -139 -8 -79 65 -148 156 -149 39 0 120 35 128 56 9 25 23 15 23
-16 0 -30 1 -30 53 -30 l52 0 -5 177 c-6 199 -15 229 -79 267 -43 25 -150 31
-216 11z m182 -282 c-11 -69 -87 -112 -151 -87 -26 10 -37 39 -26 69 13 34 61
54 129 55 l54 0 -6 -37z"/>
<path d="M4849 1003 c21 -59 62 -170 89 -246 55 -151 56 -171 7 -203 -17 -11
-37 -15 -59 -11 -29 5 -35 2 -40 -16 -14 -54 -8 -65 38 -72 85 -13 151 18 184
87 12 23 66 161 120 306 l100 262 -62 0 -62 0 -53 -166 c-29 -91 -54 -164 -57
-161 -3 2 -28 76 -58 163 l-53 159 -66 3 -67 3 39 -108z"/>
<path d="M5710 880 l0 -230 60 0 60 0 0 230 0 230 -60 0 -60 0 0 -230z"/>
<path d="M1387 1046 l-36 -54 87 -271 86 -271 53 0 c31 0 53 4 53 11 0 11
-199 631 -204 636 -2 2 -19 -21 -39 -51z"/>
<path d="M1721 1087 c2 -28 36 -111 50 -119 8 -5 127 -51 264 -103 l250 -95
23 27 c42 51 45 62 20 72 -30 11 -545 206 -580 220 -21 8 -28 8 -27 -2z"/>
<path d="M1251 839 c-17 -28 -31 -53 -31 -57 0 -4 21 -73 46 -153 l47 -147 55
-11 c30 -6 57 -9 59 -7 6 6 -130 426 -138 426 -3 0 -20 -23 -38 -51z"/>
<path d="M1791 863 c0 -5 10 -35 22 -68 l22 -60 135 -52 c74 -28 142 -52 150
-52 8 -1 35 16 58 37 l44 37 -184 69 c-100 38 -198 75 -215 83 -18 7 -33 10
-32 6z"/>
</g>
</svg>
