<?xml version="1.0" encoding="utf-8"?>
<svg width="450" height="113" viewBox="0 0 450 113" fill="none" xmlns="http://www.w3.org/2000/svg">
<g clip-path="url(#clip0_2450_38702)">
<path d="M39.4848 112.997L0.402344 15.082H11.5218L46.7101 103.233H69.1133L65.2191 112.997H39.4848Z" fill="#003A54"/>
<path d="M115.465 0L76.4998 97.3125H51.1642L12.3164 0H40.1151L64.7938 63.3774L90.012 0H115.465Z" fill="#003A54"/>
<path d="M165.631 106.549C150.876 106.549 138.278 101.679 129.2 92.4676C120.379 83.532 115.523 70.8315 115.523 56.7002C115.523 27.9105 135.252 7.02734 162.441 7.02734C175.414 7.02734 187.096 11.8967 195.33 20.757C203.846 29.8934 208.35 42.4936 208.35 57.2273C208.35 59.2603 208.139 62.2975 208.022 63.929L207.975 64.5062H137.809C140.554 77.9598 151.345 86.2679 166.148 86.2679C175.977 86.2679 183.812 82.9296 190.076 76.0271L190.521 75.5503L202.509 90.2839L202.18 90.6855C194.017 101.052 181.372 106.524 165.631 106.524V106.549ZM187.12 48.367C185.22 35.1142 175.367 26.2539 162.441 26.2539C149.515 26.2539 139.827 34.9134 137.598 48.367H187.12Z" fill="#003A54"/>
<path d="M317.496 106.549C303.186 106.549 287.821 102.181 279.211 95.6553L278.812 95.3541L287.398 77.1817L287.938 77.5582C296.055 83.281 308.183 86.9707 318.857 86.9707C330.961 86.9707 337.084 83.6073 337.084 76.9809C337.084 70.0282 327.935 68.4972 317.355 66.7402C301.45 64.0796 281.674 60.7915 281.674 37.6493C281.674 19.0503 297.392 7.02734 321.719 7.02734C334.457 7.02734 347.758 10.3155 355.593 15.3857L356.062 15.6869L347.476 33.8592L346.937 33.5329C339.336 28.7639 331.032 26.4296 321.531 26.4296C309.942 26.4296 303.304 30.1444 303.304 36.5951C303.304 44.1753 312.804 45.8569 323.783 47.7896C339.336 50.5255 358.713 53.9392 358.713 76.3032C358.713 85.3894 354.866 93.0198 347.594 98.3661C340.322 103.738 329.906 106.549 317.496 106.549Z" fill="#003A54"/>
<path d="M401.715 106.546C381.376 106.546 367.723 94.7495 367.723 77.1795C367.723 68.3945 370.632 61.4167 376.379 56.4218C382.807 50.8245 392.636 47.9883 405.585 47.9883H428.176V47.1599C428.176 33.9323 420.646 26.9294 406.43 26.9294C396.436 26.9294 386.161 30.5187 379.593 36.3168L379.053 36.7937L370.256 19.3241L370.655 18.9979C379.874 11.3926 393.832 7 408.963 7C436.035 7 450.345 21.307 450.345 48.3899V105.241H429.372V94.875C423.883 102.48 414.382 106.496 401.738 106.496L401.715 106.546ZM407.087 64.1526C389.539 64.1526 389.539 73.289 389.539 76.2759C389.539 84.082 395.873 88.9514 406.078 88.9514C416.282 88.9514 424.892 83.58 428.176 74.544V64.1526H407.087Z" fill="#003A54"/>
<path d="M220.211 105.292V8.13006H241.347V20.7805C247.634 11.6692 258.167 7.05078 272.665 7.05078H273.251V29.7913L272.571 29.6659C270.694 29.2894 269.216 29.1387 267.809 29.1387C251.646 29.1387 242.356 39.7058 242.356 58.1543V105.292H220.211Z" fill="#003A54"/>
</g>
<defs>
<clipPath id="clip0_2450_38702">
<rect width="450" height="113" fill="white"/>
</clipPath>
</defs>
</svg>
