<?xml version="1.0" encoding="UTF-8"?>
<svg version="1.1" xmlns="http://www.w3.org/2000/svg" width="3840" height="2160">
<path d="M0 0 C1.51009895 -0.01441132 1.51009895 -0.01441132 3.05070496 -0.02911377 C4.69876884 -0.03548859 4.69876884 -0.03548859 6.38012695 -0.04199219 C7.52133499 -0.04769226 8.66254303 -0.05339233 9.83833313 -0.05926514 C12.27209544 -0.06873893 14.70587072 -0.0752585 17.13964844 -0.07910156 C20.78060282 -0.08863723 24.42095005 -0.11956314 28.06176758 -0.15136719 C64.70113308 -0.31841216 100.79916681 6.45026855 133.1809082 24.16113281 C134.49314774 24.85563559 135.80565192 25.54963854 137.1184082 26.24316406 C165.76778805 41.6204446 193.80450772 65.16970904 212.1809082 92.16113281 C212.74962646 92.97928467 212.74962646 92.97928467 213.32983398 93.81396484 C237.95355786 129.27012122 258.08703959 167.91728279 278.44213867 205.921875 C280.18263329 209.16434657 281.93265289 212.40151557 283.68481445 215.63769531 C291.98507232 231.00152227 300.02213549 246.48906644 307.95288086 262.04663086 C311.94727797 269.87892885 315.97134562 277.69240705 320.0793457 285.46582031 C325.64584431 296.00328104 331.07765448 306.60807681 336.4934082 317.22363281 C337.00615295 318.22761108 337.51889771 319.23158936 338.04718018 320.26599121 C346.84006633 337.4870738 355.52876659 354.75880279 364.11445618 372.0841217 C364.55661972 372.97062912 364.99878326 373.85713654 365.4543457 374.77050781 C365.79687504 375.45728922 366.13940437 376.14407063 366.49231339 376.85166359 C369.20709454 382.27292691 372.00515195 387.64381524 374.84936523 392.99804688 C379.66315829 402.10627975 384.30678289 411.29305659 388.89598083 420.51611328 C390.25850348 423.25426932 391.62376485 425.99104597 392.98962402 428.72753906 C396.37733483 435.51612106 399.7606073 442.30691241 403.14398193 449.09765625 C406.01997915 454.86960536 408.89774062 460.64066867 411.7776947 466.41064453 C413.10296282 469.06751873 414.42576046 471.72561212 415.74841309 474.38378906 C420.69814457 484.31277012 425.77197095 494.16629436 430.972229 503.96643066 C434.24042631 510.14024698 437.33571481 516.39909802 440.4309082 522.66113281 C444.16592803 530.21529453 447.95265391 537.69953751 452.10571289 545.03417969 C453.1809082 547.16113281 453.1809082 547.16113281 453.1809082 549.16113281 C401.0409082 549.16113281 348.9009082 549.16113281 295.1809082 549.16113281 C291.2209082 541.57113281 287.2609082 533.98113281 283.1809082 526.16113281 C279.41443861 519.26545276 279.41443861 519.26545276 275.63842773 512.375 C271.0780448 504.0543603 266.73762475 495.6238013 262.39233398 487.18945312 C258.74526023 480.12820436 255.01521015 473.12233874 251.1809082 466.16113281 C246.08977862 456.91814622 241.22445161 447.56879677 236.3918457 438.18847656 C232.28282181 430.23289946 228.04518438 422.35965484 223.72436523 414.51757812 C219.71428326 407.20984505 215.87327952 399.82105183 212.0559082 392.41113281 C190.92110768 351.51201842 165.32094489 314.42064223 119.78540039 299.0625 C110.09505245 295.97819303 100.58039677 294.791849 90.4309082 294.84863281 C89.38249756 294.85354736 88.33408691 294.85846191 87.25390625 294.86352539 C68.0207428 295.15231163 49.3097176 300.54616424 34.9309082 313.84863281 C22.36394796 327.26540799 19.22543942 343.2006721 19.80200195 360.93457031 C20.57437903 374.44995862 26.15459116 385.72174677 35.9934082 394.97363281 C60.06782692 415.28302965 90.99306164 414.32283159 120.7043457 414.25878906 C123.26266451 414.25692096 125.82098368 414.25549891 128.37930298 414.25450134 C134.38893675 414.25109338 140.39854829 414.24323885 146.4081732 414.23315185 C153.25963455 414.22190583 160.11109687 414.21645905 166.96256518 414.21145642 C181.0353564 414.20105342 195.10813128 414.18350737 209.1809082 414.16113281 C208.47373489 417.98599244 207.43783232 421.04902312 205.72387695 424.55175781 C205.19882568 425.63215332 204.67377441 426.71254883 204.1328125 427.82568359 C203.55055908 429.00888184 202.96830566 430.19208008 202.3684082 431.41113281 C201.74784417 432.68284784 201.12782446 433.95482861 200.50830078 435.22705078 C199.14591474 438.02211153 197.77993406 440.8153776 196.41137695 443.60742188 C194.06739731 448.39027386 191.73300812 453.17777548 189.3996582 457.96582031 C186.4379241 464.04215174 183.47474977 470.11777516 180.50923157 476.19226074 C175.74027617 485.96104158 170.9775155 495.7328061 166.22622681 505.51019287 C165.55357826 506.89429396 164.88072303 508.27829463 164.20761108 509.66217041 C159.74955667 518.82848719 155.32816635 528.0121242 150.91918945 537.20214844 C150.36573853 538.35547668 149.8122876 539.50880493 149.24206543 540.69708252 C147.8882252 543.51837451 146.53450905 546.33972597 145.1809082 549.16113281 C125.26504448 549.23145695 105.34920623 549.284235 85.43324375 549.31656933 C76.18429456 549.33198697 66.93542286 549.35297795 57.68652344 549.38745117 C49.61785527 549.41751081 41.54924328 549.43674482 33.48052067 549.4433983 C29.21483869 549.44728273 24.94931731 549.45630297 20.68368721 549.47832298 C16.65438689 549.49895105 12.62531064 549.50491456 8.59596252 549.50045586 C7.13082593 549.50126947 5.66568045 549.50707638 4.20059013 549.51874924 C-9.3913322 549.62156801 -22.93865893 548.03844545 -35.8190918 543.47363281 C-36.92389893 543.09126465 -36.92389893 543.09126465 -38.05102539 542.70117188 C-60.66178319 534.63588132 -80.811905 521.7727386 -98.35424805 505.43847656 C-100.38111938 503.56578879 -102.438445 501.78715435 -104.5690918 500.03613281 C-135.30583079 473.9359361 -153.34953336 429.46853778 -156.8190918 390.16113281 C-156.96286498 387.2581921 -157.00502661 384.36030715 -157.0222168 381.45410156 C-157.02923111 380.65496841 -157.03624542 379.85583527 -157.04347229 379.03248596 C-157.06086214 376.47114348 -157.06732345 373.91003214 -157.0690918 371.34863281 C-157.06976654 370.47364136 -157.07044128 369.5986499 -157.07113647 368.69714355 C-157.05550397 355.95329104 -156.70023483 343.62718084 -153.8190918 331.16113281 C-153.65280273 330.39607422 -153.48651367 329.63101562 -153.31518555 328.84277344 C-146.5159728 298.09522245 -131.56935889 270.85706369 -109.8190918 248.16113281 C-109.02631836 247.30519531 -108.23354492 246.44925781 -107.41674805 245.56738281 C-79.43559153 216.28184155 -40.81813749 199.57934114 -1.8190918 191.16113281 C-1.00939941 190.9803418 -0.19970703 190.79955078 0.63452148 190.61328125 C33.04571914 183.69210425 69.20713391 186.82729727 100.4543457 196.98925781 C103.84781033 198.26112701 103.84781033 198.26112701 106.1809082 198.16113281 C88.41012926 170.74207742 62.5715844 150.44649122 30.32592773 143.09472656 C24.02392144 141.85423288 17.66004298 141.28501435 11.27075195 140.68457031 C10.60459303 140.6209902 9.9384341 140.55741009 9.25208855 140.49190331 C-6.50155553 138.99594888 -22.28312466 138.01860169 -38.07922363 137.10089111 C-41.79550182 136.88368979 -45.51137505 136.65975639 -49.22729492 136.43652344 C-56.42419691 136.00509976 -63.62148446 135.58064361 -70.8190918 135.16113281 C-70.11079113 131.30277003 -69.05733537 128.29548492 -67.2644043 124.79394531 C-66.73073242 123.74078125 -66.19706055 122.68761719 -65.6472168 121.60253906 C-65.08518555 120.508125 -64.5231543 119.41371094 -63.9440918 118.28613281 C-59.20147024 108.99947238 -54.63812624 99.64224985 -50.15351868 90.22827148 C-45.05830227 79.54215447 -39.84847098 68.91324413 -34.6315918 58.28613281 C-26.18532175 41.07690605 -26.18532175 41.07690605 -17.8425293 23.81738281 C-17.46644028 23.03475067 -17.09035126 22.25211853 -16.7028656 21.44577026 C-14.96654136 17.83230559 -13.23579655 14.2163969 -11.515625 10.59521484 C-10.91263051 9.33840873 -10.30937644 8.08172712 -9.70581055 6.82519531 C-9.19236084 5.74705566 -8.67891113 4.66891602 -8.14990234 3.55810547 C-6.03985031 -0.24238818 -4.07441969 0.03141779 0 0 Z " fill="#FEB95D" transform="translate(576.819091796875,799.8388671875)"/>
<path d="M0 0 C0.6781073 0.04620483 1.3562146 0.09240967 2.05487061 0.14001465 C34.27069288 2.35006062 66.68557202 8.18406293 98 16 C98.81742676 16.20302734 99.63485352 16.40605469 100.47705078 16.61523438 C111.86956849 19.51698841 122.43299936 23.87713817 133 29 C133.61391602 29.29664551 134.22783203 29.59329102 134.86035156 29.89892578 C154.02574737 39.30964032 169.86549365 53.82020865 181 72 C181.43828125 72.70382812 181.8765625 73.40765625 182.328125 74.1328125 C191.66472441 90.78540399 191.25137344 116.56976823 186.97265625 134.6796875 C180.0719815 158.23620774 163.86576587 174.30701617 142.93847656 186.16845703 C130.2290479 193.0726051 117.20991248 198.13941205 103 201 C103.8818396 201.22550537 103.8818396 201.22550537 104.78149414 201.45556641 C129.21633989 207.76025698 150.91798178 216.50220383 171 232 C171.75667969 232.57105469 172.51335938 233.14210938 173.29296875 233.73046875 C181.95970649 240.73651423 188.37473582 250.17122971 193.4375 260 C193.75525391 260.60320068 194.07300781 261.20640137 194.40039062 261.82788086 C199.95684175 273.20516263 200.54727381 285.33355321 200.4375 297.75 C200.43379395 298.50045593 200.43008789 299.25091187 200.42626953 300.02410889 C200.21004511 330.75172858 188.01966959 351.91837709 166.6015625 373.40625 C124.28338835 413.33436116 54.66316707 420.64897077 -1 425 C-1.78036621 425.06525879 -2.56073242 425.13051758 -3.36474609 425.19775391 C-7.90616212 425.57536981 -12.44781756 425.80848112 -17 426 C-17.9065332 426.04366699 -18.81306641 426.08733398 -19.74707031 426.13232422 C-39.32351259 427.04679471 -58.90787398 427.10762348 -78.50144577 427.12293625 C-80.52099524 427.12495844 -82.54054252 427.12888079 -84.56008911 427.13284302 C-110.75321832 427.17327486 -136.94003773 426.74419142 -163.0625 424.6875 C-163.89409637 424.62341949 -164.72569275 424.55933899 -165.58248901 424.49331665 C-225.54676739 419.82575259 -299.44086126 410.21437129 -341.4375 362.0625 C-359.05681307 339.78958099 -364.48704627 312.58181143 -361.77294922 284.66455078 C-359.179309 264.13042215 -349.09984457 247.09101522 -333.0390625 234.3203125 C-312.01315438 218.26711272 -289.5180272 207.87532339 -264 201 C-264.8971875 200.78085938 -265.794375 200.56171875 -266.71875 200.3359375 C-294.57733242 193.25617379 -325.81931434 179.18672537 -341.54321289 153.70776367 C-348.75870797 141.17613377 -351.20018799 129.33211173 -351.24023438 115.09228516 C-351.24984246 113.03375287 -351.28085675 110.97626308 -351.3125 108.91796875 C-351.40665012 97.3638696 -349.65733725 86.52916877 -344.875 75.9375 C-344.5749707 75.26759033 -344.27494141 74.59768066 -343.96582031 73.9074707 C-335.69102374 56.21703531 -321.55850442 44.42281668 -305 35 C-304.34290039 34.61602051 -303.68580078 34.23204102 -303.00878906 33.83642578 C-226.3016465 -10.75411693 -119.50162419 -4.17204951 0 0 Z M-153.0625 85.8125 C-154.08287354 85.98209229 -155.10324707 86.15168457 -156.15454102 86.32641602 C-173.45088793 89.34045177 -190.797241 93.39718185 -202 108 C-203.37142511 111.03315189 -203.83760168 113.69188612 -204 117 C-204.06574219 117.66773438 -204.13148438 118.33546875 -204.19921875 119.0234375 C-204.61481884 126.27494253 -202.47070699 132.58948104 -197.875 138.1875 C-183.72692956 152.91899602 -162.34696993 155.49143798 -143 158 C-141.8852832 158.15098145 -140.77056641 158.30196289 -139.62207031 158.45751953 C-100.10019923 163.58441213 -58.49930177 163.19888267 -19 158 C-17.86965332 157.85546387 -16.73930664 157.71092773 -15.57470703 157.56201172 C1.38601538 155.31005872 19.6731337 152.5753353 33 141 C33.68707031 140.4328125 34.37414063 139.865625 35.08203125 139.28125 C40.35089951 134.55965726 41.67955707 130.46483813 42.17578125 123.55078125 C42.24972558 121.00943154 42.17446817 118.53587459 42 116 C41.95488281 115.30777344 41.90976563 114.61554688 41.86328125 113.90234375 C40.83155711 107.16263933 36.19945337 103.02631765 31 99 C18.38990607 91.13030993 4.58234389 88.30504259 -9.875 85.875 C-10.79901611 85.71620361 -11.72303223 85.55740723 -12.67504883 85.39379883 C-33.86711275 82.05083032 -55.25167976 81.67037432 -76.65600586 81.73925781 C-80.21969461 81.75064048 -83.78308412 81.74386967 -87.34676266 81.73238087 C-109.30492224 81.67233865 -131.36420635 82.11232937 -153.0625 85.8125 Z M-210 273 C-216.09116258 280.53380635 -216.74560627 288.63714099 -216 298 C-214.60528535 306.8101777 -209.4082325 311.65558386 -202.5234375 316.87890625 C-153.76512173 350.17551422 -53.39053684 339.880762 2.125 330.12890625 C20.87338395 326.5933146 37.66817252 321.85728998 50.66015625 307.0546875 C55.227455 300.05060836 54.89065995 291.38444427 53.5703125 283.40234375 C51.16566223 274.74857148 45.02841816 270.30442599 37.5625 265.875 C15.64785694 253.64850749 -11.45467018 252.49363887 -36 251 C-36.93440918 250.94215332 -37.86881836 250.88430664 -38.83154297 250.82470703 C-129.24901591 243.14863988 -129.24901591 243.14863988 -210 273 Z " fill="#A55211" transform="translate(3220,922)"/>
<path d="M0 0 C56.1 0 112.2 0 170 0 C185.05633776 37.94197116 200.11136678 75.88444189 215.15722656 113.83056641 C219.45799303 124.67715935 223.75926142 135.52355325 228.06048584 146.3699646 C230.45701054 152.41330181 232.85350369 158.45665153 235.25 164.5 C236.20833318 166.91666673 237.16666652 169.33333339 238.125 171.75 C243.875 186.25 243.875 186.25 245.31216431 189.87419128 C246.27158207 192.29356737 247.23103444 194.71292973 248.19052124 197.13227844 C250.57004516 203.13237957 252.94898901 209.13270933 255.32666016 215.13354492 C259.83294232 226.50479273 264.34545211 237.87345606 268.87701416 249.23464966 C270.76530331 253.96895999 272.65083839 258.70436572 274.53575516 263.44001961 C276.07551073 267.30773726 277.6189572 271.1739546 279.16518211 275.03909016 C280.34006185 277.97914249 281.50942754 280.92138765 282.6796875 283.86328125 C283.10454437 284.92186844 283.52940125 285.98045563 283.96713257 287.07112122 C284.35422394 288.04707748 284.74131531 289.02303375 285.14013672 290.02856445 C285.47713593 290.87288528 285.81413513 291.71720612 286.16134644 292.58711243 C287.01520523 295.04374691 287.55142788 297.44096294 288 300 C288.99 300 289.98 300 291 300 C291.39461426 298.75500732 291.78922852 297.51001465 292.19580078 296.22729492 C294.11667884 290.47370099 296.47516862 284.93409736 298.8671875 279.36328125 C299.33786148 278.25954666 299.80853546 277.15581207 300.29347229 276.01863098 C301.81711869 272.44840097 303.34592618 268.88040849 304.875 265.3125 C305.67078056 263.4512194 306.46601388 261.58970569 307.26117611 259.72816086 C313.08922889 246.0847274 318.94194171 232.45223868 324.86352539 218.84912109 C330.29673737 206.3552655 335.65144767 193.82778827 341.01366043 181.3033371 C347.98333676 165.02437303 354.9568458 148.74734291 362 132.5 C368.71081213 117.01888684 375.35866108 101.51102373 382 86 C389.54826562 68.37091503 397.11131105 50.74864613 404.74023438 33.15429688 C409.52512545 22.11599209 414.26067154 11.05843308 419 0 C469.49 0 519.98 0 572 0 C568.62497552 10.12507343 568.62497552 10.12507343 567.18505859 13.51782227 C566.85907684 14.29057999 566.53309509 15.06333771 566.19723511 15.85951233 C565.8511319 16.67028732 565.50502869 17.48106232 565.1484375 18.31640625 C564.77743927 19.19312485 564.40644104 20.06984344 564.02420044 20.97312927 C562.81106475 23.83764933 561.59306857 26.70007448 560.375 29.5625 C559.51728384 31.58516169 558.65986647 33.60795011 557.80273438 35.63085938 C555.61998625 40.77983961 553.43313338 45.92706339 551.24450684 51.07354736 C550.07952707 53.81299242 548.91511321 56.55267704 547.75097656 59.29248047 C544.97434491 65.82708959 542.19727205 72.36150976 539.41748047 78.89477539 C534.08915835 91.4203827 528.7903833 103.95832738 523.5 116.5 C517.17568603 131.49276534 510.82930848 146.47587533 504.45800781 161.44873047 C498.78195157 174.78932103 493.13476386 188.14191994 487.5 201.5 C481.17568603 216.49276534 474.82930848 231.47587533 468.45800781 246.44873047 C462.78195157 259.78932103 457.13476386 273.14191994 451.5 286.5 C445.52046089 300.67542315 439.52390822 314.84337392 433.5 329 C425.84365517 346.99351551 418.23337596 365.00629849 410.6328125 383.0234375 C405.42932494 395.35210534 400.21408097 407.67580862 395 420 C321.08 420 247.16 420 171 420 C162.2670884 399.04101216 153.56117702 378.08758 145.0625 357.03515625 C140.50634138 345.76235433 135.90974515 334.50609418 131.3125 323.25 C130.89159088 322.21928375 130.47068176 321.1885675 130.03701782 320.12661743 C127.88512055 314.85709464 125.73293746 309.58768867 123.58056641 304.31835938 C119.80024049 295.0631094 116.02268331 285.80672942 112.2449646 276.55041504 C110.16342765 271.45022856 108.08170422 266.3501182 106 261.25 C105.16666578 259.2083337 104.33333244 257.16666703 103.5 255.125 C103.0875 254.114375 102.675 253.10375 102.25 252.0625 C98.50000003 242.87500007 98.50000003 242.87500007 97.24996948 239.81242371 C96.4167393 237.77101077 95.58350769 235.72959842 94.75027466 233.68818665 C92.66535147 228.58014264 90.5804531 223.47208851 88.49560547 218.36401367 C84.76460565 209.22277763 81.03344391 200.0816079 77.30133057 190.94082642 C67.26294345 166.35451742 57.23453991 141.76417075 47.21801758 117.16894531 C42.76124747 106.22637669 38.30144596 95.28506715 33.83203125 84.34765625 C25.70893097 64.46845046 17.59738539 44.58467276 9.53768921 24.67965698 C8.68378376 22.5711308 7.82931793 20.46283148 6.97427368 18.35476685 C5.7987959 15.45597047 4.62560031 12.55626184 3.453125 9.65625 C3.10108505 8.78906845 2.7490451 7.9218869 2.38633728 7.02842712 C0 1.11458951 0 1.11458951 0 0 Z " fill="#D4741C" transform="translate(2242,929)"/>
<path d="M0 0 C1.77452545 0.00140488 1.77452545 0.00140488 3.5848999 0.00283813 C20.53024084 0.0319499 37.34501605 0.13335811 54.1875 2.1875 C54.83344116 2.26526672 55.47938232 2.34303345 56.14489746 2.42315674 C140.34835588 12.62807059 140.34835588 12.62807059 168.1875 31.1875 C168.55664349 33.33891487 168.55664349 33.33891487 168.54826355 36.05960083 C168.55444954 37.60351501 168.55444954 37.60351501 168.5607605 39.17861938 C168.54997467 40.31221893 168.53918884 41.44581848 168.52807617 42.61376953 C168.52851425 43.80399719 168.52895233 44.99422485 168.52940369 46.22052002 C168.52766867 49.48904545 168.51259764 52.75718823 168.49168181 56.02563715 C168.47295959 59.43959047 168.4711681 62.85355087 168.46760559 66.26754761 C168.45827197 72.73450949 168.43364053 79.20131967 168.40355712 85.66821468 C168.37005394 93.02964735 168.35353741 100.39108717 168.33847082 107.75257707 C168.307092 122.89763598 168.25430608 138.04255284 168.1875 153.1875 C164.0248846 152.56699045 160.47529016 151.60294317 156.58618164 149.96655273 C124.94569144 136.65389108 89.19833935 131.94404303 55.1875 129.1875 C54.0327417 129.09251221 52.8779834 128.99752441 51.68823242 128.8996582 C39.42503811 128.00907053 27.16588898 127.98764597 14.875 128 C13.76600342 128.00060425 12.65700684 128.0012085 11.5144043 128.00183105 C-33.94661752 128.06907623 -90.6209324 129.36234049 -125.21484375 163.5625 C-141.10437616 180.48313352 -146.75675067 202.66001444 -146.09375 225.44921875 C-145.19819248 243.7297866 -139.78393644 259.38989035 -128.8125 274.1875 C-128.049375 275.239375 -127.28625 276.29125 -126.5 277.375 C-98.2697704 306.91826353 -52.14917559 313.10075715 -13.3374176 314.29437256 C-9.77155587 314.35045956 -6.20690264 314.37778787 -2.640625 314.390625 C-1.33112885 314.39759399 -0.02163269 314.40456299 1.32754517 314.41174316 C5.53086771 314.4310147 9.73413809 314.43591881 13.9375 314.4375 C14.65291206 314.43808914 15.36832413 314.43867828 16.10541534 314.43928528 C37.93938639 314.45198091 59.50978334 314.06463402 81.1875 311.1875 C82.31929687 311.04828125 83.45109375 310.9090625 84.6171875 310.765625 C111.74540413 307.38242939 139.61369995 301.13931674 164.2890625 289.03515625 C166.1875 288.1875 166.1875 288.1875 168.1875 288.1875 C168.1875 329.1075 168.1875 370.0275 168.1875 412.1875 C139.87782067 422.80362975 139.87782067 422.80362975 131.375 425.375 C130.3128125 425.69758789 129.250625 426.02017578 128.15625 426.35253906 C87.48176709 438.40467922 45.12268077 442.83083003 2.82973862 442.57442474 C0.70433309 442.56223816 -1.42104814 442.55486071 -3.54647827 442.54840088 C-24.09749501 442.47658319 -44.43700324 442.12886548 -64.8125 439.1875 C-66.25486049 438.98665603 -67.69724433 438.78597973 -69.13964844 438.58544922 C-118.69135428 431.58808141 -169.29646779 417.21119582 -208.8125 385.1875 C-209.63492187 384.56617188 -210.45734375 383.94484375 -211.3046875 383.3046875 C-252.60007924 351.29762095 -276.3012514 304.0470456 -283.26953125 252.890625 C-290.17189516 196.05872743 -278.91396948 137.66056153 -243.375 91.9375 C-198.47038155 35.58613441 -128.11132456 10.77284132 -58.4375 2.875 C-57.7195929 2.79359772 -57.00168579 2.71219543 -56.26202393 2.62832642 C-37.49597117 0.53784393 -18.87258212 -0.01925874 0 0 Z " fill="#FEA845" transform="translate(1316.8125,917.8125)"/>
<path d="M0 0 C148.5 0 297 0 450 0 C450 39.27 450 78.54 450 119 C398.19 119 346.38 119 293 119 C293 218.33 293 317.66 293 420 C247.79 420 202.58 420 156 420 C156 320.67 156 221.34 156 119 C104.52 119 53.04 119 0 119 C0 79.73 0 40.46 0 0 Z " fill="#FE9930" transform="translate(1524,929)"/>
<path d="M0 0 C45.21 0 90.42 0 137 0 C137 138.6 137 277.2 137 420 C91.79 420 46.58 420 0 420 C0 281.4 0 142.8 0 0 Z " fill="#F58C24" transform="translate(2032,929)"/>
</svg>
