<?xml version="1.0" encoding="UTF-8"?>
<svg version="1.1" xmlns="http://www.w3.org/2000/svg" width="800" height="197">
<path d="M0 0 C264 0 528 0 800 0 C800 65.01 800 130.02 800 197 C536 197 272 197 0 197 C0 131.99 0 66.98 0 0 Z " fill="#48AEEF" transform="translate(0,0)"/>
<path d="M0 0 C124.74 0 249.48 0 378 0 C378 65.01 378 130.02 378 197 C253.26 197 128.52 197 0 197 C0 131.99 0 66.98 0 0 Z " fill="#014B9B" transform="translate(422,0)"/>
<path d="M0 0 C32.4534375 -0.0928125 32.4534375 -0.0928125 65.5625 -0.1875 C72.3901001 -0.21481201 79.2177002 -0.24212402 86.25219727 -0.27026367 C94.5994873 -0.28381348 94.5994873 -0.28381348 98.50914001 -0.28633118 C101.235666 -0.29093349 103.96177305 -0.30034934 106.68821716 -0.31672668 C110.821602 -0.34122487 114.95467752 -0.3417178 119.08813477 -0.34057617 C120.29957185 -0.3513705 121.51100893 -0.36216482 122.75915623 -0.37328625 C132.13940218 -0.33861334 138.11938163 1.15864337 145 8 C146.58203125 11.00390625 146.58203125 11.00390625 147.8125 14.5625 C148.04767334 15.23087891 148.28284668 15.89925781 148.52514648 16.58789062 C149.37779217 19.05007025 150.19123688 21.52305281 151 24 C151.34998047 25.06460449 151.69996094 26.12920898 152.06054688 27.22607422 C155.38546651 37.37844635 158.62452887 47.55710274 161.78538513 57.76171875 C164.72055983 67.2209477 167.84293752 76.61284083 171 86 C174.79872891 97.29507987 178.48036586 108.61481777 182 120 C186.63421759 134.80796745 191.44622522 149.5589173 196.25 164.3125 C196.56009003 165.26500641 196.87018005 166.21751282 197.18966675 167.19888306 C198.08950878 169.96217162 198.98992663 172.72527171 199.890625 175.48828125 C200.15917801 176.31263672 200.42773102 177.13699219 200.704422 177.98632812 C200.96212875 178.77628174 201.21983551 179.56623535 201.48535156 180.38012695 C201.73321411 181.14209381 201.98107666 181.90406067 202.2364502 182.68911743 C202.76609973 184.29210112 203.30825532 185.89098561 203.86022949 187.48641968 C204.13548462 188.28520538 204.41073975 189.08399109 204.69433594 189.90698242 C205.06990631 190.97900154 205.06990631 190.97900154 205.45306396 192.07267761 C206 194 206 194 206 197 C138.02 197 70.04 197 0 197 C0 131.99 0 66.98 0 0 Z " fill="#014B9B" transform="translate(0,0)"/>
<path d="M0 0 C69.96 0 139.92 0 212 0 C212 0.33 212 0.66 212 1 C210.89785156 1.18433594 209.79570312 1.36867187 208.66015625 1.55859375 C189.2019547 5.14186114 172.89783987 13.89344896 161.0625 30.0625 C153.99153646 40.93561182 148.90678461 52.47059052 148.8581543 65.60302734 C148.85111984 66.67789398 148.84408539 67.75276062 148.83683777 68.86019897 C148.83059135 70.58068954 148.83059135 70.58068954 148.82421875 72.3359375 C148.80102524 74.78646697 148.7769081 77.23698784 148.75195312 79.6875 C148.71683543 83.5342388 148.68748027 87.38065936 148.67407227 91.22753906 C148.65856744 94.95155861 148.61834884 98.67466133 148.57421875 102.3984375 C148.57612717 103.54138275 148.57803558 104.684328 148.58000183 105.86190796 C148.46962457 113.09840959 147.72132546 119.19453515 142.48222351 124.55209351 C138.57517085 127.91992386 136.24481216 129.12624325 131.18310547 129.11352539 C130.16821045 129.11340454 129.15331543 129.11328369 128.10766602 129.11315918 C127.03830811 129.10804321 125.9689502 129.10292725 124.8671875 129.09765625 C123.8862915 129.09664917 122.90539551 129.09564209 121.89477539 129.09460449 C118.22150508 129.08936223 114.5482514 129.07540102 110.875 129.0625 C102.66625 129.041875 94.4575 129.02125 86 129 C86 151.44 86 173.88 86 197 C82.04 197 78.08 197 74 197 C54.07550819 136.07175062 54.07550819 136.07175062 45.8984375 110.41015625 C42.3635078 99.31860656 38.76820928 88.25228919 35.06542969 77.21557617 C32.52392671 69.62126453 30.06389633 62.00281076 27.625 54.375 C26.48844129 50.83622588 25.35007776 47.2980406 24.21044922 43.76025391 C23.36889685 41.14597605 22.52938794 38.53110269 21.69189453 35.91552734 C20.58468293 32.46173336 19.46548243 29.01200492 18.33880615 25.56451416 C17.90892242 24.24311821 17.4827752 22.92050009 17.06060791 21.59661865 C16.4710532 19.74996767 15.86665734 17.90807503 15.26171875 16.06640625 C14.92100342 15.01396729 14.58028809 13.96152832 14.22924805 12.87719727 C11.23543582 5.86983338 6.55321636 3.27660818 0 0 Z " fill="#FBFCFC" transform="translate(132,0)"/>
<path d="M0 0 C3.63 0 7.26 0 11 0 C11 65.01 11 130.02 11 197 C-33.22 197 -77.44 197 -123 197 C-123 196.67 -123 196.34 -123 196 C-122.40574219 195.90203125 -121.81148438 195.8040625 -121.19921875 195.703125 C-103.20431372 192.45676577 -86.09227996 183.64068255 -75.43359375 168.33203125 C-63.20053452 148.43247714 -62.44455391 130.21586929 -62.5 107.375 C-62.51205121 102.34076758 -62.4984092 97.30757794 -62.46875 92.2734375 C-62.48006958 91.12966644 -62.49138916 89.98589539 -62.50305176 88.8074646 C-62.46322665 82.55356804 -62.24540953 78.72801899 -58 74 C-53.85403026 70.34759809 -51.57505357 68.87296785 -46.09130859 68.88647461 C-45.05611084 68.88659546 -44.02091309 68.88671631 -42.9543457 68.88684082 C-41.863396 68.89195679 -40.77244629 68.89707275 -39.6484375 68.90234375 C-38.6478833 68.90335083 -37.6473291 68.90435791 -36.61645508 68.90539551 C-32.86929177 68.91063808 -29.12214477 68.92459928 -25.375 68.9375 C-17.00125 68.958125 -8.6275 68.97875 0 69 C0 46.23 0 23.46 0 0 Z " fill="#FCFCFC" transform="translate(411,0)"/>
<path d="M0 0 C20.79 0 41.58 0 63 0 C58.50280627 17.98877492 58.50280627 17.98877492 56.484375 23.90234375 C56.15903275 24.86571152 56.15903275 24.86571152 55.82711792 25.84854126 C55.37207522 27.19413997 54.91435197 28.53883524 54.45391846 29.88259888 C53.22969603 33.45638788 52.02688354 37.03740931 50.8203125 40.6171875 C50.57932831 41.33022537 50.33834412 42.04326324 50.09005737 42.77790833 C45.25983805 57.08964268 40.75438207 71.51089037 36.26806641 85.93359375 C35.01320265 89.96246785 33.74726061 93.98781334 32.4765625 98.01171875 C32.22398682 98.81158707 31.97141113 99.61145538 31.71118164 100.43556213 C29.4449576 107.60515011 27.16611527 114.77071297 24.88575363 121.9358139 C24.24492941 123.94952746 23.60431485 125.96330759 22.96377563 127.97711182 C22.74881754 128.6529192 22.53385944 129.32872658 22.31238747 130.02501297 C21.87347195 131.40495095 21.43456694 132.78489228 20.99567223 134.16483688 C19.88722799 137.64961286 18.77819153 141.13419842 17.66796875 144.6184082 C16.36022242 148.72291239 15.05426886 152.82798322 13.75 156.93359375 C13.54032593 157.59345654 13.33065186 158.25331932 13.11462402 158.93317795 C10.25290004 167.94777902 7.45225863 176.9780695 4.79980469 186.05674744 C3.70283388 189.7890127 2.52655985 193.41991679 1 197 C0.67 197 0.34 197 0 197 C0 131.99 0 66.98 0 0 Z " fill="#FCFCFC" transform="translate(0,0)"/>
<path d="M0 0 C0.66 0 1.32 0 2 0 C2.43828125 0.79019531 2.8765625 1.58039063 3.328125 2.39453125 C7.18781604 9.25881917 11.20193417 15.98587037 15.4375 22.625 C20.6296319 30.76811057 25.68263807 38.99104343 30.6875 47.25 C31.24284927 48.16620621 31.24284927 48.16620621 31.80941772 49.10092163 C36.47653894 56.80396829 41.11670658 64.52270828 45.73046875 72.2578125 C47.59569401 75.35692918 49.50806684 78.42530239 51.42578125 81.4921875 C52.02616211 82.45390869 52.62654297 83.41562988 53.24511719 84.40649414 C54.43834007 86.31446459 55.63548496 88.21998898 56.83691406 90.12280273 C57.37670898 90.98591064 57.91650391 91.84901855 58.47265625 92.73828125 C58.96000244 93.51212158 59.44734863 94.28596191 59.94946289 95.08325195 C61 97 61 97 61 99 C40.87 99 20.74 99 0 99 C0 66.33 0 33.66 0 0 Z " fill="#F6F9FA" transform="translate(481,98)"/>
<path d="M0 0 C21.12 0 42.24 0 64 0 C64 32.01 64 64.02 64 97 C61.05858833 94.05858833 59.13285472 91.10981643 57.0625 87.5625 C56.25540877 86.19910008 55.44810625 84.83582522 54.640625 83.47265625 C54.21201172 82.74578613 53.78339844 82.01891602 53.34179688 81.27001953 C51.0164492 77.33605252 48.66404844 73.41834315 46.3125 69.5 C45.8081543 68.65896729 45.30380859 67.81793457 44.78417969 66.95141602 C40.41467569 59.67277094 36.00807239 52.41703435 31.58569336 45.17041016 C28.59046911 40.26135324 25.60320833 35.34778089 22.63548279 30.42205811 C21.0947381 27.86498035 19.55144829 25.3094423 18.00814819 22.75390625 C17.25965848 21.51281351 16.51242103 20.27096458 15.76651001 19.02832031 C14.71998908 17.28515214 13.66867023 15.54486721 12.6171875 13.8046875 C11.71395752 12.30397705 11.71395752 12.30397705 10.79248047 10.77294922 C7.71745894 6.0159219 5.55552752 2.6975223 0 1 C0 0.67 0 0.34 0 0 Z " fill="#FBFCFB" transform="translate(484,0)"/>
<path d="M0 0 C23.76 0 47.52 0 72 0 C72 43.56 72 87.12 72 132 C70.62133543 129.24267086 69.41320841 126.58659594 68.25 123.75 C62.74088957 111.4851921 53.59363583 104.98669013 41.25 100.1328125 C35.57280134 98.15398124 29.81116931 96.53875637 24 95 C26.38347867 92.61652133 28.4285199 91.91627636 31.5625 90.6875 C44.7675246 85.28544448 54.49124899 79.13523137 61 66 C65.48633431 53.23851902 65.57932339 40.37154316 60 28 C56.55070443 21.36673929 52.36319623 16.88501267 46 13 C44.73929688 12.22849609 44.73929688 12.22849609 43.453125 11.44140625 C30.23047385 4.11781079 14.82005711 2.53450183 0 1 C0 0.67 0 0.34 0 0 Z " fill="#FAFCFB" transform="translate(728,0)"/>
<path d="M0 0 C8.91 0 17.82 0 27 0 C27 65.01 27 130.02 27 197 C23.37 197 19.74 197 16 197 C15.99853344 196.06939507 15.99706688 195.13879013 15.99555588 194.17998505 C15.95894829 171.52821241 15.89948213 148.87658749 15.81609726 126.22493744 C15.77630108 115.27072405 15.74391149 104.31658256 15.72900391 93.36230469 C15.71599044 83.81368931 15.68903344 74.2652321 15.64538693 64.7167058 C15.62276539 59.66158999 15.60708974 54.60666932 15.60811615 49.55149841 C15.60886234 44.79079262 15.59092768 40.03051831 15.55883217 35.26992416 C15.55033227 33.52529239 15.54858386 31.78061223 15.55419731 30.03596878 C15.77636534 17.90397443 15.77636534 17.90397443 11 7 C7.6584529 3.6584529 4.52766734 2.26353507 0 1 C0 0.67 0 0.34 0 0 Z " fill="#F6FAFB" transform="translate(592,0)"/>
<path d="M0 0 C17.49 0 34.98 0 53 0 C58 18 58 18 59 26 C37.55 26 16.1 26 -6 26 C-4 15 -4 15 0 0 Z " fill="#FCFCFC" transform="translate(76,171)"/>
<path d="M0 0 C3.98398634 -0.06930904 7.96641389 -0.12890491 11.95068359 -0.16479492 C13.96336248 -0.18709408 15.97584584 -0.22523653 17.98828125 -0.26367188 C26.13278517 -0.32506261 32.8916885 -0.37092225 39.4375 5 C42.40151882 8.79394408 42.38874056 12.33511327 42 17 C40.53025142 21.0984989 38.78581914 23.48750926 35.125 25.875 C30.00181888 27.7193452 25.14513848 28.12448088 19.7265625 28.09765625 C18.16542725 28.09390991 18.16542725 28.09390991 16.57275391 28.09008789 C15.26999512 28.08098389 13.96723633 28.07187988 12.625 28.0625 C8.45875 28.041875 4.2925 28.02125 0 28 C0 18.76 0 9.52 0 0 Z " fill="#FCFCFC" transform="translate(688,120)"/>
<path d="M0 0 C2.21465591 3.32198387 3.04104827 6.43545093 3.98828125 10.24609375 C4.17195251 10.96547623 4.35562378 11.6848587 4.54486084 12.42604065 C5.13972668 14.76180078 5.72631148 17.09954853 6.3125 19.4375 C6.71693027 21.03461575 7.12179752 22.6316209 7.52709961 24.22851562 C8.32539729 27.37792269 9.12026677 30.52816316 9.91210938 33.67919922 C10.83294042 37.34197807 11.76532037 41.00168133 12.703125 44.66015625 C13.15658433 46.44001902 13.60974391 48.21995821 14.0625 50 C14.26593018 50.79204834 14.46936035 51.58409668 14.67895508 52.40014648 C15.42066172 55.3499874 16 57.94462881 16 61 C6.1 61 -3.8 61 -14 61 C-13.06806316 54.47644212 -11.80679686 48.17280284 -10.375 41.75 C-10.1157373 40.58299561 -9.85647461 39.41599121 -9.58935547 38.21362305 C-6.70050334 25.39530496 -3.38936679 12.69425197 0 0 Z " fill="#FBFCFA" transform="translate(101,66)"/>
<path d="M0 0 C3.795 -0.061875 7.59 -0.12375 11.5 -0.1875 C13.27020508 -0.22846802 13.27020508 -0.22846802 15.07617188 -0.27026367 C22.51564005 -0.32865923 28.49414811 0.19531849 34.5 5 C36.81370824 9.62741648 36.84784897 13.93521802 36 19 C34.04283795 23.3040245 30.546867 25.63800854 26.23608398 27.40673828 C21.4531594 28.67570943 16.47143475 28.30023822 11.5625 28.1875 C5.8390625 28.0946875 5.8390625 28.0946875 0 28 C0 18.76 0 9.52 0 0 Z " fill="#FBFCFB" transform="translate(688,50)"/>
<path d="M0 0 C0.33 0 0.66 0 1 0 C1 14.85 1 29.7 1 45 C-20.12 45 -41.24 45 -63 45 C-63 44.67 -63 44.34 -63 44 C-62.35675781 43.91548584 -61.71351563 43.83097168 -61.05078125 43.74389648 C-40.50155353 40.94622613 -22.42421343 36.79090683 -8.56640625 20.16796875 C-4.09980981 13.98602106 -1.51338223 7.42933095 0 0 Z " fill="#FAFCFB" transform="translate(799,152)"/>
<path d="M0 0 C0.33 0 0.66 0 1 0 C1 60.06 1 120.12 1 182 C-0.98 181.67 -2.96 181.34 -5 181 C-5 122.92 -5 64.84 -5 5 C-4.34 6.32 -3.68 7.64 -3 9 C-2.34 9 -1.68 9 -1 9 C-0.67 6.03 -0.34 3.06 0 0 Z " fill="#13549B" transform="translate(607,15)"/>
<path d="M0 0 C19.47 0 38.94 0 59 0 C59 22.77 59 45.54 59 69 C33.75 69.4375 33.75 69.4375 25.79199219 69.56811523 C23.71027971 69.60624155 21.62857348 69.64471097 19.546875 69.68359375 C17.92579834 69.7083075 17.92579834 69.7083075 16.27197266 69.73352051 C15.2370166 69.75370239 14.20206055 69.77388428 13.13574219 69.79467773 C11.79005157 69.81799416 11.79005157 69.81799416 10.41717529 69.84178162 C8.15246468 69.99002029 6.17439556 70.36909805 4 71 C4 70.34 4 69.68 4 69 C9.6097055 66.6454108 14.88541358 66.65523519 20.8671875 66.5859375 C21.90191193 66.56657135 22.93663635 66.5472052 24.00271606 66.5272522 C27.29339467 66.46768158 30.58410868 66.42116095 33.875 66.375 C36.11199405 66.33679952 38.34897372 66.29774659 40.5859375 66.2578125 C46.05716358 66.16199862 51.52847695 66.07688569 57 66 C56.67 65.34 56.34 64.68 56 64 C54.68 64 53.36 64 52 64 C52 43.54 52 23.08 52 2 C34.84 1.67 17.68 1.34 0 1 C0 0.67 0 0.34 0 0 Z " fill="#51ABE5" transform="translate(352,0)"/>
<path d="M0 0 C0.33 0 0.66 0 1 0 C1.20099218 7.29331067 1.38461148 14.58684618 1.54658794 21.88113403 C1.62235022 25.26885455 1.70389698 28.6562219 1.79907227 32.04345703 C1.9057504 35.94544234 1.99192269 39.84743352 2.07421875 43.75 C2.11157639 44.95551514 2.14893402 46.16103027 2.18742371 47.40307617 C2.30463776 54.00600801 2.02305882 59.06507328 -1 65 C-3.625 66.375 -3.625 66.375 -6 67 C-6.33 67.66 -6.66 68.32 -7 69 C-12.90588322 71.27337351 -18.47618766 71.26231953 -24.74609375 71.1953125 C-25.64332153 71.19329834 -26.54054932 71.19128418 -27.46496582 71.18920898 C-30.78919652 71.17881242 -34.11335386 71.15089024 -37.4375 71.125 C-44.883125 71.08375 -52.32875 71.0425 -60 71 C-60.33 92.45 -60.66 113.9 -61 136 C-61.33 136 -61.66 136 -62 136 C-62 113.89 -62 91.78 -62 69 C-37.375 68.75 -37.375 68.75 -29.63037109 68.70214844 C-27.59470364 68.6727719 -25.55905637 68.6419449 -23.5234375 68.609375 C-22.47454346 68.60824707 -21.42564941 68.60711914 -20.3449707 68.60595703 C-14.26276614 68.48712435 -10.61041527 68.09505163 -6 64 C-2.33119196 59.14130827 -0.89130163 55.6426877 -0.79467773 49.6105957 C-0.77473251 48.50968094 -0.75478729 47.40876617 -0.73423767 46.27449036 C-0.71752518 45.08691635 -0.70081268 43.89934235 -0.68359375 42.67578125 C-0.66281265 41.45924362 -0.64203156 40.24270599 -0.62062073 38.98930359 C-0.55515283 35.09709404 -0.49625285 31.20481615 -0.4375 27.3125 C-0.39431218 24.67642518 -0.3506978 22.04035731 -0.30664062 19.40429688 C-0.19947422 12.93627049 -0.09770255 6.46817589 0 0 Z " fill="#55A9D4" transform="translate(280,60)"/>
<path d="M0 0 C1.11375 0.1546875 1.11375 0.1546875 2.25 0.3125 C2.08792557 0.86234558 1.92585114 1.41219116 1.75886536 1.97869873 C1.18730775 4.6000245 1.11811107 6.97003438 1.1081543 9.65332031 C1.10111984 10.72253723 1.09408539 11.79175415 1.08683777 12.89337158 C1.08267349 14.04746521 1.07850922 15.20155884 1.07421875 16.390625 C1.05099515 18.85677913 1.02687683 21.32292497 1.00195312 23.7890625 C0.96705814 27.65923408 0.93761687 31.52910541 0.92407227 35.39941406 C0.8452896 54.24422699 0.05639509 70.27717835 -8.75 87.3125 C-9.8733655 83.9424035 -9.64663584 83.27757695 -8.5 80.0625 C-8.21898437 79.26972656 -7.93796875 78.47695312 -7.6484375 77.66015625 C-6.85324503 75.58228374 -6.01452898 73.53887088 -5.125 71.5 C-3.41526545 67.53652446 -2.62528999 64.34009539 -2.62060547 60.03466797 C-2.61745331 59.20055389 -2.61430115 58.36643982 -2.61105347 57.50704956 C-2.61408981 56.16938034 -2.61408981 56.16938034 -2.6171875 54.8046875 C-2.61623077 53.88285675 -2.61527405 52.961026 -2.61428833 52.01126099 C-2.61360876 50.06626314 -2.61544751 48.121263 -2.61962891 46.17626953 C-2.62499249 43.19168035 -2.61967012 40.20724083 -2.61328125 37.22265625 C-2.61394183 35.333333 -2.61522258 33.44400984 -2.6171875 31.5546875 C-2.61516327 30.65885956 -2.61313904 29.76303162 -2.61105347 28.84005737 C-2.61420563 28.01224762 -2.61735779 27.18443787 -2.62060547 26.33154297 C-2.62140106 25.60192352 -2.62219666 24.87230408 -2.62301636 24.12057495 C-2.64101148 22.21093353 -2.64101148 22.21093353 -3.75 20.3125 C-4.74 20.3125 -5.73 20.3125 -6.75 20.3125 C-6.85854617 17.91543877 -6.93753157 15.52334162 -7 13.125 C-7.03351563 12.45146484 -7.06703125 11.77792969 -7.1015625 11.08398438 C-7.17261824 7.44237774 -6.84362441 5.46325117 -4.90625 2.34375 C-2.75 0.3125 -2.75 0.3125 0 0 Z " fill="#4AADEA" transform="translate(348.75,75.6875)"/>
<path d="M0 0 C6.99897391 1.63309391 10.95756031 4.00852689 15 10 C16.4778533 12.9557066 16.1336173 15.94809306 16.12025452 19.18789673 C16.12110894 19.93689566 16.12196337 20.68589459 16.12284368 21.45759046 C16.1244976 23.98037721 16.11897854 26.50309823 16.11352539 29.02587891 C16.11324347 30.82910663 16.11340134 32.63233447 16.1139679 34.43556213 C16.1142557 39.34232199 16.10836177 44.24905758 16.10139394 49.15581179 C16.09515751 54.27944091 16.09455637 59.40307055 16.09336853 64.52670288 C16.09025607 74.2341583 16.08204383 83.9416025 16.07201904 93.64905298 C16.06085526 104.6984644 16.05534678 115.74787634 16.05032361 126.79729199 C16.03986115 149.53153422 16.02226335 172.26576648 16 195 C15.67 195 15.34 195 15 195 C14.67 134.94 14.34 74.88 14 13 C13.34 13 12.68 13 12 13 C11.67 11.02 11.34 9.04 11 7 C10.01 7.33 9.02 7.66 8 8 C8 7.34 8 6.68 8 6 C7.34 6 6.68 6 6 6 C6 5.34 6 4.68 6 4 C4.35 4 2.7 4 1 4 C0.67 2.68 0.34 1.36 0 0 Z " fill="#01428E" transform="translate(591,0)"/>
<path d="M0 0 C3.98398634 -0.06930904 7.96641389 -0.12890491 11.95068359 -0.16479492 C13.96336248 -0.18709408 15.97584584 -0.22523653 17.98828125 -0.26367188 C26.13278517 -0.32506261 32.8916885 -0.37092225 39.4375 5 C42.40151882 8.79394408 42.38874056 12.33511327 42 17 C40.53025142 21.0984989 38.78581914 23.48750926 35.125 25.875 C30.00181888 27.7193452 25.14513848 28.12448088 19.7265625 28.09765625 C18.16542725 28.09390991 18.16542725 28.09390991 16.57275391 28.09008789 C15.26999512 28.08098389 13.96723633 28.07187988 12.625 28.0625 C8.45875 28.041875 4.2925 28.02125 0 28 C0 18.76 0 9.52 0 0 Z M1 1 C1 9.58 1 18.16 1 27 C4.568125 27.020625 8.13625 27.04125 11.8125 27.0625 C13.49436401 27.07615601 13.49436401 27.07615601 15.21020508 27.09008789 C16.53894653 27.09383423 16.53894653 27.09383423 17.89453125 27.09765625 C18.80050049 27.10289307 19.70646973 27.10812988 20.63989258 27.11352539 C23.15284039 27.09920981 23.15284039 27.09920981 26 26 C26.78375 26.020625 27.5675 26.04125 28.375 26.0625 C31.32477945 25.99226716 33.33519294 25.21819751 36 24 C36 23.34 36 22.68 36 22 C36.66 22 37.32 22 38 22 C39.75408915 17.50514654 40.61370235 13.82194702 40 9 C37.11720347 5.49389611 34.11058235 2.34901986 29.49609375 1.5859375 C19.97638942 0.92940617 10.53935731 0.92718048 1 1 Z " fill="#ECFDFE" transform="translate(688,120)"/>
<path d="M0 0 C0.495 0.99 0.495 0.99 1 2 C0.11240246 4.29296031 -0.78419462 5.79282684 -2.5625 7.5 C-4.26316011 9.27460185 -4.58794182 10.61006256 -5 13 C-5.721875 12.87625 -6.44375 12.7525 -7.1875 12.625 C-10.30471197 12.74648734 -10.30471197 12.74648734 -12.6875 15.75 C-14.40314926 18.16118274 -15.8546705 20.29285754 -17 23 C-15.1128125 23.433125 -15.1128125 23.433125 -13.1875 23.875 C-10.1460601 24.57303539 -8.69330122 25.20446585 -6 27 C-6 27.66 -6 28.32 -6 29 C-7.134375 28.608125 -8.26875 28.21625 -9.4375 27.8125 C-16.88919824 25.32061377 -24.45583704 23.19135847 -32 21 C-29.61652133 18.61652133 -27.5714801 17.91627636 -24.4375 16.6875 C-15.12888667 12.87943091 -5.74450346 8.61675519 0 0 Z " fill="#E4F3F9" transform="translate(784,74)"/>
<path d="M0 0 C11.63476624 0.85848761 11.63476624 0.85848761 15 3 C18.78316537 8.08770515 18.68294194 13.90673882 18 20 C16.98046875 22.83984375 16.98046875 22.83984375 16 25 C15.34 25 14.68 25 14 25 C13.87625 25.61875 13.7525 26.2375 13.625 26.875 C13 29 13 29 11 31 C8.19835144 31.10457575 5.50565087 31.08917671 2.7109375 30.9765625 C1.89251373 30.95153656 1.07408997 30.92651062 0.23086548 30.90072632 C-2.38817148 30.8184256 -5.00646554 30.72187618 -7.625 30.625 C-9.39840696 30.56677066 -11.17184458 30.50946717 -12.9453125 30.453125 C-17.29730379 30.31283201 -21.64868148 30.15975672 -26 30 C-26 29.67 -26 29.34 -26 29 C-25.25427734 28.98018066 -24.50855469 28.96036133 -23.74023438 28.93994141 C-20.32649812 28.84405589 -16.91332121 28.73463559 -13.5 28.625 C-11.74042969 28.57859375 -11.74042969 28.57859375 -9.9453125 28.53125 C1.58648587 28.35904976 1.58648587 28.35904976 12 24 C14.87399993 19.58635725 15.47430987 16.21740855 15 11 C14.52269471 8.2225097 14.52269471 8.2225097 13 6 C8.90351334 3.42778745 4.63746516 2.20574094 0 1 C0 0.67 0 0.34 0 0 Z " fill="#1B5191" transform="translate(714,119)"/>
<path d="M0 0 C0.66 0 1.32 0 2 0 C2.15369908 8.7010788 2.30188069 17.40222877 2.4429636 26.10352135 C2.50864428 30.14361094 2.57624552 34.18364958 2.64819336 38.22363281 C2.71752025 42.12037407 2.78185785 46.01716833 2.84269524 49.91405106 C2.86682338 51.40286896 2.89276784 52.89165855 2.92053413 54.38041306 C2.95903375 56.46108316 2.99115044 58.54175914 3.02172852 60.62255859 C3.04171402 61.80836517 3.06169952 62.99417175 3.08229065 64.21591187 C3 67 3 67 2 69 C1.34 69 0.68 69 0 69 C0 46.23 0 23.46 0 0 Z " fill="#D6F5FE" transform="translate(411,0)"/>
<path d="M0 0 C0.33 0 0.66 0 1 0 C1 32.01 1 64.02 1 97 C-1.57644287 94.42355713 -2.68769359 92.96726521 -4.1875 89.8125 C-4.53167969 89.09707031 -4.87585938 88.38164063 -5.23046875 87.64453125 C-5.61138672 86.83048828 -5.61138672 86.83048828 -6 86 C-4.35 86.66 -2.7 87.32 -1 88 C-0.67 58.96 -0.34 29.92 0 0 Z " fill="#EBFFFF" transform="translate(547,0)"/>
<path d="M0 0 C2.20610764 2.20610764 2.49752613 3.21762538 3.296875 6.1640625 C4.57049431 10.6249382 5.9998418 15.01501971 7.515625 19.3984375 C7.96636955 20.71476716 8.41688769 22.03117438 8.8671875 23.34765625 C9.56226152 25.37701532 10.26049027 27.40503643 10.96777344 29.43017578 C11.66008392 31.4164136 12.33895088 33.40682743 13.015625 35.3984375 C13.42071289 36.57067871 13.82580078 37.74291992 14.24316406 38.95068359 C14.97203578 41.88733126 15.08783669 43.23274093 14 46 C13.67 46 13.34 46 13 46 C11.40861915 41.82262526 10.78721942 38.46839215 11 34 C10.34 34 9.68 34 9 34 C7.68 30.7 6.36 27.4 5 24 C4.01 24 3.02 24 2 24 C1.93941406 22.9378125 1.87882813 21.875625 1.81640625 20.78125 C1.20729762 10.36284897 1.20729762 10.36284897 0 0 Z " fill="#1B508A" transform="translate(160,56)"/>
<path d="M0 0 C2.23689267 3.355339 3.16735541 6.59630574 4.1875 10.4375 C4.37763672 11.10587891 4.56777344 11.77425781 4.76367188 12.46289062 C5.69706355 15.93813861 6.37080403 18.58608679 5 22 C2.32072659 17.98108988 2.84398752 15.75838077 3 11 C-0.26117684 13.17411789 -0.40034602 13.36711607 -1.16796875 16.9140625 C-1.33876953 17.67460938 -1.50957031 18.43515625 -1.68554688 19.21875 C-1.85119141 20.0128125 -2.01683594 20.806875 -2.1875 21.625 C-2.36474609 22.42679688 -2.54199219 23.22859375 -2.72460938 24.0546875 C-3.16055311 26.03410771 -3.58169705 28.01677687 -4 30 C-4.66 30 -5.32 30 -6 30 C-6 31.65 -6 33.3 -6 35 C-6.99 35.495 -6.99 35.495 -8 36 C-7.39069293 28.04468097 -5.50266028 20.62971086 -3.4375 12.9375 C-2.9434668 11.06674805 -2.9434668 11.06674805 -2.43945312 9.15820312 C-1.63199582 6.1039081 -0.81871719 3.0512923 0 0 Z " fill="#DEEFFA" transform="translate(101,66)"/>
<path d="M0 0 C1.61242209 2.83760895 2.23802969 4.80347725 2.125 8.0625 C2.05161236 10.37421076 2 12.68712466 2 15 C1.34 15.66 0.68 16.32 0 17 C0 19.31 0 21.62 0 24 C7.59 24 15.18 24 23 24 C23 23.34 23 22.68 23 22 C23.66 22 24.32 22 25 22 C25 22.99 25 23.98 25 25 C15.1 25 5.2 25 -5 25 C-3.875 17.125 -3.875 17.125 -3.02734375 13.37890625 C-2.85009766 12.58935547 -2.67285156 11.79980469 -2.49023438 10.98632812 C-2.21663086 9.7865332 -2.21663086 9.7865332 -1.9375 8.5625 C-1.75123047 7.73556641 -1.56496094 6.90863281 -1.37304688 6.05664062 C-0.9177995 4.03720996 -0.45924139 2.01852613 0 0 Z " fill="#E6F5FA" transform="translate(92,102)"/>
<path d="M0 0 C1.33332095 2.6666419 0.67102033 4.16680303 0 7 C-0.66 7 -1.32 7 -2 7 C-1.99777939 7.6712793 -1.99555878 8.34255859 -1.99327087 9.03417969 C-1.97108851 16.04247504 -1.95603943 23.05076035 -1.94506836 30.05908203 C-1.94005029 32.67204188 -1.93323438 35.28499894 -1.92456055 37.89794922 C-1.91238425 41.66113984 -1.90674632 45.42429322 -1.90234375 49.1875 C-1.89718246 50.34926758 -1.89202118 51.51103516 -1.88670349 52.70800781 C-1.88630106 58.57168136 -2.10500248 64.20264581 -3 70 C-4.485 70.495 -4.485 70.495 -6 71 C-5.83862549 69.78143311 -5.67725098 68.56286621 -5.51098633 67.30737305 C-4.83911777 61.23496243 -4.84613631 55.18558195 -4.82421875 49.08203125 C-4.80104086 46.58657992 -4.77692439 44.09113716 -4.75195312 41.59570312 C-4.71674247 37.69175269 -4.68741668 33.78812377 -4.67407227 29.8840332 C-4.65861655 26.09548115 -4.6184508 22.30784224 -4.57421875 18.51953125 C-4.57612717 17.35380081 -4.57803558 16.18807037 -4.58000183 14.98701477 C-4.48528408 8.71693079 -4.22847717 4.77405322 0 0 Z " fill="#CFF7FD" transform="translate(353,74)"/>
<path d="M0 0 C0.33 0 0.66 0 1 0 C1.20099218 7.29331067 1.38461148 14.58684618 1.54658794 21.88113403 C1.62235022 25.26885455 1.70389698 28.6562219 1.79907227 32.04345703 C1.9057504 35.94544234 1.99192269 39.84743352 2.07421875 43.75 C2.1302552 45.55827271 2.1302552 45.55827271 2.18742371 47.40307617 C2.30463776 54.00600801 2.02305882 59.06507328 -1 65 C-3.625 66.375 -3.625 66.375 -6 67 C-6.495 67.99 -6.495 67.99 -7 69 C-8.65 69 -10.3 69 -12 69 C-11.2575 68.443125 -10.515 67.88625 -9.75 67.3125 C-4.81548644 63.16302269 -1.39979579 58.86093202 -0.7215271 52.31071472 C-0.70820343 51.34474869 -0.69487976 50.37878265 -0.68115234 49.38354492 C-0.66128265 48.28278122 -0.64141296 47.18201752 -0.62094116 46.04789734 C-0.60938995 44.8706459 -0.59783875 43.69339447 -0.5859375 42.48046875 C-0.56657135 41.26676102 -0.5472052 40.05305328 -0.5272522 38.80256653 C-0.46753429 34.93094889 -0.42110145 31.05930139 -0.375 27.1875 C-0.33681312 24.560534 -0.29776098 21.93358043 -0.2578125 19.30664062 C-0.16183898 12.87120415 -0.07676847 6.43569268 0 0 Z " fill="#5CAADB" transform="translate(280,60)"/>
<path d="M0 0 C0.33 0 0.66 0 1 0 C1.10263843 6.82766662 1.17197643 13.65512958 1.21972656 20.48339844 C1.2396629 22.79922926 1.26682197 25.11501095 1.30175781 27.43066406 C1.56774766 45.53361994 0.46271378 60.62950448 -8 77 C-9.1233655 73.6299035 -8.89663584 72.96507695 -7.75 69.75 C-7.49734375 69.02296875 -7.2446875 68.2959375 -6.984375 67.546875 C-6.23052512 65.59643801 -5.38877126 63.67977797 -4.51025391 61.78222656 C0.80889313 49.34975012 -0.59340949 33.27292691 -0.375 20 C-0.33670329 18.04946398 -0.29764538 16.09894275 -0.2578125 14.1484375 C-0.1631258 9.43241562 -0.07864789 4.71631549 0 0 Z " fill="#64ABD6" transform="translate(348,86)"/>
<path d="M0 0 C3.795 -0.061875 7.59 -0.12375 11.5 -0.1875 C13.27020508 -0.22846802 13.27020508 -0.22846802 15.07617188 -0.27026367 C21.46074202 -0.32037888 26.19052916 0.31382477 32 3 C29 5 29 5 27 5 C27 4.34 27 3.68 27 3 C18.42 2.34 9.84 1.68 1 1 C1 9.58 1 18.16 1 27 C8.59 27 16.18 27 24 27 C24 27.33 24 27.66 24 28 C16.08 28 8.16 28 0 28 C0 18.76 0 9.52 0 0 Z " fill="#E5F7FC" transform="translate(688,50)"/>
<path d="M0 0 C0 0.33 0 0.66 0 1 C-1.10214844 1.18433594 -2.20429688 1.36867187 -3.33984375 1.55859375 C-17.58162934 4.1905719 -29.10274315 9.87143942 -41 18 C-40.44295272 14.76912579 -39.66812465 12.97638863 -37 11 C-35.68 11 -34.36 11 -33 11 C-32.67 10.01 -32.34 9.02 -32 8 C-30.08552314 7.26107911 -28.16438612 6.53524201 -26.21484375 5.89453125 C-23.92490202 4.96966942 -22.42717972 3.83621671 -20.5 2.3125 C-14.57089037 -1.68008592 -6.82217508 -0.37257024 0 0 Z " fill="#DDF9FE" transform="translate(344,0)"/>
<path d="M0 0 C2.31 0 4.62 0 7 0 C6.67 0.99 6.34 1.98 6 3 C8.64 3.33 11.28 3.66 14 4 C14 4.33 14 4.66 14 5 C3.44 5 -7.12 5 -18 5 C-17.67 4.01 -17.34 3.02 -17 2 C-11.39 2 -5.78 2 0 2 C0 1.34 0 0.68 0 0 Z " fill="#064591" transform="translate(706,114)"/>
<path d="M0 0 C0.33 0 0.66 0 1 0 C1 9.24 1 18.48 1 28 C6.6925 27.87625 6.6925 27.87625 12.5 27.75 C13.68013672 27.73420898 14.86027344 27.71841797 16.07617188 27.70214844 C22.78226912 27.48706429 27.28752738 26.57696884 33 23 C34.97424869 20.93455106 34.97424869 20.93455106 36 19 C36.66 19.33 37.32 19.66 38 20 C35.09124942 26.42349088 35.09124942 26.42349088 30.6875 28.75 C24.74736725 30.76945596 18.66625441 30.06921683 12.5 29.6875 C6.3125 29.3471875 6.3125 29.3471875 0 29 C0 19.43 0 9.86 0 0 Z " fill="#285898" transform="translate(687,50)"/>
<path d="M0 0 C18.83144566 -0.75158763 34.50559344 1.55947149 51 11 C51 11.99 51 12.98 51 14 C48.36 13.01 45.72 12.02 43 11 C43 10.34 43 9.68 43 9 C42.43152344 8.89042969 41.86304688 8.78085938 41.27734375 8.66796875 C37.4980782 7.89192591 34.16784029 7.07459569 30.625 5.5 C20.96908804 1.50445022 10.30921332 1.49153087 0 1 C0 0.67 0 0.34 0 0 Z " fill="#154984" transform="translate(725,2)"/>
<path d="M0 0 C0.33 0 0.66 0 1 0 C0.29198642 7.68146242 -1.5890445 15.02335514 -3.4375 22.5 C-3.75009766 23.78003906 -4.06269531 25.06007813 -4.38476562 26.37890625 C-4.98687038 28.8407891 -5.59264854 31.30177734 -6.20263672 33.76171875 C-6.67964121 35.69894701 -7.14789213 37.63841107 -7.59814453 39.58203125 C-8.37470046 42.90383845 -9.08091971 45.12137956 -11 48 C-11 42.72 -11 37.44 -11 32 C-10.01 31.67 -9.02 31.34 -8 31 C-7.67 28.36 -7.34 25.72 -7 23 C-6.34 23 -5.68 23 -5 23 C-4.96261719 22.31035156 -4.92523438 21.62070313 -4.88671875 20.91015625 C-4.43775687 14.49264233 -3.2980887 8.995014 -1 3 C-0.67 2.01 -0.34 1.02 0 0 Z " fill="#144988" transform="translate(99,69)"/>
<path d="M0 0 C0.99 0 1.98 0 3 0 C5.63463787 5.84560277 7.56131481 10.54487966 7 17 C7.66 17 8.32 17 9 17 C9.144375 18.134375 9.28875 19.26875 9.4375 20.4375 C9.61171478 23.80777201 9.61171478 23.80777201 11 25 C11.04080783 26.99958364 11.04254356 29.00045254 11 31 C11.66 31 12.32 31 13 31 C15.28571429 39.42857143 15.28571429 39.42857143 15 44 C12.62905266 40.44357898 11.50023671 36.78672108 10.21484375 32.75390625 C9.95369278 31.94638412 9.69254181 31.138862 9.42347717 30.30686951 C8.87251742 28.60037878 8.32377783 26.89316988 7.77709961 25.18530273 C6.94133726 22.57448712 6.09922892 19.96578891 5.25585938 17.35742188 C4.72098238 15.69803646 4.18646515 14.03853503 3.65234375 12.37890625 C3.40129379 11.59963272 3.15024384 10.82035919 2.8915863 10.01747131 C1.82945286 6.696425 0.81926391 3.38887882 0 0 Z " fill="#DFF3FC" transform="translate(145,8)"/>
<path d="M0 0 C1.12350861 0.00565979 2.24701721 0.01131958 3.40457153 0.01715088 C6.98109141 0.039481 10.55659713 0.08967354 14.1328125 0.140625 C16.5624855 0.16069424 18.99217425 0.17894427 21.421875 0.1953125 C27.36753155 0.23933483 33.31259955 0.30621429 39.2578125 0.390625 C39.2578125 1.050625 39.2578125 1.710625 39.2578125 2.390625 C38.01805664 2.37491455 36.77830078 2.3592041 35.50097656 2.34301758 C30.84918862 2.28823066 26.19742851 2.25409951 21.54541016 2.22583008 C19.54178045 2.21085358 17.53818289 2.19046519 15.53466797 2.16430664 C0.71810074 1.87225166 0.71810074 1.87225166 -13.70410156 4.83862305 C-15.7421875 5.390625 -15.7421875 5.390625 -17.7421875 4.390625 C-12.18805502 -0.45143921 -7.14351288 -0.13597595 0 0 Z " fill="#EAFEFE" transform="translate(371.7421875,68.609375)"/>
<path d="M0 0 C1.98 0 3.96 0 6 0 C6.33 1.32 6.66 2.64 7 4 C7.66 4 8.32 4 9 4 C9 6 9 6 7.5 7.625 C7.005 8.07875 6.51 8.5325 6 9 C7.32 9.33 8.64 9.66 10 10 C9.67 10.66 9.34 11.32 9 12 C9.66 12.33 10.32 12.66 11 13 C11.625 15.5625 11.625 15.5625 12 18 C13.32 18 14.64 18 16 18 C16 20.31 16 22.62 16 25 C11.75826546 21.30233592 9.17389902 16.70902499 6.3125 11.9375 C5.81427734 11.12216797 5.31605469 10.30683594 4.80273438 9.46679688 C1.13893517 3.41680552 1.13893517 3.41680552 0 0 Z " fill="#13488B" transform="translate(526,169)"/>
<path d="M0 0 C2.6821493 2.6821493 2.29891005 4.0662027 2.3125 7.8125 C2.07674377 19.69199434 -0.41545758 29.63757559 -8 39 C-10.22265625 40.8046875 -10.22265625 40.8046875 -12 42 C-12 40.68 -12 39.36 -12 38 C-11.34 38 -10.68 38 -10 38 C-9.67 37.01 -9.34 36.02 -9 35 C-8.34 35 -7.68 35 -7 35 C-6.87625 34.236875 -6.7525 33.47375 -6.625 32.6875 C-6 30 -6 30 -4 27 C-2.42846223 23.5950015 -2 21.85713879 -2 18 C-1.34 18 -0.68 18 0 18 C0 12.06 0 6.12 0 0 Z " fill="#205187" transform="translate(791,38)"/>
<path d="M0 0 C0.66 0.99 1.32 1.98 2 3 C1.390625 5.71484375 1.390625 5.71484375 0.25 8.9375 C-1.24662487 13.4273746 -2.38323686 17.69103768 -3.0625 22.375 C-3.75161335 27.05600418 -4.88771617 30.77543235 -7 35 C-7.99 35 -8.98 35 -10 35 C-8.43868018 27.31666297 -6.21738725 19.91575754 -3.875 12.4375 C-3.50246094 11.23802734 -3.12992187 10.03855469 -2.74609375 8.80273438 C-1.83394074 5.86747275 -0.91850472 2.93327897 0 0 Z " fill="#1C4E90" transform="translate(11,162)"/>
<path d="M0 0 C1.92131241 0.03014442 1.92131241 0.03014442 3.88143921 0.06089783 C5.26422352 0.08808793 6.64700545 0.11539888 8.02978516 0.14282227 C9.45609746 0.1671505 10.88241814 0.19099266 12.30874634 0.21437073 C16.04719638 0.27694295 19.78549669 0.34608434 23.52380371 0.41662598 C27.34473909 0.4875534 31.1657799 0.55222385 34.98681641 0.61743164 C42.47261018 0.74609727 49.95825675 0.88170772 57.44384766 1.02172852 C57.44384766 1.35172852 57.44384766 1.68172852 57.44384766 2.02172852 C49.94131366 2.17654581 42.43867226 2.32470843 34.93584728 2.46469212 C31.45089274 2.52991493 27.96601028 2.59731311 24.48120117 2.66992188 C20.4623505 2.75355764 16.44336837 2.82730119 12.42431641 2.90063477 C11.19053757 2.92766983 9.95675873 2.9547049 8.68559265 2.9825592 C1.53096058 3.10436732 -5.44675182 2.84974691 -12.55615234 2.02172852 C-12.55615234 1.69172852 -12.55615234 1.36172852 -12.55615234 1.02172852 C-8.29634331 0.20168127 -4.3342238 -0.07709094 0 0 Z " fill="#52B8FA" transform="translate(350.55615234375,-0.021728515625)"/>
<path d="M0 0 C17.49 0 34.98 0 53 0 C53.495 2.97 53.495 2.97 54 6 C52.5 4.625 52.5 4.625 51 3 C51 2.34 51 1.68 51 1 C44.50345027 1.06690369 38.00750694 1.15667148 31.51147461 1.26245117 C29.30093594 1.29573508 27.09031157 1.32375612 24.87963867 1.34643555 C21.70454334 1.37991759 18.53023583 1.43223052 15.35546875 1.48828125 C14.36475876 1.49467117 13.37404877 1.5010611 12.35331726 1.50764465 C10.97222527 1.53733589 10.97222527 1.53733589 9.56323242 1.56762695 C8.7527092 1.57873001 7.94218597 1.58983307 7.10710144 1.60127258 C4.49421875 2.09570913 3.68445682 2.9909488 2 5 C1.34 5.66 0.68 6.32 0 7 C-0.93423645 3.98968256 -1.04449911 3.13349732 0 0 Z " fill="#E9FBFD" transform="translate(76,171)"/>
<path d="M0 0 C0.33 0 0.66 0 1 0 C1.10183351 6.54690186 1.1716467 13.09359771 1.21972656 19.64111328 C1.23978046 21.86612582 1.26703065 24.09108607 1.30175781 26.31591797 C1.35054934 29.52324365 1.37303162 32.72986951 1.390625 35.9375 C1.41127014 36.92427734 1.43191528 37.91105469 1.45318604 38.92773438 C1.45517439 45.11655885 0.61341115 49.86614915 -3 55 C-5.75 57.5 -5.75 57.5 -8 59 C-7.25009159 55.11411096 -5.55302157 52.84688805 -3.15625 49.78125 C-1.06812796 46.56441334 -0.87040981 43.27180189 -0.79467773 39.50683594 C-0.77473251 38.62622498 -0.75478729 37.74561401 -0.73423767 36.83831787 C-0.70916893 35.42561615 -0.70916893 35.42561615 -0.68359375 33.984375 C-0.66281265 33.01340881 -0.64203156 32.04244263 -0.62062073 31.04205322 C-0.55531138 27.94477315 -0.49632677 24.84740932 -0.4375 21.75 C-0.39429708 19.64842889 -0.35068222 17.5468662 -0.30664062 15.4453125 C-0.19964902 10.29696052 -0.0983291 5.14852442 0 0 Z " fill="#D6F2FF" transform="translate(279,68)"/>
<path d="M0 0 C2.8503026 3.20945602 3.43451699 5.49988548 3.6875 9.75 C3.75324219 10.73484375 3.81898437 11.7196875 3.88671875 12.734375 C3.92410156 13.48203125 3.96148437 14.2296875 4 15 C4.99 15 5.98 15 7 15 C7.22127098 17.29045368 7.4266504 19.58244764 7.625 21.875 C7.74101563 23.15117188 7.85703125 24.42734375 7.9765625 25.7421875 C7.98429687 26.81726563 7.99203125 27.89234375 8 29 C7.34 29.66 6.68 30.32 6 31 C4.98621532 27.14932582 3.99147328 23.29397377 3 19.4375 C2.71382813 18.35146484 2.42765625 17.26542969 2.1328125 16.14648438 C0.72354212 10.62684204 -0.39267632 5.70198744 0 0 Z " fill="#114A97" transform="translate(103,65)"/>
<path d="M0 0 C0.99 0 1.98 0 3 0 C2.86042877 0.60395599 2.72085754 1.20791199 2.57705688 1.83016968 C1.23593431 7.99728407 0.66987467 13.8633595 0.5859375 20.1640625 C0.56657135 21.08214691 0.5472052 22.00023132 0.5272522 22.94613647 C0.46812855 25.83900056 0.42134357 28.73190591 0.375 31.625 C0.33675817 33.60288062 0.29770297 35.58074569 0.2578125 37.55859375 C0.16248356 42.37226748 0.07820891 47.18601893 0 52 C-0.33 52 -0.66 52 -1 52 C-1.19327149 44.91616971 -1.3707563 37.83207185 -1.53710938 30.74755859 C-1.59561847 28.33600854 -1.65778248 25.92454435 -1.72363281 23.51318359 C-1.81749129 20.05321889 -1.89833247 16.59316136 -1.9765625 13.1328125 C-2.00875885 12.04944611 -2.0409552 10.96607971 -2.0741272 9.84988403 C-2.09429901 8.8489975 -2.11447083 7.84811096 -2.13525391 6.81689453 C-2.15746002 5.93309113 -2.17966614 5.04928772 -2.20254517 4.13870239 C-2 2 -2 2 0 0 Z " fill="#4EA6DD" transform="translate(348,76)"/>
<path d="M0 0 C4.10152171 1.3671739 5.00398256 4.07458455 6.9375 7.6875 C7.6110922 8.9217701 8.28686133 10.15485474 8.96484375 11.38671875 C9.29597168 11.9904834 9.62709961 12.59424805 9.96826172 13.21630859 C10.99004245 14.98278517 12.09520666 16.65291176 13.25390625 18.33203125 C15 21 15 21 15 23 C14.34 23 13.68 23 13 23 C12.34 21.02 11.68 19.04 11 17 C10.34 17 9.68 17 9 17 C9 16.34 9 15.68 9 15 C8.01 15.33 7.02 15.66 6 16 C5.896875 15.071875 5.79375 14.14375 5.6875 13.1875 C4.99468505 9.97535795 4.6120831 8.88069983 2 7 C1.34 7 0.68 7 0 7 C-0.66 5.35 -1.32 3.7 -2 2 C-1.34 1.34 -0.68 0.68 0 0 Z " fill="#1A4D89" transform="translate(507,33)"/>
<path d="M0 0 C0.66 0.33 1.32 0.66 2 1 C-2.1156491 4.63883609 -6.04003128 7.29176989 -11 9.75 C-12.175625 10.34296875 -13.35125 10.9359375 -14.5625 11.546875 C-17.78496421 12.90909851 -20.54032872 13.59918442 -24 14 C-22 11 -22 11 -19.375 10.3125 C-18.59125 10.209375 -17.8075 10.10625 -17 10 C-17.33 9.67 -17.66 9.34 -18 9 C-18.04063832 7.33382885 -18.042721 5.66611905 -18 4 C-17.34 4 -16.68 4 -16 4 C-15.67 5.32 -15.34 6.64 -15 8 C-10.80800964 6.87326046 -10.80800964 6.87326046 -7.375 4.375 C-6.92125 3.92125 -6.4675 3.4675 -6 3 C-4.68 3 -3.36 3 -2 3 C-2 2.34 -2 1.68 -2 1 C-1.34 0.67 -0.68 0.34 0 0 Z " fill="#55A7DC" transform="translate(322,180)"/>
<path d="M0 0 C0.66 0 1.32 0 2 0 C3.37130616 3.9108777 4.71902743 7.82948238 6.0625 11.75 C6.45244141 12.86117188 6.84238281 13.97234375 7.24414062 15.1171875 C7.60830078 16.18710937 7.97246094 17.25703125 8.34765625 18.359375 C8.68804932 19.34389648 9.02844238 20.32841797 9.37915039 21.34277344 C10.01289736 24.05520049 9.94500645 25.4193025 9 28 C8.34 27.67 7.68 27.34 7 27 C6.50245161 25.04297634 6.01132033 23.08381623 5.5703125 21.11328125 C5.02163478 18.77927796 5.02163478 18.77927796 3.4375 16 C1.61763568 12.20202228 1.39944418 9.19416392 1 5 C0.68676972 3.32943851 0.36321485 1.66041075 0 0 Z " fill="#21548F" transform="translate(145,12)"/>
<path d="M0 0 C0.66 0.33 1.32 0.66 2 1 C0.89689695 4.47950478 -0.20768012 7.95854001 -1.3125 11.4375 C-1.7755957 12.89833008 -1.7755957 12.89833008 -2.24804688 14.38867188 C-4.11846464 20.27556568 -6.03216525 26.14493477 -8 32 C-8.33 32 -8.66 32 -9 32 C-9.37851209 26.06997733 -8.10575375 21.52760359 -6 16 C-5.34 16 -4.68 16 -4 16 C-4.0825 14.845 -4.165 13.69 -4.25 12.5 C-4.28495033 7.60695379 -2.46132216 4.13150506 0 0 Z " fill="#DDF4FB" transform="translate(41,64)"/>
<path d="M0 0 C9.9 0 19.8 0 30 0 C25 4 25 4 21.07421875 3.98828125 C19.60861214 3.78608304 18.14612402 3.56009405 16.6875 3.3125 C15.96626953 3.20744141 15.24503906 3.10238281 14.50195312 2.99414062 C13.05777319 2.78301836 11.61483414 2.56321375 10.17333984 2.33447266 C6.79105967 1.8139465 3.39719055 1.41073377 0 1 C0 0.67 0 0.34 0 0 Z " fill="#DDEDF7" transform="translate(728,0)"/>
<path d="M0 0 C3.100616 3.100616 5.3471859 6.39339513 7.6875 10.0625 C8.10322266 10.69994141 8.51894531 11.33738281 8.94726562 11.99414062 C12 16.75119304 12 16.75119304 12 19 C11.01 19 10.02 19 9 19 C8.896875 18.401875 8.79375 17.80375 8.6875 17.1875 C7.90614947 14.70138466 6.85104584 13.77056558 5 12 C5 11.34 5 10.68 5 10 C4.01 9.67 3.02 9.34 2 9 C2 10.32 2 11.64 2 13 C1.34 13 0.68 13 0 13 C0 8.71 0 4.42 0 0 Z " fill="#DCEFF8" transform="translate(482,99)"/>
<path d="M0 0 C4.62 0 9.24 0 14 0 C14.66 2.31 15.32 4.62 16 7 C14.375 7.8125 14.375 7.8125 12 8 C10.50241066 6.79541727 9.00930476 5.58124927 7.59375 4.28125 C5.2923106 2.43107323 2.8249842 1.73987681 0 1 C0 0.67 0 0.34 0 0 Z " fill="#FAFAF5" transform="translate(592,0)"/>
<path d="M0 0 C1.32 0.66 2.64 1.32 4 2 C-10.8005618 13 -10.8005618 13 -17 13 C-16.67 12.01 -16.34 11.02 -16 10 C-12.9375 8.8125 -12.9375 8.8125 -10 8 C-10.66 7.01 -11.32 6.02 -12 5 C-10.68 4.34 -9.36 3.68 -8 3 C-8 3.66 -8 4.32 -8 5 C-6.02 5 -4.04 5 -2 5 C-2 4.34 -2 3.68 -2 3 C-1.34 3 -0.68 3 0 3 C0 2.01 0 1.02 0 0 Z " fill="#1A4C8C" transform="translate(780,178)"/>
<path d="M0 0 C6.35492951 2.03712026 9.49426084 6.52133404 13 12 C14.34338567 15.28284313 15.29071292 18.52744868 16 22 C15.01 21.34 14.02 20.68 13 20 C13 18.68 13 17.36 13 16 C12.01 15.67 11.02 15.34 10 15 C8.35179805 12.39757586 8 11.13751221 8 8 C7.34 8 6.68 8 6 8 C6 7.01 6 6.02 6 5 C4.68 5 3.36 5 2 5 C1.34 3.35 0.68 1.7 0 0 Z " fill="#1F5088" transform="translate(783,108)"/>
<path d="M0 0 C6.04557187 1.41063344 10.07420911 3.16299249 13.9140625 8.1484375 C15.41494654 10.70749878 15.85653206 13.05890727 16 16 C15.34 16 14.68 16 14 16 C14 15.01 14 14.02 14 13 C13.34 13 12.68 13 12 13 C11.67 11.02 11.34 9.04 11 7 C10.01 7.33 9.02 7.66 8 8 C8 7.34 8 6.68 8 6 C7.34 6 6.68 6 6 6 C6 5.34 6 4.68 6 4 C4.35 4 2.7 4 1 4 C0.67 2.68 0.34 1.36 0 0 Z " fill="#194E8A" transform="translate(591,0)"/>
<path d="M0 0 C11.63476624 0.85848761 11.63476624 0.85848761 15 3 C18.25482256 7.71388095 18.46091484 11.46902188 18 17 C17.34 17.66 16.68 18.32 16 19 C15.90203125 18.25234375 15.8040625 17.5046875 15.703125 16.734375 C14.85933824 10.86090918 14.85933824 10.86090918 12.5 5.5 C8.6051084 3.16306504 4.3825326 2.10399676 0 1 C0 0.67 0 0.34 0 0 Z " fill="#0E4484" transform="translate(714,119)"/>
<path d="M0 0 C6.17195408 0.27430907 10.17148355 1.03814035 15 5 C15 5.33 15 5.66 15 6 C7.9150613 7.46584939 7.9150613 7.46584939 3.5625 5.25 C1 3 1 3 0 0 Z " fill="#0C509B" transform="translate(127,0)"/>
<path d="M0 0 C6.42333709 2.18151071 6.42333709 2.18151071 8.9375 5.75 C10.35659736 10.0907684 11.03596123 13.70384351 9.09765625 18 C8.13123071 19.70586144 7.07203282 21.35844975 6 23 C5.34 23 4.68 23 4 23 C4 22.34 4 21.68 4 21 C4.66 21 5.32 21 6 21 C6.19504458 18.89651926 6.38078496 16.79217415 6.5625 14.6875 C6.66691406 13.51574219 6.77132812 12.34398437 6.87890625 11.13671875 C7.18577434 7.96967425 7.18577434 7.96967425 6 5 C4.7625 4.505 4.7625 4.505 3.5 4 C2.2625 3.505 2.2625 3.505 1 3 C0.67 2.01 0.34 1.02 0 0 Z " fill="#CFE9F7" transform="translate(720,121)"/>
<path d="M0 0 C0.88300781 0.37125 1.76601563 0.7425 2.67578125 1.125 C3.33964844 1.41375 4.00351562 1.7025 4.6875 2 C4.6875 3.32 4.6875 4.64 4.6875 6 C2.99479167 4.99088542 1.30208333 3.98177083 -0.390625 2.97265625 C-4.15136223 1.06935631 -7.77950132 0.83899463 -11.953125 0.68359375 C-13.02304687 0.64169922 -14.09296875 0.59980469 -15.1953125 0.55664062 C-16.30648437 0.51732422 -17.41765625 0.47800781 -18.5625 0.4375 C-20.25246094 0.37272461 -20.25246094 0.37272461 -21.9765625 0.30664062 C-24.75508954 0.20067985 -27.53370391 0.09860858 -30.3125 0 C-30.3125 -0.33 -30.3125 -0.66 -30.3125 -1 C-27.08343849 -1.16874595 -23.85423589 -1.33462737 -20.625 -1.5 C-19.71298828 -1.54769531 -18.80097656 -1.59539063 -17.86132812 -1.64453125 C-16.97509766 -1.68964844 -16.08886719 -1.73476563 -15.17578125 -1.78125 C-14.36407471 -1.82314453 -13.55236816 -1.86503906 -12.71606445 -1.90820312 C-7.86757211 -2.09337663 -4.51589737 -1.92678288 0 0 Z " fill="#265990" transform="translate(718.3125,50)"/>
<path d="M0 0 C0.99 0 1.98 0 3 0 C3 0.66 3 1.32 3 2 C4.32 2.33 5.64 2.66 7 3 C6.45730469 3.67546875 5.91460937 4.3509375 5.35546875 5.046875 C4.64003906 5.93890625 3.92460937 6.8309375 3.1875 7.75 C2.12595703 9.07257812 2.12595703 9.07257812 1.04296875 10.421875 C-0.67505002 12.58992929 -2.35373976 14.77728901 -4 17 C-4 15.35 -4 13.7 -4 12 C-3.34 12 -2.68 12 -2 12 C-1.1558062 8.02022924 -0.55312735 4.02992782 0 0 Z " fill="#E4FAFE" transform="translate(292,20)"/>
<path d="M0 0 C2 1 2 1 2.77783203 2.71826172 C3.01872559 3.44803223 3.25961914 4.17780273 3.5078125 4.9296875 C3.90419922 6.12271484 3.90419922 6.12271484 4.30859375 7.33984375 C4.57800781 8.17644531 4.84742188 9.01304687 5.125 9.875 C5.40214844 10.70386719 5.67929688 11.53273437 5.96484375 12.38671875 C8 18.5924415 8 18.5924415 8 22 C6.68 22 5.36 22 4 22 C3.32838005 18.89688362 2.66356325 15.79234832 2 12.6875 C1.80921875 11.80642578 1.6184375 10.92535156 1.421875 10.01757812 C1.24140625 9.17001953 1.0609375 8.32246094 0.875 7.44921875 C0.70742187 6.66893311 0.53984375 5.88864746 0.3671875 5.0847168 C0 3 0 3 0 0 Z " fill="#1B518F" transform="translate(191,153)"/>
<path d="M0 0 C1.125 3.75 1.125 3.75 0 6 C-7.26 6 -14.52 6 -22 6 C-22 5.34 -22 4.68 -22 4 C-17.54985802 2.54317603 -13.02629764 2.95035863 -8.40039062 3.0390625 C-5.30270704 3.07597631 -2.96588482 2.98862827 0 2 C0 1.34 0 0.68 0 0 Z " fill="#EEFDFE" transform="translate(115,120)"/>
<path d="M0 0 C6.36779442 3.48712551 10.60414798 8.59974268 12.8203125 15.5859375 C13.29543578 17.70726259 13.65920588 19.85299706 14 22 C12 21 12 21 11.21875 19.22265625 C10.9815625 18.50980469 10.744375 17.79695313 10.5 17.0625 C9.57597536 14.29544796 9.10862631 13.10862631 7 11 C7 10.01 7 9.02 7 8 C6.01 8.33 5.02 8.66 4 9 C4 8.34 4 7.68 4 7 C3.34 7 2.68 7 2 7 C1.855625 6.401875 1.71125 5.80375 1.5625 5.1875 C1.1127561 3.43849596 0.57107659 1.71322977 0 0 Z " fill="#1E4D88" transform="translate(777,15)"/>
<path d="M0 0 C0.66 0.33 1.32 0.66 2 1 C-3.39068413 4.59378942 -6.53673535 5.45356243 -13 5 C-13 5.66 -13 6.32 -13 7 C-18.28 7 -23.56 7 -29 7 C-29 6.67 -29 6.34 -29 6 C-28.29915283 5.88930176 -27.59830566 5.77860352 -26.8762207 5.66455078 C-23.68732253 5.15738799 -20.49993307 4.64128726 -17.3125 4.125 C-16.20970703 3.95097656 -15.10691406 3.77695313 -13.97070312 3.59765625 C-12.90400391 3.42363281 -11.83730469 3.24960938 -10.73828125 3.0703125 C-9.75899658 2.91320801 -8.77971191 2.75610352 -7.77075195 2.59423828 C-4.95450722 2.07696752 -4.95450722 2.07696752 -2.26635742 0.87060547 C-1.51845947 0.58330566 -0.77056152 0.29600586 0 0 Z " fill="#CAE3F4" transform="translate(765,190)"/>
<path d="M0 0 C0.33 0 0.66 0 1 0 C1 3.63 1 7.26 1 11 C9.25 11.33 17.5 11.66 26 12 C26 11.34 26 10.68 26 10 C26.66 10 27.32 10 28 10 C28 10.99 28 11.98 28 13 C18.1 13 8.2 13 -2 13 C-1.3786131 8.6502917 -0.73894837 4.32812614 0 0 Z " fill="#CCEAFA" transform="translate(89,114)"/>
<path d="M0 0 C0.66 0 1.32 0 2 0 C3.00736628 2.93502595 4.00460504 5.87339461 5 8.8125 C5.28617188 9.64587891 5.57234375 10.47925781 5.8671875 11.33789062 C6.13789063 12.14033203 6.40859375 12.94277344 6.6875 13.76953125 C6.93886719 14.50792236 7.19023437 15.24631348 7.44921875 16.00708008 C8 18 8 18 8 21 C6 21 6 21 4.4375 19.625 C3 18 3 18 2 16 C2.66 16 3.32 16 4 16 C3.69255859 15.14728516 3.69255859 15.14728516 3.37890625 14.27734375 C1.70907331 9.4915546 0.53623064 5.04056799 0 0 Z " fill="#165293" transform="translate(198,176)"/>
<path d="M0 0 C1.034445 3.63661428 0.81933607 6.13699898 0.125 9.875 C-0.05804688 10.88304688 -0.24109375 11.89109375 -0.4296875 12.9296875 C-0.71199219 14.44949219 -0.71199219 14.44949219 -1 16 C-1.33707666 17.99937251 -1.67151024 19.99919876 -2 22 C-2.66 22 -3.32 22 -4 22 C-4 23.65 -4 25.3 -4 27 C-4.66 27.33 -5.32 27.66 -6 28 C-5.42100187 21.40474547 -4.20265263 15.3108382 -2.4375 8.9375 C-2.20353516 8.07189453 -1.96957031 7.20628906 -1.72851562 6.31445312 C-1.1582666 4.20802305 -0.57998166 2.10377111 0 0 Z " fill="#CBE3F2" transform="translate(99,74)"/>
<path d="M0 0 C0.66 0.33 1.32 0.66 2 1 C1.34 4.3 0.68 7.6 0 11 C-0.66 11 -1.32 11 -2 11 C-2 14.3 -2 17.6 -2 21 C-3.98 21.99 -3.98 21.99 -6 23 C-5.50387003 14.89654389 -2.679915 7.59474067 0 0 Z " fill="#23528F" transform="translate(46,53)"/>
<path d="M0 0 C0.33 0 0.66 0 1 0 C1 6.27 1 12.54 1 19 C0.01 17.68 -0.98 16.36 -2 15 C-2.99 16.485 -2.99 16.485 -4 18 C-4.66 18 -5.32 18 -6 18 C-5.71382812 17.31550781 -5.42765625 16.63101563 -5.1328125 15.92578125 C-3.89019008 12.71638749 -2.87299966 9.48089886 -1.875 6.1875 C-1.52179687 5.02605469 -1.16859375 3.86460937 -0.8046875 2.66796875 C-0.53914062 1.78753906 -0.27359375 0.90710938 0 0 Z " fill="#E9F4F7" transform="translate(799,152)"/>
<path d="M0 0 C0.55816406 0.38285156 1.11632812 0.76570312 1.69140625 1.16015625 C1.36140625 2.48015625 1.03140625 3.80015625 0.69140625 5.16015625 C0.03140625 4.83015625 -0.62859375 4.50015625 -1.30859375 4.16015625 C-0.97859375 3.50015625 -0.64859375 2.84015625 -0.30859375 2.16015625 C-1.17484375 2.65515625 -1.17484375 2.65515625 -2.05859375 3.16015625 C-4.30859375 4.16015625 -4.30859375 4.16015625 -8.30859375 4.16015625 C-8.49421875 4.77890625 -8.67984375 5.39765625 -8.87109375 6.03515625 C-11.02296608 9.21618491 -13.68393138 9.35467572 -17.30859375 10.16015625 C-13.53297848 5.88112561 -5.9707221 -2.1720901 0 0 Z " fill="#62AFDC" transform="translate(320.30859375,8.83984375)"/>
<path d="M0 0 C2.63664741 2.63664741 4.255224 4.75970171 6 8 C6 8.66 6 9.32 6 10 C3.03 10 0.06 10 -3 10 C-2.01 6.7 -1.02 3.4 0 0 Z " fill="#E9F5F8" transform="translate(536,187)"/>
<path d="M0 0 C0.66 0.33 1.32 0.66 2 1 C2.46217027 7.58592641 1.4616096 10.44044518 -2 16 C-2.36106097 17.66088045 -2.70462173 19.32618981 -3 21 C-3.66 21.33 -4.32 21.66 -5 22 C-5.66 21.34 -6.32 20.68 -7 20 C-6.401875 19.113125 -5.80375 18.22625 -5.1875 17.3125 C-2.0976182 11.99042601 -1.18556094 5.9727123 0 0 Z " fill="#D5EAF7" transform="translate(792,53)"/>
<path d="M0 0 C0.33 0.66 0.66 1.32 1 2 C-0.79706823 5.688719 -2.74302823 7.61155403 -6 10 C-6.33 10.99 -6.66 11.98 -7 13 C-7.66 13 -8.32 13 -9 13 C-9.33 14.65 -9.66 16.3 -10 18 C-10.99 18 -11.98 18 -13 18 C-11.61462414 13.99461279 -9.74583305 11.14296986 -7.0625 7.875 C-6.37285156 7.02679687 -5.68320312 6.17859375 -4.97265625 5.3046875 C-3.37914083 3.44295662 -1.76674046 1.69474163 0 0 Z " fill="#5FAAD7" transform="translate(302,19)"/>
<path d="M0 0 C5.2660365 1.60906671 7.55353779 4.32081398 10.13671875 9.10546875 C11.12140916 11.05757429 12.07571559 13.01868821 13 15 C12.01 14.67 11.02 14.34 10 14 C10 13.34 10 12.68 10 12 C9.01 11.67 8.02 11.34 7 11 C6.67 9.35 6.34 7.7 6 6 C3.69 5.34 1.38 4.68 -1 4 C-0.67 2.68 -0.34 1.36 0 0 Z " fill="#1A4B8C" transform="translate(485,1)"/>
<path d="M0 0 C0.66 0 1.32 0 2 0 C2.680625 1.670625 2.680625 1.670625 3.375 3.375 C4.72465986 6.96199008 4.72465986 6.96199008 7 9 C7.484375 11.09375 7.484375 11.09375 7.75 13.5 C7.84796875 14.2940625 7.9459375 15.088125 8.046875 15.90625 C8 18 8 18 6 20 C4.99513105 17.04329782 3.99693976 14.08438423 3 11.125 C2.71382812 10.28324219 2.42765625 9.44148437 2.1328125 8.57421875 C1.86210937 7.76855469 1.59140625 6.96289062 1.3125 6.1328125 C1.06113281 5.38918457 0.80976563 4.64555664 0.55078125 3.87939453 C0 2 0 2 0 0 Z " fill="#DFF2FB" transform="translate(195,162)"/>
<path d="M0 0 C0.66 0.33 1.32 0.66 2 1 C1.51171875 7.0546875 1.51171875 7.0546875 1 9 C-2 11 -2 11 -5 12 C-5.33 12.66 -5.66 13.32 -6 14 C-7.65 14 -9.3 14 -11 14 C-10.2575 13.443125 -9.515 12.88625 -8.75 12.3125 C-4.48985398 8.73010448 -1.80999224 5.27914404 0 0 Z " fill="#66AFDE" transform="translate(279,115)"/>
<path d="M0 0 C4 0 4 0 6.6875 1.875 C9.82876665 6.11995493 9.88964419 9.83334171 10 15 C2 5.57142857 2 5.57142857 2 1 C1.34 0.67 0.68 0.34 0 0 Z " fill="#175090" transform="translate(481,97)"/>
<path d="M0 0 C-2 2 -2 2 -4.8203125 2.1953125 C-5.91085937 2.17210937 -7.00140625 2.14890625 -8.125 2.125 C-9.22070312 2.10695313 -10.31640625 2.08890625 -11.4453125 2.0703125 C-12.28835938 2.04710937 -13.13140625 2.02390625 -14 2 C-14.66 3.32 -15.32 4.64 -16 6 C-17.65 5.67 -19.3 5.34 -21 5 C-21 4.34 -21 3.68 -21 3 C-13.92444501 -0.0017506 -7.62951555 -0.34855655 0 0 Z " fill="#5DAAD9" transform="translate(345,2)"/>
<path d="M0 0 C0.66 0 1.32 0 2 0 C0.52033871 7.71164651 -1.20295366 15.35656288 -3 23 C-3.33 23 -3.66 23 -4 23 C-3.67 17.39 -3.34 11.78 -3 6 C-2.34 5.67 -1.68 5.34 -1 5 C-0.34444881 2.47266765 -0.34444881 2.47266765 0 0 Z " fill="#23528A" transform="translate(74,171)"/>
<path d="M0 0 C1 2 1 2 0.3125 5.4375 C-1.0352235 9.09560664 -1.66465754 10.18072229 -5 12 C-5.99 12.33 -6.98 12.66 -8 13 C-8 8.21861363 -7.16772988 7.615713 -4 4.25 C-3.2575 3.45078125 -2.515 2.6515625 -1.75 1.828125 C-1.1725 1.22484375 -0.595 0.6215625 0 0 Z " fill="#DBEDF8" transform="translate(792,170)"/>
<path d="M0 0 C0.33 0 0.66 0 1 0 C1.06058594 0.60328125 1.12117187 1.2065625 1.18359375 1.828125 C1.26738281 2.62734375 1.35117187 3.4265625 1.4375 4.25 C1.55931641 5.43335938 1.55931641 5.43335938 1.68359375 6.640625 C1.94883705 8.97441651 1.94883705 8.97441651 2.54296875 11.1015625 C3.24963434 14.03694263 2.8724781 16.13328624 2 19 C-0.5625 20.375 -0.5625 20.375 -3 21 C-2.690625 20.236875 -2.38125 19.47375 -2.0625 18.6875 C-0.31676269 14.2718115 -0.00015615 11.5894363 -0.5 6.875 C-0.70623678 4.92043774 -0.88287048 2.96191944 -1 1 C-0.67 0.67 -0.34 0.34 0 0 Z " fill="#124D95" transform="translate(724,56)"/>
<path d="M0 0 C-0.06640625 1.765625 -0.06640625 1.765625 -1 4 C-3.32123545 5.44380258 -5.47524362 6.61282312 -7.9375 7.75 C-8.58396484 8.06582031 -9.23042969 8.38164063 -9.89648438 8.70703125 C-14.67598417 11 -14.67598417 11 -17 11 C-17 10.01 -17 9.02 -17 8 C-16.33613281 7.75765625 -15.67226563 7.5153125 -14.98828125 7.265625 C-10.52887977 5.57300546 -4.14749907 0 0 0 Z " fill="#1A4C88" transform="translate(775,81)"/>
<path d="M0 0 C0.33 0 0.66 0 1 0 C1.27292147 3.01263312 1.28661186 4.56042113 -0.390625 7.1328125 C-1.00421875 7.79023438 -1.6178125 8.44765625 -2.25 9.125 C-3.15492188 10.11886719 -3.15492188 10.11886719 -4.078125 11.1328125 C-5.9486626 12.95012342 -7.87803784 14.48833669 -10 16 C-10.66 15.67 -11.32 15.34 -12 15 C-11.38511719 14.33613281 -10.77023437 13.67226562 -10.13671875 12.98828125 C-9.32847656 12.10527344 -8.52023437 11.22226563 -7.6875 10.3125 C-6.48673828 9.00732422 -6.48673828 9.00732422 -5.26171875 7.67578125 C-3.18586054 5.21988682 -1.61927426 2.7652222 0 0 Z " fill="#DBF8FE" transform="translate(339,163)"/>
<path d="M0 0 C0.99 0.33 1.98 0.66 3 1 C1.68 5.29 0.36 9.58 -1 14 C-1.66 14 -2.32 14 -3 14 C-3.32374517 8.49633208 -3.53286034 4.56327794 0 0 Z " fill="#EBF8FD" transform="translate(45,48)"/>
<path d="M0 0 C0.78796315 2.27856859 1.19566854 3.50488291 0.29296875 5.7890625 C-0.07183594 6.39492188 -0.43664062 7.00078125 -0.8125 7.625 C-3.32492769 12.23256635 -4.19827027 16.85205123 -5 22 C-5.66 22 -6.32 22 -7 22 C-6.60293233 15.24984963 -4.926154 4.926154 0 0 Z " fill="#6AADD7" transform="translate(288,37)"/>
<path d="M0 0 C0.66 0.33 1.32 0.66 2 1 C-0.31 8.26 -2.62 15.52 -5 23 C-5.66 23 -6.32 23 -7 23 C-5.62982617 16.03494972 -3.51097 9.63070001 -1 3 C-0.67 2.01 -0.34 1.02 0 0 Z " fill="#DCF3FC" transform="translate(54,23)"/>
<path d="M0 0 C1.08557892 3.25995807 0.91310151 5.10542427 -0.21484375 8.328125 C-0.48876953 9.12734375 -0.76269531 9.9265625 -1.04492188 10.75 C-1.48674805 11.9875 -1.48674805 11.9875 -1.9375 13.25 C-2.22818359 14.09046875 -2.51886719 14.9309375 -2.81835938 15.796875 C-3.53621233 17.86805731 -4.26366119 19.93533262 -5 22 C-6.00117801 18.45591497 -5.86972345 16.01679712 -5.1875 12.375 C-5.01605469 11.41335937 -4.84460938 10.45171875 -4.66796875 9.4609375 C-4 7 -4 7 -2 5 C-1.29289322 3.35008418 -0.62056011 1.68437744 0 0 Z " fill="#DCF2FA" transform="translate(31,96)"/>
<path d="M0 0 C4.28115853 4.77513836 7.03759841 10.36156231 10 16 C6.203125 15.28125 6.203125 15.28125 4.375 12.75 C3 10 3 10 2 7.4375 C0.97120841 4.92982049 -0.29466672 3.09290902 -2 1 C-1.34 0.67 -0.68 0.34 0 0 Z " fill="#194F8D" transform="translate(498,16)"/>
<path d="M0 0 C0.33 0 0.66 0 1 0 C1.12036664 5.77759884 0.8320582 11.27959989 0 17 C-0.99 17.33 -1.98 17.66 -3 18 C-2.41509121 11.85845775 -1.45933748 5.99320151 0 0 Z " fill="#DEF8FE" transform="translate(350,127)"/>
<path d="M0 0 C3.875 2.625 3.875 2.625 5 6 C5.03954234 8.33299825 5.04401732 10.66708189 5 13 C2.04250209 9.53258866 -0.07848152 6.13126473 -2 2 C-1.34 2 -0.68 2 0 2 C0 1.34 0 0.68 0 0 Z " fill="#134B95" transform="translate(502,125)"/>
<path d="M0 0 C0.33 0 0.66 0 1 0 C1 4.95 1 9.9 1 15 C-0.53666343 11.92667314 -1.86711554 8.93664064 -3.125 5.75 C-3.47820313 4.85796875 -3.83140625 3.9659375 -4.1953125 3.046875 C-4.46085938 2.37140625 -4.72640625 1.6959375 -5 1 C-3.68 1.33 -2.36 1.66 -1 2 C-0.67 1.34 -0.34 0.68 0 0 Z " fill="#E0F2FB" transform="translate(799,117)"/>
<path d="M0 0 C4.82413126 4.06242632 6.03945781 6.94858422 7 13 C6.5390625 15.24609375 6.5390625 15.24609375 6 17 C5.66226563 16.18015625 5.32453125 15.3603125 4.9765625 14.515625 C4.53054688 13.43796875 4.08453125 12.3603125 3.625 11.25 C3.18414063 10.18265625 2.74328125 9.1153125 2.2890625 8.015625 C1.26692415 5.62444074 0.19786405 3.30616817 -1 1 C-0.67 0.67 -0.34 0.34 0 0 Z " fill="#D8ECF8" transform="translate(785,19)"/>
<path d="M0 0 C0.66 0.66 1.32 1.32 2 2 C1.58652435 5.80003811 0.26936567 9.24653709 -1.0625 12.8125 C-1.42472656 13.78832031 -1.78695313 14.76414063 -2.16015625 15.76953125 C-2.43730469 16.50558594 -2.71445312 17.24164063 -3 18 C-3.66 18 -4.32 18 -5 18 C-3.36959185 11.98922864 -1.72852643 5.98336072 0 0 Z " fill="#23558B" transform="translate(26,115)"/>
<path d="M0 0 C4.28115853 4.77513836 7.03759841 10.36156231 10 16 C9.01 16 8.02 16 7 16 C4.50601226 13.50601226 3.89386667 11.16447538 2.78125 7.875 C2.05807568 5.80424247 2.05807568 5.80424247 0 4 C0 2.68 0 1.36 0 0 Z " fill="#1E5089" transform="translate(536,79)"/>
<path d="M0 0 C4.86995315 5.29342734 4.1186352 12.2377937 4 19 C0.52501234 13.0428783 -0.28080706 6.7393695 0 0 Z " fill="#174B89" transform="translate(103,65)"/>
<path d="M0 0 C2 3 2 3 3 6 C3.99 6.66 4.98 7.32 6 8 C5.34 9.32 4.68 10.64 4 12 C1.04250209 8.53258866 -1.07848152 5.13126473 -3 1 C-2.01 0.67 -1.02 0.34 0 0 Z " fill="#E1F2F9" transform="translate(534,69)"/>
<path d="M0 0 C2 1.3125 2 1.3125 4 4 C4.52782321 7.71143054 4.62704091 11.29989372 4 15 C2.47265625 16.83984375 2.47265625 16.83984375 1 18 C1.01160156 17.03578125 1.02320313 16.0715625 1.03515625 15.078125 C1.04417969 13.81484375 1.05320312 12.5515625 1.0625 11.25 C1.07990234 9.37054688 1.07990234 9.37054688 1.09765625 7.453125 C1.02021027 4.71463499 0.82780815 2.58119707 0 0 Z " fill="#D8EFFB" transform="translate(720,54)"/>
<path d="M0 0 C4.75 1.875 4.75 1.875 7 3 C7 5.64 7 8.28 7 11 C4.59424393 8.81482901 3.20464419 6.74080329 1.8125 3.8125 C1.46832031 3.09707031 1.12414062 2.38164063 0.76953125 1.64453125 C0.51558594 1.10183594 0.26164063 0.55914062 0 0 Z " fill="#E2F6FC" transform="translate(541,86)"/>
<path d="M0 0 C9 10.66666667 9 10.66666667 9 15 C5.47263757 13.82421252 4.89116209 13.12452867 3 10 C2.32811503 7.66816393 1.66084583 5.33498858 1 3 C0.34 2.67 -0.32 2.34 -1 2 C-0.67 1.34 -0.34 0.68 0 0 Z " fill="#D9EEF7" transform="translate(527,172)"/>
<path d="M0 0 C1.98 0 3.96 0 6 0 C6.33 1.32 6.66 2.64 7 4 C7.66 4 8.32 4 9 4 C9 4.66 9 5.32 9 6 C8.01 6.33 7.02 6.66 6 7 C2.76985216 4.84656811 1.24313463 3.72940389 0 0 Z " fill="#0A478F" transform="translate(526,169)"/>
<path d="M0 0 C0.66 0 1.32 0 2 0 C1.50341703 5.66104589 0.45489316 9.87674471 -2 15 C-2.66 14.67 -3.32 14.34 -4 14 C-3.69255859 13.11248047 -3.69255859 13.11248047 -3.37890625 12.20703125 C-2.0002429 8.16339184 -0.68249153 4.23144751 0 0 Z " fill="#194E87" transform="translate(797,152)"/>
<path d="M0 0 C0.33 0 0.66 0 1 0 C1.50537432 5.30643041 0.30655751 7.86680312 -3 12 C-5.25 13.875 -5.25 13.875 -7 15 C-6.25009159 11.11411096 -4.55302157 8.84688805 -2.15625 5.78125 C-0.90935055 3.86035085 -0.43140673 2.23547126 0 0 Z " fill="#E3FBFE" transform="translate(278,112)"/>
<path d="M0 0 C0.33 0 0.66 0 1 0 C0.47606294 5.86809507 -0.76108858 10.54873741 -3 16 C-3.66 16 -4.32 16 -5 16 C-3.90301833 10.30860098 -2.45946923 5.25432063 0 0 Z " fill="#1F5189" transform="translate(32,99)"/>
<path d="M0 0 C0.28875 0.61875 0.5775 1.2375 0.875 1.875 C1.93720042 4.13325765 1.93720042 4.13325765 4 6 C3.625 8.125 3.625 8.125 3 10 C2.34 10 1.68 10 1 10 C0.34 10.66 -0.32 11.32 -1 12 C-1.14285714 3.42857143 -1.14285714 3.42857143 0 0 Z " fill="#074890" transform="translate(795,124)"/>
<path d="M0 0 C-2.62451617 2.62451617 -4.4877828 2.5832868 -8.125 3.125 C-9.22070312 3.29257813 -10.31640625 3.46015625 -11.4453125 3.6328125 C-12.70988281 3.81457031 -12.70988281 3.81457031 -14 4 C-8.90026682 -1.26972429 -7.04819215 -1.02312467 0 0 Z " fill="#D5F2FD" transform="translate(368,70)"/>
<path d="M0 0 C2.67927341 4.01891012 2.15601248 6.24161923 2 11 C0.68 11 -0.64 11 -2 11 C-1.34 7.37 -0.68 3.74 0 0 Z " fill="#E6F3FB" transform="translate(72,186)"/>
<path d="M0 0 C0.66 0.33 1.32 0.66 2 1 C-0.37927808 4.56891712 -2.05934294 5.4085808 -6 7 C-9.375 7.1875 -9.375 7.1875 -12 7 C-9.5129261 5.34195074 -7.02682498 3.80125522 -4.4375 2.3125 C-3.65246094 1.85488281 -2.86742187 1.39726562 -2.05859375 0.92578125 C-1.37925781 0.62027344 -0.69992187 0.31476563 0 0 Z " fill="#D1F1FB" transform="translate(316,186)"/>
<path d="M0 0 C2.40072955 2.88087546 4.47291037 5.56404834 6 9 C4.02 9.99 4.02 9.99 2 11 C-0.32590854 7.36576791 -0.16265833 4.22911669 0 0 Z " fill="#E1F3F7" transform="translate(494,118)"/>
<path d="M0 0 C4.42116304 1.35091093 6.48076658 3.13117725 9 7 C9.75 9.8125 9.75 9.8125 10 12 C9.34 11.67 8.68 11.34 8 11 C8 10.01 8 9.02 8 8 C7.34 8 6.68 8 6 8 C6 7.01 6 6.02 6 5 C4.68 5 3.36 5 2 5 C1.34 3.35 0.68 1.7 0 0 Z " fill="#124988" transform="translate(783,108)"/>
<path d="M0 0 C4.71403788 0.47939368 8.66579301 0.96834048 13 3 C12.67 3.66 12.34 4.32 12 5 C10.55989519 4.74337755 9.1229313 4.46909179 7.6875 4.1875 C6.88699219 4.03667969 6.08648438 3.88585937 5.26171875 3.73046875 C2.76554413 2.92427764 1.67577894 1.97947998 0 0 Z " fill="#0E4889" transform="translate(755,96)"/>
<path d="M0 0 C3.63 0.33 7.26 0.66 11 1 C10.67 1.99 10.34 2.98 10 4 C6.53058454 3.54177532 3.32604951 3.10868317 0 2 C0 1.34 0 0.68 0 0 Z " fill="#40AFF7" transform="translate(331,4)"/>
<path d="M0 0 C1.43655854 -0.08131463 2.8744483 -0.13933559 4.3125 -0.1875 C5.51326172 -0.23970703 5.51326172 -0.23970703 6.73828125 -0.29296875 C9 0 9 0 10.8125 1.375 C12 3 12 3 11.6875 5.1875 C11.3471875 6.0846875 11.3471875 6.0846875 11 7 C9.948125 6.071875 9.948125 6.071875 8.875 5.125 C5.94222819 2.9572991 3.48817594 1.97344445 0 1 C0 0.67 0 0.34 0 0 Z " fill="#DCEDF9" transform="translate(592,0)"/>
<path d="M0 0 C0.99 0 1.98 0 3 0 C1.68 5.28 0.36 10.56 -1 16 C-1.33 16 -1.66 16 -2 16 C-2.2396943 10.36718401 -1.38529821 5.45461169 0 0 Z " fill="#D2EBF5" transform="translate(60,0)"/>
<path d="M0 0 C1.68550367 3.37100733 -0.31136964 6.72014632 -1.4375 10.125 C-1.68048828 10.87910156 -1.92347656 11.63320312 -2.17382812 12.41015625 C-2.77595819 14.27557879 -3.38713463 16.13807683 -4 18 C-4.33 18 -4.66 18 -5 18 C-5.43328368 11.06746106 -3.85991763 5.78987645 0 0 Z " fill="#CEE2F3" transform="translate(7,174)"/>
<path d="M0 0 C7 8.44827586 7 8.44827586 7 12 C6.01 12.33 5.02 12.66 4 13 C2.28232318 9.01811282 0.58962659 5.03520597 -1 1 C-0.67 0.67 -0.34 0.34 0 0 Z " fill="#D8ECF8" transform="translate(515,152)"/>
<path d="M0 0 C2.0625 0.4375 2.0625 0.4375 4 1 C-2.23448078 4.59681584 -9.02832546 4.12400212 -16 4 C-16 3.67 -16 3.34 -16 3 C-14.906875 2.855625 -13.81375 2.71125 -12.6875 2.5625 C-9.06877013 2.11711896 -9.06877013 2.11711896 -6 1 C-4.33333333 1 -2.66666667 1 -1 1 C-0.67 0.67 -0.34 0.34 0 0 Z " fill="#DCF4FC" transform="translate(720,144)"/>
<path d="M0 0 C2.00993705 3.01490557 2.72623341 5.2149927 3.625 8.6875 C3.88539063 9.68136719 4.14578125 10.67523438 4.4140625 11.69921875 C4.60742188 12.45847656 4.80078125 13.21773437 5 14 C4.34 14 3.68 14 3 14 C-0.00559652 8.99067246 -0.29341888 5.67276511 0 0 Z " fill="#2C5991" transform="translate(183,126)"/>
<path d="M0 0 C2.0625 1.3125 2.0625 1.3125 6.0625 5.3125 C1.7725 4.3225 -2.5175 3.3325 -6.9375 2.3125 C-4.65439263 0.02939263 -3.20538225 -1.1373937 0 0 Z " fill="#D7EBF8" transform="translate(758.9375,92.6875)"/>
<path d="M0 0 C1.485 0.99 1.485 0.99 3 2 C3 2.66 3 3.32 3 4 C3.66 4 4.32 4 5 4 C5 7.63 5 11.26 5 15 C4.01 15.495 4.01 15.495 3 16 C2.93941406 15.39671875 2.87882813 14.7934375 2.81640625 14.171875 C2.73261719 13.37265625 2.64882813 12.5734375 2.5625 11.75 C2.48128906 10.96109375 2.40007813 10.1721875 2.31640625 9.359375 C1.87714355 6.08388521 1.04474091 3.13422272 0 0 Z " fill="#03428B" transform="translate(722,50)"/>
<path d="M0 0 C2.3129482 2.3129482 2.49580975 3.47904875 3.125 6.625 C3.29257813 7.44226562 3.46015625 8.25953125 3.6328125 9.1015625 C3.81457031 10.04128906 3.81457031 10.04128906 4 11 C2.35 11 0.7 11 -1 11 C-0.67 7.37 -0.34 3.74 0 0 Z " fill="#205495" transform="translate(155,40)"/>
<path d="M0 0 C0.33 0 0.66 0 1 0 C1.3152595 5.98993047 0.68219822 9.63560356 -2 15 C-2.66 15 -3.32 15 -4 15 C-3.79503906 14.25234375 -3.59007812 13.5046875 -3.37890625 12.734375 C-3.10949219 11.74953125 -2.84007812 10.7646875 -2.5625 9.75 C-2.29566406 8.77546875 -2.02882812 7.8009375 -1.75390625 6.796875 C-1.14455416 4.53627347 -0.55761745 2.27377991 0 0 Z " fill="#25568D" transform="translate(53,30)"/>
<path d="M0 0 C1.3805087 3.76668598 0.59568159 6.44789173 -0.4375 10.25 C-0.72496094 11.32765625 -1.01242188 12.4053125 -1.30859375 13.515625 C-1.53675781 14.33546875 -1.76492188 15.1553125 -2 16 C-2.66 15.67 -3.32 15.34 -4 15 C-2.9318153 9.88634986 -1.76892524 4.92772031 0 0 Z " fill="#21558E" transform="translate(17,144)"/>
<path d="M0 0 C0.33 0 0.66 0 1 0 C1.33 2.31 1.66 4.62 2 7 C2.66 7 3.32 7 4 7 C3.67 7.99 3.34 8.98 3 10 C1.35 9.67 -0.3 9.34 -2 9 C-1.34 6.03 -0.68 3.06 0 0 Z " fill="#185899" transform="translate(20,134)"/>
<path d="M0 0 C0.66 0.33 1.32 0.66 2 1 C2.484375 3.21484375 2.484375 3.21484375 2.75 5.9375 C2.84796875 6.83339844 2.9459375 7.72929688 3.046875 8.65234375 C3 11 3 11 1 13 C-1.42857143 4.57142857 -1.42857143 4.57142857 0 0 Z " fill="#265796" transform="translate(114,107)"/>
<path d="M0 0 C3 3 3 3 3.25 5.375 C3.00241566 7.97463558 2.58165402 10.45526367 2 13 C1.34 13 0.68 13 0 13 C0 8.71 0 4.42 0 0 Z " fill="#E2FBFB" transform="translate(482,99)"/>
<path d="M0 0 C2.09715785 3.14573677 2.52004559 5.01456251 3.125 8.6875 C3.29257813 9.68136719 3.46015625 10.67523438 3.6328125 11.69921875 C3.75398438 12.45847656 3.87515625 13.21773437 4 14 C3.34 14 2.68 14 2 14 C-0.3992233 9.35150485 -0.19957409 5.08913926 0 0 Z " fill="#CEE7F7" transform="translate(107,88)"/>
<path d="M0 0 C1.10370043 3.3111013 0.92673641 5.24748949 0.5625 8.6875 C0.40974609 10.17830078 0.40974609 10.17830078 0.25390625 11.69921875 C0.12822266 12.83810547 0.12822266 12.83810547 0 14 C-0.99 14 -1.98 14 -3 14 C-2.69147815 12.041036 -2.3780582 10.08284287 -2.0625 8.125 C-1.88847656 7.03445312 -1.71445312 5.94390625 -1.53515625 4.8203125 C-1 2 -1 2 0 0 Z " fill="#43B1F8" transform="translate(286,50)"/>
<path d="M0 0 C0.99 0.33 1.98 0.66 3 1 C3.33 2.98 3.66 4.96 4 7 C2.68 7 1.36 7 0 7 C-0.66 5.35 -1.32 3.7 -2 2 C-1.34 1.34 -0.68 0.68 0 0 Z " fill="#104991" transform="translate(507,33)"/>
<path d="M0 0 C1.69433918 3.0469629 2.49467112 5.82821466 3.125 9.25 C3.29257813 10.14203125 3.46015625 11.0340625 3.6328125 11.953125 C3.75398437 12.62859375 3.87515625 13.3040625 4 14 C3.01 13.67 2.02 13.34 1 13 C-0.32229189 10.35541621 -0.09677194 8.32238699 -0.0625 5.375 C-0.05347656 4.37210938 -0.04445312 3.36921875 -0.03515625 2.3359375 C-0.02355469 1.56507813 -0.01195312 0.79421875 0 0 Z " fill="#D5E9F5" transform="translate(130,177)"/>
<path d="M0 0 C7.29411765 1.52941176 7.29411765 1.52941176 11 4 C11 4.66 11 5.32 11 6 C9.56068883 5.54738642 8.12361001 5.08767021 6.6875 4.625 C5.88699219 4.36976562 5.08648438 4.11453125 4.26171875 3.8515625 C2 3 2 3 -1 1 C-0.67 0.67 -0.34 0.34 0 0 Z " fill="#D4EAF8" transform="translate(767,97)"/>
<path d="M0 0 C0.66 0 1.32 0 2 0 C3.35439668 2.70879335 3.06501451 5.00933268 3 8 C1.68 8 0.36 8 -1 8 C-1.125 2.25 -1.125 2.25 0 0 Z " fill="#064CA5" transform="translate(537,85)"/>
<path d="M0 0 C0.33 0 0.66 0 1 0 C1 2.31 1 4.62 1 7 C1.66 7 2.32 7 3 7 C3 9.31 3 11.62 3 14 C-0.07478929 10.92521071 -0.90166318 7.47505223 -1.1875 3.1875 C-1 1 -1 1 0 0 Z " fill="#E9FAFE" transform="translate(151,18)"/>
<path d="M0 0 C3.40667322 0.44824648 5.07914607 1.05276405 8 3 C7.34 4.32 6.68 5.64 6 7 C3.56070254 5.07423885 1.19909405 3.19909405 -1 1 C-0.67 0.67 -0.34 0.34 0 0 Z " fill="#DDEEF8" transform="translate(773,10)"/>
<path d="M0 0 C0.66 0 1.32 0 2 0 C2.99 3.63 3.98 7.26 5 11 C4.34 11 3.68 11 3 11 C0.84694043 7.14243493 -0.39253254 4.44870215 0 0 Z " fill="#1E518A" transform="translate(198,176)"/>
<path d="M0 0 C2.64 0 5.28 0 8 0 C8.66 1.32 9.32 2.64 10 4 C5.66905042 4 3.72965139 3.03435531 0 1 C0 0.67 0 0.34 0 0 Z " fill="#D6EBF7" transform="translate(484,0)"/>
<path d="M0 0 C0.33 0 0.66 0 1 0 C2.19287411 3.87684087 3 6.91621923 3 11 C2.01 11 1.02 11 0 11 C-1.28571429 3.57142857 -1.28571429 3.57142857 0 0 Z " fill="#1A5095" transform="translate(135,186)"/>
<path d="M0 0 C0.66 0 1.32 0 2 0 C3.7265625 2.30078125 3.7265625 2.30078125 5.625 5.3125 C6.25664062 6.29863281 6.88828125 7.28476563 7.5390625 8.30078125 C9 11 9 11 9 14 C6.14015453 11.48367951 4.58531178 8.66114447 2.8125 5.3125 C2.28269531 4.31863281 1.75289063 3.32476562 1.20703125 2.30078125 C0.60955078 1.16189453 0.60955078 1.16189453 0 0 Z " fill="#1D4985" transform="translate(491,112)"/>
<path d="M0 0 C2.46301423 2.46301423 2.76766521 4.27360036 3.625 7.625 C3.88539063 8.62789062 4.14578125 9.63078125 4.4140625 10.6640625 C4.60742188 11.43492188 4.80078125 12.20578125 5 13 C1.17067834 9.66083151 1.17067834 9.66083151 0.390625 6.640625 C0.34421875 5.85171875 0.2978125 5.0628125 0.25 4.25 C0.19328125 3.45078125 0.1365625 2.6515625 0.078125 1.828125 C0.05234375 1.22484375 0.0265625 0.6215625 0 0 Z " fill="#24538B" transform="translate(178,112)"/>
<path d="M0 0 C0.99 0 1.98 0 3 0 C3.33 1.32 3.66 2.64 4 4 C4.66 4 5.32 4 6 4 C6.66 5.65 7.32 7.3 8 9 C6.140625 8.75390625 6.140625 8.75390625 4 8 C2.734375 6.15234375 2.734375 6.15234375 1.75 3.9375 C1.41484375 3.20402344 1.0796875 2.47054688 0.734375 1.71484375 C0.49203125 1.14894531 0.2496875 0.58304687 0 0 Z " fill="#DBF2F9" transform="translate(493,7)"/>
<path d="M0 0 C0 0.99 0 1.98 0 3 C-6.93 2.505 -6.93 2.505 -14 2 C-14 1.67 -14 1.34 -14 1 C-9.23692563 0.04738513 -4.8333472 -0.08333357 0 0 Z " fill="#61BBF7" transform="translate(352,0)"/>
<path d="M0 0 C0.33 0.99 0.66 1.98 1 3 C1.66 3 2.32 3 3 3 C3 3.99 3 4.98 3 6 C4.32 6.33 5.64 6.66 7 7 C6.34 8.32 5.68 9.64 5 11 C3.02 8.03 1.04 5.06 -1 2 C-0.67 1.34 -0.34 0.68 0 0 Z " fill="#1E5292" transform="translate(529,172)"/>
<path d="M0 0 C1.6045556 0.14148989 3.20863767 0.28835686 4.8125 0.4375 C5.70582031 0.51871094 6.59914063 0.59992188 7.51953125 0.68359375 C10 1 10 1 13 2 C12.67 2.99 12.34 3.98 12 5 C8.04 3.68 4.08 2.36 0 1 C0 0.67 0 0.34 0 0 Z " fill="#20528A" transform="translate(714,119)"/>
<path d="M0 0 C3.34373475 0.55728913 6.03312999 1.35173889 9 3 C8.67 4.32 8.34 5.64 8 7 C6.66382648 6.02471263 5.3311249 5.04466681 4 4.0625 C3.2575 3.51722656 2.515 2.97195312 1.75 2.41015625 C1.1725 1.94480469 0.595 1.47945313 0 1 C0 0.67 0 0.34 0 0 Z " fill="#CFE9F4" transform="translate(780,104)"/>
<path d="M0 0 C0.86625 0.556875 0.86625 0.556875 1.75 1.125 C1.42 2.445 1.09 3.765 0.75 5.125 C0.09 4.795 -0.57 4.465 -1.25 4.125 C-0.92 3.465 -0.59 2.805 -0.25 2.125 C-0.86875 2.475625 -1.4875 2.82625 -2.125 3.1875 C-2.82625 3.496875 -3.5275 3.80625 -4.25 4.125 C-4.91 3.795 -5.57 3.465 -6.25 3.125 C-6.25 2.465 -6.25 1.805 -6.25 1.125 C-2.80384615 -1.09038462 -2.80384615 -1.09038462 0 0 Z " fill="#53A7E0" transform="translate(320.25,8.875)"/>
<path d="M0 0 C0.33 0 0.66 0 1 0 C1.33 2.31 1.66 4.62 2 7 C0.02 7.99 0.02 7.99 -2 9 C-1.125 1.125 -1.125 1.125 0 0 Z " fill="#154A8B" transform="translate(42,67)"/>
<path d="M0 0 C0.99 0 1.98 0 3 0 C4.03039555 4.53374042 4.17766075 5.64467851 2 10 C1.34 6.7 0.68 3.4 0 0 Z " fill="#DDEDF7" transform="translate(162,58)"/>
<path d="M0 0 C1.32 0.66 2.64 1.32 4 2 C4 3.98 4 5.96 4 8 C3.34 7.01 2.68 6.02 2 5 C1.01 5.33 0.02 5.66 -1 6 C-1.33 4.68 -1.66 3.36 -2 2 C-1.34 2 -0.68 2 0 2 C0 1.34 0 0.68 0 0 Z " fill="#0C4B93" transform="translate(156,50)"/>
<path d="M0 0 C0.66 0 1.32 0 2 0 C1.67 1.65 1.34 3.3 1 5 C-1.31 5.33 -3.62 5.66 -6 6 C-4 4 -2 2 0 0 Z " fill="#DCF8FD" transform="translate(324,180)"/>
<path d="M0 0 C0.66 0 1.32 0 2 0 C0.64978174 4.41889613 -1.26115668 6.34345343 -5 9 C-3.125 4.25 -3.125 4.25 -2 2 C-1.34 2 -0.68 2 0 2 C0 1.34 0 0.68 0 0 Z " fill="#104682" transform="translate(790,169)"/>
<path d="M0 0 C0.99 0.33 1.98 0.66 3 1 C2.44855089 5.08072342 2.08669204 5.91330796 -1 9 C-0.67 6.03 -0.34 3.06 0 0 Z " fill="#09468D" transform="translate(18,143)"/>
<path d="M0 0 C3.08089673 2.77280706 4.68775452 5.06326356 6 9 C5.01 8.67 4.02 8.34 3 8 C3 7.34 3 6.68 3 6 C2.01 5.67 1.02 5.34 0 5 C0 3.35 0 1.7 0 0 Z " fill="#174E81" transform="translate(492,7)"/>
<path d="M0 0 C0.33 0 0.66 0 1 0 C1 2.64 1 5.28 1 8 C-0.98 8.99 -0.98 8.99 -3 10 C-2.01 6.7 -1.02 3.4 0 0 Z " fill="#D3F2FB" transform="translate(346,146)"/>
<path d="M0 0 C0.99 0 1.98 0 3 0 C3.625 2.375 3.625 2.375 4 5 C3.34 5.66 2.68 6.32 2 7 C1.34 6.67 0.68 6.34 0 6 C0 4.02 0 2.04 0 0 Z " fill="#0547A3" transform="translate(507,132)"/>
<path d="M0 0 C0.66 0.33 1.32 0.66 2 1 C1.25 6.75 1.25 6.75 -1 9 C-1.80967438 6.08517222 -2.21845993 4.53886783 -1.0625 1.6875 C-0.711875 1.130625 -0.36125 0.57375 0 0 Z " fill="#0C4385" transform="translate(86,118)"/>
<path d="M0 0 C2.2344598 4.03292745 2.54496743 7.44967434 3 12 C0.89366282 10.29171079 0.06198392 9.47851584 -0.29296875 6.73828125 C-0.25816406 5.93777344 -0.22335938 5.13726562 -0.1875 4.3125 C-0.16042969 3.50425781 -0.13335937 2.69601563 -0.10546875 1.86328125 C-0.07066406 1.24839844 -0.03585938 0.63351563 0 0 Z " fill="#D4EAF5" transform="translate(104,76)"/>
<path d="M0 0 C2.475 0.495 2.475 0.495 5 1 C5 1.99 5 2.98 5 4 C3.35 4 1.7 4 0 4 C0 2.68 0 1.36 0 0 Z " fill="#024CAB" transform="translate(773,179)"/>
<path d="M0 0 C2.72426311 2.35277269 3.8141763 4.62496331 5 8 C4.01 8.495 4.01 8.495 3 9 C3 8.34 3 7.68 3 7 C2.34 7 1.68 7 1 7 C0.67 4.69 0.34 2.38 0 0 Z " fill="#D0EAF7" transform="translate(522,164)"/>
<path d="M0 0 C3.96 1.98 3.96 1.98 8 4 C8 4.99 8 5.98 8 7 C6.68 6.34 5.36 5.68 4 5 C4 4.34 4 3.68 4 3 C2.68 2.67 1.36 2.34 0 2 C0 1.34 0 0.68 0 0 Z " fill="#1A4989" transform="translate(773,101)"/>
<path d="M0 0 C2.75 -0.25 2.75 -0.25 6 0 C8.375 2 8.375 2 10 4 C5.78087253 3.5205537 3.20336822 2.83374881 0 0 Z " fill="#154980" transform="translate(132,2)"/>
<path d="M0 0 C0.66 0.33 1.32 0.66 2 1 C1.67 2.98 1.34 4.96 1 7 C0.01 7 -0.98 7 -2 7 C-1.125 2.25 -1.125 2.25 0 0 Z " fill="#174B8D" transform="translate(3,190)"/>
<path d="M0 0 C1.32 0 2.64 0 4 0 C4 1.32 4 2.64 4 4 C2.35 3.67 0.7 3.34 -1 3 C-0.67 2.01 -0.34 1.02 0 0 Z " fill="#3FB1FA" transform="translate(309,183)"/>
<path d="M0 0 C1.65 0 3.3 0 5 0 C3.71937515 1.7074998 2.38232443 3.37373596 1 5 C0.34 5 -0.32 5 -1 5 C-0.67 3.35 -0.34 1.7 0 0 Z " fill="#5CAED6" transform="translate(325,175)"/>
<path d="M0 0 C0.33 0 0.66 0 1 0 C0.25 6.625 0.25 6.625 -2 10 C-2.66 10 -3.32 10 -4 10 C-2.66666667 6.66666667 -1.33333333 3.33333333 0 0 Z " fill="#CFEBF9" transform="translate(797,160)"/>
<path d="M0 0 C1.485 0.99 1.485 0.99 3 2 C3.66 2.33 4.32 2.66 5 3 C4.03114628 4.68496298 3.03013277 6.35178756 2 8 C1.67 8 1.34 8 1 8 C0.67 5.36 0.34 2.72 0 0 Z " fill="#1353A5" transform="translate(38,77)"/>
<path d="M0 0 C3 2 3 2 3.51171875 3.9453125 C3.67447917 5.96354167 3.83723958 7.98177083 4 10 C3.34 10 2.68 10 2 10 C0.68373308 6.38026598 0 3.90432869 0 0 Z " fill="#DCF2FC" transform="translate(166,70)"/>
<path d="M0 0 C0.99 0.33 1.98 0.66 3 1 C3.6875 3.0625 3.6875 3.0625 4 5 C3.01 5.33 2.02 5.66 1 6 C0.34 4.35 -0.32 2.7 -1 1 C-0.67 0.67 -0.34 0.34 0 0 Z " fill="#E0EFF8" transform="translate(512,35)"/>
<path d="M0 0 C4.52346473 2.26173236 5.05828666 3.53405933 7 8 C6.01 8.495 6.01 8.495 5 9 C3.35 6.03 1.7 3.06 0 0 Z " fill="#DBEFFB" transform="translate(505,27)"/>
<path d="M0 0 C0.66 0.33 1.32 0.66 2 1 C-0.97 3.475 -0.97 3.475 -4 6 C-4.66 5.67 -5.32 5.34 -6 5 C-6 4.34 -6 3.68 -6 3 C-4.68 3 -3.36 3 -2 3 C-2 2.34 -2 1.68 -2 1 C-1.34 0.67 -0.68 0.34 0 0 Z " fill="#5FADD1" transform="translate(322,180)"/>
<path d="M0 0 C0.66 0 1.32 0 2 0 C0.73058503 3.91402949 -0.51167694 5.79072873 -4 8 C-3.67 6.68 -3.34 5.36 -3 4 C-2.34 4 -1.68 4 -1 4 C-0.67 2.68 -0.34 1.36 0 0 Z " fill="#65A8D7" transform="translate(336,164)"/>
<path d="M0 0 C0.33 0 0.66 0 1 0 C2.25 6.625 2.25 6.625 0 10 C-0.19412181 8.52168779 -0.38012131 7.04230684 -0.5625 5.5625 C-0.66691406 4.73878906 -0.77132813 3.91507812 -0.87890625 3.06640625 C-0.91886719 2.38449219 -0.95882813 1.70257813 -1 1 C-0.67 0.67 -0.34 0.34 0 0 Z " fill="#024A8B" transform="translate(491,102)"/>
<path d="M0 0 C1.5625 1.25 1.5625 1.25 3 3 C2.6875 5.1875 2.6875 5.1875 2 7 C0.4375 5.75 0.4375 5.75 -1 4 C-0.6875 1.8125 -0.6875 1.8125 0 0 Z " fill="#094793" transform="translate(545,95)"/>
<path d="M0 0 C0.99 0 1.98 0 3 0 C3.99 1.98 4.98 3.96 6 6 C5.01 6 4.02 6 3 6 C3 5.34 3 4.68 3 4 C2.34 4 1.68 4 1 4 C0.67 2.68 0.34 1.36 0 0 Z " fill="#19528D" transform="translate(528,69)"/>
<path d="M0 0 C0.66 0 1.32 0 2 0 C1.34 2.64 0.68 5.28 0 8 C-0.66 8 -1.32 8 -2 8 C-1.125 1.125 -1.125 1.125 0 0 Z " fill="#D9F1FB" transform="translate(44,54)"/>
</svg>
