<?xml version="1.0" encoding="UTF-8"?>
<svg id="Layer_1" data-name="Layer 1" xmlns="http://www.w3.org/2000/svg" version="1.1" viewBox="0 0 1080 1080">
  <defs>
    <style>
      .cls-1 {
        fill: #231f20;
      }

      .cls-1, .cls-2, .cls-3 {
        stroke-width: 0px;
      }

      .cls-2 {
        fill: #fff;
      }

      .cls-3 {
        fill: #fbb040;
      }
    </style>
  </defs>
  <g>
    <g>
      <polygon class="cls-3" points="212.77 569.28 212.77 569.28 222.51 533.33 295.86 533.33 212.77 569.28"/>
      <polygon class="cls-3" points="670.9 522.63 670.9 522.63 687.16 470.12 809.48 470.12 670.9 522.63"/>
      <polygon class="cls-3" points="530.54 491.35 423.45 491.35 409.17 538.96 530.54 491.35"/>
      <path class="cls-2" d="M296.26,544.83l-36.49-97.53-37.37,97.53-9.85,25.19-26.35,69.11h-26.66l100.81-255.14,98.21,255.14h-26.95l-25.78-69.11-9.57-25.19Z"/>
      <path class="cls-2" d="M810.14,481.89l-60.87-162.65-62.32,162.65-16.41,42.01-43.96,115.24h-44.43l168.09-425.44,163.76,425.44h-44.94l-42.97-115.24-15.95-42.01Z"/>
      <path class="cls-2" d="M530.54,502.45l-52.92-141.4-54.17,141.4-14.28,36.51-38.2,100.18h-38.63l146.12-369.84,142.35,369.84h-39.06l-37.37-100.18-13.85-36.51Z"/>
      <g>
        <path class="cls-2" d="M189.3,745.31l-10.74,23.62h-12.64l45.02-98.3,45.05,98.3h-12.62l-10.76-23.62h-43.3ZM210.94,696.39l-16.75,38.17h33.52l-16.77-38.17Z"/>
        <path class="cls-2" d="M305.77,692.53c-3.51-5.88-8-8.89-15.13-8.89-7.52,0-15.77,5.13-15.77,13.38,0,7.4,7.26,11.27,13.13,13.52l6.76,2.63c13.38,5.24,23.39,12.62,23.39,28.4,0,17.12-13.26,29.39-30.15,29.39-15.26,0-27.14-11.26-29.14-26.39l11.88-2.51c-.1,10.4,8.15,17.88,18.28,17.88s17.39-8.5,17.39-18.37-8.12-14.53-16.26-17.89l-6.51-2.75c-10.75-4.64-20.5-10.77-20.5-23.91,0-15.24,13.5-24.38,27.76-24.38,10.5,0,19.13,5.14,24.26,14.26l-9.38,5.64Z"/>
        <path class="cls-2" d="M389.7,768.93h-14.24l-27.78-39.88h-4.88v39.88h-11.75v-94.29h14.25c8.38,0,17.39.11,24.89,4.38,7.87,4.61,12.38,13.5,12.38,22.51,0,13.5-9,24.76-22.65,26.4l29.77,41ZM342.79,719.28h3.75c12.01,0,25.03-2.26,25.03-17.24s-14.03-16.89-25.66-16.89h-3.12v34.13Z"/>
        <path class="cls-2" d="M410.34,768.93h-11.77v-94.29h11.77v94.29Z"/>
        <path class="cls-2" d="M477.51,745.31l-10.75,23.62h-12.63l45.03-98.3,45.02,98.3h-12.61l-10.76-23.62h-43.29ZM499.16,696.39l-16.77,38.17h33.53l-16.76-38.17Z"/>
        <path class="cls-2" d="M607.73,712.66v-38.01h11.77v94.29h-11.77v-45.26h-44.9v45.26h-11.75v-94.29h11.75v38.01h44.9Z"/>
        <path class="cls-2" d="M652.52,706.67h-.24l-11.02,62.27h-12.14l19.26-98.3,32.41,74.3,32.39-74.3,19.25,98.3h-12.12l-11-62.27h-.26l-28.26,64.29-28.27-64.29Z"/>
        <path class="cls-2" d="M756.33,745.31l-10.76,23.62h-12.63l45.03-98.3,45.06,98.3h-12.64l-10.77-23.62h-43.28ZM777.97,696.39l-16.75,38.17h33.53l-16.78-38.17Z"/>
        <path class="cls-2" d="M829.88,674.65h19.52c28.9,0,52.9,15.25,52.9,46.66s-23.5,47.63-53.27,47.63h-19.15v-94.29ZM841.64,758.18h4.13c24.03,0,44.78-9,44.78-36.39s-20.74-36.4-44.78-36.4h-4.13v72.79Z"/>
      </g>
      <rect class="cls-2" x="158.89" y="795.16" width="750.27" height="71.14"/>
      <g>
        <path class="cls-1" d="M214.39,841.99l-5.61,13.18h-5.67l21.44-48.64,20.87,48.64h-5.73l-5.46-13.18h-19.84ZM224.42,818.6l-7.95,18.59h15.71l-7.76-18.59Z"/>
        <path class="cls-1" d="M347.44,818.9c-3.68-3.81-8.81-6.15-14.17-6.15-10.34,0-18.71,8.98-18.71,19.21s8.45,19.21,18.84,19.21c5.24,0,10.36-2.46,14.05-6.16v6.41c-4,2.9-8.93,4.56-13.85,4.56-13.11,0-24.19-10.66-24.19-23.85s10.89-24.21,24.19-24.21c5.18,0,9.73,1.49,13.85,4.56v6.41Z"/>
        <path class="cls-1" d="M424.71,841.99l-5.6,13.18h-5.66l21.42-48.64,20.89,48.64h-5.73l-5.48-13.18h-19.84ZM434.75,818.6l-7.94,18.59h15.69l-7.75-18.59Z"/>
        <path class="cls-1" d="M522.38,808.73h8.74c6.95,0,12.63.93,18.1,5.61,5.3,4.56,7.7,10.78,7.7,17.69s-2.46,12.75-7.58,17.29c-5.53,4.93-11.08,5.85-18.34,5.85h-8.62v-46.44ZM531.3,850.38c5.67,0,10.41-.8,14.67-4.82,3.82-3.57,5.79-8.43,5.79-13.6s-2.04-10.41-6.04-13.92c-4.25-3.77-8.93-4.5-14.41-4.5h-3.76v36.85h3.76Z"/>
        <path class="cls-1" d="M625.7,808.73h24.08v4.81h-18.92v13.79h18.36v4.81h-18.36v18.24h18.92v4.79h-24.08v-46.44Z"/>
        <path class="cls-1" d="M726.19,806.09l16.88,39,16.93-39,9.42,49.08h-5.29l-5.97-31.4h-.12l-14.96,33.32-14.9-33.32h-.15l-5.96,31.4h-5.29l9.42-49.08Z"/>
        <path class="cls-1" d="M832.71,808.73h5.97l11.82,20.71,11.82-20.71h6l-15.23,26.48v19.96h-5.17v-19.96l-15.21-26.48Z"/>
      </g>
    </g>
    <g>
      <path class="cls-2" d="M894.97,652.28c1.56-.28,3.81-.5,5.9-.5,3.29,0,5.45.64,6.91,1.95,1.16,1.06,1.87,2.69,1.87,4.57,0,3.12-1.98,5.2-4.47,6.05v.1c1.8.64,2.9,2.34,3.48,4.82.77,3.32,1.33,5.62,1.84,6.54h-3.19c-.38-.7-.92-2.72-1.54-5.69-.71-3.3-2.02-4.53-4.83-4.64h-2.9v10.33h-3.07v-23.53ZM898.04,663.14h3.15c3.3,0,5.39-1.8,5.39-4.54,0-3.08-2.23-4.41-5.49-4.41-1.48,0-2.5.1-3.04.24v8.71Z"/>
      <path class="cls-2" d="M902.74,682.16c-10.12,0-18.37-8.24-18.37-18.37s8.25-18.37,18.37-18.37,18.36,8.25,18.36,18.37-8.25,18.37-18.36,18.37ZM902.74,646.75c-9.4,0-17.04,7.64-17.04,17.04s7.64,17.04,17.04,17.04,17.04-7.64,17.04-17.04-7.65-17.04-17.04-17.04Z"/>
    </g>
  </g>
  <g>
    <g>
      <polygon class="cls-3" points="-896.34 569.28 -896.34 569.28 -886.59 533.33 -813.25 533.33 -896.34 569.28"/>
      <polygon class="cls-3" points="-438.2 522.63 -438.2 522.63 -421.95 470.12 -299.63 470.12 -438.2 522.63"/>
      <polygon class="cls-3" points="-578.56 491.35 -685.65 491.35 -699.93 538.96 -578.56 491.35"/>
      <path class="cls-1" d="M-812.85,544.83l-36.49-97.53-37.37,97.53-9.85,25.19-26.35,69.11h-26.66l100.81-255.14,98.21,255.14h-26.95l-25.78-69.11-9.57-25.19Z"/>
      <path class="cls-1" d="M-298.96,481.89l-60.87-162.65-62.32,162.65-16.41,42.01-43.96,115.24h-44.43l168.09-425.44,163.76,425.44h-44.94l-42.97-115.24-15.95-42.01Z"/>
      <path class="cls-1" d="M-578.56,502.45l-52.92-141.4-54.17,141.4-14.28,36.51-38.2,100.18h-38.63l146.12-369.84,142.35,369.84h-39.06l-37.37-100.18-13.85-36.51Z"/>
      <g>
        <path class="cls-1" d="M-919.8,745.31l-10.74,23.62h-12.64l45.02-98.3,45.05,98.3h-12.62l-10.76-23.62h-43.3ZM-898.17,696.39l-16.75,38.17h33.52l-16.77-38.17Z"/>
        <path class="cls-1" d="M-803.34,692.53c-3.51-5.88-8-8.89-15.13-8.89-7.52,0-15.77,5.13-15.77,13.38,0,7.4,7.26,11.27,13.13,13.52l6.76,2.63c13.38,5.24,23.39,12.62,23.39,28.4,0,17.12-13.26,29.39-30.15,29.39-15.26,0-27.14-11.26-29.14-26.39l11.88-2.51c-.1,10.4,8.15,17.88,18.28,17.88s17.39-8.5,17.39-18.37-8.12-14.53-16.26-17.89l-6.51-2.75c-10.75-4.64-20.5-10.77-20.5-23.91,0-15.24,13.5-24.38,27.76-24.38,10.5,0,19.13,5.14,24.26,14.26l-9.38,5.64Z"/>
        <path class="cls-1" d="M-719.41,768.93h-14.24l-27.78-39.88h-4.88v39.88h-11.75v-94.29h14.25c8.38,0,17.39.11,24.89,4.38,7.87,4.61,12.38,13.5,12.38,22.51,0,13.5-9,24.76-22.65,26.4l29.77,41ZM-766.32,719.28h3.75c12.01,0,25.03-2.26,25.03-17.24s-14.03-16.89-25.66-16.89h-3.12v34.13Z"/>
        <path class="cls-1" d="M-698.76,768.93h-11.77v-94.29h11.77v94.29Z"/>
        <path class="cls-1" d="M-631.6,745.31l-10.75,23.62h-12.63l45.03-98.3,45.02,98.3h-12.61l-10.76-23.62h-43.29ZM-609.95,696.39l-16.77,38.17h33.53l-16.76-38.17Z"/>
        <path class="cls-1" d="M-501.38,712.66v-38.01h11.77v94.29h-11.77v-45.26h-44.9v45.26h-11.75v-94.29h11.75v38.01h44.9Z"/>
        <path class="cls-1" d="M-456.59,706.67h-.24l-11.02,62.27h-12.14l19.26-98.3,32.41,74.3,32.39-74.3,19.25,98.3h-12.12l-11-62.27h-.26l-28.26,64.29-28.27-64.29Z"/>
        <path class="cls-1" d="M-352.78,745.31l-10.76,23.62h-12.63l45.03-98.3,45.06,98.3h-12.64l-10.77-23.62h-43.28ZM-331.14,696.39l-16.75,38.17h33.53l-16.78-38.17Z"/>
        <path class="cls-1" d="M-279.22,674.65h19.52c28.9,0,52.9,15.25,52.9,46.66s-23.5,47.63-53.27,47.63h-19.15v-94.29ZM-267.47,758.18h4.13c24.03,0,44.78-9,44.78-36.39s-20.74-36.4-44.78-36.4h-4.13v72.79Z"/>
      </g>
      <rect class="cls-1" x="-950.21" y="795.16" width="750.27" height="71.14"/>
      <g>
        <path class="cls-2" d="M-894.72,841.99l-5.61,13.18h-5.67l21.44-48.64,20.87,48.64h-5.73l-5.46-13.18h-19.84ZM-884.68,818.6l-7.95,18.59h15.71l-7.76-18.59Z"/>
        <path class="cls-2" d="M-761.66,818.9c-3.68-3.81-8.81-6.15-14.17-6.15-10.34,0-18.71,8.98-18.71,19.21s8.45,19.21,18.84,19.21c5.24,0,10.36-2.46,14.05-6.16v6.41c-4,2.9-8.93,4.56-13.85,4.56-13.11,0-24.19-10.66-24.19-23.85s10.89-24.21,24.19-24.21c5.18,0,9.73,1.49,13.85,4.56v6.41Z"/>
        <path class="cls-2" d="M-684.39,841.99l-5.6,13.18h-5.66l21.42-48.64,20.89,48.64h-5.73l-5.48-13.18h-19.84ZM-674.35,818.6l-7.94,18.59h15.69l-7.75-18.59Z"/>
        <path class="cls-2" d="M-586.73,808.73h8.74c6.95,0,12.63.93,18.1,5.61,5.3,4.56,7.7,10.78,7.7,17.69s-2.46,12.75-7.58,17.29c-5.53,4.93-11.08,5.85-18.34,5.85h-8.62v-46.44ZM-577.81,850.38c5.67,0,10.41-.8,14.67-4.82,3.82-3.57,5.79-8.43,5.79-13.6s-2.04-10.41-6.04-13.92c-4.25-3.77-8.93-4.5-14.41-4.5h-3.76v36.85h3.76Z"/>
        <path class="cls-2" d="M-483.41,808.73h24.08v4.81h-18.92v13.79h18.36v4.81h-18.36v18.24h18.92v4.79h-24.08v-46.44Z"/>
        <path class="cls-2" d="M-382.92,806.09l16.88,39,16.93-39,9.42,49.08h-5.29l-5.97-31.4h-.12l-14.96,33.32-14.9-33.32h-.15l-5.96,31.4h-5.29l9.42-49.08Z"/>
        <path class="cls-2" d="M-276.4,808.73h5.97l11.82,20.71,11.82-20.71h6l-15.23,26.48v19.96h-5.17v-19.96l-15.21-26.48Z"/>
      </g>
    </g>
    <g>
      <path class="cls-1" d="M-214.13,652.28c1.56-.28,3.81-.5,5.9-.5,3.29,0,5.45.64,6.91,1.95,1.16,1.06,1.87,2.69,1.87,4.57,0,3.12-1.98,5.2-4.47,6.05v.1c1.8.64,2.9,2.34,3.48,4.82.77,3.32,1.33,5.62,1.84,6.54h-3.19c-.38-.7-.92-2.72-1.54-5.69-.71-3.3-2.02-4.53-4.83-4.64h-2.9v10.33h-3.07v-23.53ZM-211.07,663.14h3.15c3.3,0,5.39-1.8,5.39-4.54,0-3.08-2.23-4.41-5.49-4.41-1.48,0-2.5.1-3.04.24v8.71Z"/>
      <path class="cls-1" d="M-206.36,682.16c-10.12,0-18.37-8.24-18.37-18.37s8.25-18.37,18.37-18.37,18.36,8.25,18.36,18.37-8.25,18.37-18.36,18.37ZM-206.36,646.75c-9.4,0-17.04,7.64-17.04,17.04s7.64,17.04,17.04,17.04,17.04-7.64,17.04-17.04-7.65-17.04-17.04-17.04Z"/>
    </g>
  </g>
</svg>