<?xml version="1.0" encoding="UTF-8"?>
<svg version="1.1" xmlns="http://www.w3.org/2000/svg" width="1600" height="800">
<path d="M0 0 C528 0 1056 0 1600 0 C1600 264 1600 528 1600 800 C1072 800 544 800 0 800 C0 536 0 272 0 0 Z " fill="#F6F6F6" transform="translate(0,0)"/>
<path d="M0 0 C117.11538462 0 117.11538462 0 140 19 C140.65355469 19.49242187 141.30710938 19.98484375 141.98046875 20.4921875 C152.21756393 28.49203671 157.66811827 40.44898951 160 53 C161.84330494 69.21784963 160.84611286 83.94622852 150.5 97.125 C141.67033013 107.35373728 128.5133811 116.17306219 114.875 117.75 C113.59625 117.8325 112.3175 117.915 111 118 C111 118.66 111 119.32 111 120 C112.03898437 120.17015625 113.07796875 120.3403125 114.1484375 120.515625 C130.35035039 123.27952653 147.01171939 129.01013667 158 142 C168.14494353 156.86497443 171.25200747 173.58711911 168.65869141 191.3359375 C167.20846083 199.0166012 164.9554733 206.21918864 161 213 C160.34 213 159.68 213 159 213 C158.7215625 213.57234375 158.443125 214.1446875 158.15625 214.734375 C150.39743412 229.93746016 136.47773324 238.54070351 120.65625 243.90625 C114.83901611 245.64644817 108.95995863 246.86445722 103 248 C98.05 248.99 98.05 248.99 93 250 C62.02508422 251.29062149 31.00179206 251 0 251 C0 168.17 0 85.34 0 0 Z " fill="#FEC001" transform="translate(67,275)"/>
<path d="M0 0 C106.19662921 0 106.19662921 0 133 13 C133 13.66 133 14.32 133 15 C133.721875 15.226875 134.44375 15.45375 135.1875 15.6875 C140.8103536 18.31149835 145.34321822 24.01119461 149 29 C149 29.66 149 30.32 149 31 C149.66 31 150.32 31 151 31 C152.02226183 32.99072041 153.01778263 34.98934327 154 37 C154.42152344 37.85851562 154.84304688 38.71703125 155.27734375 39.6015625 C155.94443359 41.00535156 155.94443359 41.00535156 156.625 42.4375 C157.05039062 43.32308594 157.47578125 44.20867187 157.9140625 45.12109375 C162.66790103 57.7238959 161.723169 76.16803889 156.87109375 88.59375 C149.66186396 101.71785935 138.29736551 109.36858321 124.4453125 114.3359375 C122 115 122 115 118 115 C118 115.66 118 116.32 118 117 C116.02 117.33 114.04 117.66 112 118 C112 118.66 112 119.32 112 120 C112.95519531 120.17015625 113.91039062 120.3403125 114.89453125 120.515625 C124.40051396 122.29740441 133.3448039 124.52317443 142 129 C142 129.66 142 130.32 142 131 C142.72316406 131.24492187 143.44632813 131.48984375 144.19140625 131.7421875 C152.64346431 135.52739292 160.40355218 144.21387621 164.1796875 152.62890625 C171.09567261 170.77705695 170.87415046 188.85611554 164 207 C163.04048333 208.36275659 162.04559645 209.70211486 161 211 C160.58041016 212.16789062 160.58041016 212.16789062 160.15234375 213.359375 C158.60164998 216.9128292 156.18448801 219.46050558 153.5625 222.25 C153.07201172 222.79140625 152.58152344 223.3328125 152.07617188 223.890625 C149.75478705 226.39684343 148.29048913 227.90317029 145 229 C144.67 229.99 144.34 230.98 144 232 C106.38474121 261.40259396 37.37408269 251 0 251 C0 168.17 0 85.34 0 0 Z " fill="#FEC003" transform="translate(277,275)"/>
<path d="M0 0 C91.0299505 0 91.0299505 0 103.375 2.75 C104.18807617 2.92047852 105.00115234 3.09095703 105.83886719 3.26660156 C113.13954987 4.87269429 120.07242229 7.20144212 127 10 C127 10.66 127 11.32 127 12 C128.00546875 12.19980469 129.0109375 12.39960938 130.046875 12.60546875 C134.80971526 13.97124797 137.76639521 16.91560832 141.25 20.3125 C142.16652344 21.16618164 142.16652344 21.16618164 143.1015625 22.03710938 C146.31902837 25.09651197 149.02657766 27.96020427 151 32 C151 32.66 151 33.32 151 34 C151.66 34 152.32 34 153 34 C153.98916033 36.35039013 154.96636681 38.70466861 155.9375 41.0625 C156.21529297 41.71927734 156.49308594 42.37605469 156.77929688 43.05273438 C162.57008565 57.21574788 161.17252342 74.17933635 155.75 88.25 C153.50244767 93.37201837 150.99704424 97.09177896 147 101 C146.34 101 145.68 101 145 101 C145 101.66 145 102.32 145 103 C139.04617084 109.23734483 131.92012973 111.88445725 124 115 C122.96746094 115.41765625 121.93492187 115.8353125 120.87109375 116.265625 C118.58520116 117.18908659 116.29552883 118.10082972 114 119 C115.0621875 119.31453125 116.124375 119.6290625 117.21875 119.953125 C124.49362809 122.14324438 131.30614834 124.34880819 138 128 C139.11375 128.4125 140.2275 128.825 141.375 129.25 C152.94825401 134.27384435 159.99483805 144.46440895 165.19140625 155.5390625 C168.06389286 162.94924535 168.21477347 169.62687126 168.25 177.5 C168.2809375 179.18222656 168.2809375 179.18222656 168.3125 180.8984375 C168.36105305 191.41017297 166.2489656 200.79633717 162.125 210.4375 C161.65320313 211.57058594 161.18140625 212.70367187 160.6953125 213.87109375 C158.85659394 217.2646734 156.83181651 219.39944123 154 222 C153.35675781 222.66644531 152.71351563 223.33289063 152.05078125 224.01953125 C151.47714844 224.61121094 150.90351562 225.20289063 150.3125 225.8125 C149.73113281 226.41707031 149.14976562 227.02164063 148.55078125 227.64453125 C147 229 147 229 145 229 C145 229.66 145 230.32 145 231 C143.64453125 232.18359375 143.64453125 232.18359375 141.8125 233.4375 C141.22082031 233.84871094 140.62914062 234.25992188 140.01953125 234.68359375 C139.01986328 235.33521484 139.01986328 235.33521484 138 236 C137.29875 236.474375 136.5975 236.94875 135.875 237.4375 C131.8109635 239.64621549 127.55605067 241.06774205 123.1875 242.5625 C122.32318359 242.86607422 121.45886719 243.16964844 120.56835938 243.48242188 C82.65079699 256.61763783 38.33432433 251 0 251 C0 168.17 0 85.34 0 0 Z " fill="#FEC002" transform="translate(487,275)"/>
<path d="M0 0 C0.82371094 0.44601562 1.64742187 0.89203125 2.49609375 1.3515625 C8.63739489 5.0591271 14.75313103 10.50626205 18 17 C18.33 11.06 18.66 5.12 19 -1 C30.88 -1 42.76 -1 55 -1 C55 41.9 55 84.8 55 129 C43.12 129 31.24 129 19 129 C18.67 123.72 18.34 118.44 18 113 C16.47375 114.7325 14.9475 116.465 13.375 118.25 C7.92186522 124.44004489 2.79454295 127.97821259 -5 130.6875 C-6.175625 131.10386719 -7.35125 131.52023437 -8.5625 131.94921875 C-22.54394391 136.22309194 -37.69587168 134.89862886 -51 129 C-54.36403902 126.96614105 -57.14420339 124.681809 -60 122 C-60.80695313 121.401875 -61.61390625 120.80375 -62.4453125 120.1875 C-65.41324428 117.64615169 -67.48511165 114.79077984 -69.625 111.5625 C-70.0065625 111.00240234 -70.388125 110.44230469 -70.78125 109.86523438 C-71.87113096 108.2548413 -72.93612427 106.62769001 -74 105 C-74.53109375 104.23558594 -75.0621875 103.47117187 -75.609375 102.68359375 C-77.62611755 98.79173382 -78.5732463 94.73947634 -79.625 90.5 C-79.8415625 89.65824219 -80.058125 88.81648438 -80.28125 87.94921875 C-85.84201323 66.1523999 -84.75376564 40.40098976 -73.5625 20.5 C-71.05744735 16.45378387 -68.63481217 13.11555329 -65 10 C-64.29617188 9.35289062 -63.59234375 8.70578125 -62.8671875 8.0390625 C-46.67008605 -6.76818866 -19.65317986 -10.94094549 0 0 Z " fill="#213762" transform="translate(1143,396)"/>
<path d="M0 0 C13.53 0 27.06 0 41 0 C46.55745342 16.67236025 46.55745342 16.67236025 48.3125 24 C50.16812577 31.40406209 52.49947388 38.56198646 55.0625 45.75 C58.15800358 54.43371343 60.77933205 63.04793234 63 72 C63.73964872 74.81528793 64.49478645 77.62635359 65.25 80.4375 C65.83333333 82.625 66.41666667 84.8125 67 87 C69.82175588 76.51867928 69.82175588 76.51867928 72.5 66 C73.89751059 60.35736317 75.38988857 54.74278109 76.8984375 49.12890625 C77.68841601 46.18189931 78.46167443 43.23096084 79.2265625 40.27734375 C81.06742142 33.18266212 82.91306779 26.11538118 85.125 19.125 C87.0507229 12.83430518 88.52068333 6.41037223 90 0 C104.19 0 118.38 0 133 0 C133.99 4.29 134.98 8.58 136 13 C136.67495226 15.43230751 137.3758304 17.8578383 138.12109375 20.26953125 C138.4972583 21.49978027 138.87342285 22.7300293 139.26098633 23.99755859 C139.64923584 25.25648926 140.03748535 26.51541992 140.4375 27.8125 C143.59044384 38.15083609 146.51583912 48.48022012 149 59 C149.3471708 60.36276999 149.69755509 61.72472448 150.05078125 63.0859375 C152.09947814 71.00509903 153.83336195 78.89493563 155 87 C156.45626164 84.23161048 157.56578314 81.51389286 158.515625 78.53515625 C158.93352295 77.22720093 158.93352295 77.22720093 159.35986328 75.89282227 C159.6536084 74.95881592 159.94735352 74.02480957 160.25 73.0625 C160.71188721 71.60444946 160.71188721 71.60444946 161.18310547 70.11694336 C163.54812632 62.58839498 165.73619044 55.01762968 167.86572266 47.41967773 C169.66206702 41.05416101 171.70253225 34.81577653 173.84765625 28.55859375 C175.43116023 23.66851875 176.68643323 18.72122852 177.91015625 13.73046875 C179.27895572 9.04515157 181.18717941 4.53205147 183 0 C196.2 0 209.4 0 223 0 C220.75166869 10.1174909 220.75166869 10.1174909 219.1171875 14.72265625 C218.75850586 15.74383545 218.39982422 16.76501465 218.03027344 17.81713867 C217.6490332 18.88810791 217.26779297 19.95907715 216.875 21.0625 C216.06393725 23.37198636 215.2540686 25.68189237 214.4453125 27.9921875 C214.03700195 29.15717773 213.62869141 30.32216797 213.20800781 31.52246094 C211.34164363 36.89523609 209.5410743 42.28923917 207.75 47.6875 C207.4202417 48.68015869 207.0904834 49.67281738 206.75073242 50.69555664 C205.57079739 54.25147211 204.39377548 57.80834341 203.21826172 61.36572266 C202.75119979 62.77890869 202.2836239 64.19192502 201.81542969 65.60473633 C201.2439116 67.32973436 200.67457074 69.05545335 200.10546875 70.78125 C199.06326084 73.8158059 197.95814493 76.81618591 196.82348633 79.81689453 C192.0311559 92.52161397 187.48159005 105.30446563 183.25878906 118.2097168 C182.9903418 119.02867432 182.72189453 119.84763184 182.4453125 120.69140625 C182.21344238 121.40498291 181.98157227 122.11855957 181.74267578 122.85375977 C180.90831003 125.26497256 179.94760048 127.63099881 179 130 C165.8 130 152.6 130 139 130 C137.08593362 124.89582298 135.35949653 120.0629271 133.87890625 114.859375 C133.59985695 113.88692841 133.59985695 113.88692841 133.31517029 112.89483643 C132.72787256 110.84742162 132.14473354 108.79886018 131.5625 106.75 C130.79607623 104.05639286 130.02701078 101.36357263 129.25390625 98.671875 C129.06620667 98.01787216 128.87850708 97.36386932 128.68511963 96.69004822 C127.48884886 92.56535649 126.18476064 88.49098414 124.80078125 84.42578125 C123.44987622 80.44969664 122.37001028 76.57824554 121.625 72.4375 C120.45776906 66.60779411 118.80231998 61.08003384 116.9375 55.4375 C114.48025365 47.97757511 112.81598636 40.83628282 112 33 C111.34 33 110.68 33 110 33 C110.05929687 34.09054687 110.11859375 35.18109375 110.1796875 36.3046875 C110.17725169 41.83641973 108.65634664 46.84719599 107.125 52.125 C106.85558594 53.08792969 106.58617187 54.05085938 106.30859375 55.04296875 C105.2636962 58.74853227 104.20302195 62.42057239 102.9296875 66.0546875 C102.13155082 68.58323814 101.61447808 70.94669113 101.140625 73.546875 C99.90871462 79.9652719 97.8161271 86.05975644 95.75 92.25 C92.45771077 102.26847867 89.42276761 112.30540017 86.76464844 122.51074219 C86.54325195 123.35668945 86.32185547 124.20263672 86.09375 125.07421875 C85.90490234 125.81244873 85.71605469 126.55067871 85.52148438 127.3112793 C85 129 85 129 84 130 C81.04294679 130.08868299 78.10934944 130.11520296 75.15234375 130.09765625 C73.82270348 130.09553383 73.82270348 130.09553383 72.46620178 130.09336853 C69.62326746 130.08775215 66.78041069 130.07519691 63.9375 130.0625 C62.01497509 130.05748711 60.09244896 130.05292384 58.16992188 130.04882812 C53.44658451 130.03777741 48.72330542 130.02050183 44 130 C43.03546228 127.4578821 42.07362329 124.91479642 41.11328125 122.37109375 C40.84229614 121.65771851 40.57131104 120.94434326 40.29211426 120.20935059 C38.77906552 116.19488134 37.38882535 112.18410484 36.1875 108.0625 C34.25234396 101.55260269 31.94460732 95.19439034 29.625 88.8125 C26.15685608 79.2664427 22.8261012 69.69155054 19.66748047 60.0390625 C18.55751336 56.64826319 17.43589194 53.26137039 16.3125 49.875 C15.93738281 48.73804688 15.56226563 47.60109375 15.17578125 46.4296875 C14.1056393 43.30814387 12.95622339 40.22477852 11.79420471 37.13665771 C10.58424994 33.88150301 9.4384521 30.60521681 8.30078125 27.32421875 C8.0608696 26.63237991 7.82095795 25.94054108 7.57377625 25.22773743 C7.07319196 23.7818514 6.57326363 22.33573811 6.07397461 20.8894043 C5.56298557 19.41181207 5.0499374 17.93493045 4.53491211 16.45874023 C3.78572341 14.31125568 3.04257161 12.16176835 2.30078125 10.01171875 C2.06958084 9.3523381 1.83838043 8.69295746 1.60017395 8.01359558 C0.63585198 5.19858171 0 3.00072637 0 0 Z " fill="#223863" transform="translate(672,395)"/>
<path d="M0 0 C12.21 0 24.42 0 37 0 C37.0226357 11.18795409 37.04096407 22.37589285 37.05181217 33.56386471 C37.05701997 38.75946342 37.06407928 43.95504558 37.07543945 49.15063477 C37.08634325 54.16918156 37.09229267 59.18771249 37.09487724 64.20627022 C37.09671802 66.11631075 37.10031252 68.02635046 37.10573006 69.9363842 C37.11304002 72.62158935 37.11398677 75.30672978 37.11352539 77.99194336 C37.11712067 78.77310013 37.12071594 79.5542569 37.12442017 80.35908508 C37.11466612 85.64106075 36.65628412 90.75803649 36 96 C36.41507813 95.46632813 36.83015625 94.93265625 37.2578125 94.3828125 C47.05808647 82.53227201 60.14463209 73.27235879 75.76269531 71.7265625 C91.34911278 70.71016749 106.81869275 71.35879629 119.140625 82.12890625 C129.87520884 92.93114503 132.09893314 105.38295378 132.12442017 120.14610291 C132.12082489 120.97976883 132.11722961 121.81343475 132.11352539 122.67236328 C132.11367142 123.58090561 132.11381744 124.48944794 132.1139679 125.42552185 C132.11327832 128.39047745 132.10553126 131.35536805 132.09765625 134.3203125 C132.09578867 136.39110276 132.09436637 138.46189346 132.09336853 140.53268433 C132.08957014 145.95443973 132.079763 151.37616788 132.06866455 156.7979126 C132.05839257 162.34183382 132.05385856 167.88575949 132.04882812 173.4296875 C132.03813808 184.28647216 132.02056326 195.14322954 132 206 C119.46 206 106.92 206 94 206 C93.96261719 200.29203125 93.92523437 194.5840625 93.88671875 188.703125 C93.8564087 185.06637724 93.82524103 181.42967664 93.79101562 177.79296875 C93.73688627 172.03274034 93.68576948 166.27260519 93.65356445 160.51220703 C93.6273722 155.86305629 93.58685975 151.21422243 93.53681374 146.56526947 C93.52025192 144.80009685 93.50867163 143.03486956 93.50238609 141.26963043 C93.92398849 122.94293883 93.92398849 122.94293883 85.7109375 107.3359375 C79.10594297 102.178613 71.07839637 102.02051776 63 103 C55.35582765 105.06227671 48.57247605 108.35841467 44 115 C42.36394706 118.25203162 41.08222529 121.52640594 40 125 C39.82424942 125.55294739 39.64849884 126.10589478 39.46742249 126.67559814 C38.80920499 129.94878677 38.82180184 133.19701652 38.79467773 136.52246094 C38.78477814 137.27406998 38.77487854 138.02567902 38.76467896 138.80006409 C38.73315534 141.27813596 38.70834277 143.75622698 38.68359375 146.234375 C38.66301633 147.95502209 38.64201964 149.6756642 38.62062073 151.39630127 C38.56548149 155.92047092 38.51603633 160.44468557 38.46777344 164.96893311 C38.40865642 170.39971326 38.34247333 175.83041134 38.27747345 181.26112366 C38.17956645 189.50736555 38.09064031 197.7536606 38 206 C25.46 206 12.92 206 0 206 C0 138.02 0 70.04 0 0 Z " fill="#223863" transform="translate(1401,319)"/>
<path d="M0 0 C2.44840952 1.16659513 3.92491321 2.55537524 5.8046875 4.51171875 C6.495625 5.2284375 7.1865625 5.94515625 7.8984375 6.68359375 C10.47343818 9.46997509 12.98546259 12.30238887 15.44921875 15.1875 C16.96518189 16.9742594 16.96518189 16.9742594 18.69140625 18.5546875 C19.9921875 19.94921875 19.9921875 19.94921875 19.9921875 21.94921875 C20.55035156 22.18125 21.10851563 22.41328125 21.68359375 22.65234375 C28.4633894 26.46095992 34.34049214 33.74695828 38.9921875 39.94921875 C38.9921875 40.60921875 38.9921875 41.26921875 38.9921875 41.94921875 C38.38890625 42.07039063 37.785625 42.1915625 37.1640625 42.31640625 C36.36484375 42.48398437 35.565625 42.6515625 34.7421875 42.82421875 C33.95328125 42.98664063 33.164375 43.1490625 32.3515625 43.31640625 C29.97403716 43.95408689 28.07325015 44.63244017 25.9921875 45.94921875 C25.08552886 48.66919468 24.86519865 50.24270189 24.85910892 53.03694725 C24.85274736 54.29007904 24.85274736 54.29007904 24.84625727 55.56852663 C24.8466434 56.48631415 24.84702953 57.40410167 24.84742737 58.34970093 C24.84390052 59.32470539 24.84037368 60.29970985 24.83673996 61.3042599 C24.82602679 64.58614545 24.82236745 67.868002 24.81860352 71.14990234 C24.81230031 73.49688338 24.80553477 75.84386321 24.79833984 78.19084167 C24.78365452 83.25236131 24.77193607 88.31387627 24.76239204 93.37540817 C24.74826878 100.69900896 24.72733346 108.02257878 24.70396351 115.34615476 C24.66604037 127.23499347 24.63107654 139.12383842 24.59936523 151.01269531 C24.5965145 152.08031862 24.5965145 152.08031862 24.59360617 153.16951008 C24.56677564 163.269676 24.54290113 173.36984677 24.52022117 183.47002275 C24.51862387 184.18116524 24.51702656 184.89230774 24.51538086 185.625 C24.51299066 186.69041514 24.51299066 186.69041514 24.51055218 187.77735381 C24.48378802 199.61889835 24.44939049 211.46040608 24.40872711 223.301911 C24.38174137 231.25781039 24.36403436 239.21367557 24.35268986 247.16961265 C24.34357804 252.1159758 24.32622297 257.06228429 24.30651093 262.00861549 C24.29902376 264.30601583 24.29495367 266.60343017 24.29451561 268.90084267 C24.29343621 272.03226054 24.28021629 275.16339902 24.26393127 278.29476929 C24.26785656 279.6647584 24.26785656 279.6647584 24.27186114 281.06242406 C24.22881276 286.34628028 24.10019142 290.6935809 20.31542969 294.7434082 C17.05996564 296.4330611 14.47585036 296.28713264 10.8203125 296.2421875 C10.1378949 296.23794266 9.45547729 296.23369781 8.75238037 296.22932434 C6.58190746 296.21258847 4.41237771 296.17494834 2.2421875 296.13671875 C0.76694053 296.12166521 -0.70832105 296.10797797 -2.18359375 296.09570312 C-5.79197094 296.06270252 -9.3997996 296.01095642 -13.0078125 295.94921875 C-13.0078125 295.28921875 -13.0078125 294.62921875 -13.0078125 293.94921875 C-13.7503125 294.05234375 -14.4928125 294.15546875 -15.2578125 294.26171875 C-18.0078125 293.94921875 -18.0078125 293.94921875 -20.2578125 292.01171875 C-23.92797307 285.58893776 -23.15579964 277.39932296 -23.15257263 270.16215515 C-23.15609948 269.21807055 -23.15962632 268.27398594 -23.16326004 267.30129272 C-23.17387486 264.16008522 -23.17761525 261.01890812 -23.18139648 257.87768555 C-23.18770699 255.61686578 -23.19447334 253.35604725 -23.20166016 251.0952301 C-23.21629043 246.23843837 -23.22803078 241.38165132 -23.23760796 236.52484703 C-23.25309031 228.84847653 -23.2770364 221.17214685 -23.30250549 213.49580383 C-23.3375681 202.73833788 -23.37067638 191.98086994 -23.40063477 181.22338867 C-23.40253526 180.54168603 -23.40443575 179.85998339 -23.40639383 179.15762309 C-23.4332629 169.4696049 -23.45713384 159.78158162 -23.47977883 150.09355275 C-23.48137613 149.41033415 -23.48297344 148.72711555 -23.48461914 148.02319336 C-23.48700934 146.99961907 -23.48700934 146.99961907 -23.48944782 145.95536651 C-23.51620274 134.58259006 -23.55070551 123.20985636 -23.59127289 111.8371194 C-23.61807914 104.20206916 -23.63596267 96.56706571 -23.64731014 88.93197763 C-23.65641582 84.19106858 -23.67376677 79.45021671 -23.69348907 74.70934105 C-23.70098084 72.50665686 -23.70504661 70.30395803 -23.70548439 68.10126114 C-23.70656243 65.10118125 -23.71976956 62.1013942 -23.73606873 59.10136414 C-23.73345187 58.22423647 -23.73083502 57.34710881 -23.72813886 56.44340152 C-23.73841205 55.23800919 -23.73841205 55.23800919 -23.74889278 54.0082655 C-23.75062903 53.31597762 -23.75236528 52.62368975 -23.75415415 51.91042346 C-24.05894744 49.55385988 -24.75872324 47.96416453 -26.0078125 45.94921875 C-28.23096631 44.85214962 -28.23096631 44.85214962 -30.8203125 44.26171875 C-31.67238281 44.03097656 -32.52445313 43.80023438 -33.40234375 43.5625 C-35.92873093 42.96783315 -38.45913527 42.43882102 -41.0078125 41.94921875 C-39.57219564 38.76214933 -37.80514921 36.3275277 -35.5078125 33.69921875 C-34.899375 32.9928125 -34.2909375 32.28640625 -33.6640625 31.55859375 C-32.0078125 29.94921875 -32.0078125 29.94921875 -30.0078125 29.94921875 C-30.0078125 29.28921875 -30.0078125 28.62921875 -30.0078125 27.94921875 C-29.3478125 27.94921875 -28.6878125 27.94921875 -28.0078125 27.94921875 C-28.0078125 27.28921875 -28.0078125 26.62921875 -28.0078125 25.94921875 C-27.3478125 25.94921875 -26.6878125 25.94921875 -26.0078125 25.94921875 C-25.76675781 25.38074219 -25.52570313 24.81226563 -25.27734375 24.2265625 C-23.75813162 21.50132967 -21.93362269 19.68231536 -19.6953125 17.51171875 C-18.88578125 16.72023437 -18.07625 15.92875 -17.2421875 15.11328125 C-16.13617187 14.04207031 -16.13617187 14.04207031 -15.0078125 12.94921875 C-14.1621875 12.10359375 -13.3165625 11.25796875 -12.4453125 10.38671875 C-11.6409375 9.58234375 -10.8365625 8.77796875 -10.0078125 7.94921875 C-9.04875 6.90314453 -9.04875 6.90314453 -8.0703125 5.8359375 C-7.0184375 4.71638672 -7.0184375 4.71638672 -5.9453125 3.57421875 C-5.29433594 2.86523438 -4.64335938 2.15625 -3.97265625 1.42578125 C-2.0078125 -0.05078125 -2.0078125 -0.05078125 0 0 Z " fill="#FDC004" transform="translate(1250.0078125,228.05078125)"/>
<path d="M0 0 C8.36122804 7.1057884 14.59917004 15.54140028 18.2890625 25.8984375 C18.66160156 26.90648437 19.03414062 27.91453125 19.41796875 28.953125 C23.47333491 41.64204071 22.2890625 50.37842428 22.2890625 64.8984375 C-10.0509375 64.8984375 -42.3909375 64.8984375 -75.7109375 64.8984375 C-70.39278902 80.9770135 -70.39278902 80.9770135 -58.11328125 89.98828125 C-47.39712071 94.048225 -36.00043966 92.43838578 -25.7109375 87.8984375 C-20.43065287 85.11428742 -17.91290844 81.79556953 -14.7109375 76.8984375 C-9.96733413 77.94336647 -5.82630928 80.07000933 -1.4609375 82.1484375 C-0.63980469 82.53128906 0.18132812 82.91414063 1.02734375 83.30859375 C6.35821379 85.83463201 11.36257258 88.65399688 16.2890625 91.8984375 C14.1969174 96.56927308 11.58327887 100.19522267 8.1015625 103.8984375 C7.61107422 104.4238916 7.12058594 104.9493457 6.61523438 105.49072266 C2.81803767 109.48522468 -1.04230035 112.94044602 -5.7109375 115.8984375 C-6.44828125 116.40890625 -7.185625 116.919375 -7.9453125 117.4453125 C-23.19948349 127.01469927 -45.26019396 128.33000038 -62.5859375 124.7109375 C-64.63889057 124.14631036 -66.68133506 123.54196998 -68.7109375 122.8984375 C-69.78730469 122.56972656 -70.86367188 122.24101563 -71.97265625 121.90234375 C-86.94672188 116.7810361 -98.60014173 106.51456029 -105.67456055 92.36572266 C-114.43821539 74.04961362 -116.83336785 50.11769958 -110.1484375 30.7109375 C-107.56683355 23.90940402 -104.12979207 17.68596384 -99.7109375 11.8984375 C-99.19015625 11.1971875 -98.669375 10.4959375 -98.1328125 9.7734375 C-88.89219076 -1.71005359 -74.68428744 -10.76666524 -59.98242188 -12.87011719 C-38.25962587 -15.08348892 -17.70463895 -13.72492183 0 0 Z " fill="#213862" transform="translate(1017.7109375,404.1015625)"/>
<path d="M0 0 C12.21 0 24.42 0 37 0 C37 14.19 37 28.38 37 43 C42.94 43 48.88 43 55 43 C55 52.57 55 62.14 55 72 C49.06 72 43.12 72 37 72 C37 105 37 138 37 172 C24.79 172 12.58 172 0 172 C0 139 0 106 0 72 C-5.94 72 -11.88 72 -18 72 C-18 62.43 -18 52.86 -18 43 C-12.06 43 -6.12 43 0 43 C0 28.81 0 14.62 0 0 Z " fill="#1F3561" transform="translate(1322,352)"/>
<path d="M0 0 C7.73273433 4.79549416 12.78416101 13.29853183 15 22 C15.33046579 25.58686174 15.37013463 29.1496278 15.375 32.75 C15.39949219 33.6884375 15.42398437 34.626875 15.44921875 35.59375 C15.49199334 45.91668554 11.71964732 55.14485672 5 63 C-2.20698503 69.22845042 -11.75213038 71.64446468 -21.125 71.3515625 C-27.60019556 70.5597587 -33.70679138 68.79468501 -38.875 64.75 C-39.57625 63.8425 -40.2775 62.935 -41 62 C-41.48855469 61.45859375 -41.97710938 60.9171875 -42.48046875 60.359375 C-50.14946761 51.34593436 -51.80538401 40.19644152 -51.31640625 28.73046875 C-50.4825255 18.8989117 -46.65427728 8.9073227 -39.1875 2.125 C-27.25446557 -5.83035628 -12.93244322 -6.94359367 0 0 Z " fill="#F3F4F5" transform="translate(1149,426)"/>
<path d="M0 0 C39.89119171 0 39.89119171 0 48.0625 4.875 C48.91972656 5.36742187 49.77695312 5.85984375 50.66015625 6.3671875 C54.52201852 9.06210975 57.17421353 11.79761968 59.1875 16.0625 C59.51105469 16.73410156 59.83460938 17.40570313 60.16796875 18.09765625 C62.25442149 22.86809045 62.21860321 27.00732263 62.25 32.125 C62.270625 32.94226563 62.29125 33.75953125 62.3125 34.6015625 C62.36263951 42.52360561 60.56384061 50.00165626 55.640625 56.36328125 C50.0696226 61.92101936 43.78383042 64.71170998 36 65 C36 65.66 36 66.32 36 67 C24.22849304 69.35430139 12.00462874 68 0 68 C0 45.56 0 23.12 0 0 Z " fill="#F7F6F5" transform="translate(540,417)"/>
<path d="M0 0 C5.61 -0.061875 11.22 -0.12375 17 -0.1875 C18.75441406 -0.21481201 20.50882812 -0.24212402 22.31640625 -0.27026367 C23.73176387 -0.27903851 25.14712915 -0.28668008 26.5625 -0.29296875 C27.27728516 -0.30831665 27.99207031 -0.32366455 28.72851562 -0.33947754 C34.0524073 -0.34219751 38.1316941 0.93375902 43 3 C44.99640639 3.67735217 46.99504414 4.34838935 49 5 C49 5.66 49 6.32 49 7 C49.59683594 7.26683594 50.19367188 7.53367187 50.80859375 7.80859375 C55.59065366 10.40846589 58.85516984 14.94057421 60.875 19.9375 C63.47169098 29.01814392 63.40587922 40.22278229 59.34765625 48.8046875 C57.02557531 52.5873237 54.33641714 56.05803612 51 59 C50.34 59 49.68 59 49 59 C49 59.66 49 60.32 49 61 C33.93809882 69.68955837 16.92549744 67 0 67 C0 44.89 0 22.78 0 0 Z " fill="#F7F6F4" transform="translate(331,417)"/>
<path d="M0 0 C43.19008264 0 43.19008264 0 54.08203125 9.890625 C61.50668267 17.83109431 62.48072809 24.69685589 62.21484375 35.44921875 C61.67209909 44.41930769 58.7067863 52.47684602 52.09765625 58.828125 C36.80426663 70.10593187 17.8543539 67 0 67 C0 44.89 0 22.78 0 0 Z " fill="#F7F6F2" transform="translate(121,417)"/>
<path d="M0 0 C9.57 0 19.14 0 29 0 C29.33 0.33 29.66 0.66 30 1 C31.53529607 1.32352982 33.07874517 1.60872651 34.625 1.875 C43.49295087 3.61579263 49.95039685 7.06513476 55.6796875 14.046875 C57.65118688 18.45650084 57.43467744 22.60080455 57.375 27.375 C57.38660156 28.29539062 57.39820313 29.21578125 57.41015625 30.1640625 C57.37006544 39.51858492 54.57185966 45.18861302 48.1640625 52.05078125 C36.36178598 62.68135162 12.97349198 59 0 59 C0 39.53 0 20.06 0 0 Z " fill="#F7F6F6" transform="translate(330,316)"/>
<path d="M0 0 C28.20382166 0 28.20382166 0 36 2 C36.78890625 2.17144531 37.5778125 2.34289062 38.390625 2.51953125 C44.82260528 4.21503625 49.75062865 7.91440698 54 13 C56.880611 18.36367161 57.54984818 22.85848159 57.5 28.8125 C57.49427979 29.60495117 57.48855957 30.39740234 57.48266602 31.21386719 C57.22897644 39.55401862 54.81547331 45.59824481 48.75 51.4375 C44.81614311 54.44076709 40.77698473 55.85504017 36 57 C35.20851563 57.20496094 34.41703125 57.40992188 33.6015625 57.62109375 C22.37541499 60.00788464 11.72052312 59 0 59 C0 39.53 0 20.06 0 0 Z " fill="#F7F6F4" transform="translate(540,316)"/>
<path d="M0 0 C40.08759352 0 40.08759352 0 51.4921875 10.25390625 C53.9928011 13.14969453 55.03819515 16.34514157 56 20 C56.18175781 20.62390625 56.36351562 21.2478125 56.55078125 21.890625 C58.54910297 31.27404871 56.81084507 39.70735903 51.90234375 47.8125 C47.40289765 53.91344386 40.14361336 56.39884528 33 58 C22.04956662 59.09504334 11.00504935 59 0 59 C0 39.53 0 20.06 0 0 Z " fill="#F7F6F5" transform="translate(121,316)"/>
<path d="M0 0 C7.04766794 5.80647946 8.62042427 9.64631846 9.6875 19.25 C-9.4525 19.25 -28.5925 19.25 -48.3125 19.25 C-47.19082908 9.1549617 -45.07179733 5.06102568 -37.57421875 -1.203125 C-26.59164765 -8.71452078 -10.63990112 -7.45191576 0 0 Z " fill="#F1F2F4" transform="translate(992.3125,426.75)"/>
<path d="M0 0 C90.66990291 0 90.66990291 0 105 3 C105 3.33 105 3.66 105 4 C101.93744039 4.0270491 98.8751214 4.04686298 95.8125 4.0625 C94.51602539 4.07506836 94.51602539 4.07506836 93.19335938 4.08789062 C92.35224609 4.09111328 91.51113281 4.09433594 90.64453125 4.09765625 C89.48981323 4.10551147 89.48981323 4.10551147 88.31176758 4.11352539 C86 4 86 4 81 3 C54.93 2.67 28.86 2.34 2 2 C2 83.51 2 165.02 2 249 C30.215 248.505 30.215 248.505 59 248 C86.34933036 247.92745536 86.34933036 247.92745536 99 248 C99 248.33 99 248.66 99 249 C66.09048849 251.53150089 33.00673332 251 0 251 C0 168.17 0 85.34 0 0 Z " fill="#F3C22A" transform="translate(487,275)"/>
<path d="M0 0 C91.89308176 0 91.89308176 0 109 4 C109 4.33 109 4.66 109 5 C106.56236201 4.8562497 104.1249105 4.71002168 101.6875 4.5625 C101.01654297 4.52318359 100.34558594 4.48386719 99.65429688 4.44335938 C93.75012844 4.08301107 87.89958041 3.53632549 82 3 C55.6 2.67 29.2 2.34 2 2 C2 83.51 2 165.02 2 249 C32.69 248.67 63.38 248.34 95 248 C88.83108149 254.16891851 77.716605 250.63680812 69 251 C46.23 251 23.46 251 0 251 C0 168.17 0 85.34 0 0 Z " fill="#F5C740" transform="translate(67,275)"/>
<path d="M0 0 C1.15641747 0.00303635 1.15641747 0.00303635 2.3361969 0.00613403 C3.14428299 0.00438171 3.95236908 0.00262939 4.78494263 0.00082397 C7.46936662 -0.0035952 10.1537253 -0.00065633 12.83815002 0.00271606 C14.69520582 0.00204304 16.55226153 0.00107303 18.40931702 -0.00018311 C22.30666439 -0.00166017 26.20398889 0.00049474 30.10133362 0.00515747 C35.10874502 0.01085476 40.11610283 0.0075758 45.12351227 0.00158501 C48.95979723 -0.00202038 52.7960694 -0.00088212 56.63235474 0.0017128 C58.47922777 0.00238213 60.32610194 0.00155344 62.17297363 -0.00076675 C64.74954835 -0.00329292 67.32603503 0.00054679 69.90260315 0.00613403 C70.67354813 0.0041098 71.4444931 0.00208557 72.23880005 0 C77.50513747 0.02126601 77.50513747 0.02126601 78.61940002 1.13552856 C80.0944712 1.28005574 81.57576042 1.36247781 83.05690002 1.41677856 C83.9515094 1.45416138 84.84611877 1.49154419 85.76783752 1.53005981 C86.70885315 1.5648645 87.64986877 1.59966919 88.61940002 1.63552856 C90.47373197 1.70411344 92.3279181 1.7768067 94.18190002 1.85427856 C95.00818909 1.88457153 95.83447815 1.9148645 96.68580627 1.94607544 C98.61940002 2.13552856 98.61940002 2.13552856 99.61940002 3.13552856 C100.67127502 3.25927856 101.72315002 3.38302856 102.80690002 3.51052856 C106.63072127 4.13738451 109.26317073 5.25276579 112.61940002 7.13552856 C108.96802401 8.43089768 106.56653467 7.79329649 102.86940002 6.82302856 C68.72796612 -0.16044655 28.53855782 2.57445067 -4.38059998 2.13552856 C-4.38059998 84.96552856 -4.38059998 167.79552856 -4.38059998 253.13552856 C-5.04059998 253.13552856 -5.70059998 253.13552856 -6.38059998 253.13552856 C-6.40338969 221.04924094 -6.42109781 188.9629556 -6.43166531 156.87666178 C-6.43291608 153.09258937 -6.4342104 149.30851697 -6.43553162 145.52444458 C-6.43579393 144.77107197 -6.43605624 144.01769936 -6.4363265 143.24149727 C-6.44068334 131.02690187 -6.44857096 118.81231116 -6.45775277 106.59771854 C-6.46708893 94.07378658 -6.4726555 81.54985707 -6.47468847 69.02592176 C-6.47606378 61.29174005 -6.48041478 53.55757157 -6.48851644 45.82339393 C-6.49440411 39.90286134 -6.49505904 33.98233562 -6.49370766 28.0618 C-6.49398418 25.62564512 -6.49599191 23.18948977 -6.49980545 20.75333786 C-6.50473581 17.44309885 -6.50360071 14.1329178 -6.50085449 10.82267761 C-6.50376733 9.84507148 -6.50668018 8.86746535 -6.50968128 7.8602348 C-6.50769024 6.98042806 -6.50569919 6.10062133 -6.5036478 5.19415379 C-6.50402752 4.42901732 -6.50440724 3.66388085 -6.50479847 2.87555844 C-6.22640855 -1.02470435 -3.21329236 0.0129756 0 0 Z " fill="#FEF2C1" transform="translate(281.38059997558594,272.8644714355469)"/>
<path d="M0 0 C1.20292946 -0.00503792 1.20292946 -0.00503792 2.43016052 -0.01017761 C5.08447819 -0.0196859 7.73873276 -0.0216307 10.39306641 -0.02270508 C12.23768134 -0.02591786 14.08229601 -0.02928195 15.9269104 -0.03279114 C19.79551789 -0.03878218 23.66410304 -0.04063107 27.53271484 -0.04003906 C32.488149 -0.03993747 37.44343977 -0.05358692 42.39883995 -0.07081127 C46.20955055 -0.08193412 50.02022652 -0.08395818 53.83095169 -0.08342934 C55.65777709 -0.08460913 57.48460339 -0.08903086 59.31141281 -0.0967617 C61.86786667 -0.10656681 64.42400981 -0.10368145 66.98046875 -0.09765625 C67.73389053 -0.10327576 68.48731232 -0.10889526 69.26356506 -0.11468506 C73.32460177 -0.0903825 76.46429011 0.33748125 80.11962891 2.14526367 C80.11962891 2.47526367 80.11962891 2.80526367 80.11962891 3.14526367 C50.45108964 3.14526367 20.78505288 2.57519735 -8.88037109 2.14526367 C-8.88037109 84.97526367 -8.88037109 167.80526367 -8.88037109 253.14526367 C-9.54037109 253.14526367 -10.20037109 253.14526367 -10.88037109 253.14526367 C-10.88037109 169.98526367 -10.88037109 86.82526367 -10.88037109 1.14526367 C-7.20866228 -0.07863927 -3.82322178 -0.00228739 0 0 Z " fill="#FDF4D4" transform="translate(75.88037109375,272.854736328125)"/>
<path d="M0 0 C1.11882568 0.00067978 1.11882568 0.00067978 2.26025391 0.00137329 C3.0425235 -0.00198532 3.82479309 -0.00534393 4.63076782 -0.00880432 C7.23465539 -0.01835333 9.83847878 -0.02026022 12.44238281 -0.02133179 C14.2530622 -0.0245446 16.06374133 -0.02790869 17.87442017 -0.03141785 C21.68272502 -0.03742103 25.49100715 -0.03925683 29.29931641 -0.03866577 C34.15557037 -0.03856476 39.01167611 -0.05214849 43.86789513 -0.06943798 C47.61537326 -0.0806221 51.36281649 -0.08258292 55.1103096 -0.08205605 C56.89868296 -0.08322915 58.68705743 -0.08761297 60.47541428 -0.09538841 C69.77651298 -0.13200078 78.69772042 -0.09928636 87.79394531 2.14663696 C87.79394531 2.47663696 87.79394531 2.80663696 87.79394531 3.14663696 C57.43394531 2.81663696 27.07394531 2.48663696 -4.20605469 2.14663696 C-4.20605469 84.97663696 -4.20605469 167.80663696 -4.20605469 253.14663696 C-4.86605469 253.14663696 -5.52605469 253.14663696 -6.20605469 253.14663696 C-6.2288444 221.06034934 -6.24655252 188.974064 -6.25712002 156.88777018 C-6.25837079 153.10369777 -6.25966511 149.31962537 -6.26098633 145.53555298 C-6.26124864 144.78218037 -6.26151095 144.02880775 -6.26178121 143.25260567 C-6.26613805 131.03801027 -6.27402567 118.82341956 -6.28320748 106.60882694 C-6.29254364 94.08489497 -6.29811022 81.56096547 -6.30014318 69.03703016 C-6.30151849 61.30284845 -6.3058695 53.56867997 -6.31397115 45.83450233 C-6.31985883 39.91396974 -6.32051375 33.99344402 -6.31916237 28.0729084 C-6.3194389 25.63675352 -6.32144662 23.20059817 -6.32526016 20.76444626 C-6.33019052 17.45420724 -6.32905542 14.1440262 -6.3263092 10.83378601 C-6.32922205 9.85617988 -6.33213489 8.87857375 -6.335136 7.8713432 C-6.33314495 6.99153646 -6.3311539 6.11172973 -6.32910252 5.20526218 C-6.32948224 4.44012572 -6.32986196 3.67498925 -6.33025318 2.88666683 C-6.05617931 -0.95312792 -3.18459456 0.02010878 0 0 Z " fill="#FEF2B8" transform="translate(491.2060546875,272.8533630371094)"/>
<path d="M0 0 C1.32 0.33 2.64 0.66 4 1 C3.34 1 2.68 1 2 1 C1.731875 1.5775 1.46375 2.155 1.1875 2.75 C-0.01800803 5.03412048 -1.43135523 6.95431531 -3 9 C-2.34773438 9.03738281 -1.69546875 9.07476562 -1.0234375 9.11328125 C4.24557506 9.5096229 8.50688766 9.96714917 13 13 C14.69746798 15.7571476 15.25085268 17.84250864 15.25891972 21.05904675 C15.26576851 21.86264163 15.2726173 22.66623652 15.27967364 23.49418277 C15.27705678 24.37131043 15.27443993 25.24843809 15.27174377 26.15214539 C15.27937403 27.55657236 15.27937403 27.55657236 15.28715843 28.9893716 C15.30185036 32.13447604 15.30235343 35.27942416 15.30297852 38.42456055 C15.31063792 40.67653204 15.31918394 42.92850067 15.32855225 45.1804657 C15.34684946 50.03461206 15.35887637 54.88871975 15.36609077 59.74289513 C15.3775658 67.42025829 15.4030191 75.09753602 15.43040466 82.77485657 C15.46734683 93.54122016 15.49805222 104.30757821 15.52319336 115.07397461 C15.52479066 115.75719321 15.52638796 116.4404118 15.52803367 117.144334 C15.52963257 117.82837855 15.53123147 118.51242311 15.53287882 119.21719629 C15.55553933 128.90286042 15.58017548 138.58851687 15.60717773 148.27416992 C15.61002195 149.29547411 15.61002195 149.29547411 15.61292363 150.33741071 C15.64474146 161.70438647 15.68050515 173.07134736 15.71821922 184.4383052 C15.74310997 192.0677728 15.76255669 199.69722935 15.77760136 207.3267225 C15.78782455 212.07878261 15.80197155 216.83082554 15.81707764 221.58287239 C15.82322001 223.78345712 15.82768667 225.98404727 15.83033562 228.18463898 C15.83416428 231.19410312 15.8439974 234.20349213 15.85523987 237.2129364 C15.85485374 238.07891046 15.8544676 238.94488451 15.85406977 239.83710021 C15.67400511 249.44647214 15.67400511 249.44647214 18.25 258.5 C20.43873481 260.37605841 22.16663471 260.69369024 25 261 C25 261.66 25 262.32 25 263 C29.34200946 262.90627112 33.68348678 262.80013498 38.02490234 262.68261719 C39.50105536 262.64439334 40.97729943 262.60952897 42.45361328 262.578125 C44.57878094 262.53233014 46.70332542 262.47436163 48.828125 262.4140625 C50.7447998 262.36693115 50.7447998 262.36693115 52.70019531 262.31884766 C55.72537324 262.02653615 57.46049109 261.59418511 60 260 C57.375 263.875 57.375 263.875 54 265 C49.00281706 265.22836589 43.99987873 265.10883083 39 265 C38.17048828 264.98211426 37.34097656 264.96422852 36.48632812 264.94580078 C33.90647805 264.8793148 31.32874712 264.78763115 28.75 264.6875 C27.92822266 264.66510254 27.10644531 264.64270508 26.25976562 264.61962891 C21.88376089 264.4176454 19.95622755 264.13686366 17 261 C16.01 260.67 15.02 260.34 14 260 C12.90620866 254.69673009 12.86254999 249.591667 12.87974548 244.20510864 C12.87889106 243.22401308 12.87803663 242.24291752 12.87715632 241.23209178 C12.87551048 237.94784073 12.88100824 234.66364087 12.88647461 231.37939453 C12.8867567 229.02385967 12.88659832 226.66832472 12.8860321 224.31278992 C12.88574499 217.91871335 12.89162796 211.5246555 12.89860606 205.13058329 C12.9042208 199.12515111 12.90522918 193.11971892 12.90625793 187.11428462 C12.90844517 175.22136851 12.91509637 163.32845926 12.92456055 151.43554688 C12.93374314 139.88444045 12.94081983 128.3333359 12.94506836 116.78222656 C12.94546244 115.71375316 12.94546244 115.71375316 12.94586449 114.62369443 C12.94716955 111.05012522 12.94843326 107.476556 12.94967639 103.90298676 C12.96003879 74.26865329 12.97772267 44.63432697 13 15 C11.68 15 10.36 15 9 15 C9 14.01 9 13.02 9 12 C7.824375 12.061875 6.64875 12.12375 5.4375 12.1875 C0.1937341 12.20612794 -3.36027752 10.31986124 -8 8 C-6.1875 6 -6.1875 6 -4 4 C-3.01 4 -2.02 4 -1 4 C-0.67 2.68 -0.34 1.36 0 0 Z " fill="#FEEEBA" transform="translate(1212,261)"/>
<path d="M0 0 C9.57 0 19.14 0 29 0 C29.33 0.33 29.66 0.66 30 1 C31.34747084 1.23075082 32.70377565 1.41153063 34.0625 1.5625 C35.361875 1.706875 36.66125 1.85125 38 2 C38 2.33 38 2.66 38 3 C26.45 2.67 14.9 2.34 3 2 C3 20.15 3 38.3 3 57 C7.723125 56.9175 12.44625 56.835 17.3125 56.75 C18.77856689 56.73420898 20.24463379 56.71841797 21.75512695 56.70214844 C29.10431232 56.51318501 35.10578898 55.75514424 41.85229492 52.75097656 C44 52 44 52 47 53 C33.47361908 61.90944279 14.99227873 59 0 59 C0 39.53 0 20.06 0 0 Z " fill="#FCEBB4" transform="translate(330,316)"/>
<path d="M0 0 C40.04545455 0 40.04545455 0 48 5 C44.24590906 6.25136365 42.73704048 5.15441658 39.19873047 3.73641968 C35.67037388 2.554669 32.25659706 2.52055047 28.5625 2.48828125 C27.88251953 2.47164429 27.20253906 2.45500732 26.50195312 2.43786621 C24.00160526 2.38074812 21.50074843 2.34798545 19 2.3125 C10.585 2.1578125 10.585 2.1578125 2 2 C2 23.12 2 44.24 2 66 C13.22 66 24.44 66 36 66 C36 66.33 36 66.66 36 67 C24.22849304 69.35430139 12.00462874 68 0 68 C0 45.56 0 23.12 0 0 Z " fill="#FBE9A9" transform="translate(540,417)"/>
<path d="M0 0 C0.99 0 1.98 0 3 0 C2.42655063 2.86724686 2.1385485 3.8614515 0 6 C-0.20390058 9.12880516 -0.28062159 12.16994961 -0.27174377 15.30041504 C-0.27683061 16.27668177 -0.28191745 17.2529485 -0.28715843 18.25879908 C-0.30189587 21.55082725 -0.30235437 24.8427067 -0.30297852 28.13476562 C-0.31063456 30.48646844 -0.31917994 32.83816851 -0.32855225 35.18986511 C-0.34686953 40.26396489 -0.3588834 45.33802753 -0.36609077 50.41215515 C-0.37657552 57.75071187 -0.39829985 65.08920581 -0.42347669 72.42772585 C-0.46409961 84.33607925 -0.49655103 96.24443962 -0.52319336 108.15283203 C-0.52479066 108.86593334 -0.52638796 109.57903464 -0.52803367 110.31374508 C-0.52963257 111.02774942 -0.53123147 111.74175375 -0.53287882 112.47739458 C-0.55556693 122.60065828 -0.58019817 132.72391476 -0.60717773 142.84716797 C-0.60907388 143.55940366 -0.61097003 144.27163935 -0.61292363 145.00545794 C-0.64466921 156.8684117 -0.6804176 168.73135148 -0.71821922 180.5942874 C-0.74335124 188.57025247 -0.76260601 196.54620406 -0.77760136 204.52219391 C-0.78777609 209.47494805 -0.80192197 214.42768525 -0.81707764 219.38042641 C-0.82325474 221.68554093 -0.82770188 223.9906608 -0.83033562 226.29578209 C-0.83412303 229.43041474 -0.84391582 232.56497187 -0.85523987 235.69958496 C-0.85485374 236.62233168 -0.8544676 237.5450784 -0.85406977 238.49578714 C-0.88593592 244.77187184 -0.88593592 244.77187184 -2 247 C-2.66 247 -3.32 247 -4 247 C-3.83774475 246.42690487 -3.67548949 245.85380975 -3.50831741 245.2633481 C-3.0042556 243.01894861 -2.87192344 241.08209841 -2.86692142 238.78643036 C-2.86268038 237.94840142 -2.85843933 237.11037248 -2.85406977 236.24694872 C-2.8544559 235.33139192 -2.85484203 234.41583512 -2.85523987 233.47253418 C-2.85171302 232.49596973 -2.84818618 231.51940528 -2.84455246 230.51324797 C-2.83385486 227.23213451 -2.83018266 223.95105007 -2.82641602 220.66992188 C-2.82011169 218.32117083 -2.81334603 215.97242098 -2.80615234 213.62367249 C-2.79147598 208.56162261 -2.77975397 203.49957737 -2.77020454 198.43751526 C-2.75607495 191.11426204 -2.73513914 183.79103974 -2.71177601 176.46781129 C-2.67386664 164.58059975 -2.63889821 152.693382 -2.60717773 140.80615234 C-2.604327 139.73898382 -2.604327 139.73898382 -2.60141867 138.65025634 C-2.57457706 128.55009044 -2.55070426 118.44991968 -2.52803367 108.34974366 C-2.52643637 107.63829798 -2.52483906 106.9268523 -2.52319336 106.19384766 C-2.52159989 105.48326822 -2.52000643 104.77268878 -2.51836468 104.04057664 C-2.49160922 92.19787521 -2.4572169 80.35521066 -2.41653961 68.51254892 C-2.38954367 60.55553456 -2.37184322 52.59855446 -2.36050236 44.64150238 C-2.35139665 39.69737337 -2.33404482 34.75329919 -2.31432343 29.80920219 C-2.30683057 27.51138099 -2.30276583 25.21354574 -2.30232811 22.91571236 C-2.3012503 19.78618728 -2.28804494 16.65694312 -2.27174377 13.52746582 C-2.27436063 12.61190902 -2.27697748 11.69635222 -2.27967364 10.75305128 C-2.27282484 9.91502234 -2.26597605 9.0769934 -2.25891972 8.21356964 C-2.25718347 7.49123154 -2.25544722 6.76889344 -2.25365835 6.02466631 C-1.95983922 3.67944215 -1.15822374 2.04451681 0 0 Z " fill="#FEF1C2" transform="translate(1276,273)"/>
<path d="M0 0 C26.69642857 0 26.69642857 0 35 2 C35 2.33 35 2.66 35 3 C23.93329491 3.14690316 13.08433209 2.61579623 2 2 C2 20.15 2 38.3 2 57 C6.3725 56.87625 10.745 56.7525 15.25 56.625 C17.27882324 56.57400146 17.27882324 56.57400146 19.34863281 56.52197266 C27.04952509 56.27424381 34.43982585 55.49135563 42 54 C37.17724479 58.82275521 29.32853966 58.36714603 23 59 C15.41 59 7.82 59 0 59 C0 39.53 0 20.06 0 0 Z " fill="#FEF2C4" transform="translate(121,316)"/>
<path d="M0 0 C1.62141942 -0.0006745 3.24283874 -0.00164574 4.86425781 -0.00289917 C8.24301121 -0.00436591 11.621738 -0.00225242 15.00048828 0.00244141 C19.33955467 0.00817482 23.67855969 0.00483059 28.0176239 -0.00113106 C31.35634836 -0.00473324 34.69505808 -0.00360031 38.03378296 -0.00100327 C39.63504036 -0.00033493 41.23629908 -0.00115917 42.83755493 -0.00348282 C45.06361483 -0.00600764 47.28957275 -0.00217291 49.515625 0.00341797 C51.41683105 0.00461136 51.41683105 0.00461136 53.35644531 0.00582886 C56.1875 0.1328125 56.1875 0.1328125 57.1875 1.1328125 C58.66257118 1.27733968 60.1438604 1.35976175 61.625 1.4140625 C62.51960938 1.45144531 63.41421875 1.48882812 64.3359375 1.52734375 C65.27695312 1.56214844 66.21796875 1.59695313 67.1875 1.6328125 C69.04183195 1.70139738 70.89601808 1.77409063 72.75 1.8515625 C73.57628906 1.88185547 74.40257812 1.91214844 75.25390625 1.94335938 C77.1875 2.1328125 77.1875 2.1328125 78.1875 3.1328125 C79.239375 3.2565625 80.29125 3.3803125 81.375 3.5078125 C85.19882125 4.13466844 87.8312707 5.25004972 91.1875 7.1328125 C87.53612398 8.42818161 85.13463465 7.79058042 81.4375 6.8203125 C59.09684502 1.80548558 35.55024154 2.73439833 12.7723999 2.53192139 C8.40678953 2.49120414 4.04129573 2.44042929 -0.32421875 2.390625 C-8.82023141 2.29511769 -17.31630422 2.21033324 -25.8125 2.1328125 C-25.8125 1.8028125 -25.8125 1.4728125 -25.8125 1.1328125 C-17.21892871 -0.09223369 -8.65854849 -0.01271236 0 0 Z " fill="#FEF1C2" transform="translate(302.8125,272.8671875)"/>
<path d="M0 0 C27.85714286 0 27.85714286 0 36 2 C36 2.33 36 2.66 36 3 C25.11 3 14.22 3 3 3 C2.67 21.15 2.34 39.3 2 58 C9.26 58 16.52 58 24 58 C24 58.33 24 58.66 24 59 C16.08 59 8.16 59 0 59 C0 39.53 0 20.06 0 0 Z " fill="#FCEBB0" transform="translate(540,316)"/>
<path d="M0 0 C1.11882568 0.00067978 1.11882568 0.00067978 2.26025391 0.00137329 C3.0425235 -0.00198532 3.82479309 -0.00534393 4.63076782 -0.00880432 C7.23465539 -0.01835333 9.83847878 -0.02026022 12.44238281 -0.02133179 C14.2530622 -0.0245446 16.06374133 -0.02790869 17.87442017 -0.03141785 C21.68272502 -0.03742103 25.49100715 -0.03925683 29.29931641 -0.03866577 C34.15557037 -0.03856476 39.01167611 -0.05214849 43.86789513 -0.06943798 C47.61537326 -0.0806221 51.36281649 -0.08258292 55.1103096 -0.08205605 C56.89868296 -0.08322915 58.68705743 -0.08761297 60.47541428 -0.09538841 C69.77651298 -0.13200078 78.69772042 -0.09928636 87.79394531 2.14663696 C87.79394531 2.47663696 87.79394531 2.80663696 87.79394531 3.14663696 C57.10394531 2.81663696 26.41394531 2.48663696 -5.20605469 2.14663696 C-5.20605469 6.10663696 -5.20605469 10.06663696 -5.20605469 14.14663696 C-5.53605469 14.14663696 -5.86605469 14.14663696 -6.20605469 14.14663696 C-6.23291407 12.0008706 -6.25238556 9.85501051 -6.26855469 7.70913696 C-6.28015625 6.51417603 -6.29175781 5.31921509 -6.30371094 4.08804321 C-6.14095995 -0.81401644 -4.42461593 0.02793876 0 0 Z " fill="#FEF1C0" transform="translate(491.2060546875,272.8533630371094)"/>
<path d="M0 0 C10.73548394 -0.04634725 21.47094406 -0.0818814 32.20650768 -0.10362434 C37.19150006 -0.11406003 42.17642398 -0.12821539 47.16137695 -0.15087891 C51.97242722 -0.17261483 56.78341164 -0.18457025 61.59450722 -0.18975449 C63.4297114 -0.19344888 65.26491198 -0.20066309 67.10008812 -0.21146011 C69.67121536 -0.22598494 72.24207073 -0.22797752 74.81323242 -0.22705078 C75.57136734 -0.23424133 76.32950226 -0.24143188 77.11061096 -0.24884033 C81.18545209 -0.23295503 84.3332219 0.18201734 88 2 C88 2.33 88 2.66 88 3 C70.36512718 3.09885634 52.73651573 2.81078563 35.10449219 2.53643799 C31.13478245 2.47500298 27.16504638 2.41531929 23.1953125 2.35546875 C15.46351554 2.23865028 7.73174899 2.1199558 0 2 C0 1.34 0 0.68 0 0 Z " fill="#FEF0BF" transform="translate(68,273)"/>
<path d="M0 0 C1.81640625 0.8515625 1.81640625 0.8515625 2.81640625 2.8515625 C2.07003906 3.10897217 1.32367187 3.36638184 0.5546875 3.6315918 C-2.2968264 4.90201039 -3.8322681 6.15174889 -5.99609375 8.37109375 C-6.67929688 9.06396484 -7.3625 9.75683594 -8.06640625 10.47070312 C-8.76507812 11.19451172 -9.46375 11.91832031 -10.18359375 12.6640625 C-10.88226562 13.37626953 -11.5809375 14.08847656 -12.30078125 14.82226562 C-13.65898602 16.20737823 -15.01400205 17.59562639 -16.36547852 18.98730469 C-17.88172579 20.54203333 -19.41883602 22.07638079 -20.9609375 23.60546875 C-23.60734889 26.27978606 -26.01504064 29.10875349 -28.4375 31.984375 C-30.22816286 33.89922253 -31.99494045 35.41036339 -34.18359375 36.8515625 C-34.84359375 36.8515625 -35.50359375 36.8515625 -36.18359375 36.8515625 C-36.51359375 38.1715625 -36.84359375 39.4915625 -37.18359375 40.8515625 C-36.29671875 40.7896875 -35.40984375 40.7278125 -34.49609375 40.6640625 C-30.83874358 40.87108232 -29.13582224 41.7676365 -26.18359375 43.8515625 C-29.25881058 45.38917092 -31.53034493 44.21755486 -34.80859375 43.4140625 C-36.59136719 42.98287109 -36.59136719 42.98287109 -38.41015625 42.54296875 C-39.32539062 42.31480469 -40.240625 42.08664062 -41.18359375 41.8515625 C-39.74797689 38.66449308 -37.98093046 36.22987145 -35.68359375 33.6015625 C-35.07515625 32.89515625 -34.46671875 32.18875 -33.83984375 31.4609375 C-32.18359375 29.8515625 -32.18359375 29.8515625 -30.18359375 29.8515625 C-30.18359375 29.1915625 -30.18359375 28.5315625 -30.18359375 27.8515625 C-29.52359375 27.8515625 -28.86359375 27.8515625 -28.18359375 27.8515625 C-28.18359375 27.1915625 -28.18359375 26.5315625 -28.18359375 25.8515625 C-27.52359375 25.8515625 -26.86359375 25.8515625 -26.18359375 25.8515625 C-25.94253906 25.28308594 -25.70148438 24.71460938 -25.453125 24.12890625 C-23.93391287 21.40367342 -22.10940394 19.58465911 -19.87109375 17.4140625 C-19.0615625 16.62257812 -18.25203125 15.83109375 -17.41796875 15.015625 C-16.31195312 13.94441406 -16.31195312 13.94441406 -15.18359375 12.8515625 C-14.33796875 12.0059375 -13.49234375 11.1603125 -12.62109375 10.2890625 C-11.81671875 9.4846875 -11.01234375 8.6803125 -10.18359375 7.8515625 C-9.22453125 6.80548828 -9.22453125 6.80548828 -8.24609375 5.73828125 C-7.19421875 4.61873047 -7.19421875 4.61873047 -6.12109375 3.4765625 C-5.47011719 2.76757812 -4.81914063 2.05859375 -4.1484375 1.328125 C-2.18359375 -0.1484375 -2.18359375 -0.1484375 0 0 Z " fill="#F5C833" transform="translate(1250.18359375,228.1484375)"/>
<path d="M0 0 C5.61 -0.061875 11.22 -0.12375 17 -0.1875 C18.75441406 -0.21481201 20.50882812 -0.24212402 22.31640625 -0.27026367 C23.73176387 -0.27903851 25.14712915 -0.28668008 26.5625 -0.29296875 C27.27728516 -0.30831665 27.99207031 -0.32366455 28.72851562 -0.33947754 C34.0524073 -0.34219751 38.1316941 0.93375902 43 3 C44.99640639 3.67735217 46.99504414 4.34838935 49 5 C49 5.66 49 6.32 49 7 C49.99 7.33 50.98 7.66 52 8 C49.50907189 9.24546405 48.58919267 8.7767578 46 8 C46 7.34 46 6.68 46 6 C44.35 6.33 42.7 6.66 41 7 C41 6.01 41 5.02 41 4 C35.97249568 2.37084851 31.39428832 1.67485054 26.09765625 1.5859375 C25.45598511 1.56829346 24.81431396 1.55064941 24.15319824 1.5324707 C21.78987212 1.47010496 19.42615262 1.42343692 17.0625 1.375 C9.1115625 1.189375 9.1115625 1.189375 1 1 C1 22.45 1 43.9 1 66 C10.24 66 19.48 66 29 66 C29 66.33 29 66.66 29 67 C19.43 67 9.86 67 0 67 C0 44.89 0 22.78 0 0 Z " fill="#FEEFB6" transform="translate(331,417)"/>
<path d="M0 0 C6.105 -0.0825 12.21 -0.165 18.5 -0.25 C20.41103516 -0.28641602 22.32207031 -0.32283203 24.29101562 -0.36035156 C25.82941571 -0.37204922 27.3678283 -0.38223849 28.90625 -0.390625 C29.68581055 -0.41108887 30.46537109 -0.43155273 31.26855469 -0.45263672 C37.1720777 -0.45634031 40.8850367 1.05532989 46 4 C43.00850247 5.49574876 40.70118979 4.64805018 37.4375 4.125 C36.26058594 3.94195312 35.08367187 3.75890625 33.87109375 3.5703125 C31 3 31 3 30 2 C20.43 2 10.86 2 1 2 C1 22.79 1 43.58 1 65 C0.67 65 0.34 65 0 65 C0 43.55 0 22.1 0 0 Z " fill="#FEF7E3" transform="translate(122,418)"/>
<path d="M0 0 C1.084021 0.00523682 2.16804199 0.01047363 3.28491211 0.01586914 C5.03964844 0.02070313 5.03964844 0.02070313 6.82983398 0.02563477 C8.67738281 0.03820312 8.67738281 0.03820312 10.56225586 0.05102539 C12.41560547 0.05779297 12.41560547 0.05779297 14.30639648 0.06469727 C17.37089703 0.07652931 20.43530307 0.09301366 23.49975586 0.11352539 C23.49975586 0.44352539 23.49975586 0.77352539 23.49975586 1.11352539 C11.12475586 1.60852539 11.12475586 1.60852539 -1.50024414 2.11352539 C-1.83024414 19.60352539 -2.16024414 37.09352539 -2.50024414 55.11352539 C6.40975586 55.11352539 15.31975586 55.11352539 24.49975586 55.11352539 C24.49975586 54.45352539 24.49975586 53.79352539 24.49975586 53.11352539 C28.12975586 53.11352539 31.75975586 53.11352539 35.49975586 53.11352539 C35.49975586 53.44352539 35.49975586 53.77352539 35.49975586 54.11352539 C27.62393375 56.71828947 19.69363553 56.33706762 11.49975586 56.23852539 C10.04273075 56.22847694 8.58569895 56.21935438 7.12866211 56.21118164 C3.58555256 56.1893125 0.04269774 56.15488516 -3.50024414 56.11352539 C-3.52550977 48.29899787 -3.54307519 40.48448081 -3.55517578 32.66992188 C-3.56021797 30.00911058 -3.5670515 27.34830207 -3.57568359 24.6875 C-3.58775423 20.87247023 -3.59347343 17.05747695 -3.59790039 13.24243164 C-3.60306168 12.04453506 -3.60822296 10.84663849 -3.61354065 9.61244202 C-3.61361618 8.51137619 -3.61369171 7.41031036 -3.61376953 6.27587891 C-3.61599014 5.30103043 -3.61821075 4.32618195 -3.62049866 3.3217926 C-3.44822328 0.15825188 -3.18072602 0.14442316 0 0 Z " fill="#FAF7E9" transform="translate(545.500244140625,317.886474609375)"/>
<path d="M0 0 C-10.80273372 5.40136686 -28.10264291 3.2675666 -39.9140625 3.1953125 C-41.74921512 3.19156923 -43.58436979 3.1887285 -45.41952515 3.18673706 C-50.18361203 3.17920386 -54.94757141 3.1596478 -59.71160889 3.1373291 C-64.59938839 3.11664464 -69.48718908 3.10768769 -74.375 3.09765625 C-83.91672182 3.07638906 -93.45835019 3.04238256 -103 3 C-103 2.67 -103 2.34 -103 2 C-102.14318634 1.99191315 -101.28637268 1.98382629 -100.40359497 1.97549438 C-92.19997493 1.89649932 -83.99649624 1.80892622 -75.79306221 1.71247292 C-71.57886954 1.66320611 -67.36469401 1.61689131 -63.15039062 1.578125 C-45.93471607 1.41788707 -28.80815551 1.22988943 -11.6555481 -0.40829468 C-10.21125931 -0.54384262 -10.21125931 -0.54384262 -8.73779297 -0.68212891 C-7.91213837 -0.76717682 -7.08648376 -0.85222473 -6.23580933 -0.93984985 C-3.95483868 -1.00121498 -2.17336448 -0.66310719 0 0 Z " fill="#FDECB2" transform="translate(590,524)"/>
<path d="M0 0 C0.33 0 0.66 0 1 0 C1 6.6 1 13.2 1 20 C0.34 20 -0.32 20 -1 20 C-1.66 23.3 -2.32 26.6 -3 30 C-3.66 30 -4.32 30 -5 30 C-5.28875 30.61875 -5.5775 31.2375 -5.875 31.875 C-7 34 -7 34 -9 36 C-10.32 36 -11.64 36 -13 36 C-13 36.66 -13 37.32 -13 38 C-17.0527516 38.98248524 -20.83861737 39.08159574 -25 39 C-22.31641472 37.21094315 -20.75902361 36.5706428 -17.75 35.75 C-11.36980835 33.65439234 -6.87442508 30.18980928 -3.625 24.25 C-1.12542306 18.08083139 -1.35449735 11.28275681 -1.17578125 4.71875 C-1 1 -1 1 0 0 Z " fill="#F4C42A" transform="translate(598,335)"/>
<path d="M0 0 C-0.33 0.99 -0.66 1.98 -1 3 C-9.23451758 5.13131517 -17.1565543 5.23837775 -25.625 5.125 C-26.91535156 5.11597656 -28.20570313 5.10695313 -29.53515625 5.09765625 C-32.69030249 5.0742848 -35.84504926 5.04152091 -39 5 C-39 4.34 -39 3.68 -39 3 C-38.35562988 2.97494385 -37.71125977 2.9498877 -37.04736328 2.92407227 C-34.07311076 2.80664654 -31.09906429 2.684597 -28.125 2.5625 C-26.60519531 2.50352539 -26.60519531 2.50352539 -25.0546875 2.44335938 C-16.7083676 2.09559605 -8.04737225 0 0 0 Z " fill="#F3C634" transform="translate(160,372)"/>
<path d="M0 0 C0 3.88433166 -1.17079686 4.67605496 -3.75 7.5 C-4.44609375 8.2734375 -5.1421875 9.046875 -5.859375 9.84375 C-7.81351246 11.81215123 -9.68219575 13.48076697 -12 15 C-12.66 15 -13.32 15 -14 15 C-14.33 16.32 -14.66 17.64 -15 19 C-14.113125 18.938125 -13.22625 18.87625 -12.3125 18.8125 C-8.65514983 19.01951982 -6.95222849 19.916074 -4 22 C-7.07521683 23.53760842 -9.34675118 22.36599236 -12.625 21.5625 C-14.40777344 21.13130859 -14.40777344 21.13130859 -16.2265625 20.69140625 C-17.14179687 20.46324219 -18.05703125 20.23507812 -19 20 C-17.56438314 16.81293058 -15.79733671 14.37830895 -13.5 11.75 C-12.8915625 11.04359375 -12.283125 10.3371875 -11.65625 9.609375 C-10 8 -10 8 -8 8 C-8 7.34 -8 6.68 -8 6 C-7.34 6 -6.68 6 -6 6 C-6 5.34 -6 4.68 -6 4 C-4.03852126 2.61061923 -2.03833424 1.2739589 0 0 Z " fill="#F7C62C" transform="translate(1228,250)"/>
<path d="M0 0 C0.66 0 1.32 0 2 0 C4.8591208 13.24896155 5.19749985 26.78176401 2 40 C1.34 40 0.68 40 0 40 C0 41.98 0 43.96 0 46 C-1.485 46.495 -1.485 46.495 -3 47 C-2.54237632 43.43053531 -1.76040461 40.29925783 -0.47265625 36.9609375 C1.33406594 31.61797663 1.37423387 26.65690627 1.25 21.0625 C1.24226563 19.67514648 1.24226563 19.67514648 1.234375 18.25976562 C1.16562257 12.12790814 0.71086149 6.08943793 0 0 Z " fill="#FEF1C4" transform="translate(435,320)"/>
<path d="M0 0 C0.66 0.33 1.32 0.66 2 1 C0.71086513 1.67154933 -0.58140204 2.33708859 -1.875 3 C-2.59429687 3.37125 -3.31359375 3.7425 -4.0546875 4.125 C-6 5 -6 5 -8 5 C-8 5.66 -8 6.32 -8 7 C-7.01 7 -6.02 7 -5 7 C-5 7.99 -5 8.98 -5 10 C-4.030625 10.12375 -3.06125 10.2475 -2.0625 10.375 C-1.051875 10.58125 -0.04125 10.7875 1 11 C1.33 11.66 1.66 12.32 2 13 C-1.12594352 12.35867797 -4.25057522 11.71117727 -7.375 11.0625 C-8.26445312 10.88009766 -9.15390625 10.69769531 -10.0703125 10.50976562 C-10.92109375 10.33251953 -11.771875 10.15527344 -12.6484375 9.97265625 C-13.43395996 9.81031494 -14.21948242 9.64797363 -15.02880859 9.48071289 C-17 9 -17 9 -19 8 C-19 7.34 -19 6.68 -19 6 C-17.948125 5.72736328 -17.948125 5.72736328 -16.875 5.44921875 C-12.30320032 4.2379403 -7.83303073 3.00659331 -3.4375 1.25 C-2.303125 0.8375 -1.16875 0.425 0 0 Z " fill="#FCECB3" transform="translate(197,387)"/>
<path d="M0 0 C4.70181055 4.12231569 5.66406196 9.95656137 6.328125 15.97265625 C6.58650602 23.1242739 5.16703299 28.60937987 2 35 C1.67 35 1.34 35 1 35 C1 33.35 1 31.7 1 30 C1.66 30 2.32 30 3 30 C3 22.41 3 14.82 3 7 C2.34 7 1.68 7 1 7 C0.67 4.69 0.34 2.38 0 0 Z " fill="#FDEBA9" transform="translate(172,327)"/>
<path d="M0 0 C3.96930989 -0.02465881 7.93859034 -0.04284023 11.90795898 -0.05493164 C13.25920386 -0.05997057 14.61044326 -0.06680177 15.96166992 -0.07543945 C17.90020434 -0.08752419 19.838778 -0.09269828 21.77734375 -0.09765625 C23.52905884 -0.10551147 23.52905884 -0.10551147 25.31616211 -0.11352539 C28 0 28 0 29 1 C30.051875 1.12375 31.10375 1.2475 32.1875 1.375 C36.01132125 2.00185594 38.6437707 3.11723722 42 5 C38.34862398 6.29536911 35.94713465 5.65776792 32.25 4.6875 C21.65909993 2.23652737 10.82047693 1.74279094 0 1 C0 0.67 0 0.34 0 0 Z " fill="#FDEFBE" transform="translate(352,275)"/>
<path d="M0 0 C4.60402353 -0.10026352 9.20738632 -0.17211133 13.81225586 -0.21972656 C15.37259007 -0.23961365 16.93285209 -0.26673352 18.49291992 -0.30175781 C28.81157696 -0.52730223 37.26733279 0.1982271 47 4 C47 4.66 47 5.32 47 6 C48.32 6.33 49.64 6.66 51 7 C51 7.66 51 8.32 51 9 C48.22454609 7.90663937 45.51329169 6.77096079 42.8125 5.5 C33.59858867 1.59893402 23.73057546 1.60965656 13.875 1.375 C12.5234152 1.33671699 11.17185209 1.29765973 9.8203125 1.2578125 C6.54700609 1.16428946 3.27369443 1.07853802 0 1 C0 0.67 0 0.34 0 0 Z " fill="#F5C01C" transform="translate(121,415)"/>
<path d="M0 0 C4.13673958 3.53647347 4.34349397 7.80893866 5 13 C5.25076743 16.75623206 5.28101741 20.48655412 5.25 24.25 C5.25773437 25.20390625 5.26546875 26.1578125 5.2734375 27.140625 C5.25950061 32.15790676 4.98640496 36.30199461 3 41 C1.87695591 37.63086773 1.91745796 35.15691687 1.97265625 31.609375 C1.98490234 30.34222656 1.99714844 29.07507813 2.00976562 27.76953125 C2.04258907 25.10530726 2.08373023 22.44144577 2.12695312 19.77734375 C2.13791016 18.50503906 2.14886719 17.23273438 2.16015625 15.921875 C2.17699463 14.76268555 2.19383301 13.60349609 2.21118164 12.40917969 C1.9813868 8.69952048 1.09784483 5.54017731 0 2 C0 1.34 0 0.68 0 0 Z " fill="#F4C83D" transform="translate(432,317)"/>
<path d="M0 0 C0.66 0 1.32 0 2 0 C2.11760715 3.16634636 2.18771024 6.33212074 2.25 9.5 C2.28351563 10.386875 2.31703125 11.27375 2.3515625 12.1875 C2.4389487 18.12976141 1.76921538 23.19242453 -2 28 C-2.99 28.33 -3.98 28.66 -5 29 C-6.38576923 30.62332967 -7.72641268 32.28724465 -9 34 C-9.66 33.67 -10.32 33.34 -11 33 C-10.44570313 32.41992188 -9.89140625 31.83984375 -9.3203125 31.2421875 C-8.59585937 30.46101563 -7.87140625 29.67984375 -7.125 28.875 C-6.40570313 28.10929687 -5.68640625 27.34359375 -4.9453125 26.5546875 C-0.76472548 21.06451901 -0.62911415 15.26373216 -0.375 8.625 C-0.31699219 7.37783203 -0.31699219 7.37783203 -0.2578125 6.10546875 C-0.16425754 4.07064844 -0.08107287 2.03535584 0 0 Z " fill="#F4C83E" transform="translate(387,336)"/>
<path d="M0 0 C3.0871765 6.17435299 3.18222827 11.53832656 3.1875 18.3125 C3.19974609 19.12912109 3.21199219 19.94574219 3.22460938 20.78710938 C3.23753496 26.19431365 2.51209673 30.80627644 1 36 C0.67 36 0.34 36 0 36 C0 24.12 0 12.24 0 0 Z " fill="#F5C42E" transform="translate(443,436)"/>
<path d="M0 0 C-8.23675964 3.19784322 -15.86817141 3.36335804 -24.625 3.1875 C-25.91535156 3.17396484 -27.20570313 3.16042969 -28.53515625 3.14648438 C-31.69055028 3.11142444 -34.84504578 3.06228144 -38 3 C-38 2.34 -38 1.68 -38 1 C-37.21874756 0.97494385 -36.43749512 0.9498877 -35.63256836 0.92407227 C-32.06740383 0.80749797 -28.50246387 0.68505135 -24.9375 0.5625 C-23.70837891 0.52318359 -22.47925781 0.48386719 -21.21289062 0.44335938 C-14.01818154 0.23402663 -14.01818154 0.23402663 -6.87890625 -0.59765625 C-4.08776532 -0.98773429 -2.64199403 -0.76229767 0 0 Z " fill="#F3C73B" transform="translate(368,374)"/>
<path d="M0 0 C-0.99 1.485 -0.99 1.485 -2 3 C-4.98095703 3.34057617 -4.98095703 3.34057617 -8.7578125 3.29296875 C-9.42086395 3.28872391 -10.08391541 3.28447906 -10.76705933 3.28010559 C-12.88678441 3.26329971 -15.00556188 3.22564701 -17.125 3.1875 C-18.56118419 3.17245549 -19.99738328 3.15876668 -21.43359375 3.14648438 C-24.95603764 3.1133909 -28.47792636 3.0615968 -32 3 C-32 2.34 -32 1.68 -32 1 C-28.16678585 0.8305164 -24.33341274 0.6649259 -20.5 0.5 C-18.88351562 0.42845703 -18.88351562 0.42845703 -17.234375 0.35546875 C-11.4831177 0.10998826 -5.75643239 -0.05588769 0 0 Z " fill="#F5C73A" transform="translate(572,374)"/>
<path d="M0 0 C1 2 1 2 0.75 4.0625 C0.5025 4.701875 0.255 5.34125 0 6 C-0.99 6.33 -1.98 6.66 -3 7 C-3.69658363 8.65438613 -4.36096883 10.32254318 -5 12 C-6.5 13.8125 -6.5 13.8125 -8 15 C-8.66 15 -9.32 15 -10 15 C-10 15.66 -10 16.32 -10 17 C-11.6210103 17.69685498 -13.24696066 18.38222861 -14.875 19.0625 C-15.77992188 19.44535156 -16.68484375 19.82820313 -17.6171875 20.22265625 C-20 21 -20 21 -22 20 C-21.2265625 19.52691406 -20.453125 19.05382812 -19.65625 18.56640625 C-11.55095682 13.42034759 -5.33499091 8.00248637 0 0 Z " fill="#FBE7A8" transform="translate(221,366)"/>
<path d="M0 0 C3.12025633 3.12025633 2.29454572 6.45939717 2.32226562 10.72070312 C2.31904297 11.86474609 2.31582031 13.00878906 2.3125 14.1875 C2.32861328 15.31220703 2.34472656 16.43691406 2.36132812 17.59570312 C2.36500178 23.84458181 2.02366611 28.4871945 -1 34 C-2.25418191 30.37680782 -1.63412877 27.72780565 -1 24 C-0.86166625 22.05674805 -0.75686009 20.11085381 -0.68359375 18.1640625 C-0.64169922 17.10058594 -0.59980469 16.03710938 -0.55664062 14.94140625 C-0.51732422 13.84699219 -0.47800781 12.75257813 -0.4375 11.625 C-0.39431641 10.50738281 -0.35113281 9.38976562 -0.30664062 8.23828125 C-0.20102589 5.49229801 -0.0989203 2.74623119 0 0 Z " fill="#FDEBAC" transform="translate(655,442)"/>
<path d="M0 0 C3.91557491 7.27178198 4.33733781 13.69053741 4.3125 21.8125 C4.32861328 22.85470703 4.34472656 23.89691406 4.36132812 24.97070312 C4.3654464 31.53111177 3.53996114 36.93695995 1 43 C0.01522345 39.91514221 0.04318984 38.06738535 0.9296875 34.97265625 C2.27942115 29.43874829 2.22253671 24.10588329 2.125 18.4375 C2.11146484 16.92446289 2.11146484 16.92446289 2.09765625 15.38085938 C2.07433356 12.92031543 2.04160763 10.46029104 2 8 C1.34 8 0.68 8 0 8 C0 5.36 0 2.72 0 0 Z " fill="#F3C336" transform="translate(223,318)"/>
<path d="M0 0 C2.02045442 0.60183749 4.02111039 1.27306096 6 2 C6.33 2.66 6.66 3.32 7 4 C2.85714286 10.42857143 2.85714286 10.42857143 0 13 C-2.22094692 6.58393113 -2.22094692 6.58393113 -1.125 3.6875 C-0.75375 3.130625 -0.3825 2.57375 0 2 C0 1.34 0 0.68 0 0 Z " fill="#253A62" transform="translate(1027,493)"/>
<path d="M0 0 C3.679451 2.68500479 6.14535911 4.81627521 8 9 C8.36098629 12.61246526 8.28246491 16.18678833 8.1875 19.8125 C8.17396484 20.79154297 8.16042969 21.77058594 8.14648438 22.77929688 C8.11125312 25.18676625 8.06199265 27.59309564 8 30 C7.67 30 7.34 30 7 30 C7 23.4 7 16.8 7 10 C3.29847322 9.07461831 2.36541838 8.91825838 -1 10 C-0.73958333 7.98177083 -0.47916667 5.96354167 -0.21875 3.9453125 C0.0372485 1.99501656 0.0372485 1.99501656 0 0 Z " fill="#FBECB4" transform="translate(379,324)"/>
<path d="M0 0 C-0.66 0.66 -1.32 1.32 -2 2 C-2.99 2 -3.98 2 -5 2 C-5 2.66 -5 3.32 -5 4 C-6.65 4 -8.3 4 -10 4 C-10 4.66 -10 5.32 -10 6 C-8.39125 6.185625 -8.39125 6.185625 -6.75 6.375 C-3.62136385 6.89643936 -1.66519576 7.40088254 1 9 C-2.2071676 10.6035838 -4.70337173 9.15457355 -8.0625 8.1875 C-9.33222656 7.83042969 -10.60195313 7.47335937 -11.91015625 7.10546875 C-15 6 -15 6 -16 4 C-13.71144298 3.13656269 -11.4198072 2.2840189 -9.125 1.4375 C-8.47402344 1.19064453 -7.82304688 0.94378906 -7.15234375 0.68945312 C-2.2265625 -1.11328125 -2.2265625 -1.11328125 0 0 Z " fill="#FDF4CA" transform="translate(616,389)"/>
<path d="M0 0 C4.22910589 -0.05907207 8.45810289 -0.09395041 12.6875 -0.125 C14.45577148 -0.15013672 14.45577148 -0.15013672 16.25976562 -0.17578125 C37.28924249 -0.29101126 37.28924249 -0.29101126 41.86206055 3.57373047 C42.23758057 4.04439941 42.61310059 4.51506836 43 5 C35.91972993 4.18304576 35.91972993 4.18304576 32.60546875 3.5234375 C21.85660355 1.41458254 10.91852615 1.34137741 0 1 C0 0.67 0 0.34 0 0 Z " fill="#F4C538" transform="translate(121,315)"/>
<path d="M0 0 C-0.969375 0.474375 -1.93875 0.94875 -2.9375 1.4375 C-5.80477437 2.70193947 -5.80477437 2.70193947 -7 4 C-8.66617115 4.04063832 -10.33388095 4.042721 -12 4 C-12 4.66 -12 5.32 -12 6 C-10.906875 6.12375 -9.81375 6.2475 -8.6875 6.375 C-5 7 -5 7 -2 9 C-6.66666667 8.33333333 -11.33333333 7.66666667 -16 7 C-16 5.68 -16 4.36 -16 3 C-14.02 3 -12.04 3 -10 3 C-10 2.34 -10 1.68 -10 1 C-8.71073008 0.63720544 -7.41846728 0.28503302 -6.125 -0.0625 C-5.40570313 -0.25972656 -4.68640625 -0.45695312 -3.9453125 -0.66015625 C-2 -1 -2 -1 0 0 Z " fill="#F8E083" transform="translate(405,389)"/>
<path d="M0 0 C0.33 0 0.66 0 1 0 C1.22801811 3.35312796 1.42881968 6.70737072 1.625 10.0625 C1.68945312 11.00544922 1.75390625 11.94839844 1.8203125 12.91992188 C2.12879889 18.4533965 1.89759544 22.77799117 0 28 C-0.66 28 -1.32 28 -2 28 C-2.33 29.65 -2.66 31.3 -3 33 C-3.66 33 -4.32 33 -5 33 C-4.79503906 32.39671875 -4.59007812 31.7934375 -4.37890625 31.171875 C-4.10949219 30.37265625 -3.84007812 29.5734375 -3.5625 28.75 C-3.29566406 27.96109375 -3.02882812 27.1721875 -2.75390625 26.359375 C-1.55093575 22.59463829 -0.86118192 19.19205432 -0.68359375 15.234375 C-0.64169922 14.34492188 -0.59980469 13.45546875 -0.55664062 12.5390625 C-0.49766602 11.15847656 -0.49766602 11.15847656 -0.4375 9.75 C-0.37272461 8.34621094 -0.37272461 8.34621094 -0.30664062 6.9140625 C-0.2008195 4.60951359 -0.09873443 2.30486161 0 0 Z " fill="#FDECAE" transform="translate(227,332)"/>
<path d="M0 0 C0.99 0 1.98 0 3 0 C3 0.99 3 1.98 3 3 C16.2 3 29.4 3 43 3 C43 3.33 43 3.66 43 4 C29.14 4 15.28 4 1 4 C0.67 2.68 0.34 1.36 0 0 Z " fill="#E1E8F3" transform="translate(713,522)"/>
<path d="M0 0 C0.66 0 1.32 0 2 0 C6.52618985 7.67484365 6.16652748 16.07075593 6.125 24.75 C6.12886719 25.57371094 6.13273438 26.39742188 6.13671875 27.24609375 C6.13019828 31.29530812 6.01167063 35.04966706 5 39 C4.67 39 4.34 39 4 39 C4.01571045 38.0255896 4.01571045 38.0255896 4.03173828 37.03149414 C4.07372962 34.04186999 4.09946167 31.05230821 4.125 28.0625 C4.14175781 27.04091797 4.15851562 26.01933594 4.17578125 24.96679688 C4.21590573 18.68731645 3.69181402 13.04914799 2 7 C1.71576172 5.96166016 1.71576172 5.96166016 1.42578125 4.90234375 C0.9664354 3.26368444 0.48583074 1.6310032 0 0 Z " fill="#FEF0BB" transform="translate(642,315)"/>
<path d="M0 0 C6.15234375 -0.09765625 6.15234375 -0.09765625 8 0 C8.33 0.33 8.66 0.66 9 1 C10.85174706 1.15786308 12.7090911 1.25107356 14.56640625 1.31640625 C16.2534668 1.37924805 16.2534668 1.37924805 17.97460938 1.44335938 C19.75061523 1.50233398 19.75061523 1.50233398 21.5625 1.5625 C22.75037109 1.60568359 23.93824219 1.64886719 25.16210938 1.69335938 C28.10794784 1.79983546 31.0538743 1.90184841 34 2 C34 1.34 34 0.68 34 0 C34.99 0.33 35.98 0.66 37 1 C36.67 1.66 36.34 2.32 36 3 C25.77 3 15.54 3 5 3 C5 2.34 5 1.68 5 1 C3.35 1 1.7 1 0 1 C0 0.67 0 0.34 0 0 Z " fill="#F3C323" transform="translate(1232,521)"/>
<path d="M0 0 C-7.625 2 -7.625 2 -11 2 C-11 2.66 -11 3.32 -11 4 C-5.72 4.99 -0.44 5.98 5 7 C5 7.33 5 7.66 5 8 C-1.67491831 8.45510807 -7.59374557 6.7672426 -14 5 C-13.125 1.125 -13.125 1.125 -12 0 C-10.54998009 -0.25996373 -9.08877907 -0.45919978 -7.625 -0.625 C-6.83351562 -0.72039062 -6.04203125 -0.81578125 -5.2265625 -0.9140625 C-3 -1 -3 -1 0 0 Z " fill="#F7C221" transform="translate(189,391)"/>
<path d="M0 0 C9.55650317 -0.20166126 18.63914824 -0.26439611 28 2 C28 2.33 28 2.66 28 3 C21.73 3 15.46 3 9 3 C9 2.34 9 1.68 9 1 C6.03 1 3.06 1 0 1 C0 0.67 0 0.34 0 0 Z " fill="#FCF1CB" transform="translate(551,273)"/>
<path d="M0 0 C-18.91800805 5.39486922 -18.91800805 5.39486922 -28 5 C-28 4.67 -28 4.34 -28 4 C-26.35 4 -24.7 4 -23 4 C-23 3.34 -23 2.68 -23 2 C-22.21753906 1.93941406 -21.43507813 1.87882813 -20.62890625 1.81640625 C-19.61699219 1.73261719 -18.60507812 1.64882813 -17.5625 1.5625 C-16.55316406 1.48128906 -15.54382813 1.40007813 -14.50390625 1.31640625 C-12.06359221 1.26788532 -12.06359221 1.26788532 -11 0 C-6.97279717 -0.75984959 -3.92759816 -1.16180608 0 0 Z " fill="#F4C638" transform="translate(397,519)"/>
<path d="M0 0 C0.66 0.33 1.32 0.66 2 1 C1.0625 3.4375 1.0625 3.4375 -1 6 C-3.25971214 6.54942021 -5.39805164 6.69208312 -7.71875 6.81640625 C-10.21999889 6.92410902 -10.21999889 6.92410902 -13.3125 8.125 C-16.21402383 9.06968218 -17.17976659 8.8538873 -20 8 C-14.29724212 5.65460688 -8.59845988 3.46419037 -2.71484375 1.61328125 C-0.9926952 1.13526024 -0.9926952 1.13526024 0 0 Z " fill="#FCF0C4" transform="translate(411,512)"/>
<path d="M0 0 C8.44333791 -0.42691034 14.75903687 -0.63421641 22 4 C16.27658807 6.86170596 5.94876236 2.93680635 0 1 C0 0.67 0 0.34 0 0 Z " fill="#FDF2CC" transform="translate(146,418)"/>
<path d="M0 0 C4.28668688 -0.04975174 8.57321697 -0.0858847 12.86010742 -0.10986328 C14.31586641 -0.1198685 15.77160557 -0.13347696 17.22729492 -0.15087891 C19.3299654 -0.17537044 21.43236824 -0.18653794 23.53515625 -0.1953125 C25.42826538 -0.21102295 25.42826538 -0.21102295 27.35961914 -0.22705078 C31.25897529 0.0161523 34.30328756 0.79622547 38 2 C38 2.33 38 2.66 38 3 C31.84765625 3.09765625 31.84765625 3.09765625 30 3 C29.67 2.67 29.34 2.34 29 2 C26.85613343 1.84141158 24.70733162 1.74870702 22.55859375 1.68359375 C21.25341797 1.64169922 19.94824219 1.59980469 18.60351562 1.55664062 C17.2148467 1.51682392 15.82617478 1.47711175 14.4375 1.4375 C13.04490817 1.39432011 11.65232972 1.350706 10.25976562 1.30664062 C6.83995199 1.20014124 3.42006237 1.09813077 0 1 C0 0.67 0 0.34 0 0 Z " fill="#F5C530" transform="translate(330,315)"/>
<path d="M0 0 C5.21866239 -0.19553128 9.59142434 0.44390051 14.625 1.8125 C15.89601563 2.14894531 17.16703125 2.48539062 18.4765625 2.83203125 C21.69179205 3.89783351 24.19687319 5.12587882 27 7 C24.3333581 8.33332095 22.83319697 7.67102033 20 7 C20 6.34 20 5.68 20 5 C18.7625 5.0928125 18.7625 5.0928125 17.5 5.1875 C13.81195488 4.98992615 11.33940502 4.10856513 7.96875 2.734375 C5.35964279 1.7611366 2.75537018 1.34442127 0 1 C0 0.67 0 0.34 0 0 Z " fill="#F5C52E" transform="translate(389,396)"/>
<path d="M0 0 C1 2 1 2 0.375 4.4375 C-1.29339248 7.5467769 -2.98887889 8.26860536 -6 10 C-7.32793606 12.06700655 -7.32793606 12.06700655 -8 14 C-9.65 14 -11.3 14 -13 14 C-12.34 13.360625 -11.68 12.72125 -11 12.0625 C-7.14346256 8.2170765 -3.59166578 4.09075581 0 0 Z " fill="#FCEBB5" transform="translate(429,369)"/>
<path d="M0 0 C0.33 0 0.66 0 1 0 C1.30744405 5.84143689 0.99438711 9.78397085 -2 15 C-4.19022211 17.20482359 -6.51292819 19.13980656 -9 21 C-9.66 20.67 -10.32 20.34 -11 20 C-10.278125 19.360625 -9.55625 18.72125 -8.8125 18.0625 C-3.92339608 13.15946701 -0.53452602 6.94883822 0 0 Z " fill="#F5C93E" transform="translate(182,456)"/>
<path d="M0 0 C0.33 1.32 0.66 2.64 1 4 C0.34 4 -0.32 4 -1 4 C-1.66 5.32 -2.32 6.64 -3 8 C-3.99 8 -4.98 8 -6 8 C-6.66 9.32 -7.32 10.64 -8 12 C-9.32 11.67 -10.64 11.34 -12 11 C-10.68 10.34 -9.36 9.68 -8 9 C-8 8.34 -8 7.68 -8 7 C-6.25 5.2734375 -6.25 5.2734375 -4 3.375 C-3.2575 2.74335938 -2.515 2.11171875 -1.75 1.4609375 C-1.1725 0.97882813 -0.595 0.49671875 0 0 Z " fill="#FBEEBB" transform="translate(640,497)"/>
<path d="M0 0 C2.14588166 3.21882249 3.39802343 6.45123086 4.6875 10.0625 C4.92533203 10.69994141 5.16316406 11.33738281 5.40820312 11.99414062 C6.00030023 13.64194167 6.50661705 15.31999984 7 17 C6.67 17.66 6.34 18.32 6 19 C2.17309999 16.44873333 2.24821485 15.03127626 1.3125 10.625 C1.06113281 9.48289062 0.80976562 8.34078125 0.55078125 7.1640625 C0 4 0 4 0 0 Z " fill="#DBE3EC" transform="translate(697,471)"/>
<path d="M0 0 C1.28432364 3.85297092 0.58019149 5.31288651 -1 9 C-3.125 11.375 -3.125 11.375 -5 13 C-6 11 -6 11 -5.546875 9.16015625 C-5.28390625 8.46792969 -5.0209375 7.77570313 -4.75 7.0625 C-4.37101563 6.02802734 -4.37101563 6.02802734 -3.984375 4.97265625 C-2.93145237 2.86263273 -1.74647864 1.5649626 0 0 Z " fill="#DBE0EA" transform="translate(950,430)"/>
<path d="M0 0 C0 0.66 0 1.32 0 2 C-0.61875 2.0825 -1.2375 2.165 -1.875 2.25 C-4.18437567 2.81258459 -4.18437567 2.81258459 -5.25 5.0625 C-5.4975 5.701875 -5.745 6.34125 -6 7 C-7.32 6.67 -8.64 6.34 -10 6 C-10 6.66 -10 7.32 -10 8 C-12.64 8.66 -15.28 9.32 -18 10 C-15.64804082 6.47206123 -14.84372084 6.4720633 -11 5 C-8.64078675 3.71018791 -6.31258319 2.37504837 -3.98828125 1.0234375 C-2 0 -2 0 0 0 Z " fill="#FCEFC2" transform="translate(416,383)"/>
<path d="M0 0 C0.66 0.33 1.32 0.66 2 1 C1.01 2.98 0.02 4.96 -1 7 C-0.113125 6.938125 0.77375 6.87625 1.6875 6.8125 C5.34485017 7.01951982 7.04777151 7.916074 10 10 C6.92478317 11.53760842 4.65324882 10.36599236 1.375 9.5625 C0.18648437 9.27503906 -1.00203125 8.98757813 -2.2265625 8.69140625 C-3.14179687 8.46324219 -4.05703125 8.23507812 -5 8 C-3.58208437 5.06553114 -2.01667393 2.56667591 0 0 Z " fill="#F3C63B" transform="translate(1214,262)"/>
<path d="M0 0 C-0.96673676 2.46263469 -1.53201573 3.73979298 -3.8828125 5.046875 C-9.13216083 6.69301211 -13.49888783 7.30006066 -19 7 C-15.24662343 4.97962096 -11.4310865 3.91326303 -7.33984375 2.78125 C-4.60176507 1.86703341 -2.91012123 0 0 0 Z " fill="#F6CD49" transform="translate(171,477)"/>
<path d="M0 0 C2.31058837 4.3130983 3.12898493 7.8783505 3.09765625 12.765625 C3.09443359 13.65507812 3.09121094 14.54453125 3.08789062 15.4609375 C3.07951172 16.38132812 3.07113281 17.30171875 3.0625 18.25 C3.05798828 19.18585938 3.05347656 20.12171875 3.04882812 21.0859375 C3.03706918 23.39069041 3.02063426 25.69531227 3 28 C2.67 28 2.34 28 2 28 C1.93941406 26.87980469 1.87882813 25.75960938 1.81640625 24.60546875 C1.73198576 23.13280016 1.64733851 21.66014456 1.5625 20.1875 C1.52318359 19.44951172 1.48386719 18.71152344 1.44335938 17.95117188 C1.25618965 14.76928658 1.01279207 12.03837622 0 9 C-0.06740865 7.43881572 -0.08514456 5.8749748 -0.0625 4.3125 C-0.05347656 3.50425781 -0.04445312 2.69601562 -0.03515625 1.86328125 C-0.02355469 1.24839844 -0.01195312 0.63351562 0 0 Z " fill="#F4C535" transform="translate(233,436)"/>
<path d="M0 0 C2.68893267 0.08771546 5.37485308 0.19467925 8.0625 0.3125 C9.19075195 0.34633789 9.19075195 0.34633789 10.34179688 0.38085938 C15.54835384 0.62879066 19.32467837 1.68407043 24 4 C20.76319429 5.04318738 18.54451583 4.92287835 15.234375 4.22265625 C13.90019531 3.94711914 13.90019531 3.94711914 12.5390625 3.66601562 C11.61867188 3.46685547 10.69828125 3.26769531 9.75 3.0625 C8.81414063 2.86720703 7.87828125 2.67191406 6.9140625 2.47070312 C4.60761973 1.98823295 2.303184 1.49775423 0 1 C0 0.67 0 0.34 0 0 Z " fill="#FDF2C1" transform="translate(580,276)"/>
<path d="M0 0 C4.40186607 0.73364434 7.64057902 1.48953224 10.6875 4.875 C11.98420532 6.97442767 12.46687812 8.6183901 13 11 C12.56429687 10.61328125 12.12859375 10.2265625 11.6796875 9.828125 C8.74229013 7.2594918 5.84286844 4.80917028 2.5625 2.6875 C1.716875 2.130625 0.87125 1.57375 0 1 C0 0.67 0 0.34 0 0 Z " fill="#FCEDBA" transform="translate(210,405)"/>
<path d="M0 0 C2.64 0 5.28 0 8 0 C8 0.66 8 1.32 8 2 C9.051875 1.87625 9.051875 1.87625 10.125 1.75 C13.92949327 2.0808255 15.98077266 3.75313314 19 6 C18.67 6.99 18.34 7.98 18 9 C17.2575 8.236875 16.515 7.47375 15.75 6.6875 C11.26480694 2.87400252 5.63560378 2.1216493 0 1 C0 0.67 0 0.34 0 0 Z " fill="#F6CA43" transform="translate(572,317)"/>
<path d="M0 0 C0.66 0 1.32 0 2 0 C2 0.66 2 1.32 2 2 C2.66 2 3.32 2 4 2 C4 2.99 4 3.98 4 5 C1.35541621 6.32229189 -0.67761301 6.09677194 -3.625 6.0625 C-4.62789062 6.05347656 -5.63078125 6.04445313 -6.6640625 6.03515625 C-7.43492188 6.02355469 -8.20578125 6.01195312 -9 6 C-8.67 5.34 -8.34 4.68 -8 4 C-5.93359375 3.5859375 -5.93359375 3.5859375 -3.4375 3.375 C-2.61121094 3.30023438 -1.78492188 3.22546875 -0.93359375 3.1484375 C0.02353516 3.07496094 0.02353516 3.07496094 1 3 C0.67 2.01 0.34 1.02 0 0 Z " fill="#FBECBA" transform="translate(1288,267)"/>
<path d="M0 0 C0.33 0 0.66 0 1 0 C1 5.61 1 11.22 1 17 C0.67 17 0.34 17 0 17 C-0.33 13.7 -0.66 10.4 -1 7 C-2.32 6.67 -3.64 6.34 -5 6 C-3.35830472 3.97945196 -1.69088222 1.97956942 0 0 Z " fill="#D0D8E5" transform="translate(1161,508)"/>
<path d="M0 0 C0.66 0 1.32 0 2 0 C4.27678571 8.03571429 4.27678571 8.03571429 3 12 C1.68 11.34 0.36 10.68 -1 10 C-0.67 6.7 -0.34 3.4 0 0 Z " fill="#C0CCDA" transform="translate(782,428)"/>
<path d="M0 0 C3.93766632 3.76646344 3.93766632 3.76646344 4.11352539 7.24658203 C4.10567017 8.61339111 4.10567017 8.61339111 4.09765625 10.0078125 C4.09443359 10.99394531 4.09121094 11.98007812 4.08789062 12.99609375 C4.07951172 14.02863281 4.07113281 15.06117188 4.0625 16.125 C4.05798828 17.16527344 4.05347656 18.20554687 4.04882812 19.27734375 C4.03701952 21.85161962 4.02055075 24.42578146 4 27 C3.67 27 3.34 27 3 27 C3 20.4 3 13.8 3 7 C2.34 7 1.68 7 1 7 C0.67 4.69 0.34 2.38 0 0 Z " fill="#FDF2CC" transform="translate(172,327)"/>
<path d="M0 0 C0.66 0.33 1.32 0.66 2 1 C-0.98127544 6.12779375 -4.03353764 8.75269769 -9 12 C-9.66 11.67 -10.32 11.34 -11 11 C-7.37 7.37 -3.74 3.74 0 0 Z " fill="#F8D155" transform="translate(1235,241)"/>
<path d="M0 0 C0.99 0 1.98 0 3 0 C3.26554687 0.63808594 3.53109375 1.27617187 3.8046875 1.93359375 C4.15789062 2.75988281 4.51109375 3.58617187 4.875 4.4375 C5.39707031 5.67306641 5.39707031 5.67306641 5.9296875 6.93359375 C6.8244937 9.15746715 6.8244937 9.15746715 9 10 C9.40729228 12.32156597 9.74438677 14.6568787 10 17 C6.50489593 15.25244797 6.0787177 11.23177991 4.875 7.6875 C4.58625 6.800625 4.2975 5.91375 4 5 C3.34 5 2.68 5 2 5 C1.34 3.35 0.68 1.7 0 0 Z " fill="#FDEBAF" transform="translate(424,301)"/>
<path d="M0 0 C0.66 0.33 1.32 0.66 2 1 C2.59355614 3.64860427 2.74209269 6.29197322 3 9 C3.66 9 4.32 9 5 9 C4.67 9.66 4.34 10.32 4 11 C1.06799526 8.14723863 -1.64315404 5.34920216 -4 2 C-2.125 0.9375 -2.125 0.9375 0 0 Z " fill="#FAF5DA" transform="translate(1259,230)"/>
<path d="M0 0 C0.33 0 0.66 0 1 0 C2.3442623 5.37704918 2.3442623 5.37704918 0.6875 8.375 C-1 10 -1 10 -3 10 C-3 11.32 -3 12.64 -3 14 C-3.66 14 -4.32 14 -5 14 C-3.70022952 9.1008651 -2.07626313 4.62440425 0 0 Z " fill="#FCF0C5" transform="translate(652,476)"/>
<path d="M0 0 C9.41002278 -0.3690205 9.41002278 -0.3690205 14 2 C14 2.66 14 3.32 14 4 C15.32 4.33 16.64 4.66 18 5 C18 5.66 18 6.32 18 7 C15.14994834 5.87725238 12.35246735 4.70566698 9.5625 3.4375 C6.2994812 2.12084329 3.47611149 1.42391604 0 1 C0 0.67 0 0.34 0 0 Z " fill="#F4C734" transform="translate(154,417)"/>
<path d="M0 0 C2.02045442 0.60183749 4.02111039 1.27306096 6 2 C6.33 2.66 6.66 3.32 7 4 C6.01 5.32 5.02 6.64 4 8 C3 5 3 5 4 2 C3.34 2 2.68 2 2 2 C1.896875 2.61875 1.79375 3.2375 1.6875 3.875 C1 6 1 6 -2 8 C-1.67 7.05125 -1.34 6.1025 -1 5.125 C0.10159191 2.22937548 0.10159191 2.22937548 0 0 Z " fill="#354669" transform="translate(1027,493)"/>
<path d="M0 0 C0.33 0 0.66 0 1 0 C1.37711099 6.15947951 1.00477144 10.54689627 -2 16 C-2.99 16.66 -3.98 17.32 -5 18 C-4.80664062 17.3709375 -4.61328125 16.741875 -4.4140625 16.09375 C-2.7907875 10.75783615 -1.30539435 5.42240732 0 0 Z " fill="#FDEDB8" transform="translate(234,468)"/>
<path d="M0 0 C0.99 0.66 1.98 1.32 3 2 C3 2.66 3 3.32 3 4 C2.34 4 1.68 4 1 4 C1 4.66 1 5.32 1 6 C0.01 6.495 0.01 6.495 -1 7 C-1.90343684 8.88263881 -1.90343684 8.88263881 -2.625 11.0625 C-2.88539062 11.79597656 -3.14578125 12.52945312 -3.4140625 13.28515625 C-3.60742188 13.85105469 -3.80078125 14.41695313 -4 15 C-5.11346788 12.19966161 -5.03510273 11.09856297 -4.00390625 8.203125 C-3.52824219 7.22859375 -3.05257813 6.2540625 -2.5625 5.25 C-2.08941406 4.26515625 -1.61632813 3.2803125 -1.12890625 2.265625 C-0.75636719 1.51796875 -0.38382813 0.7703125 0 0 Z " fill="#D3DAE8" transform="translate(1104,435)"/>
<path d="M0 0 C1.32 0.33 2.64 0.66 4 1 C2.02 3.31 0.04 5.62 -2 8 C-3.32 7.67 -4.64 7.34 -6 7 C-4.02 4.69 -2.04 2.38 0 0 Z " fill="#DDE3ED" transform="translate(1111,427)"/>
<path d="M0 0 C0.8971875 0.309375 0.8971875 0.309375 1.8125 0.625 C0.11057615 1.6152653 -1.59938011 2.59173206 -3.3125 3.5625 C-4.26382812 4.10777344 -5.21515625 4.65304687 -6.1953125 5.21484375 C-9.25006432 6.65448527 -11.84884387 7.23367384 -15.1875 7.625 C-15.1875 6.965 -15.1875 6.305 -15.1875 5.625 C-14.15689453 5.22667969 -14.15689453 5.22667969 -13.10546875 4.8203125 C-12.20441406 4.46710937 -11.30335938 4.11390625 -10.375 3.75 C-9.48167969 3.40195312 -8.58835937 3.05390625 -7.66796875 2.6953125 C-1.01735075 -0.17440299 -1.01735075 -0.17440299 0 0 Z " fill="#F3C738" transform="translate(415.1875,509.375)"/>
<path d="M0 0 C0.33 0 0.66 0 1 0 C1.33 3.63 1.66 7.26 2 11 C1.01 11 0.02 11 -1 11 C-1.66 11.66 -2.32 12.32 -3 13 C-2.343621 8.51474352 -1.29925791 4.33085971 0 0 Z " fill="#FEF0C6" transform="translate(444,469)"/>
<path d="M0 0 C3.27742098 3.10026309 5.93104837 5.97098894 8 10 C8 10.66 8 11.32 8 12 C6 12 6 12 4 10.5 C1.28752577 7.10940721 0.84785003 4.23925015 0 0 Z " fill="#F5CA44" transform="translate(433,417)"/>
<path d="M0 0 C0.99 0.33 1.98 0.66 3 1 C2.67 1.33 2.34 1.66 2 2 C7.445 3.485 7.445 3.485 13 5 C13 5.33 13 5.66 13 6 C8.07872966 6.16682272 4.49656104 6.24828052 0 4 C0 2.68 0 1.36 0 0 Z " fill="#F7D153" transform="translate(599,392)"/>
<path d="M0 0 C-0.33 1.98 -0.66 3.96 -1 6 C-7.75 5.25 -7.75 5.25 -10 3 C-8.70990357 2.49596232 -7.41786211 1.99690074 -6.125 1.5 C-5.04605469 1.08234375 -5.04605469 1.08234375 -3.9453125 0.65625 C-2 0 -2 0 0 0 Z " fill="#2E3F68" transform="translate(1469,393)"/>
<path d="M0 0 C-4.61805085 3.23263559 -9.63214705 4.53035482 -15 6 C-13.66796875 4.015625 -13.66796875 4.015625 -12 2 C-9.3125 1.75 -9.3125 1.75 -7 2 C-7 1.34 -7 0.68 -7 0 C-2.25 -1.125 -2.25 -1.125 0 0 Z " fill="#F5C736" transform="translate(201,513)"/>
<path d="M0 0 C1.65 0 3.3 0 5 0 C5.66 2.64 6.32 5.28 7 8 C7.66 8 8.32 8 9 8 C9 8.66 9 9.32 9 10 C4.50486731 8.50162244 2.37078067 4.87680938 0 1 C0 0.67 0 0.34 0 0 Z " fill="#344566" transform="translate(1073,506)"/>
<path d="M0 0 C3.37705625 0.53725895 6.696686 1.11064623 10 2 C10 2.66 10 3.32 10 4 C10.99 4.33 11.98 4.66 13 5 C10.50907189 6.24546405 9.58919267 5.7767578 7 5 C7 4.34 7 3.68 7 3 C5.35 3.33 3.7 3.66 2 4 C2 3.01 2 2.02 2 1 C1.34 0.67 0.68 0.34 0 0 Z " fill="#FBF1CB" transform="translate(370,420)"/>
<path d="M0 0 C-0.66 0.66 -1.32 1.32 -2 2 C-2.99 2 -3.98 2 -5 2 C-5 2.66 -5 3.32 -5 4 C-7.97 4 -10.94 4 -14 4 C-11.37350692 2.24900461 -9.38191413 1.30690675 -6.4375 0.3125 C-5.65246094 0.04050781 -4.86742187 -0.23148437 -4.05859375 -0.51171875 C-2 -1 -2 -1 0 0 Z " fill="#FDEEBF" transform="translate(616,389)"/>
<path d="M0 0 C0.33 0 0.66 0 1 0 C1.1953125 6.0546875 1.1953125 6.0546875 1 8 C0.34 8.66 -0.32 9.32 -1 10 C-1.71408334 11.98356483 -2.38617742 13.98315437 -3 16 C-4.57159226 12.85681547 -3.04018399 10.07066611 -2.0625 6.875 C-1.86720703 6.21628906 -1.67191406 5.55757813 -1.47070312 4.87890625 C-0.98695014 3.25066448 -0.49430925 1.62506818 0 0 Z " fill="#576580" transform="translate(852,402)"/>
<path d="M0 0 C1.22589844 0.01353516 1.22589844 0.01353516 2.4765625 0.02734375 C3.41628906 0.04474609 3.41628906 0.04474609 4.375 0.0625 C4.375 0.3925 4.375 0.7225 4.375 1.0625 C2.395 1.3925 0.415 1.7225 -1.625 2.0625 C-1.625 3.0525 -1.625 4.0425 -1.625 5.0625 C-3.275 4.7325 -4.925 4.4025 -6.625 4.0625 C-6.625 3.0725 -6.625 2.0825 -6.625 1.0625 C-4.21954362 -0.14022819 -2.67503047 -0.03821472 0 0 Z " fill="#F9C625" transform="translate(600.625,390.9375)"/>
<path d="M0 0 C3.63 0 7.26 0 11 0 C11 0.33 11 0.66 11 1 C5.16200408 2.69832609 0.06892629 3.25287193 -6 3 C-6 2.67 -6 2.34 -6 2 C-4.02 2 -2.04 2 0 2 C0 1.34 0 0.68 0 0 Z " fill="#FDF2CB" transform="translate(570,371)"/>
<path d="M0 0 C-2 3 -2 3 -4.1875 3.6875 C-7.47696816 4.05299646 -10.69296984 4.06484373 -14 4 C-11.37350692 2.24900461 -9.38191413 1.30690675 -6.4375 0.3125 C-5.65246094 0.04050781 -4.86742187 -0.23148437 -4.05859375 -0.51171875 C-2 -1 -2 -1 0 0 Z " fill="#F6CA42" transform="translate(587,370)"/>
<path d="M0 0 C-4.6154263 3.38464596 -9.48086654 4.08907506 -15 5 C-13.54341873 2.08683746 -11.63839986 1.90792226 -8.625 0.8125 C-7.15933594 0.26529297 -7.15933594 0.26529297 -5.6640625 -0.29296875 C-3 -1 -3 -1 0 0 Z " fill="#FDEDB2" transform="translate(377,369)"/>
<path d="M0 0 C2.475 0.495 2.475 0.495 5 1 C5 1.66 5 2.32 5 3 C6.32 3.33 7.64 3.66 9 4 C9.33 5.65 9.66 7.3 10 9 C8.70391053 8.06862408 7.41328368 7.1296434 6.125 6.1875 C5.40570312 5.66542969 4.68640625 5.14335937 3.9453125 4.60546875 C2 3 2 3 0 0 Z " fill="#FDEDBE" transform="translate(622,290)"/>
<path d="M0 0 C0.66 0 1.32 0 2 0 C1.01 2.97 0.02 5.94 -1 9 C-2.98 9 -4.96 9 -7 9 C-7 8.67 -7 8.34 -7 8 C-5.35 8 -3.7 8 -2 8 C-2.04125 7.05125 -2.0825 6.1025 -2.125 5.125 C-2 2 -2 2 0 0 Z " fill="#293B5D" transform="translate(852,515)"/>
<path d="M0 0 C0.99 0.495 0.99 0.495 2 1 C2 1.99 2 2.98 2 4 C2.66 4 3.32 4 4 4 C4.103125 4.61875 4.20625 5.2375 4.3125 5.875 C4.87525373 8.36526484 4.87525373 8.36526484 8 10 C6.02 10 4.04 10 2 10 C1.34 6.7 0.68 3.4 0 0 Z " fill="#304060" transform="translate(808,514)"/>
<path d="M0 0 C0.33 0.66 0.66 1.32 1 2 C0.07421875 4.12890625 0.07421875 4.12890625 -1.3125 6.5625 C-1.98732422 7.77099609 -1.98732422 7.77099609 -2.67578125 9.00390625 C-4 11 -4 11 -6 12 C-5.57405412 10.55903414 -5.13373367 9.12231288 -4.6875 7.6875 C-4.44386719 6.88699219 -4.20023438 6.08648437 -3.94921875 5.26171875 C-2.95817977 2.90035427 -1.91925057 1.66120007 0 0 Z " fill="#DEE5F1" transform="translate(1447,431)"/>
<path d="M0 0 C-0.33 0.99 -0.66 1.98 -1 3 C-5.95 3 -10.9 3 -16 3 C-16 2.67 -16 2.34 -16 2 C-14.95199219 1.90912109 -14.95199219 1.90912109 -13.8828125 1.81640625 C-12.97273437 1.73261719 -12.06265625 1.64882813 -11.125 1.5625 C-10.22007812 1.48128906 -9.31515625 1.40007812 -8.3828125 1.31640625 C-5.06587257 0.87596013 -3.58757064 0 0 0 Z " fill="#F9CD4A" transform="translate(160,372)"/>
<path d="M0 0 C0 3.72038015 -0.90324391 4.44902879 -3.3125 7.1875 C-3.92738281 7.90292969 -4.54226563 8.61835938 -5.17578125 9.35546875 C-7 11 -7 11 -10 11 C-10 10.34 -10 9.68 -10 9 C-8.3203125 7.34375 -8.3203125 7.34375 -6.125 5.5 C-4.00964496 3.71066742 -1.95980876 1.95980876 0 0 Z " fill="#FCE49F" transform="translate(432,495)"/>
<path d="M0 0 C7.38461538 0.49230769 7.38461538 0.49230769 10.5 3.0625 C10.995 3.701875 11.49 4.34125 12 5 C7.61110675 4.33501617 4.0188515 2.81242323 0 1 C0 0.67 0 0.34 0 0 Z " fill="#FDEFC0" transform="translate(617,399)"/>
<path d="M0 0 C0.66 0 1.32 0 2 0 C1.34 2.97 0.68 5.94 0 9 C-2 6 -2 6 -1.6875 3.375 C-1 1 -1 1 0 0 Z " fill="#DBE3ED" transform="translate(845,420)"/>
<path d="M0 0 C-7.625 2 -7.625 2 -11 2 C-11 2.66 -11 3.32 -11 4 C-11.66 4 -12.32 4 -13 4 C-12.67 2.68 -12.34 1.36 -12 0 C-10.56359829 -0.19573608 -9.12580496 -0.38127816 -7.6875 -0.5625 C-6.88699219 -0.66691406 -6.08648437 -0.77132813 -5.26171875 -0.87890625 C-3 -1 -3 -1 0 0 Z " fill="#F7C837" transform="translate(189,391)"/>
<path d="M0 0 C0.99 0.33 1.98 0.66 3 1 C3 1.66 3 2.32 3 3 C1.02 3.99 -0.96 4.98 -3 6 C-3 5.34 -3 4.68 -3 4 C-3.66 3.67 -4.32 3.34 -5 3 C-2.6875 1.4375 -2.6875 1.4375 0 0 Z " fill="#DFE5EC" transform="translate(1010,520)"/>
<path d="M0 0 C3.73639216 1.24546405 4.18756513 2.63404953 6 6 C5.01 6.495 5.01 6.495 4 7 C4 6.34 4 5.68 4 5 C2.35 4.67 0.7 4.34 -1 4 C-0.67 2.68 -0.34 1.36 0 0 Z " fill="#E8EDF4" transform="translate(914,502)"/>
<path d="M0 0 C-2.73704754 2.73704754 -5.26044774 3.16182449 -9 4 C-11.2265625 3.55078125 -11.2265625 3.55078125 -13 3 C-11.5903653 2.29819469 -10.17192359 1.61406042 -8.75 0.9375 C-7.96109375 0.55464844 -7.1721875 0.17179687 -6.359375 -0.22265625 C-3.74006478 -1.08564091 -2.55144824 -0.93045933 0 0 Z " fill="#54647E" transform="translate(997,492)"/>
<path d="M0 0 C0.66 0 1.32 0 2 0 C3.32 2.31 4.64 4.62 6 7 C4.35 6.67 2.7 6.34 1 6 C1 5.34 1 4.68 1 4 C0.34 3.67 -0.32 3.34 -1 3 C-0.67 2.01 -0.34 1.02 0 0 Z " fill="#38486A" transform="translate(1101,480)"/>
<path d="M0 0 C0.33 1.32 0.66 2.64 1 4 C0.34 4 -0.32 4 -1 4 C-0.67 5.32 -0.34 6.64 0 8 C-1.98 8.99 -1.98 8.99 -4 10 C-3.52449439 8.51965236 -3.04448784 7.04074979 -2.5625 5.5625 C-2.29566406 4.73878906 -2.02882813 3.91507812 -1.75390625 3.06640625 C-1 1 -1 1 0 0 Z " fill="#445272" transform="translate(913,424)"/>
<path d="M0 0 C0.66 0.33 1.32 0.66 2 1 C-0.97 5.95 -0.97 5.95 -4 11 C-4.33 9.68 -4.66 8.36 -5 7 C-4.34 7 -3.68 7 -3 7 C-2.87625 6.21625 -2.7525 5.4325 -2.625 4.625 C-2 2 -2 2 0 0 Z " fill="#DFE8F2" transform="translate(916,416)"/>
<path d="M0 0 C0.33 0 0.66 0 1 0 C1.45732667 5.71658336 0.52273754 8.48649253 -3 13 C-4 11 -4 11 -3.22265625 8.3984375 C-2.83980469 7.40070313 -2.45695313 6.40296875 -2.0625 5.375 C-1.68222656 4.37210937 -1.30195312 3.36921875 -0.91015625 2.3359375 C-0.60980469 1.56507813 -0.30945313 0.79421875 0 0 Z " fill="#CDD6E3" transform="translate(888,416)"/>
<path d="M0 0 C0.98120464 3.05263664 0.98120464 4.94736336 0 8 C-1.65 6.02 -3.3 4.04 -5 2 C-3.35 1.34 -1.7 0.68 0 0 Z " fill="#FBF3DB" transform="translate(1277,248)"/>
<path d="M0 0 C4.92127034 -0.16682272 8.50343896 -0.24828052 13 2 C13 2.33 13 2.66 13 3 C10.36 3 7.72 3 5 3 C5 2.34 5 1.68 5 1 C3.35 1 1.7 1 0 1 C0 0.67 0 0.34 0 0 Z " fill="#F7C734" transform="translate(1232,521)"/>
<path d="M0 0 C0.66 0 1.32 0 2 0 C0.52307692 5.66153846 0.52307692 5.66153846 -2.125 7.375 C-3.053125 7.684375 -3.053125 7.684375 -4 8 C-2.87548273 5.0280615 -1.77706209 2.66559313 0 0 Z " fill="#FAE392" transform="translate(226,488)"/>
<path d="M0 0 C1.74565111 3.21639654 2.204437 5.32013404 2 9 C2.66 9 3.32 9 4 9 C3.67 10.98 3.34 12.96 3 15 C1.08697693 11.73386305 0.64325339 9.00554752 0.375 5.25 C0.30023437 4.26515625 0.22546875 3.2803125 0.1484375 2.265625 C0.09945312 1.51796875 0.05046875 0.7703125 0 0 Z " fill="#DFE9F5" transform="translate(825,471)"/>
<path d="M0 0 C-5.41538462 4.06153846 -5.41538462 4.06153846 -8.375 3.75 C-8.91125 3.5025 -9.4475 3.255 -10 3 C-4.37755102 -1.45918367 -4.37755102 -1.45918367 0 0 Z " fill="#E3E9F2" transform="translate(1464,423)"/>
<path d="M0 0 C3 1 3 1 4.1875 2.75 C5.10819096 5.29960574 5.14948718 7.30923081 5 10 C2.35534962 6.8745041 1.15585285 3.91211733 0 0 Z " fill="#FDECB5" transform="translate(228,422)"/>
<path d="M0 0 C0.99 0 1.98 0 3 0 C3.33 2.31 3.66 4.62 4 7 C3.34 6.67 2.68 6.34 2 6 C2 5.34 2 4.68 2 4 C0.68 3.34 -0.64 2.68 -2 2 C-1.34 1.34 -0.68 0.68 0 0 Z " fill="#FDF1D9" transform="translate(640,410)"/>
<path d="M0 0 C0.66 0.33 1.32 0.66 2 1 C0.02 3.97 0.02 3.97 -2 7 C-2.33 6.34 -2.66 5.68 -3 5 C-4.32 5.33 -5.64 5.66 -7 6 C-4.74259377 3.66475218 -2.7194239 1.81294927 0 0 Z " fill="#425372" transform="translate(1090,396)"/>
<path d="M0 0 C0 4.24645065 -1.81750806 6.38524772 -4 10 C-4.33 10 -4.66 10 -5 10 C-5 8.35 -5 6.7 -5 5 C-4.01 5 -3.02 5 -2 5 C-2 3.68 -2 2.36 -2 1 C-1.34 0.67 -0.68 0.34 0 0 Z " fill="#F4C42B" transform="translate(641,363)"/>
<path d="M0 0 C3.375 0.3125 3.375 0.3125 7 1 C7.66 1.99 8.32 2.98 9 4 C7.02 4.33 5.04 4.66 3 5 C3 4.34 3 3.68 3 3 C1.54166642 1.37485532 1.54166642 1.37485532 0 0 Z " fill="#FCF1C9" transform="translate(577,319)"/>
<path d="M0 0 C3.66881155 0.70554068 6.70450534 2.27735506 10 4 C6.20720018 5.26426661 4.65934648 4.40145184 1 3 C0.34 2.67 -0.32 2.34 -1 2 C-0.67 1.34 -0.34 0.68 0 0 Z " fill="#4C5A73" transform="translate(1003,481)"/>
<path d="M0 0 C2.6875 -0.3125 2.6875 -0.3125 5 0 C2.47211993 2.79872437 0.79588866 4.45773019 -3 5 C-1.8125 2.5 -1.8125 2.5 0 0 Z " fill="#F5C123" transform="translate(413,380)"/>
<path d="M0 0 C2.7972908 2.06756277 3.02692273 3.14440371 3.6875 6.6875 C3.790625 7.780625 3.89375 8.87375 4 10 C1 8 1 8 0.48828125 6.0546875 C0.32552083 4.03645833 0.16276042 2.01822917 0 0 Z " fill="#F4CB46" transform="translate(432,317)"/>
<path d="M0 0 C6.64615385 1.47692308 6.64615385 1.47692308 8.4375 4.125 C8.7159375 5.053125 8.7159375 5.053125 9 6 C7.35 5.67 5.7 5.34 4 5 C4 4.01 4 3.02 4 2 C2.68 1.67 1.36 1.34 0 1 C0 0.67 0 0.34 0 0 Z " fill="#FDEAB1" transform="translate(1217,271)"/>
<path d="M0 0 C0.66 0.33 1.32 0.66 2 1 C-2.296875 5.00390625 -2.296875 5.00390625 -4 6 C-6.203125 5.65234375 -6.203125 5.65234375 -8 5 C-6.71475739 4.13619741 -5.42157581 3.28419631 -4.125 2.4375 C-3.04605469 1.72400391 -3.04605469 1.72400391 -1.9453125 0.99609375 C-1.30335938 0.66738281 -0.66140625 0.33867187 0 0 Z " fill="#FDEBB1" transform="translate(206,509)"/>
<path d="M0 0 C0.33 0 0.66 0 1 0 C3.27678571 8.03571429 3.27678571 8.03571429 2 12 C1.67 10.35 1.34 8.7 1 7 C0.34 7 -0.32 7 -1 7 C-0.67 4.69 -0.34 2.38 0 0 Z " fill="#C2CBDA" transform="translate(1061,477)"/>
<path d="M0 0 C1.39195915 4.17587745 -0.17676781 6.13474776 -2 10 C-2.33 10 -2.66 10 -3 10 C-3 8.35 -3 6.7 -3 5 C-2.34 5 -1.68 5 -1 5 C-0.67 3.35 -0.34 1.7 0 0 Z " fill="#FEF2C9" transform="translate(600,459)"/>
<path d="M0 0 C2 1.5625 2 1.5625 4 4 C4.25 7.75 4.25 7.75 4 11 C1.54176828 7.31265242 0.98757384 4.30300029 0 0 Z " fill="#B5C0D0" transform="translate(720,421)"/>
<path d="M0 0 C3.29148243 1.13499394 3.9959869 1.99283376 5.75 5.125 C6.1625 6.07375 6.575 7.0225 7 8 C6.34 8 5.68 8 5 8 C5 7.34 5 6.68 5 6 C4.360625 5.7525 3.72125 5.505 3.0625 5.25 C1 4 1 4 0.25 1.875 C0.1675 1.25625 0.085 0.6375 0 0 Z " fill="#F5C83A" transform="translate(638,412)"/>
<path d="M0 0 C6.625 0.75 6.625 0.75 10 3 C10 3.66 10 4.32 10 5 C6.08788267 3.84414715 3.1254959 2.64465038 0 0 Z " fill="#FEEFBD" transform="translate(200,400)"/>
<path d="M0 0 C0 0.33 0 0.66 0 1 C-0.969375 1.12375 -1.93875 1.2475 -2.9375 1.375 C-4.4534375 1.684375 -4.4534375 1.684375 -6 2 C-6.33 2.66 -6.66 3.32 -7 4 C-7.99 4 -8.98 4 -10 4 C-10 3.01 -10 2.02 -10 1 C-6.78548731 -0.60725635 -3.56387464 -0.05748185 0 0 Z " fill="#FAC629" transform="translate(395,391)"/>
<path d="M0 0 C0.66 0 1.32 0 2 0 C1.875 1.875 1.875 1.875 1 4 C-2.0625 5.25 -2.0625 5.25 -5 6 C-3.625 4 -3.625 4 -2 2 C-1.34 2 -0.68 2 0 2 C0 1.34 0 0.68 0 0 Z " fill="#FCE6A6" transform="translate(632,376)"/>
<path d="M0 0 C7.75 1.625 7.75 1.625 10 5 C6.7 4.01 3.4 3.02 0 2 C0 1.34 0 0.68 0 0 Z " fill="#FEEDB6" transform="translate(368,319)"/>
<path d="M0 0 C0.33 0.66 0.66 1.32 1 2 C2.86492402 2.38995102 2.86492402 2.38995102 5 2.5 C7.1875 2.65625 7.1875 2.65625 9 3 C9.33 3.66 9.66 4.32 10 5 C6.14354879 5.22036864 3.50776784 4.60355101 0 3 C0 2.01 0 1.02 0 0 Z " fill="#FCF3CA" transform="translate(1208,268)"/>
<path d="M0 0 C0.33 0.66 0.66 1.32 1 2 C1.66 2.33 2.32 2.66 3 3 C0.03 5.475 0.03 5.475 -3 8 C-3 7.01 -3 6.02 -3 5 C-2.34 5 -1.68 5 -1 5 C-1.33 4.01 -1.66 3.02 -2 2 C-1.34 2 -0.68 2 0 2 C0 1.34 0 0.68 0 0 Z " fill="#FCF6E6" transform="translate(1245,226)"/>
<path d="M0 0 C3.26954202 0.56371414 4.82575883 1.49962266 7 4 C6.01 4.495 6.01 4.495 5 5 C2.375 3.6875 2.375 3.6875 0 2 C0 1.34 0 0.68 0 0 Z " fill="#475574" transform="translate(935,519)"/>
<path d="M0 0 C0.66 1.32 1.32 2.64 2 4 C0.35 4.66 -1.3 5.32 -3 6 C-2.42655063 3.13275314 -2.1385485 2.1385485 0 0 Z " fill="#34446D" transform="translate(1146,518)"/>
<path d="M0 0 C1.98 1.65 3.96 3.3 6 5 C3 6 3 6 0 5 C0 3.35 0 1.7 0 0 Z " fill="#D6DEEA" transform="translate(922,510)"/>
<path d="M0 0 C0.66 0 1.32 0 2 0 C1.34 2.31 0.68 4.62 0 7 C-0.66 7 -1.32 7 -2 7 C-2.33 5.68 -2.66 4.36 -3 3 C-2.01 2.67 -1.02 2.34 0 2 C0 1.34 0 0.68 0 0 Z " fill="#2C3D61" transform="translate(861,489)"/>
<path d="M0 0 C1.32 1.32 2.64 2.64 4 4 C3.01 4.495 3.01 4.495 2 5 C1.67 5.99 1.34 6.98 1 8 C0.34 7.67 -0.32 7.34 -1 7 C-0.67 4.69 -0.34 2.38 0 0 Z " fill="#30456B" transform="translate(1155,406)"/>
<path d="M0 0 C1.32 0.33 2.64 0.66 4 1 C1.03 3.475 1.03 3.475 -2 6 C-2 3 -2 3 0 0 Z " fill="#D8E1EB" transform="translate(920,410)"/>
</svg>
