<?xml version="1.0" encoding="UTF-8"?>
<svg version="1.1" xmlns="http://www.w3.org/2000/svg" width="225" height="225">
<path d="M0 0 C74.25 0 148.5 0 225 0 C225 74.25 225 148.5 225 225 C150.75 225 76.5 225 0 225 C0 150.75 0 76.5 0 0 Z " fill="#612F87" transform="translate(0,0)"/>
<path d="M0 0 C6.86659233 6.71400139 7.94145228 13.75440611 8.125 23.125 C8.07132166 30.93903196 6.74011827 35.49709081 1.5625 41.25 C0.985 41.745 0.4075 42.24 -0.1875 42.75 C0.8025 43.41 1.7925 44.07 2.8125 44.75 C2.8125 45.41 2.8125 46.07 2.8125 46.75 C3.410625 46.915 4.00875 47.08 4.625 47.25 C8.00898456 49.57044655 8.84076397 52.91915452 9.8125 56.75 C10.22508458 60.53091532 10.23247193 64.2623723 10.1875 68.0625 C10.19910156 69.03123047 10.21070313 69.99996094 10.22265625 70.99804688 C10.18935358 79.31816503 9.48723016 88.23412441 3.75 94.6875 C-8.42801287 103.88671835 -34.51123522 105.75 -49.1875 105.75 C-49.1875 104.43 -49.1875 103.11 -49.1875 101.75 C-51.1675 102.245 -51.1675 102.245 -53.1875 102.75 C-53.1875 68.76 -53.1875 34.77 -53.1875 -0.25 C-11.44264403 -8.07716049 -11.44264403 -8.07716049 0 0 Z " fill="#FDFDFC" transform="translate(67.1875,73.25)"/>
<path d="M0 0 C0.71003174 -0.02594238 1.42006348 -0.05188477 2.15161133 -0.07861328 C7.29512628 -0.09687212 10.06704818 1.22902107 14.0625 4.375 C14.949375 5.014375 15.83625 5.65375 16.75 6.3125 C20.95906139 10.06652772 22.83417841 14.11242291 23.22363281 19.67749023 C23.26907159 22.38928711 23.29770985 25.10035538 23.3125 27.8125 C23.333125 28.75416016 23.35375 29.69582031 23.375 30.66601562 C23.41031395 36.92099872 22.65276067 40.37029762 18.5 45.1875 C17.0625 46.375 17.0625 46.375 15.0625 46.375 C15.805 47.096875 16.5475 47.81875 17.3125 48.5625 C25.33654859 56.76891333 25.26887799 62.35457585 25.3125 73.5 C25.333125 74.79421875 25.35375 76.0884375 25.375 77.421875 C25.40947163 85.88466121 25.29525364 93.4432726 19.75 100.1875 C10.09362103 107.07318575 -4.85741052 107.61389303 -16.3125 109.125 C-17.93502331 109.34672537 -19.55742038 109.5693766 -21.1796875 109.79296875 C-25.09759069 110.33095559 -29.01696844 110.8565297 -32.9375 111.375 C-32.9375 110.055 -32.9375 108.735 -32.9375 107.375 C-34.2575 107.375 -35.5775 107.375 -36.9375 107.375 C-36.96062079 94.09312591 -36.97841374 80.81125657 -36.98931217 67.52936649 C-36.99454158 61.3627508 -37.00164027 55.19614882 -37.01293945 49.02954102 C-37.02376629 43.08383994 -37.0297764 37.13815211 -37.03237724 31.19244194 C-37.03423186 28.91853057 -37.03785317 26.64461996 -37.04323006 24.37071419 C-37.05043778 21.1977288 -37.05149106 18.02479883 -37.05102539 14.85180664 C-37.05462067 13.90162659 -37.05821594 12.95144653 -37.06192017 11.97247314 C-37.05155216 5.48905216 -37.05155216 5.48905216 -35.9375 4.375 C-33.86133414 4.01797148 -31.77568088 3.7157708 -29.6875 3.4375 C-24.97551183 2.8051141 -20.30475937 2.08419225 -15.625 1.25 C-10.40833165 0.45532325 -5.26863884 0.10100352 0 0 Z " fill="#FEFDFD" transform="translate(118.9375,57.625)"/>
<path d="M0 0 C-0.33 0.99 -0.66 1.98 -1 3 C0.32 3 1.64 3 3 3 C1.02736615 12.53439694 -1.72704981 21.8281683 -4.55859375 31.13671875 C-4.82768555 32.02383545 -5.09677734 32.91095215 -5.37402344 33.82495117 C-5.90618645 35.57492421 -6.44185444 37.3238362 -6.98144531 39.0715332 C-9.50725208 47.36602576 -10.22498082 52.61481434 -7.625 60.9375 C-7.07268399 62.78638884 -6.52061749 64.63535223 -5.96875 66.484375 C-5.659375 67.50466797 -5.35 68.52496094 -5.03125 69.57617188 C-3.22770704 75.56407113 -1.48544877 81.56981784 0.25958252 87.57498169 C0.87067662 89.67265932 1.48645349 91.76891755 2.10302734 93.86499023 C2.48285105 95.16386943 2.86257572 96.4627776 3.2421875 97.76171875 C3.5810498 98.91631592 3.91991211 100.07091309 4.26904297 101.26049805 C5 104 5 104 5 106 C1.62601911 106.50704109 -1.74932621 107.00436536 -5.125 107.5 C-6.07632813 107.64308594 -7.02765625 107.78617187 -8.0078125 107.93359375 C-12.71194706 108.61961337 -17.2304257 109.19271007 -22 109 C-22 108.01 -22 107.02 -22 106 C-22.99 106 -23.98 106 -25 106 C-27.475 96.595 -27.475 96.595 -30 87 C-30.33 94.92 -30.66 102.84 -31 111 C-33.990625 111.495 -36.98125 111.99 -40.0625 112.5 C-40.99070557 112.65662109 -41.91891113 112.81324219 -42.87524414 112.97460938 C-47.65293492 113.74647266 -52.16126431 114.15757077 -57 114 C-57 113.01 -57 112.02 -57 111 C-57.99 111 -58.98 111 -60 111 C-60 77.01 -60 43.02 -60 8 C-42 5.75 -42 5.75 -35 5 C-35 5.99 -35 6.98 -35 8 C-33.68 8 -32.36 8 -31 8 C-30.505 16.415 -30.505 16.415 -30 25 C-29.65066406 23.57945313 -29.30132812 22.15890625 -28.94140625 20.6953125 C-28.48189477 18.83851099 -28.02225258 16.98174183 -27.5625 15.125 C-27.33240234 14.18785156 -27.10230469 13.25070313 -26.86523438 12.28515625 C-26.64287109 11.38925781 -26.42050781 10.49335937 -26.19140625 9.5703125 C-25.98717041 8.74289551 -25.78293457 7.91547852 -25.57250977 7.06298828 C-25 5 -25 5 -24 3 C-21.46588893 2.34930953 -19.00782364 1.82682371 -16.4375 1.375 C-15.74591797 1.2409375 -15.05433594 1.106875 -14.34179688 0.96875 C-9.49498966 0.0834059 -4.92494002 -0.12187703 0 0 Z " fill="#FEFDFC" transform="translate(210,44)"/>
<path d="M0 0 C1.32 0 2.64 0 4 0 C2.02736615 9.53439694 -0.72704981 18.8281683 -3.55859375 28.13671875 C-3.82768555 29.02383545 -4.09677734 29.91095215 -4.37402344 30.82495117 C-4.90618645 32.57492421 -5.44185444 34.3238362 -5.98144531 36.0715332 C-8.50725208 44.36602576 -9.22498082 49.61481434 -6.625 57.9375 C-6.07268399 59.78638884 -5.52061749 61.63535223 -4.96875 63.484375 C-4.5046875 65.01481445 -4.5046875 65.01481445 -4.03125 66.57617188 C-2.22770704 72.56407113 -0.48544877 78.56981784 1.25958252 84.57498169 C1.87067662 86.67265932 2.48645349 88.76891755 3.10302734 90.86499023 C3.48285105 92.16386943 3.86257572 93.4627776 4.2421875 94.76171875 C4.5810498 95.91631592 4.91991211 97.07091309 5.26904297 98.26049805 C6 101 6 101 6 103 C2.62601911 103.50704109 -0.74932621 104.00436536 -4.125 104.5 C-5.07632813 104.64308594 -6.02765625 104.78617187 -7.0078125 104.93359375 C-11.71194706 105.61961337 -16.2304257 106.19271007 -21 106 C-21 105.01 -21 104.02 -21 103 C-13.39277848 101.16377412 -5.75362732 100.03675813 2 99 C1.64808594 97.91847656 1.29617187 96.83695312 0.93359375 95.72265625 C-3.13245562 83.10061274 -6.7820188 70.37966941 -10.27539062 57.58789062 C-10.87481724 55.44708129 -11.53157944 53.32241814 -12.203125 51.203125 C-13.96191963 44.13346032 -12.50662238 38.35690106 -10.41015625 31.6015625 C-10.14617538 30.72599701 -9.88219452 29.85043152 -9.61021423 28.94833374 C-9.05398631 27.10985363 -8.49315905 25.2727594 -7.92797852 23.43701172 C-7.0597086 20.6159305 -6.2054479 17.79089692 -5.35351562 14.96484375 C-4.81070023 13.17683893 -4.26710804 11.38906971 -3.72265625 9.6015625 C-3.46533218 8.75373199 -3.20800812 7.90590149 -2.94288635 7.03237915 C-1.11721514 1.11721514 -1.11721514 1.11721514 0 0 Z " fill="#F6BC11" transform="translate(209,47)"/>
<path d="M0 0 C4.17099303 3.61486062 5.74434308 6.92724725 6.20507812 12.46484375 C6.30578835 15.37516385 6.32191173 18.27550949 6.3125 21.1875 C6.32861328 22.16525391 6.34472656 23.14300781 6.36132812 24.15039062 C6.36686071 32.52119817 5.71401863 41.43711138 -0.0625 47.9375 C-12.24051287 57.13671835 -38.32373522 59 -53 59 C-53 57.68 -53 56.36 -53 55 C-51.96182129 54.83395264 -50.92364258 54.66790527 -49.85400391 54.49682617 C-45.95770248 53.87179817 -42.0628975 53.23782987 -38.16845703 52.60131836 C-36.49111058 52.32841548 -34.81338122 52.05785429 -33.13525391 51.78979492 C-15.72597348 50.08407811 -15.72597348 50.08407811 -2 41 C1.58960625 33.68172286 1.38314914 26.85554026 1.25 18.8125 C1.24226563 16.9262793 1.24226563 16.9262793 1.234375 15.00195312 C1.17682743 7.44372729 1.17682743 7.44372729 0 0 Z " fill="#F5BA0F" transform="translate(71,120)"/>
<path d="M0 0 C5.86263546 5.56198748 5.86263546 5.56198748 6.16113281 10.85986328 C6.20670107 14.61500537 6.23530178 18.36960411 6.25 22.125 C6.270625 23.41921875 6.29125 24.7134375 6.3125 26.046875 C6.34697163 34.50966121 6.23275364 42.0682726 0.6875 48.8125 C-8.96887897 55.69818575 -23.91991052 56.23889303 -35.375 57.75 C-36.99752331 57.97172537 -38.61992038 58.1943766 -40.2421875 58.41796875 C-44.16009069 58.95595559 -48.07946844 59.4815297 -52 60 C-52 58.68 -52 57.36 -52 56 C-48.70878063 55.39338128 -45.41692622 54.79026996 -42.125 54.1875 C-41.13226074 54.00445312 -40.13952148 53.82140625 -39.11669922 53.6328125 C-34.35647551 52.76219764 -29.59910929 51.91998999 -24.8125 51.20703125 C-24.01827637 51.08626221 -23.22405273 50.96549316 -22.40576172 50.84106445 C-20.93509446 50.62114129 -19.46278197 50.4118304 -17.98876953 50.21557617 C-11.6177944 49.25117647 -5.95638598 47.21380519 -1.625 42.3125 C2.04612514 34.8290526 2.317757 27.15303638 2.25 18.9375 C2.25773437 17.99583984 2.26546875 17.05417969 2.2734375 16.08398438 C2.2575607 10.38024355 1.62367258 5.47023024 0 0 Z " fill="#FABE0C" transform="translate(138,109)"/>
<path d="M0 0 C2.64 0 5.28 0 8 0 C9.42630596 4.27891789 9.3048437 8.39137463 9.375 12.875 C9.41238281 13.77347656 9.44976562 14.67195312 9.48828125 15.59765625 C9.54920742 20.18065793 9.48779119 22.32782038 6.7265625 26.1328125 C4 28 4 28 0 28 C0 18.76 0 9.52 0 0 Z " fill="#FAC321" transform="translate(39,126)"/>
<path d="M0 0 C3.15723749 6.31447498 4.30092625 11.88665386 4.1953125 18.90234375 C4.1924826 19.6249086 4.18965271 20.34747345 4.18673706 21.0919342 C4.17564386 23.37396616 4.15056088 25.65558897 4.125 27.9375 C4.11495611 29.49543699 4.10583274 31.05338021 4.09765625 32.61132812 C4.07574033 36.40770699 4.04128738 40.2037844 4 44 C0.98017116 44.50682442 -2.04062817 45.00563335 -5.0625 45.5 C-5.91005859 45.64308594 -6.75761719 45.78617188 -7.63085938 45.93359375 C-12.49272389 46.72200421 -17.07528186 47.16037074 -22 47 C-22 46.01 -22 45.02 -22 44 C-14.39461541 41.71838462 -8.39477348 41.59962668 0 41 C0 27.47 0 13.94 0 0 Z " fill="#F3B80F" transform="translate(175,111)"/>
<path d="M0 0 C6 0 6 0 8 1 C8.11591764 5.10393012 8.18715601 9.20744106 8.25 13.3125 C8.28351563 14.47974609 8.31703125 15.64699219 8.3515625 16.84960938 C8.36445312 17.96787109 8.37734375 19.08613281 8.390625 20.23828125 C8.41157227 21.26993408 8.43251953 22.30158691 8.45410156 23.36450195 C8 26 8 26 6.22558594 27.86010742 C4 29 4 29 0 29 C0 19.43 0 9.86 0 0 Z " fill="#F5BD1E" transform="translate(107,115)"/>
<path d="M0 0 C2.31 0 4.62 0 7 0 C9.36543381 3.54815071 9.26923313 5.17256132 9.25 9.375 C9.25515625 10.49648437 9.2603125 11.61796875 9.265625 12.7734375 C8.99158443 16.10222448 8.8105211 18.18473917 7 21 C4.69 21.66 2.38 22.32 0 23 C0 15.41 0 7.82 0 0 Z " fill="#FAC322" transform="translate(39,87)"/>
<path d="M0 0 C1.98 0 3.96 0 6 0 C8.7633734 2.7633734 8.28850252 4.65547443 8.32226562 8.42773438 C8.31904297 9.25595703 8.31582031 10.08417969 8.3125 10.9375 C8.32861328 11.76185547 8.34472656 12.58621094 8.36132812 13.43554688 C8.36197266 14.22896484 8.36261719 15.02238281 8.36328125 15.83984375 C8.36775269 16.92833618 8.36775269 16.92833618 8.37231445 18.03881836 C7.87984023 20.6329465 7.16483017 21.50018109 5 23 C3.35 23 1.7 23 0 23 C0 15.41 0 7.82 0 0 Z " fill="#F5BE1E" transform="translate(107,76)"/>
<path d="M0 0 C5.70894559 5.32834922 6.72576768 9.87302842 7.23828125 17.5859375 C7.51190361 31.55507928 7.51190361 31.55507928 3 37 C0.125 39.625 0.125 39.625 -3 41 C-6.375 40.25 -6.375 40.25 -9 39 C-8.443125 38.5875 -7.88625 38.175 -7.3125 37.75 C-6.549375 37.1725 -5.78625 36.595 -5 36 C-4.13375 35.401875 -3.2675 34.80375 -2.375 34.1875 C0.88492053 31.18494162 1.80264243 28.26243544 2.18798828 23.8449707 C2.26860247 21.41412325 2.27281792 18.99451049 2.25 16.5625 C2.25773437 15.74201172 2.26546875 14.92152344 2.2734375 14.07617188 C2.25724786 9.00476702 1.6296864 4.80498809 0 0 Z " fill="#FAC00D" transform="translate(68,75)"/>
<path d="M0 0 C4.13027233 3.57956935 5.73126768 6.88910353 6.20507812 12.37402344 C6.30451498 15.1065077 6.32198719 17.8282921 6.3125 20.5625 C6.32861328 21.49513672 6.34472656 22.42777344 6.36132812 23.38867188 C6.36604291 30.00351924 5.36154287 33.43603917 0.8125 38.375 C-3.2103638 40.69932131 -5.51328465 39.91255227 -10 39 C-7.84989151 37.3276934 -5.91985912 35.96286154 -3.4375 34.8125 C0.14099993 32.15156415 1.19463943 29.24072673 2 25 C2.60843838 16.46284902 2.18319366 8.28444023 0 0 Z " fill="#FABF0C" transform="translate(136,65)"/>
<path d="M0 0 C1.32 0 2.64 0 4 0 C5.0932194 12.11995283 5.93070652 22.59377334 1 34 C0.67 34 0.34 34 0 34 C0 22.78 0 11.56 0 0 Z " fill="#EEB415" transform="translate(175,52)"/>
<path d="M0 0 C1.65 0 3.3 0 5 0 C5.08728882 3.24983 5.14048658 6.4993575 5.1875 9.75 C5.22520508 11.13058594 5.22520508 11.13058594 5.26367188 12.5390625 C5.27333984 13.42851562 5.28300781 14.31796875 5.29296875 15.234375 C5.3086792 16.05131836 5.32438965 16.86826172 5.34057617 17.70996094 C4.91815669 20.55031558 3.9560866 21.92769552 2 24 C1.34 24 0.68 24 0 24 C0 16.08 0 8.16 0 0 Z " fill="#6C3D8A" transform="translate(43,129)"/>
<path d="M0 0 C1.32 0 2.64 0 4 0 C4 7.26 4 14.52 4 22 C2.02 22.99 2.02 22.99 0 24 C0 16.08 0 8.16 0 0 Z " fill="#5F2B87" transform="translate(111,119)"/>
<path d="M0 0 C1.65 0 3.3 0 5 0 C5.054348 2.0622048 5.09294961 4.12482816 5.125 6.1875 C5.14820313 7.33605469 5.17140625 8.48460938 5.1953125 9.66796875 C5.00221395 12.96222999 4.58998636 15.12012405 3 18 C2.01 18.33 1.02 18.66 0 19 C0 12.73 0 6.46 0 0 Z " fill="#6D3D8A" transform="translate(43,90)"/>
<path d="M0 0 C1.32 0 2.64 0 4 0 C4.0809313 2.60478883 4.14045434 5.20706653 4.1875 7.8125 C4.22520508 8.91948242 4.22520508 8.91948242 4.26367188 10.04882812 C4.33808627 15.53068886 4.33808627 15.53068886 2.55078125 18.01171875 C1 19 1 19 0 19 C0 12.73 0 6.46 0 0 Z " fill="#5F2A87" transform="translate(111,80)"/>
<path d="M0 0 C4.71595309 4.40155621 6.14276273 7.64462024 7 14 C7.06656312 16.63589958 7.09567411 19.24148596 7.0625 21.875 C7.05798828 22.56335938 7.05347656 23.25171875 7.04882812 23.9609375 C7.03716336 25.64066335 7.01923271 27.32034375 7 29 C6.67 29 6.34 29 6 29 C5.95101562 28.08476563 5.90203125 27.16953125 5.8515625 26.2265625 C5.77679688 25.03804687 5.70203125 23.84953125 5.625 22.625 C5.55539063 21.44164063 5.48578125 20.25828125 5.4140625 19.0390625 C5.29782654 15.89437681 5.29782654 15.89437681 3 14 C2.40234375 11.7578125 2.40234375 11.7578125 1.9375 9.125 C1.38222823 6.05035468 0.79430134 3.02256262 0 0 Z " fill="#E4AA1D" transform="translate(68,75)"/>
<path d="M0 0 C2.11044382 3.16566573 2.75552077 5.51197415 3.625 9.1875 C3.88539063 10.27417969 4.14578125 11.36085937 4.4140625 12.48046875 C4.60742188 13.31191406 4.80078125 14.14335937 5 15 C4.01 15 3.02 15 2 15 C1.303447 13.04486839 0.61800435 11.08577524 -0.0625 9.125 C-0.44535156 8.03445312 -0.82820312 6.94390625 -1.22265625 5.8203125 C-2 3 -2 3 -1 1 C-0.67 0.67 -0.34 0.34 0 0 Z " fill="#EDB41C" transform="translate(207,124)"/>
<path d="M0 0 C3.2542015 2.83430453 4.5206753 4.68607774 5 9 C4.01 9.33 3.02 9.66 2 10 C1.34 6.7 0.68 3.4 0 0 Z " fill="#EFB618" transform="translate(136,65)"/>
</svg>
