<?xml version="1.0" encoding="UTF-8"?>
<svg version="1.1" xmlns="http://www.w3.org/2000/svg" width="2480" height="571">
<path d="M0 0 C22.11 0 44.22 0 67 0 C67 29.7 67 59.4 67 90 C72.94 90 78.88 90 85 90 C85 60.3 85 30.6 85 0 C106.78 0 128.56 0 151 0 C151 83.82 151 167.64 151 254 C129.22 254 107.44 254 85 254 C85 219.02 85 184.04 85 148 C79.06 148 73.12 148 67 148 C67 182.98 67 217.96 67 254 C44.89 254 22.78 254 0 254 C0 170.18 0 86.36 0 0 Z " fill="#1164B0" transform="translate(1866,143)"/>
<path d="M0 0 C115.64834337 0 115.64834337 0 132.8125 16.375 C146.40445488 30.75662831 148.37026245 49.243646 148.31567383 68.25463867 C148.31249957 70.56281223 148.33611593 72.86971676 148.36132812 75.17773438 C148.41044603 86.72811255 147.79751838 97.57562114 139.64453125 106.48046875 C134.34097833 111.5744986 127.69061712 114.1627759 121 117 C121.79664063 117.31453125 122.59328125 117.6290625 123.4140625 117.953125 C134.74161953 122.52824536 143.35865202 127.83402158 149 139 C152.62702661 148.56216106 153.16371311 157.77415751 153.203125 167.8984375 C153.20882507 169.04680084 153.21452515 170.19516418 153.22039795 171.37832642 C153.22982319 173.80738411 153.23637206 176.23645444 153.24023438 178.66552734 C153.24987636 182.32803614 153.280898 185.98996794 153.3125 189.65234375 C153.48680889 227.77486745 153.48680889 227.77486745 141.99609375 241.37109375 C112.86685375 269.77080001 14.64583996 254 0 254 C0 170.18 0 86.36 0 0 Z M67 45 C67 62.82 67 80.64 67 99 C75.74799949 99.28200742 75.74799949 99.28200742 83 96 C86.92967558 89.97449745 86.74692446 83.02284627 87 76 C87.04125 74.8965625 87.0825 73.793125 87.125 72.65625 C87.27920603 64.56043365 87.35762956 56.12585173 83.25 48.9375 C78.06591095 44.47342332 73.89602076 45 67 45 Z M67 140 C67 162.77 67 185.54 67 209 C78.74121652 208.04410743 78.74121652 208.04410743 83.1875 205.0625 C88.18476759 196.61884097 87.31486709 185.78235689 87.26074219 176.24804688 C87.25001735 174.00363152 87.26069641 171.76001625 87.2734375 169.515625 C87.64890919 155.96176872 87.64890919 155.96176872 83.4375 143.4375 C78.28059625 140.39624907 72.89572096 140 67 140 Z " fill="#1164B0" transform="translate(134,143)"/>
<path d="M0 0 C120.02926829 0 120.02926829 0 137.875 16.1875 C152.21164248 32.2003171 152.15240824 52.25242771 152.14526367 72.5925293 C152.14826499 74.00364774 152.15166971 75.41476537 152.15544128 76.82588196 C152.16418696 80.61959264 152.16661538 84.4132807 152.16725707 88.20700049 C152.167973 90.5883639 152.17011749 92.96972174 152.17275429 95.35108376 C152.18197675 103.69068383 152.18609311 112.03026804 152.18530273 120.36987305 C152.18470289 128.09228157 152.19524436 135.81462003 152.2110464 143.53701085 C152.22420523 150.21011384 152.22948316 156.88319416 152.22884732 163.55631 C152.22859476 167.52276606 152.23131001 171.48915974 152.24202538 175.45560265 C152.37030315 226.54688609 152.37030315 226.54688609 141.03125 240 C110.67229902 269.8918902 19.64045289 254 0 254 C0 170.18 0 86.36 0 0 Z M66 45 C66 99.12 66 153.24 66 209 C75.35607746 208.61716464 75.35607746 208.61716464 82 204 C89.64195437 190.88231455 86.14719344 168.22851647 86.1328125 153.6484375 C86.13348779 151.2161966 86.13445968 148.78395576 86.13571167 146.35171509 C86.13717749 141.28036856 86.13506982 136.20903976 86.13037109 131.13769531 C86.12466839 124.67133361 86.12796339 118.20501338 86.13394356 111.73865318 C86.1375742 106.7249216 86.13639922 101.71119969 86.13381577 96.6974678 C86.13315373 94.3142865 86.13394932 91.93110428 86.13629532 89.54792404 C87.65922633 68.37391876 87.65922633 68.37391876 82 49 C76.81809835 44.3195727 73.168805 45 66 45 Z " fill="#1064B0" transform="translate(939,143)"/>
<path d="M0 0 C18.48 0 36.96 0 56 0 C59.37602476 9.00273269 59.37602476 9.00273269 60.87841797 13.58178711 C61.21662567 14.61005112 61.55483337 15.63831512 61.90328979 16.69773865 C62.44229416 18.34589317 62.44229416 18.34589317 62.9921875 20.02734375 C63.57215988 21.79556236 63.57215988 21.79556236 64.16384888 23.59950256 C64.98671278 26.10992452 65.80887251 28.62056431 66.62988281 31.1315918 C67.83340236 34.81208294 69.04171772 38.49099146 70.25 42.16992188 C77.31217273 63.73679825 84.14000169 85.3646207 91 107 C91.33 71.69 91.66 36.38 92 0 C110.15 0 128.3 0 147 0 C147 83.82 147 167.64 147 254 C127.86 254 108.72 254 89 254 C82.22544539 232.34661987 75.68371527 210.63409768 69.24194336 188.88000488 C67.26095713 182.19165041 65.27654508 175.50431128 63.29243469 168.81688309 C62.60659954 166.50426579 61.92156939 164.19141131 61.23669434 161.87850952 C60.82121958 160.47678277 60.40573357 159.07505935 59.99023438 157.67333984 C59.62877319 156.45286957 59.26731201 155.23239929 58.89489746 153.97494507 C58.29302139 151.97410325 57.6607286 149.98218579 57 148 C56.67 182.98 56.34 217.96 56 254 C37.52 254 19.04 254 0 254 C0 170.18 0 86.36 0 0 Z " fill="#1064B0" transform="translate(1262,143)"/>
<path d="M0 0 C18.48 0 36.96 0 56 0 C59.37487197 7.87470126 59.37487197 7.87470126 60.55541992 11.59106445 C60.82388229 12.43018875 61.09234467 13.26931305 61.36894226 14.13386536 C61.79539787 15.48492622 61.79539787 15.48492622 62.23046875 16.86328125 C62.6998864 18.33525215 62.6998864 18.33525215 63.17878723 19.83695984 C64.18495616 22.99444511 65.18639417 26.15340624 66.1875 29.3125 C66.80891619 31.26638058 67.43065944 33.22015717 68.05273438 35.17382812 C70.36874222 42.44913833 72.68434621 49.72457709 75 57 C80.28 73.5 85.56 90 91 107 C91.33 71.69 91.66 36.38 92 0 C110.15 0 128.3 0 147 0 C147 83.82 147 167.64 147 254 C127.86 254 108.72 254 89 254 C81.72669602 230.79975301 74.79105746 207.51486375 67.9375 184.1875 C64.328125 171.915625 60.71875 159.64375 57 147 C56.67 182.31 56.34 217.62 56 254 C37.52 254 19.04 254 0 254 C0 170.18 0 86.36 0 0 Z " fill="#1064B0" transform="translate(766,143)"/>
<path d="M0 0 C14.84737385 12.38987749 22.50475377 27.6612936 24.265625 46.890625 C24.50679568 50.43677955 24.6726091 53.98371668 24.81982422 57.53491211 C24.86193464 58.53487937 24.90404507 59.53484663 24.94743156 60.56511593 C25.36489343 71.23788619 25.41096924 81.90252664 25.3984375 92.58203125 C25.39911455 94.67121899 25.40008788 96.76040664 25.40133667 98.84959412 C25.40279449 103.18643966 25.40072159 107.52326434 25.39599609 111.86010742 C25.39029643 117.35133048 25.39359174 122.84250465 25.39956856 128.33372593 C25.4032235 132.63490654 25.40201329 136.93607601 25.39944077 141.237257 C25.39878524 143.25935815 25.39955029 145.28146039 25.40192032 147.30356026 C25.41156035 157.83113138 25.27800949 168.33312692 24.80810547 178.85131836 C24.7476665 180.20453989 24.7476665 180.20453989 24.68600655 181.58509922 C23.70128958 201.62922519 18.49851122 217.38450711 4.265625 231.890625 C3.72292969 232.4578125 3.18023438 233.025 2.62109375 233.609375 C-12.93823616 248.42028145 -36.37880655 250.3182321 -56.625 250.10546875 C-76.22999296 249.61866988 -94.84482655 243.08978851 -109.27734375 229.56640625 C-128.41346803 208.72658887 -127.05405325 182.02019567 -127.00302601 155.40752029 C-126.99787605 151.86860117 -127.00268193 148.32969114 -127.00579834 144.79077148 C-127.00941229 138.85365912 -127.00470718 132.9165969 -126.99511719 126.97949219 C-126.98423764 120.16639529 -126.98776506 113.35341821 -126.99877 106.54032421 C-127.00791696 100.63568458 -127.00909236 94.73108049 -127.00389266 88.82643604 C-127.00081324 85.32395789 -127.00024998 81.82153559 -127.00696564 78.31906128 C-127.09487405 24.97330497 -127.09487405 24.97330497 -108.984375 5.640625 C-81.93490773 -19.84528925 -29.75956404 -22.66456864 0 0 Z M-57.109375 32.203125 C-61.94104727 40.1939676 -61.02172431 51.05004644 -60.99316406 60.06005859 C-60.9958808 61.44943931 -60.99944553 62.83881859 -61.00378418 64.22819519 C-61.0128311 67.97006942 -61.00939557 71.71183222 -61.00302601 75.45370817 C-60.9979238 79.39139297 -61.00266928 83.32906893 -61.00579834 87.26675415 C-61.00942663 93.87869967 -61.00466975 100.49060037 -60.99511719 107.10253906 C-60.98424386 114.71594956 -60.98775466 122.32925281 -60.99877 129.94266069 C-61.00788621 136.50949493 -61.00910681 143.07629714 -61.00389266 149.64313567 C-61.00079551 153.55188667 -61.00030068 157.46058751 -61.00696564 161.36933517 C-61.0128016 165.04828903 -61.0086297 168.72710657 -60.99717712 172.40604591 C-60.99332977 174.37749171 -60.99916312 176.34894921 -61.00543213 178.32038879 C-61.50810157 191.61288177 -61.50810157 191.61288177 -57.40726089 203.72879601 C-54.46256866 205.77390191 -51.13328053 205.36441183 -47.734375 204.890625 C-45.21568168 204.12671498 -45.21568168 204.12671498 -43.734375 201.890625 C-41.40924225 193.96460661 -41.45032721 186.2324195 -41.47558594 178.02685547 C-41.47287155 176.53936594 -41.46930811 175.05187776 -41.46496582 173.56439209 C-41.45589437 169.5480203 -41.45936388 165.53175194 -41.46572399 161.51537848 C-41.47080937 157.30127541 -41.46608568 153.08718083 -41.46295166 148.87307739 C-41.45932019 141.80029724 -41.46409042 134.72755895 -41.47363281 127.65478516 C-41.48452421 119.48803129 -41.48098352 111.32137724 -41.46998 103.15462577 C-41.46089381 96.12848206 -41.45962811 89.10236833 -41.46485734 82.07622063 C-41.46796863 77.88593988 -41.46840937 73.69570601 -41.46178436 69.50542831 C-41.45599183 65.56715741 -41.46004259 61.62901485 -41.47157288 57.69075775 C-41.47420891 56.24884122 -41.47347248 54.80691383 -41.46904755 53.36500168 C-41.46354925 51.39078924 -41.47167921 49.41655309 -41.48040771 47.44235229 C-41.48153879 45.78821477 -41.48153879 45.78821477 -41.48269272 44.10066032 C-41.82002865 39.79817127 -42.67654327 35.71244632 -44.859375 31.953125 C-48.86864248 29.68120676 -53.22421876 30.05606497 -57.109375 32.203125 Z " fill="#1164B0" transform="translate(717.734375,152.109375)"/>
<path d="M0 0 C1.36125 0.77150391 1.36125 0.77150391 2.75 1.55859375 C16.9378935 10.09103526 26.75546427 20.51494775 31.2265625 36.6796875 C32.48689652 42.09021234 33.36085411 47.48316179 34 53 C34.16822266 54.39992188 34.16822266 54.39992188 34.33984375 55.828125 C35.48421789 67.55404084 35 79.17142335 35 91 C12.89 91 -9.22 91 -32 91 C-32.375 70.0625 -32.375 70.0625 -32.47802734 63.50805664 C-32.51327852 61.76707514 -32.54920469 60.02610712 -32.5859375 58.28515625 C-32.59729736 57.40275269 -32.60865723 56.52034912 -32.62036133 55.61120605 C-32.60516959 45.52180929 -32.60516959 45.52180929 -37 37 C-40.03687496 36.50441889 -42.95963805 36.5369724 -46 37 C-51.17753525 41.69214132 -50.47714957 49.08756193 -50.8036499 55.57833862 C-51.26668826 66.78421036 -51.1426993 78.00966519 -51.1328125 89.22265625 C-51.13303636 91.94014014 -51.13445851 94.65762323 -51.13571167 97.37510681 C-51.13751868 103.04410295 -51.13516569 108.71308595 -51.13037109 114.38208008 C-51.12492869 120.89126578 -51.12669695 127.40042014 -51.1321975 133.90960509 C-51.13676767 139.54837052 -51.13736033 145.18712665 -51.13475883 150.82589334 C-51.13321769 154.17181536 -51.13334773 157.51771119 -51.13629532 160.86363411 C-52.49819395 185.04190874 -52.49819395 185.04190874 -47 208 C-43.78728824 209.60635588 -40.48473453 209.46324844 -37 209 C-34.19861174 207.37814364 -33.28405299 206.01899296 -32.41836548 202.91348267 C-31.19087807 196.84549888 -30.66831281 191.01940033 -30.5859375 184.8359375 C-30.56657135 183.91785309 -30.5472052 182.99976868 -30.5272522 182.05386353 C-30.46812855 179.16099944 -30.42134357 176.26809409 -30.375 173.375 C-30.33675817 171.39711938 -30.29770297 169.41925431 -30.2578125 167.44140625 C-30.16248356 162.62773252 -30.07820891 157.81398107 -30 153 C-34.29 153 -38.58 153 -43 153 C-43 139.8 -43 126.6 -43 113 C-17.26 113 8.48 113 35 113 C35 158.21 35 203.42 35 250 C20.81 250 6.62 250 -8 250 C-9.65 245.05 -11.3 240.1 -13 235 C-16.3700243 238.33737325 -16.3700243 238.33737325 -19.59765625 241.80859375 C-26.55464538 249.54476567 -36.79323885 254.21853804 -47.13061523 255.20288086 C-65.41377398 256.02915683 -82.62581762 251.77111701 -96.625 239.4375 C-98.10486236 237.97987263 -99.56602056 236.50278844 -101 235 C-101.55816406 234.46117187 -102.11632813 233.92234375 -102.69140625 233.3671875 C-117.43449269 218.04669559 -118.15347012 195.36098477 -118.14526367 175.40454102 C-118.14862228 174.20757095 -118.1519809 173.01060089 -118.15544128 171.77735901 C-118.16324952 168.5288192 -118.1666152 165.28031801 -118.16725707 162.03176999 C-118.16797389 159.98926036 -118.17012009 157.9467572 -118.17275429 155.90424919 C-118.18197748 148.74125629 -118.18609339 141.57828185 -118.18530273 134.4152832 C-118.18470424 127.80005477 -118.19521888 121.18490848 -118.2110464 114.56970078 C-118.22424908 108.84178564 -118.2294813 103.1138969 -118.22884732 97.38596672 C-118.22859584 93.98669308 -118.23124795 90.58749244 -118.24202538 87.18823433 C-118.39217385 29.7879325 -118.39217385 29.7879325 -99 10 C-98.11054687 9.05640625 -98.11054687 9.05640625 -97.203125 8.09375 C-88.22890188 -0.64221941 -75.17271036 -5.90483933 -63 -8 C-61.97390625 -8.18046875 -60.9478125 -8.3609375 -59.890625 -8.546875 C-40.1757328 -10.84298694 -17.60314795 -10.1274521 0 0 Z " fill="#1064B0" transform="translate(1807,147)"/>
<path d="M0 0 C17.65216196 18.08270249 14.5625 42.99062342 14.5625 66.625 C-5.8975 66.625 -26.3575 66.625 -47.4375 66.625 C-47.7675 56.725 -48.0975 46.825 -48.4375 36.625 C-49.0975 34.315 -49.7575 32.005 -50.4375 29.625 C-57.29710367 28.97958344 -57.29710367 28.97958344 -63.4375 31.625 C-68.9077339 39.83035085 -67.82052415 49.27089749 -66.4375 58.625 C-63.64340627 69.35945195 -54.61987759 74.60919396 -45.578125 79.91796875 C-43.48497935 81.13270498 -41.38818772 82.34079292 -39.2890625 83.54516602 C-15.73319055 97.21412661 9.44200132 113.81498543 16.875 141.375 C18.95397149 149.48035719 19.72063883 157.30246725 19.765625 165.62890625 C19.77132507 166.46985336 19.77702515 167.31080048 19.78289795 168.17723083 C19.79229137 169.94960292 19.79885923 171.72199202 19.80273438 173.49438477 C19.81238609 176.15608629 19.84344146 178.8169964 19.875 181.47851562 C19.98108395 198.42824162 18.60568283 215.25733246 6.5625 228.375 C-9.37991482 243.06650748 -31.48371506 248.05214545 -52.625 247.9375 C-53.71071289 247.93258545 -54.79642578 247.9276709 -55.91503906 247.92260742 C-76.31362208 247.62831002 -97.42369047 242.59340564 -112.8515625 228.33203125 C-128.59557603 211.38588861 -128.62652516 187.76364937 -128.5 165.9375 C-128.479375 160.884375 -128.45875 155.83125 -128.4375 150.625 C-107.9775 150.625 -87.5175 150.625 -66.4375 150.625 C-66.125 171.125 -66.125 171.125 -66.04956055 177.54882812 C-66.01723968 179.25132384 -65.98386163 180.95379995 -65.94921875 182.65625 C-65.94297485 183.52217773 -65.93673096 184.38810547 -65.93029785 185.28027344 C-65.79600209 191.01673741 -64.85868523 195.39746627 -62.4375 200.625 C-58.96943957 202.35903022 -55.2294279 202.09079045 -51.4375 201.625 C-48.15572612 199.80955062 -46.83649295 198.52975867 -45.328125 195.109375 C-44.15568471 190.52245949 -44.09640473 186.21653728 -44.125 181.5 C-44.12918945 180.56800781 -44.13337891 179.63601563 -44.13769531 178.67578125 C-44.29325269 169.15699371 -45.02487763 161.00602859 -51.4375 153.625 C-60.34410345 145.98718498 -70.25151456 139.55870853 -80 133.0625 C-123.02750406 104.35125781 -123.02750406 104.35125781 -128.84790039 77.94360352 C-132.94755491 56.8529097 -133.43428777 26.84277098 -121.25 8.3125 C-109.89825959 -6.48787041 -94.10328966 -12.6354378 -76.30078125 -15.9609375 C-50.2329375 -18.75486211 -21.59931333 -16.29817637 0 0 Z " fill="#1164B0" transform="translate(2314.4375,154.375)"/>
<path d="M0 0 C17.55669367 17.98490571 14.5625 43.04069859 14.5625 66.625 C-5.8975 66.625 -26.3575 66.625 -47.4375 66.625 C-47.7675 56.725 -48.0975 46.825 -48.4375 36.625 C-49.0975 34.315 -49.7575 32.005 -50.4375 29.625 C-57.29710367 28.97958344 -57.29710367 28.97958344 -63.4375 31.625 C-68.49339129 39.20883694 -68.1474317 47.99680572 -66.75 56.6875 C-64.34226685 67.08890721 -58.31878843 71.76404214 -49.56152344 77.30322266 C-44.49811043 80.45417875 -39.40886922 83.56336634 -34.32275391 86.67749023 C-22.34421796 94.06788262 -11.09766816 102.42972249 -0.4375 111.625 C0.21734375 112.18316406 0.8721875 112.74132812 1.546875 113.31640625 C14.02036405 124.76883536 18.77281817 142.41758373 19.68551636 158.83822632 C19.86473528 163.84910907 19.89079919 168.85790916 19.87817383 173.87158203 C19.87501325 176.4890309 19.89856262 179.10534602 19.92382812 181.72265625 C19.98824782 198.57019679 18.51872299 215.3520508 6.5625 228.375 C-9.37991482 243.06650748 -31.48371506 248.05214545 -52.625 247.9375 C-53.71071289 247.93258545 -54.79642578 247.9276709 -55.91503906 247.92260742 C-76.31362208 247.62831002 -97.42369047 242.59340564 -112.8515625 228.33203125 C-128.59557603 211.38588861 -128.62652516 187.76364937 -128.5 165.9375 C-128.479375 160.884375 -128.45875 155.83125 -128.4375 150.625 C-107.9775 150.625 -87.5175 150.625 -66.4375 150.625 C-66.125 171.125 -66.125 171.125 -66.04956055 177.54882812 C-66.01723968 179.25132384 -65.98386163 180.95379995 -65.94921875 182.65625 C-65.94297485 183.52217773 -65.93673096 184.38810547 -65.93029785 185.28027344 C-65.79600209 191.01673741 -64.85868523 195.39746627 -62.4375 200.625 C-58.96943957 202.35903022 -55.2294279 202.09079045 -51.4375 201.625 C-48.17469933 199.82004644 -46.84525746 198.53671123 -45.328125 195.14453125 C-44.12054691 190.37247923 -44.09686804 185.84197674 -44.125 180.9375 C-44.12918945 179.95595947 -44.13337891 178.97441895 -44.13769531 177.96313477 C-44.2859618 168.46698202 -45.08541653 160.98025735 -51.4375 153.625 C-60.34410345 145.98718498 -70.25151456 139.55870853 -80 133.0625 C-122.55770446 104.66474404 -122.55770446 104.66474404 -128.6875 78.9375 C-132.6412078 57.4340658 -133.67054084 27.23082377 -121.25 8.3125 C-109.89825959 -6.48787041 -94.10328966 -12.6354378 -76.30078125 -15.9609375 C-50.2329375 -18.75486211 -21.59931333 -16.29817637 0 0 Z " fill="#1064B0" transform="translate(1559.4375,154.375)"/>
<path d="M0 0 C36.3 0 72.6 0 110 0 C110 17.16 110 34.32 110 52 C95.48 52 80.96 52 66 52 C66 67.18 66 82.36 66 98 C79.53 98 93.06 98 107 98 C107 114.5 107 131 107 148 C93.47 148 79.94 148 66 148 C66 165.49 66 182.98 66 201 C81.84 201 97.68 201 114 201 C114 218.49 114 235.98 114 254 C76.38 254 38.76 254 0 254 C0 170.18 0 86.36 0 0 Z " fill="#1164B0" transform="translate(310,143)"/>
<path d="M0 0 C20.13 0 40.26 0 61 0 C62.77183673 7.67795916 64.50398161 15.24729771 65.8671875 22.98828125 C66.02720245 23.88325317 66.18721741 24.7782251 66.3520813 25.70031738 C66.86361595 28.57036946 67.36969637 31.44134486 67.875 34.3125 C68.13579346 35.78461441 68.13579346 35.78461441 68.40185547 37.28646851 C71.50653332 54.82208957 74.36977299 72.387149 77 90 C77.1952124 88.80141357 77.3904248 87.60282715 77.59155273 86.36791992 C82.33058904 57.39122649 87.81389181 28.7074083 94 0 C114.13 0 134.26 0 155 0 C154.33392524 5.32859809 153.73154849 9.47659996 152.23193359 14.46337891 C151.68148628 16.31200027 151.68148628 16.31200027 151.11991882 18.19796753 C150.71299695 19.54090483 150.30582833 20.88376739 149.8984375 22.2265625 C149.46866826 23.65773351 149.03942747 25.08906329 148.610672 26.52053833 C147.92538618 28.80697528 147.23922483 31.09313083 146.55038548 33.37849998 C144.81841686 39.1264604 143.12130163 44.88406059 141.43481445 50.64550781 C136.70230779 66.75999746 131.82302916 82.76664679 126.26785088 98.61834717 C123.82323731 105.63412581 121.47609625 112.68190219 119.1875 119.75 C118.93547947 120.52794418 118.68345894 121.30588837 118.42380142 122.10740662 C104.6202127 165.17680039 106.51935727 209.26693946 108 254 C87.54 254 67.08 254 46 254 C46.22945313 248.25851562 46.45890625 242.51703125 46.6953125 236.6015625 C47.90833466 193.74260284 45.99625661 154.36702952 33.125 113.25 C32.83504654 112.3234259 32.54509308 111.39685181 32.24635315 110.44219971 C29.36570526 101.28679671 26.38008424 92.16815216 23.32304764 83.07026291 C18.10007075 67.51313147 13.57156312 51.77509806 9.11224365 35.98522949 C7.90827134 31.72915174 6.67576669 27.48169836 5.43798828 23.23535156 C5.06083436 21.93582466 4.68389517 20.63623541 4.30718994 19.33657837 C3.61889396 16.96308341 2.92765087 14.59044022 2.23284912 12.21884155 C1.93541809 11.18449982 1.63798706 10.15015808 1.33154297 9.08447266 C0.94287552 7.74625961 0.94287552 7.74625961 0.5463562 6.38101196 C0 4 0 4 0 0 Z " fill="#1064B0" transform="translate(427,143)"/>
<path d="M0 0 C47.52 0 95.04 0 144 0 C144 17.16 144 34.32 144 52 C131.13 52 118.26 52 105 52 C105 118.66 105 185.32 105 254 C83.22 254 61.44 254 39 254 C39 187.34 39 120.68 39 52 C26.13 52 13.26 52 0 52 C0 34.84 0 17.68 0 0 Z " fill="#1165B0" transform="translate(2032,143)"/>
<path d="M0 0 C22.11 0 44.22 0 67 0 C67 46.2 67 92.4 67 140 C44.89 140 22.78 140 0 140 C0 93.8 0 47.6 0 0 Z " fill="#1164B0" transform="translate(1599,257)"/>
<path d="M0 0 C21.78 0 43.56 0 66 0 C66 46.2 66 92.4 66 140 C44.22 140 22.44 140 0 140 C0 93.8 0 47.6 0 0 Z " fill="#1164B0" transform="translate(1171,257)"/>
<path d="M0 0 C6.8475 -0.04125 13.695 -0.0825 20.75 -0.125 C22.8856543 -0.14320801 25.02130859 -0.16141602 27.22167969 -0.18017578 C53.68226915 -0.31698272 53.68226915 -0.31698272 61.4765625 7.1484375 C65.86090388 12.47709856 66.31463605 18.69298211 65.82421875 25.40625 C64.834659 31.24365297 62.37497147 35.0528986 58 39 C55.125 40.9375 55.125 40.9375 53 42 C53.721875 42.66 54.44375 43.32 55.1875 44 C61.78741934 50.65538085 65.66357871 59.80203929 70 68 C72.50840853 65.49159147 73.17594873 63.25980163 74.41430664 59.9296875 C74.76346382 58.99772552 74.76346382 58.99772552 75.11967468 58.04693604 C75.88831549 55.99150378 76.64920002 53.93328822 77.41015625 51.875 C77.94247837 50.44756372 78.47531718 49.02032003 79.00865173 47.59326172 C80.41204641 43.83436338 81.80903708 40.0731176 83.20452881 36.3112793 C85.17325882 31.00773885 87.15064967 25.70742019 89.12705994 20.40673828 C90.17988434 17.58301987 91.23029881 14.758423 92.27882385 11.93310547 C92.75757101 10.64550502 93.2363253 9.35790722 93.71508789 8.0703125 C94.13319229 6.94383301 94.55129669 5.81735352 94.98207092 4.65673828 C96 2 96 2 97 0 C105.25 0 113.5 0 122 0 C125.59174573 8.51700238 129.00724588 17.08242825 132.30078125 25.71875 C132.53891226 26.34264114 132.77704327 26.96653229 133.02239037 27.60932922 C134.27594368 30.89401234 135.52724529 34.17954235 136.77661133 37.46582031 C138.06307961 40.84830309 139.35754974 44.22766672 140.65372944 47.60643768 C141.65584835 50.22299897 142.65207157 52.84177587 143.64668846 55.4611969 C144.3515566 57.3129483 145.06272749 59.1622966 145.77400208 61.01159668 C146.19832016 62.13376587 146.62263824 63.25593506 147.05981445 64.41210938 C147.62343437 65.89003967 147.62343437 65.89003967 148.19844055 67.39782715 C149 70 149 70 149 74 C141.08 74 133.16 74 125 74 C123.68 70.37 122.36 66.74 121 63 C113.08 62.67 105.16 62.34 97 62 C96.34 64.97 95.68 67.94 95 71 C94.505 72.485 94.505 72.485 94 74 C77.83 74 61.66 74 45 74 C42.875625 70.101875 40.75125 66.20375 38.5625 62.1875 C37.5581189 60.34901489 37.5581189 60.34901489 36.53344727 58.47338867 C36.00807373 57.5063501 35.4827002 56.53931152 34.94140625 55.54296875 C34.40201416 54.55321045 33.86262207 53.56345215 33.30688477 52.54370117 C32 50 32 50 31 47 C28.36 46.34 25.72 45.68 23 45 C23 54.57 23 64.14 23 74 C15.41 74 7.82 74 0 74 C0 49.58 0 25.16 0 0 Z M23 17 C23 20.96 23 24.92 23 29 C25.24973447 29.054138 27.49984383 29.09285491 29.75 29.125 C31.62945313 29.15980469 31.62945313 29.15980469 33.546875 29.1953125 C37.60903381 28.96938901 37.60903381 28.96938901 41 27 C41.81870185 23.43793339 41.81870185 23.43793339 42 20 C39.38521048 17.43238452 38.05471424 17.0043655 34.328125 16.70703125 C32.96843965 16.72683249 31.6089066 16.76240798 30.25 16.8125 C29.55261719 16.82603516 28.85523438 16.83957031 28.13671875 16.85351562 C26.42414459 16.8887055 24.71197059 16.94250845 23 17 Z M109 23 C107.9929564 26.1019264 106.99559195 29.20688098 106 32.3125 C105.57074219 33.63411133 105.57074219 33.63411133 105.1328125 34.98242188 C104.86210938 35.82998047 104.59140625 36.67753906 104.3125 37.55078125 C104.06113281 38.33106689 103.80976562 39.11135254 103.55078125 39.9152832 C102.87228247 42.12403849 102.87228247 42.12403849 103 45 C107.29 45 111.58 45 116 45 C114.1921764 37.59653194 112.26948386 30.27522486 110 23 C109.67 23 109.34 23 109 23 Z " fill="#454548" transform="translate(1209,421)"/>
<path d="M0 0 C22.11 0 44.22 0 67 0 C67 32.01 67 64.02 67 97 C44.89 97 22.78 97 0 97 C0 64.99 0 32.98 0 0 Z " fill="#B6005E" transform="translate(1599,148)"/>
<path d="M0 0 C21.78 0 43.56 0 66 0 C66 32.01 66 64.02 66 97 C44.22 97 22.44 97 0 97 C0 64.99 0 32.98 0 0 Z " fill="#B7005E" transform="translate(1171,148)"/>
<path d="M0 0 C9.9 0 19.8 0 30 0 C32.52833005 7.58499016 34.69030876 15.08641365 36.6875 22.8125 C37.00783203 24.02615234 37.32816406 25.23980469 37.65820312 26.49023438 C37.96048828 27.65490234 38.26277344 28.81957031 38.57421875 30.01953125 C38.84838623 31.07245361 39.12255371 32.12537598 39.4050293 33.21020508 C40 36 40 36 40 40 C40.66 40 41.32 40 42 40 C42.19142578 38.2528772 42.19142578 38.2528772 42.38671875 36.47045898 C42.89996025 32.37975122 43.77890469 28.46728592 44.8125 24.47265625 C44.98628174 23.79827011 45.16006348 23.12388397 45.33911133 22.42906189 C45.70316166 21.02101303 46.06963863 19.61358945 46.43847656 18.20678711 C47.0045588 16.04509133 47.56138461 13.88115586 48.1171875 11.71679688 C50.86136551 1.13863449 50.86136551 1.13863449 52 0 C61.9 0 71.8 0 82 0 C82 24.42 82 48.84 82 74 C75.73 74 69.46 74 63 74 C62.67 58.82 62.34 43.64 62 28 C58.04 43.18 54.08 58.36 50 74 C44.06 74 38.12 74 32 74 C28.04 58.82 24.08 43.64 20 28 C19.67 43.18 19.34 58.36 19 74 C12.73 74 6.46 74 0 74 C0 49.58 0 25.16 0 0 Z " fill="#464648" transform="translate(548,421)"/>
<path d="M0 0 C22 0 22 0 26.75 4.5625 C27.87508166 6.68674176 28.95488463 8.83529548 30 11 C31.61496413 13.57078719 33.34386848 16.06026195 35.0625 18.5625 C35.84693684 19.75005926 36.62949122 20.93886412 37.41015625 22.12890625 C40.53580095 26.80087291 43.77650255 31.39500365 47 36 C47.33 24.12 47.66 12.24 48 0 C55.26 0 62.52 0 70 0 C70 24.42 70 48.84 70 74 C48 74 48 74 43.1875 69.32421875 C42.08242229 67.23815045 41.02175183 65.12812144 40 63 C38.52715508 60.79106434 37.03617109 58.61979311 35.5 56.45703125 C33.99782119 54.24366466 32.49821096 52.02855432 31 49.8125 C28.36 45.914375 25.72 42.01625 23 38 C22.67 49.88 22.34 61.76 22 74 C14.74 74 7.48 74 0 74 C0 49.58 0 25.16 0 0 Z " fill="#464648" transform="translate(171,421)"/>
<path d="M0 0 C21 0 21 0 25.0625 3.375 C26.07623018 5.23154073 27.04842648 7.1108467 28 9 C29.44303114 11.23819253 30.94213935 13.43297886 32.44506836 15.63134766 C33.99852475 17.90631127 35.52193132 20.19812937 37.03515625 22.5 C40.00711388 27.01079735 43.00360089 31.50540133 46 36 C46.33 24.12 46.66 12.24 47 0 C54.26 0 61.52 0 69 0 C69 24.42 69 48.84 69 74 C47 74 47 74 41.6328125 69.390625 C39.76953125 66.41015625 39.76953125 66.41015625 38.125 63.25 C37.52816406 62.25355469 36.93132812 61.25710938 36.31640625 60.23046875 C34.49538554 57.18232394 32.7477774 54.0907244 31 51 C28.36 47.04 25.72 43.08 23 39 C22.67 50.55 22.34 62.1 22 74 C14.74 74 7.48 74 0 74 C0 49.58 0 25.16 0 0 Z " fill="#464648" transform="translate(1481,421)"/>
<path d="M0 0 C22 0 22 0 28.09375 5.80859375 C29.4934082 7.77893066 29.4934082 7.77893066 30.39453125 9.51367188 C30.74209473 10.15876709 31.0896582 10.8038623 31.44775391 11.46850586 C31.79499512 12.11827393 32.14223633 12.76804199 32.5 13.4375 C33.25688518 14.71472344 34.02119704 15.98757576 34.79296875 17.25585938 C36.21986413 19.61977805 37.58331909 21.99134214 38.92382812 24.40795898 C41.41914208 28.72516903 44.23400348 32.85100523 47 37 C47.33 24.79 47.66 12.58 48 0 C54.93 0 61.86 0 69 0 C69 24.42 69 48.84 69 74 C61.74 74 54.48 74 47 74 C42.83885824 69.53012837 41.34397809 67.27840128 39 62 C37.61294822 59.83322138 36.18511907 57.69203228 34.71875 55.578125 C28.859375 46.7890625 28.859375 46.7890625 23 38 C22.67 49.88 22.34 61.76 22 74 C14.74 74 7.48 74 0 74 C0 49.58 0 25.16 0 0 Z " fill="#454548" transform="translate(2256,421)"/>
<path d="M0 0 C22 0 22 0 28.6015625 6.5703125 C30.16357422 8.78417969 30.16357422 8.78417969 31.203125 10.7265625 C31.80157227 11.8098584 31.80157227 11.8098584 32.41210938 12.91503906 C33.01249023 14.00896973 33.01249023 14.00896973 33.625 15.125 C34.49524311 16.57216044 35.37282289 18.01493524 36.2578125 19.453125 C38.19830953 22.63270647 40.06418808 25.84361208 41.86978149 29.10159302 C43.47577224 31.79914578 45.25855964 34.38783946 47 37 C47.33 24.79 47.66 12.58 48 0 C54.93 0 61.86 0 69 0 C69 24.42 69 48.84 69 74 C61.74 74 54.48 74 47 74 C39.26695733 65.9776258 39.26695733 65.9776258 37.34375 62.3671875 C36.70373047 61.20074707 36.70373047 61.20074707 36.05078125 60.01074219 C35.62152344 59.22344727 35.19226563 58.43615234 34.75 57.625 C33.81474115 56.04764249 32.87206798 54.47465656 31.921875 52.90625 C30.19929118 50.04729938 28.52625628 47.1696571 26.89746094 44.25634766 C25.20682871 41.0368599 25.20682871 41.0368599 23 39 C22.67 50.55 22.34 62.1 22 74 C14.74 74 7.48 74 0 74 C0 49.58 0 25.16 0 0 Z " fill="#464648" transform="translate(715,421)"/>
<path d="M0 0 C4.23118629 3.53188982 6.97363994 8.17602897 8.5625 13.4375 C8.18359375 15.7421875 8.18359375 15.7421875 7.5625 17.4375 C5.02203542 17.94438605 2.48041124 18.44316874 -0.0625 18.9375 C-0.77535156 19.08058594 -1.48820312 19.22367187 -2.22265625 19.37109375 C-6.32725495 20.161888 -10.24057703 20.8317564 -14.4375 20.4375 C-16.0625 18.0625 -16.0625 18.0625 -17.4375 15.4375 C-21.59635092 12.82029209 -25.66725422 12.77496586 -30.4375 13.4375 C-35.39546054 15.82466618 -37.46193583 18.34262399 -39.4375 23.4375 C-41.71758101 31.3141435 -40.55047608 38.98482423 -37.4375 46.4375 C-35.10569219 49.42512875 -34.02763501 50.24078833 -30.4375 51.4375 C-23.86445154 51.98176516 -18.11407803 52.01621224 -12.4375 48.4375 C-12.1075 46.7875 -11.7775 45.1375 -11.4375 43.4375 C-16.0575 43.4375 -20.6775 43.4375 -25.4375 43.4375 C-25.4375 37.8275 -25.4375 32.2175 -25.4375 26.4375 C-13.8875 26.4375 -2.3375 26.4375 9.5625 26.4375 C9.5625 37.3275 9.5625 48.2175 9.5625 59.4375 C-7.24791285 69.0434502 -22.5089137 73.7853447 -41.625 69.3125 C-49.85780394 66.57248011 -56.23412299 60.9986042 -60.4375 53.4375 C-65.39189001 42.11317997 -66.75969344 28.23348625 -62.4375 16.4375 C-58.73659203 7.936977 -53.16952529 1.02952265 -44.57421875 -2.78515625 C-31.17896303 -7.65838456 -12.20695423 -8.0243107 0 0 Z " fill="#454548" transform="translate(1625.4375,425.5625)"/>
<path d="M0 0 C6.043125 -0.04125 12.08625 -0.0825 18.3125 -0.125 C21.13808472 -0.15231201 21.13808472 -0.15231201 24.02075195 -0.18017578 C48.85657603 -0.32354579 48.85657603 -0.32354579 58 8 C65.45637985 16.5332312 67.52228414 26.42095989 67.375 37.5 C67.38660156 38.37269531 67.39820313 39.24539063 67.41015625 40.14453125 C67.36511729 50.27829668 64.85274442 58.46547743 58 66 C50.50070741 73.30194279 40.73003626 74.15850587 30.76171875 74.09765625 C29.98042603 74.09664917 29.1991333 74.09564209 28.39416504 74.09460449 C25.4919283 74.08939553 22.58971259 74.07543433 19.6875 74.0625 C13.190625 74.041875 6.69375 74.02125 0 74 C0 49.58 0 25.16 0 0 Z M23 19 C23 31.21 23 43.42 23 56 C31.37309666 56.08063142 31.37309666 56.08063142 39 54 C44.86438526 47.08303277 44.56220937 39.71424523 44 31 C43.19162418 26.63614071 41.70487388 23.72294757 38.5625 20.5 C33.8009645 18.223886 33.8009645 18.223886 23 19 Z " fill="#464648" transform="translate(1364,421)"/>
<path d="M0 0 C48.1227154 0 48.1227154 0 57.68359375 8.49609375 C65.91574577 17.05671068 67.10399134 28.60717098 67 40 C66.24131663 51.32189036 64.18937818 59.6931644 55.78125 67.53125 C48.35584767 73.65395017 38.84187205 74.31423438 29.58984375 74.1953125 C28.83223755 74.19329834 28.07463135 74.19128418 27.29406738 74.18920898 C24.50848187 74.17887493 21.72298377 74.15095421 18.9375 74.125 C12.688125 74.08375 6.43875 74.0425 0 74 C0 49.58 0 25.16 0 0 Z M23 19 C23 31.21 23 43.42 23 56 C30.85242593 56.09209757 30.85242593 56.09209757 38 54 C42.92066158 48.94984732 43.20396063 44.46104266 43.25 37.6875 C43.270625 36.94048828 43.29125 36.19347656 43.3125 35.42382812 C43.35244015 29.73734915 42.21822347 25.68035337 38.5 21.1875 C33.8551271 17.51030895 29.1073694 19 23 19 Z " fill="#464648" transform="translate(1753,421)"/>
<path d="M0 0 C6.64114008 5.57527809 10.62487655 13.04269791 11.8984375 21.59375 C12.69313746 34.83006401 12.6661729 47.39098881 3.7734375 58.09375 C-4.42130389 66.41019547 -13.20085839 68.81148405 -24.6015625 68.90625 C-36.74376267 68.89519824 -46.19972447 66.74522575 -55.07421875 57.95703125 C-61.75438676 50.16993752 -63.48921483 40.74084941 -63.4140625 30.71875 C-63.40842285 29.92863525 -63.4027832 29.13852051 -63.39697266 28.32446289 C-63.18903863 18.3096601 -60.66506063 10.32771394 -54.1015625 2.59375 C-40.02919077 -10.7502381 -15.43075618 -11.364167 0 0 Z M-36.1015625 15.59375 C-40.78290963 22.05078052 -40.63764663 28.86024003 -40.1015625 36.59375 C-39.1462083 41.54054165 -37.23043025 45.67290648 -33.03515625 48.73828125 C-28.80492428 50.60983843 -24.57154637 50.49422501 -20.1015625 49.59375 C-15.5072275 47.34563234 -13.5053777 44.62962376 -11.6640625 39.90625 C-10.25424913 31.71366785 -10.29551675 24.07459854 -14.1015625 16.59375 C-17.88294788 12.90689925 -20.63567164 11.71390499 -25.9140625 11.28125 C-30.29776447 11.34571621 -32.74724553 12.70747726 -36.1015625 15.59375 Z " fill="#454548" transform="translate(2233.1015625,427.40625)"/>
<path d="M0 0 C19.8 0 39.6 0 60 0 C60 5.94 60 11.88 60 18 C47.79 18 35.58 18 23 18 C23 20.97 23 23.94 23 27 C34.55 27 46.1 27 58 27 C58 32.61 58 38.22 58 44 C46.45 44 34.9 44 23 44 C23 47.96 23 51.92 23 56 C35.54 56 48.08 56 61 56 C61 61.94 61 67.88 61 74 C40.87 74 20.74 74 0 74 C0 49.58 0 25.16 0 0 Z " fill="#464648" transform="translate(1680,421)"/>
<path d="M0 0 C19.8 0 39.6 0 60 0 C60 5.94 60 11.88 60 18 C47.79 18 35.58 18 23 18 C23 20.97 23 23.94 23 27 C34.55 27 46.1 27 58 27 C58 32.61 58 38.22 58 44 C46.45 44 34.9 44 23 44 C23 47.96 23 51.92 23 56 C35.54 56 48.08 56 61 56 C61 61.94 61 67.88 61 74 C40.87 74 20.74 74 0 74 C0 49.58 0 25.16 0 0 Z " fill="#464648" transform="translate(332,421)"/>
<path d="M0 0 C19.8 0 39.6 0 60 0 C60 5.94 60 11.88 60 18 C47.79 18 35.58 18 23 18 C23 20.97 23 23.94 23 27 C34.22 27 45.44 27 57 27 C57 32.61 57 38.22 57 44 C45.78 44 34.56 44 23 44 C23 47.96 23 51.92 23 56 C35.54 56 48.08 56 61 56 C61 61.94 61 67.88 61 74 C40.87 74 20.74 74 0 74 C0 49.58 0 25.16 0 0 Z " fill="#464648" transform="translate(643,421)"/>
<path d="M0 0 C7.59 0 15.18 0 23 0 C23.03738281 3.32320313 23.07476563 6.64640625 23.11328125 10.0703125 C23.1595237 13.29726658 23.21074758 16.52410591 23.26245117 19.75097656 C23.29565666 21.98951211 23.32370216 24.22813049 23.34643555 26.46679688 C23.38006145 29.68916039 23.43238272 32.91076774 23.48828125 36.1328125 C23.49467117 37.12991241 23.5010611 38.12701233 23.50764465 39.15432739 C23.61963676 44.47564781 23.92106644 48.4512968 27 53 C31.2340218 55.8226812 35.02817503 55.785025 40 55 C43.62571287 52.33621095 45.19600027 50.35192687 46 46 C46.11056461 44.44350108 46.17531972 42.88337464 46.20532227 41.32324219 C46.22526749 40.40258972 46.24521271 39.48193726 46.26576233 38.53338623 C46.28247482 37.54783752 46.29918732 36.56228882 46.31640625 35.546875 C46.33718735 34.53151672 46.35796844 33.51615845 46.37937927 32.47003174 C46.44470597 29.23008927 46.50368137 25.99006652 46.5625 22.75 C46.60570126 20.55207507 46.64931607 18.35415822 46.69335938 16.15625 C46.80114744 10.7709144 46.90034673 5.38551688 47 0 C54.59 0 62.18 0 70 0 C70.09237788 6.74101902 70.17185248 13.47979703 70.21972656 20.22094727 C70.23970626 22.50878385 70.26689951 24.79657026 70.30175781 27.08422852 C70.72737166 55.7568319 70.72737166 55.7568319 63.375 66 C57.31140818 72.2024527 49.1574547 74.94084543 40.671875 75.16796875 C39.03128016 75.17985712 37.39063742 75.18621625 35.75 75.1875 C34.53763672 75.20586914 34.53763672 75.20586914 33.30078125 75.22460938 C23.41119545 75.24834438 14.87725971 73.52615069 7.49609375 66.5859375 C-0.09213975 58.11429771 -0.15070092 48.39253433 -0.09765625 37.6953125 C-0.0962413 36.61619598 -0.09482635 35.53707947 -0.09336853 34.42526245 C-0.08778844 30.99181298 -0.07523955 27.55842964 -0.0625 24.125 C-0.05748243 21.79166761 -0.05291997 19.4583342 -0.04882812 17.125 C-0.03867809 11.41662093 -0.01909868 5.70838416 0 0 Z " fill="#464648" transform="translate(1830,421)"/>
<path d="M0 0 C4.39157623 3.77924316 6.83815055 8.26394338 7.66796875 13.98046875 C7.70921875 15.15609375 7.75046875 16.33171875 7.79296875 17.54296875 C6.17516718 19.16077032 4.33661357 18.76569022 2.1015625 18.859375 C0.68520508 18.9222168 0.68520508 18.9222168 -0.75976562 18.98632812 C-1.75298828 19.02564453 -2.74621094 19.06496094 -3.76953125 19.10546875 C-4.76662109 19.14865234 -5.76371094 19.19183594 -6.79101562 19.23632812 C-9.26287275 19.34277173 -11.73483435 19.44478803 -14.20703125 19.54296875 C-14.47515625 18.40859375 -14.74328125 17.27421875 -15.01953125 16.10546875 C-15.60734375 14.34203125 -15.60734375 14.34203125 -16.20703125 12.54296875 C-19.22193682 11.53800023 -21.24884817 11.43961572 -24.39453125 11.48046875 C-25.29558594 11.48949219 -26.19664062 11.49851562 -27.125 11.5078125 C-28.15560547 11.52521484 -28.15560547 11.52521484 -29.20703125 11.54296875 C-29.53703125 12.86296875 -29.86703125 14.18296875 -30.20703125 15.54296875 C-25.24078456 18.32246488 -20.43649351 19.57824391 -14.95703125 20.85546875 C-6.49887889 22.96576037 2.06114242 25.25177002 7.35546875 32.73046875 C10.80085949 39.47145063 11.05052787 47.71727501 9.14453125 55.03125 C6.3280191 61.22998401 1.3136553 65.57049532 -4.83203125 68.35546875 C-15.98379206 72.27923644 -32.42448807 72.69585078 -43.20703125 67.54296875 C-49.50857251 63.5884301 -53.10818482 58.65235607 -55.20703125 51.54296875 C-55.73112496 48.84634985 -56.00717459 46.29099778 -56.20703125 43.54296875 C-48.51584529 42.79129962 -40.93475232 42.40606031 -33.20703125 42.54296875 C-32.81515625 43.80109375 -32.42328125 45.05921875 -32.01953125 46.35546875 C-30.92012147 49.24461538 -30.31882758 50.44359423 -27.95703125 52.54296875 C-23.35038154 54.2181141 -18.8558283 54.03058381 -14.20703125 52.54296875 C-13.42900938 50.24142765 -13.42900938 50.24142765 -13.20703125 47.54296875 C-14.6891493 44.92152281 -15.73531721 43.74755439 -18.51611328 42.54150391 C-19.40669434 42.30737793 -20.29727539 42.07325195 -21.21484375 41.83203125 C-22.20226562 41.55617188 -23.1896875 41.2803125 -24.20703125 40.99609375 C-26.26653106 40.4503263 -28.32641875 39.90602013 -30.38671875 39.36328125 C-38.18181233 37.18227061 -45.91585993 34.25914009 -50.70703125 27.35546875 C-53.75282604 21.64460351 -54.41564267 15.53483961 -52.5234375 9.28515625 C-49.75021013 3.23238614 -45.70041799 -0.18767073 -39.76953125 -3.20703125 C-27.51578648 -7.50659082 -11.04770473 -7.51949563 0 0 Z " fill="#454548" transform="translate(456.20703125,425.45703125)"/>
<path d="M0 0 C1.5631897 0.00785522 1.5631897 0.00785522 3.15795898 0.01586914 C4.28266602 0.0190918 5.40737305 0.02231445 6.56616211 0.02563477 C7.75016602 0.03401367 8.93416992 0.04239258 10.15405273 0.05102539 C11.34192383 0.05553711 12.52979492 0.06004883 13.75366211 0.06469727 C16.69967499 0.07652864 19.64558954 0.09301252 22.59155273 0.11352539 C25.96883632 9.0219276 29.34192233 17.93190439 32.7096777 26.84391308 C34.27363347 30.98217364 35.83902322 35.11987974 37.40771484 39.25634766 C38.92186069 43.24914445 40.43220723 47.24335929 41.93994331 51.2385807 C42.51550102 52.7616913 43.09242002 54.28428821 43.67072868 55.80635643 C44.48121123 57.94019355 45.28681088 60.07581466 46.09130859 62.21191406 C46.78080849 64.03392586 46.78080849 64.03392586 47.48423767 65.89274597 C48.59155273 69.11352539 48.59155273 69.11352539 49.59155273 74.11352539 C41.34155273 74.11352539 33.09155273 74.11352539 24.59155273 74.11352539 C23.60155273 70.15352539 22.61155273 66.19352539 21.59155273 62.11352539 C13.67155273 62.44352539 5.75155273 62.77352539 -2.40844727 63.11352539 C-3.39844727 66.41352539 -4.38844727 69.71352539 -5.40844727 73.11352539 C-6.40844727 74.11352539 -6.40844727 74.11352539 -8.63330078 74.22705078 C-10.07080688 74.21919556 -10.07080688 74.21919556 -11.53735352 74.21118164 C-13.0890625 74.20634766 -13.0890625 74.20634766 -14.67211914 74.20141602 C-15.76073242 74.19303711 -16.8493457 74.1846582 -17.97094727 74.17602539 C-19.60966797 74.16925781 -19.60966797 74.16925781 -21.28149414 74.16235352 C-23.99053222 74.15052366 -26.69946326 74.13404082 -29.40844727 74.11352539 C-28.84516871 69.17502827 -27.78115811 64.9174396 -26.01586914 60.27612305 C-25.77349014 59.6329715 -25.53111115 58.98981995 -25.28138733 58.32717896 C-24.48695471 56.22459872 -23.68230342 54.12610167 -22.87719727 52.02758789 C-22.31996252 50.56046195 -21.76328981 49.09312243 -21.20715332 47.62557983 C-20.04477665 44.56273146 -18.87768318 41.50174007 -17.70678711 38.44213867 C-16.20348979 34.51367704 -14.70897994 30.58194698 -13.21755219 26.64896584 C-12.07036729 23.62502801 -10.92019592 20.60223398 -9.76893616 17.57984543 C-9.21656049 16.12952261 -8.66475081 14.67898411 -8.11351013 13.22822952 C-7.34548943 11.20925367 -6.57384269 9.1917044 -5.80102539 7.17456055 C-5.14269714 5.45083725 -5.14269714 5.45083725 -4.47106934 3.69229126 C-3.00802695 0.14178738 -3.00802695 0.14178738 0 0 Z M8.59155273 24.11352539 C5.62155273 34.50852539 5.62155273 34.50852539 2.59155273 45.11352539 C7.21155273 45.11352539 11.83155273 45.11352539 16.59155273 45.11352539 C14.61155273 38.18352539 12.63155273 31.25352539 10.59155273 24.11352539 C9.93155273 24.11352539 9.27155273 24.11352539 8.59155273 24.11352539 Z " fill="#464648" transform="translate(2013.408447265625,420.886474609375)"/>
<path d="M0 0 C6.43813107 5.1662396 9.97027428 10.52569095 11.91796875 18.5390625 C7.57282469 20.51023239 3.2690876 21.34719986 -1.39453125 22.1640625 C-2.50538086 22.36515625 -2.50538086 22.36515625 -3.63867188 22.5703125 C-5.45228169 22.89793234 -7.26704649 23.21914744 -9.08203125 23.5390625 C-10.06673177 21.76293945 -11.05143229 19.98681641 -12.03613281 18.21069336 C-13.48072851 15.90183558 -14.42731986 15.20274035 -17.08203125 14.5390625 C-22.44256073 14.11362365 -25.7362477 14.06243566 -30.08203125 17.5390625 C-35.10104418 23.09582681 -34.41555657 29.75325858 -34.30078125 36.88671875 C-33.99216059 42.03958161 -33.2078159 45.58426487 -29.28515625 49.19140625 C-26.66307991 50.79533592 -25.13232188 50.91201033 -22.08203125 50.8515625 C-20.81359375 50.84576172 -20.81359375 50.84576172 -19.51953125 50.83984375 C-16.82914908 50.50785749 -15.30525081 50.09438207 -13.08203125 48.5390625 C-11.52757858 46.15383309 -11.52757858 46.15383309 -10.33203125 43.4140625 C-9.9040625 42.50398438 -9.47609375 41.59390625 -9.03515625 40.65625 C-8.56335937 39.60824219 -8.56335937 39.60824219 -8.08203125 38.5390625 C-1.13179861 39.18559577 5.29974178 41.39933498 11.91796875 43.5390625 C11.47421125 51.67461669 8.76205902 58.15509895 2.79296875 63.8515625 C-6.89205152 71.26504283 -18.36768557 71.78610737 -30.08203125 70.5390625 C-41.32135274 68.39878438 -47.30174003 64.56968214 -53.6875 55.2109375 C-57.55224733 47.80621151 -58.6100894 40.96235115 -58.51953125 32.6640625 C-58.51195801 31.69388184 -58.50438477 30.72370117 -58.49658203 29.72412109 C-58.2518266 19.09959147 -55.66446703 10.28020043 -48.08203125 2.5390625 C-35.77315044 -8.0311199 -13.35914501 -9.11941635 0 0 Z " fill="#454548" transform="translate(1969.08203125,425.4609375)"/>
<path d="M0 0 C8.25 0 16.5 0 25 0 C29.95 15.84 34.9 31.68 40 48 C45.14025651 32.03815083 50.15368484 16.05341898 55 0 C62.92 0 70.84 0 79 0 C78.31575711 4.10545734 77.74029158 7.11344292 76.34521484 10.87768555 C76.00751068 11.79692307 75.66980652 12.71616058 75.3218689 13.66325378 C74.95526154 14.64449722 74.58865417 15.62574066 74.2109375 16.63671875 C73.82942535 17.67077347 73.44791321 18.70482819 73.05484009 19.7702179 C71.83320932 23.07784668 70.60425587 26.38269845 69.375 29.6875 C68.57112397 31.85984455 67.76773392 34.03236901 66.96484375 36.20507812 C65.39561245 40.44941442 63.8236143 44.69270778 62.24902344 48.93505859 C59.15087823 57.28447507 56.07587642 65.64235724 53 74 C44.42 74 35.84 74 27 74 C23.62316426 65.09142674 20.24963085 56.18162218 16.88187504 47.26961231 C15.31791926 43.13135175 13.75252951 38.99364565 12.18383789 34.85717773 C10.66969204 30.86438094 9.15934551 26.8701661 7.65160942 22.87494469 C7.07605171 21.35183409 6.49913271 19.82923718 5.92082405 18.30716896 C5.1103415 16.17333184 4.30474185 14.03771073 3.50024414 11.90161133 C2.81074425 10.07959953 2.81074425 10.07959953 2.10731506 8.22077942 C1 5 1 5 0 0 Z " fill="#454548" transform="translate(247,421)"/>
<path d="M0 0 C6.93 0 13.86 0 21 0 C21 24.42 21 48.84 21 74 C14.4 74 7.8 74 1 74 C0.67 72.35 0.34 70.7 0 69 C-0.928125 69.804375 -1.85625 70.60875 -2.8125 71.4375 C-7.50078623 75.5006814 -12.06841847 75.2797551 -18.0546875 75.21484375 C-23.0843172 74.84796095 -25.83900707 72.96749411 -29.625 69.8125 C-37.57900817 60.3932798 -37.80350759 49.81933751 -37 38 C-35.84080471 31.20912363 -32.94594128 25.94569105 -27.3203125 21.74609375 C-21.65357342 18.37191509 -15.43481186 17.90608198 -9 19 C-6.36 20.32 -3.72 21.64 -1 23 C-0.67 15.41 -0.34 7.82 0 0 Z M-13.875 37.3125 C-16.81167809 41.71751714 -16.47832636 46.916769 -16 52 C-14.83567931 54.48050929 -13.90574048 56.09425952 -12 58 C-6.9474454 58.50886541 -6.9474454 58.50886541 -2.625 56.1875 C0.3776761 52.14543602 0.55254952 47.87767854 0 43 C-1.3961755 40.08072396 -2.72202996 38.27797004 -5 36 C-9.70516025 35.47754445 -9.70516025 35.47754445 -13.875 37.3125 Z " fill="#454548" transform="translate(1070,421)"/>
<path d="M0 0 C22.77 0 45.54 0 69 0 C69 6.6 69 13.2 69 20 C61.41 20 53.82 20 46 20 C46 37.82 46 55.64 46 74 C38.41 74 30.82 74 23 74 C23 56.18 23 38.36 23 20 C15.41 20 7.82 20 0 20 C0 13.4 0 6.8 0 0 Z " fill="#464648" transform="translate(471,421)"/>
<path d="M0 0 C9.42643222 8.52763287 13.93021528 20.62756725 14.5625 33.0625 C14.29982988 45.64678652 10.40572937 56.46805226 1.75 65.75 C-7.19573499 74.09219964 -17.62568578 78.29789449 -29.81640625 78.40234375 C-43.04461152 77.79325283 -54.35313178 73.15982158 -63.5078125 63.359375 C-72.58695445 51.77092246 -74.97323238 39.43313464 -73.34765625 24.89453125 C-71.23005646 13.49982761 -64.5981059 3.85386892 -55.546875 -3.2578125 C-37.97321235 -14.81214975 -16.34461883 -12.60351718 0 0 Z M-54.625 10.375 C-61.55891536 19.4466442 -64.81517419 27.92150551 -63.625 39.375 C-61.80662328 48.12517524 -57.41668685 54.62818805 -50.625 60.375 C-41.98272804 65.7709363 -33.42646426 68.85979481 -23.203125 66.9140625 C-13.92405884 64.46461957 -5.988752 59.4369809 -0.625 51.375 C3.9385694 42.87681468 5.76873772 34.94578809 3.1875 25.4375 C-0.03503052 15.62140472 -5.99684658 7.91266509 -15.23046875 2.984375 C-28.68990815 -2.5314703 -44.26954541 -0.242618 -54.625 10.375 Z " fill="#454548" transform="translate(2412.625,100.625)"/>
<path d="M0 0 C22.44 0 44.88 0 68 0 C68 6.6 68 13.2 68 20 C60.41 20 52.82 20 45 20 C45 37.82 45 55.64 45 74 C37.41 74 29.82 74 22 74 C22 56.18 22 38.36 22 20 C14.74 20 7.48 20 0 20 C0 13.4 0 6.8 0 0 Z " fill="#464647" transform="translate(2057,421)"/>
<path d="M0 0 C22.44 0 44.88 0 68 0 C68 6.6 68 13.2 68 20 C60.41 20 52.82 20 45 20 C45 37.82 45 55.64 45 74 C37.41 74 29.82 74 22 74 C22 56.18 22 38.36 22 20 C14.74 20 7.48 20 0 20 C0 13.4 0 6.8 0 0 Z " fill="#464648" transform="translate(1132,421)"/>
<path d="M0 0 C22.44 0 44.88 0 68 0 C68 6.6 68 13.2 68 20 C60.74 20 53.48 20 46 20 C46 37.82 46 55.64 46 74 C38.41 74 30.82 74 23 74 C23 56.18 23 38.36 23 20 C15.41 20 7.82 20 0 20 C0 13.4 0 6.8 0 0 Z " fill="#464647" transform="translate(793,421)"/>
<path d="M0 0 C0.93779297 -0.01611328 1.87558594 -0.03222656 2.84179688 -0.04882812 C10.27303808 -0.0539923 16.49451421 1.21824747 22.9375 5 C29.67340282 12.33024719 28.57811193 22.56384686 28.6875 31.875 C28.72425395 34.10320832 28.76509587 36.3312551 28.81015015 38.55931091 C28.84935782 40.57789916 28.87740416 42.59669521 28.90478516 44.61547852 C29.02551069 48.87940818 29.02551069 48.87940818 30.0625 55.3125 C23.7925 55.3125 17.5225 55.3125 11.0625 55.3125 C10.4025 53.6625 9.7425 52.0125 9.0625 50.3125 C7.7940625 51.240625 7.7940625 51.240625 6.5 52.1875 C-1.00970213 57.07834527 -9.18542742 57.12007302 -17.9375 56.3125 C-22.45465242 55.09127292 -25.15290883 53.09709117 -28.4375 49.8125 C-30.66349662 44.61850789 -30.66365148 39.87711342 -29.9375 34.3125 C-27.70692245 28.88152857 -24.63450021 27.47626685 -19.53393555 25.2890625 C-15.13874049 23.6359567 -10.63766782 22.58997413 -6.0625 21.5625 C-5.12664063 21.34207031 -4.19078125 21.12164062 -3.2265625 20.89453125 C3.61252911 19.3125 3.61252911 19.3125 7.0625 19.3125 C6.4025 17.9925 5.7425 16.6725 5.0625 15.3125 C3.66946395 15.17592784 2.27243879 15.07978851 0.875 15 C-0.29095703 14.91298828 -0.29095703 14.91298828 -1.48046875 14.82421875 C-4.21614624 15.10183448 -4.21614624 15.10183448 -6.09375 17.875 C-9.3092704 20.63116034 -9.79271458 20.63068685 -13.80078125 20.36328125 C-15.62072579 20.1448879 -17.43741955 19.8978478 -19.25 19.625 C-20.18134766 19.50705078 -21.11269531 19.38910156 -22.07226562 19.26757812 C-24.36508855 18.97362647 -26.65146407 18.65469051 -28.9375 18.3125 C-28.07674455 12.1322759 -26.12814841 8.50314841 -21.6875 4.0625 C-15.07619905 -0.14469151 -7.59258978 -0.02598422 0 0 Z M-1 33.1875 C-2.06347656 33.53554688 -3.12695312 33.88359375 -4.22265625 34.2421875 C-7.0321388 35.14148292 -7.0321388 35.14148292 -8.9375 37.3125 C-8.77242354 39.88790213 -8.77242354 39.88790213 -7.9375 42.3125 C-5.07141871 43.74554064 -3.12449217 43.61894155 0.0625 43.3125 C3.33492177 41.80215149 5.50343099 40.7075103 6.8828125 37.265625 C7.37672571 35.3038852 7.72992717 33.30793695 8.0625 31.3125 C4.65313303 31.3125 2.23077888 32.11188224 -1 33.1875 Z " fill="#464648" transform="translate(929.9375,439.6875)"/>
<path d="M0 0 C4.1980346 2.61375688 5.92268993 5.88421607 7.5 10.5 C7.99428792 13.91316601 7.96966449 17.24461687 7.890625 20.6875 C7.88496521 21.63061035 7.87930542 22.5737207 7.87347412 23.54541016 C7.85124585 26.53080978 7.8010756 29.51496874 7.75 32.5 C7.72991746 34.53513881 7.71166978 36.57029659 7.6953125 38.60546875 C7.65484228 43.57116442 7.57652761 48.53420859 7.5 53.5 C0.9 53.5 -5.7 53.5 -12.5 53.5 C-12.54898438 51.40398437 -12.59796875 49.30796875 -12.6484375 47.1484375 C-12.70255439 45.10295905 -12.75981952 43.05759106 -12.81738281 41.01220703 C-12.85550238 39.59822937 -12.89038404 38.18416035 -12.921875 36.77001953 C-12.96789858 34.7291616 -13.02582667 32.6889234 -13.0859375 30.6484375 C-13.1173584 29.42302246 -13.1487793 28.19760742 -13.18115234 26.93505859 C-13.50194482 23.47904781 -14.16791248 20.6995223 -15.5 17.5 C-18.57867442 15.9075822 -21.23491331 16.68372833 -24.5 17.5 C-25.67125374 21.2513465 -25.72059865 24.99631612 -25.81640625 28.890625 C-25.83718735 29.59523865 -25.85796844 30.29985229 -25.87937927 31.02581787 C-25.94453837 33.26711681 -26.00360248 35.50852864 -26.0625 37.75 C-26.10571726 39.27344897 -26.14933257 40.79688671 -26.19335938 42.3203125 C-26.30093115 46.04676119 -26.4002535 49.7733008 -26.5 53.5 C-33.43 53.5 -40.36 53.5 -47.5 53.5 C-47.5 35.68 -47.5 17.86 -47.5 -0.5 C-41.23 -0.5 -34.96 -0.5 -28.5 -0.5 C-28.17 1.48 -27.84 3.46 -27.5 5.5 C-26.613125 4.71625 -25.72625 3.9325 -24.8125 3.125 C-18.11341121 -2.79512497 -8.11822494 -3.44224922 0 0 Z " fill="#464648" transform="translate(1016.5,441.5)"/>
<path d="M0 0 C7.59 0 15.18 0 23 0 C23 24.42 23 48.84 23 74 C15.41 74 7.82 74 0 74 C0 49.58 0 25.16 0 0 Z " fill="#464648" transform="translate(2135,421)"/>
<path d="M0 0 C7.59 0 15.18 0 23 0 C23 24.42 23 48.84 23 74 C15.41 74 7.82 74 0 74 C0 49.58 0 25.16 0 0 Z " fill="#464648" transform="translate(1443,421)"/>
<path d="M0 0 C7.59 0 15.18 0 23 0 C23 24.42 23 48.84 23 74 C15.41 74 7.82 74 0 74 C0 49.58 0 25.16 0 0 Z " fill="#464648" transform="translate(133,421)"/>
<path d="M0 0 C4.33125 -0.061875 8.6625 -0.12375 13.125 -0.1875 C14.47996582 -0.21481201 15.83493164 -0.24212402 17.23095703 -0.27026367 C18.85300049 -0.28150269 18.85300049 -0.28150269 20.5078125 -0.29296875 C21.60754395 -0.3086792 22.70727539 -0.32438965 23.84033203 -0.34057617 C28.27961917 0.13792835 31.63047984 1.6797015 34.84765625 4.78125 C36.40481177 7.77943419 36.43363969 10.13381308 36.4375 13.5 C36.45683594 14.6240625 36.47617188 15.748125 36.49609375 16.90625 C35.90972387 20.56298187 34.83266626 21.71143003 32 24 C33.23865351 26.55553777 34.56935261 29.04800105 35.9453125 31.53125 C36.29980469 32.17707031 36.65429688 32.82289063 37.01953125 33.48828125 C37.75832974 34.83273786 38.50316569 36.17389388 39.25390625 37.51171875 C41.1647765 41.01848063 42 42.92324578 42 47 C37.71 47 33.42 47 29 47 C28.44570312 46.01257813 27.89140625 45.02515625 27.3203125 44.0078125 C26.58871328 42.71344465 25.85693301 41.41917913 25.125 40.125 C24.76019531 39.47402344 24.39539062 38.82304687 24.01953125 38.15234375 C22.51339464 35.49606646 21.16980999 33.16980999 19 31 C17.02 30.67 15.04 30.34 13 30 C13 35.61 13 41.22 13 47 C8.71 47 4.42 47 0 47 C0 31.49 0 15.98 0 0 Z M13 10 C13 13.3 13 16.6 13 20 C18.13725982 20.48489837 18.13725982 20.48489837 22.4375 18 C22.953125 17.34 23.46875 16.68 24 16 C22.88145414 12.27385847 22.88145414 12.27385847 20 10 C17.6670134 9.95977609 15.33293334 9.95679753 13 10 Z " fill="#454548" transform="translate(2363,110)"/>
</svg>
