<?xml version="1.0" encoding="UTF-8"?>
<svg version="1.1" xmlns="http://www.w3.org/2000/svg" width="799" height="166">
<path d="M0 0 C12.47809473 1.69275915 25.1260654 1.17329794 37.6875 1 C37.6875 1.66 37.6875 2.32 37.6875 3 C35.7075 3.33 33.7275 3.66 31.6875 4 C31.61109457 10.26212704 31.55875163 16.52413271 31.52270508 22.78662109 C31.50766924 24.91459648 31.48723517 27.04254114 31.46118164 29.17041016 C31.42456911 32.23868417 31.40772119 35.30654649 31.39453125 38.375 C31.37904739 39.31802979 31.36356354 40.26105957 31.34761047 41.23266602 C31.34576665 48.55880145 32.35667575 54.2030109 37.1875 60 C40.84471919 62.69719915 44.65107763 62.64182615 49.0625 62.4140625 C52.86917587 61.8136047 54.9313637 60.68723289 57.6875 58 C60.95886715 52.04678469 61.08747915 46.95811647 60.98046875 40.25390625 C60.97622391 39.24279282 60.97197906 38.23167938 60.96760559 37.18992615 C60.95089754 33.98050599 60.91325953 30.77172835 60.875 27.5625 C60.85994301 25.37826432 60.84625638 23.19401873 60.83398438 21.00976562 C60.80101991 15.6729602 60.75089943 10.33652602 60.6875 5 C58.3775 4.34 56.0675 3.68 53.6875 3 C53.6875 2.34 53.6875 1.68 53.6875 1 C61.3895631 0.93029879 69.09159323 0.87708697 76.79390049 0.84456348 C80.37093357 0.82894885 83.94774986 0.8077884 87.5246582 0.77368164 C90.98060659 0.74093682 94.43634727 0.72311542 97.89243889 0.71536827 C99.84385408 0.70717836 101.79518644 0.68378322 103.74647522 0.66011047 C110.89804133 0.65876087 116.73681303 0.67823405 122.4296875 5.46484375 C126.37822165 10.59793814 126.37822165 10.59793814 126.6875 14 C126.81125 15.03125 126.935 16.0625 127.0625 17.125 C126.32317831 24.7646575 122.4549326 31.05648634 116.6875 36 C119.23254393 41.51213032 123.05872404 46.16786706 126.6875 51 C127.78191406 52.51400391 127.78191406 52.51400391 128.8984375 54.05859375 C130.00058594 55.51458984 130.00058594 55.51458984 131.125 57 C131.78371094 57.886875 132.44242188 58.77375 133.12109375 59.6875 C136.31591227 62.87634521 136.31591227 62.87634521 144.6875 65 C144.6875 44.87 144.6875 24.74 144.6875 4 C142.7075 3.67 140.7275 3.34 138.6875 3 C138.6875 2.34 138.6875 1.68 138.6875 1 C147.2675 1 155.8475 1 164.6875 1 C164.6875 1.66 164.6875 2.32 164.6875 3 C163.883125 3.28875 163.07875 3.5775 162.25 3.875 C159.5548532 4.73262568 159.5548532 4.73262568 158.6875 7 C158.59198592 8.67410183 158.55954765 10.35198487 158.55810547 12.02880859 C158.55337723 13.60086563 158.55337723 13.60086563 158.54855347 15.2046814 C158.5505777 16.34112091 158.55260193 17.47756042 158.5546875 18.6484375 C158.55373077 19.81251129 158.55277405 20.97658508 158.55178833 22.17593384 C158.55110676 24.64235488 158.55295941 27.1087777 158.55712891 29.57519531 C158.56246785 33.35225461 158.55718805 37.12919447 158.55078125 40.90625 C158.55144222 43.29947943 158.55272379 45.69270878 158.5546875 48.0859375 C158.55165115 49.78452408 158.55165115 49.78452408 158.54855347 51.51742554 C158.55170563 52.57176788 158.55485779 53.62611023 158.55810547 54.71240234 C158.55890106 55.63902679 158.55969666 56.56565125 158.56051636 57.52035522 C158.67850938 59.8244377 159.03737454 61.79350992 159.6875 64 C161.9975 64.66 164.3075 65.32 166.6875 66 C166.6875 66.66 166.6875 67.32 166.6875 68 C161.1375303 68.17391434 155.5891686 68.30047214 150.03710938 68.38452148 C148.15141144 68.41957944 146.26590181 68.4672419 144.38085938 68.52807617 C126.68696202 69.08451745 126.68696202 69.08451745 121.73828125 64.953125 C120.08251953 63.02514648 120.08251953 63.02514648 118.6875 61 C118.20265137 60.36715088 117.71780273 59.73430176 117.21826172 59.08227539 C115.84520853 57.20448689 114.60133858 55.28860005 113.375 53.3125 C112.15960226 51.41120338 110.94244373 49.51148882 109.71240234 47.61962891 C108.88618971 46.31398465 108.12864953 44.96502919 107.39453125 43.60546875 C104.58148485 40.95978895 101.46313323 41.24758251 97.6875 41 C97.82884727 43.89611544 97.9754153 46.7918081 98.125 49.6875 C98.16431641 50.50412109 98.20363281 51.32074219 98.24414062 52.16210938 C98.45648003 56.19655811 98.73197922 60.05747309 99.6875 64 C101.9975 64.66 104.3075 65.32 106.6875 66 C106.6875 66.66 106.6875 67.32 106.6875 68 C97.7775 68 88.8675 68 79.6875 68 C79.6875 67.34 79.6875 66.68 79.6875 66 C82.1625 65.01 82.1625 65.01 84.6875 64 C85.64460297 57.57353354 85.83346339 51.31601668 85.8203125 44.82421875 C85.82126923 43.77724319 85.82222595 42.73026764 85.82321167 41.65156555 C85.82388887 39.45219868 85.82206681 37.25282977 85.81787109 35.0534668 C85.81248928 31.68078166 85.81784549 28.30822806 85.82421875 24.93554688 C85.82355841 22.79427054 85.82227818 20.65299429 85.8203125 18.51171875 C85.82334885 16.99767708 85.82334885 16.99767708 85.82644653 15.45304871 C85.82329437 14.51810074 85.82014221 13.58315277 85.81689453 12.61987305 C85.81609894 11.79794968 85.81530334 10.97602631 85.81448364 10.12919617 C85.768541 7.8111422 85.768541 7.8111422 84.6875 5 C81.13396071 3.8154869 78.41736522 3.73358106 74.6875 4 C72.91602583 5.20386839 72.91602583 5.20386839 71.6875 7 C71.39155291 10.03477217 71.27045913 12.8743416 71.28125 15.91015625 C71.26499573 17.23327065 71.26499573 17.23327065 71.24841309 18.58311462 C71.2141152 21.40965006 71.19856723 24.23578388 71.1875 27.0625 C71.17282285 30.76209913 71.13885342 34.46081646 71.09375 38.16015625 C71.09677124 38.99595718 71.09979248 39.83175812 71.10290527 40.69288635 C70.98882074 49.8368641 68.98003487 57.68413018 62.5859375 64.375 C56.44211714 69.63390796 48.52353837 70.5476801 40.6875 70 C33.59854546 69.050801 28.58729154 66.98264273 23.5 61.75 C16.6763291 51.39684416 17.56657209 39.36703845 17.6875 27.4375 C17.82974588 16.17788063 17.82974588 16.17788063 16.6875 5 C14.3775 4.34 12.0675 3.68 9.6875 3 C9.69910156 3.89203125 9.71070313 4.7840625 9.72265625 5.703125 C9.73167969 6.87359375 9.74070312 8.0440625 9.75 9.25 C9.76160156 10.41015625 9.77320313 11.5703125 9.78515625 12.765625 C9.70532092 15.40977128 9.47393778 17.49826091 8.6875 20 C7.6975 19.67 6.7075 19.34 5.6875 19 C5.39875 17.906875 5.11 16.81375 4.8125 15.6875 C3.50029269 11.38637603 2.49437484 10.2841249 -1.3125 8 C-8.75204814 5.13863533 -16.16831908 4.88183619 -23.52734375 8.02734375 C-29.00827834 11.01367354 -31.27195117 15.28646327 -33.3125 21 C-35.66288308 30.87487337 -35.09560142 41.29412863 -30.05859375 50.22265625 C-26.06550398 56.04364542 -21.00111908 59.77046031 -14.3125 62 C-5.01091844 62.66935864 -5.01091844 62.66935864 3.6875 60 C5.02653214 57.65245602 5.02653214 57.65245602 5.6875 55 C6.33963539 53.65949948 7.00129969 52.32338632 7.6875 51 C8.3475 51 9.0075 51 9.6875 51 C9.92052133 56.7090225 9.86628722 61.66197132 7.6875 67 C2.77492664 71.15679285 -7.13349004 70.36976753 -13.3125 70 C-24.70034686 68.92131356 -33.6909169 65.6463553 -41.62109375 57.1875 C-48.68200952 48.05559969 -49.28669468 37.09983262 -48.3125 26 C-46.56750787 17.34862337 -42.310108 10.78928885 -35.29296875 5.46875 C-24.3611658 -1.72157546 -12.56574144 -1.75596585 0 0 Z M97.6875 7 C97.58766942 8.98757028 97.55669247 10.9786752 97.5546875 12.96875 C97.55339844 14.17917969 97.55210937 15.38960937 97.55078125 16.63671875 C97.55464844 17.91160156 97.55851563 19.18648437 97.5625 20.5 C97.55863281 21.77488281 97.55476562 23.04976562 97.55078125 24.36328125 C97.55207031 25.57371094 97.55335938 26.78414062 97.5546875 28.03125 C97.55581543 29.15080078 97.55694336 30.27035156 97.55810547 31.42382812 C97.39533632 33.93141802 97.39533632 33.93141802 98.6875 35 C103.84145131 35.6681048 107.51606126 35.88455578 111.75 32.6875 C115.6322539 27.30243813 115.28943488 21.40933481 114.6875 15 C112.87110314 11.0178992 111.45011662 9.49735866 107.8125 7.125 C102.54739296 5.22003809 102.54739296 5.22003809 97.6875 7 Z " fill="#5E5F61" transform="translate(440.3125,46)"/>
<path d="M0 0 C0.70760468 -0.00367584 1.41520935 -0.00735168 2.14425659 -0.01113892 C10.97440551 -0.03507233 19.45855292 0.51649964 28.125 2.3125 C28.125 2.6425 28.125 2.9725 28.125 3.3125 C27.123479 3.29678955 26.12195801 3.2810791 25.09008789 3.26489258 C21.28613705 3.20957609 17.48221955 3.17579033 13.67797852 3.14770508 C12.04803442 3.13284528 10.41812859 3.11255164 8.78833008 3.08618164 C-5.9108608 2.85473405 -20.09516605 4.11743757 -34.0625 9.0625 C-34.80242187 9.31854004 -35.54234375 9.57458008 -36.3046875 9.83837891 C-53.4957023 15.97432847 -70.0583852 25.74836885 -78.8125 42.4375 C-84.01316958 53.98657314 -84.32572739 65.09688272 -80.1875 77.15234375 C-72.32636796 96.07989083 -55.47766335 108.0006839 -37.28125 115.97265625 C-4.7416944 128.77204567 33.52878214 131.36205848 66.18798828 117.43261719 C82.33696339 110.19095804 95.10839138 100.80979607 104.125 85.3125 C104.455 85.9725 104.785 86.6325 105.125 87.3125 C97.83372962 105.06515831 81.4372601 116.62573866 64.30859375 124.00390625 C28.80676006 138.45299734 -14.2648949 137.10974982 -49.45703125 122.4609375 C-69.61029488 113.61904475 -86.69445598 100.26835112 -95.95703125 79.9375 C-99.81901603 69.49779684 -99.21690262 56.36099062 -95.1953125 46.08203125 C-85.5127872 25.77164535 -67.69212043 14.48053477 -47.13671875 6.94140625 C-31.52760008 1.59110471 -16.413931 0.04111718 0 0 Z " fill="#C51346" transform="translate(353.875,16.6875)"/>
<path d="M0 0 C3.70329538 1.44164481 4.86060431 2.99925562 6.56542969 6.54150391 C7.02560486 7.48232819 7.48578003 8.42315247 7.9598999 9.39248657 C8.68357758 10.91910416 8.68357758 10.91910416 9.421875 12.4765625 C9.92672424 13.51694672 10.43157349 14.55733093 10.95172119 15.62924194 C12.5626616 18.95574184 14.15646189 22.29013403 15.75 25.625 C16.8387254 27.88074844 17.92855567 30.13596398 19.01953125 32.390625 C21.69254217 37.92096199 24.35152388 43.45787508 27 49 C29.50931 45.75059806 31.30581629 42.54305818 33.07421875 38.828125 C33.50210945 37.93473671 33.50210945 37.93473671 33.93864441 37.02330017 C34.54584332 35.75450279 35.15110641 34.48477747 35.75457764 33.21420288 C37.31362671 29.93173393 38.88626441 26.65577942 40.45703125 23.37890625 C40.76398926 22.73750198 41.07094727 22.09609772 41.38720703 21.43525696 C44.83262078 14.24359252 48.39361014 7.11198001 52 0 C52.99 0.33 53.98 0.66 55 1 C55.54425632 4.20791077 56.08562544 7.41626647 56.625 10.625 C56.7988623 11.6557666 56.97272461 12.6865332 57.15185547 13.74853516 C58.33356134 20.81943155 59.45137946 27.89732396 60.53125 34.984375 C60.79721748 36.71665651 61.06333107 38.44891559 61.32958984 40.18115234 C61.72876908 42.77822578 62.12508525 45.37557186 62.51251221 47.97442627 C62.87868108 50.42943145 63.25480888 52.8827309 63.6328125 55.3359375 C63.74105347 56.08075378 63.84929443 56.82557007 63.96081543 57.59295654 C64.54228622 61.73007313 64.54228622 61.73007313 67 65 C69.31765729 65.71927295 71.65095874 66.3909893 74 67 C74 67.66 74 68.32 74 69 C70.54168414 69.02894547 67.08339928 69.04678 63.625 69.0625 C62.64015625 69.07087891 61.6553125 69.07925781 60.640625 69.08789062 C59.22910156 69.09272461 59.22910156 69.09272461 57.7890625 69.09765625 C56.48509521 69.10551147 56.48509521 69.10551147 55.15478516 69.11352539 C53 69 53 69 51 68 C51.02320313 67.45359863 51.04640625 66.90719727 51.0703125 66.34423828 C51.25152791 58.39503032 50.152719 50.72595105 49 42.875 C48.80665458 41.52352849 48.61394181 40.17196631 48.421875 38.8203125 C47.95410643 35.5459325 47.48000749 32.27260429 47 29 C43.93499526 32.6526672 42.11740003 36.72152181 40.12890625 41.01171875 C39.38274434 42.5894685 38.63598158 44.16693421 37.88867188 45.74414062 C36.71939197 48.2234083 35.55461854 50.70447304 34.40014648 53.19067383 C33.28081874 55.59560369 32.14389497 57.99152842 31.00390625 60.38671875 C30.66210831 61.13459152 30.32031036 61.88246429 29.96815491 62.65299988 C28.96704102 64.73706055 28.96704102 64.73706055 27 68 C24.87705994 68.70393372 24.87705994 68.70393372 23 69 C16.04969385 55.79081224 9.14266986 42.60687028 3 29 C2.32394521 33.49864118 1.66084619 37.99910162 1 42.5 C0.71382812 44.40265625 0.71382812 44.40265625 0.421875 46.34375 C-0.49416448 52.62516356 -1.25653442 58.65077316 -1 65 C0.98 65.66 2.96 66.32 5 67 C5 67.66 5 68.32 5 69 C-2.26 69 -9.52 69 -17 69 C-17 68.34 -17 67.68 -17 67 C-16.04101807 66.62842773 -15.08203613 66.25685547 -14.09399414 65.87402344 C-10.80806956 64.31094323 -10.80806956 64.31094323 -9.93920898 61.30566406 C-9.79298096 60.21995117 -9.64675293 59.13423828 -9.49609375 58.015625 C-9.22490723 56.16843872 -9.22490723 56.16843872 -8.94824219 54.28393555 C-8.7777474 52.93932171 -8.60750608 51.59467571 -8.4375 50.25 C-8.24278168 48.87174277 -8.0451475 47.49389461 -7.84472656 46.11645508 C-7.4271898 43.23031172 -7.02252965 40.3427785 -6.62646484 37.45361328 C-5.71343023 30.8692395 -4.64866331 24.30922172 -3.58279419 17.74816895 C-3.25345806 15.70891241 -2.9314667 13.66861002 -2.61108398 11.62792969 C-2.41458252 10.39333008 -2.21808105 9.15873047 -2.015625 7.88671875 C-1.84321289 6.79576904 -1.67080078 5.70481934 -1.49316406 4.58081055 C-1 2 -1 2 0 0 Z " fill="#5E5F61" transform="translate(120,45)"/>
<path d="M0 0 C3.96516109 -0.07493036 7.93004014 -0.12896449 11.89575195 -0.16479492 C13.89744576 -0.18705458 15.89894275 -0.22520146 17.90039062 -0.26367188 C26.66163653 -0.32987776 34.08808633 -0.19339891 41.0625 5.5 C43.69437187 9.1553776 43.62972004 13.00078942 43.43359375 17.375 C42.83532098 20.99697566 41.35600746 23.22822651 39 26 C38.34 26.99 37.68 27.98 37 29 C37.60328125 29.35191406 38.2065625 29.70382813 38.828125 30.06640625 C43.96597777 33.24027337 48.31933873 35.96742777 50 42 C50.70208296 47.42451464 50.95908525 52.92052698 48.5 57.9375 C44.79413699 62.47718218 40.54060368 65.15313211 35 67 C32.41369776 67.08481773 29.85521944 67.11598229 27.26953125 67.09765625 C26.51911057 67.0962413 25.76868988 67.09482635 24.99552917 67.09336853 C22.6011454 67.0877756 20.20685547 67.07522444 17.8125 67.0625 C16.18815239 67.05748408 14.56380332 67.05292134 12.93945312 67.04882812 C8.95959931 67.03780848 4.97981556 67.02054873 1 67 C1 66.34 1 65.68 1 65 C1.804375 64.71125 2.60875 64.4225 3.4375 64.125 C6.1326468 63.26737432 6.1326468 63.26737432 7 61 C7.0909215 59.1820546 7.11753467 57.36074055 7.11352539 55.54052734 C7.11341209 53.82897964 7.11341209 53.82897964 7.11329651 52.08285522 C7.10813522 50.84637238 7.10297394 49.60988953 7.09765625 48.3359375 C7.0962413 47.07359283 7.09482635 45.81124817 7.09336853 44.51065063 C7.08871078 41.15361701 7.07972408 37.796651 7.06866455 34.43963623 C7.0584377 31.01445094 7.05386818 27.58925866 7.04882812 24.1640625 C7.03778238 17.44268957 7.02103194 10.72134869 7 4 C4.69 3.67 2.38 3.34 0 3 C0 2.01 0 1.02 0 0 Z M20 5 C20 12.59 20 20.18 20 28 C27.28743925 28.6321331 27.28743925 28.6321331 30.4375 26.6875 C33.49405394 23.38642175 33.33071811 19.55182022 33.2890625 15.2890625 C32.84466358 11.76990349 31.26573627 9.6541482 29 7 C25.76887492 4.4452998 25.76887492 4.4452998 20 5 Z M20 33 C19.91325571 37.45821166 19.85969487 41.91620804 19.8125 46.375 C19.78736328 47.64601563 19.76222656 48.91703125 19.73632812 50.2265625 C19.72666016 51.43828125 19.71699219 52.65 19.70703125 53.8984375 C19.6913208 55.01911621 19.67561035 56.13979492 19.65942383 57.29443359 C19.77181396 58.18727051 19.8842041 59.08010742 20 60 C24.25040238 62.83360159 28.01218939 62.75572888 33 62 C36.95788491 59.41525883 37.80368078 57.74846701 39 53.1875 C39.38343135 47.1992045 37.21216543 42.28030079 33.5625 37.625 C30.68025952 34.59352836 30.68025952 34.59352836 27 33 C24.66680155 32.97491184 22.33317634 32.97293299 20 33 Z " fill="#5E5F61" transform="translate(197,47)"/>
<path d="M0 0 C3.94684991 -0.07505712 7.89341427 -0.12902215 11.84082031 -0.16479492 C13.83152905 -0.18701479 15.82203968 -0.22516595 17.8125 -0.26367188 C25.20302329 -0.31966069 32.20223173 -0.20950094 39 3 C42.49109823 6.49109823 43.92193801 8.82907008 44.25 13.75 C44.15806333 20.10512205 41.02369708 24.28256205 37 29 C37.53109375 29.30292969 38.0621875 29.60585937 38.609375 29.91796875 C44.57977616 33.45880885 49.06114311 37.05242947 51 44 C51.62417024 50.34573074 50.6584746 54.72682828 47 60 C42.59727425 64.88504683 37.7031475 66.83858179 31.19775391 67.22705078 C29.79065037 67.22673831 28.38351852 67.21568934 26.9765625 67.1953125 C26.23038666 67.1924826 25.48421082 67.18965271 24.71542358 67.18673706 C22.35178012 67.17561687 19.98852732 67.15052821 17.625 67.125 C16.01432842 67.11495962 14.40365085 67.10583562 12.79296875 67.09765625 C8.86183056 67.0757044 4.93098133 67.04123185 1 67 C1 66.34 1 65.68 1 65 C3.97 64.505 3.97 64.505 7 64 C8.1211896 53.9944472 8.18619508 44.01618861 8.18530273 33.9621582 C8.18750927 31.17579302 8.2057847 28.38981218 8.22460938 25.60351562 C8.22754072 23.81250133 8.22952725 22.02148519 8.23046875 20.23046875 C8.23765427 19.40741745 8.24483978 18.58436615 8.25224304 17.7363739 C8.23279705 12.79629727 7.81275858 8.6250266 6 4 C2.99405579 2.46853622 2.99405579 2.46853622 0 2 C0 1.34 0 0.68 0 0 Z M20 6 C19.91299658 7.63472882 19.89298937 9.27314055 19.90234375 10.91015625 C19.90556641 11.89951172 19.90878906 12.88886719 19.91210938 13.90820312 C19.92048828 14.94912109 19.92886719 15.99003906 19.9375 17.0625 C19.94201172 18.10728516 19.94652344 19.15207031 19.95117188 20.22851562 C19.96300087 22.8190666 19.97948311 25.40950559 20 28 C21.44747887 28.05580234 22.89557552 28.09574524 24.34375 28.12890625 C25.15005859 28.15283447 25.95636719 28.1767627 26.78710938 28.20141602 C29.25226835 28.18671501 29.25226835 28.18671501 31.5 25.9375 C34.01343423 21.01535796 34.49778972 17.63164408 32.875 12.3125 C30.900593 8.82438096 29.43248643 7.04314669 26 5 C22.69632031 4.46320406 22.69632031 4.46320406 20 6 Z M20 33 C19.91307926 37.27070558 19.85963485 41.54118458 19.8125 45.8125 C19.78736328 47.02744141 19.76222656 48.24238281 19.73632812 49.49414062 C19.72666016 50.65751953 19.71699219 51.82089844 19.70703125 53.01953125 C19.6913208 54.09307861 19.67561035 55.16662598 19.65942383 56.27270508 C19.77406247 59.01320931 19.77406247 59.01320931 21.37426758 60.84667969 C24.74615593 63.23875065 29.07736172 62.58182673 33 62 C35.93423195 60.20353146 37.47205355 59.0558929 39 56 C40.09800337 48.72180626 38.09184488 43.01360844 34 37 C30.58212219 33.80998071 28.3620045 32.81093104 23.80078125 32.9140625 C22.54652344 32.94242188 21.29226562 32.97078125 20 33 Z " fill="#5E5F61" transform="translate(12,47)"/>
<path d="M0 0 C-0.14076315 1.9587043 -0.2877676 3.91696093 -0.4375 5.875 C-0.51871094 6.96554688 -0.59992187 8.05609375 -0.68359375 9.1796875 C-1 12 -1 12 -2 14 C-2.66 14 -3.32 14 -4 14 C-4.28875 13.030625 -4.5775 12.06125 -4.875 11.0625 C-5.64214682 7.89335797 -5.64214682 7.89335797 -8 7 C-10.54786428 6.76811572 -13.0725115 6.58133625 -15.625 6.4375 C-18.05875 6.293125 -20.4925 6.14875 -23 6 C-23 13.26 -23 20.52 -23 28 C-18.91625 27.7834375 -18.91625 27.7834375 -14.75 27.5625 C-13.89889648 27.51939697 -13.04779297 27.47629395 -12.17089844 27.43188477 C-11.4905957 27.39377686 -10.81029297 27.35566895 -10.109375 27.31640625 C-9.41811523 27.27974854 -8.72685547 27.24309082 -8.01464844 27.20532227 C-5.93371671 26.99324476 -4.01427578 26.55491323 -2 26 C-1.90311779 31.44693314 -1.87137825 36.63904667 -3 42 C-3.66 42 -4.32 42 -5 42 C-5.268125 41.030625 -5.53625 40.06125 -5.8125 39.0625 C-6.204375 38.051875 -6.59625 37.04125 -7 36 C-10.28519475 34.90493508 -12.73663415 34.90039392 -16.1875 34.9375 C-17.27417969 34.94652344 -18.36085938 34.95554688 -19.48046875 34.96484375 C-20.31191406 34.97644531 -21.14335938 34.98804688 -22 35 C-22.05816623 38.41659491 -22.09365195 41.83306205 -22.125 45.25 C-22.14175781 46.21808594 -22.15851562 47.18617187 -22.17578125 48.18359375 C-22.18222656 49.11816406 -22.18867187 50.05273438 -22.1953125 51.015625 C-22.20578613 51.87446289 -22.21625977 52.73330078 -22.22705078 53.61816406 C-21.97923753 56.21780501 -21.41713124 57.81521743 -20 60 C-14.4976547 61.65975681 -8.56343209 61.08849758 -3 60 C-2.34 57.69 -1.68 55.38 -1 53 C-0.01 53.33 0.98 53.66 2 54 C1.88570603 55.77155654 1.75816963 57.54226229 1.625 59.3125 C1.55539062 60.29863281 1.48578125 61.28476563 1.4140625 62.30078125 C1 65 1 65 -1 68 C-3.81640625 68.328125 -3.81640625 68.328125 -7.5625 68.25 C-8.24054687 68.23904297 -8.91859375 68.22808594 -9.6171875 68.21679688 C-12.0792566 68.16721054 -14.53894704 68.08652312 -17 68 C-18.05687012 67.96326172 -19.11374023 67.92652344 -20.20263672 67.88867188 C-27.46998998 67.62708453 -34.73530094 67.32673766 -42 67 C-42 66.34 -42 65.68 -42 65 C-39.03 64.505 -39.03 64.505 -36 64 C-36 44.53 -36 25.06 -36 5 C-38.31 4.01 -40.62 3.02 -43 2 C-43 1.34 -43 0.68 -43 0 C-37.51922847 -0.16780202 -32.03831026 -0.32834201 -26.55712891 -0.48217773 C-24.69281298 -0.53552266 -22.82855257 -0.59084602 -20.96435547 -0.64819336 C-18.28365039 -0.73031405 -15.60282573 -0.8053005 -12.921875 -0.87890625 C-12.08944275 -0.90594131 -11.2570105 -0.93297638 -10.39935303 -0.96083069 C-9.22859222 -0.99097511 -9.22859222 -0.99097511 -8.03417969 -1.02172852 C-7.00825714 -1.05170677 -7.00825714 -1.05170677 -5.96160889 -1.08229065 C-3.85733339 -0.99401505 -2.0208995 -0.57653538 0 0 Z " fill="#5E5F61" transform="translate(742,47)"/>
<path d="M0 0 C-0.33 4.62 -0.66 9.24 -1 14 C-1.99 14 -2.98 14 -4 14 C-4.28875 13.195625 -4.5775 12.39125 -4.875 11.5625 C-5.73262568 8.8673532 -5.73262568 8.8673532 -8 8 C-12.65994897 7.54741503 -17.32682488 7.29738387 -22 7 C-22 14.26 -22 21.52 -22 29 C-17.91625 28.7834375 -17.91625 28.7834375 -13.75 28.5625 C-12.89889648 28.51939697 -12.04779297 28.47629395 -11.17089844 28.43188477 C-10.4905957 28.39377686 -9.81029297 28.35566895 -9.109375 28.31640625 C-8.41811523 28.27974854 -7.72685547 28.24309082 -7.01464844 28.20532227 C-4.93371671 27.99324476 -3.01427578 27.55491323 -1 27 C-1.14063135 29.29199177 -1.28765943 31.58359186 -1.4375 33.875 C-1.51871094 35.15117188 -1.59992188 36.42734375 -1.68359375 37.7421875 C-2 41 -2 41 -3 43 C-3.66 43 -4.32 43 -5 43 C-5.268125 42.030625 -5.53625 41.06125 -5.8125 40.0625 C-6.204375 39.051875 -6.59625 38.04125 -7 37 C-11.78539445 35.40486852 -16.9731754 35.41890205 -22 35 C-21.67 43.58 -21.34 52.16 -21 61 C-11.38056864 62.55593453 -11.38056864 62.55593453 -3 60 C-1.54839062 56.98220128 -1.54839062 56.98220128 -1 54 C-0.01 54.33 0.98 54.66 2 55 C1.88617347 56.95901454 1.75858875 58.9172338 1.625 60.875 C1.55539062 61.96554688 1.48578125 63.05609375 1.4140625 64.1796875 C1 67 1 67 -1 69 C-3.59765625 69.23046875 -3.59765625 69.23046875 -7.0625 69.1875 C-8.00911499 69.17783203 -8.00911499 69.17783203 -8.97485352 69.16796875 C-19.65419656 69.00870557 -30.33110848 68.47614281 -41 68 C-41 67.34 -41 66.68 -41 66 C-38.525 65.01 -38.525 65.01 -36 64 C-35.14652911 57.36081012 -34.85289079 50.88904744 -34.8671875 44.19921875 C-34.86623077 43.20042191 -34.86527405 42.20162506 -34.86428833 41.17256165 C-34.86361205 39.07752417 -34.86542753 36.98248454 -34.86962891 34.88745117 C-34.87501347 31.6794773 -34.86965064 28.47164161 -34.86328125 25.26367188 C-34.86394158 23.22135386 -34.86522179 21.17903593 -34.8671875 19.13671875 C-34.86516327 18.17940353 -34.86313904 17.22208832 -34.86105347 16.23576355 C-34.86420563 15.34416031 -34.86735779 14.45255707 -34.87060547 13.53393555 C-34.87140106 12.75277878 -34.87219666 11.97162201 -34.87301636 11.16679382 C-35.00033054 8.99435977 -35.40174844 7.08771944 -36 5 C-38.31 4.34 -40.62 3.68 -43 3 C-43 2.34 -43 1.68 -43 1 C-37.51905988 0.85692631 -32.03810279 0.71452817 -26.55712891 0.57275391 C-24.69286628 0.52443678 -22.82860841 0.47593561 -20.96435547 0.42724609 C-18.28354098 0.35726212 -15.60271003 0.28794175 -12.921875 0.21875 C-11.67322662 0.18593933 -11.67322662 0.18593933 -10.39935303 0.15246582 C-9.61884583 0.13244507 -8.83833862 0.11242432 -8.03417969 0.09179688 C-7.35023132 0.07403198 -6.66628296 0.05626709 -5.96160889 0.03796387 C-3.97473769 -0.00048891 -1.98724325 0 0 0 Z " fill="#5E5F61" transform="translate(386,46)"/>
<path d="M0 0 C1.83304687 0.13535156 1.83304687 0.13535156 3.703125 0.2734375 C6.75 0.625 6.75 0.625 8.75 1.625 C8.75 6.575 8.75 11.525 8.75 16.625 C7.76 16.625 6.77 16.625 5.75 16.625 C5.3375 15.531875 4.925 14.43875 4.5 13.3125 C3.08138022 10.08301534 2.07064287 8.15070078 -1.25 6.625 C-5.47280664 6.0851773 -9.74698379 5.93037215 -13.25 8.625 C-15.10577318 11.09936424 -15.25372302 12.45001795 -15.1875 15.5625 C-13.32221356 21.65576903 -7.9679889 24.59589045 -2.8125 27.875 C3.70537666 32.2513933 8.46746233 36.50967634 10.42578125 44.3203125 C11.2767908 50.49228076 10.91731895 56.16445987 7.75 61.625 C3.33184392 66.92476062 -1.37841873 69.91229196 -8.25 70.625 C-14.66816374 71.03250246 -21.40402769 70.54798615 -27.25 67.625 C-27.25 62.015 -27.25 56.405 -27.25 50.625 C-26.26 50.625 -25.27 50.625 -24.25 50.625 C-24.10304688 51.22828125 -23.95609375 51.8315625 -23.8046875 52.453125 C-22.62974675 56.63969549 -21.76572704 59.13326026 -18.5625 62.1875 C-14.22887924 64.06812788 -11.95351172 64.22227133 -7.25 63.625 C-4.4399654 61.83136089 -2.74059532 60.60619065 -1.25 57.625 C-0.78593799 52.98437992 -0.63464113 50.67990093 -3 46.625 C-6.52760416 42.89524087 -11.0825261 40.40240316 -15.36328125 37.6328125 C-20.28900482 34.20680179 -23.30450793 30.80374261 -25.6875 25.3125 C-26.61963822 19.20181609 -26.34306146 13.94229029 -23.6875 8.3125 C-16.8735164 0.79964628 -9.95894297 -0.78400189 0 0 Z " fill="#5E5F61" transform="translate(329.25,45.375)"/>
<path d="M0 0 C1 1 1 1 1.09765625 3.94140625 C1.08605469 5.13636719 1.07445312 6.33132812 1.0625 7.5625 C1.05347656 8.76003906 1.04445313 9.95757812 1.03515625 11.19140625 C1.02355469 12.11824219 1.01195312 13.04507813 1 14 C0.01 14.33 -0.98 14.66 -2 15 C-2.25394531 14.44570313 -2.50789062 13.89140625 -2.76953125 13.3203125 C-3.11371094 12.59585938 -3.45789063 11.87140625 -3.8125 11.125 C-4.14894531 10.40570313 -4.48539063 9.68640625 -4.83203125 8.9453125 C-5.99467097 6.69457194 -5.99467097 6.69457194 -9 5 C-14.35536444 4.56811577 -17.6277173 4.55517121 -22 8 C-23.42662219 10.85324437 -23.31033868 12.83454549 -23 16 C-20.27928906 20.03614901 -17.29793063 22.33170403 -13.1875 24.875 C-6.58903733 29.15312415 -0.41252585 33.2151365 2 41 C2.80101458 48.87974804 3.10324695 55.6880893 -2 62 C-7.46527701 67.58948785 -12.34175331 68.76398408 -19.875 69.25 C-32.08928571 68.91071429 -32.08928571 68.91071429 -36 65 C-35.98251781 62.08047432 -35.86055367 59.27702115 -35.625 56.375 C-35.56828125 55.57320312 -35.5115625 54.77140625 -35.453125 53.9453125 C-35.31152018 51.96284502 -35.15697741 49.98130949 -35 48 C-34.01 48.33 -33.02 48.66 -32 49 C-31.15625 50.9609375 -31.15625 50.9609375 -30.5 53.375 C-29.57505312 56.75546061 -28.77372338 58.78374063 -26 61 C-21.43401671 62.52199443 -17.60107286 62.74716734 -13.1875 60.6875 C-10.77961482 59.01607792 -10.77961482 59.01607792 -9 56 C-8.34412886 50.20647159 -9.45261771 47.53627979 -13 43 C-15.19261908 41.1432029 -17.53406054 39.57021334 -19.9375 38 C-26.60734533 33.61473584 -32.1942098 29.20813725 -34 21 C-34.466307 15.12453183 -33.97423295 11.25447822 -31 6 C-22.39773556 -3.01189608 -11.3984227 -3.39952958 0 0 Z " fill="#5E5F61" transform="translate(786,47)"/>
<path d="M0 0 C0.7523291 0.16298584 1.5046582 0.32597168 2.27978516 0.49389648 C7.37348954 1.18685154 12.38906345 1.12259221 17.5234375 1.09765625 C18.62475006 1.0962413 19.72606262 1.09482635 20.86074829 1.09336853 C24.36552692 1.08778752 27.8702408 1.07523846 31.375 1.0625 C33.75650949 1.05748255 36.13801999 1.05292007 38.51953125 1.04882812 C44.34637612 1.03782431 50.17318343 1.02110507 56 1 C56.02715383 2.74991334 56.04646551 4.49994945 56.0625 6.25 C56.07410156 7.22453125 56.08570313 8.1990625 56.09765625 9.203125 C56.01195577 11.65758678 55.70706066 13.66168914 55 16 C54.34 16 53.68 16 53 16 C52.773125 15.21625 52.54625 14.4325 52.3125 13.625 C51.25238706 10.8637056 51.25238706 10.8637056 48.84375 9.875 C45.57683834 8.86979641 42.59692827 8.58163202 39.1875 8.375 C38.02605469 8.30023438 36.86460937 8.22546875 35.66796875 8.1484375 C34.78753906 8.09945312 33.90710938 8.05046875 33 8 C33.49688634 27.34182018 33.99975904 46.67619593 35 66 C37.64 66.33 40.28 66.66 43 67 C43 67.66 43 68.32 43 69 C33.43 69 23.86 69 14 69 C14 68.34 14 67.68 14 67 C16.97 66.505 16.97 66.505 20 66 C20.33 46.86 20.66 27.72 21 8 C8.03655884 7.86569101 8.03655884 7.86569101 2 12 C1.01 13.485 1.01 13.485 0 15 C-0.66 15 -1.32 15 -2 15 C-1.85816304 13.24967156 -1.71136571 11.49974466 -1.5625 9.75 C-1.48128906 8.77546875 -1.40007813 7.8009375 -1.31640625 6.796875 C-1.04925416 4.43538247 -0.64628032 2.28098935 0 0 Z " fill="#5E5F61" transform="translate(609,45)"/>
<path d="M0 0 C8.58 0 17.16 0 26 0 C26 0.66 26 1.32 26 2 C24.02 2.33 22.04 2.66 20 3 C19.97685348 10.52771157 19.95907309 18.05541947 19.94818783 25.58315849 C19.94296407 29.07840098 19.93587559 32.57361916 19.92456055 36.06884766 C19.91164026 40.08496334 19.9067676 44.1010534 19.90234375 48.1171875 C19.89718246 49.37554413 19.89202118 50.63390076 19.88670349 51.9303894 C19.88662796 53.09144196 19.88655243 54.25249451 19.88647461 55.44873047 C19.88314369 56.98761429 19.88314369 56.98761429 19.87974548 58.55758667 C19.83605969 61.00769257 19.83605969 61.00769257 21 63 C23.3140622 63.73075648 25.64828869 64.40138258 28 65 C28 65.66 28 66.32 28 67 C18.76 67 9.52 67 0 67 C0 66.34 0 65.68 0 65 C2.97 64.505 2.97 64.505 6 64 C6 44.53 6 25.06 6 5 C4.02 4.01 2.04 3.02 0 2 C0 1.34 0 0.68 0 0 Z " fill="#5E5F61" transform="translate(667,47)"/>
<path d="M0 0 C8.91 0 17.82 0 27 0 C26.67 0.99 26.34 1.98 26 3 C24.02 3.33 22.04 3.66 20 4 C19.97455852 11.11669142 19.95709473 18.23337102 19.94506836 25.35009766 C19.94005248 27.76904743 19.93323821 30.18799419 19.92456055 32.60693359 C19.91237455 36.09212998 19.90674411 39.57728613 19.90234375 43.0625 C19.89718246 44.13677246 19.89202118 45.21104492 19.88670349 46.31787109 C19.88628456 51.97781173 20.15036027 57.40237353 21 63 C23.64 63.66 26.28 64.32 29 65 C29 65.66 29 66.32 29 67 C19.43 67 9.86 67 0 67 C0 66.34 0 65.68 0 65 C1.98 64.34 3.96 63.68 6 63 C7.21858101 53.36914341 7.18615887 43.72737072 7.18530273 34.03759766 C7.18750602 31.24236181 7.2057661 28.44751098 7.22460938 25.65234375 C7.22754122 23.85677216 7.22952741 22.06119873 7.23046875 20.265625 C7.23765427 19.43943665 7.24483978 18.61324829 7.25224304 17.76202393 C7.23282509 12.80869907 6.77554671 8.64982841 5 4 C2.50358872 2.48207356 2.50358872 2.48207356 0 2 C0 1.34 0 0.68 0 0 Z " fill="#5E5F61" transform="translate(71,47)"/>
</svg>
