<?xml version="1.0" encoding="UTF-8"?>
<svg version="1.1" xmlns="http://www.w3.org/2000/svg" width="1207" height="354">
<path d="M0 0 C12.43989402 0.48472862 24.8785111 0.63905786 37.32609153 0.79057288 C48.01714685 0.93250394 58.706609 1.16217659 69.39580166 1.40399802 C71.09905523 1.44095404 71.09905523 1.44095404 72.83671796 1.47865665 C79.35328842 1.62491947 85.86581863 1.81542314 92.37897503 2.07294142 C94.34330639 2.1455359 96.30815594 2.20544475 98.27329075 2.25141013 C116.14359899 2.6898596 116.14359899 2.6898596 123.49777138 9.75511706 C133.33659896 21.03767241 138.68646054 32.82728468 138.61455166 48.07196677 C137.76704368 55.86463756 136.05927521 59.98666236 130.48711026 65.34540427 C129.8918504 65.94154028 129.29659054 66.5376763 128.68329251 67.15187705 C126.72765637 69.10335932 124.75169705 71.03276532 122.77470791 72.96259177 C121.40862388 74.31747598 120.04386544 75.67369795 118.68037808 77.03119528 C115.09975251 80.58898519 111.50147477 84.1283827 107.8991586 87.66419089 C104.22179499 91.28001971 100.56149839 94.91303592 96.89970791 98.54462302 C89.72095158 105.65915947 82.52342036 112.75437326 75.31377041 119.83759177 C76.84686856 119.83639838 76.84686856 119.83639838 78.41093838 119.83518088 C88.06247336 119.83157209 97.71347692 119.85946374 107.36484158 119.91787016 C112.3262978 119.94689148 117.2872827 119.9649727 122.24882901 119.95770895 C127.04080887 119.95110168 131.83185851 119.97368006 136.6236459 120.0161463 C138.44795302 120.02725268 140.27235476 120.02799999 142.09666836 120.0180155 C159.38998519 119.93553178 159.38998519 119.93553178 165.02431118 125.36989462 C165.44983273 125.85423468 165.87535428 126.33857474 166.31377041 126.83759177 C167.00728604 127.45763083 167.70080166 128.07766989 168.41533291 128.71649802 C176.93492054 138.1317346 180.49186399 148.8680172 180.50127041 161.27509177 C180.51351651 162.1213613 180.5257626 162.96763083 180.53837979 163.83954489 C180.54031338 164.6626113 180.54224698 165.4856777 180.54423916 166.33368552 C180.54834805 167.07803854 180.55245694 167.82239157 180.55669034 168.58930075 C179.92883106 174.40031187 176.68921984 178.02218719 172.85213101 182.1714083 C172.28742875 182.79229683 171.7227265 183.41318536 171.14091206 184.05288869 C169.24542016 186.1312648 167.33894681 188.19919054 165.43144619 190.26654685 C164.06672448 191.75488391 162.70207689 193.24328895 161.33749783 194.73175681 C148.74538098 208.42772423 135.91710642 221.90038662 123.02336705 235.31211436 C114.38413726 244.30718933 105.82953263 253.35869471 97.45146573 262.59808981 C36.19100966 330.03055012 36.19100966 330.03055012 -0.04173839 331.86410296 C-16.39229009 332.32757613 -32.72671091 330.27935331 -48.68622959 326.83759177 C-47.04492816 322.64560632 -43.9631161 319.84191923 -40.82706821 316.73792136 C-39.91795631 315.82624618 -39.91795631 315.82624618 -38.99047852 314.89615333 C-36.95612422 312.85850184 -34.9146985 310.82808615 -32.87324131 308.7975527 C-31.41440725 307.33928271 -29.95601329 305.88057234 -28.49802768 304.42145407 C-24.53579674 300.45864843 -20.5674219 296.50204702 -16.59793603 292.54651034 C-12.45169108 288.4127531 -8.31109502 284.27334563 -4.16990268 280.1345278 C3.67420951 272.29663613 11.52340683 264.46385741 19.37443256 256.63289154 C28.31174039 247.71792487 37.24338169 238.79729036 46.17454565 229.87616932 C64.54797791 211.52365204 82.92853389 193.17828319 101.31377041 174.83759177 C91.07055775 174.41727798 80.82944866 174.09913046 70.57931513 173.90497267 C65.81713888 173.81169017 61.06092925 173.68564969 56.30218899 173.47968161 C32.29673383 171.5096961 32.29673383 171.5096961 11.28723061 180.86963522 C7.76775237 184.62027017 4.84356382 188.56056452 2.00127041 192.83759177 C-10.70153064 210.37532225 -10.70153064 210.37532225 -22.10265815 212.24226248 C-44.97357535 215.114972 -68.82008962 212.93342138 -91.68622959 210.83759177 C-90.34050072 207.83815272 -88.85085857 205.75682998 -86.52167881 203.4459902 C-85.872233 202.7967861 -85.2227872 202.147582 -84.55366123 201.47870505 C-83.87295566 200.80823142 -83.19225009 200.13775778 -82.49091709 199.44696677 C-81.86386875 198.82193259 -81.23682041 198.19689841 -80.5907706 197.5529238 C-78.25305178 195.22564752 -75.90661912 192.90713742 -73.56122959 190.58759177 C-65.70310459 182.79134177 -65.70310459 182.79134177 -57.68622959 174.83759177 C-82.43622959 174.34259177 -82.43622959 174.34259177 -107.68622959 173.83759177 C-105.70622959 171.52759177 -103.72622959 169.21759177 -101.68622959 166.83759177 C-100.32642854 165.17496297 -98.97176025 163.50811629 -97.62348545 161.83612692 C-92.46890483 155.54542663 -87.13337036 149.44356439 -81.62372959 143.46259177 C-81.12209922 142.91783823 -80.62046886 142.3730847 -80.10363758 141.81182349 C-60.61962637 120.86208211 -60.61962637 120.86208211 -49.31513584 119.57440817 C-42.89493235 119.73471474 -36.50030664 120.51090853 -30.12372959 121.27509177 C8.43394074 122.3233179 8.43394074 122.3233179 58.31377041 58.83759177 C-10.65622959 58.50759177 -79.62622959 58.17759177 -150.68622959 57.83759177 C-148.70622959 55.52759177 -146.72622959 53.21759177 -144.68622959 50.83759177 C-143.55638705 49.17943906 -142.46214991 47.49604371 -141.41738498 45.78301108 C-107.38579511 -7.45676749 -57.65435145 -2.3070609 0 0 Z " fill="#0036FD" transform="translate(977.6862295866013,10.162408232688904)"/>
<path d="M0 0 C12.43989402 0.48472862 24.8785111 0.63905786 37.32609153 0.79057288 C48.01714685 0.93250394 58.706609 1.16217659 69.39580166 1.40399802 C71.09905523 1.44095404 71.09905523 1.44095404 72.83671796 1.47865665 C79.35328842 1.62491947 85.86581863 1.81542314 92.37897503 2.07294142 C94.34330639 2.1455359 96.30815594 2.20544475 98.27329075 2.25141013 C116.14359899 2.6898596 116.14359899 2.6898596 123.49777138 9.75511706 C133.33659896 21.03767241 138.68646054 32.82728468 138.61455166 48.07196677 C137.8490115 55.11095947 136.10987871 59.95798913 131.61723721 65.43720114 C130.89289014 66.34577211 130.89289014 66.34577211 130.1539098 67.27269804 C123.73470485 75.22202295 116.94140303 82.84229643 110.00127041 90.33759177 C109.3335738 91.06286314 108.66587719 91.78813452 107.97794735 92.53538382 C91.11900674 110.68823261 75.87704963 123.72336199 50.38475239 125.06423819 C32.66670984 125.66576802 14.77264696 123.74417994 -2.68622959 120.83759177 C16.18173268 98.82496913 37.81309292 79.33826926 58.31377041 58.83759177 C-10.65622959 58.50759177 -79.62622959 58.17759177 -150.68622959 57.83759177 C-148.70622959 55.52759177 -146.72622959 53.21759177 -144.68622959 50.83759177 C-143.55638705 49.17943906 -142.46214991 47.49604371 -141.41738498 45.78301108 C-107.38579511 -7.45676749 -57.65435145 -2.3070609 0 0 Z " fill="#FE0000" transform="translate(977.6862295866013,10.162408232688904)"/>
<path d="M0 0 C1.11805102 0.02884081 1.11805102 0.02884081 2.25868893 0.05826426 C21.90582865 0.57645947 41.51658775 1.52803972 61.125 2.875 C57.69013027 6.9545383 54.21098553 10.91259465 50.42407227 14.67358398 C49.54618546 15.54816757 48.66829865 16.42275116 47.7638092 17.32383728 C46.83241623 18.24693192 45.90102325 19.17002655 44.94140625 20.12109375 C43.95754422 21.10053818 42.97398361 22.08028546 41.9907074 23.06031799 C38.36947047 26.66830283 34.74278133 30.27079068 31.11621094 33.87341309 C28.04303149 36.92671768 24.97200847 39.98216182 21.90369987 43.0403614 C20.47959579 44.45807557 19.05240781 45.87268981 17.62513733 47.28721619 C7.75353316 57.08808586 7.75353316 57.08808586 -0.3014679 68.35488892 C-6.75590792 78.83641418 -15.08579354 88.53773896 -26.875 92.875 C-50.92713088 98.35461286 -78.50983523 94.70801942 -102.875 92.875 C-101.52927113 89.87556095 -100.03962899 87.79423821 -97.71044922 85.48339844 C-96.73628052 84.50959229 -96.73628052 84.50959229 -95.74243164 83.51611328 C-95.06172607 82.84563965 -94.38102051 82.17516602 -93.6796875 81.484375 C-93.05263916 80.85934082 -92.42559082 80.23430664 -91.77954102 79.59033203 C-89.4418222 77.26305576 -87.09538954 74.94454566 -84.75 72.625 C-79.51125 67.4275 -74.2725 62.23 -68.875 56.875 C-93.625 56.38 -93.625 56.38 -118.875 55.875 C-116.895 53.565 -114.915 51.255 -112.875 48.875 C-111.26232223 46.34920665 -111.26232223 46.34920665 -110.00244141 43.85766602 C-106.35920602 37.31344322 -102.16992537 31.27997857 -97.5 25.4375 C-96.85733311 24.63256229 -96.85733311 24.63256229 -96.20168304 23.81136322 C-72.43401109 -5.12547338 -33.99150394 -0.8941611 0 0 Z " fill="#141562" transform="translate(988.875,128.125)"/>
<path d="M0 0 C23 0 23 0 28.1875 4.625 C29.47773812 6.73827423 30.74712585 8.86436222 32 11 C33.90897618 13.41487889 35.95362669 15.70130381 38 18 C39.03006694 19.19166193 40.05745014 20.38564937 41.08203125 21.58203125 C41.57654785 22.15904785 42.07106445 22.73606445 42.58056641 23.33056641 C46.97851716 28.50311323 51.23025931 33.79895458 55.484375 39.08984375 C56.69867188 40.59224609 56.69867188 40.59224609 57.9375 42.125 C58.66839844 43.03507812 59.39929688 43.94515625 60.15234375 44.8828125 C61.82614739 47.07134155 61.82614739 47.07134155 64 48 C64.21527344 47.47535156 64.43054688 46.95070313 64.65234375 46.41015625 C66.52861105 43.05462894 69.03493265 40.30916687 71.5625 37.4375 C72.65855103 36.17664893 73.75359489 34.91492167 74.84765625 33.65234375 C75.65614014 32.72010986 75.65614014 32.72010986 76.48095703 31.76904297 C78.53135433 29.38119681 80.51933221 26.94585215 82.5 24.5 C86.52457253 19.54102032 90.66455144 14.68944175 94.83984375 9.85742188 C95.32195312 9.29861328 95.8040625 8.73980469 96.30078125 8.1640625 C96.72528564 7.67373535 97.14979004 7.1834082 97.5871582 6.67822266 C99.43259604 4.48614736 101.20996417 2.23754478 103 0 C110.59 0 118.18 0 126 0 C126 38.61 126 77.22 126 117 C118.41 117 110.82 117 103 117 C102.67 90.6 102.34 64.2 102 37 C95.17591924 44.51590979 95.17591924 44.51590979 88.6875 52.25 C85.17773136 56.58812313 81.58323885 60.83907721 77.9375 65.0625 C73.1557042 70.60650116 68.51575161 76.23577588 64 82 C59.69238546 80.42155968 57.26896963 77.11477814 54.4375 73.6875 C53.9122876 73.06302979 53.3870752 72.43855957 52.84594727 71.79516602 C51.75656374 70.49918373 50.66991188 69.20090056 49.5859375 67.90039062 C47.66536607 65.59901624 45.7271578 63.31302978 43.78710938 61.02807617 C42.43871962 59.43893737 41.0939508 57.84680004 39.75 56.25390625 C37.8180444 53.96529266 35.87966309 51.68230099 33.9375 49.40234375 C33.43549072 48.81203369 32.93348145 48.22172363 32.41625977 47.61352539 C31.45444338 46.482752 30.49145213 45.35297652 29.52709961 44.22436523 C27.53400769 41.87826429 25.7105118 39.5657677 24 37 C23.67 63.4 23.34 89.8 23 117 C15.41 117 7.82 117 0 117 C0 78.39 0 39.78 0 0 Z " fill="#151562" transform="translate(52,220)"/>
<path d="M0 0 C68.46781116 0 68.46781116 0 78.94140625 9.8203125 C86.0689536 17.40914162 87.67237612 24.15951369 87.40625 34.52734375 C86.39952715 43.13288812 82.18825823 48.51441022 75.57421875 53.8203125 C75.05472656 54.20960937 74.53523438 54.59890625 74 55 C74.5775 55.42796875 75.155 55.8559375 75.75 56.296875 C84.05523817 62.58347889 89.39265631 67.76835775 91.375 78.25 C92.56705653 87.71059409 91.21508654 95.59280646 85.9609375 103.640625 C80.22542607 110.54151923 72.7113487 115.05529297 64 117 C59.03947131 117.39593959 54.0931801 117.35160211 49.12109375 117.29296875 C47.87203247 117.28994751 46.62297119 117.28692627 45.33605957 117.28381348 C40.70312144 117.26820489 36.07030177 117.2263214 31.4375 117.1875 C21.063125 117.125625 10.68875 117.06375 0 117 C0 78.39 0 39.78 0 0 Z M23 19 C23 28.57 23 38.14 23 48 C27.1632304 48.06913113 31.32444445 48.1287798 35.48779297 48.16479492 C36.90192437 48.17981825 38.31600968 48.20024305 39.72998047 48.22631836 C41.77062397 48.26298954 43.81064792 48.27979036 45.8515625 48.29296875 C47.68968506 48.31653442 47.68968506 48.31653442 49.56494141 48.34057617 C54.66603183 47.83481774 57.88961406 46.23042766 61.3125 42.4375 C64.40876295 37.96512018 64.64963048 34.35945149 64 29 C61.77385782 24.54771564 59.48981614 22.13266267 55 20 C51.4799891 18.85663521 48.16906885 18.88559514 44.484375 18.90234375 C42.79393066 18.90609009 42.79393066 18.90609009 41.06933594 18.90991211 C39.64395508 18.91901611 38.21857422 18.92812012 36.75 18.9375 C32.2125 18.958125 27.675 18.97875 23 19 Z M23 66 C23 76.56 23 87.12 23 98 C27.59041573 98.06908652 32.17900877 98.12875125 36.76953125 98.16479492 C38.32916394 98.17982869 39.88875472 98.20026135 41.44824219 98.22631836 C43.69737116 98.26294211 45.94593847 98.27978021 48.1953125 98.29296875 C48.8861795 98.30845261 49.57704651 98.32393646 50.28884888 98.33988953 C55.61159428 98.3417163 59.70953199 97.13813284 63.64453125 93.46484375 C67.79586254 88.03617976 68.77822495 84.78167459 68 78 C66.58508354 73.61887312 64.38675735 70.95941271 60.4375 68.625 C55.56414886 66.32123401 52.28786581 65.88045769 46.92578125 65.90234375 C45.04886597 65.90609009 45.04886597 65.90609009 43.1340332 65.90991211 C41.54292725 65.91901611 39.95182129 65.92812012 38.3125 65.9375 C30.7328125 65.9684375 30.7328125 65.9684375 23 66 Z " fill="#151562" transform="translate(269,67)"/>
<path d="M0 0 C65.29411765 0 65.29411765 0 78 12 C85.09350444 20.09169219 86.66145094 28.59883194 86.40625 39.2109375 C85.45125991 48.11805665 81.8817889 55.29927609 75.2421875 61.3125 C69.3590081 65.74025872 63.36480315 68.51968675 56 69 C58.24126807 72.92041745 60.78900217 76.43852606 63.5625 80 C64.45970694 81.1561945 65.3568403 82.31244611 66.25390625 83.46875 C66.71039551 84.05527344 67.16688477 84.64179688 67.63720703 85.24609375 C70.18204522 88.52128499 72.70516615 91.81319701 75.23071289 95.10327148 C77.40407296 97.93236827 79.58596839 100.75427497 81.78125 103.56640625 C82.23628906 104.15164062 82.69132813 104.736875 83.16015625 105.33984375 C84.02976033 106.45790614 84.90200617 107.57392069 85.77734375 108.6875 C87.85268175 111.36162405 89.54309053 113.95214213 91 117 C83.92537404 117.50873555 76.87085662 117.79563036 69.77734375 117.65625 C68.60937256 117.63626953 67.44140137 117.61628906 66.23803711 117.59570312 C62.28058407 116.86764873 60.48629765 115.46867071 57.625 112.6875 C56.73383089 111.11377637 55.84819965 109.53489073 55.046875 107.91357422 C52.85430944 103.90580163 49.88329125 100.37938798 47.125 96.75 C43.63742093 92.03853642 40.19261464 87.30406997 36.8671875 82.4765625 C36.3810498 81.78208008 35.89491211 81.08759766 35.39404297 80.37207031 C34.49006805 79.07705895 33.60007902 77.77212717 32.72705078 76.45605469 C31.38752365 74.46954253 31.38752365 74.46954253 29 72 C27.02 71.67 25.04 71.34 23 71 C23 86.18 23 101.36 23 117 C15.41 117 7.82 117 0 117 C0 78.39 0 39.78 0 0 Z M23 19 C23 30.22 23 41.44 23 53 C26.774375 53.061875 30.54875 53.12375 34.4375 53.1875 C36.19404907 53.22846802 36.19404907 53.22846802 37.98608398 53.27026367 C44.76871534 53.3236431 52.10298405 53.22648407 57.58349609 48.68896484 C61.67612295 44.15062096 63.2650553 39.57721653 63 33.5625 C62.22738498 28.3561283 60.03554537 25.28317306 56 22 C49.11627917 18.48305262 41.98770858 18.63640638 34.4375 18.8125 C30.663125 18.874375 26.88875 18.93625 23 19 Z " fill="#151562" transform="translate(504,67)"/>
<path d="M0 0 C1.5631897 0.00785522 1.5631897 0.00785522 3.15795898 0.01586914 C4.28266602 0.0190918 5.40737305 0.02231445 6.56616211 0.02563477 C7.75016602 0.03401367 8.93416992 0.04239258 10.15405273 0.05102539 C11.34192383 0.05553711 12.52979492 0.06004883 13.75366211 0.06469727 C16.69967499 0.07652864 19.64558954 0.09301252 22.59155273 0.11352539 C22.78961517 0.63556046 22.98767761 1.15759552 23.19174194 1.69544983 C32.54510066 26.3462475 41.91250662 50.99156392 51.34155273 75.61352539 C51.70851257 76.57219513 52.07547241 77.53086487 52.45355225 78.51858521 C53.51458987 81.29004078 54.5763571 84.06121554 55.63842773 86.83227539 C55.9703714 87.69908432 56.30231506 88.56589325 56.64431763 89.45896912 C58.29892323 93.77262908 59.96743827 98.08019487 61.65991211 102.37915039 C61.98791809 103.21418091 62.31592407 104.04921143 62.65386963 104.9095459 C63.2738649 106.48519686 63.8967187 108.05972706 64.52288818 109.63293457 C66.59155273 114.89210639 66.59155273 114.89210639 66.59155273 117.11352539 C58.67155273 117.11352539 50.75155273 117.11352539 42.59155273 117.11352539 C41.29217773 113.87540039 39.99280273 110.63727539 38.65405273 107.30102539 C38.04122437 105.77578247 38.04122437 105.77578247 37.41601562 104.21972656 C37.09366943 103.41510986 36.77132324 102.61049316 36.43920898 101.78149414 C36.10928955 100.95931396 35.77937012 100.13713379 35.43945312 99.29003906 C34.77438931 97.58285682 34.17093008 95.85165742 33.59155273 94.11352539 C17.75155273 93.78352539 1.91155273 93.45352539 -14.40844727 93.11352539 C-15.39844727 96.41352539 -16.38844727 99.71352539 -17.40844727 103.11352539 C-18.25300775 105.47878294 -19.12383002 107.8350166 -20.03344727 110.17602539 C-20.45883789 111.28075195 -20.88422852 112.38547852 -21.32250977 113.52368164 C-22.40844727 116.11352539 -22.40844727 116.11352539 -23.40844727 117.11352539 C-25.18915973 117.20078762 -26.97327867 117.2205158 -28.75610352 117.21118164 C-29.83569336 117.20795898 -30.9152832 117.20473633 -32.02758789 117.20141602 C-33.16389648 117.19303711 -34.30020508 117.1846582 -35.47094727 117.17602539 C-36.61112305 117.17151367 -37.75129883 117.16700195 -38.92602539 117.16235352 C-41.75355078 117.15052287 -44.58097367 117.13403949 -47.40844727 117.11352539 C-42.64990265 103.27797456 -37.43741174 89.63259681 -32.15844727 75.98852539 C-30.38536045 71.39644445 -28.61373438 66.80380034 -26.84204102 62.21118164 C-26.3938652 61.05013412 -25.94568939 59.88908661 -25.4839325 58.69285583 C-22.34914583 50.56745985 -19.23433583 42.43461414 -16.13110352 34.29711914 C-15.50493637 32.65631378 -15.50493637 32.65631378 -14.86611938 30.98236084 C-13.25406513 26.75790499 -11.64202199 22.53345409 -10.03503418 18.30706787 C-8.93916357 15.42525886 -7.84013622 12.54467222 -6.74047852 9.66430664 C-6.4153981 8.80647079 -6.09031769 7.94863495 -5.75538635 7.06480408 C-3.10869609 0.14653256 -3.10869609 0.14653256 0 0 Z M9.59155273 29.11352539 C5.97172189 37.56145343 2.66613412 46.09596582 -0.48535156 54.72631836 C-1.23332696 56.7723898 -1.98768087 58.81603857 -2.74243164 60.85961914 C-3.22132613 62.16546984 -3.69985606 63.47145432 -4.17797852 64.77758789 C-4.60699463 65.94757324 -5.03601074 67.11755859 -5.47802734 68.32299805 C-6.51388142 70.9394863 -6.51388142 70.9394863 -6.40844727 73.11352539 C4.15155273 73.11352539 14.71155273 73.11352539 25.59155273 73.11352539 C24.9272663 69.7920932 24.3175342 67.07637503 23.19287109 63.96582031 C22.9126561 63.18538864 22.6324411 62.40495697 22.34373474 61.60087585 C22.04266312 60.77360489 21.74159149 59.94633392 21.43139648 59.09399414 C20.96740196 57.80613762 20.96740196 57.80613762 20.49403381 56.49226379 C19.50901626 53.76064283 18.51910666 51.03082448 17.52905273 48.30102539 C16.858807 46.44502252 16.18888146 44.58890399 15.51928711 42.73266602 C13.88041629 38.19160384 12.23715688 33.65215164 10.59155273 29.11352539 C10.26155273 29.11352539 9.93155273 29.11352539 9.59155273 29.11352539 Z " fill="#151562" transform="translate(815.408447265625,219.886474609375)"/>
<path d="M0 0 C8.25 0 16.5 0 25 0 C30.82355215 14.4365924 36.43646859 28.93797851 41.9375 43.5 C46.91675932 56.6628617 51.91169308 69.81848215 57.015625 82.93359375 C57.41282242 83.95534698 57.81001984 84.97710022 58.21925354 86.02981567 C60.11282242 90.8987828 62.01208366 95.76541733 63.91967773 100.62890625 C64.59637516 102.36581384 65.27289898 104.10278907 65.94921875 105.83984375 C66.2607489 106.62806015 66.57227905 107.41627655 66.89324951 108.2283783 C68.08087937 111.29012297 69 113.68549193 69 117 C61.08 117 53.16 117 45 117 C43.68 113.596875 42.36 110.19375 41 106.6875 C40.58234375 105.61846436 40.1646875 104.54942871 39.734375 103.44799805 C39.40953125 102.60277588 39.0846875 101.75755371 38.75 100.88671875 C38.24726563 99.59060669 38.24726563 99.59060669 37.734375 98.26831055 C37 96 37 96 37 93 C20.83 93 4.66 93 -12 93 C-12.33 94.98 -12.66 96.96 -13 99 C-13.49399097 100.52456109 -14.03557751 102.03472174 -14.62890625 103.5234375 C-14.91064697 104.23935059 -15.1923877 104.95526367 -15.48266602 105.69287109 C-15.83901123 106.57797363 -16.19535645 107.46307617 -16.5625 108.375 C-17.696875 111.22125 -18.83125 114.0675 -20 117 C-27.92 117 -35.84 117 -44 117 C-43.2865632 113.432816 -42.58085833 110.59725907 -41.3203125 107.26538086 C-40.97422943 106.34509598 -40.62814636 105.4248111 -40.27157593 104.47663879 C-39.89320587 103.48274643 -39.51483582 102.48885406 -39.125 101.46484375 C-38.72834137 100.41411179 -38.33168274 99.36337982 -37.92300415 98.2808075 C-36.61939475 94.83148688 -35.3099092 91.38443266 -34 87.9375 C-33.09539095 85.549373 -32.19093274 83.16118885 -31.28662109 80.77294922 C-25.44844425 65.37147131 -19.56034159 49.98928522 -13.625 34.625 C-13.27937012 33.73013885 -12.93374023 32.83527771 -12.57763672 31.91329956 C-8.4544839 21.24696301 -4.26755152 10.60942374 0 0 Z M12 28 C9.71911999 34.24715205 7.44071471 40.49520247 5.1640625 46.74389648 C4.38859686 48.87138518 3.61255599 50.99866429 2.8359375 53.12573242 C1.72245926 56.17572543 0.61102346 59.22645582 -0.5 62.27734375 C-1.0249707 63.71327126 -1.0249707 63.71327126 -1.56054688 65.1782074 C-1.88087891 66.05904495 -2.20121094 66.93988251 -2.53125 67.84741211 C-2.81548828 68.62684677 -3.09972656 69.40628143 -3.39257812 70.20933533 C-4.0535395 71.84268585 -4.0535395 71.84268585 -4 73 C6.89 73 17.78 73 29 73 C23.76514937 57.96372691 18.41416096 42.97258578 13 28 C12.67 28 12.34 28 12 28 Z " fill="#151562" transform="translate(449,220)"/>
<path d="M0 0 C1.5631897 0.00785522 1.5631897 0.00785522 3.15795898 0.01586914 C4.28266602 0.0190918 5.40737305 0.02231445 6.56616211 0.02563477 C7.75016602 0.03401367 8.93416992 0.04239258 10.15405273 0.05102539 C11.34192383 0.05553711 12.52979492 0.06004883 13.75366211 0.06469727 C16.69967499 0.07652864 19.64558954 0.09301252 22.59155273 0.11352539 C22.80436386 0.67980652 23.01717499 1.24608765 23.23643494 1.82952881 C34.00002294 30.46516181 44.83051745 59.07210883 55.89233398 87.59399414 C56.19962936 88.38685822 56.50692474 89.17972229 56.8235321 89.99661255 C58.41282388 94.09286358 60.01201303 98.18494509 61.62426758 102.2722168 C62.1148188 103.52038933 62.1148188 103.52038933 62.61528015 104.79377747 C63.23874813 106.37927997 63.86492845 107.96371942 64.49421692 109.54692078 C66.59155273 114.88919414 66.59155273 114.88919414 66.59155273 117.11352539 C58.67155273 117.11352539 50.75155273 117.11352539 42.59155273 117.11352539 C41.29217773 113.87540039 39.99280273 110.63727539 38.65405273 107.30102539 C38.04122437 105.77578247 38.04122437 105.77578247 37.41601562 104.21972656 C37.09366943 103.41510986 36.77132324 102.61049316 36.43920898 101.78149414 C36.10928955 100.95931396 35.77937012 100.13713379 35.43945312 99.29003906 C34.77438931 97.58285682 34.17093008 95.85165742 33.59155273 94.11352539 C17.75155273 93.78352539 1.91155273 93.45352539 -14.40844727 93.11352539 C-15.39844727 96.41352539 -16.38844727 99.71352539 -17.40844727 103.11352539 C-18.25300775 105.47878294 -19.12383002 107.8350166 -20.03344727 110.17602539 C-20.45883789 111.28075195 -20.88422852 112.38547852 -21.32250977 113.52368164 C-22.40844727 116.11352539 -22.40844727 116.11352539 -23.40844727 117.11352539 C-25.18915973 117.20078762 -26.97327867 117.2205158 -28.75610352 117.21118164 C-29.83569336 117.20795898 -30.9152832 117.20473633 -32.02758789 117.20141602 C-33.16389648 117.19303711 -34.30020508 117.1846582 -35.47094727 117.17602539 C-36.61112305 117.17151367 -37.75129883 117.16700195 -38.92602539 117.16235352 C-41.75355078 117.15052287 -44.58097367 117.13403949 -47.40844727 117.11352539 C-43.65054973 106.28183798 -39.71758014 95.53579063 -35.57269287 84.84637451 C-34.28993337 81.53812414 -33.01269091 78.22775121 -31.7350769 74.91751099 C-31.04874961 73.13931519 -30.36216138 71.36122008 -29.67532349 69.58322144 C-25.354412 58.39404831 -21.07013114 47.1908446 -16.78344727 35.98852539 C-16.01817301 33.98900402 -15.25287412 31.98949207 -14.48754883 29.98999023 C-14.12254272 29.03629547 -13.75753662 28.08260071 -13.38146973 27.1000061 C-12.67615396 25.25773622 -11.97051674 23.41558936 -11.26452637 21.57357788 C-9.77405607 17.68459482 -8.28596891 13.79484082 -6.81176758 9.8996582 C-6.3615625 8.7146875 -5.91135742 7.5297168 -5.44750977 6.30883789 C-5.07062012 5.31126465 -4.69373047 4.31369141 -4.30541992 3.28588867 C-3.0071988 0.14174835 -3.0071988 0.14174835 0 0 Z M9.59155273 29.11352539 C5.97172189 37.56145343 2.66613412 46.09596582 -0.48535156 54.72631836 C-1.23332696 56.7723898 -1.98768087 58.81603857 -2.74243164 60.85961914 C-3.22132613 62.16546984 -3.69985606 63.47145432 -4.17797852 64.77758789 C-4.60699463 65.94757324 -5.03601074 67.11755859 -5.47802734 68.32299805 C-6.51388142 70.9394863 -6.51388142 70.9394863 -6.40844727 73.11352539 C4.15155273 73.11352539 14.71155273 73.11352539 25.59155273 73.11352539 C24.9272663 69.7920932 24.3175342 67.07637503 23.19287109 63.96582031 C22.9126561 63.18538864 22.6324411 62.40495697 22.34373474 61.60087585 C22.04266312 60.77360489 21.74159149 59.94633392 21.43139648 59.09399414 C20.96740196 57.80613762 20.96740196 57.80613762 20.49403381 56.49226379 C19.50901626 53.76064283 18.51910666 51.03082448 17.52905273 48.30102539 C16.858807 46.44502252 16.18888146 44.58890399 15.51928711 42.73266602 C13.88041629 38.19160384 12.23715688 33.65215164 10.59155273 29.11352539 C10.26155273 29.11352539 9.93155273 29.11352539 9.59155273 29.11352539 Z " fill="#151562" transform="translate(240.408447265625,219.886474609375)"/>
<path d="M0 0 C8.25 0 16.5 0 25 0 C34.45315622 24.3948422 43.85621869 48.80825378 53.1875 73.25 C53.63402924 74.41918976 54.08055847 75.58837952 54.5406189 76.79299927 C57.00945848 83.25857459 59.47433344 89.72563433 61.93304443 96.19506836 C62.93417747 98.82695841 63.93886283 101.45746968 64.94384766 104.08789062 C65.50058365 105.55328737 66.05708238 107.0187743 66.61328125 108.484375 C67.08161377 109.71381836 67.54994629 110.94326172 68.0324707 112.20996094 C69 115 69 115 69 117 C61.08 117 53.16 117 45 117 C42.03 109.41 39.06 101.82 36 94 C20.16 93.67 4.32 93.34 -12 93 C-12.33 94.98 -12.66 96.96 -13 99 C-13.49399097 100.52456109 -14.03557751 102.03472174 -14.62890625 103.5234375 C-14.91064697 104.23935059 -15.1923877 104.95526367 -15.48266602 105.69287109 C-15.83901123 106.57797363 -16.19535645 107.46307617 -16.5625 108.375 C-17.696875 111.22125 -18.83125 114.0675 -20 117 C-27.92 117 -35.84 117 -44 117 C-43.32988105 113.64940524 -42.74182719 111.0239551 -41.56396484 107.92041016 C-41.27152893 107.1442485 -40.97909302 106.36808685 -40.67779541 105.56840515 C-40.3587323 104.73372208 -40.03966919 103.899039 -39.7109375 103.0390625 C-39.37576111 102.15317947 -39.04058472 101.26729645 -38.69525146 100.35456848 C-37.5924357 97.44320244 -36.4838726 94.53406398 -35.375 91.625 C-34.60377832 89.59391702 -33.83278488 87.56274737 -33.06201172 85.53149414 C-30.71491627 79.35168748 -28.35900862 73.17526764 -26 67 C-25.64736084 66.07672913 -25.29472168 65.15345825 -24.93139648 64.20220947 C-16.73662253 42.75545171 -8.42718956 21.35657628 0 0 Z M12 29 C6.46322324 43.60090941 1.10062748 58.24073751 -4 73 C6.89 73 17.78 73 29 73 C27.288125 68.153125 25.57625 63.30625 23.8125 58.3125 C23.28374268 56.81243408 22.75498535 55.31236816 22.21020508 53.7668457 C19.26839936 45.45784129 16.21554487 37.20789232 13 29 C12.67 29 12.34 29 12 29 Z " fill="#151562" transform="translate(754,67)"/>
<path d="M0 0 C7.59 0 15.18 0 23 0 C23.0093457 2.34601318 23.01869141 4.69202637 23.02832031 7.10913086 C23.06217802 14.88446294 23.11777564 22.65953207 23.18390274 30.43465328 C23.22331139 35.14598362 23.25553218 39.85712891 23.27099609 44.56860352 C23.28620639 49.12055654 23.32072899 53.67200059 23.36830902 58.22372627 C23.38307788 59.95508955 23.39103842 61.68652552 23.39188385 63.41795158 C23.3198432 78.71116166 23.3198432 78.71116166 31.125 91.375 C38.08833865 96.6825129 45.64479933 97.61285207 54.16796875 96.5625 C60.24656197 95.35516562 64.34252943 93.46167397 67.875 88.25 C71.56098616 82.11528177 72.29663231 75.12782589 72.31884766 68.11523438 C72.32889328 67.3727948 72.3389389 66.63035522 72.34928894 65.86541748 C72.37987514 63.44153532 72.39708678 61.01776231 72.4140625 58.59375 C72.43279399 56.90123572 72.45236885 55.20873059 72.4727478 53.51623535 C72.52386594 49.08420221 72.56359979 44.65213887 72.60089111 40.2199707 C72.64105883 35.68823905 72.69209265 31.15663086 72.7421875 26.625 C72.83870598 17.75007851 72.9221815 8.87510518 73 0 C80.59 0 88.18 0 96 0 C96.04537521 9.70191721 96.08198727 19.40376272 96.10362434 29.10576248 C96.11401456 33.61188992 96.12808565 38.11794032 96.15087891 42.62402344 C96.17277854 46.98123674 96.18460433 51.33837643 96.18975449 55.69564056 C96.19341976 57.34922187 96.20057612 59.00279963 96.21146011 60.65634918 C96.32445103 78.55140972 95.1008939 94.52612691 82 108 C69.69199622 118.50463327 54.49000641 119.95465248 39 119 C26.4540782 117.21974071 15.90498314 112.03615451 8 102 C2.42591233 92.92867959 -0.3301292 84.1438501 -0.22705078 73.56445312 C-0.22734283 72.76349213 -0.22763489 71.96253113 -0.22793579 71.13729858 C-0.22655455 68.51850129 -0.21105086 65.89999692 -0.1953125 63.28125 C-0.19157807 61.45422521 -0.18873313 59.62719841 -0.18673706 57.8001709 C-0.17913444 53.01292299 -0.1595152 48.22579821 -0.1373291 43.43859863 C-0.11679774 38.54502019 -0.10771981 33.65142168 -0.09765625 28.7578125 C-0.07626587 19.17181245 -0.0411115 9.58593577 0 0 Z " fill="#151562" transform="translate(381,67)"/>
<path d="M0 0 C-1.66868497 4.15654256 -4.62756804 7.13965542 -7.6875 10.3125 C-8.19216797 10.87517578 -8.69683594 11.43785156 -9.21679688 12.01757812 C-10.74580168 13.59684099 -12.11320088 14.86988302 -14 16 C-17.45703125 15.953125 -17.45703125 15.953125 -21 15 C-22.155 14.75121094 -23.31 14.50242187 -24.5 14.24609375 C-26.83390579 13.706899 -29.16724146 13.16523051 -31.5 12.62109375 C-38.84118452 11.31836123 -45.18482033 12.04873089 -52 15 C-55.24487598 17.78132227 -55.87446936 19.2328683 -56.5625 23.4375 C-55.86004264 27.88639663 -54.53033986 30.31844398 -51 33 C-46.43570416 35.41953475 -41.58480667 37.06822203 -36.73388672 38.81689453 C-16.80453757 46.0030158 -16.80453757 46.0030158 -11 50 C-10.3709375 50.42539063 -9.741875 50.85078125 -9.09375 51.2890625 C-2.732132 56.11418802 0.79235695 63.16899504 2 71 C2.75658401 80.64204743 1.16955715 89.37081591 -5 97 C-14.21455664 106.96119067 -25.6763711 110.73539601 -39.04296875 111.3359375 C-55.26585026 111.62120581 -70.16292291 109.02676274 -84 100 C-85.1706543 97.88867188 -85.1706543 97.88867188 -86 96 C-83.79560567 93.6215393 -81.55796096 91.27717611 -79.3125 88.9375 C-78.37374023 87.92333008 -78.37374023 87.92333008 -77.41601562 86.88867188 C-72.68996953 82.0141636 -72.68996953 82.0141636 -69.3359375 81.9453125 C-68.56507813 82.29335937 -67.79421875 82.64140625 -67 83 C-66.23300781 83.29777344 -65.46601562 83.59554687 -64.67578125 83.90234375 C-63.89589844 84.24394531 -63.11601563 84.58554688 -62.3125 84.9375 C-51.67165844 89.27908966 -40.05481475 90.85633073 -29 87 C-26.22960315 85.15306876 -24.48437105 83.9687421 -23 81 C-22.52426366 76.24263665 -22.43064473 74.00127997 -24.8125 69.8125 C-30.58423271 63.93007652 -39.14737982 61.91859349 -46.76904297 59.46289062 C-60.46826099 55.04734124 -71.37611678 50.74806425 -78.875 37.75 C-81.98907472 27.36975094 -81.75070031 17.06390062 -76.875 7.3125 C-71.19738356 -1.99157087 -63.24751374 -5.92320307 -53 -9 C-34.56150168 -12.97643439 -16.19965444 -9.20434912 0 0 Z " fill="#151562" transform="translate(696,75)"/>
<path d="M0 0 C-1.41088411 3.30653354 -3.05531369 5.1547817 -5.8125 7.4375 C-8.29805563 9.51477844 -10.5565294 11.56363552 -12.6875 14 C-13.8321875 14.99 -13.8321875 14.99 -15 16 C-17.2578125 15.72265625 -17.2578125 15.72265625 -20 15 C-31.24665761 12.15517049 -41.08988561 9.88935578 -52 15 C-54.79438856 16.77205128 -55.72895617 17.83584454 -56.4765625 21.046875 C-56.77144168 24.30146739 -56.67891317 26.85449786 -54.98828125 29.70703125 C-49.72652778 34.94116396 -41.97585535 36.85917451 -35.12402344 39.25 C-8.17802881 48.76472362 -8.17802881 48.76472362 -1 61 C2.41180068 69.0028479 2.24622751 79.47033181 0.34765625 87.89453125 C-0.57374483 90.15255707 -1.60742653 92.00051391 -3 94 C-3.46277344 94.69222656 -3.92554688 95.38445312 -4.40234375 96.09765625 C-11.17410759 104.95558694 -21.58448323 108.55933648 -32.23046875 110.53125 C-51.60889168 112.94100207 -70.02239567 109.57797415 -86 98 C-84.32093514 93.76628432 -81.32192904 90.88257096 -78.1875 87.6875 C-77.66607422 87.12482422 -77.14464844 86.56214844 -76.60742188 85.98242188 C-75.04296875 84.38671875 -75.04296875 84.38671875 -72 82 C-68.48847779 82.03144647 -65.83112071 83.45782063 -62.6875 84.9375 C-52.50924321 89.08475986 -40.5552347 90.33813959 -30 87 C-26.10962764 85.2533022 -24.57974261 83.91074059 -23 80 C-22.59261139 75.25562009 -23.23208306 71.91319853 -26.3125 68.25 C-33.01835422 63.62690521 -41.07595923 61.2686578 -48.76318359 58.81884766 C-60.66113475 55.00864994 -70.74076491 50.75829085 -78 40 C-82.39864167 30.84727087 -82.14287336 20.67865995 -78.90234375 11.2109375 C-75.29224724 2.36541965 -68.47153475 -3.17401047 -59.875 -6.875 C-40.26434834 -14.72966419 -17.79290265 -9.94016908 0 0 Z " fill="#151562" transform="translate(700,228)"/>
<path d="M0 0 C8.91 0 17.82 0 27 0 C36.09646084 16.29216867 36.09646084 16.29216867 40.453125 24.43359375 C41.03167236 25.51253906 41.61021973 26.59148437 42.20629883 27.703125 C43.34868489 29.83742631 44.48664232 31.97410474 45.61987305 34.11328125 C46.14621338 35.09554687 46.67255371 36.0778125 47.21484375 37.08984375 C47.68011475 37.96503662 48.14538574 38.84022949 48.62475586 39.74194336 C49.90485587 41.84377987 51.1791347 43.36152298 53 45 C53.47832275 44.0934668 53.95664551 43.18693359 54.44946289 42.25292969 C56.25659399 38.82967556 58.06715606 35.40824541 59.87866211 31.98730469 C60.65626467 30.51773368 61.4329853 29.0476956 62.20874023 27.57714844 C75.37319495 2.62680505 75.37319495 2.62680505 78 0 C79.99964982 -0.08758003 82.0023611 -0.10696576 84.00390625 -0.09765625 C85.21884766 -0.09443359 86.43378906 -0.09121094 87.68554688 -0.08789062 C88.96494141 -0.07951172 90.24433594 -0.07113281 91.5625 -0.0625 C92.84576172 -0.05798828 94.12902344 -0.05347656 95.45117188 -0.04882812 C98.63416022 -0.03699545 101.81705762 -0.02051068 105 0 C100.5066085 8.38659808 95.76563192 16.61584398 90.9375 24.8125 C90.18908193 26.0860256 89.44079266 27.35962691 88.69262695 28.63330078 C83.51516316 37.44332145 78.32174892 46.243999 73.11108398 55.03442383 C72.62454346 55.85579834 72.13800293 56.67717285 71.63671875 57.5234375 C71.22123779 58.22388184 70.80575684 58.92432617 70.37768555 59.64599609 C69.92304932 60.42281738 69.46841309 61.19963867 69 62 C67.94727905 63.52500122 67.94727905 63.52500122 66.87329102 65.08081055 C64.1536167 69.87978787 64.39716156 74.78994299 64.390625 80.18359375 C64.37408875 81.23909927 64.35755249 82.2946048 64.34051514 83.38209534 C64.29215763 86.73395682 64.27069071 90.08536496 64.25 93.4375 C64.22183019 95.71812161 64.19190135 97.99872222 64.16015625 100.27929688 C64.08310881 105.85307068 64.04247293 111.42542787 64 117 C56.41 117 48.82 117 41 117 C41.10183594 113.82503906 41.20367188 110.65007812 41.30859375 107.37890625 C42.01520693 74.82831061 42.01520693 74.82831061 27.07080078 46.73779297 C23.46930667 41.97627977 20.66712536 36.76019797 17.75 31.5625 C13.04007168 23.40448087 8.20921992 15.33068069 3.19824219 7.35375977 C0 2.211643 0 2.211643 0 0 Z " fill="#151562" transform="translate(506,220)"/>
<path d="M0 0 C7.59 0 15.18 0 23 0 C23 32.34 23 64.68 23 98 C40.16 98 57.32 98 75 98 C75 104.27 75 110.54 75 117 C50.25 117 25.5 117 0 117 C0 78.39 0 39.78 0 0 Z " fill="#151562" transform="translate(323,220)"/>
<path d="M0 0 C-0.57178482 0.63186974 -0.57178482 0.63186974 -1.15512085 1.27650452 C-4.27531195 4.80642413 -6.90343575 8.3257779 -9.31317139 12.36659241 C-15.82011501 22.87880033 -24.16056455 32.62881494 -36 37 C-60.04175645 42.49548875 -87.64241638 38.83244909 -112 37 C-88.87187848 -10.2257942 -45.0777824 -3.705829 0 0 Z " fill="#FF0000" transform="translate(998,184)"/>
<path d="M0 0 C-0.80880615 0.93336182 -1.6176123 1.86672363 -2.45092773 2.82836914 C-5.04429419 5.84813956 -7.56178987 8.92072274 -10.06274414 12.01733398 C-15.21404203 18.32634561 -20.55143821 24.44150962 -26.0625 30.4375 C-26.80146893 31.24243771 -26.80146893 31.24243771 -27.55536652 32.06363678 C-40.23449411 45.73758932 -51.0414987 55.2901323 -70.52229309 56.19963074 C-82.09049533 56.26091328 -93.62608564 55.06789176 -105 53 C-104.19119385 52.06663818 -103.3823877 51.13327637 -102.54907227 50.17163086 C-99.95570581 47.15186044 -97.43821013 44.07927726 -94.93725586 40.98266602 C-89.78595797 34.67365439 -84.44856179 28.55849038 -78.9375 22.5625 C-78.44485405 22.02587486 -77.9522081 21.48924973 -77.44463348 20.93636322 C-54.7421941 -3.54734643 -32.72604058 -5.94992256 0 0 Z " fill="#0036FD" transform="translate(975,131)"/>
<path d="M0 0 C7.59 0 15.18 0 23 0 C23 38.61 23 77.22 23 117 C15.41 117 7.82 117 0 117 C0 78.39 0 39.78 0 0 Z " fill="#151562" transform="translate(726,220)"/>
<path d="M0 0 C1.45053898 0.94443687 2.89813882 1.89338892 4.34448242 2.84423828 C5.55414925 3.63618088 5.55414925 3.63618088 6.78825378 4.44412231 C16.18884441 11.05707324 20.96413216 22.0834982 23.46484375 32.90625 C24.80381281 40.64685948 24.16841977 46.41053082 22 54 C-2.75 54 -27.5 54 -53 54 C-49.37033587 49.76539185 -45.91940335 45.79529686 -42.00439453 41.89086914 C-41.54510056 41.43142914 -41.08580658 40.97198914 -40.6125946 40.49862671 C-39.1216965 39.00841502 -37.62730865 37.52175872 -36.1328125 36.03515625 C-35.08741675 34.99162921 -34.04224425 33.94787848 -32.99728394 32.90391541 C-30.2672716 30.17769255 -27.53426807 27.45448819 -24.80059814 24.73193359 C-22.00324846 21.94487541 -19.20878299 19.15492854 -16.4140625 16.36523438 C-10.94550306 10.90734919 -5.47377555 5.45265441 0 0 Z " fill="#96001E" transform="translate(1092,14)"/>
<path d="M0 0 C10.61242023 4.07750124 16.69799523 12.73997883 21.3125 22.8125 C23.14695497 27.06193366 24.12588379 30.79768877 24.1328125 35.44140625 C24.13410156 36.27220703 24.13539062 37.10300781 24.13671875 37.95898438 C24.13285156 38.81814453 24.12898438 39.67730469 24.125 40.5625 C24.12886719 41.42552734 24.13273437 42.28855469 24.13671875 43.17773438 C24.13542969 44.00724609 24.13414063 44.83675781 24.1328125 45.69140625 C24.13168457 46.44623291 24.13055664 47.20105957 24.12939453 47.97875977 C24 50 24 50 23 53 C-1.75 53 -26.5 53 -52 53 C-48.3983839 48.79811455 -44.9800788 44.85582444 -41.09619141 40.98266602 C-40.17569 40.06224014 -39.2551886 39.14181427 -38.30679321 38.1934967 C-37.32177076 37.21357848 -36.33669259 36.23371626 -35.3515625 35.25390625 C-34.32858694 34.23279952 -33.30583472 33.211469 -32.28329468 32.18992615 C-29.61246639 29.52288647 -26.93864718 26.85886564 -24.26416016 24.19549561 C-21.52713264 21.4687615 -18.79299099 18.73913695 -16.05859375 16.00976562 C-10.70852452 10.67036911 -5.35528727 5.33416348 0 0 Z " fill="#141562" transform="translate(1134,131)"/>
</svg>
