<?xml version="1.0" encoding="UTF-8"?>
<svg id="Logos" xmlns="http://www.w3.org/2000/svg" version="1.1" viewBox="0 0 603.7 199.22">
  <!-- Generator: Adobe Illustrator 29.5.1, SVG Export Plug-In . SVG Version: 2.1.0 Build 141)  -->
  <defs>
    <style>
      .st0 {
        fill: #1d2953;
      }

      .st1 {
        fill: #2ad870;
      }
    </style>
  </defs>
  <g>
    <path class="st0" d="M267.47,178.15c-.34.02-.71.02-1.08.02-21.41,0-34.69-17.35-34.69-45.3s13.4-45.31,34.96-45.31c.78,0,1.54.03,2.3.08,20.06,1.2,32.42,18.3,32.42,45.24s-12.96,44.72-33.91,45.28M269.3,66.58s-1.03-.05-1.54-.03c-.46-.03-.91-.03-1.37-.03-14.63,0-27.52,4.06-37.77,11.87V18.31h-24.44v178.46h21.31l1.54-10.06c10.3,8.32,23.83,12.51,39.63,12.51h.46c17.98-.1,33.25-6.31,44.23-17.99,11.13-11.86,17.05-28.6,17.05-48.36,0-39.27-23.09-64.98-59.1-66.3M396.83,178.17c-21.38,0-34.69-17.35-34.69-45.3s13.4-45.31,34.96-45.31,34.71,17.35,34.71,45.31-13.4,45.3-34.98,45.3M396.83,66.52c-18.12,0-33.59,6.24-44.67,18.08-11.15,11.89-17.05,28.6-17.05,48.27,0,40.31,19.62,66.34,61.99,66.34,18.18,0,33.61-6.21,44.67-17.97,11.18-11.87,17.05-28.6,17.05-48.37,0-40.32-24.32-66.35-62-66.35M525.01,86.19c-22.19,0-31.95,18.32-33.27,33.81h63.92c0-17.3-8.74-33.81-30.66-33.81h.01ZM491.74,139.05c.27,25.64,13.43,39.14,37.14,39.14s37.08-12.94,38.48-14.31l10.64,17.22s-16.83,17.91-52.11,17.91-60.35-24.27-60.35-65.88,26.18-66.42,60.35-66.42,54.31,25.64,54.31,62.02l-.27,10.18-88.19.14h0Z"/>
    <path class="st1" d="M157.57,78.36l-16.02-16.03,16.02-16.03,16.03,16.03-16.03,16.03ZM157.6,32.05l-16.03-16.03L157.6,0l16.02,16.02-16.03,16.03h0ZM180.75,55.22l-16.03-16.02,8.91-8.88,7.11-7.14,16.03,16.02-16.02,16.02Z"/>
    <path class="st0" d="M86.97,174.55c-35.79,0-59.06-28.8-59.06-70.97s24.44-70.99,59.91-70.99c26.03,0,37.6,13.19,46.63,22.61l16-16.05c-8.56-8.74-25.58-30.12-63.48-30.12C40.12,9.03,0,44.23,0,103.88s36.06,95.11,85.8,95.11c36.96,0,57.05-19.6,64.92-29.65l-16.61-16.63c-7.21,8.44-22.61,21.84-47.14,21.84"/>
  </g>
  <path class="st0" d="M603.7,78.92c0,6.83-5.32,12.19-12.16,12.19s-12.09-5.36-12.09-12.12,5.25-12.12,12.16-12.12,12.09,5.22,12.09,12.06h0ZM602.39,78.92c0-6.11-4.6-10.78-10.78-10.78s-10.89,4.77-10.89,10.85,4.67,10.85,10.82,10.85,10.85-4.81,10.85-10.92h0ZM594.59,80.98l3.23,4.95h-1.86l-2.99-4.64c-.27.03-.51.03-.79.03h-3.57v4.6h-1.79v-13.88h5.36c3.4,0,5.5,1.79,5.5,4.6,0,2.13-1.13,3.64-3.09,4.33h0ZM595.93,76.65c0-1.96-1.41-3.09-3.85-3.09h-3.5v6.25h3.5c2.44,0,3.85-1.17,3.85-3.16Z"/>
</svg>