<?xml version="1.0" encoding="UTF-8"?><svg id="Layer_1" xmlns="http://www.w3.org/2000/svg" viewBox="0 0 1200 628"><defs><style>.cls-1{fill:#df1522;}.cls-2{fill:#003a8c;}</style></defs><path class="cls-1" d="M488.69,182.73s-26.87-71.1-134.29-63.4c-20.12,1.48-38.17,5.13-67.67,14.73C139.54,181.77-31.33,395.36,111.45,490.28c0,0,52.64,34.3,129.23,1.6,76.57-32.7,101.32-134.19,73.4-156.54-25.3-20.24-56.63,2.4-88.55,3.98-16.75.83-63.83-1.59-27.13-76.56,28.69-58.66,113.84-125.87,212.76-121.86,59.01,2.4,77.52,41.82,77.52,41.82"/><path class="cls-2" d="M243.81,506.16s189.98-41.38,249.93-207.51c3.1-8.63,6.1-19.87,8-29.04,9.91-48-8.55-127.02-100.35-113.07-99.94,15.17-146.34,91.14-145.53,123.18.89,35.14,27.41,32.12,56.78,25.56,42.33-9.46,79.98,16.98,69.56,68.94-10.37,51.98-72.73,106.38-138.38,131.94"/><path d="M695.92,292.64l53.19,16.08c-3.57,14.92-9.2,27.38-16.88,37.38-7.68,10.01-17.22,17.56-28.61,22.65-11.39,5.09-25.88,7.64-43.48,7.64-21.35,0-38.79-3.1-52.32-9.31-13.54-6.2-25.22-17.12-35.04-32.74-9.83-15.62-14.74-35.62-14.74-59.99,0-32.5,8.64-57.47,25.93-74.92,17.28-17.45,41.74-26.18,73.36-26.18,24.74,0,44.19,5.01,58.35,15.01,14.16,10.01,24.68,25.37,31.56,46.1l-53.6,11.93c-1.88-5.98-3.85-10.36-5.9-13.13-3.39-4.64-7.55-8.22-12.46-10.72-4.91-2.5-10.41-3.75-16.48-3.75-13.76,0-24.3,5.53-31.62,16.6-5.54,8.21-8.3,21.1-8.3,38.68,0,21.77,3.3,36.7,9.91,44.77,6.61,8.07,15.9,12.11,27.87,12.11s20.39-3.26,26.33-9.78c5.94-6.52,10.25-15.99,12.93-28.41Z"/><path d="M871.86,301.88v-40.87h93.8v83.75c-17.96,12.24-33.84,20.57-47.64,24.99-13.8,4.43-30.18,6.64-49.11,6.64-23.31,0-42.32-3.98-57.02-11.93-14.69-7.95-26.09-19.79-34.17-35.51-8.09-15.72-12.13-33.77-12.13-54.13,0-21.44,4.42-40.09,13.26-55.95,8.84-15.85,21.79-27.89,38.86-36.11,13.31-6.34,31.22-9.51,53.73-9.51s37.94,1.97,48.71,5.9c10.76,3.93,19.69,10.03,26.8,18.29,7.11,8.27,12.44,18.74,16.02,31.42l-58.56,10.45c-2.41-7.41-6.5-13.09-12.26-17.02-5.76-3.93-13.11-5.9-22.04-5.9-13.31,0-23.92,4.62-31.83,13.87-7.91,9.25-11.86,23.88-11.86,43.89,0,21.26,4,36.44,11.99,45.56,7.99,9.11,19.14,13.67,33.43,13.67,6.79,0,13.26-.98,19.43-2.95,6.16-1.96,13.22-5.31,21.17-10.05v-18.49h-40.6Z"/><path d="M985.64,308.04l57.75-3.62c1.25,9.38,3.79,16.53,7.64,21.44,6.25,7.95,15.18,11.93,26.8,11.93,8.67,0,15.34-2.03,20.03-6.1,4.69-4.06,7.03-8.78,7.03-14.14s-2.23-9.64-6.7-13.67c-4.47-4.02-14.83-7.82-31.09-11.39-26.62-5.98-45.61-13.94-56.95-23.85-11.44-9.92-17.15-22.55-17.15-37.92,0-10.09,2.93-19.63,8.78-28.61s14.65-16.03,26.4-21.17c11.75-5.14,27.85-7.71,48.31-7.71,25.1,0,44.24,4.67,57.42,14.01,13.17,9.33,21.01,24.18,23.52,44.55l-57.22,3.35c-1.52-8.84-4.71-15.27-9.58-19.3-4.87-4.02-11.59-6.03-20.17-6.03-7.06,0-12.37,1.5-15.94,4.49-3.57,3-5.36,6.63-5.36,10.92,0,3.13,1.48,5.95,4.42,8.44,2.86,2.59,9.65,5,20.37,7.24,26.53,5.72,45.54,11.5,57.02,17.35,11.48,5.85,19.83,13.11,25.06,21.77,5.23,8.67,7.84,18.36,7.84,29.08,0,12.6-3.48,24.21-10.45,34.84-6.97,10.63-16.71,18.69-29.21,24.19-12.51,5.5-28.27,8.24-47.3,8.24-33.41,0-56.55-6.43-69.41-19.3s-20.14-29.21-21.84-49.05Z"/><path d="M580.05,487.35v-76.2h10.08v76.2h-10.08Z"/><path d="M606.71,487.35v-55.2h8.42v7.85c4.05-6.06,9.91-9.1,17.57-9.1,3.32,0,6.38.6,9.17,1.8,2.79,1.19,4.88,2.76,6.26,4.7,1.39,1.94,2.36,4.24,2.91,6.91.35,1.73.52,4.76.52,9.1v33.94h-9.36v-33.57c0-3.81-.36-6.66-1.09-8.55-.73-1.89-2.02-3.39-3.87-4.52-1.86-1.13-4.03-1.69-6.53-1.69-3.98,0-7.42,1.27-10.31,3.79-2.89,2.53-4.34,7.33-4.34,14.4v30.14h-9.36Z"/><path d="M686.34,478.98l1.35,8.27c-2.63.55-4.99.83-7.07.83-3.4,0-6.03-.54-7.9-1.61s-3.19-2.49-3.95-4.24c-.77-1.75-1.14-5.43-1.14-11.05v-31.75h-6.86v-7.28h6.86v-13.67l9.3-5.61v19.28h9.41v7.28h-9.41v32.28c0,2.67.16,4.38.49,5.14.33.77.86,1.37,1.61,1.82s1.81.68,3.2.68c1.04,0,2.41-.12,4.11-.36Z"/><path d="M733.27,469.58l9.67,1.2c-1.52,5.65-4.35,10.03-8.47,13.15-4.12,3.12-9.39,4.68-15.8,4.68-8.08,0-14.48-2.49-19.21-7.46-4.73-4.97-7.1-11.95-7.1-20.92s2.39-16.49,7.17-21.62c4.78-5.13,10.99-7.69,18.61-7.69s13.41,2.51,18.09,7.54c4.68,5.03,7.01,12.1,7.01,21.21,0,.56-.02,1.39-.05,2.49h-41.17c.35,6.06,2.06,10.71,5.15,13.93s6.93,4.83,11.54,4.83c3.43,0,6.36-.9,8.78-2.7,2.42-1.8,4.35-4.68,5.77-8.63ZM702.56,454.45h30.82c-.42-4.64-1.59-8.13-3.54-10.45-2.98-3.6-6.84-5.4-11.59-5.4-4.3,0-7.91,1.44-10.84,4.31-2.93,2.87-4.55,6.72-4.86,11.54Z"/><path d="M754.58,487.35v-55.2h8.42v8.37c2.15-3.92,4.13-6.5,5.95-7.75,1.82-1.25,3.82-1.87,6-1.87,3.15,0,6.36,1.01,9.62,3.02l-3.22,8.68c-2.29-1.35-4.58-2.03-6.86-2.03-2.04,0-3.88.62-5.51,1.85-1.63,1.23-2.79,2.94-3.48,5.12-1.04,3.32-1.56,6.96-1.56,10.91v28.9h-9.36Z"/><path d="M792.26,487.35v-55.2h8.42v7.85c4.05-6.06,9.91-9.1,17.57-9.1,3.32,0,6.38.6,9.17,1.8,2.79,1.19,4.88,2.76,6.26,4.7,1.39,1.94,2.36,4.24,2.91,6.91.35,1.73.52,4.76.52,9.1v33.94h-9.36v-33.57c0-3.81-.36-6.66-1.09-8.55-.73-1.89-2.02-3.39-3.87-4.52-1.86-1.13-4.03-1.69-6.53-1.69-3.98,0-7.42,1.27-10.32,3.79-2.89,2.53-4.34,7.33-4.34,14.4v30.14h-9.36Z"/><path d="M887.49,480.54c-3.47,2.94-6.8,5.03-10.01,6.24s-6.64,1.82-10.32,1.82c-6.06,0-10.73-1.48-13.98-4.45-3.26-2.96-4.89-6.75-4.89-11.36,0-2.7.62-5.17,1.85-7.41,1.23-2.23,2.84-4.03,4.83-5.38,1.99-1.35,4.24-2.37,6.73-3.06,1.84-.49,4.61-.96,8.32-1.41,7.55-.9,13.11-1.97,16.68-3.22.04-1.28.05-2.1.05-2.44,0-3.81-.88-6.5-2.65-8.06-2.39-2.11-5.95-3.17-10.65-3.17-4.4,0-7.65.77-9.75,2.31-2.1,1.54-3.65,4.27-4.65,8.19l-9.15-1.25c.83-3.92,2.2-7.08,4.11-9.49,1.9-2.41,4.66-4.26,8.26-5.56s7.78-1.95,12.53-1.95,8.54.56,11.49,1.67,5.11,2.5,6.5,4.18c1.39,1.68,2.36,3.8,2.91,6.36.31,1.59.47,4.47.47,8.63v12.47c0,8.7.2,14.2.6,16.5.4,2.31,1.19,4.52,2.36,6.63h-9.77c-.97-1.94-1.59-4.21-1.87-6.81ZM886.71,459.65c-3.39,1.39-8.49,2.57-15.28,3.54-3.85.55-6.56,1.18-8.16,1.87-1.59.69-2.82,1.71-3.69,3.04-.86,1.33-1.3,2.81-1.3,4.45,0,2.49.94,4.57,2.83,6.24,1.89,1.66,4.65,2.49,8.29,2.49s6.81-.79,9.62-2.37c2.81-1.58,4.87-3.73,6.18-6.47,1.01-2.11,1.51-5.23,1.51-9.36v-3.43Z"/><path d="M931.09,478.98l1.35,8.27c-2.63.55-4.99.83-7.07.83-3.4,0-6.03-.54-7.9-1.61s-3.19-2.49-3.95-4.24c-.77-1.75-1.14-5.43-1.14-11.05v-31.75h-6.86v-7.28h6.86v-13.67l9.3-5.61v19.28h9.41v7.28h-9.41v32.28c0,2.67.16,4.38.49,5.14.33.77.86,1.37,1.61,1.82s1.81.68,3.2.68c1.04,0,2.41-.12,4.11-.36Z"/><path d="M942.42,421.92v-10.76h9.36v10.76h-9.36ZM942.42,487.35v-55.2h9.36v55.2h-9.36Z"/><path d="M962.54,459.76c0-10.22,2.84-17.8,8.53-22.71,4.75-4.09,10.53-6.13,17.36-6.13,7.59,0,13.79,2.49,18.61,7.46,4.82,4.97,7.22,11.84,7.22,20.61,0,7.11-1.07,12.69-3.2,16.76-2.13,4.07-5.23,7.24-9.3,9.49-4.07,2.25-8.52,3.38-13.33,3.38-7.73,0-13.97-2.48-18.74-7.43-4.76-4.95-7.15-12.09-7.15-21.41ZM972.15,459.76c0,7.07,1.54,12.36,4.63,15.88s6.96,5.27,11.64,5.27,8.51-1.76,11.59-5.3c3.08-3.53,4.63-8.92,4.63-16.16,0-6.83-1.55-12-4.65-15.52-3.1-3.51-6.96-5.27-11.57-5.27s-8.56,1.75-11.64,5.25c-3.08,3.5-4.63,8.78-4.63,15.85Z"/><path d="M1023.09,487.35v-55.2h8.42v7.85c4.05-6.06,9.91-9.1,17.57-9.1,3.32,0,6.38.6,9.17,1.8,2.79,1.19,4.88,2.76,6.26,4.7,1.39,1.94,2.36,4.24,2.91,6.91.35,1.73.52,4.76.52,9.1v33.94h-9.36v-33.57c0-3.81-.36-6.66-1.09-8.55-.73-1.89-2.02-3.39-3.87-4.52-1.86-1.13-4.03-1.69-6.53-1.69-3.98,0-7.42,1.27-10.32,3.79-2.89,2.53-4.34,7.33-4.34,14.4v30.14h-9.36Z"/><path d="M1116.18,480.54c-3.47,2.94-6.8,5.03-10.01,6.24s-6.64,1.82-10.32,1.82c-6.06,0-10.73-1.48-13.98-4.45-3.26-2.96-4.89-6.75-4.89-11.36,0-2.7.62-5.17,1.85-7.41,1.23-2.23,2.84-4.03,4.83-5.38,1.99-1.35,4.24-2.37,6.73-3.06,1.84-.49,4.61-.96,8.32-1.41,7.55-.9,13.11-1.97,16.68-3.22.04-1.28.05-2.1.05-2.44,0-3.81-.88-6.5-2.65-8.06-2.39-2.11-5.95-3.17-10.65-3.17-4.4,0-7.65.77-9.75,2.31-2.1,1.54-3.65,4.27-4.65,8.19l-9.15-1.25c.83-3.92,2.2-7.08,4.11-9.49,1.9-2.41,4.66-4.26,8.26-5.56s7.78-1.95,12.53-1.95,8.54.56,11.49,1.67,5.11,2.5,6.5,4.18c1.39,1.68,2.36,3.8,2.91,6.36.31,1.59.47,4.47.47,8.63v12.47c0,8.7.2,14.2.6,16.5.4,2.31,1.19,4.52,2.36,6.63h-9.77c-.97-1.94-1.59-4.21-1.87-6.81ZM1115.4,459.65c-3.39,1.39-8.49,2.57-15.28,3.54-3.85.55-6.56,1.18-8.16,1.87-1.59.69-2.82,1.71-3.69,3.04-.86,1.33-1.3,2.81-1.3,4.45,0,2.49.94,4.57,2.83,6.24,1.89,1.66,4.65,2.49,8.29,2.49s6.81-.79,9.62-2.37c2.81-1.58,4.87-3.73,6.18-6.47,1.01-2.11,1.51-5.23,1.51-9.36v-3.43Z"/><path d="M1139.16,487.35v-76.2h9.36v76.2h-9.36Z"/></svg>