<?xml version="1.0" encoding="UTF-8"?>
<svg version="1.1" xmlns="http://www.w3.org/2000/svg" width="3535" height="1851">
<path d="M0 0 C1.09618652 0.35674805 2.19237305 0.71349609 3.32177734 1.08105469 C76.2403686 25.01140156 153.57460628 64.26178326 202 126 C202.88157781 127.09214363 203.76444681 128.18324596 204.6484375 129.2734375 C242.45196393 176.17620808 259.9065374 234.27396861 254.17993164 294.31054688 C247.12982176 359.10597533 217.27654519 419.97631311 178.63574219 471.79492188 C176.92923189 474.09539964 175.24775766 476.41263195 173.5703125 478.734375 C165.76835628 489.49828584 157.56541877 499.83594256 149 510 C147.99709108 511.1989639 146.9944737 512.39817174 145.9921875 513.59765625 C141.11347604 519.41815222 136.1361724 525.13720313 131.02734375 530.7578125 C129.26032801 532.71208424 127.53086471 534.69059737 125.8125 536.6875 C114.12073229 550.04428981 101.57271411 562.58781217 89.01171875 575.11865234 C86.58806172 577.53655613 84.16900305 579.95900349 81.75119209 582.38275146 C79.40167245 584.73677878 77.0483238 587.08696279 74.6953125 589.4375 C73.83994904 590.2948877 72.98458557 591.15227539 72.103302 592.03564453 C67.78584829 596.33640177 63.40992804 600.5011793 58.77841187 604.46313477 C55.5971868 607.21228095 52.55821472 610.11562064 49.5 613 C45.79566923 616.49376881 42.07769212 619.9547081 38.22827148 623.28881836 C34.26938335 626.74490188 30.39816121 630.28274902 26.56640625 633.87890625 C25.88340958 634.51985733 25.2004129 635.16080841 24.49671936 635.82118225 C17.22611427 642.67951068 10.13488549 649.71368161 3.07836914 656.79125977 C0.91082358 658.96424335 -1.262125 661.13172363 -3.43554688 663.29882812 C-4.84407127 664.70801229 -6.252286 666.11750606 -7.66015625 667.52734375 C-8.2956691 668.16083237 -8.93118195 668.79432098 -9.58595276 669.44700623 C-13.36483872 673.24546721 -16.95908492 677.15795872 -20.45594788 681.21783447 C-22.70070075 683.80875814 -25.03843693 686.30402764 -27.375 688.8125 C-31.66751208 693.45904128 -35.73338031 698.2409924 -39.69921875 703.171875 C-41.73817628 705.67816576 -43.823751 708.13594318 -45.93310547 710.58300781 C-52.68440895 718.43602842 -58.87686485 726.65236226 -65 735 C-65.52352051 735.70785645 -66.04704102 736.41571289 -66.58642578 737.14501953 C-106.01082421 790.48250046 -136.78505953 850.92210386 -147 917 C-147.14953125 917.95084473 -147.2990625 918.90168945 -147.453125 919.88134766 C-157.8304764 988.88849797 -141.76373794 1057.52036676 -111.6875 1119.625 C-111.17991653 1120.67439758 -111.17991653 1120.67439758 -110.66207886 1121.74499512 C-105.67609914 1132.00638777 -100.62468839 1142.0560089 -93.375 1150.9375 C-89.8055405 1155.39083213 -86.74885675 1159.97511788 -83.8293457 1164.87792969 C-77.70529882 1175.12956566 -70.55162743 1183.02063207 -61.86865234 1191.16162109 C-59.26892653 1193.71922958 -56.91109101 1196.45889168 -54.53833008 1199.22583008 C-52.78214568 1201.25125335 -50.92816844 1203.13832012 -49 1205 C-45.82910002 1208.12845964 -42.8743004 1211.36855352 -39.97265625 1214.74609375 C-38.03533501 1216.95962713 -36.04899864 1219.12203715 -34.0480957 1221.27807617 C-29.26602817 1226.43424266 -24.70067201 1231.69931872 -20.29296875 1237.18359375 C-18.29347679 1239.63952851 -16.24336336 1242.04034632 -14.16748047 1244.43164062 C-4.76805866 1255.31125967 3.99160614 1266.84426904 11.375 1279.1875 C15.95954861 1286.53828941 21.89306911 1292.25215961 28.1328125 1298.2109375 C31.36920983 1301.31858705 34.3279469 1304.58424714 37.24951172 1307.98681641 C40.23276169 1311.41776191 43.37378193 1314.69974504 46.5 1318 C51.45671963 1323.23266072 56.28783366 1328.54587045 61 1334 C61.48307617 1334.55558594 61.96615234 1335.11117188 62.46386719 1335.68359375 C76.98007506 1352.39613146 91.1834599 1369.44353585 102.9375 1388.25 C107.01434207 1394.49537509 112.17643847 1399.44823032 117.53515625 1404.578125 C120.62107632 1407.55836883 123.42750225 1410.71970685 126.2253418 1413.96923828 C129.17499177 1417.34455654 132.28535495 1420.56586974 135.375 1423.8125 C140.46063619 1429.1924857 145.29078536 1434.64503788 149.90234375 1440.4375 C152.13217861 1443.16146959 154.47954118 1445.73335185 156.875 1448.3125 C161.60617078 1453.45983858 165.90937228 1458.84878739 170.17578125 1464.37890625 C171.98391655 1466.71807612 173.82863587 1469.01377505 175.73046875 1471.27734375 C203.78965251 1504.88276883 231.94360735 1549.89764103 228.75390625 1595.37890625 C226.8071996 1616.60088565 218.77902095 1636.41564212 204 1652 C203.44070801 1652.59876953 202.88141602 1653.19753906 202.30517578 1653.81445312 C164.76448593 1693.74507948 111.46170473 1713.67291809 61 1732 C60.27039062 1732.26532532 59.54078125 1732.53065063 58.7890625 1732.80401611 C34.19903589 1741.72274677 9.24019716 1749.15475078 -16 1756 C-16.72062622 1756.19615906 -17.44125244 1756.39231812 -18.18371582 1756.59442139 C-77.958377 1772.82552735 -140.19089147 1782.37659414 -202 1786 C-203.89407593 1786.12810059 -203.89407593 1786.12810059 -205.82641602 1786.25878906 C-223.79537165 1787.38692566 -241.81581837 1787.24445533 -259.8125 1787.25 C-261.12608616 1787.25088371 -261.12608616 1787.25088371 -262.46620941 1787.25178528 C-291.08434293 1787.2653564 -319.4868359 1786.66019298 -348 1784 C-349.61652588 1783.85388688 -351.23306227 1783.70788986 -352.84960938 1783.56201172 C-433.08241981 1776.2041159 -511.99013385 1758.61276864 -588 1732 C-588.97978821 1731.65772369 -588.97978821 1731.65772369 -589.97937012 1731.30853271 C-619.98741732 1720.80581072 -649.29053095 1708.64883863 -678 1695 C-680.09368305 1694.01418072 -682.18743339 1693.02850433 -684.28125 1692.04296875 C-741.21825385 1665.11049732 -794.87997121 1632.12431351 -845 1594 C-846.51400391 1592.85337891 -846.51400391 1592.85337891 -848.05859375 1591.68359375 C-864.13077178 1579.45654115 -879.79802195 1566.6194937 -894.74609375 1553.0390625 C-896.7688269 1551.20913753 -898.81369435 1549.41118272 -900.875 1547.625 C-918.69224952 1532.07475639 -937.00553003 1515.94397947 -952.328125 1497.890625 C-954.29754029 1495.66352921 -956.38374342 1493.58785046 -958.5 1491.5 C-961.89268399 1488.14743221 -965.09100684 1484.70524318 -968.1953125 1481.0859375 C-970.21651276 1478.74974499 -972.29378839 1476.47035149 -974.375 1474.1875 C-978.26924618 1469.87225424 -981.96654724 1465.42908245 -985.62109375 1460.91015625 C-987.72929309 1458.33116035 -989.87274687 1455.7909932 -992.03857422 1453.26074219 C-997.41739713 1446.9713681 -1002.56456023 1440.53467526 -1007.546875 1433.92578125 C-1009.1819931 1431.75881022 -1010.8257027 1429.59846438 -1012.46875 1427.4375 C-1040.85071829 1389.98251605 -1065.86122669 1350.44182598 -1088 1309 C-1088.50853516 1308.05672852 -1089.01707031 1307.11345703 -1089.54101562 1306.14160156 C-1124.15663085 1241.80311375 -1148.95656384 1171.93818643 -1166 1101 C-1166.2604007 1099.91809387 -1166.2604007 1099.91809387 -1166.52606201 1098.81433105 C-1177.0072575 1055.10058267 -1184.01497466 1010.60704938 -1187.75 965.8125 C-1187.80925659 965.10225677 -1187.86851318 964.39201355 -1187.92956543 963.6602478 C-1188.32974619 958.77617154 -1188.67725869 953.88975471 -1189 949 C-1189.04805786 948.30572906 -1189.09611572 947.61145813 -1189.14562988 946.89614868 C-1190.34079124 929.14426453 -1190.24412681 911.3459012 -1190.25 893.5625 C-1190.25058914 892.7445974 -1190.25117828 891.92669479 -1190.25178528 891.08400726 C-1190.26514819 864.74885311 -1189.73962258 838.58210681 -1187.22460938 812.34777832 C-1187.00264545 810.0276521 -1186.78959483 807.7068459 -1186.578125 805.38574219 C-1178.85228157 721.80105336 -1158.96079124 638.69122629 -1095 487 C-1094.54270508 486.05817871 -1094.08541016 485.11635742 -1093.61425781 484.14599609 C-1087.09993462 470.74449969 -1080.04974389 457.72555608 -1072.61425781 444.81396484 C-1071.03860727 442.06729997 -1069.48122721 439.31112505 -1067.9296875 436.55078125 C-1051.82717681 407.96194616 -1033.59412629 380.32027435 -1014 354 C-1013.4956543 353.3184082 -1012.99130859 352.63681641 -1012.47167969 351.93457031 C-995.45001094 328.94076446 -977.56538368 306.52751026 -958.22265625 285.4375 C-956.32578236 283.35727275 -954.46607057 281.25443102 -952.625 279.125 C-942.59906886 267.63436575 -931.94731673 256.78822645 -921.15332031 246.02294922 C-918.73646008 243.61149034 -916.3250471 241.19467561 -913.9140625 238.77734375 C-912.35448749 237.21842898 -910.7946026 235.65982414 -909.234375 234.1015625 C-908.52585388 233.39101715 -907.81733276 232.6804718 -907.08734131 231.94839478 C-903.1085433 227.98800243 -899.03500366 224.1975541 -894.77674866 220.53863525 C-892.00995286 218.14263539 -889.35655763 215.62855753 -886.6875 213.125 C-881.91589105 208.68534707 -877.0183201 204.48340859 -871.93359375 200.40234375 C-868.45096151 197.55038792 -865.07230285 194.59166998 -861.6875 191.625 C-855.18393952 185.94634572 -848.50585649 180.54716761 -841.66455078 175.28222656 C-840.07264252 174.05595754 -838.48732658 172.8211448 -836.90234375 171.5859375 C-813.1430273 153.14318111 -788.57662505 135.83057602 -763 120 C-761.91557617 119.3282373 -760.83115234 118.65647461 -759.71386719 117.96435547 C-684.17854137 71.27095741 -603.01957873 36.43259185 0 0 Z M-297 0 C-298.50308929 0.13024476 -300.00618187 0.26045164 -301.50927734 0.390625 C-390.38453526 8.20636654 -477.58870039 29.11916806 -619 83 C-620.19028809 83.51739746 -621.38057617 84.03479492 -622.60693359 84.56787109 C-649.97240493 96.51910929 -677.00071962 109.29181028 -703 124 C-704.67447625 124.93774645 -706.34895898 125.87548137 -708.02362061 126.81289673 C-723.3318 135.39374674 -738.32849807 144.36075235 -753 154 C-753.89299805 154.58523437 -754.78599609 155.17046875 -755.70605469 155.7734375 C-787.31736281 176.53783925 -817.5027903 199.02802046 -846.29541016 223.54980469 C-848.02119329 225.01803039 -849.75074272 226.48173533 -851.48046875 227.9453125 C-858.33545918 233.7629093 -865.03967923 239.71018796 -871.61083984 245.84643555 C-874.20173078 248.2631298 -876.81305772 250.6562659 -879.4312439 253.043396 C-886.80877771 259.79066474 -893.92953226 266.77529583 -900.98632812 273.85595703 C-902.89078505 275.76582994 -904.80060819 277.67022149 -906.7109375 279.57421875 C-912.15169227 285.01201462 -917.55497051 290.43069332 -922.54052734 296.29541016 C-925.05102743 299.22754659 -927.72674183 302.0053139 -930.375 304.8125 C-935.10196376 309.85910944 -939.57509143 315.03334148 -943.8984375 320.43359375 C-945.98001427 322.97559363 -948.1503838 325.39529335 -950.375 327.8125 C-955.43394507 333.37206984 -960.01001203 339.26626511 -964.60595703 345.20751953 C-965.9436021 346.92748277 -967.29458922 348.63572841 -968.65234375 350.33984375 C-1004.97104695 395.97429767 -1035.98968641 445.71724119 -1062.32617188 497.70361328 C-1063.83396927 500.67302407 -1065.3588015 503.63278168 -1066.890625 506.58984375 C-1103.85523132 578.46954687 -1128.39727742 657.68644479 -1157 882 C-1157.01659668 882.93537598 -1157.03319336 883.87075195 -1157.05029297 884.83447266 C-1157.13982877 890.55923683 -1157.10406034 896.27567096 -1157 902 C-1156.98211426 903.08313477 -1156.96422852 904.16626953 -1156.94580078 905.28222656 C-1155.32925987 992.29224635 -1140.68584763 1078.20047532 -1090 1225 C-1089.71253906 1225.68733215 -1089.42507813 1226.37466431 -1089.12890625 1227.08282471 C-1079.15437294 1250.90985787 -1068.33372585 1274.29643772 -1056 1297 C-1055.45891602 1297.9998291 -1054.91783203 1298.9996582 -1054.36035156 1300.02978516 C-1040.52545294 1325.51411397 -1025.36308735 1350.05552536 -1009 1374 C-1008.46955078 1374.77633789 -1007.93910156 1375.55267578 -1007.39257812 1376.35253906 C-999.0142952 1388.54953221 -990.04724337 1400.29447208 -981 1412 C-980.20432617 1413.03181396 -980.20432617 1413.03181396 -979.39257812 1414.08447266 C-973.64454321 1421.52523896 -967.71671769 1428.78075623 -961.60546875 1435.92578125 C-959.24135813 1438.69699155 -956.96156042 1441.52927189 -954.6875 1444.375 C-950.402493 1449.64826087 -945.80695987 1454.59381939 -941.13549805 1459.52294922 C-938.31027896 1462.5062706 -935.54252674 1465.51324022 -932.87133789 1468.63574219 C-928.65842121 1473.46225673 -924.16299289 1477.98080338 -919.62890625 1482.50390625 C-918.74774643 1483.3860228 -917.86658661 1484.26813934 -916.95872498 1485.17698669 C-914.6342325 1487.50232809 -912.30734093 1489.82523618 -909.97961426 1492.14733887 C-908.56355322 1493.56144824 -907.14945679 1494.97749121 -905.73608398 1496.39428711 C-902.99471744 1499.1418672 -900.24986966 1501.88592106 -897.50390625 1504.62890625 C-896.67033096 1505.46450577 -895.83675568 1506.30010529 -894.97792053 1507.161026 C-890.67318122 1511.44875386 -886.30154562 1515.59234836 -881.68939209 1519.54872131 C-879.30190881 1521.59969789 -876.99925488 1523.73941307 -874.6875 1525.875 C-870.22611655 1529.94417391 -865.64055282 1533.79977816 -860.94140625 1537.58984375 C-858.22339459 1539.81695291 -855.55954955 1542.09213722 -852.90527344 1544.39404297 C-846.43124913 1550.00687644 -839.80430476 1555.35298596 -832.96142578 1560.51123047 C-830.69118405 1562.23439876 -828.43736988 1563.97800969 -826.18359375 1565.72265625 C-815.62213691 1573.87633006 -804.92033468 1581.70063603 -793.82421875 1589.109375 C-791.18946697 1590.87316457 -788.56303537 1592.64884256 -785.9385376 1594.42784119 C-713.47346642 1643.51242163 -635.16348425 1680.67474532 -502 1723 C-501.23488098 1723.20046936 -500.46976196 1723.40093872 -499.68145752 1723.60748291 C-418.07554014 1744.91129073 -333.3417489 1755.2597448 14 1712 C14.68626465 1711.78106079 15.3725293 1711.56212158 16.07958984 1711.33654785 C113.81705188 1682.33236059 113.81705188 1682.33236059 186 1616 C195.2471474 1598.04532653 195.4148094 1580.46016272 189.96484375 1561.375 C182.32465575 1538.5839307 168.75189677 1517.77109653 154 1499 C153.06154685 1497.7858924 152.12403223 1496.57105872 151.1875 1495.35546875 C146.53627376 1489.34541119 141.76398885 1483.44332061 136.875 1477.625 C136.40118896 1477.05885986 135.92737793 1476.49271973 135.43920898 1475.90942383 C134.31619583 1474.5860726 133.16131306 1473.2898717 132 1472 C131.67 1472 131.34 1472 131 1472 C130.84144531 1473.06476563 130.68289063 1474.12953125 130.51953125 1475.2265625 C126.00898853 1503.94756812 110.91561306 1526.19697543 87.6015625 1543.4140625 C18.82103278 1593.14535957 -75.68471021 1617.41798914 -299.81155396 1643.31805801 C-302.23341946 1643.31239258 -304.65527789 1643.30958749 -307.07714844 1643.30697632 C-333.14442603 1643.26620228 -359.0452037 1642.59535452 -385 1640 C-385.86278564 1639.91514343 -386.72557129 1639.83028687 -387.61450195 1639.74285889 C-471.94447188 1631.38707577 -555.33925463 1611.13599501 -673 1561 C-673.99821777 1560.53513184 -674.99643555 1560.07026367 -676.02490234 1559.59130859 C-700.74424926 1548.05297453 -724.72130311 1535.2265564 -748 1521 C-749.46928955 1520.1028125 -749.46928955 1520.1028125 -750.96826172 1519.1875 C-764.58404772 1510.84199031 -777.93475251 1502.18349859 -791 1493 C-791.61456055 1492.56913086 -792.22912109 1492.13826172 -792.86230469 1491.69433594 C-796.29660933 1489.28057591 -799.7095335 1486.83894705 -803.10693359 1484.37353516 C-804.45987101 1483.39189653 -805.81456174 1482.41267258 -807.17041016 1481.43505859 C-818.16516223 1473.49762119 -828.79022671 1465.23739061 -839.17822266 1456.52197266 C-841.66098221 1454.44779374 -844.17386948 1452.41159115 -846.6875 1450.375 C-857.24474891 1441.73434696 -867.46425601 1432.76972043 -877.43066406 1423.45605469 C-879.40897105 1421.6205502 -881.41534504 1419.81652201 -883.41723633 1418.00683594 C-890.26275751 1411.78463425 -896.82691757 1405.28169021 -903.375 1398.75 C-904.08666824 1398.04221405 -904.08666824 1398.04221405 -904.81271362 1397.32012939 C-909.85747903 1392.2970969 -914.7826624 1387.23241274 -919.41748047 1381.82763672 C-921.98228508 1378.86556833 -924.68693517 1376.03724366 -927.375 1373.1875 C-932.04683901 1368.19454716 -936.49800315 1363.09431243 -940.7734375 1357.75390625 C-942.76688471 1355.28832681 -944.80983858 1352.87449322 -946.87817383 1350.47167969 C-953.36252325 1342.92449242 -959.40971061 1335.07549707 -965.39453125 1327.12890625 C-966.92324541 1325.1017792 -968.46043975 1323.08139563 -970 1321.0625 C-986.76784875 1298.99954112 -1002.01750639 1275.92206924 -1016 1252 C-1016.42925781 1251.27151855 -1016.85851562 1250.54303711 -1017.30078125 1249.79248047 C-1026.48027813 1234.17763912 -1034.84991131 1218.1686884 -1043 1202 C-1043.53125488 1200.94828613 -1044.06250977 1199.89657227 -1044.60986328 1198.81298828 C-1082.47183274 1123.34462679 -1105.28327641 1040.38814357 -1083.25390625 599.75 C-1066.71861258 550.29865444 -1045.65152566 501.93837788 -1019.58496094 456.76416016 C-1018.04962893 454.08655248 -1016.54018545 451.39612602 -1015.0390625 448.69921875 C-1008.13560034 436.34516783 -1000.63066443 424.47170691 -992.79003906 412.69238281 C-991.12915099 410.19425492 -989.48039038 407.68865275 -987.8359375 405.1796875 C-976.92988025 388.59365168 -965.15744375 372.68515253 -953 357 C-952.52320801 356.38141113 -952.04641602 355.76282227 -951.55517578 355.12548828 C-946.00213976 347.92422876 -940.28876255 340.90245795 -934.33081055 334.03173828 C-931.39168966 330.64084692 -928.54221715 327.20165922 -925.75 323.6875 C-919.89736415 316.48018533 -913.41556692 309.85088502 -907.01806641 303.13134766 C-904.55676784 300.53188764 -902.12690674 297.90454198 -899.69848633 295.27441406 C-894.11743089 289.23849899 -888.42685789 283.32418314 -882.625 277.5 C-881.98304688 276.85345459 -881.34109375 276.20690918 -880.6796875 275.54077148 C-876.91215076 271.78539751 -873.02546165 268.23124022 -869 264.75488281 C-865.63986445 261.80656075 -862.42543919 258.70603289 -859.1875 255.625 C-853.87186886 250.6048182 -848.48341024 245.78900621 -842.76171875 241.23046875 C-839.50531775 238.60047586 -836.34988262 235.86654147 -833.1875 233.125 C-826.95507606 227.75262859 -820.5783991 222.60685109 -814.05957031 217.58691406 C-812.58539594 216.45105188 -811.11366487 215.31201588 -809.64355469 214.17089844 C-798.07036376 205.19239276 -786.33376888 196.57592541 -774.15332031 188.43896484 C-772.14670454 187.09803589 -770.14663272 185.74796301 -768.1484375 184.39453125 C-744.44434993 168.39009611 -719.83322066 153.90244602 -694.62207031 140.40722656 C-692.11420055 139.06128975 -689.61543472 137.69962719 -687.1171875 136.3359375 C-671.14722399 127.70520542 -654.59635398 120.32876502 -638 113 C-636.87996582 112.505 -635.75993164 112.01 -634.60595703 111.5 C-603.40788299 97.80921357 -571.44274907 86.03790497 -539.00878906 75.64593506 C-537.10308692 75.03314806 -535.1999025 74.4125473 -533.296875 73.79150391 C-477.23502409 55.50132505 -418.93797167 42.96923298 -360.3125 36.625 C-359.63912598 36.55132202 -358.96575195 36.47764404 -358.27197266 36.4017334 C-353.18731199 35.85667843 -348.0969883 35.41247338 -343 35 C-341.45416733 34.87239792 -341.45416733 34.87239792 -339.87710571 34.74221802 C-320.16935221 33.15597862 -300.5816707 32.63244582 -280.82038498 32.68194199 C-278.52040283 32.68760363 -276.22042812 32.6904107 -273.92044067 32.69302368 C-250.50488634 32.73165055 -227.2777465 33.28175147 -204 36 C-203.25085327 36.08485657 -202.50170654 36.16971313 -201.7298584 36.25714111 C-134.88003995 43.82965619 -68.63433048 60.49608989 -8 90 C-7.01789551 90.47324707 -6.03579102 90.94649414 -5.02392578 91.43408203 C19.84448465 103.44710526 43.46083891 117.64406441 65 135 C66.37285156 136.08474609 66.37285156 136.08474609 67.7734375 137.19140625 C82.53013295 149.00944745 96.30779913 162.13362776 108 177 C108.79148437 177.97453125 109.58296875 178.9490625 110.3984375 179.953125 C144.7365228 223.06529519 158.26531892 276.32877294 152.40234375 330.77539062 C148.34325913 363.30718043 137.38340934 395.16216348 122.02880859 424.04833984 C120.89782562 426.19382581 119.80166948 428.35528809 118.70703125 430.51953125 C112.79187492 442.12105462 106.1722542 453.13512227 99 464 C98.49098145 464.77311523 97.98196289 465.54623047 97.45751953 466.34277344 C79.21402768 493.89510919 58.26852095 519.72298855 35.81518555 543.94946289 C34.08173306 545.82227282 32.36404718 547.70568711 30.65551758 549.6015625 C23.19385198 557.8630377 15.39268424 565.76060787 7.51049805 573.61987305 C5.30205337 575.8229211 3.09905449 578.03131469 0.89648438 580.24023438 C-0.53092924 581.66698765 -1.95865277 583.09343095 -3.38671875 584.51953125 C-4.355774 585.49162285 -4.355774 585.49162285 -5.34440613 586.48335266 C-9.183476 590.3030472 -13.13855423 593.93173214 -17.23640442 597.47221375 C-19.20264736 599.1755515 -21.11172192 600.92952222 -23 602.71875 C-23.66 603.34136719 -24.32 603.96398437 -25 604.60546875 C-25.66 605.23066406 -26.32 605.85585938 -27 606.5 C-31.60980156 610.86670656 -36.2726872 615.14185826 -41.06591797 619.30664062 C-51.46726086 628.41339577 -61.2791209 638.17777728 -71.0625 647.9375 C-71.55509308 648.42750488 -72.04768616 648.91750977 -72.5552063 649.42236328 C-77.69575628 654.54156894 -82.73691986 659.70314961 -87.4597168 665.21459961 C-89.85236295 667.98800606 -92.36976163 670.64122901 -94.875 673.3125 C-100.17374466 679.01484872 -105.12898036 684.92714381 -110 691 C-110.9827665 692.19273342 -111.96724931 693.38405401 -112.953125 694.57421875 C-171.82970626 765.86344939 -210.92178839 851.64957166 -202.35058594 945.53857422 C-199.9499154 969.24101631 -193.77151636 992.52254244 -186 1015 C-185.67 1015 -185.34 1015 -185 1015 C-185.1437503 1012.56236201 -185.28997832 1010.1249105 -185.4375 1007.6875 C-185.49647461 1006.68106445 -185.49647461 1006.68106445 -185.55664062 1005.65429688 C-185.79685175 1001.71852997 -186.11422815 997.80177654 -186.50708008 993.87817383 C-187.01074574 988.36858349 -187.17627363 982.90527825 -187.203125 977.375 C-187.21022995 976.39834381 -187.2173349 975.42168762 -187.22465515 974.41543579 C-187.45878483 932.74365855 -187.45878483 932.74365855 -184 913 C-183.88829468 912.36096741 -183.77658936 911.72193481 -183.66149902 911.0635376 C-180.16770441 891.26752987 -175.48839635 872.04771365 -169 853 C-168.69513672 852.08460449 -168.39027344 851.16920898 -168.07617188 850.22607422 C-151.20499223 799.87671683 -123.21378484 753.91766314 -91 712 C-90.5349707 711.39462402 -90.06994141 710.78924805 -89.59082031 710.16552734 C-83.78525697 702.63535823 -77.78518969 695.29965404 -71.60546875 688.07421875 C-69.24135813 685.30300845 -66.96156042 682.47072811 -64.6875 679.625 C-59.81112132 673.62397903 -54.51098468 668.04570266 -49.20703125 662.42578125 C-46.92441222 660.0025732 -44.70885468 657.54567648 -42.5625 655 C-38.49073747 650.24961038 -33.96751731 645.91927477 -29.50415039 641.54101562 C-26.53829282 638.6155334 -23.68904081 635.68581941 -21.03515625 632.47265625 C-18.31553508 629.22938414 -15.28745719 626.55257761 -12.0703125 623.8125 C-8.53758763 620.71969935 -5.28622604 617.35041014 -2 614 C2.54199426 609.36929491 7.14692615 604.91751576 12.0625 600.68359375 C15.11336834 598.03253679 18.05299082 595.26534423 21 592.5 C24.54051526 589.17773568 28.10108196 585.89397853 31.76977539 582.71313477 C44.87848697 571.26348715 57.19868627 558.96218095 69.48510742 546.64526367 C72.08722821 544.03772025 74.69473753 541.43564936 77.30273438 538.83398438 C78.98469617 537.15136265 80.66634821 535.46843122 82.34765625 533.78515625 C83.49778954 532.63805931 83.49778954 532.63805931 84.67115784 531.4677887 C88.76561664 527.35561685 92.70129802 523.16162208 96.48072815 518.75738525 C98.86843203 515.9954598 101.37770344 513.34991055 103.875 510.6875 C108.33701824 505.89138606 112.56785648 500.97158705 116.66796875 495.859375 C118.82667837 493.21251496 121.04275517 490.63385967 123.28857422 488.06152344 C129.70970932 480.69192846 135.62933641 473.03567324 141.40966797 465.15673828 C143.06246193 462.91529188 144.73444203 460.68919711 146.41015625 458.46484375 C186.71713369 404.74837931 221.69913199 339.57848254 221.3125 270.8125 C221.31001251 270.09666748 221.30752502 269.38083496 221.30496216 268.64331055 C221.07691203 225.94284876 206.24669282 186.52907028 180 153 C179.25105469 152.03835937 178.50210937 151.07671875 177.73046875 150.0859375 C171.8470286 142.72898712 165.47726083 135.83221101 159 129 C158.2884375 128.24589844 157.576875 127.49179688 156.84375 126.71484375 C152.47973162 122.21668546 147.78235047 118.25421666 142.89453125 114.3359375 C140.02952899 112.02383041 137.23591335 109.64200478 134.4375 107.25 C66.56558834 50.92152089 -26.00159653 21.26626853 -297 0 Z M-308.1875 65.75 C-309.15810364 65.79290161 -310.12870728 65.83580322 -311.12872314 65.88000488 C-386.35695778 69.30677798 -460.51585587 84.60652761 -532 108 C-533.09746552 108.3571106 -533.09746552 108.3571106 -534.21710205 108.72143555 C-571.69583146 120.92269696 -608.21097996 135.50700671 -644 152 C-645.13115234 152.51933105 -646.26230469 153.03866211 -647.42773438 153.57373047 C-660.73891241 159.71560539 -673.66057512 166.44394225 -686.45996094 173.58740234 C-688.82286562 174.90148986 -691.19414294 176.19837547 -693.5703125 177.48828125 C-720.43394998 192.12187856 -746.39689803 208.81246706 -771 227 C-771.93513428 227.69053467 -771.93513428 227.69053467 -772.88916016 228.39501953 C-793.99411183 244.01175879 -814.60159566 260.35735727 -833.87597656 278.20214844 C-836.60484347 280.72860445 -839.3652282 283.2035242 -842.1875 285.625 C-845.90417053 288.84149748 -849.32697393 292.31087752 -852.77734375 295.80859375 C-854.8120595 297.8147019 -856.89585437 299.70113516 -859.0625 301.5625 C-865.24434068 306.8857517 -870.7763418 312.68478155 -876.0859375 318.8671875 C-878.30451828 321.33932036 -880.63706669 323.66562178 -883 326 C-887.2170523 330.1791178 -891.14603229 334.48876648 -895 339 C-895.94161648 340.07907874 -896.8844351 341.15710907 -897.828125 342.234375 C-910.19337392 356.37181712 -922.10745645 370.82739028 -933.38330078 385.85058594 C-934.96376695 387.95182788 -936.55763145 390.04237305 -938.15234375 392.1328125 C-961.19119836 422.60019639 -981.71098877 455.35349215 -999.49121094 489.13818359 C-1000.97337531 491.94949925 -1002.47334413 494.7506783 -1003.9765625 497.55078125 C-1045.38049089 575.14131965 -1071.16237859 660.17605311 -1091.1875 851.0625 C-1091.18689575 852.04968018 -1091.1862915 853.03686035 -1091.18566895 854.05395508 C-1091.05936755 931.01155337 -1079.09829991 1007.60029758 -1014 1186 C-1013.56236328 1186.91378418 -1013.12472656 1187.82756836 -1012.67382812 1188.76904297 C-1006.05551221 1202.52450533 -998.6324177 1215.7854463 -991 1229 C-990.56187988 1229.7640918 -990.12375977 1230.52818359 -989.67236328 1231.31542969 C-978.45494599 1250.86692972 -966.16381014 1269.70695686 -953 1288 C-952.41718262 1288.81098145 -951.83436523 1289.62196289 -951.23388672 1290.45751953 C-943.62261194 1301.00994383 -935.71793794 1311.26057597 -927.41943359 1321.28076172 C-925.42779971 1323.69305718 -923.46681581 1326.12995367 -921.5 1328.5625 C-912.06566989 1340.06651862 -902.16989937 1351.14521916 -892 1362 C-891.04939697 1363.01827881 -891.04939697 1363.01827881 -890.07958984 1364.05712891 C-875.53028767 1379.77664486 -875.53028767 1379.77664486 -859.86328125 1394.35546875 C-857.99548207 1396.00398752 -856.24544376 1397.72303581 -854.5 1399.5 C-850.8369356 1403.2121233 -846.95145365 1406.59962071 -843 1410 C-841.91735087 1410.94590785 -840.83537557 1411.89258723 -839.75390625 1412.83984375 C-824.01386157 1426.60251732 -807.83229326 1439.59554404 -791 1452 C-789.86724049 1452.84213752 -788.73459816 1453.68443269 -787.60205078 1454.52685547 C-778.61075479 1461.19395999 -769.44773148 1467.55610034 -760.125 1473.75 C-759.41311523 1474.2238916 -758.70123047 1474.6977832 -757.96777344 1475.18603516 C-744.88701852 1483.88034199 -731.61481535 1492.16143745 -718 1500 C-716.50243164 1500.86431641 -716.50243164 1500.86431641 -714.97460938 1501.74609375 C-643.45763966 1542.83517808 -566.85028261 1571.92454495 -93.83528137 1583.87832642 C9.85133494 1557.90721435 9.85133494 1557.90721435 88.53515625 1492.80859375 C96.91590275 1476.73990912 98.77448073 1460.21214125 93.3984375 1442.73046875 C85.70711439 1422.21311242 73.95478735 1407.80246798 58.55859375 1392.57739258 C55.16763285 1389.21228978 51.97796085 1385.75345888 48.88671875 1382.109375 C44.48850501 1377.1921174 39.69409839 1372.63233394 35 1368 C33.99894903 1367.00105208 32.99828914 1366.00170794 32 1365 C31.5978125 1366.07314453 31.5978125 1366.07314453 31.1875 1367.16796875 C15.75599606 1406.40662843 -21.21743741 1426.8401204 -58 1443 C-124.05736417 1471.18793702 -194.35703653 1488.83373704 -265.6842041 1496.74285889 C-267.19191336 1496.91027176 -268.69933912 1497.0802644 -270.2064209 1497.25323486 C-319.8005878 1502.93079011 -372.42064497 1502.65644294 -422 1497 C-423.61635961 1496.82116169 -425.23273373 1496.64245447 -426.84912109 1496.46386719 C-498.34103912 1488.45564853 -568.66714075 1470.99689763 -635 1443 C-636.6082666 1442.32203369 -636.6082666 1442.32203369 -638.24902344 1441.63037109 C-691.40743032 1419.0565918 -741.75947634 1390.64643775 -788 1356 C-788.57379395 1355.57106445 -789.14758789 1355.14212891 -789.73876953 1354.70019531 C-807.28237337 1341.52839809 -824.24855153 1327.47893591 -840.31469727 1312.54174805 C-841.56191433 1311.40076938 -842.82230517 1310.27415404 -844.08959961 1309.15551758 C-851.0961987 1302.95442298 -857.73077493 1296.42234053 -864.33276367 1289.79760742 C-866.19142108 1287.93356756 -868.05539614 1286.07496488 -869.91992188 1284.21679688 C-875.82831592 1278.31170334 -881.59123973 1272.37176706 -887 1266 C-888.61967817 1264.22429779 -890.24411718 1262.45291693 -891.875 1260.6875 C-895.91279322 1256.25503526 -899.77307434 1251.72257823 -903.53515625 1247.0546875 C-905.34085175 1244.8168842 -907.15979312 1242.59518101 -908.99609375 1240.3828125 C-916.53702404 1231.26301428 -923.59360182 1221.87716616 -930.42675781 1212.21728516 C-931.93732589 1210.0883312 -933.46240515 1207.97064243 -934.9921875 1205.85546875 C-988.53546928 1131.47846677 -1024.37753288 1044.71906963 -1050 920 C-1050.20705566 918.71673828 -1050.41411133 917.43347656 -1050.62744141 916.11132812 C-1052.87659354 901.79406318 -1054.43475531 887.43339726 -1055.6875 873 C-1055.74852905 872.30049225 -1055.80955811 871.6009845 -1055.87243652 870.88027954 C-1057.51768508 851.71109571 -1058.21000449 832.54966965 -1058.1875 813.3125 C-1058.18659363 811.85674561 -1058.18659363 811.85674561 -1058.18566895 810.37158203 C-1058.09282332 754.85442684 -1051.05442008 699.94046067 -1038 646 C-1037.69368652 644.7320459 -1037.38737305 643.4640918 -1037.07177734 642.15771484 C-1029.1857644 610.07259142 -1018.76049427 578.47267807 -1006 548 C-1005.58685547 547.00838867 -1005.17371094 546.01677734 -1004.74804688 544.99511719 C-998.77701958 530.74887061 -992.21721744 516.79773828 -985.42871094 502.92480469 C-984.11143933 500.22813451 -982.8083274 497.52509006 -981.5078125 494.8203125 C-975.52424766 482.49006089 -968.75417636 470.6828689 -961.73730469 458.91455078 C-960.07982423 456.13391535 -958.43330199 453.34707305 -956.7890625 450.55859375 C-950.82869857 440.48815698 -944.6374259 430.63694157 -938 421 C-937.23913086 419.8877002 -937.23913086 419.8877002 -936.46289062 418.75292969 C-917.39751514 390.92932615 -896.48382049 364.3872653 -873.52563477 339.66918945 C-872.3917273 338.42858691 -871.2719853 337.17500682 -870.15991211 335.91479492 C-863.95736475 328.90674055 -857.42379219 322.27067175 -850.79760742 315.66723633 C-848.93356756 313.80857892 -847.07496488 311.94460386 -845.21679688 310.08007812 C-839.31170334 304.17168408 -833.37176706 298.40876027 -827 293 C-825.22429779 291.38032183 -823.45291693 289.75588282 -821.6875 288.125 C-817.27646827 284.10619407 -812.76264642 280.27134676 -808.1171875 276.52734375 C-805.78762058 274.64952084 -803.48742603 272.73975883 -801.1953125 270.81640625 C-790.77445112 262.09489368 -780.02965381 253.93431054 -769 246 C-768.29939453 245.49259277 -767.59878906 244.98518555 -766.87695312 244.46240234 C-749.82928874 232.13169181 -732.19525455 220.56672561 -714 210 C-713.26233398 209.566875 -712.52466797 209.13375 -711.76464844 208.6875 C-696.79415743 199.90643807 -681.49496615 191.81435967 -666 184 C-664.99018066 183.48969238 -663.98036133 182.97938477 -662.93994141 182.45361328 C-585.41131856 143.55463676 -499.6416089 118.15988864 -141.78515625 128.34375 C-95.37691765 143.78742341 -50.85568621 165.43333817 -14 198 C-12.67935547 199.15435547 -12.67935547 199.15435547 -11.33203125 200.33203125 C23.23944451 230.93716716 49.80041594 274.05054774 53 321 C53.79046743 339.09370546 53.74438206 357.21418523 50 375 C49.80664062 375.93005859 49.61328125 376.86011719 49.4140625 377.81835938 C44.08428446 402.64130712 34.49398125 425.44458555 23 448 C22.5973291 448.79535156 22.1946582 449.59070313 21.77978516 450.41015625 C10.15606625 473.08765688 -5.20644852 494.08436422 -21 514 C-21.45165527 514.57089355 -21.90331055 515.14178711 -22.36865234 515.72998047 C-24.86111659 518.86448897 -27.41330761 521.9429999 -30 525 C-30.66346436 525.78866455 -30.66346436 525.78866455 -31.34033203 526.59326172 C-38.16625759 534.69717401 -45.19174857 542.5829614 -52.43164062 550.31835938 C-54.04058855 552.04352022 -55.63835657 553.778501 -57.234375 555.515625 C-63.80928785 562.6502474 -70.52600975 569.62772346 -77.375 576.5 C-78.48029053 577.61217896 -78.48029053 577.61217896 -79.60791016 578.74682617 C-83.67851116 582.80595423 -87.83759187 586.69452712 -92.21142578 590.42578125 C-94.05452188 592.04798759 -95.78140033 593.74713654 -97.5 595.5 C-100.45289653 598.49934659 -103.54712822 601.26443969 -106.73046875 604.015625 C-122.74006158 618.01368552 -139.18787133 632.5160606 -153 648.71875 C-155.16899447 651.19275931 -157.40842563 653.58900113 -159.66088867 655.98681641 C-165.72835493 662.44921673 -171.4794836 669.05938483 -177 676 C-177.91941877 677.12854542 -178.84006036 678.25609538 -179.76171875 679.3828125 C-200.01016167 704.23820369 -217.17992909 731.07044214 -231 760 C-231.3285498 760.68223633 -231.65709961 761.36447266 -231.99560547 762.06738281 C-260.34107074 821.46973902 -262.94344937 887.85655216 -242 950 C-241.03051857 952.67977192 -240.02288744 955.3398874 -239 958 C-238.67 958 -238.34 958 -238 958 C-238.10153748 956.37540025 -238.20312635 954.7508037 -238.30493164 953.1262207 C-238.39480917 951.68470429 -238.48381135 950.24313308 -238.57202148 948.80151367 C-238.79127692 945.23678256 -239.02416919 941.67502232 -239.2890625 938.11328125 C-243.32714813 881.98389098 -230.85901148 827.70258108 -207 777 C-206.58782227 776.12053711 -206.17564453 775.24107422 -205.75097656 774.33496094 C-191.85513949 744.96446888 -173.65637028 717.79860741 -154 692 C-153.51192871 691.35885254 -153.02385742 690.71770508 -152.52099609 690.05712891 C-146.12921186 681.70305148 -139.39423719 673.67738886 -132.49853516 665.73681641 C-131.03175401 664.03680319 -129.58167584 662.32405065 -128.13671875 660.60546875 C-115.06311943 645.08489137 -100.82429323 630.7303261 -86.5 616.375 C-85.79605103 615.66837219 -85.09210205 614.96174438 -84.36682129 614.23370361 C-82.32045154 612.18143535 -80.27027357 610.13305258 -78.21875 608.0859375 C-77.61081604 607.47602966 -77.00288208 606.86612183 -76.37652588 606.23773193 C-72.66426304 602.54502002 -68.83451274 599.03941884 -64.86547852 595.62393188 C-61.66318179 592.83627622 -58.58822889 589.91268746 -55.5 587 C-51.06338346 582.81557008 -46.56666271 578.72731171 -41.96533203 574.72460938 C-30.47939218 564.6455188 -19.68670089 553.78963434 -8.875 543 C-7.99526016 542.12414246 -7.99526016 542.12414246 -7.0977478 541.23059082 C-1.39372779 535.54643918 4.26777593 529.87957921 9.49658203 523.74853516 C12.02674502 520.80585453 14.71277327 518.01018525 17.375 515.1875 C21.9700492 510.27194203 26.37262156 505.26859805 30.578125 500.01171875 C32.42019063 497.72102101 34.28257939 495.45823738 36.171875 493.20703125 C54.02488567 471.88981543 70.16715267 449.13605676 84 425 C84.42345703 424.27055176 84.84691406 423.54110352 85.28320312 422.78955078 C113.64803823 373.72246732 129.7699376 317.06790955 115.41015625 261.078125 C107.04854206 230.09541002 88.95619481 203.92271843 67 181 C66.29101562 180.24976563 65.58203125 179.49953125 64.8515625 178.7265625 C60.1549285 173.87656902 55.04715978 169.62470679 49.765625 165.42700195 C48.36350061 164.2937861 46.97596877 163.1425193 45.59375 161.98510742 C39.17995285 156.64008585 32.59182456 151.78486466 25.625 147.1875 C24.58263184 146.49809326 23.54026367 145.80868652 22.46630859 145.09838867 C-50.63754102 97.22629891 -138.62384273 74.38142582 -225 67 C-225.72977051 66.93474121 -226.45954102 66.86948242 -227.21142578 66.80224609 C-236.22325334 66.01140749 -245.27486163 65.77064764 -254.3125 65.4375 C-256.07400391 65.37151611 -256.07400391 65.37151611 -257.87109375 65.30419922 C-274.66951102 64.73425292 -291.39937879 65.00772353 -308.1875 65.75 Z M-540 169 C-540.74985168 169.24020874 -541.49970337 169.48041748 -542.27227783 169.72790527 C-628.54732522 197.46769507 -712.16121481 238.88220945 -782.92578125 299.39453125 C-785.69699155 301.75864187 -788.52927189 304.03843958 -791.375 306.3125 C-797.21691833 311.0627898 -802.66366983 316.20257085 -808.12890625 321.375 C-810.96239317 324.05233097 -813.8519354 326.65637162 -816.765625 329.24609375 C-821.93258915 333.8811862 -826.87269991 338.72031407 -831.76928711 343.63891602 C-833.19337492 345.06839717 -834.62278044 346.49240511 -836.05273438 347.91601562 C-840.69382131 352.56357097 -845.21177882 357.25430169 -849.48657227 362.24145508 C-851.71473203 364.83049118 -854.04681715 367.31302441 -856.375 369.8125 C-860.59274087 374.38297905 -864.6095264 379.0693887 -868.5078125 383.91796875 C-870.37869084 386.23164118 -872.26731879 388.52186579 -874.1796875 390.80078125 C-882.90369806 401.22143591 -891.09955709 411.94313509 -899 423 C-899.97138916 424.35834961 -899.97138916 424.35834961 -900.96240234 425.74414062 C-910.52658043 439.17518094 -919.53839663 452.8497094 -928 467 C-928.55896973 467.9286084 -929.11793945 468.8572168 -929.69384766 469.81396484 C-939.1330595 485.5388881 -947.77446576 501.61010541 -956 518 C-956.55042969 519.09151367 -957.10085938 520.18302734 -957.66796875 521.30761719 C-977.62667372 561.09465554 -992.58780502 603.01988591 -1004 646 C-1004.32838867 647.23492188 -1004.65677734 648.46984375 -1004.99511719 649.7421875 C-1013.07394982 680.60552302 -1018.71764879 712.27280073 -1022 744 C-1022.07412109 744.6996991 -1022.14824219 745.39939819 -1022.22460938 746.12030029 C-1026.91907671 790.74407112 -1027.01727214 836.40081617 -1022 881 C-1021.91514343 881.75960022 -1021.83028687 882.51920044 -1021.74285889 883.30181885 C-1013.05853173 960.12998641 -991.45884512 1034.5014948 -943 1131 C-942.5344873 1131.82773926 -942.06897461 1132.65547852 -941.58935547 1133.50830078 C-922.35086374 1167.56350657 -899.87766738 1199.67940989 -874.40039062 1229.36132812 C-872.99203398 1231.00932146 -871.59643142 1232.66739677 -870.203125 1234.328125 C-858.94147977 1247.69904542 -846.83318729 1260.24388581 -834.5 1272.625 C-833.2634668 1273.86854248 -833.2634668 1273.86854248 -832.00195312 1275.13720703 C-827.7299492 1279.39795061 -823.38359094 1283.50184356 -818.80908203 1287.43603516 C-816.20710883 1289.6854603 -813.70432584 1292.03065593 -811.1875 1294.375 C-805.64342013 1299.4905942 -799.8797901 1304.27340744 -794 1309 C-792.77109981 1310.00785316 -791.54330207 1311.01705155 -790.31640625 1312.02734375 C-756.33342034 1339.95816175 -719.43506163 1363.95222587 -680.61474609 1384.60449219 C-678.08566732 1385.95427877 -675.56769022 1387.32299904 -673.05078125 1388.6953125 C-602.66012353 1426.73568963 -523.13401446 1449.91028244 -148.75604248 1440.29957581 C-145.16455951 1439.21932787 -141.58085539 1438.11492495 -138 1437 C-136.8942865 1436.65582031 -136.8942865 1436.65582031 -135.76623535 1436.3046875 C-62.32397496 1415.32155781 -62.32397496 1415.32155781 -7.69921875 1366.94921875 C-3.42530068 1358.70965606 -0.81525712 1352.13071151 -0.75 1342.75 C-0.729375 1342.02425781 -0.70875 1341.29851562 -0.6875 1340.55078125 C-0.62906888 1332.35581684 -2.85917688 1326.64610844 -8.52954102 1320.7265625 C-9.38116821 1319.87191406 -9.38116821 1319.87191406 -10.25 1319 C-11.43168464 1317.77150153 -12.61268129 1316.54234089 -13.79296875 1315.3125 C-14.35419434 1314.735 -14.91541992 1314.1575 -15.49365234 1313.5625 C-18.45833244 1310.48730508 -21.22446326 1307.24497213 -24 1304 C-24.87622321 1302.97779697 -25.75253345 1301.95566854 -26.62890625 1300.93359375 C-28.14327815 1299.16699451 -29.6571143 1297.39994871 -31.16943359 1295.6315918 C-34.43591569 1291.81428917 -37.72202968 1288.01493275 -41.02172852 1284.22631836 C-50.40678438 1273.44375161 -59.34074304 1262.37092406 -68 1251 C-69.72110182 1253.23205392 -71.32410735 1255.49223804 -72.875 1257.84765625 C-85.75732427 1277.33690785 -103.51204589 1289.4565937 -124 1300 C-124.7101123 1300.36802734 -125.42022461 1300.73605469 -126.15185547 1301.11523438 C-183.69345278 1330.56680313 -250.02331581 1346.1873442 -313.84960938 1353.74285889 C-315.89176396 1353.98705727 -317.93221272 1354.24243893 -319.97265625 1354.50048828 C-364.86148549 1359.97570244 -413.15061394 1359.59487966 -458 1354 C-459.43472598 1353.82660144 -460.86945921 1353.65326291 -462.30419922 1353.47998047 C-545.69311947 1343.24800155 -627.86031683 1317.76328151 -700.61132812 1275.38378906 C-702.65232864 1274.20141059 -704.70234822 1273.04129763 -706.765625 1271.8984375 C-735.5910865 1255.84634401 -762.82821039 1236.2992066 -788 1215 C-788.52577637 1214.55769043 -789.05155273 1214.11538086 -789.59326172 1213.65966797 C-801.23348634 1203.85510644 -812.52600572 1193.74543431 -823.07421875 1182.765625 C-824.8102517 1180.77473589 -824.8102517 1180.77473589 -827 1181 C-827.25885986 1180.41444336 -827.51771973 1179.82888672 -827.78442383 1179.22558594 C-829.09221724 1176.8311604 -830.49736101 1175.28906671 -832.44921875 1173.390625 C-833.47499023 1172.38128906 -833.47499023 1172.38128906 -834.52148438 1171.3515625 C-835.23626953 1170.65804688 -835.95105469 1169.96453125 -836.6875 1169.25 C-842.04756041 1164.02406529 -847.13542043 1158.69041825 -852 1153 C-852.94932323 1151.91691788 -853.89978194 1150.83482958 -854.8515625 1149.75390625 C-862.03735764 1141.51574975 -868.77044859 1132.99214827 -875.3203125 1124.24169922 C-877.00771944 1121.98969769 -878.70690442 1119.74690663 -880.40625 1117.50390625 C-900.3206487 1091.04145958 -917.16575685 1062.58206336 -932 1033 C-932.69754395 1031.61095459 -932.69754395 1031.61095459 -933.40917969 1030.19384766 C-963.69770655 969.43663124 -982.0454575 902.77731501 -989.3125 835.375 C-989.39390228 834.62193573 -989.47530457 833.86887146 -989.55917358 833.09298706 C-991.64786106 813.46622509 -992.2402654 793.98384587 -992.25 774.25 C-992.25067474 773.01423218 -992.25134949 771.77846436 -992.25204468 770.50524902 C-992.23393731 749.52439555 -991.44527881 728.83702877 -989 708 C-988.91514343 707.26469055 -988.83028687 706.5293811 -988.74285889 705.77178955 C-979.40922779 625.40547677 -954.03634648 545.76475447 -859.453125 398.75732422 C-857.36384079 396.23066633 -855.31028732 393.67532093 -853.25 391.125 C-849.66595119 386.74668396 -845.93599748 382.52526113 -842.125 378.34375 C-840.17505276 376.19307289 -838.26973871 374.01175029 -836.375 371.8125 C-833.62833917 368.65447292 -830.73083907 365.70890875 -827.74609375 362.77734375 C-825.93522357 360.93406426 -824.24678646 359.02177201 -822.5625 357.0625 C-817.12473726 350.77508683 -811.22403616 345.1176076 -804.921875 339.70703125 C-803.0900398 338.07997438 -801.38871889 336.38697671 -799.6875 334.625 C-795.98504124 330.8552238 -791.91523457 327.61183942 -787.80078125 324.3046875 C-785.23810398 322.19592936 -782.80426132 320.00958549 -780.375 317.75 C-773.97796567 311.92991338 -767.05679228 306.80735876 -760.14648438 301.62011719 C-758.18448746 300.13924691 -756.23813525 298.64069951 -754.296875 297.1328125 C-735.57894655 282.68903693 -715.49308784 269.76552601 -695 258 C-694.26587891 257.57847656 -693.53175781 257.15695312 -692.77539062 256.72265625 C-687.55509624 253.74360825 -682.28891562 250.8551162 -677 248 C-676.14631836 247.53625977 -675.29263672 247.07251953 -674.41308594 246.59472656 C-600.18880439 206.43796853 -515.61254131 181.08830586 -412 169 C-410.87279541 168.9057373 -409.74559082 168.81147461 -408.58422852 168.71435547 C-395.6330196 167.76631307 -382.66811377 167.75649201 -369.6875 167.75 C-367.86277664 167.74898788 -367.86277664 167.74898788 -366.00119019 167.74795532 C-277.34618512 167.82577199 -179.95557857 188.65817281 -99 256 C-98.43974121 256.51498047 -97.87948242 257.02996094 -97.30224609 257.56054688 C-68.14538935 284.67445763 -48.86340315 322.47883688 -46.87597656 362.49731445 C-44.79365071 428.79111444 -79.75315282 486.61053591 -121.57763672 535.33496094 C-123.05254952 537.06151523 -124.51353959 538.79914547 -125.97265625 540.5390625 C-131.56502396 547.1794345 -137.33015714 553.46759995 -143.53515625 559.5390625 C-146.30320616 562.30272564 -148.85016809 565.20055233 -151.39453125 568.16796875 C-155.84773792 573.24960848 -160.78632712 577.71564073 -165.8984375 582.1171875 C-168.18665111 584.16722274 -170.34260582 586.31295092 -172.5 588.5 C-175.78316376 591.82231563 -179.15331645 594.94896759 -182.6940918 597.9921875 C-192.38968896 606.43438878 -201.56894264 615.3825421 -210.65551758 624.47021484 C-212.69007642 626.50257364 -214.73254187 628.52675947 -216.77539062 630.55078125 C-223.21996609 636.96786554 -229.39356945 643.39060303 -235.03198242 650.53564453 C-236.97581982 652.96972153 -239.00888148 655.27930906 -241.1015625 657.5859375 C-245.13007767 662.07291803 -248.78090843 666.78616026 -252.375 671.625 C-253.02637939 672.500354 -253.67775879 673.37570801 -254.34887695 674.27758789 C-277.94589088 706.19232321 -296.95033739 741.87489569 -305 781 C-305.16371094 781.77472656 -305.32742188 782.54945313 -305.49609375 783.34765625 C-313.56751558 823.30452961 -305.93159042 863.36821877 -292 901 C-291.67 901 -291.34 901 -291 901 C-291.06928711 900.04150146 -291.13857422 899.08300293 -291.20996094 898.09545898 C-291.90348071 888.0803625 -292.24179077 878.10113149 -292.25 868.0625 C-292.25101212 866.92838684 -292.25101212 866.92838684 -292.25204468 865.7713623 C-292.12522991 775.39865224 -242.03087134 695.70608575 -182.36669922 631.47998047 C-181.01678341 630.01817453 -179.68209881 628.54235082 -178.34765625 627.06640625 C-172.00458494 620.06306862 -165.42113739 613.31628451 -158.75 606.625 C-157.91025635 605.78066406 -157.0705127 604.93632813 -156.20532227 604.06640625 C-151.90730682 599.77900738 -147.54171417 595.64627542 -142.93847656 591.68896484 C-139.535101 588.72365601 -136.27662813 585.6038372 -133 582.5 C-128.33241477 578.07855696 -123.60504336 573.75989605 -118.75 569.54492188 C-116.74561823 567.77542859 -114.8569051 565.92322314 -113 564 C-110.54619734 561.45856153 -107.99135871 559.11177652 -105.31640625 556.80859375 C-100.65436095 552.75750415 -96.29216604 548.43932719 -91.9375 544.0625 C-91.17373047 543.30259766 -90.40996094 542.54269531 -89.62304688 541.75976562 C-85.46608239 537.59568914 -81.48032452 533.34577962 -77.6418457 528.88696289 C-75.05158142 525.90998852 -72.3322724 523.05763143 -69.625 520.1875 C-64.93072455 515.17015308 -60.45061105 510.04763881 -56.15625 504.6796875 C-53.92538577 501.90727289 -51.62210104 499.20703238 -49.3125 496.5 C-38.64878429 483.71349174 -28.90638693 470.06415632 -20 456 C-19.53916016 455.27296875 -19.07832031 454.5459375 -18.60351562 453.796875 C7.7135759 411.91440091 28.87540847 360.24494014 18.3125 309.875 C17.62535328 306.88948715 16.84473835 303.94443721 16 301 C15.81808105 300.33452148 15.63616211 299.66904297 15.44873047 298.98339844 C12.58149081 288.69823313 8.09565814 279.32939846 3 270 C2.64921387 269.35498535 2.29842773 268.7099707 1.93701172 268.04541016 C-3.37958129 258.40832425 -9.64864345 250.16367605 -17 242 C-17.80953125 241.08089844 -18.6190625 240.16179687 -19.453125 239.21484375 C-27.07461596 230.62122384 -34.99313004 223.14216642 -44 216 C-44.99 215.20464844 -45.98 214.40929687 -47 213.58984375 C-115.14549333 159.84008588 -208.90242589 137.0518974 -540 169 Z M-431 204 C-432.32854358 204.17387326 -433.657159 204.34719833 -434.98583984 204.52001953 C-503.62053037 213.55250038 -569.89338037 234.0735141 -632.71533203 262.95166016 C-634.88853896 263.94885513 -637.06688033 264.93398848 -639.24609375 265.91796875 C-681.31311549 285.09711486 -720.60849933 311.36539356 -756 341 C-756.91023926 341.76159424 -756.91023926 341.76159424 -757.83886719 342.53857422 C-759.6269399 344.040536 -761.40884456 345.5494016 -763.1875 347.0625 C-763.68483643 347.48418457 -764.18217285 347.90586914 -764.69458008 348.34033203 C-775.83602948 357.914434 -786.34909734 368.16253253 -796.73095703 378.5456543 C-798.75664755 380.56914032 -800.79025336 382.58444534 -802.82421875 384.59960938 C-809.29503114 391.04323431 -815.51591038 397.48729635 -821.15234375 404.68481445 C-823.08422338 407.10553519 -825.13386901 409.36461631 -827.25 411.625 C-833.05913673 418.00999898 -838.17524665 424.91712402 -843.35351562 431.81396484 C-844.91778214 433.89083946 -846.49545524 435.95666278 -848.078125 438.01953125 C-864.63667791 459.69024736 -879.12883193 482.9699281 -892 507 C-892.46760742 507.86818359 -892.93521484 508.73636719 -893.41699219 509.63085938 C-925.52588748 569.4461119 -946.05860127 634.23524472 -955.25 701.4375 C-955.40114258 702.53529785 -955.55228516 703.6330957 -955.70800781 704.76416016 C-956.19006892 708.50475847 -956.61438274 712.24847216 -957 716 C-957.08720306 716.84774994 -957.17440613 717.69549988 -957.26425171 718.56893921 C-958.97511084 735.82560558 -959.36505074 753.02362495 -959.31805801 770.35404587 C-959.3124085 772.47179999 -959.30959375 774.58954607 -959.30697632 776.70730591 C-959.26944456 797.60634922 -958.79581707 818.2584983 -956 839 C-955.82105126 840.37220208 -955.64234754 841.74443614 -955.46386719 843.11669922 C-947.17844196 905.9725548 -928.4353918 966.36816926 -900 1023 C-899.5373877 1023.92248535 -899.07477539 1024.8449707 -898.59814453 1025.79541016 C-889.27407681 1044.26149956 -878.76585699 1061.98590545 -867 1079 C-866.525625 1079.68690918 -866.05125 1080.37381836 -865.5625 1081.08154297 C-854.54165097 1096.98500122 -842.72847604 1112.13740834 -830.1875 1126.875 C-829.53225342 1127.64928345 -829.53225342 1127.64928345 -828.86376953 1128.43920898 C-819.85175882 1138.96382509 -810.23779917 1148.92991274 -800.42578125 1158.70458984 C-798.73318653 1160.39175958 -797.04609403 1162.08430196 -795.359375 1163.77734375 C-789.74186685 1169.3986498 -784.07680036 1174.87078581 -778 1180 C-776.88164054 1180.97261239 -775.76442347 1181.94654015 -774.6484375 1182.921875 C-767.19497993 1189.37808651 -759.60772541 1195.61737685 -751.78759766 1201.62451172 C-750.60963743 1202.53090723 -749.43474345 1203.44130375 -748.26318359 1204.35595703 C-724.1687418 1223.15727919 -697.93757289 1239.27366849 -671.11328125 1253.84716797 C-669.13080393 1254.92864416 -667.15868631 1256.02702949 -665.1875 1257.12890625 C-597.53215539 1294.47417248 -518.84977957 1315.29414737 -226.12109375 1303.1015625 C-156.14344307 1284.84644145 -156.14344307 1284.84644145 -102.828125 1240.04296875 C-98.6223512 1232.07333217 -96.85823581 1224.01134321 -98 1215 C-99.83356025 1211.25340629 -102.29165603 1208.41145106 -105.125 1205.375 C-109.123923 1201.00843408 -112.89859425 1196.5131078 -116.62109375 1191.91015625 C-118.72929309 1189.33116035 -120.87274687 1186.7909932 -123.03857422 1184.26074219 C-130.29149651 1175.7800128 -137.05153887 1166.96296178 -143.71484375 1158.015625 C-144.3706543 1157.13656494 -145.02646484 1156.25750488 -145.70214844 1155.35180664 C-146.99133793 1153.62173717 -148.27733585 1151.88928318 -149.55957031 1150.15405273 C-154.90453422 1142.97291803 -160.57075727 1136.23441719 -167 1130 C-167.64324219 1130.88300781 -168.28648437 1131.76601562 -168.94921875 1132.67578125 C-207.74800812 1184.71600569 -293.78983905 1200.83816938 -353.875 1209.7109375 C-356.91551803 1210.14903815 -359.95754435 1210.57560322 -363 1211 C-364.26328125 1211.18079102 -365.5265625 1211.36158203 -366.828125 1211.54785156 C-407.43592777 1217.07429225 -452.45053628 1216.64282361 -493 1211 C-494.90193115 1210.75056641 -494.90193115 1210.75056641 -496.84228516 1210.49609375 C-554.69827885 1202.78862204 -611.99602171 1186.07955021 -663.85742188 1159.10595703 C-666.28617413 1157.8522825 -668.72880614 1156.62787593 -671.171875 1155.40234375 C-703.13559316 1139.22300608 -732.60720082 1119.04103534 -760 1096 C-760.56348145 1095.52675293 -761.12696289 1095.05350586 -761.70751953 1094.56591797 C-773.94977513 1084.2599208 -773.94977513 1084.2599208 -779.4375 1078.56640625 C-781.17704977 1076.8225076 -783.00521083 1075.22819814 -784.875 1073.625 C-791.45245482 1067.93810966 -797.47208024 1061.74979671 -803.12890625 1055.15234375 C-805.33079829 1052.61947838 -807.60195826 1050.15667478 -809.875 1047.6875 C-814.79380243 1042.28051567 -819.45911325 1036.72704788 -824 1031 C-824.44085937 1030.4529541 -824.88171875 1029.9059082 -825.3359375 1029.34228516 C-841.88068005 1008.74705142 -856.4749971 986.23905453 -869 963 C-869.72509766 961.67887207 -869.72509766 961.67887207 -870.46484375 960.33105469 C-898.27306933 909.57201435 -915.08101811 853.18025421 -923 796 C-923.16516113 794.88463867 -923.33032227 793.76927734 -923.50048828 792.62011719 C-929.10916877 753.60875737 -928.71416759 709.97681236 -923 671 C-922.82307617 669.76169434 -922.64615234 668.52338867 -922.46386719 667.24755859 C-915.44156002 619.29817796 -901.84487913 573.17830911 -882 529 C-881.63165039 528.17081055 -881.26330078 527.34162109 -880.88378906 526.48730469 C-869.05733328 499.96142972 -853.93942963 474.56518439 -837 451 C-836.20408447 449.8874585 -836.20408447 449.8874585 -835.39208984 448.75244141 C-824.61683637 433.74416364 -813.24075293 419.29322777 -800.59765625 405.80859375 C-798.63562969 403.68724473 -796.74596998 401.54417217 -794.8671875 399.3515625 C-790.62778127 394.48660424 -786.08264519 389.93216959 -781.51196289 385.3815918 C-780.06475615 383.93974779 -778.62297974 382.49262884 -777.18164062 381.04492188 C-771.95771246 375.81690845 -766.62973162 370.78830439 -761 366 C-759.91671538 365.05090784 -758.83463404 364.10044008 -757.75390625 363.1484375 C-748.81038755 355.34720704 -739.51792969 348.08507668 -730 341 C-728.93289795 340.20142578 -728.93289795 340.20142578 -727.84423828 339.38671875 C-657.10691422 286.63454785 -569.12960583 252.68606303 -424 235 C-423.15066895 234.97953613 -422.30133789 234.95907227 -421.42626953 234.93798828 C-346.7482638 233.28696714 -263.61034895 249.5690317 -204 297 C-203.11441406 297.68191406 -202.22882812 298.36382812 -201.31640625 299.06640625 C-172.66982869 321.64273661 -152.27111707 353.2702383 -147.89404297 389.90209961 C-142.84553483 439.82369053 -165.63450468 486.72060578 -196 525 C-196.53657227 525.67933594 -197.07314453 526.35867188 -197.62597656 527.05859375 C-203.70443047 534.72536944 -209.91763706 542.21187868 -216.5859375 549.375 C-217.87386112 550.77546064 -219.15565732 552.18261641 -220.38989258 553.63061523 C-225.68294446 559.83847547 -231.42177326 565.57333195 -237.19702148 571.32739258 C-238.933936 573.058947 -240.66543889 574.79578359 -242.39648438 576.53320312 C-248.09627992 582.2365227 -253.84437189 587.78457651 -260 593 C-267.98992604 600.09230606 -275.64480019 607.52007308 -283.22335815 615.04711914 C-284.2249131 616.0412863 -285.22805622 617.03385657 -286.23294067 618.0246582 C-292.9611563 624.6673176 -299.10961547 631.60272032 -305 639 C-305.8749418 640.03941902 -306.7550506 641.07455752 -307.64453125 642.1015625 C-318.50291616 654.74033124 -327.80302931 668.50905904 -336 683 C-336.3722168 683.6487207 -336.74443359 684.29744141 -337.12792969 684.96582031 C-348.84869919 705.53961777 -357.03422244 728.44620845 -360 752 C-360.16628906 753.27423828 -360.16628906 753.27423828 -360.3359375 754.57421875 C-363.1937924 780.41077186 -358.80265558 805.64442393 -350.375 830.0625 C-349.94151245 831.32102783 -349.94151245 831.32102783 -349.49926758 832.60498047 C-348.06842247 836.58671243 -346.66390537 839.66616107 -344 843 C-344.02094727 841.8032666 -344.04189453 840.6065332 -344.06347656 839.37353516 C-344.78972302 793.81378879 -344.78972302 793.81378879 -340 773 C-339.78569336 772.06188477 -339.57138672 771.12376953 -339.35058594 770.15722656 C-330.55115299 732.94856178 -313.34601707 697.91259784 -291 667 C-290.45585449 666.23945312 -289.91170898 665.47890625 -289.35107422 664.6953125 C-282.09952979 654.57630723 -274.5556579 644.8899074 -266.33447266 635.54492188 C-264.28066247 633.16722139 -262.33375288 630.70615948 -260.375 628.25 C-256.62904646 623.6286334 -252.5685141 619.46723133 -248.31640625 615.3125 C-246.37340859 613.3727789 -244.57962621 611.40955003 -242.8125 609.3125 C-239.25520604 605.16232372 -235.41980676 601.30614761 -231.5625 597.4375 C-230.63111206 596.49934448 -230.63111206 596.49934448 -229.6809082 595.54223633 C-225.91769983 591.7908542 -222.03584807 588.23895567 -218.01538086 584.76586914 C-214.59297479 581.7671698 -211.30304841 578.62886422 -208 575.5 C-206.66796613 574.23821011 -205.33463392 572.97778942 -204 571.71875 C-203.4225 571.17154297 -202.845 570.62433594 -202.25 570.06054688 C-200.27789387 568.25449482 -198.27219905 566.50484275 -196.24829102 564.75756836 C-192.00467576 561.05421557 -188.0029297 557.14756879 -184.02734375 553.16015625 C-183.30059952 552.43436874 -182.57385529 551.70858124 -181.8250885 550.96080017 C-180.30037704 549.43676444 -178.7769085 547.91148431 -177.25463867 546.38500977 C-174.94366109 544.06867537 -172.62739229 541.75772922 -170.31054688 539.44726562 C-168.8199918 537.95604966 -167.329747 536.46452347 -165.83984375 534.97265625 C-164.81611916 533.951968 -164.81611916 533.951968 -163.77171326 532.91065979 C-159.31626923 528.433753 -155.11161358 523.79326707 -151 519 C-150.01516745 517.87035692 -149.02962883 516.74132847 -148.04296875 515.61328125 C-141.40033985 507.95707881 -135.01462848 500.16190283 -129 492 C-128.54157715 491.37818848 -128.0831543 490.75637695 -127.61083984 490.11572266 C-99.07698057 451.13393251 -73.44558475 403.52140846 -80.68359375 353.546875 C-87.26781038 315.5498539 -112.00777773 284.6249056 -142.9765625 262.74609375 C-202.17390741 221.8938349 -278.94248814 201.06728869 -350.453125 200.796875 C-351.699729 200.78986069 -352.94633301 200.78284637 -354.23071289 200.77561951 C-358.23718202 200.75819723 -362.24350111 200.75118465 -366.25 200.75 C-367.27458565 200.74933722 -367.27458565 200.74933722 -368.31987 200.74866104 C-389.36675542 200.74152145 -410.11134837 201.15091578 -431 204 Z M-635 322 C-635.8652832 322.41072754 -636.73056641 322.82145508 -637.62207031 323.24462891 C-664.25563056 335.94749677 -689.79355615 351.7639667 -713 370 C-714.09707418 370.84320577 -715.1947655 371.68560902 -716.29296875 372.52734375 C-738.71977556 389.81303828 -760.76896152 409.28302669 -779 431 C-780.29744141 432.48113281 -780.29744141 432.48113281 -781.62109375 433.9921875 C-803.86796677 459.42774204 -822.61411738 487.5007529 -839 517 C-839.39928711 517.7105957 -839.79857422 518.42119141 -840.20996094 519.15332031 C-873.3735678 578.37610134 -892.86437714 650.00621284 -894 718 C-894.02046387 719.08039551 -894.04092773 720.16079102 -894.06201172 721.27392578 C-895.74701781 825.86963454 -863.29160372 929.44434151 -777.6953125 1033.08203125 C-775.03388961 1035.96331082 -772.4237672 1038.8858045 -769.8125 1041.8125 C-766.37340653 1045.60473893 -762.83399773 1049.04131628 -758.91796875 1052.33203125 C-756.89707018 1054.08951331 -755.05048718 1055.95155076 -753.1875 1057.875 C-749.34796529 1061.76682409 -745.22434662 1065.18108867 -740.9609375 1068.59765625 C-738.43317859 1070.64854243 -735.96579642 1072.75219758 -733.51049805 1074.88867188 C-711.81395473 1093.66562757 -686.9570379 1109.00385276 -662 1123 C-661.18354004 1123.45858398 -660.36708008 1123.91716797 -659.52587891 1124.38964844 C-638.00773361 1136.3607876 -615.1857517 1145.79467798 -592 1154 C-591.05157227 1154.3398291 -590.10314453 1154.6796582 -589.12597656 1155.02978516 C-502.44494093 1185.88610887 -405.37694614 1190.90574312 -316 1169 C-314.7826416 1168.70222656 -313.5652832 1168.40445313 -312.31103516 1168.09765625 C-255.72883715 1154.34933895 -255.72883715 1154.34933895 -207 1124 C-206.26394531 1123.30390625 -205.52789063 1122.6078125 -204.76953125 1121.890625 C-198.5766279 1115.52851664 -195.57019106 1108.92347586 -194.55078125 1100.12109375 C-194.66749546 1095.00792855 -197.37182085 1092.27032452 -200.6875 1088.625 C-201.89255623 1087.22785738 -203.09292907 1085.82666425 -204.2890625 1084.421875 C-205.2157373 1083.3380957 -205.2157373 1083.3380957 -206.16113281 1082.23242188 C-209.16229204 1078.58895401 -211.8509636 1074.73597414 -214.5625 1070.875 C-222.47462757 1059.72685034 -231.41511156 1049.69860249 -240.64453125 1039.6328125 C-243.73739442 1036.17578136 -246.64757773 1032.58768506 -249.5625 1028.98046875 C-252.45318194 1025.44586888 -255.40484594 1021.96786766 -258.375 1018.5 C-258.88724121 1017.90018311 -259.39948242 1017.30036621 -259.92724609 1016.68237305 C-262.20512721 1014.02912918 -264.50644198 1011.45076969 -267 1009 C-267.4125 1009.49628906 -267.825 1009.99257812 -268.25 1010.50390625 C-304.67351357 1053.35031618 -381.80675465 1066.25643182 -434.875 1070.62890625 C-440.16317455 1071.02734425 -445.45381272 1071.35393914 -450.75 1071.625 C-451.91740723 1071.68530396 -451.91740723 1071.68530396 -453.10839844 1071.74682617 C-466.8320032 1072.35178162 -480.54341443 1072.06812492 -494.25 1071.25 C-495.3376767 1071.18564758 -495.3376767 1071.18564758 -496.44732666 1071.11999512 C-529.73044793 1069.09449885 -562.11183125 1062.66259043 -594 1053 C-595.33804688 1052.596604 -595.33804688 1052.596604 -596.703125 1052.18505859 C-611.91217437 1047.53184083 -626.47146421 1041.44351985 -641 1035 C-641.86898926 1034.61585938 -642.73797852 1034.23171875 -643.63330078 1033.8359375 C-678.2135576 1018.40216444 -710.47841871 996.87787291 -738.41796875 971.3359375 C-740.52428031 969.43037878 -742.65559891 967.56745668 -744.8046875 965.7109375 C-749.00500653 962.04161425 -752.99689548 958.19540837 -756.9375 954.25 C-757.98780396 953.19848755 -757.98780396 953.19848755 -759.05932617 952.12573242 C-763.62775948 947.50324736 -767.86490109 942.79393982 -771.87890625 937.6796875 C-773.81355855 935.23554113 -775.82373001 932.87771086 -777.87133789 930.52807617 C-826.82907354 874.04505018 -853.39304111 798.70312708 -860 725 C-860.07057617 724.236875 -860.14115234 723.47375 -860.21386719 722.6875 C-868.09718329 633.25982953 -840.64617205 538.77039554 -787 467 C-786.33726074 466.11199707 -786.33726074 466.11199707 -785.66113281 465.20605469 C-782.82650803 461.42866879 -779.93076356 457.70355196 -777 454 C-776.27425781 453.07960938 -775.54851562 452.15921875 -774.80078125 451.2109375 C-769.33156274 444.39650725 -763.47655539 438.00174699 -757.50976562 431.62744141 C-756.03726668 430.04017136 -754.5855878 428.4365614 -753.140625 426.82421875 C-747.42979482 420.46304135 -741.44579643 414.62336627 -735 409 C-733.4161501 407.54222771 -731.83282533 406.08388469 -730.25 404.625 C-724.08356343 399.08954763 -717.58493045 394.02065142 -711 389 C-710.29198242 388.45682129 -709.58396484 387.91364258 -708.85449219 387.35400391 C-635.43283762 331.25421939 -539.71753998 301.251822 -415.6796875 305.02734375 C-363.22052649 312.40703661 -302.73678553 330.76988602 -269.0234375 374.78515625 C-251.68999564 398.48754803 -244.29930511 426.21872848 -248.71875 455.4921875 C-249.59208561 460.38565415 -250.7147198 465.19935077 -252 470 C-252.17660156 470.66257812 -252.35320313 471.32515625 -252.53515625 472.0078125 C-257.32783581 489.2614589 -266.03555341 505.23071578 -276 520 C-276.40863281 520.60682617 -276.81726563 521.21365234 -277.23828125 521.83886719 C-283.27285406 530.71352069 -289.94604195 538.92120106 -297 547 C-297.95712891 548.10794922 -297.95712891 548.10794922 -298.93359375 549.23828125 C-300.60996825 551.17017704 -302.30333725 553.08591594 -304 555 C-304.92232422 556.06154297 -304.92232422 556.06154297 -305.86328125 557.14453125 C-310.74199925 562.68477034 -315.85339237 567.95853095 -321.0625 573.1875 C-321.72306396 573.85265625 -322.38362793 574.5178125 -323.06420898 575.203125 C-326.95395187 579.08082235 -330.95238423 582.77355698 -335.10913086 586.36303711 C-347.13510322 596.77415973 -358.90903373 607.7578987 -368.796875 620.2421875 C-370.29028414 622.11159681 -371.82338474 623.94985233 -373.390625 625.7578125 C-400.2207466 656.72213522 -414.80627209 694.05783256 -413 735 C-411.74823345 751.70336258 -405.99464564 767.89238537 -399 783 C-398.67 783 -398.34 783 -398 783 C-397.98018066 782.39752441 -397.96036133 781.79504883 -397.93994141 781.17431641 C-395.90429345 721.91559222 -375.67926221 671.76317665 -338 626 C-337.54915039 625.45150391 -337.09830078 624.90300781 -336.63378906 624.33789062 C-326.13615782 611.62748686 -314.88922196 599.7197764 -303.21948242 588.08911133 C-301.30074495 586.17577806 -299.38747246 584.25709496 -297.47460938 582.33789062 C-291.48507981 576.34501671 -285.47913643 570.46813839 -279 565 C-270.77874258 557.67985469 -262.91899959 550.02164781 -255.125 542.25 C-254.23337158 541.36296387 -253.34174316 540.47592773 -252.4230957 539.56201172 C-247.40729532 534.53444931 -242.61283215 529.39765429 -238 524 C-237.06299159 522.93981827 -236.12427016 521.88114731 -235.18359375 520.82421875 C-222.15346902 506.01992915 -210.79794947 490.110995 -201 473 C-200.39115967 471.94498291 -200.39115967 471.94498291 -199.77001953 470.86865234 C-189.53088975 452.94498296 -180.84768836 431.89736085 -180 411 C-179.96003906 410.03191406 -179.92007813 409.06382812 -179.87890625 408.06640625 C-179.30717614 380.05163095 -190.25119494 357.39316559 -208.65625 337.06640625 C-256.87460118 287.07532157 -336.46653626 269.15847913 -403.515625 267.796875 C-483.80119413 266.98559648 -562.7660043 287.41935087 -635 322 Z M-690 415 C-690.81210937 415.63035156 -691.62421875 416.26070313 -692.4609375 416.91015625 C-694.99934824 418.91048963 -697.50183323 420.94965276 -700 423 C-700.94230469 423.75539063 -701.88460937 424.51078125 -702.85546875 425.2890625 C-711.32106786 432.21413716 -719.0691042 439.85340402 -726.8125 447.5625 C-727.34811554 448.09293915 -727.88373108 448.6233783 -728.43557739 449.16989136 C-735.43044099 456.11145412 -741.87340427 463.26520211 -748 471 C-748.97631003 472.17404371 -749.95619883 473.34513131 -750.94140625 474.51171875 C-808.2778534 543.47448446 -834.55610957 636.04721054 -827.23046875 724.87060547 C-819.98474253 798.85066452 -790.07508467 868.06494177 -740 923 C-738.47900748 924.7081916 -736.95817362 926.41652449 -735.4375 928.125 C-729.73886323 934.44692517 -723.82533155 940.43789429 -717.359375 945.9765625 C-715.56338525 947.51683186 -713.78528118 949.07798346 -712.015625 950.6484375 C-702.80622782 958.7714168 -693.07274824 965.98643333 -683 973 C-682.36481445 973.44585449 -681.72962891 973.89170898 -681.07519531 974.35107422 C-602.8978774 1028.98277865 -503.58014201 1049.14757029 -401.80326843 1033.06495667 C-391.40839072 1031.21381187 -381.18285381 1028.7779166 -371 1026 C-370.04367676 1025.73993164 -369.08735352 1025.47986328 -368.10205078 1025.21191406 C-327.21591296 1014.39671591 -327.21591296 1014.39671591 -294.9375 989.0625 C-292.69249748 985.00391894 -291.46577929 980.64938958 -292 976 C-294.24596762 971.19298297 -297.98779693 967.65157614 -301.625 963.875 C-306.55444445 958.67744525 -311.25799411 953.4017467 -315.73046875 947.80078125 C-317.8995742 945.12393339 -320.12820778 942.51500627 -322.38598633 939.91333008 C-332.26116898 928.53084182 -341.1484572 916.50420707 -349.921875 904.26171875 C-354.42002403 898.00547524 -359.00868985 891.87212959 -364 886 C-364.69222656 886.52787109 -364.69222656 886.52787109 -365.3984375 887.06640625 C-366.80313535 888.12964593 -368.21395946 889.18481308 -369.62890625 890.234375 C-371.12947631 891.35176819 -372.61824129 892.4853483 -374.08984375 893.640625 C-387.85390929 903.99391156 -404.73487617 909.84436895 -421 915 C-421.82693359 915.26409668 -422.65386719 915.52819336 -423.50585938 915.80029297 C-494.28263074 938.06605937 -573.21266928 932.13051367 -640 900 C-641.03447266 899.51345947 -641.03447266 899.51345947 -642.08984375 899.01708984 C-679.06671015 881.61886152 -714.52667912 854.90385884 -738.74511719 821.71240234 C-740.07178198 819.90204692 -741.42798314 818.11663048 -742.7890625 816.33203125 C-749.16648103 807.90335777 -754.82240837 799.21103791 -760 790 C-760.39541992 789.30487305 -760.79083984 788.60974609 -761.19824219 787.89355469 C-780.09764194 754.39620461 -791.63993525 716.28910996 -795 678 C-795.11085938 676.77796875 -795.22171875 675.5559375 -795.3359375 674.296875 C-800.149095 613.15676627 -783.70580925 549.13239884 -748 499 C-747.48920898 498.28166992 -746.97841797 497.56333984 -746.45214844 496.82324219 C-739.44859881 487.0198726 -732.30319241 477.74020253 -724 469 C-722.868134 467.69341643 -721.74269848 466.38122338 -720.625 465.0625 C-712.5234972 455.78190524 -703.660859 447.62431428 -694 440 C-692.83298275 439.04498473 -691.66770997 438.08783499 -690.50390625 437.12890625 C-676.86947175 425.94913683 -662.31121817 416.7061625 -647 408 C-646.09677002 407.47841309 -646.09677002 407.47841309 -645.17529297 406.94628906 C-607.01223942 385.01349966 -558.88594382 371.01684478 -514.76953125 370.796875 C-513.82441681 370.78986069 -512.87930237 370.78284637 -511.9055481 370.77561951 C-508.87448304 370.75821818 -505.84361317 370.75176801 -502.8125 370.75 C-501.26141037 370.74898788 -501.26141037 370.74898788 -499.6789856 370.74795532 C-484.91312601 370.76329327 -470.51013096 370.98725393 -456 374 C-455.12279297 374.17692383 -454.24558594 374.35384766 -453.34179688 374.53613281 C-419.09448816 381.62304909 -383.6252527 395.49985975 -362.7734375 425.16796875 C-350.0878703 445.05152633 -345.85809916 467.006311 -350.52563477 490.10791016 C-356.60589213 516.95933619 -372.55028798 540.69091459 -391.40625 560.2890625 C-393.51283878 562.49082848 -395.48959642 564.72310599 -397.4375 567.0625 C-402.94613656 573.42477516 -409.46005707 578.90348729 -415.69970703 584.53369141 C-435.83047457 602.72104085 -453.56732125 623.77602256 -462 650 C-462.31839844 650.92941406 -462.63679688 651.85882812 -462.96484375 652.81640625 C-470.40376069 678.56122938 -462.74468443 703.15031984 -451 726 C-450.67 726 -450.34 726 -450 726 C-449.96559814 725.35264893 -449.93119629 724.70529785 -449.89575195 724.03833008 C-447.76716559 686.61151155 -436.08321593 653.47122317 -414 623 C-413.525625 622.33919434 -413.05125 621.67838867 -412.5625 620.99755859 C-406.91012104 613.16113868 -401.08115648 605.66202991 -394.44921875 598.625 C-392.52912361 596.56709899 -390.69037123 594.48269543 -388.859375 592.34765625 C-384.32735071 587.1464126 -379.44905844 582.30322024 -374.5625 577.4375 C-373.65951172 576.53064453 -372.75652344 575.62378906 -371.82617188 574.68945312 C-367.29991004 570.16974634 -362.72348703 565.78225651 -357.86987305 561.6159668 C-354.71313079 558.88787214 -351.67115123 556.03782722 -348.625 553.1875 C-347.97724609 552.58147949 -347.32949219 551.97545898 -346.66210938 551.35107422 C-338.72468973 543.89644201 -331.05889813 536.30114728 -324 528 C-323.20207031 527.1028125 -322.40414063 526.205625 -321.58203125 525.28125 C-298.10608155 498.63917865 -278.67691403 466.00944107 -280.77685547 429.50732422 C-282.17497851 413.79756092 -290.68156126 400.47497128 -301 389 C-301.60199219 388.31550781 -302.20398438 387.63101563 -302.82421875 386.92578125 C-318.32364323 370.35047481 -340.11972077 359.96068911 -361 352 C-361.71559082 351.72704102 -362.43118164 351.45408203 -363.16845703 351.17285156 C-382.95395838 343.78809004 -404.05475474 339.44279021 -425 337 C-425.74910645 336.9057373 -426.49821289 336.81147461 -427.27001953 336.71435547 C-517.89600691 326.75565153 -618.7094519 359.37654875 -690 415 Z M-609 426 C-609.80228027 426.33612305 -610.60456055 426.67224609 -611.43115234 427.01855469 C-629.38739477 434.6908035 -646.57228584 445.04517214 -662 457 C-662.62535645 457.48404297 -663.25071289 457.96808594 -663.89501953 458.46679688 C-716.73531955 499.71942588 -753.06861985 557.96004402 -761.8125 625 C-769.10139332 687.6864446 -751.00339465 751.21927339 -712.625 801.0859375 C-701.15299727 815.38496948 -688.40850095 828.6608812 -674 840 C-673.06027344 840.76828125 -672.12054687 841.5365625 -671.15234375 842.328125 C-619.53258021 883.62393583 -549.2312734 901.82246121 -483.86450195 895.05249023 C-455.36038093 891.65829456 -411.09675528 885.55080041 -390.86328125 862.80859375 C-389.58543546 860.13147791 -390.03163597 858.77625396 -391 856 C-392.84486593 853.41494472 -392.84486593 853.41494472 -395.25 850.8125 C-399.62692109 845.77006802 -403.65701622 840.54032987 -407.5625 835.125 C-408.11824707 834.35510742 -408.67399414 833.58521484 -409.24658203 832.79199219 C-412.55986944 828.1508494 -415.6449499 823.42179372 -418.625 818.5625 C-422.32706471 812.6759449 -426.45797459 808.18741039 -431.45703125 803.4296875 C-434.14497056 800.86148742 -436.53550999 798.16300984 -438.94140625 795.3359375 C-440.64395385 793.40401442 -442.37847591 791.52960176 -444.15234375 789.6640625 C-451.47953708 781.95693312 -458.35888237 774.10928817 -464.76806641 765.62158203 C-465.92575889 764.09772284 -467.10857083 762.59304043 -468.29296875 761.08984375 C-486.61690497 737.51196476 -500.16400227 710.13723101 -502 680 C-502.04253906 679.30777344 -502.08507812 678.61554688 -502.12890625 677.90234375 C-502.74497771 656.58627112 -496.21900252 636.4468213 -486 618 C-485.45730469 616.9790625 -484.91460938 615.958125 -484.35546875 614.90625 C-477.27411659 602.08745193 -467.9480884 590.68355019 -458 580 C-456.84957817 578.67062367 -455.70355612 577.33742392 -454.5625 576 C-449.2269364 569.88633337 -443.50061389 564.13384261 -437.3515625 558.83984375 C-413.56771565 538.15617714 -384.1840799 508.92871989 -381.75 475.57421875 C-381.33122289 462.76225645 -384.03187147 452.12010485 -392 442 C-392.47824219 441.34773438 -392.95648437 440.69546875 -393.44921875 440.0234375 C-411.87079184 416.72965995 -447.24138462 407.83994133 -475.18359375 404.31640625 C-521.11623382 399.08346551 -566.64015479 408.25239687 -609 426 Z M-398 783 C-397 785 -397 785 -397 785 Z M-185 1015 C-184 1017 -184 1017 -184 1017 Z " fill="#C4AF7C" transform="translate(1216,41)"/>
<path d="M0 0 C0.86122467 0.00182281 1.72244934 0.00364563 2.60977173 0.00552368 C15.59542596 0.05178746 28.2071649 0.54327388 40.9375 3.3125 C41.76121094 3.48410645 42.58492187 3.65571289 43.43359375 3.83251953 C90.09854767 13.76746691 131.50882269 42.56024545 157.64038086 82.4375 C184.88693497 125.0616229 191.98715675 176.37340507 181.8125 225.625 C172.65195776 267.02041104 148.47759743 303.48175125 114.9375 329.3125 C114.4223584 329.70937012 113.9072168 330.10624023 113.37646484 330.51513672 C74.26115466 360.33361176 24.21527683 371.47964328 -24.296875 365.0625 C-55.28493444 360.41559639 -84.24837838 349.79060338 -109.0625 330.3125 C-109.91585938 329.67957031 -110.76921875 329.04664063 -111.6484375 328.39453125 C-148.98680882 299.61526351 -172.63940263 258.56333193 -180.0625 212.3125 C-180.1670752 211.66539062 -180.27165039 211.01828125 -180.37939453 210.3515625 C-181.48941116 202.15451662 -181.30645095 193.81935258 -181.3125 185.5625 C-181.31317474 184.73647278 -181.31384949 183.91044556 -181.31454468 183.05938721 C-181.29795918 170.27057488 -180.82085204 157.84779618 -178.0625 145.3125 C-177.88557617 144.5076416 -177.70865234 143.7027832 -177.52636719 142.87353516 C-169.85319399 109.23217045 -153.77186997 79.33243816 -130.0625 54.3125 C-129.22074219 53.41789063 -128.37898438 52.52328125 -127.51171875 51.6015625 C-94.28311282 17.2669393 -47.26037672 -0.20739949 0 0 Z M-31.0625 38.3125 C-31.69945801 38.45751953 -32.33641602 38.60253906 -32.99267578 38.75195312 C-59.40431224 44.77028903 -82.86790114 59.58606209 -102.0625 78.3125 C-103.114375 79.2715625 -103.114375 79.2715625 -104.1875 80.25 C-130.94080995 105.27728995 -143.38484035 143.76894707 -144.98095703 179.42724609 C-146.12560184 219.92848071 -131.99114632 256.63268514 -104.453125 286.23828125 C-78.27873868 313.63904909 -43.6102914 330.46296765 -5.41796875 331.515625 C37.19090228 332.05654784 74.67470626 318.82074919 105.9375 289.3125 C106.61296875 288.68988281 107.2884375 288.06726563 107.984375 287.42578125 C118.63365937 277.26636396 126.20439581 265.28268597 132.9375 252.3125 C133.25847656 251.70712402 133.57945312 251.10174805 133.91015625 250.47802734 C151.50017657 216.96315076 153.77394485 175.00425756 143.1875 139 C137.18999012 119.80013093 128.16417537 102.56605293 114.9375 87.3125 C114.22980469 86.48363281 113.52210938 85.65476562 112.79296875 84.80078125 C88.61497549 57.15064185 54.28718009 39.84316645 17.9375 35.3125 C12.81538008 35.07412748 7.68960086 35.06680953 2.5625 35.0625 C1.48486893 35.06148788 1.48486893 35.06148788 0.38546753 35.06045532 C-10.40926487 35.07657653 -20.56303159 35.60152614 -31.0625 38.3125 Z " fill="#D9C68C" transform="translate(2046.0625,733.6875)"/>
<path d="M0 0 C1.1964489 -0.01058945 1.1964489 -0.01058945 2.41706848 -0.02139282 C35.92923567 -0.25055046 35.92923567 -0.25055046 51.42578125 3.203125 C52.79911621 3.50114014 52.79911621 3.50114014 54.20019531 3.80517578 C79.85520527 9.53059174 103.55449902 20.19672723 124.42578125 36.203125 C125.29847656 36.85152344 126.17117188 37.49992188 127.0703125 38.16796875 C163.9993438 66.81491316 188.6184032 108.82679097 194.6869812 155.1990509 C195.33260122 160.59672921 195.59958684 165.91387374 195.62890625 171.34765625 C195.63460632 172.19752609 195.6403064 173.04739594 195.6461792 173.92301941 C195.65556693 175.71551292 195.66213817 177.50802321 195.66601562 179.30053711 C195.67562027 181.97086983 195.70666138 184.64039733 195.73828125 187.31054688 C196.04732248 237.49107996 174.75634291 280.58773693 140.42578125 316.203125 C137.86645551 318.6868801 135.19873256 320.96177575 132.42578125 323.203125 C130.91951172 324.44835938 130.91951172 324.44835938 129.3828125 325.71875 C90.51759867 357.40167681 42.68669333 369.98945399 -7.0859375 365.68969727 C-56.26904818 360.6325629 -99.98318286 337.39065778 -131.57421875 299.203125 C-155.50848528 269.06980508 -170.50636763 233.01719192 -171.57421875 194.203125 C-171.59468262 193.52958984 -171.61514648 192.85605469 -171.63623047 192.16210938 C-172.93525253 143.25017113 -157.72618198 97.23712076 -125.57421875 60.203125 C-125.10564453 59.66010742 -124.63707031 59.11708984 -124.15429688 58.55761719 C-119.00520217 52.627564 -113.6871352 47.13428256 -107.57421875 42.203125 C-106.66542969 41.45675781 -105.75664062 40.71039062 -104.8203125 39.94140625 C-75.40813238 16.49264688 -38.04062342 0.22467415 0 0 Z M-24.57421875 39.203125 C-25.33831055 39.41743164 -26.10240234 39.63173828 -26.88964844 39.85253906 C-38.08254411 43.07125791 -48.38948799 47.58609167 -58.57421875 53.203125 C-59.21488281 53.55246094 -59.85554688 53.90179687 -60.515625 54.26171875 C-70.14499586 59.57246268 -78.52064057 65.72828881 -86.57421875 73.203125 C-87.17766113 73.75742187 -87.78110352 74.31171875 -88.40283203 74.8828125 C-116.8281235 101.26359344 -132.78543609 137.06553909 -134.69970703 175.73828125 C-136.11790425 214.45007681 -125.44398173 250.91006006 -99.57421875 280.203125 C-98.73246094 281.17765625 -97.89070313 282.1521875 -97.0234375 283.15625 C-72.34902813 311.2806455 -37.78698776 328.21917301 -0.57421875 331.203125 C39.09494364 333.47841362 78.1130156 322.48795927 108.42578125 296.203125 C109.25464844 295.49542969 110.08351563 294.78773438 110.9375 294.05859375 C140.22951128 268.44490548 156.21657416 232.15763531 159.1484375 193.70703125 C161.55413486 156.7607463 151.39291911 117.49571003 126.80859375 89.125 C122.80740814 84.68451508 118.66427874 80.41654262 114.42578125 76.203125 C113.63179932 75.37699707 113.63179932 75.37699707 112.82177734 74.53417969 C88.13317301 49.10081058 50.6911173 35.45317243 15.77978516 34.80517578 C1.96864064 34.63283138 -11.22805844 35.36237716 -24.57421875 39.203125 Z " fill="#BDA977" transform="translate(2680.57421875,733.796875)"/>
<path d="M0 0 C8 0 8 0 9.95874023 1.1105957 C10.62691772 1.88536255 10.62691772 1.88536255 11.30859375 2.67578125 C11.82309082 3.25086426 12.33758789 3.82594727 12.86767578 4.41845703 C13.38571777 5.04349121 13.90375977 5.66852539 14.4375 6.3125 C14.99679199 6.9504248 15.55608398 7.58834961 16.13232422 8.24560547 C17.7824849 10.14227105 19.3970191 12.06338555 21 14 C22.21236328 15.46373047 22.21236328 15.46373047 23.44921875 16.95703125 C24.89339551 18.72789791 26.32969311 20.50522106 27.7578125 22.2890625 C30.23906629 25.28904531 32.84865956 28.1515203 35.5 31 C39.76923405 35.58754766 43.75758961 40.3344328 47.6875 45.21875 C50.1997101 48.24019188 52.82400827 51.12441773 55.5 54 C59.76918152 58.58760113 63.75758517 63.33442728 67.6875 68.21875 C70.1997101 71.24019188 72.82400827 74.12441773 75.5 77 C79.76918152 81.58760113 83.75758517 86.33442728 87.6875 91.21875 C90.1997101 94.24019188 92.82400827 97.12441773 95.5 100 C99.76918152 104.58760113 103.75758517 109.33442728 107.6875 114.21875 C110.1997101 117.24019188 112.82400827 120.12441773 115.5 123 C119.76918152 127.58760113 123.75758517 132.33442728 127.6875 137.21875 C130.1997101 140.24019188 132.82400827 143.12441773 135.5 146 C139.76918152 150.58760113 143.75758517 155.33442728 147.6875 160.21875 C150.1997101 163.24019188 152.82400827 166.12441773 155.5 169 C159.76918152 173.58760113 163.75758517 178.33442728 167.6875 183.21875 C170.1997101 186.24019188 172.82400827 189.12441773 175.5 192 C179.76918152 196.58760113 183.75758517 201.33442728 187.6875 206.21875 C190.1997101 209.24019188 192.82400827 212.12441773 195.5 215 C199.76918152 219.58760113 203.75758517 224.33442728 207.6875 229.21875 C210.19971379 232.24019632 212.8240572 235.12436687 215.5 238 C219.74483754 242.56292423 223.75371822 247.257678 227.63671875 252.13671875 C230.97912164 256.18627465 234.5115799 260.07552739 238 264 C238.33 176.88 238.66 89.76 239 0 C250.55 0 262.1 0 274 0 C274 115.17 274 230.34 274 349 C265 349 265 349 262.03125 346.76171875 C261.1959375 345.74722656 260.360625 344.73273438 259.5 343.6875 C259.03916016 343.14351562 258.57832031 342.59953125 258.10351562 342.0390625 C256.70810431 340.37996656 255.35152347 338.69493513 254 337 C253.236875 336.06800781 252.47375 335.13601563 251.6875 334.17578125 C250.22213692 332.38332819 248.76384877 330.58506919 247.3125 328.78125 C244.8002899 325.75980812 242.17599173 322.87558227 239.5 320 C235.23081848 315.41239887 231.24241483 310.66557272 227.3125 305.78125 C224.35823636 302.22814914 221.23086576 298.8597632 218.08374023 295.47827148 C215.11284372 292.2670095 212.30038923 288.97372185 209.5625 285.5625 C206.19653735 281.37762693 202.66823983 277.41685602 199 273.5 C194.54127805 268.73908666 190.36202376 263.83532437 186.27734375 258.74609375 C183.7817361 255.73681042 181.16236519 252.86059714 178.5 250 C175.04838064 246.29138312 171.73477852 242.51494105 168.5625 238.5625 C165.19653735 234.37762693 161.66823983 230.41685602 158 226.5 C153.54127805 221.73908666 149.36202376 216.83532437 145.27734375 211.74609375 C142.7817361 208.73681042 140.16236519 205.86059714 137.5 203 C134.04838064 199.29138312 130.73477852 195.51494105 127.5625 191.5625 C124.19653735 187.37762693 120.66823983 183.41685602 117 179.5 C112.54127805 174.73908666 108.36202376 169.83532437 104.27734375 164.74609375 C101.78173531 161.73680948 99.16234857 158.86061346 96.5 156 C92.23079221 151.41242561 88.24241261 146.66556996 84.3125 141.78125 C81.35823636 138.22814914 78.23086576 134.8597632 75.08374023 131.47827148 C72.11284372 128.2670095 69.30038923 124.97372185 66.5625 121.5625 C62.7251248 116.79152368 58.64458406 112.32209263 54.46142578 107.8581543 C50.37735129 103.47430113 46.57444751 98.92956726 42.83984375 94.2421875 C40.89327347 91.7951842 40.89327347 91.7951842 38 89 C37.67 174.8 37.34 260.6 37 349 C24.79 349 12.58 349 0 349 C0 233.83 0 118.66 0 0 Z " fill="#AD9769" transform="translate(2946,742)"/>
<path d="M0 0 C0.86321365 -0.00696899 1.72642731 -0.01393799 2.61579895 -0.02111816 C5.38454112 -0.0384124 8.15308108 -0.04483716 10.921875 -0.046875 C11.86561981 -0.04788208 12.80936462 -0.04888916 13.78170776 -0.04992676 C27.30138324 -0.04014584 40.41312992 0.32865852 53.671875 3.203125 C54.39407227 3.34766113 55.11626953 3.49219727 55.86035156 3.64111328 C99.19215316 12.34797061 136.468388 35.9108756 163.7734375 70.51171875 C164.06992188 71.06988281 164.36640625 71.62804687 164.671875 72.203125 C163.55997243 75.53883271 162.89615229 76.06270398 160.171875 78.09375 C159.09401733 78.90646362 159.09401733 78.90646362 157.99438477 79.7355957 C156.84474243 80.58577271 156.84474243 80.58577271 155.671875 81.453125 C154.11819717 82.61809971 152.56480924 83.78346115 151.01171875 84.94921875 C150.2626123 85.50851074 149.51350586 86.06780273 148.74169922 86.64404297 C145.51967729 89.07101066 142.37527829 91.59352508 139.23828125 94.12890625 C137.671875 95.203125 137.671875 95.203125 135.671875 95.203125 C134.55398985 93.8943063 133.50518341 92.52649072 132.484375 91.140625 C107.28240974 59.02404111 70.77294345 41.21839124 30.671875 36.203125 C25.07067955 35.9606331 19.46530477 35.95741205 13.859375 35.953125 C13.07120392 35.95245026 12.28303284 35.95177551 11.47097778 35.95108032 C-0.0675023 35.96680212 -11.08943896 36.38165106 -22.328125 39.203125 C-23.04597168 39.36941406 -23.76381836 39.53570313 -24.50341797 39.70703125 C-47.47987952 45.07234551 -69.31903463 55.95268467 -87.328125 71.203125 C-87.8653418 71.65526367 -88.40255859 72.10740234 -88.95605469 72.57324219 C-116.95178552 96.44853311 -133.56826312 130.77595575 -137.328125 167.203125 C-137.61156451 172.60298518 -137.66981184 177.98442632 -137.640625 183.390625 C-137.63846985 184.11301361 -137.6363147 184.83540222 -137.63409424 185.5796814 C-137.57956681 197.00286277 -137.05978935 208.07109792 -134.328125 219.203125 C-134.13476562 219.99895996 -133.94140625 220.79479492 -133.7421875 221.61474609 C-129.32556155 239.10744747 -122.17229945 255.7159857 -111.328125 270.203125 C-110.3690625 271.49476563 -110.3690625 271.49476563 -109.390625 272.8125 C-84.27736865 304.9650782 -49.67156872 324.42041414 -9.328125 330.203125 C34.63336633 335.45666892 77.00349154 325.34174007 112.00756836 298.02832031 C120.59911106 291.15079105 128.71281537 283.75492716 135.671875 275.203125 C139.53151041 276.56686859 142.41933426 278.32415153 145.6484375 280.828125 C146.56625 281.53453125 147.4840625 282.2409375 148.4296875 282.96875 C149.37585937 283.70609375 150.32203125 284.4434375 151.296875 285.203125 C153.18438511 286.6621193 155.07238431 288.12048113 156.9609375 289.578125 C157.79318848 290.22523438 158.62543945 290.87234375 159.48291016 291.5390625 C161.16854287 292.82048928 162.91008591 294.02859894 164.671875 295.203125 C163.15442813 300.52444207 159.64892714 303.8661967 155.921875 307.765625 C155.2515625 308.47090332 154.58125 309.17618164 153.890625 309.90283203 C143.25266231 320.93821861 131.74624246 330.2121734 118.671875 338.203125 C117.98641602 338.62335938 117.30095703 339.04359375 116.59472656 339.4765625 C104.82965239 346.58406726 92.66457858 351.76865878 79.671875 356.203125 C78.58422852 356.57993408 78.58422852 356.57993408 77.47460938 356.96435547 C33.07364639 372.06864906 -21.73343152 370.31431609 -65.328125 353.203125 C-66.06047363 352.91598633 -66.79282227 352.62884766 -67.54736328 352.33300781 C-83.93556681 345.76352211 -99.1247526 336.97226526 -112.328125 325.203125 C-113.60042969 324.09324219 -113.60042969 324.09324219 -114.8984375 322.9609375 C-117.40880904 320.7422911 -119.87667511 318.48661258 -122.328125 316.203125 C-123.06675781 315.51863281 -123.80539062 314.83414062 -124.56640625 314.12890625 C-131.22777316 307.72784142 -136.84627722 300.61395333 -142.328125 293.203125 C-142.96451904 292.34920166 -142.96451904 292.34920166 -143.61376953 291.47802734 C-160.02837776 269.13645623 -169.66778561 242.35704515 -174.328125 215.203125 C-174.55371094 213.95917969 -174.77929688 212.71523438 -175.01171875 211.43359375 C-181.88036795 165.43732908 -173.04534364 114.85366193 -145.08764648 77.0246582 C-143.85205924 75.40275353 -142.5962386 73.7996992 -141.328125 72.203125 C-140.91127441 71.67348145 -140.49442383 71.14383789 -140.06494141 70.59814453 C-124.29473668 50.76053866 -105.54905341 34.42170411 -83.328125 22.203125 C-82.72774414 21.86474609 -82.12736328 21.52636719 -81.50878906 21.17773438 C-57.20010892 7.6022515 -27.82227249 0.15163423 0 0 Z " fill="#E7D698" transform="translate(1646.328125,733.796875)"/>
<path d="M0 0 C5.72890742 -0.22304079 11.45527398 -0.38603876 17.1875 -0.49438477 C19.135539 -0.53955622 21.08327431 -0.6009115 23.03027344 -0.67895508 C39.13074614 -1.30800828 39.13074614 -1.30800828 43.43041992 1.70068359 C45.02279839 4.07014276 45.99258972 6.33328132 47 9 C47.95889082 10.59776745 48.95085931 12.17608638 49.97265625 13.734375 C51.00417742 15.40527978 52.03406311 17.07719508 53.0625 18.75 C54.20959319 20.60940105 55.35672983 22.4687753 56.50390625 24.328125 C57.08414551 25.26978516 57.66438477 26.21144531 58.26220703 27.18164062 C61.00193209 31.62493735 63.7511955 36.06231668 66.5 40.5 C69.72837437 45.71372534 72.95590944 50.92796239 76.1796875 56.14453125 C81.86522017 65.34158831 87.57393039 74.52343195 93.3125 83.6875 C99.96356555 94.31163863 106.5403932 104.98033221 113.1015625 115.66015625 C118.71043484 124.78823859 124.35428662 133.89467327 130 143 C132.76809416 140.38823479 134.84434646 137.89977458 136.7421875 134.60546875 C137.24355225 133.74445557 137.74491699 132.88344238 138.26147461 131.99633789 C138.79393799 131.06942139 139.32640137 130.14250488 139.875 129.1875 C141.03901904 127.18931973 142.20442807 125.19194865 143.37109375 123.1953125 C143.97034668 122.16825195 144.56959961 121.14119141 145.18701172 120.08300781 C148.05196537 115.21112056 150.99086244 110.38528781 153.9375 105.5625 C154.51806152 104.61141357 155.09862305 103.66032715 155.69677734 102.68041992 C156.87539574 100.75039568 158.05443219 98.82062667 159.23388672 96.89111328 C162.16201855 92.09778494 165.0805534 87.29862124 168 82.5 C169.17052131 80.57679151 170.3410942 78.6536144 171.51171875 76.73046875 C172.08970215 75.78091309 172.66768555 74.83135742 173.26318359 73.85302734 C174.97335192 71.04377417 176.68388977 68.23474633 178.39453125 65.42578125 C182.62394366 58.48040481 186.85073048 51.53343345 191.07666016 44.5859375 C191.43118759 44.00332657 191.78571503 43.42071564 192.15098572 42.82044983 C192.87717907 41.62546192 193.60207957 40.42968741 194.32569885 39.23313904 C196.148461 36.221921 197.98976067 33.22594295 199.8762207 30.25415039 C203.23990344 24.90976265 206.23576133 19.7915515 208.3046875 13.77734375 C212.35680481 2.99782641 212.35680481 2.99782641 218 0 C231.13283582 -3.0098941 245.71907704 -1.17963924 259 0 C257.8546021 3.70051629 256.63653978 6.92609459 254.55859375 10.1953125 C253.82044434 11.37009155 253.82044434 11.37009155 253.06738281 12.56860352 C252.52952148 13.41221436 251.99166016 14.2558252 251.4375 15.125 C250.25265791 17.01093505 249.06913164 18.89769722 247.88671875 20.78515625 C247.25556152 21.79078613 246.6244043 22.79641602 245.97412109 23.83251953 C242.51709703 29.37932019 239.13527596 34.97176531 235.75 40.5625 C235.02952698 41.75109877 234.30898613 42.93965642 233.58837891 44.12817383 C232.1260662 46.54028602 230.66419927 48.95266758 229.20263672 51.36523438 C225.57652184 57.35004127 221.9442815 63.33113083 218.3125 69.3125 C217.59887687 70.48795568 216.88525382 71.66341141 216.17163086 72.83886719 C210.02294142 82.96595365 203.86395191 93.08675275 197.70166016 103.20556641 C194.80040563 107.96995081 191.90026793 112.73501498 189 117.5 C187.83333849 119.41666981 186.66667183 121.33333648 185.5 123.25 C184.9225 124.19875 184.345 125.1475 183.75 126.125 C182 129 180.25 131.875 178.5 134.75 C177.92169434 135.70011963 177.34338867 136.65023926 176.74755859 137.62915039 C175.58919541 139.53208315 174.43066867 141.43491637 173.27197266 143.33764648 C170.22686467 148.33860785 167.18521656 153.34163218 164.1484375 158.34765625 C163.51679688 159.38792969 162.88515625 160.42820312 162.234375 161.5 C161.02759235 163.48764202 159.82180395 165.47588815 158.6171875 167.46484375 C158.070625 168.36460937 157.5240625 169.264375 156.9609375 170.19140625 C156.24623291 171.37005249 156.24623291 171.37005249 155.51708984 172.57250977 C154 175 154 175 151.93761826 177.70800209 C149.68869983 181.5288965 149.49417725 183.69770917 149.48101807 188.09945679 C149.47351681 188.79062013 149.46601556 189.48178348 149.458287 190.19389117 C149.43807507 192.49724623 149.44609907 194.79961078 149.45410156 197.10302734 C149.44536296 198.75907359 149.43487617 200.41511139 149.42277527 202.07113647 C149.3949297 206.55830865 149.39151026 211.04520512 149.39249516 215.53245115 C149.38936482 220.22503544 149.36374407 224.91749578 149.34051514 229.61001587 C149.2999609 238.49213901 149.27961577 247.37418875 149.26654124 256.25639021 C149.25066926 266.37006662 149.21225278 276.48361814 149.17194796 286.59722209 C149.0895568 307.39813089 149.03843577 328.19896033 149 349 C137.12 349 125.24 349 113 349 C113.03254883 344.04057373 113.06509766 339.08114746 113.09863281 333.97143555 C113.19768648 317.53498393 113.23085126 301.09887835 113.23059464 284.66214275 C113.2320307 274.70215362 113.25553693 264.74316273 113.33251953 254.78344727 C113.39962544 246.09408053 113.42377376 237.40579024 113.39809489 228.71618491 C113.3859727 224.1221378 113.39416444 219.53031083 113.4539566 214.93659019 C114.11968889 187.90270643 114.11968889 187.90270643 101.43742561 164.70383453 C99.23033706 162.08768963 97.58750007 159.24969636 95.85546875 156.30078125 C95.24960938 155.31271484 94.64375 154.32464844 94.01953125 153.30664062 C93.41496094 152.31857422 92.81039062 151.33050781 92.1875 150.3125 C86.99586817 141.85113851 81.77193223 133.41156175 76.5 125 C70.60991579 115.60083048 64.78445762 106.16346869 58.98046875 96.7109375 C54.52004053 89.45299798 50.02354933 82.21874647 45.5 75 C40.25390476 66.62714343 35.04859917 58.23034992 29.875 49.8125 C29.20847412 48.72807617 28.54194824 47.64365234 27.85522461 46.52636719 C26.53837803 44.38364685 25.2215643 42.24090631 23.90478516 40.09814453 C20.96238722 35.31231657 18.01547872 30.52930668 15.0625 25.75 C14.5368042 24.89857422 14.0111084 24.04714844 13.46948242 23.16992188 C9.57960052 16.88887585 5.58443501 10.68344472 1.51171875 4.51953125 C0 2 0 2 0 0 Z " fill="#9F885E" transform="translate(3276,742)"/>
<path d="M0 0 C11.55 0 23.1 0 35 0 C35 103.62 35 207.24 35 314 C79.55 314 124.1 314 170 314 C170 325.55 170 337.1 170 349 C113.9 349 57.8 349 0 349 C0 233.83 0 118.66 0 0 Z " fill="#CDB983" transform="translate(2301,742)"/>
</svg>
