<?xml version="1.0" encoding="UTF-8"?>
<svg version="1.1" xmlns="http://www.w3.org/2000/svg" width="2362" height="1033">
<path d="M0 0 C2.19359923 -0.00390433 4.38719772 -0.00824244 6.58079529 -0.01298523 C11.14999861 -0.02038485 15.71912459 -0.02020301 20.28833008 -0.01489258 C24.91440564 -0.01026528 29.54021811 -0.01717186 34.16625977 -0.03540039 C98.42902275 -0.2864177 159.83690012 7.40543249 212.68359375 47.30078125 C213.97523438 48.25404297 213.97523438 48.25404297 215.29296875 49.2265625 C229.76262787 60.43830147 243.291313 74.22252664 253.68359375 89.30078125 C254.28059082 90.14721191 254.28059082 90.14721191 254.88964844 91.01074219 C279.99362569 126.66425074 293.12454377 167.77548339 299.93359375 210.55078125 C300.08481689 211.49381104 300.23604004 212.43684082 300.3918457 213.40844727 C303.3226975 233.12012191 304.06029915 252.83706908 303.99609375 272.73828125 C303.99335953 274.50751953 303.99335953 274.50751953 303.99057007 276.3125 C303.94173366 295.14712819 303.31539026 313.63131565 300.68359375 332.30078125 C300.50666992 333.56132324 300.32974609 334.82186523 300.14746094 336.12060547 C295.07445136 371.06654447 286.43246049 405.54641958 270.68359375 437.30078125 C270.30267578 438.08420898 269.92175781 438.86763672 269.52929688 439.67480469 C244.78098632 490.26265745 200.84438154 530.32930595 147.62109375 549.05078125 C144.31944698 550.16946356 141.00529807 551.24334816 137.68359375 552.30078125 C136.97509277 552.53249023 136.2665918 552.76419922 135.53662109 553.00292969 C118.05640356 558.6459864 99.06745852 561.77728067 80.77319336 563.06347656 C78.62679733 563.18608331 78.62679733 563.18608331 76.68359375 564.30078125 C73.58181191 564.39960904 70.50244723 564.43703545 67.40039062 564.43017578 C66.43770767 564.4319281 65.47502472 564.43368042 64.48316956 564.43548584 C61.28954281 564.43990006 58.09597109 564.43696786 54.90234375 564.43359375 C52.69038889 564.43426691 50.4784341 564.43523704 48.26647949 564.43649292 C43.62605079 564.43796931 38.98564131 564.43581721 34.34521484 564.43115234 C28.38620219 564.4254551 22.42723457 564.42873442 16.46822357 564.43472481 C11.89930886 564.43833199 7.33040489 564.4371911 2.76148987 564.43459702 C0.56376643 564.43392818 -1.63395798 564.43475465 -3.8316803 564.43707657 C-6.89888099 564.43960565 -9.96600795 564.43575883 -13.03320312 564.43017578 C-13.9485936 564.43220001 -14.86398407 564.43422424 -15.80711365 564.43630981 C-22.08787883 564.41504496 -22.08787883 564.41504496 -24.31640625 563.30078125 C-26.30882652 563.02059137 -28.30780119 562.78652523 -30.30859375 562.57421875 C-80.6933083 556.89102323 -128.30888065 540.20764571 -166.05859375 505.37109375 C-168.08115879 503.51649259 -170.15124609 501.75042964 -172.25390625 499.98828125 C-225.26271702 453.45950547 -246.60783055 375.00419802 -251.31640625 307.30078125 C-255.2465098 243.13828297 -249.5336618 175.70813764 -218.31640625 118.30078125 C-217.97818848 117.66060059 -217.6399707 117.02041992 -217.29150391 116.36083984 C-202.77765181 88.89325656 -182.36291165 64.71017728 -157.31640625 46.30078125 C-156.25679687 45.51960938 -155.1971875 44.7384375 -154.10546875 43.93359375 C-145.86355656 38.05232801 -137.23241736 33.07657183 -128.31640625 28.30078125 C-127.1975 27.69363281 -126.07859375 27.08648437 -124.92578125 26.4609375 C-103.66054777 15.34960105 -80.70144947 8.84497731 -57.19140625 4.55078125 C-56.10915771 4.35202393 -55.02690918 4.1532666 -53.91186523 3.94848633 C-35.98561588 0.84573837 -18.16675224 -0.01375152 0 0 Z M3.68359375 33.30078125 C3.35359375 197.64078125 3.02359375 361.98078125 2.68359375 531.30078125 C18.85359375 531.30078125 35.02359375 531.30078125 51.68359375 531.30078125 C51.68359375 366.96078125 51.68359375 202.62078125 51.68359375 33.30078125 C35.84359375 33.30078125 20.00359375 33.30078125 3.68359375 33.30078125 Z " fill="#007B85" transform="translate(1389.31640625,346.69921875)"/>
<path d="M0 0 C3.54292865 0.01758006 7.08583623 0.01140718 10.62879634 0.0083909 C16.73992591 0.00631246 22.85088219 0.01866127 28.96196818 0.04134226 C37.79710164 0.07411173 46.63215291 0.08429449 55.46734054 0.08929422 C69.80831578 0.0980082 84.14919905 0.12451685 98.49012446 0.16250467 C112.4054845 0.19932645 126.32081926 0.22754221 140.23621821 0.24453592 C141.53998812 0.24614391 141.53998812 0.24614391 142.8700968 0.24778438 C149.66954863 0.25610404 156.46900101 0.26393105 163.2684536 0.27160263 C196.48874997 0.30920959 229.70881559 0.38971256 262.92908931 0.46426249 C262.92908931 83.29426249 262.92908931 166.12426249 262.92908931 251.46426249 C259.5560017 250.33989995 258.77785833 249.39083516 256.55408931 246.71426249 C254.45133305 244.22309902 252.35328831 241.8365772 249.99158931 239.58926249 C247.92908931 237.46426249 247.92908931 237.46426249 247.92908931 235.46426249 C247.26908931 235.46426249 246.60908931 235.46426249 245.92908931 235.46426249 C244.44862056 233.96035624 244.44862056 233.96035624 242.74158931 231.90176249 C240.39629172 229.13887568 238.02079526 226.49746492 235.42908931 223.96426249 C233.07825572 221.65809127 230.86785025 219.28994359 228.72205806 216.79238749 C224.83901871 212.32642961 220.80771427 208.01328287 216.74158931 203.71426249 C216.04356196 202.97305155 215.34553462 202.23184061 214.62635493 201.46816874 C210.73821625 197.335491 210.73821625 197.335491 206.7013061 193.35000467 C204.92908931 191.46426249 204.92908931 191.46426249 204.92908931 189.46426249 C204.26908931 189.46426249 203.60908931 189.46426249 202.92908931 189.46426249 C201.44862056 187.96035624 201.44862056 187.96035624 199.74158931 185.90176249 C197.39629172 183.13887568 195.02079526 180.49746492 192.42908931 177.96426249 C189.99519199 175.57373082 187.71553372 173.11379986 185.49158931 170.52676249 C183.07291152 167.71849901 180.57009248 165.06455656 177.92908931 162.46426249 C174.65706803 159.24267699 171.63592876 155.87834103 168.64393306 152.39785624 C166.42861551 149.89994693 164.0601076 147.5840126 161.67908931 145.24551249 C159.22274082 142.74530063 156.96599563 140.08745733 154.67908931 137.43301249 C152.99110645 135.53403177 151.24139197 133.7442026 149.42908931 131.96426249 C147.01576214 129.59383891 144.75637078 127.15689941 142.55408931 124.58926249 C139.96274726 121.57958719 137.25654148 118.75337633 134.42908931 115.96426249 C130.97860025 112.56055972 127.76271537 109.03987259 124.60877681 105.36269999 C122.40743537 102.87467223 120.04820416 100.57232171 117.67908931 98.24551249 C115.22274082 95.74530063 112.96599563 93.08745733 110.67908931 90.43301249 C108.99110645 88.53403177 107.24139197 86.7442026 105.42908931 84.96426249 C102.99519199 82.57373082 100.71553372 80.11379986 98.49158931 77.52676249 C96.07291152 74.71849901 93.57009248 72.06455656 90.92908931 69.46426249 C87.66541846 66.2508987 84.64850303 62.89929764 81.67127681 59.42129374 C79.31741492 56.7771574 76.78613066 54.34014772 74.21424556 51.90957499 C72.92908931 50.46426249 72.92908931 50.46426249 72.92908931 48.46426249 C72.26908931 48.46426249 71.60908931 48.46426249 70.92908931 48.46426249 C69.37830806 46.89004374 69.37830806 46.89004374 67.61658931 44.77676249 C65.49264247 42.26623955 63.37407587 39.85602827 60.99158931 37.58926249 C58.92908931 35.46426249 58.92908931 35.46426249 58.92908931 33.46426249 C58.26908931 33.46426249 57.60908931 33.46426249 56.92908931 33.46426249 C55.44862056 31.96035624 55.44862056 31.96035624 53.74158931 29.90176249 C51.39629172 27.13887568 49.02079526 24.49746492 46.42908931 21.96426249 C43.97460443 19.55360769 41.6746687 17.07073857 39.42908931 14.46426249 C38.2640879 13.12947388 37.09740933 11.79614732 35.92908931 10.46426249 C35.02803462 9.42592264 35.02803462 9.42592264 34.10877681 8.36660624 C33.2154565 7.39400858 33.2154565 7.39400858 32.30408931 6.40176249 C31.77557368 5.81266092 31.24705806 5.22355936 30.70252681 4.61660624 C28.94459751 3.22454334 28.94459751 3.22454334 26.52674556 3.60879374 C16.32542155 6.96832751 7.88199712 14.03203167 2.92908931 23.46426249 C0.18856385 31.68583886 1.68589815 39.71052772 5.26112056 47.40176249 C12.84678781 61.32954499 23.68901825 73.26557839 34.57703853 84.68325663 C37.92908931 88.24964704 37.92908931 88.24964704 37.92908931 90.46426249 C38.58908931 90.46426249 39.24908931 90.46426249 39.92908931 90.46426249 C41.3941772 91.93520975 41.3941772 91.93520975 43.08924556 93.96816874 C46.72334939 98.2403285 50.50913124 102.33145246 54.36658931 106.40176249 C55.77937709 107.89783039 57.1921367 109.39392491 58.60487056 110.89004374 C59.32110591 111.64752909 60.03734126 112.40501444 60.77528071 113.18545389 C64.20629348 116.81559141 67.63056946 120.45205958 71.05408931 124.08926249 C71.71562007 124.79204325 72.37715083 125.49482401 73.05872798 126.21890116 C82.19538348 135.93017496 91.29179411 145.67777158 100.3250854 155.48525858 C105.56117699 161.16271976 110.85003194 166.79043093 116.13612056 172.42129374 C119.76137748 176.28348345 123.37815193 180.15351555 126.99158931 184.02676249 C127.55708491 184.63278299 128.12258052 185.2388035 128.70521235 185.86318827 C131.74212077 189.11828402 134.777488 192.37480994 137.81190181 195.63223124 C138.44861812 196.31535379 139.08533442 196.99847635 139.74134517 197.70229959 C140.9613723 199.01127546 142.18095973 200.32066132 143.40003657 201.63052225 C143.94974116 202.22018778 144.49944575 202.80985331 145.06580806 203.41738749 C145.5475146 203.93462381 146.02922114 204.45186014 146.52552485 204.9847703 C147.51954393 206.03256219 148.55169618 207.04477074 149.60804439 208.02969217 C150.92908931 209.46426249 150.92908931 209.46426249 150.92908931 211.46426249 C151.58908931 211.46426249 152.24908931 211.46426249 152.92908931 211.46426249 C154.36561275 212.90444803 154.36561275 212.90444803 156.03846431 214.91348124 C159.94509071 219.50730954 164.03522734 223.89710241 168.17908931 228.27676249 C169.23869868 229.40114725 169.23869868 229.40114725 170.31971431 230.54824686 C173.90702464 234.38838308 173.90702464 234.38838308 177.650769 238.07241678 C178.92908931 239.46426249 178.92908931 239.46426249 178.92908931 241.46426249 C179.58908931 241.46426249 180.24908931 241.46426249 180.92908931 241.46426249 C182.37879634 242.91982889 182.37879634 242.91982889 184.06190181 244.94082499 C187.83739289 249.38039624 191.79160359 253.61424592 195.80408931 257.83926249 C200.86812636 263.19508811 205.89215002 268.57453547 210.79237056 274.08144999 C212.83970485 276.3645833 214.91869391 278.61599494 217.00452876 280.86392069 C221.79412506 286.03438634 226.33687731 291.3334724 230.75721431 296.82754374 C232.8666528 299.38846277 235.05796579 301.83549703 237.30408931 304.27676249 C242.86815201 310.40012438 247.89634205 316.90429015 252.92908931 323.46426249 C253.41812739 324.09638651 253.90716548 324.72851053 254.4110229 325.37978983 C274.83953114 351.82568857 291.72160762 380.26424753 297.92908931 413.46426249 C298.09755366 414.09735331 298.26601802 414.73044413 298.43958735 415.38271952 C300.21541271 422.24254199 300.19105406 428.90970723 300.11658931 435.96426249 C300.11594478 437.15535624 300.11530025 438.34644999 300.11463618 439.57363749 C300.06968741 448.32366438 300.06968741 448.32366438 298.92908931 449.46426249 C298.63289363 451.20094937 298.34244936 452.93881123 298.08094478 454.68105936 C294.55978151 477.72314645 285.28928261 497.93209615 269.92908931 515.46426249 C269.21237056 516.28281717 268.49565181 517.10137186 267.75721431 517.94473124 C261.30847397 524.79348742 253.6439954 530.14696582 245.92908931 535.46426249 C245.097644 536.04176249 244.26619868 536.61926249 243.40955806 537.21426249 C213.65147283 556.39285332 178.66653973 557.94306813 144.47544861 558.16034293 C141.69249955 558.1794159 138.90964279 558.20377241 136.12674975 558.22971773 C81.08336906 558.73861395 26.03483917 558.32626779 -29.00841069 558.02676249 C-65.32903569 557.84113749 -101.64966069 557.65551249 -139.07091069 557.46426249 C-139.07091069 475.29426249 -139.07091069 393.12426249 -139.07091069 308.46426249 C-135.74929441 309.57146791 -135.0428583 310.39067916 -132.86387944 313.01504374 C-129.17250891 317.3647232 -125.30958312 321.51423633 -121.38341069 325.65176249 C-115.81146485 331.54520421 -110.27081578 337.46421437 -104.78892827 343.44155741 C-102.98238425 345.40865435 -101.18712504 347.35426947 -99.24669194 349.19082499 C-98.07091069 350.46426249 -98.07091069 350.46426249 -98.07091069 352.46426249 C-97.41091069 352.46426249 -96.75091069 352.46426249 -96.07091069 352.46426249 C-94.61021733 353.93081522 -94.61021733 353.93081522 -92.91856694 355.96035624 C-89.24405297 360.28035445 -85.41015931 364.41222639 -81.50841069 368.52676249 C-80.09540042 370.02262026 -78.68264484 371.51871866 -77.27012944 373.01504374 C-76.56678472 373.75963846 -75.86343999 374.50423319 -75.13878179 375.27139139 C-64.74766343 386.29063875 -54.46992416 397.41595243 -44.21934819 408.56582499 C-37.83613644 415.50268817 -31.39249378 422.37983976 -24.92344975 429.23672342 C-20.22666181 434.22074924 -15.58860922 439.25237944 -10.97325444 444.31191874 C-6.72224371 448.9492478 -2.38991626 453.51082339 1.9278686 458.08584452 C6.72469495 463.17253533 11.48619777 468.28984255 16.21204829 473.44253397 C18.01822639 475.4093476 19.81320707 477.3545838 21.75330806 479.19082499 C22.92908931 480.46426249 22.92908931 480.46426249 22.92908931 482.46426249 C23.58908931 482.46426249 24.24908931 482.46426249 24.92908931 482.46426249 C26.40296626 483.94399881 26.40296626 483.94399881 28.10487056 485.98379374 C31.65729826 490.16058196 35.35096106 494.16743354 39.11658931 498.15176249 C43.74466584 503.06766608 48.35879025 507.99457904 52.92908931 512.96426249 C58.03034815 518.50828189 63.17977035 524.00596674 68.33851314 529.49648905 C72.94673503 534.40510491 77.52466945 539.34050543 82.07362056 544.30410624 C84.08773435 546.49661296 86.11071084 548.63827842 88.26112056 550.69863749 C89.92908931 552.46426249 89.92908931 552.46426249 89.92908931 554.46426249 C98.78780082 553.33135444 105.77426955 545.2169885 111.30018306 538.67519999 C116.12921181 532.12069093 116.72419598 525.44892526 115.92908931 517.46426249 C112.8131023 499.47013931 97.84216627 484.42715082 85.92908931 471.46426249 C84.79969002 470.17644067 83.67450431 468.88490827 82.55408931 467.58926249 C77.78492871 462.11843228 72.84778711 456.80018582 67.92908931 451.46426249 C66.96812369 450.42001752 66.00718616 449.37574672 65.04627681 448.33144999 C56.78193229 439.35750554 48.45533907 430.44193617 40.1219604 421.53213358 C34.21900165 415.22064348 28.32014171 408.9071305 22.49158931 402.52676249 C18.17502028 397.80332981 13.81106755 393.12703833 9.42908931 388.46426249 C4.15547495 382.85271439 -1.07313121 377.20515456 -6.26622319 371.51894999 C-10.08284989 367.3506111 -13.94932876 363.2287548 -17.80943608 359.10073709 C-21.57807752 355.06874853 -25.33186782 351.02370535 -29.07091069 346.96426249 C-33.38574863 342.28017885 -37.7221504 337.6168663 -42.07091069 332.96426249 C-46.91051866 327.78651597 -51.72996909 322.59106006 -56.53184819 317.37832499 C-60.36142526 313.22455092 -64.21300038 309.09172112 -68.07091069 304.96426249 C-72.9069808 299.79030102 -77.72403815 294.59966823 -82.52086186 289.38931131 C-85.84248848 285.78485203 -89.18525622 282.20087335 -92.53648686 278.62393045 C-97.81572261 272.98669763 -103.05677907 267.34019799 -108.07091069 261.46426249 C-109.27747319 260.09334452 -109.27747319 260.09334452 -110.50841069 258.69473124 C-139.21964898 225.80249678 -154.38407627 189.44883066 -152.07091069 145.46426249 C-148.993292 101.94302965 -131.04123049 59.64682059 -98.07091069 30.46426249 C-69.51577886 6.20446598 -36.55933219 -0.22849417 0 0 Z " fill="#007B85" transform="translate(1940.070910692215,349.53573751449585)"/>
<path d="M0 0 C1.0956236 -0.00085442 2.1912472 -0.00170885 3.32007152 -0.00258917 C6.96191797 -0.00422577 10.60371754 0.00124741 14.24555969 0.00672913 C16.86783853 0.00701142 19.49011745 0.00685244 22.11239624 0.00628662 C27.74292161 0.00576423 33.37343531 0.00888114 39.00395775 0.01452446 C47.14458033 0.02267824 55.28519732 0.02525864 63.42582355 0.02651245 C76.63592108 0.02869689 89.8460124 0.03534046 103.05610657 0.04481506 C115.88260365 0.05400493 128.70909904 0.06106658 141.53559875 0.06532288 C142.33530659 0.06559087 143.13501442 0.06585887 143.95895582 0.06613499 C150.21391436 0.06821461 156.46887294 0.07017147 162.72383153 0.07208955 C193.34216393 0.08151006 223.96048079 0.10163149 254.57881165 0.12025452 C255.07381165 127.83025452 255.07381165 127.83025452 255.57881165 258.12025452 C252.28791285 257.02328825 251.61084447 256.27223596 249.45381165 253.68275452 C246.71049269 250.44749018 243.92649813 247.26437253 241.07881165 244.12025452 C238.42767171 241.18346987 235.79590994 238.2342291 233.20381165 235.24525452 C229.75029603 231.27772728 226.18877225 227.41177811 222.62617493 223.5426178 C219.51296121 220.15580891 216.46636626 216.72127908 213.45381165 213.24525452 C211.03331023 210.50201958 208.55676987 207.81144209 206.07881165 205.12025452 C202.43464224 201.16165729 198.83967385 197.1684862 195.31318665 193.10462952 C191.78381699 189.0665219 188.17310534 185.10051263 184.57881165 181.12025452 C176.00707869 171.62806702 176.00707869 171.62806702 172.20381165 167.24525452 C168.75029603 163.27772728 165.18877225 159.41177811 161.62617493 155.5426178 C158.51296121 152.15580891 155.46636626 148.72127908 152.45381165 145.24525452 C150.03331023 142.50201958 147.55676987 139.81144209 145.07881165 137.12025452 C141.43339715 133.16030477 137.83759868 129.16541298 134.3092804 125.10072327 C129.1129348 119.15366409 123.77358442 113.33166683 118.45381165 107.49525452 C115.65123784 104.41715886 112.8691329 101.32723582 110.14131165 98.18275452 C107.17997654 94.77336871 104.13728678 91.44231142 101.07881165 88.12025452 C97.43466836 84.16163266 93.83967447 80.16848692 90.31318665 76.10462952 C86.78380451 72.06650761 83.17246939 68.10110771 79.57881165 64.12025452 C78.07852486 62.45384601 76.57852292 60.78718099 75.07881165 59.12025452 C73.96506165 57.88275452 73.96506165 57.88275452 72.82881165 56.62025452 C57.07881165 39.12025452 57.07881165 39.12025452 54.83662415 36.62806702 C53.3117292 34.93432557 51.78565763 33.24164283 50.25849915 31.54994202 C46.86008232 27.78288337 43.47064555 24.01109865 40.14131165 20.18275452 C33.04204546 11.98306573 33.04204546 11.98306573 25.57881165 4.12025452 C25.57881165 166.81025452 25.57881165 329.50025452 25.57881165 497.12025452 C80.23822491 502.58619584 130.37784248 478.57716417 172.19892883 444.74720764 C173.66313443 443.54336748 175.12113187 442.33198832 176.57881165 441.12025452 C177.50822571 440.38033264 178.43763977 439.64041077 179.3952179 438.87806702 C190.52798972 429.97818399 200.69329157 420.10468313 210.79914856 410.07514954 C211.8020995 409.08024237 212.80652587 408.08681986 213.81257629 407.095047 C220.53935973 400.45366604 226.71233582 393.5356706 232.57881165 386.12025452 C233.63924091 384.81908499 234.70150136 383.51940378 235.76631165 382.22181702 C241.48607678 375.17033576 246.84940242 368.02710262 251.83662415 360.43666077 C252.41154602 359.6722467 252.9864679 358.90783264 253.57881165 358.12025452 C254.23881165 358.12025452 254.89881165 358.12025452 255.57881165 358.12025452 C255.24881165 391.12025452 254.91881165 424.12025452 254.57881165 458.12025452 C253.91881165 458.12025452 253.25881165 458.12025452 252.57881165 458.12025452 C252.24881165 459.11025452 251.91881165 460.10025452 251.57881165 461.12025452 C250.2233429 462.48744202 250.2233429 462.48744202 248.39131165 463.99525452 C245.02631785 466.84162919 241.7798623 469.77874421 238.57124329 472.79798889 C232.12455863 478.86012222 225.57932154 484.697802 218.57881165 490.12025452 C217.88577942 490.65876038 217.19274719 491.19726624 216.47871399 491.75209045 C170.60762834 527.21237544 119.86924665 552.59877881 61.8717804 559.75062561 C59.55711173 560.00645078 59.55711173 560.00645078 57.57881165 561.12025452 C56.04728852 561.21515367 54.51170893 561.24819957 52.97724915 561.24964905 C51.54566467 561.25437729 51.54566467 561.25437729 50.0851593 561.25920105 C49.05181458 561.25717682 48.01846985 561.25515259 46.95381165 561.25306702 C45.89597473 561.25402374 44.83813782 561.25498047 43.74824524 561.25596619 C41.50882406 561.25664753 39.26940092 561.25479645 37.02998352 561.25062561 C33.59308964 561.24527674 30.15632644 561.25057218 26.71943665 561.25697327 C24.54756136 561.25631248 22.37568615 561.2550313 20.20381165 561.25306702 C18.65379456 561.25610336 18.65379456 561.25610336 17.07246399 561.25920105 C16.11807434 561.25604889 15.16368469 561.25289673 14.18037415 561.24964905 C13.33813293 561.24885345 12.49589172 561.24805786 11.62812805 561.24723816 C9.57881165 561.12025452 9.57881165 561.12025452 7.57881165 560.12025452 C5.97436394 559.89981704 4.36330015 559.72669397 2.75068665 559.57728577 C-47.98999798 554.52341662 -97.02637071 539.64083651 -138.42118835 509.12025452 C-138.99659363 508.70034241 -139.5719989 508.2804303 -140.1648407 507.84779358 C-147.41187678 502.53233224 -154.12854169 496.82000666 -160.6672821 490.66322327 C-162.6025274 488.87620952 -164.52709634 487.18886737 -166.56181335 485.52650452 C-168.87580949 483.57920722 -170.80040651 481.73570782 -172.73368835 479.43275452 C-175.29076656 476.42344195 -177.91775544 473.5103359 -180.60868835 470.62025452 C-215.75675725 431.48079474 -235.75920415 380.45536195 -244.42118835 329.12025452 C-244.61728699 328.03051331 -244.81338562 326.94077209 -245.01542664 325.81800842 C-251.51185612 288.8632579 -250.73692923 249.87869488 -243.42118835 213.12025452 C-243.19656921 211.97959534 -242.97195007 210.83893616 -242.74052429 209.66371155 C-238.07188953 186.7724507 -230.76904345 164.08701119 -220.42118835 143.12025452 C-219.9843573 142.2288678 -219.54752625 141.33748108 -219.09745789 140.41908264 C-208.47570457 118.93491836 -195.77800724 99.05939205 -179.50712585 81.38978577 C-177.5796416 79.29265402 -175.71357478 77.15649097 -173.85868835 74.99525452 C-167.02162832 67.18817681 -159.52336726 60.59058613 -151.42118835 54.12025452 C-150.62970398 53.46154358 -149.8382196 52.80283264 -149.02275085 52.12416077 C-108.04939512 18.29732057 -52.89495823 -0.15362129 0 0 Z " fill="#007B85" transform="translate(371.4211883544922,349.87974548339844)"/>
<path d="M0 0 C-0.33 75.24 -0.66 150.48 -1 228 C25.73 228 52.46 228 80 228 C80 252.42 80 276.84 80 302 C40.895 302.495 40.895 302.495 1 303 C1 462.06 1 621.12 1 785 C-74.57 785 -150.14 785 -228 785 C-228 625.61 -228 466.22 -228 302 C-250.77 302 -273.54 302 -297 302 C-297 301.34 -297 300.68 -297 300 C-295.70922852 298.72827148 -295.70922852 298.72827148 -293.81640625 297.18359375 C-288.13914239 292.35360809 -282.9299584 287.0796881 -277.67260742 281.80297852 C-275.941053 280.066064 -274.20421641 278.33456111 -272.46679688 276.60351562 C-271.34082512 275.47688294 -270.21516367 274.34994002 -269.08984375 273.22265625 C-268.58235092 272.71718765 -268.07485809 272.21171906 -267.55198669 271.69093323 C-264.83440042 268.95601297 -262.24707072 266.1552468 -259.73461914 263.23022461 C-255.44363701 258.28131858 -250.80766991 253.70143081 -246.15625 249.09375 C-244.7380835 247.68137068 -243.31991993 246.26898839 -241.90192413 244.85643768 C-238.93933555 241.90687976 -235.97215979 238.96193688 -233.00579834 236.01617432 C-230.55418969 233.58122894 -228.10362669 231.14525184 -225.65563965 228.70666504 C-223.82931571 226.88779387 -222.00074639 225.07117348 -220.16955566 223.25720215 C-215.86830925 218.97291502 -211.74920457 214.62231152 -207.79382324 210.01867676 C-204.23869682 206.01791966 -200.39560884 202.2954938 -196.59375 198.53125 C-195.71021851 197.65150513 -194.82668701 196.77176025 -193.91638184 195.86535645 C-190.6402768 192.60343055 -187.3596502 189.34607436 -184.07867432 186.08905029 C-180.85169462 182.8851274 -177.6286192 179.67730884 -174.40625 176.46875 C-173.56751343 175.63831177 -172.72877686 174.80787354 -171.86462402 173.95227051 C-168.29510835 170.39753543 -164.79786187 166.83421357 -161.51318359 163.01318359 C-157.37866025 158.20576841 -152.88599868 153.7799227 -148.3828125 149.3203125 C-147.0361702 147.97935013 -147.0361702 147.97935013 -145.662323 146.61129761 C-142.81897215 143.78008209 -139.97248243 140.95205831 -137.125 138.125 C-133.35377311 134.38060559 -129.5861326 130.63264673 -125.8203125 126.8828125 C-124.95060822 126.02140656 -124.08090393 125.16000061 -123.18484497 124.27249146 C-122.38666351 123.47761322 -121.58848206 122.68273499 -120.76611328 121.86376953 C-120.06108673 121.1639798 -119.35606018 120.46419006 -118.62966919 119.74319458 C-116.92335696 118.08349363 -116.92335696 118.08349363 -116 116 C-115.34 116 -114.68 116 -114 116 C-114 115.34 -114 114.68 -114 114 C-113.319375 113.46375 -112.63875 112.9275 -111.9375 112.375 C-109.55247978 110.44668578 -107.85361704 108.75546763 -105.90429688 106.44335938 C-101.69294797 101.57305823 -97.16717158 97.0594228 -92.59375 92.53125 C-91.71021851 91.65150513 -90.82668701 90.77176025 -89.91638184 89.86535645 C-86.6402768 86.60343055 -83.3596502 83.34607436 -80.07867432 80.08905029 C-76.85169462 76.8851274 -73.6286192 73.67730884 -70.40625 70.46875 C-69.56751343 69.63831177 -68.72877686 68.80787354 -67.86462402 67.95227051 C-64.29527012 64.39769654 -60.79816774 60.83455765 -57.51367188 57.01367188 C-53.37650239 52.20335 -48.88090197 47.77495431 -44.375 43.3125 C-43.46927246 42.41055908 -42.56354492 41.50861816 -41.63037109 40.5793457 C-38.27078694 37.23394556 -34.90668738 33.89311608 -31.54223633 30.5526123 C-28.23365649 27.267082 -24.92897519 23.97766209 -21.625 20.6875 C-20.33408447 19.40903198 -20.33408447 19.40903198 -19.01708984 18.10473633 C-14.66625064 13.77147194 -10.46701786 9.37909224 -6.48583984 4.70239258 C-2.3816148 0 -2.3816148 0 0 0 Z " fill="#007B85" transform="translate(1004,122)"/>
<path d="M0 0 C77.55 0 155.1 0 235 0 C235 82.83 235 165.66 235 251 C231.62691239 249.87563746 230.84876903 248.92657267 228.625 246.25 C226.52224374 243.75883654 224.424199 241.37231472 222.0625 239.125 C220 237 220 237 220 235 C219.34 235 218.68 235 218 235 C216.51953125 233.49609375 216.51953125 233.49609375 214.8125 231.4375 C212.46720242 228.6746132 210.09170595 226.03320243 207.5 223.5 C205.14916641 221.19382879 202.93876094 218.82568111 200.79296875 216.328125 C196.90992941 211.86216712 192.87862496 207.54902038 188.8125 203.25 C187.76545898 202.13818359 187.76545898 202.13818359 186.69726562 201.00390625 C182.80912694 196.87122852 182.80912694 196.87122852 178.7722168 192.88574219 C177 191 177 191 177 189 C176.34 189 175.68 189 175 189 C173.51953125 187.49609375 173.51953125 187.49609375 171.8125 185.4375 C169.46720242 182.6746132 167.09170595 180.03320243 164.5 177.5 C162.06610268 175.10946833 159.78644441 172.64953738 157.5625 170.0625 C155.14382221 167.25423653 152.64100317 164.60029407 150 162 C146.72797872 158.7784145 143.70683945 155.41407855 140.71484375 151.93359375 C138.4995262 149.43568444 136.1310183 147.11975011 133.75 144.78125 C131.29365151 142.28103815 129.03690632 139.62319484 126.75 136.96875 C125.06201714 135.06976929 123.31230266 133.27994012 121.5 131.5 C119.08667283 129.12957643 116.82728147 126.69263692 114.625 124.125 C112.03365795 121.1153247 109.32745217 118.28911384 106.5 115.5 C103.04951094 112.09629724 99.83362606 108.57561011 96.6796875 104.8984375 C94.47834607 102.41040974 92.11911485 100.10805923 89.75 97.78125 C87.29365151 95.28103815 85.03690632 92.62319484 82.75 89.96875 C81.06201714 88.06976929 79.31230266 86.27994012 77.5 84.5 C75.06610268 82.10946833 72.78644441 79.64953738 70.5625 77.0625 C68.14382221 74.25423653 65.64100317 71.60029407 63 69 C59.73632915 65.78663622 56.71941372 62.43503516 53.7421875 58.95703125 C51.38832561 56.31289491 48.85704135 53.87588523 46.28515625 51.4453125 C45 50 45 50 45 48 C44.34 48 43.68 48 43 48 C41.44921875 46.42578125 41.44921875 46.42578125 39.6875 44.3125 C37.56355316 41.80197706 35.44498656 39.39176579 33.0625 37.125 C31 35 31 35 31 33 C30.34 33 29.68 33 29 33 C27.51953125 31.49609375 27.51953125 31.49609375 25.8125 29.4375 C23.46720242 26.6746132 21.09170595 24.03320243 18.5 21.5 C15.43657607 18.49115823 12.63802575 15.31646525 9.84375 12.05859375 C7.20565543 9.11309409 4.3660025 6.39038568 1.50390625 3.6640625 C0 2 0 2 0 0 Z " fill="#F05D22" transform="translate(1968,350)"/>
</svg>
