<?xml version="1.0" encoding="UTF-8"?>
<svg version="1.1" xmlns="http://www.w3.org/2000/svg" width="591" height="126">
<path d="M0 0 C16.83 0 33.66 0 51 0 C52.61312338 4.83937013 53.24163445 7.09298756 53.125 11.875 C53.10695312 12.84179688 53.08890625 13.80859375 53.0703125 14.8046875 C53.04710937 15.52914062 53.02390625 16.25359375 53 17 C51.68 17 50.36 17 49 17 C48.0234375 15.20963542 47.046875 13.41927083 46.0703125 11.62890625 C45.08589976 9.83381685 45.08589976 9.83381685 43 9 C41.55151418 8.91657841 40.09929131 8.89267139 38.6484375 8.90234375 C37.79765625 8.90556641 36.946875 8.90878906 36.0703125 8.91210938 C35.18085938 8.92048828 34.29140625 8.92886719 33.375 8.9375 C32.02921875 8.94426758 32.02921875 8.94426758 30.65625 8.95117188 C28.43743352 8.96297409 26.21874982 8.97943845 24 9 C21.79050168 13.41029783 21.7629352 17.48940324 21.875 22.3125 C21.88402344 23.05306641 21.89304688 23.79363281 21.90234375 24.55664062 C21.92575787 26.37123467 21.96162385 28.18566071 22 30 C23.89575251 30.02721176 25.79161979 30.04649136 27.6875 30.0625 C28.74324219 30.07410156 29.79898438 30.08570312 30.88671875 30.09765625 C33.76050371 30.00751243 36.2467616 29.82597152 39 29 C40.37466625 26.52363988 40.37466625 26.52363988 41 24 C42.32 24 43.64 24 45 24 C45 30.6 45 37.2 45 44 C44.01 44.495 44.01 44.495 43 45 C40.23609263 42.59660228 39.95934081 41.83736322 39 38 C33.06 38 27.12 38 21 38 C21.08698113 41.25129459 21.19386458 44.4998372 21.3125 47.75 C21.33505859 48.67039063 21.35761719 49.59078125 21.38085938 50.5390625 C21.4340332 51.87324219 21.4340332 51.87324219 21.48828125 53.234375 C21.51446533 54.05131836 21.54064941 54.86826172 21.56762695 55.70996094 C22.10432528 58.55255287 22.96741304 59.95096069 25 62 C26.9124478 62.59296315 26.9124478 62.59296315 29.01953125 62.49609375 C30.18258789 62.49706055 30.18258789 62.49706055 31.36914062 62.49804688 C32.17544922 62.47806641 32.98175781 62.45808594 33.8125 62.4375 C34.60720703 62.44458984 35.40191406 62.45167969 36.22070312 62.45898438 C41.18447213 62.40561051 44.73557082 61.78652777 49 59 C49.70125 57.948125 50.4025 56.89625 51.125 55.8125 C51.74375 54.884375 52.3625 53.95625 53 53 C54.32 53 55.64 53 57 53 C57.23733045 58.57726547 56.57846031 63.63093061 55 69 C54 70 54 70 51.75376892 70.12025452 C50.76115555 70.11803391 49.76854218 70.11581329 48.74584961 70.11352539 C47.62476303 70.11344986 46.50367645 70.11337433 45.34861755 70.11329651 C43.51896202 70.10555458 43.51896202 70.10555458 41.65234375 70.09765625 C40.41078018 70.0962413 39.16921661 70.09482635 37.89002991 70.09336853 C34.58394509 70.08870591 31.27792854 70.07971497 27.97186279 70.06866455 C24.6003885 70.05844827 21.22890717 70.05387045 17.85742188 70.04882812 C11.23826225 70.03777395 4.61913507 70.02101736 -2 70 C-2.33 69.01 -2.66 68.02 -3 67 C-2 65 -2 65 1.4375 63.5625 C5.19068113 62.29809012 5.19068113 62.29809012 7 59 C7.30276886 56.73957242 7.30276886 56.73957242 7.25878906 54.20898438 C7.26509338 53.2378772 7.27139771 52.26677002 7.27789307 51.26623535 C7.2738446 50.21931519 7.26979614 49.17239502 7.265625 48.09375 C7.26753845 47.01750366 7.2694519 45.94125732 7.27142334 44.83239746 C7.27278483 42.55606859 7.26909092 40.27973194 7.26074219 38.00341797 C7.25004238 34.51382043 7.26063892 31.02473773 7.2734375 27.53515625 C7.2721159 25.32551969 7.26955349 23.11588346 7.265625 20.90625 C7.26967346 19.85932983 7.27372192 18.81240967 7.27789307 17.73376465 C7.27158875 16.76265747 7.26528442 15.79155029 7.25878906 14.79101562 C7.25719788 13.93624634 7.25560669 13.08147705 7.25396729 12.20080566 C7.13592674 9.71025859 7.13592674 9.71025859 5 7 C2.44816596 5.79549696 2.44816596 5.79549696 0 5 C0 3.35 0 1.7 0 0 Z " fill="#322F7B" transform="translate(130,25)"/>
<path d="M0 0 C7.80398107 5.6091114 14.52683795 12.47513207 16.25 22.1875 C17.17781119 32.95010984 15.38566796 42.16919539 9.25 51.1875 C8.59 51.1875 7.93 51.1875 7.25 51.1875 C6.92 52.1775 6.59 53.1675 6.25 54.1875 C5.59 54.1875 4.93 54.1875 4.25 54.1875 C4.25 54.8475 4.25 55.5075 4.25 56.1875 C-3.9041066 61.56179753 -13.95721509 64.4532341 -23.75 63.1875 C-29.0111361 62.06627427 -33.99292346 60.737914 -38.75 58.1875 C-38.75 57.5275 -38.75 56.8675 -38.75 56.1875 C-39.62978516 55.80658203 -39.62978516 55.80658203 -40.52734375 55.41796875 C-42.99431831 54.0522447 -44.45586574 52.614154 -46.3125 50.5 C-46.89128906 49.85675781 -47.47007812 49.21351562 -48.06640625 48.55078125 C-52.39656046 42.47249054 -53.3067798 37.17484442 -53.25 29.875 C-53.24250732 28.61478027 -53.24250732 28.61478027 -53.23486328 27.32910156 C-53.04683953 20.63545598 -51.7917166 15.64381741 -47.75 10.1875 C-47.28078125 9.53652344 -46.8115625 8.88554688 -46.328125 8.21484375 C-35.38291332 -5.64320652 -15.12297882 -9.70765472 0 0 Z M-34.4375 6.75 C-40.47005367 14.70907888 -40.4257282 24.62245076 -39.75 34.1875 C-38.60426224 41.4820304 -35.26254398 47.33121126 -29.75 52.1875 C-23.84103122 56.46427111 -17.76796803 55.8601228 -10.75 55.1875 C-6.47158285 54.27704099 -4.629048 52.33006574 -2.00390625 48.91796875 C3.34153616 40.09119895 3.85136588 30.20596254 2.25 20.1875 C0.01613162 12.96921782 -3.3423189 7.27750921 -9.75 3.1875 C-18.48582669 -0.90377883 -27.4496068 0.08712509 -34.4375 6.75 Z " fill="#34307C" transform="translate(312.75,34.8125)"/>
<path d="M0 0 C0.45270264 1.28293945 0.45270264 1.28293945 0.91455078 2.59179688 C8.74858885 24.87217971 8.74858885 24.87217971 17 47 C17.36480469 47.97582031 17.72960937 48.95164063 18.10546875 49.95703125 C21.21114711 58.08415124 24.0917474 63.0458737 32 67 C32 68.32 32 69.64 32 71 C20.78 71 9.56 71 -2 71 C-1.67 69.35 -1.34 67.7 -1 66 C0.2375 65.5359375 0.2375 65.5359375 1.5 65.0625 C2.325 64.711875 3.15 64.36125 4 64 C5.80595153 58.82293894 4.6069503 56.62432604 3 51 C-4.59 51 -12.18 51 -20 51 C-23.38256139 57.46734138 -23.38256139 57.46734138 -22 64 C-19.06550592 66.01041003 -19.06550592 66.01041003 -16 67 C-16 68.32 -16 69.64 -16 71 C-25.57 71 -35.14 71 -45 71 C-45 69.35 -45 67.7 -45 66 C-43.046875 65.38151042 -41.09375 64.76302083 -39.140625 64.14453125 C-30.05183001 59.2850113 -25.72277515 43.66854688 -22.13598633 34.40356445 C-20.6710878 30.62478651 -19.06978697 26.96346039 -17.3125 23.3125 C-15.47928142 19.45005834 -14.50138097 15.88053235 -13.6875 11.6875 C-12.46590095 6.28859387 -10.58950725 3.94440949 -6.03515625 0.890625 C-4 0 -4 0 0 0 Z M-8 19 C-8.38671875 19.97839844 -8.7734375 20.95679687 -9.171875 21.96484375 C-11.76327297 28.49499999 -14.35361876 34.99857663 -17.3359375 41.36328125 C-18.12532059 43.01449451 -18.12532059 43.01449451 -18 45 C-11.73 45 -5.46 45 1 45 C-1.07660654 36.03780336 -3.78090361 27.60122197 -7 19 C-7.33 19 -7.66 19 -8 19 Z " fill="#302C7A" transform="translate(385,24)"/>
<path d="M0 0 C0.99 0 1.98 0 3 0 C5.82258888 6.86452873 8.35793579 13.78775002 10.75 20.8125 C13.50382004 28.77116365 16.27938021 36.72125559 19.1875 44.625 C19.4959082 45.49487549 19.80431641 46.36475098 20.12207031 47.26098633 C22.33923218 53.19712568 24.95964497 56.94570606 30.3125 60.5625 C30.869375 61.036875 31.42625 61.51125 32 62 C32 63.32 32 64.64 32 66 C22.1 66 12.2 66 2 66 C3 61 3 61 5.5625 59.1875 C6.7690625 58.5996875 6.7690625 58.5996875 8 58 C7.67 54.37 7.34 50.74 7 47 C-0.59 47 -8.18 47 -16 47 C-16.782223 50.12889199 -17.11433318 52.1400091 -17.0625 55.25 C-17.041875 56.4875 -17.02125 57.725 -17 59 C-15.02 59.99 -13.04 60.98 -11 62 C-11 63.32 -11 64.64 -11 66 C-20.24 66 -29.48 66 -39 66 C-38 62 -38 62 -36.07421875 60.76171875 C-34.49248931 60.04981107 -32.90916696 59.34143126 -31.32421875 58.63671875 C-28.11167754 56.37444183 -26.69683113 53.43970864 -25 50 C-24.68683838 49.37730225 -24.37367676 48.75460449 -24.05102539 48.11303711 C-23.07213875 46.12771448 -22.124778 44.13028966 -21.1875 42.125 C-20.84565674 41.39466553 -20.50381348 40.66433105 -20.15161133 39.91186523 C-13.38124872 25.3800798 -13.38124872 25.3800798 -8.375 10.1875 C-7.45404253 6.82972338 -7.00079017 6.00080944 -4.4375 3.375 C-2 2 -2 2 0 2 C0 1.34 0 0.68 0 0 Z M-4 18 C-4.23074219 18.59425781 -4.46148438 19.18851563 -4.69921875 19.80078125 C-6.96039245 25.54755868 -9.41264532 31.16416357 -12.046875 36.75 C-13.13001905 38.89967152 -13.13001905 38.89967152 -13 41 C-7.39 41 -1.78 41 4 41 C2.48526781 33.01323028 -0.16802552 25.59877122 -3 18 C-3.33 18 -3.66 18 -4 18 Z " fill="#34317C" transform="translate(559,29)"/>
<path d="M0 0 C5.25963506 1.84059339 9.96490708 4.34601468 14.68359375 7.2890625 C14.68359375 7.9490625 14.68359375 8.6090625 14.68359375 9.2890625 C15.34359375 9.2890625 16.00359375 9.2890625 16.68359375 9.2890625 C22.56346768 15.77494015 25.53684451 24.06689475 25.7421875 32.7734375 C25.32048865 37.97738074 23.68868635 42.49427584 21.68359375 47.2890625 C20.69359375 47.2890625 19.70359375 47.2890625 18.68359375 47.2890625 C18.43609375 46.4228125 18.18859375 45.5565625 17.93359375 44.6640625 C15.03522418 36.83846466 10.11109662 32.08709193 2.796875 28.31640625 C-0.9314678 26.85876339 -4.4537208 26.23725055 -8.43359375 26.01953125 C-19.88704313 25.34009973 -27.37973892 22.9106199 -35.31640625 14.2890625 C-36.4140625 12.25 -36.4140625 12.25 -36.31640625 10.2890625 C-33.72226067 6.89395953 -30.46441377 4.16769354 -27.31640625 1.2890625 C-26.53265625 0.4434375 -25.74890625 -0.4021875 -24.94140625 -1.2734375 C-17.36999827 -5.41968472 -7.77289037 -2.21173339 0 0 Z " fill="#ED2A2B" transform="translate(77.31640625,30.7109375)"/>
<path d="M0 0 C4.49676844 3.48416281 8.02265403 7.43785107 10.76171875 12.41796875 C7.42838542 15.08463542 4.09505208 17.75130208 0.76171875 20.41796875 C0.01664063 21.145 -0.7284375 21.87203125 -1.49609375 22.62109375 C-5.37706 25.16417705 -8.87482193 25.15967947 -13.42578125 25.41796875 C-23.71540063 26.27340492 -31.7143507 28.10905065 -39.4765625 35.3359375 C-42.53401158 38.94928642 -44.42129463 43.076419 -46.23828125 47.41796875 C-46.89828125 47.41796875 -47.55828125 47.41796875 -48.23828125 47.41796875 C-52.49709211 38.72999459 -52.98258351 29.18758393 -50.171875 19.890625 C-47.10479392 13.26338986 -43.16189463 8.63667659 -37.23828125 4.41796875 C-36.47515625 3.84046875 -35.71203125 3.26296875 -34.92578125 2.66796875 C-24.94313805 -1.97512111 -10.3396677 -5.0513455 0 0 Z " fill="#ED2C2D" transform="translate(53.23828125,1.58203125)"/>
<path d="M0 0 C2.34885586 4.88945506 2.33540295 9.79192851 1 15 C-1.1875 15 -1.1875 15 -4 14 C-5.4327502 12.04819958 -6.56725114 10.0534416 -7.69140625 7.91015625 C-9.25011945 5.63490027 -10.42924563 4.94277192 -13 4 C-16.85345749 3.79356478 -20.30833366 3.81866677 -24 5 C-24.84117489 7.69175965 -25.26106474 9.24837767 -25 12 C-21.45193181 18.51342445 -15.01833306 22.05482744 -8.953125 25.91796875 C-4.33100534 29.17668539 0.82087806 33.51623062 2.6875 39.03125 C3.80945114 46.09954215 3.02415177 51.07592084 -1 57 C-6.24414949 62.38982031 -12.50121718 64.16664738 -19.8125 64.375 C-25.74062151 64.17940208 -31.66805973 63.78757579 -37 61 C-40.83368219 56.2799173 -40.36063361 49.77013783 -40 44 C-36.79039959 44.31434231 -35.35477272 44.63002274 -33.0859375 46.99609375 C-32.52132813 47.80175781 -31.95671875 48.60742188 -31.375 49.4375 C-29.2970634 52.36635634 -28.03308059 53.97794627 -25 56 C-22.58712654 56.27923967 -22.58712654 56.27923967 -20 56.1875 C-19.13375 56.18105469 -18.2675 56.17460938 -17.375 56.16796875 C-14.85072535 56.08830437 -14.85072535 56.08830437 -12 55 C-11.72172885 53.44228648 -11.47858056 51.87827686 -11.25 50.3125 C-11.11078125 49.44238281 -10.9715625 48.57226562 -10.828125 47.67578125 C-11.0671984 43.95384316 -12.40610707 42.63216348 -15 40 C-16.9086293 38.59643973 -18.87142991 37.2643394 -20.875 36 C-21.93589844 35.30648437 -22.99679687 34.61296875 -24.08984375 33.8984375 C-25.05019531 33.27195313 -26.01054687 32.64546875 -27 32 C-32.67303536 28.27885407 -35.89104403 23.41474107 -38 17 C-38.29649334 12.66378495 -37.31571437 8.70514299 -35 5 C-34.34 5 -33.68 5 -33 5 C-32.773125 4.401875 -32.54625 3.80375 -32.3125 3.1875 C-30.39028583 -0.01619028 -27.77641945 -1.42246453 -24.2578125 -2.56640625 C-16.42581223 -4.07047551 -6.86067288 -4.35388856 0 0 Z " fill="#34307C" transform="translate(464,33)"/>
<path d="M0 0 C2.31321132 3.46981698 2.43728755 5.44665231 2.75 9.5625 C2.84796875 10.71878906 2.9459375 11.87507813 3.046875 13.06640625 C3 16 3 16 1 18 C-1.0078125 17.8984375 -1.0078125 17.8984375 -3 17 C-4.18140199 14.80346741 -4.88728534 12.58838253 -5.6796875 10.2265625 C-7.57617883 7.02833748 -9.55191287 6.29201373 -13 5 C-19.1363526 4.2259828 -24.96942304 4.05473142 -30.625 6.6875 C-31.40875 7.450625 -32.1925 8.21375 -33 9 C-34.0828125 10.051875 -34.0828125 10.051875 -35.1875 11.125 C-40.34305646 19.3027792 -41.27605813 28.77957872 -39.25 38.125 C-37.06285883 45.60653118 -33.92337763 51.94374631 -27 56 C-20.94539189 58.35568362 -15.93385012 58.39988356 -9.91015625 55.98828125 C-6.53547239 54.24227917 -4.53596833 52.33992083 -3.125 48.8125 C-2 47 -2 47 1.125 46.25 C2.07375 46.1675 3.0225 46.085 4 46 C5.30249153 49.59855032 4.69931441 51.58099473 3.25 55.0625 C2.90453125 55.91972656 2.5590625 56.77695313 2.203125 57.66015625 C0.94205974 60.11268252 0.25203724 61.41593991 -2 63 C-4.61698859 63.70036148 -7.09128932 64.24357294 -9.75 64.6875 C-10.4409375 64.81705078 -11.131875 64.94660156 -11.84375 65.08007812 C-21.87360604 66.86169729 -30.68705551 65.78970021 -39.55078125 60.46875 C-41.49594063 59.05911407 -43.32594645 57.72329041 -45 56 C-45 55.34 -45 54.68 -45 54 C-45.66 54 -46.32 54 -47 54 C-52.44842843 47.88625192 -54.80033741 39.39887635 -55.09765625 31.359375 C-54.45686906 21.41935914 -50.5184853 12.62960034 -43 6 C-42.34 6 -41.68 6 -41 6 C-41 5.34 -41 4.68 -41 4 C-39.44148245 3.17988688 -37.87798284 2.36923787 -36.3125 1.5625 C-35.44238281 1.11003906 -34.57226562 0.65757813 -33.67578125 0.19140625 C-24.75903653 -3.77882315 -9.12293101 -3.66091867 0 0 Z " fill="#35327D" transform="translate(246,32)"/>
<path d="M0 0 C0.99531838 1.94324065 1.94628946 3.86502793 2.75390625 5.89453125 C5.37319875 12.10744245 9.44492809 15.35244859 15 19 C15.59425781 19.4021875 16.18851563 19.804375 16.80078125 20.21875 C26.31743118 25.78947191 39.44688107 26.04062555 50 27 C50 36.24 50 45.48 50 55 C35.38543114 55 23.33555549 51.72301538 12.1875 41.9375 C1.08704793 29.91201026 -0.33779393 15.46345546 0 0 Z " fill="#2B2776" transform="translate(0,41)"/>
<path d="M0 0 C0.66 0.33 1.32 0.66 2 1 C2.52577201 16.77316022 -1.10979478 31.19247728 -12 43 C-18.74133818 49.98039273 -27.45409772 54.40901629 -37 56 C-40.96 56 -44.92 56 -49 56 C-49 47.09 -49 38.18 -49 29 C-46.6075 28.731875 -44.215 28.46375 -41.75 28.1875 C-28.45926943 26.54236689 -14.38047566 24.18779212 -5.4375 13.125 C-2.7365615 9.0616412 -1.23871984 4.69409622 0 0 Z " fill="#2D2978" transform="translate(103,70)"/>
<path d="M0 0 C10.23 0 20.46 0 31 0 C30 4 30 4 28.40625 5.16015625 C27.7771875 5.45792969 27.148125 5.75570312 26.5 6.0625 C24.60447356 6.91807467 24.60447356 6.91807467 23 8 C22.08833806 10.73498581 21.8736698 12.33514607 21.87060547 15.1484375 C21.86745331 15.97939941 21.86430115 16.81036133 21.86105347 17.66650391 C21.8630777 18.56030762 21.86510193 19.45411133 21.8671875 20.375 C21.86623077 21.29587402 21.86527405 22.21674805 21.86428833 23.16552734 C21.8636079 25.11230538 21.86545266 27.0590857 21.86962891 29.00585938 C21.87497907 31.98833301 21.86967929 34.97065605 21.86328125 37.953125 C21.86394206 39.84375033 21.86522327 41.73437557 21.8671875 43.625 C21.86516327 44.51880371 21.86313904 45.41260742 21.86105347 46.33349609 C21.86420563 47.16445801 21.86735779 47.99541992 21.87060547 48.8515625 C21.87140106 49.58197754 21.87219666 50.31239258 21.87301636 51.06494141 C21.93230603 53.21929741 21.93230603 53.21929741 23 56 C25.00396695 57.1358692 27.05933214 57.96197451 29.1875 58.83984375 C31 60 31 60 32 64 C21.11 64 10.22 64 -1 64 C-1 62.68 -1 61.36 -1 60 C1.97 59.01 4.94 58.02 8 57 C8.19806705 50.27410021 8.34307543 43.54990418 8.43945312 36.82177734 C8.47963429 34.53436713 8.53419158 32.24716175 8.60351562 29.96044922 C8.70080255 26.6684315 8.74598 23.37913249 8.78125 20.0859375 C8.82254028 19.06696381 8.86383057 18.04799011 8.90637207 16.99813843 C8.99534238 11.52427981 8.99534238 11.52427981 6.16577148 7.08526611 C3.99749506 5.47098401 3.99749506 5.47098401 1.72253418 4.21572876 C1.1540979 3.81453827 0.58566162 3.41334778 0 3 C0 2.01 0 1.02 0 0 Z " fill="#312D7A" transform="translate(480,31)"/>
<path d="M0 0 C0 0.33 0 0.66 0 1 C-1.25554687 0.82339844 -2.51109375 0.64679687 -3.8046875 0.46484375 C-13.3804646 -0.80132996 -13.3804646 -0.80132996 -22.41796875 1.76171875 C-26.54495744 5.44979579 -29.19298371 8.73811835 -31 14 C-30.01 14.66 -29.02 15.32 -28 16 C-28.33 16.66 -28.66 17.32 -29 18 C-30.65 16.68 -32.3 15.36 -34 14 C-33.16525736 8.50051905 -28.8741807 5.62879113 -25 2 C-24.236875 1.175 -23.47375 0.35 -22.6875 -0.5 C-15.8854103 -4.29651518 -7.14330785 -1.87365452 0 0 Z " fill="#EF6062" transform="translate(75,30)"/>
<path d="M0 0 C0.66 1.32 1.32 2.64 2 4 C2.8353125 5.546875 2.8353125 5.546875 3.6875 7.125 C4.120625 8.07375 4.55375 9.0225 5 10 C4.67 10.66 4.34 11.32 4 12 C3.01 11.34 2.02 10.68 1 10 C0.67 10.66 0.34 11.32 0 12 C0 8.04 0 4.08 0 0 Z " fill="#605D99" transform="translate(0,41)"/>
<path d="M0 0 C0.66 0.33 1.32 0.66 2 1 C1.01 1.33 0.02 1.66 -1 2 C-1.28875 2.598125 -1.5775 3.19625 -1.875 3.8125 C-3.35537318 6.69100341 -5.42278571 8.10099999 -8 10 C-8 7 -8 7 -6.125 4.8125 C-4 3 -4 3 -2 3 C-2 2.34 -2 1.68 -2 1 C-1.34 0.67 -0.68 0.34 0 0 Z " fill="#5D5995" transform="translate(207,35)"/>
<path d="M0 0 C0.66 0 1.32 0 2 0 C1.74337755 1.44010481 1.46909179 2.8770687 1.1875 4.3125 C1.03667969 5.11300781 0.88585937 5.91351563 0.73046875 6.73828125 C-0.07572236 9.23445587 -1.02052002 10.32422106 -3 12 C-3 10.68 -3 9.36 -3 8 C-2.34 8 -1.68 8 -1 8 C-0.67 5.36 -0.34 2.72 0 0 Z " fill="#EF6F71" transform="translate(100,67)"/>
<path d="M0 0 C0.99 0.33 1.98 0.66 3 1 C1.02 2.98 -0.96 4.96 -3 7 C-3.66 6.67 -4.32 6.34 -5 6 C-3.35 4.02 -1.7 2.04 0 0 Z " fill="#534F90" transform="translate(271,38)"/>
<path d="M0 0 C0.66 0.33 1.32 0.66 2 1 C0.38405168 3.04119788 -1.2856382 5.04072937 -3 7 C-3.66 7 -4.32 7 -5 7 C-3.70700306 4.11562221 -2.34058637 2.12780579 0 0 Z " fill="#EE6567" transform="translate(13,8)"/>
</svg>
