<?xml version="1.0" encoding="UTF-8"?>
<svg version="1.1" xmlns="http://www.w3.org/2000/svg" width="1594" height="1594">
<path d="M0 0 C526.02 0 1052.04 0 1594 0 C1594 526.02 1594 1052.04 1594 1594 C1067.98 1594 541.96 1594 0 1594 C0 1067.98 0 541.96 0 0 Z " fill="#FD0000" transform="translate(0,0)"/>
<path d="M0 0 C40.59480394 -0.0681152 81.18959258 -0.12168743 121.78444239 -0.15319599 C126.59978461 -0.15694717 131.41512671 -0.16083023 136.23046875 -0.16479492 C137.18893552 -0.16558185 138.14740229 -0.16636878 139.1349135 -0.16717956 C154.56290726 -0.18015937 169.99086677 -0.20377124 185.41884035 -0.23145839 C201.30248567 -0.2597211 217.18611331 -0.27621981 233.06978273 -0.28226548 C241.96899378 -0.2859778 250.86813334 -0.29483153 259.76731873 -0.31719017 C397.01449492 -0.65154868 397.01449492 -0.65154868 449 24 C450.21864746 24.57621094 450.21864746 24.57621094 451.46191406 25.1640625 C472.87733879 35.47673305 491.83873848 50.79688856 506 70 C506.74507812 70.99128906 507.49015625 71.98257813 508.2578125 73.00390625 C525.01361611 96.14963496 532.57137158 122.62114095 528.50390625 151.2578125 C527.83351538 154.5832542 527.00882721 157.76199008 526 161 C525.6596875 162.12921875 525.319375 163.2584375 524.96875 164.421875 C513.78503214 198.42642253 487.08486485 222.86395814 456 239 C455.31583008 239.36303223 454.63166016 239.72606445 453.92675781 240.10009766 C443.64425593 245.50353571 433.00512822 249.57727792 422 253.25 C420.80294434 253.65017334 419.60588867 254.05034668 418.37255859 254.46264648 C401.2789626 260.02111802 384.17544009 263.90212909 366.4375 266.75 C363.66073593 267.20255254 360.88443389 267.6576982 358.10865784 268.11627197 C356.4031992 268.3973658 354.69711198 268.67467939 352.99034119 268.94769287 C348.87250048 269.56022176 348.87250048 269.56022176 345 271 C345.72251953 271.1952124 346.44503906 271.3904248 347.18945312 271.59155273 C399.03655758 285.71194623 452.33285094 306.63674843 480.95947266 355.1484375 C487.20406756 366.2603586 491.54669885 377.83702514 494.0625 390.3125 C494.22298828 391.07755859 494.38347656 391.84261719 494.54882812 392.63085938 C496.95079986 404.27415208 498.54441958 415.90905426 499.5625 427.75 C499.62758759 428.49056641 499.69267517 429.23113281 499.75973511 429.99414062 C500.99420213 444.27844418 501.45620596 458.54816687 501.62133789 472.88183594 C501.0919895 503.4107332 501.0919895 503.4107332 512.15625 530.5234375 C522.42795929 538.74950977 534.42329764 539.04493466 547 538 C558.87484417 536.23010073 569.75801363 531.68854534 580.53515625 526.57421875 C584 525 584 525 586 525 C586 535.89 586 546.78 586 558 C556.68478188 572.09385487 526.35276838 579.4876243 493.75 579.25 C492.6057959 579.24534729 492.6057959 579.24534729 491.43847656 579.24060059 C453.76096786 579.06150252 415.58992875 572.08613442 386 547 C385.12214844 546.27167969 384.24429687 545.54335938 383.33984375 544.79296875 C370.57083903 533.79583195 362.64522166 520.15134233 355.75 505 C355.43289063 504.31357422 355.11578125 503.62714844 354.7890625 502.91992188 C349.79590426 491.60139721 347.31757197 479.59744435 345.375 467.4375 C345.26916595 466.78304901 345.16333191 466.12859802 345.05429077 465.45431519 C342.02391016 446.64922586 340.80731355 427.96663342 339.87216187 408.96490479 C338.85528284 388.34110605 337.24539157 368.24877526 333 348 C332.84273437 347.24960449 332.68546875 346.49920898 332.5234375 345.72607422 C329.61574017 332.25025239 325.4820721 319.05239698 317 308 C316.2575 306.96875 315.515 305.9375 314.75 304.875 C289.77540237 278.76519338 245.47523099 282.69944958 214 282 C214 369.78 214 457.56 214 548 C238.75 548 263.5 548 289 548 C289 557.24 289 566.48 289 576 C193.63 576 98.26 576 0 576 C0 566.76 0 557.52 0 548 C24.09 548 48.18 548 73 548 C73 376.4 73 204.8 73 28 C48.91 28 24.82 28 0 28 C0 18.76 0 9.52 0 0 Z " fill="#FEFEFE" transform="translate(789,472)"/>
<path d="M0 0 C159.39 0 318.78 0 483 0 C485.29492749 26.39166608 485.29492749 26.39166608 485.78125 38.63671875 C485.83972375 40.00806264 485.89870969 41.37938476 485.9581604 42.75068665 C486.08110718 45.60459955 486.20128752 48.45860682 486.31890869 51.31274414 C486.59538504 58.01684287 486.88616263 64.72032753 487.17734146 71.42380142 C487.24124128 72.8952982 487.30497049 74.36680239 487.36852646 75.83831406 C487.86131285 87.23141943 488.44157773 98.6166956 489.125 110 C490.1409576 126.99008116 490.6048066 143.98588396 491 161 C481.43 161 471.86 161 462 161 C460.7625 157.41125 459.525 153.8225 458.25 150.125 C442.88277146 106.80610652 421.15980329 66.24577363 378.56640625 45.3125 C365.57791921 39.43784862 351.75420525 35.59742303 337.8125 32.75 C337.0788623 32.59901855 336.34522461 32.44803711 335.58935547 32.29248047 C296.30523731 24.75516427 253.41558421 28.40016234 215 28 C215 108.19 215 188.38 215 271 C249.59578134 269.84680729 280.63330375 268.56423055 306 243 C325.00736511 222.46678413 331.10819598 195.5131181 337 169 C346.24 169 355.48 169 365 169 C365 246.88 365 324.76 365 405 C355.76 405 346.52 405 337 405 C336.46375 400.9575 335.9275 396.915 335.375 392.75 C331.37359303 364.88797815 322.45777363 337.48086842 299.76953125 319.203125 C290.25743694 312.18931321 279.50200252 306.77452885 268 304 C266.95972656 303.73445313 265.91945313 303.46890625 264.84765625 303.1953125 C248.34205326 299.15076568 232.16443038 299.57214768 215 299 C215 381.17 215 463.34 215 548 C323.20966524 553.26485759 323.20966524 553.26485759 416 511 C416.85722656 510.278125 417.71445312 509.55625 418.59765625 508.8125 C424.83679451 503.4123185 429.93877828 497.49857384 435 491 C435.77988281 490.05898438 436.55976562 489.11796875 437.36328125 488.1484375 C445.17460372 478.50575235 451.17128928 467.93087347 457 457 C457.40605469 456.24009766 457.81210937 455.48019531 458.23046875 454.69726562 C468.60028489 434.9309096 476.03212633 412.84340558 481.1953125 391.1640625 C482 388 482 388 483 387 C485.21855264 386.91216458 487.43988496 386.89305391 489.66015625 386.90234375 C490.65685585 386.90446617 490.65685585 386.90446617 491.6736908 386.90663147 C493.80333899 386.91224482 495.93288339 386.92479946 498.0625 386.9375 C499.50325369 386.94251329 500.94400903 386.94707649 502.38476562 386.95117188 C505.92321102 386.96221855 509.46159539 386.97949208 513 387 C513.11302886 394.37492576 512.7674377 401.65791802 512.23046875 409.01171875 C512.14988724 410.15620483 512.06930573 411.30069092 511.98628235 412.4798584 C511.81310555 414.93608695 511.63843537 417.39221058 511.46240234 419.84823608 C511.03963192 425.7526136 510.62685603 431.65768617 510.21406937 437.56276894 C510.07397063 439.56604785 509.93351583 441.56930162 509.7930603 443.57255554 C508.98648862 455.10827878 508.22867519 466.64662169 507.5 478.1875 C507.44244537 479.09627899 507.38489075 480.00505798 507.32559204 480.94137573 C506.88121989 487.96075994 506.44049718 494.98037175 506 502 C505.4279605 511.110786 504.8550342 520.22151483 504.2796669 529.33209133 C504.01321756 533.55273097 503.74825553 537.7734604 503.48450279 541.99426937 C503.27993562 545.26188048 503.07338637 548.52936651 502.8671875 551.796875 C502.75798477 553.5548214 502.75798477 553.5548214 502.64657593 555.34828186 C502.57613068 556.45892502 502.50568542 557.56956818 502.43310547 558.71386719 C502.37331512 559.66686707 502.31352478 560.61986694 502.25192261 561.60174561 C501.89576252 566.40608843 501.43615834 571.20225825 501 576 C335.67 576 170.34 576 0 576 C0 566.76 0 557.52 0 548 C24.09 548 48.18 548 73 548 C73 376.4 73 204.8 73 28 C48.91 28 24.82 28 0 28 C0 18.76 0 9.52 0 0 Z " fill="#FEFDFD" transform="translate(228,472)"/>
<path d="M0 0 C390.39 0 780.78 0 1183 0 C1183 14.52 1183 29.04 1183 44 C792.61 44 402.22 44 0 44 C0 29.48 0 14.96 0 0 Z " fill="#FEFCFB" transform="translate(205,1092)"/>
<path d="M0 0 C114.33152174 0 114.33152174 0 135.8125 20.5859375 C155.69090162 42.52317357 154.35108545 78.70422218 154.26074219 106.28564453 C154.24934834 109.79505184 154.25612431 113.30415589 154.26761627 116.81355286 C154.36379629 151.32516171 154.36379629 151.32516171 150 168 C149.78859375 168.95003906 149.5771875 169.90007812 149.359375 170.87890625 C146.6102598 182.98558664 142.70316658 194.86819781 134 204 C133.42894531 204.61101562 132.85789062 205.22203125 132.26953125 205.8515625 C123.6087983 214.23529973 112.49387995 218.13917147 101.125 221.3125 C99.83505127 221.67613647 99.83505127 221.67613647 98.51904297 222.04711914 C67.11791245 230.27981043 30.31111617 226 0 226 C0 151.42 0 76.84 0 0 Z " fill="#FD0000" transform="translate(1003,500)"/>
<path d="M0 0 C1.9375 0.1875 1.9375 0.1875 4 1 C5.25 3.0625 5.25 3.0625 6 5 C5.01 5.66 4.02 6.32 3 7 C1.68 5.02 0.36 3.04 -1 1 C-0.67 0.67 -0.34 0.34 0 0 Z " fill="#FBF2F0" transform="translate(648,546)"/>
<path d="M0 0 C0.33 0 0.66 0 1 0 C1.33 1.98 1.66 3.96 2 6 C0.35 7.32 -1.3 8.64 -3 10 C-2.01 6.7 -1.02 3.4 0 0 Z " fill="#FCE0E0" transform="translate(555,679)"/>
<path d="M0 0 C-1.75 1.5625 -1.75 1.5625 -4 3 C-6.25 2.6875 -6.25 2.6875 -8 2 C-7 0 -7 0 -5.125 -0.6875 C-3 -1 -3 -1 0 0 Z " fill="#FB1415" transform="translate(1195,731)"/>
<path d="M0 0 C0.66 0 1.32 0 2 0 C2.12375 0.639375 2.2475 1.27875 2.375 1.9375 C2.684375 2.9584375 2.684375 2.9584375 3 4 C3.66 4.33 4.32 4.66 5 5 C4.01 5.495 4.01 5.495 3 6 C1.35 4.68 -0.3 3.36 -2 2 C-1.34 1.34 -0.68 0.68 0 0 Z " fill="#FDEFEE" transform="translate(623,522)"/>
<path d="M0 0 C0.99 0 1.98 0 3 0 C3 1.32 3 2.64 3 4 C1.35 4.66 -0.3 5.32 -2 6 C-1.34 4.02 -0.68 2.04 0 0 Z " fill="#FBEAEA" transform="translate(681,936)"/>
</svg>
