<?xml version="1.0" encoding="UTF-8"?>
<svg version="1.1" xmlns="http://www.w3.org/2000/svg" width="500" height="500">
<path d="M0 0 C165 0 330 0 500 0 C500 165 500 330 500 500 C335 500 170 500 0 500 C0 335 0 170 0 0 Z " fill="#FE3131" transform="translate(0,0)"/>
<path d="M0 0 C1.010625 0.80695313 2.02125 1.61390625 3.0625 2.4453125 C27.81041072 22.57305273 51.54897915 50.24882871 62 81 C62 81.99 62 82.98 62 84 C32.3 84 2.6 84 -28 84 C-28 95.88 -28 107.76 -28 120 C-12.49 120 3.02 120 19 120 C19 155.31 19 190.62 19 227 C33.85 227 48.7 227 64 227 C58.61882168 253.90589158 38.26812311 279.39116466 19.54736328 298.41748047 C18.17501211 299.8210116 16.8331577 301.25421894 15.49609375 302.69140625 C4.68155916 314.09149939 -8.42171618 323.30444061 -22.10644531 330.93945312 C-24.02929011 332.01640488 -25.93162613 333.12504874 -27.8359375 334.234375 C-45.48649193 344.27342533 -65.24895387 350.55901529 -85 355 C-85.66821777 355.16226074 -86.33643555 355.32452148 -87.02490234 355.49169922 C-133.95760014 366.66834807 -187.72241442 353.27643428 -228.12304688 328.70898438 C-242.60166497 319.61326529 -255.35448708 308.62085493 -267.5625 296.6875 C-268.06821533 296.20321533 -268.57393066 295.71893066 -269.0949707 295.2199707 C-270.13199571 294.19185854 -271.14004867 293.1338155 -272.11933899 292.05056763 C-273.44860868 290.60120627 -274.83860033 289.20645834 -276.26705933 287.85475159 C-285.42642479 277.92031609 -284.15439403 266.94081626 -283.87890625 254.078125 C-283.8620956 251.76359545 -283.84929605 249.44903363 -283.84031677 247.13446045 C-283.80614658 241.07724752 -283.71790797 235.02201352 -283.61798096 228.96557617 C-283.50919813 221.68035777 -283.46831029 214.39447323 -283.41590118 207.1086731 C-283.32897262 196.07107741 -283.15641408 185.03781341 -283 174 C-263.2 174 -243.4 174 -223 174 C-223 163.44 -223 152.88 -223 142 C-242.8 142 -262.6 142 -283 142 C-283 133.75 -283 125.5 -283 117 C-259.9 117 -236.8 117 -213 117 C-213 105.78 -213 94.56 -213 83 C-244.35 83 -275.7 83 -308 83 C-304.61742007 72.8522602 -304.61742007 72.8522602 -302.87109375 69.4921875 C-302.48099121 68.7405835 -302.09088867 67.98897949 -301.68896484 67.21459961 C-301.06948975 66.0564978 -301.06948975 66.0564978 -300.4375 64.875 C-300.00131348 64.05459229 -299.56512695 63.23418457 -299.11572266 62.38891602 C-285.06593606 36.41267917 -264.87428901 13.37506748 -241 -4 C-240.43651855 -4.41314453 -239.87303711 -4.82628906 -239.29248047 -5.25195312 C-168.87654235 -56.22121834 -68.03912135 -54.91200826 0 0 Z " fill="#272727" transform="translate(373,92)"/>
<path d="M0 0 C140.91 0 281.82 0 427 0 C427 165 427 330 427 500 C414 500 414 500 411.1484375 498.05078125 C410.56320312 497.14714844 409.97796875 496.24351562 409.375 495.3125 C408.31539063 493.80042969 408.31539063 493.80042969 407.234375 492.2578125 C406.49703125 491.18273437 405.7596875 490.10765625 405 489 C403.26034546 486.85015042 401.4421133 484.77196674 399.625 482.6875 C395.83719697 478.25587589 392.19446081 473.73372006 388.625 469.125 C384.16948329 463.37972845 379.48856595 457.86904559 374.70019531 452.39941406 C370.7848819 447.92376957 366.9887076 443.36770682 363.24609375 438.74609375 C360.68109606 435.61010527 358.0634254 432.52244685 355.4375 429.4375 C351.56746831 424.88725677 347.80039718 420.2716668 344.08984375 415.58984375 C341.17562865 411.97839588 338.16804028 408.44938038 335.16088867 404.9152832 C330.70191847 399.66828852 326.33932453 394.3464764 322 389 C323.61854287 385.15938981 326.20801688 382.32976836 328.9375 379.25 C344.55261823 361.15666152 354.89947228 340.95682879 364 319 C349.15 319 334.3 319 319 319 C319 283.69 319 248.38 319 212 C303.49 212 287.98 212 272 212 C272 200.12 272 188.24 272 176 C301.7 176 331.4 176 362 176 C356.51038213 163.18938265 356.51038213 163.18938265 350.1875 150.875 C349.76718506 150.12839111 349.34687012 149.38178223 348.91381836 148.61254883 C335.57462709 125.35148096 316.729377 104.65624832 295 89 C294.41814941 88.57912109 293.83629883 88.15824219 293.23681641 87.72460938 C251.0231119 57.5669999 197.31796012 44.71055915 145.97363281 52.45288086 C120.76755002 56.82570393 98.06004564 65.78015505 75.75048828 78.05371094 C73.19864238 79.43320253 70.6031089 80.72057399 68 82 C61.8746701 75.38873579 55.99714782 68.66705733 50.33691406 61.65039062 C47.61780271 58.29370824 44.87028761 54.96027877 42.125 51.625 C41.52437744 50.89506836 40.92375488 50.16513672 40.30493164 49.41308594 C36.18744363 44.41808226 32.02616453 39.46286031 27.83251953 34.53173828 C24.27562658 30.34367764 20.79702878 26.09616334 17.33203125 21.83203125 C15.61734572 19.74970795 13.88898143 17.68694173 12.13671875 15.63671875 C11.646875 15.06308594 11.15703125 14.48945313 10.65234375 13.8984375 C9.7059985 12.79310624 8.7569622 11.69007073 7.8046875 10.58984375 C4.87462483 7.16711567 2.53032907 3.79549361 0 0 Z " fill="#ECBE04" transform="translate(73,0)"/>
<path d="M0 0 C0.33 0 0.66 0 1 0 C1 10.89 1 21.78 1 33 C-18.8 33 -38.6 33 -59 33 C-59 50.16 -59 67.32 -59 85 C55.18 85 169.36 85 287 85 C281.61882168 111.90589158 261.26812311 137.39116466 242.54736328 156.41748047 C241.17501211 157.8210116 239.8331577 159.25421894 238.49609375 160.69140625 C227.68155916 172.09149939 214.57828382 181.30444061 200.89355469 188.93945312 C198.97070989 190.01640488 197.06837387 191.12504874 195.1640625 192.234375 C177.51350807 202.27342533 157.75104613 208.55901529 138 213 C136.99767334 213.24339111 136.99767334 213.24339111 135.97509766 213.49169922 C89.04239986 224.66834807 35.27758558 211.27643428 -5.12304688 186.70898438 C-19.60166497 177.61326529 -32.35448708 166.62085493 -44.5625 154.6875 C-45.321073 153.961073 -45.321073 153.961073 -46.0949707 153.2199707 C-47.13199571 152.19185854 -48.14004867 151.1338155 -49.11933899 150.05056763 C-50.44860868 148.60120627 -51.83860033 147.20645834 -53.26705933 145.85475159 C-62.42642479 135.92031609 -61.15439403 124.94081626 -60.87890625 112.078125 C-60.8620956 109.76359545 -60.84929605 107.44903363 -60.84031677 105.13446045 C-60.80614658 99.07724752 -60.71790797 93.02201352 -60.61798096 86.96557617 C-60.50919813 79.68035777 -60.46831029 72.39447323 -60.41590118 65.1086731 C-60.32897262 54.07107741 -60.15641408 43.03781341 -60 32 C-40.2 32 -20.4 32 0 32 C0 21.44 0 10.88 0 0 Z " fill="#282726" transform="translate(150,234)"/>
<path d="M0 0 C16.9125 -0.0825 33.825 -0.165 51.25 -0.25 C59.2304248 -0.30462402 59.2304248 -0.30462402 67.37207031 -0.36035156 C73.91943359 -0.37841797 73.91943359 -0.37841797 76.99432373 -0.3817749 C79.12049721 -0.38787674 81.24665773 -0.40186027 83.3727417 -0.42230225 C100.13741082 -0.5752932 113.19887034 -0.29101471 125.90234375 11.8125 C132.44233476 18.67050326 135.1909735 25.52927359 135.4375 35 C135.13606929 44.56262952 133.13007132 52.80137539 126.24609375 59.77734375 C121.83626587 63.85923922 117.47759326 66.55464587 112 69 C112.68964844 69.1959375 113.37929688 69.391875 114.08984375 69.59375 C122.45521308 72.25598002 128.92080637 76.02761794 133.6328125 83.63671875 C138.61143951 93.38060305 138 97.25071592 138 110 C161.43 110 184.86 110 209 110 C209 85.58 209 61.16 209 36 C193.82 36 178.64 36 163 36 C163 35.67 163 35.34 163 35 C178.51 35 194.02 35 210 35 C210 70.31 210 105.62 210 142 C151.75433761 142.61881182 151.75433761 142.61881182 133.30859375 142.7734375 C131.45796231 142.78895723 131.45796231 142.78895723 129.56994438 142.8047905 C56.04029985 143.41074991 -17.47602338 143.0045062 -91 142 C-91 131.44 -91 120.88 -91 110 C-60.97 110 -30.94 110 0 110 C0 73.7 0 37.4 0 0 Z " fill="#146A40" transform="translate(182,177)"/>
<path d="M0 0 C4.08028158 1.55258974 6.37731274 4.46317653 9.0625 7.75 C9.54219238 8.32637207 10.02188477 8.90274414 10.51611328 9.49658203 C14.34883742 14.13013655 18.04272111 18.8686618 21.72827148 23.61938477 C25.74905895 28.76459962 29.99944571 33.68839746 34.29980469 38.60058594 C38.2151181 43.07623043 42.0112924 47.63229318 45.75390625 52.25390625 C48.31890394 55.38989473 50.9365746 58.47755315 53.5625 61.5625 C57.43253169 66.11274323 61.19960282 70.7283332 64.91015625 75.41015625 C67.83220315 79.03130969 70.84821486 82.56954569 73.86328125 86.11328125 C77.51747269 90.41351759 81.09642123 94.770363 84.65234375 99.15234375 C86.41541215 101.29090758 88.19605278 103.40378218 90.00390625 105.50390625 C90.51179688 106.09558594 91.0196875 106.68726563 91.54296875 107.296875 C92.54006557 108.45545537 93.5412451 109.61053716 94.546875 110.76171875 C98 114.77882119 98 114.77882119 98 117 C94.46259958 117.73111199 91.52546702 117.86156076 88 117 C84.85993679 114.25782151 82.58992882 111.03085427 80.19482422 107.63378906 C78.16118214 104.85300999 75.88128374 102.28803656 73.625 99.6875 C69.83831188 95.25486683 66.1945107 90.73378448 62.625 86.125 C58.16948329 80.37972845 53.48856595 74.86904559 48.70019531 69.39941406 C44.7848819 64.92376957 40.9887076 60.36770682 37.24609375 55.74609375 C34.68109606 52.61010527 32.0634254 49.52244685 29.4375 46.4375 C25.56746831 41.88725677 21.80039718 37.2716668 18.08984375 32.58984375 C15.17562865 28.97839588 12.16804028 25.44938038 9.16088867 21.9152832 C4.70191847 16.66828852 0.33932453 11.3464764 -4 6 C-2.84826645 3.53199953 -1.95216435 1.95216435 0 0 Z " fill="#FEFBF9" transform="translate(399,383)"/>
<path d="M0 0 C5.32072009 -0.06896757 10.63988201 -0.12867101 15.96069336 -0.16479492 C17.76966617 -0.17985755 19.5786026 -0.20031177 21.38745117 -0.22631836 C23.99146515 -0.2628132 26.5949952 -0.27975157 29.19921875 -0.29296875 C30.40731453 -0.31619453 30.40731453 -0.31619453 31.63981628 -0.33988953 C36.25715004 -0.34126543 39.26021386 -0.00846192 43 3 C46.11319473 7.66979209 45.72810766 12.53558808 45 18 C43.372775 21.23025335 41.27822678 23.36088661 38 25 C35.15570643 25.08691001 32.33620824 25.11553802 29.4921875 25.09765625 C28.23125778 25.09553383 28.23125778 25.09553383 26.94485474 25.09336853 C24.25486725 25.08776237 21.56496241 25.07520886 18.875 25.0625 C17.05338662 25.05748579 15.23177193 25.05292275 13.41015625 25.04882812 C8.94004656 25.038641 4.47011601 25.01906685 0 25 C0 16.75 0 8.5 0 0 Z " fill="#262827" transform="translate(228,262)"/>
<path d="M0 0 C4.75111878 -0.06900495 9.50048771 -0.12869507 14.25170898 -0.16479492 C15.86667789 -0.17984876 17.48160613 -0.20029648 19.09643555 -0.22631836 C21.42246555 -0.26285286 23.74795341 -0.27976015 26.07421875 -0.29296875 C27.15107185 -0.31619453 27.15107185 -0.31619453 28.24967957 -0.33988953 C32.7041447 -0.34137315 35.43589995 0.31006662 39 3 C41.93972148 6.0426439 42.43169 8.2484929 42.4375 12.4375 C42.34048824 16.26180579 42.13604107 17.77326488 40.125 21.125 C36.248148 24.54575176 32.87552169 24.13050371 27.9296875 24.09765625 C26.73534592 24.09553383 26.73534592 24.09553383 25.51687622 24.09336853 C22.9695462 24.08776345 20.42230353 24.07521014 17.875 24.0625 C16.14974085 24.05748565 14.42448033 24.05292263 12.69921875 24.04882812 C8.46608496 24.03864253 4.23314046 24.0190682 0 24 C0 16.08 0 8.16 0 0 Z " fill="#262727" transform="translate(228,208)"/>
<path d="M0 0 C2.64 0 5.28 0 8 0 C20.15971943 27.38491434 12.59006724 72.22580217 2.75 99.625 C2.17880761 101.08813128 1.60092607 102.54882746 1 104 C0.67 104 0.34 104 0 104 C0 69.68 0 35.36 0 0 Z " fill="#2A2926" transform="translate(438,212)"/>
<path d="M0 0 C3.5086911 -0.65925303 6.49919001 -0.7670314 10 0 C13.66895712 2.7894126 16.24086349 6.33501633 19 10 C19.84753749 11.08676445 20.69788267 12.17134412 21.55078125 13.25390625 C22.91534773 14.98738242 24.27712327 16.7225128 25.62817383 18.46655273 C29.67430799 23.67072564 33.95796344 28.64129158 38.29931641 33.59985352 C42.21581446 38.07726881 46.01308682 42.63520241 49.7578125 47.2578125 C52.30254961 50.37001711 54.89674739 53.43676912 57.5 56.5 C58.88337094 58.1335061 60.2659022 59.76771742 61.64794922 61.40234375 C62.54146366 62.45816869 63.43629812 63.51287811 64.33251953 64.56640625 C65.58228845 66.03882703 66.82258742 67.51926973 68.0625 69 C68.77535156 69.845625 69.48820312 70.69125 70.22265625 71.5625 C71.98591314 73.98068088 73.02860032 76.18143098 74 79 C72.02 79.99 70.04 80.98 68 82 C61.8746701 75.38873579 55.99714782 68.66705733 50.33691406 61.65039062 C47.61780271 58.29370824 44.87028761 54.96027877 42.125 51.625 C41.52437744 50.89506836 40.92375488 50.16513672 40.30493164 49.41308594 C36.18744363 44.41808226 32.02616453 39.46286031 27.83251953 34.53173828 C24.27562658 30.34367764 20.79702878 26.09616334 17.33203125 21.83203125 C15.61734572 19.74970795 13.88898143 17.68694173 12.13671875 15.63671875 C11.646875 15.06308594 11.15703125 14.48945313 10.65234375 13.8984375 C9.7059985 12.79310624 8.7569622 11.69007073 7.8046875 10.58984375 C4.90534875 7.20300557 2.4008017 3.74390755 0 0 Z " fill="#FEFBF9" transform="translate(73,0)"/>
<path d="M0 0 C1.90845703 0.04060547 1.90845703 0.04060547 3.85546875 0.08203125 C5.31919922 0.13423828 5.31919922 0.13423828 6.8125 0.1875 C6.8125 2.4975 6.8125 4.8075 6.8125 7.1875 C5.4925 7.1875 4.1725 7.1875 2.8125 7.1875 C2.8125 7.8475 2.8125 8.5075 2.8125 9.1875 C4.1325 9.1875 5.4525 9.1875 6.8125 9.1875 C6.8125 10.1775 6.8125 11.1675 6.8125 12.1875 C4.35241222 12.10070858 1.89606483 11.99389045 -0.5625 11.875 C-1.26117188 11.85244141 -1.95984375 11.82988281 -2.6796875 11.80664062 C-4.7109375 11.69921875 -4.7109375 11.69921875 -8.1875 11.1875 C-10.34252531 7.95496204 -10.65606135 6.93599077 -10.1875 3.1875 C-7.62180706 -0.75467784 -4.36372302 -0.12010247 0 0 Z " fill="#541C1C" transform="translate(222.1875,324.8125)"/>
<path d="M0 0 C2.0625 0.4375 2.0625 0.4375 4 1 C4 2.32 4 3.64 4 5 C4.99 5.33 5.98 5.66 7 6 C7.33 7.65 7.66 9.3 8 11 C4.7 11 1.4 11 -2 11 C-3.10510437 6.57958252 -2.64388555 5.10971388 -1 1 C-0.67 0.67 -0.34 0.34 0 0 Z " fill="#D59E05" transform="translate(238,325)"/>
<path d="M0 0 C1.45823212 -0.0270043 2.91660675 -0.04639787 4.375 -0.0625 C5.18710937 -0.07410156 5.99921875 -0.08570313 6.8359375 -0.09765625 C9 0 9 0 11 1 C11 4.3 11 7.6 11 11 C10.01 11 9.02 11 8 11 C8 8.36 8 5.72 8 3 C7.01 3 6.02 3 5 3 C5 5.64 5 8.28 5 11 C4.01 11 3.02 11 2 11 C2 8.03 2 5.06 2 2 C1.34 2 0.68 2 0 2 C0 1.34 0 0.68 0 0 Z " fill="#1C8E4B" transform="translate(300,325)"/>
<path d="M0 0 C0.99 0 1.98 0 3 0 C3 3.63 3 7.26 3 11 C2.01 11 1.02 11 0 11 C-0.66 10.01 -1.32 9.02 -2 8 C-2.33 8.99 -2.66 9.98 -3 11 C-3.99 11 -4.98 11 -6 11 C-6 7.7 -6 4.4 -6 1 C-2 2 -2 2 -1 3 C-0.67 2.01 -0.34 1.02 0 0 Z " fill="#DF2626" transform="translate(185,325)"/>
<path d="M0 0 C4 1 4 1 5.25 3.0625 C5.4975 3.701875 5.745 4.34125 6 5 C6.33 3.68 6.66 2.36 7 1 C7.66 1 8.32 1 9 1 C9 4.3 9 7.6 9 11 C5 9 5 9 4 7 C3.67 8.32 3.34 9.64 3 11 C2.01 11 1.02 11 0 11 C0 7.37 0 3.74 0 0 Z " fill="#E32828" transform="translate(201,325)"/>
<path d="M0 0 C4 1 4 1 6 4 C6.33 2.68 6.66 1.36 7 0 C7.66 0 8.32 0 9 0 C9 3.3 9 6.6 9 10 C5 8 5 8 4 6 C3.67 7.32 3.34 8.64 3 10 C2.01 10 1.02 10 0 10 C0 6.7 0 3.4 0 0 Z " fill="#0EA656" transform="translate(313,326)"/>
<path d="M0 0 C0.99 0 1.98 0 3 0 C4.32 3.63 5.64 7.26 7 11 C6.01 11 5.02 11 4 11 C4 10.34 4 9.68 4 9 C2.35 9 0.7 9 -1 9 C-1 9.66 -1 10.32 -1 11 C-1.99 10.67 -2.98 10.34 -4 10 C-2.68 6.7 -1.36 3.4 0 0 Z " fill="#F42E2E" transform="translate(193,325)"/>
<path d="M0 0 C0.33 0.99 0.66 1.98 1 3 C-0.65 3.33 -2.3 3.66 -4 4 C-4.33 5.32 -4.66 6.64 -5 8 C-3.02 8 -1.04 8 1 8 C1 8.99 1 9.98 1 11 C-2.375 11.1875 -2.375 11.1875 -6 11 C-8.15502531 7.76746204 -8.46856135 6.74849077 -8 3 C-5.82311273 -0.32261741 -3.79605352 -0.30778812 0 0 Z " fill="#E12828" transform="translate(220,325)"/>
<path d="M0 0 C1.134375 0.020625 2.26875 0.04125 3.4375 0.0625 C3.4375 0.7225 3.4375 1.3825 3.4375 2.0625 C1.7875 2.3925 0.1375 2.7225 -1.5625 3.0625 C-1.5625 4.3825 -1.5625 5.7025 -1.5625 7.0625 C-0.5725 7.0625 0.4175 7.0625 1.4375 7.0625 C1.1075 6.0725 0.7775 5.0825 0.4375 4.0625 C1.7575 4.0625 3.0775 4.0625 4.4375 4.0625 C3.5625 8.9375 3.5625 8.9375 2.4375 10.0625 C0 10.25 0 10.25 -2.5625 10.0625 C-4.5625 8.0625 -4.5625 8.0625 -4.75 4.5 C-4.50886015 0.07910281 -4.50886015 0.07910281 0 0 Z " fill="#04B75F" transform="translate(329.5625,325.9375)"/>
<path d="M0 0 C1.134375 0.020625 2.26875 0.04125 3.4375 0.0625 C3.4375 0.7225 3.4375 1.3825 3.4375 2.0625 C1.7875 2.3925 0.1375 2.7225 -1.5625 3.0625 C-1.5625 4.3825 -1.5625 5.7025 -1.5625 7.0625 C-0.5725 7.0625 0.4175 7.0625 1.4375 7.0625 C1.1075 6.0725 0.7775 5.0825 0.4375 4.0625 C1.7575 4.0625 3.0775 4.0625 4.4375 4.0625 C3.5625 8.9375 3.5625 8.9375 2.4375 10.0625 C0 10.25 0 10.25 -2.5625 10.0625 C-4.5625 8.0625 -4.5625 8.0625 -4.75 4.5 C-4.50886015 0.07910281 -4.50886015 0.07910281 0 0 Z " fill="#04B75F" transform="translate(285.5625,325.9375)"/>
<path d="M0 0 C2.31 0 4.62 0 7 0 C7 0.99 7 1.98 7 3 C5.68 3 4.36 3 3 3 C3 3.66 3 4.32 3 5 C3.99 5 4.98 5 6 5 C6 5.66 6 6.32 6 7 C5.01 7 4.02 7 3 7 C3 8.32 3 9.64 3 11 C2.01 11 1.02 11 0 11 C0 7.37 0 3.74 0 0 Z " fill="#DD2727" transform="translate(166,325)"/>
<path d="M0 0 C1.98 0 3.96 0 6 0 C6 1.98 6 3.96 6 6 C4.68 6 3.36 6 2 6 C2 6.66 2 7.32 2 8 C3.32 8 4.64 8 6 8 C6 8.66 6 9.32 6 10 C4.02 10 2.04 10 0 10 C0 6.7 0 3.4 0 0 Z " fill="#E82A2A" transform="translate(223,326)"/>
<path d="M0 0 C0.33 0 0.66 0 1 0 C1 3.63 1 7.26 1 11 C0.34 10.34 -0.32 9.68 -1 9 C-1 7.68 -1 6.36 -1 5 C-2.32 5 -3.64 5 -5 5 C-5 5.66 -5 6.32 -5 7 C-4.34 7.33 -3.68 7.66 -3 8 C-4.32 8.33 -5.64 8.66 -7 9 C-7.38218767 7.34385343 -7.71395102 5.67542976 -8 4 C-7 3 -7 3 -4.4375 2.9375 C-3.2309375 2.9684375 -3.2309375 2.9684375 -2 3 C-1.67 2.34 -1.34 1.68 -1 1 C-0.67 0.67 -0.34 0.34 0 0 Z " fill="#45251D" transform="translate(291,325)"/>
<path d="M0 0 C0.66 0 1.32 0 2 0 C2.33 2.31 2.66 4.62 3 7 C3.66 7 4.32 7 5 7 C5.33 4.69 5.66 2.38 6 0 C6.66 0 7.32 0 8 0 C8.02689216 1.47906892 8.04634621 2.95827483 8.0625 4.4375 C8.07410156 5.26121094 8.08570313 6.08492188 8.09765625 6.93359375 C8 9 8 9 7 10 C4.5625 10.1875 4.5625 10.1875 2 10 C0 8 0 8 -0.1953125 6.0546875 C-0.13020833 4.03645833 -0.06510417 2.01822917 0 0 Z " fill="#04B65E" transform="translate(260,326)"/>
<path d="M0 0 C1.98 0 3.96 0 6 0 C4.68 0.33 3.36 0.66 2 1 C2 1.99 2 2.98 2 4 C3.32 4 4.64 4 6 4 C6 4.66 6 5.32 6 6 C4.68 6 3.36 6 2 6 C2 6.66 2 7.32 2 8 C3.32 8 4.64 8 6 8 C6 8.66 6 9.32 6 10 C4.02 10 2.04 10 0 10 C0 6.7 0 3.4 0 0 Z " fill="#02BA60" transform="translate(292,326)"/>
<path d="M0 0 C1.32 0.33 2.64 0.66 4 1 C3.34 1 2.68 1 2 1 C2.185625 1.598125 2.37125 2.19625 2.5625 2.8125 C3 5 3 5 2 8 C2.99 8 3.98 8 5 8 C4.67 6.68 4.34 5.36 4 4 C4.99 4.33 5.98 4.66 7 5 C6.67 6.65 6.34 8.3 6 10 C4.02 10 2.04 10 0 10 C0 6.7 0 3.4 0 0 Z " fill="#02BB61" transform="translate(251,326)"/>
<path d="M0 0 C1.98 0 3.96 0 6 0 C5.814375 0.763125 5.62875 1.52625 5.4375 2.3125 C4.77180827 5.08967375 4.77180827 5.08967375 6 8 C4 8 2 8 0 8 C0 5.36 0 2.72 0 0 Z " fill="#C09B05" transform="translate(260,343)"/>
<path d="M0 0 C0.99 0.33 1.98 0.66 3 1 C4.1875 4.5625 4.1875 4.5625 5 8 C2.69 8 0.38 8 -2 8 C-1.125 1.125 -1.125 1.125 0 0 Z " fill="#C7A005" transform="translate(236,343)"/>
<path d="M0 0 C1.65 0.33 3.3 0.66 5 1 C4.34 1.66 3.68 2.32 3 3 C3.66 3.33 4.32 3.66 5 4 C5 5.32 5 6.64 5 8 C3.02 8 1.04 8 -1 8 C-1 4.88742431 -0.82638376 2.89234315 0 0 Z " fill="#C29D06" transform="translate(274,343)"/>
<path d="M0 0 C1.32 0.33 2.64 0.66 4 1 C3.34 1 2.68 1 2 1 C2 3.31 2 5.62 2 8 C3.65 7.01 5.3 6.02 7 5 C6.125 8.875 6.125 8.875 5 10 C3.35 10 1.7 10 0 10 C0 6.7 0 3.4 0 0 Z " fill="#03B960" transform="translate(271,326)"/>
<path d="M0 0 C0.99 0.33 1.98 0.66 3 1 C3.33 2.98 3.66 4.96 4 7 C3.01 7 2.02 7 1 7 C0.01 7.33 -0.98 7.66 -2 8 C-2 5.69 -2 3.38 -2 1 C-1.34 0.67 -0.68 0.34 0 0 Z " fill="#27693C" transform="translate(275,326)"/>
<path d="M0 0 C0.99 0 1.98 0 3 0 C3 3.63 3 7.26 3 11 C2.01 11 1.02 11 0 11 C0 7.37 0 3.74 0 0 Z " fill="#DD2626" transform="translate(174,325)"/>
<path d="M0 0 C2.33944736 0.28730055 4.6739143 0.61936779 7 1 C7 2.65 7 4.3 7 6 C6.67 4.68 6.34 3.36 6 2 C4.68 2 3.36 2 2 2 C2 2.66 2 3.32 2 4 C2.66 4.33 3.32 4.66 4 5 C2.68 5.33 1.36 5.66 0 6 C-0.38218767 4.34385343 -0.71395102 2.67542976 -1 1 C-0.67 0.67 -0.34 0.34 0 0 Z " fill="#432B1F" transform="translate(328,328)"/>
<path d="M0 0 C0.99 0 1.98 0 3 0 C3.66 1.98 4.32 3.96 5 6 C0.25 7.125 0.25 7.125 -2 6 C-1.34 4.02 -0.68 2.04 0 0 Z " fill="#D92424" transform="translate(193,325)"/>
<path d="M0 0 C1.32 0.33 2.64 0.66 4 1 C3.855625 1.556875 3.71125 2.11375 3.5625 2.6875 C2.97230872 5.11384195 2.476571 7.54906345 2 10 C1.34 10 0.68 10 0 10 C0 6.7 0 3.4 0 0 Z " fill="#FB3030" transform="translate(179,326)"/>
<path d="M0 0 C0.66 0 1.32 0 2 0 C2 3.3 2 6.6 2 10 C0.68 9.34 -0.64 8.68 -2 8 C-2 7.01 -2 6.02 -2 5 C-1.34 5 -0.68 5 0 5 C0 3.35 0 1.7 0 0 Z " fill="#02BB61" transform="translate(320,326)"/>
<path d="M0 0 C0.66 0 1.32 0 2 0 C2 3.3 2 6.6 2 10 C0.68 9.34 -0.64 8.68 -2 8 C-2 7.01 -2 6.02 -2 5 C-1.34 5 -0.68 5 0 5 C0 3.35 0 1.7 0 0 Z " fill="#FB3030" transform="translate(208,326)"/>
<path d="M0 0 C0.33 0 0.66 0 1 0 C1.36279456 1.28926992 1.71496698 2.58153272 2.0625 3.875 C2.25972656 4.59429687 2.45695313 5.31359375 2.66015625 6.0546875 C3 8 3 8 2 10 C2.66 10.66 3.32 11.32 4 12 C1.69 12 -0.62 12 -3 12 C-2.01 11.67 -1.02 11.34 0 11 C0 7.37 0 3.74 0 0 Z " fill="#511717" transform="translate(188,325)"/>
<path d="M0 0 C0.33 0 0.66 0 1 0 C1 3.63 1 7.26 1 11 C0.67 10.01 0.34 9.02 0 8 C-2.01508358 7.26676204 -2.01508358 7.26676204 -4 7 C-3.01 7 -2.02 7 -1 7 C-1 6.34 -1 5.68 -1 5 C-1.99 5 -2.98 5 -4 5 C-4 4.34 -4 3.68 -4 3 C-2.68 3 -1.36 3 0 3 C0 2.01 0 1.02 0 0 Z " fill="#451D1D" transform="translate(173,325)"/>
<path d="M0 0 C1.98 0 3.96 0 6 0 C6 0.66 6 1.32 6 2 C5.34 2 4.68 2 4 2 C4 3.98 4 5.96 4 8 C3.34 8 2.68 8 2 8 C2 6.02 2 4.04 2 2 C1.34 2 0.68 2 0 2 C0 1.34 0 0.68 0 0 Z " fill="#CAA205" transform="translate(221,343)"/>
<path d="M0 0 C0.08226668 3.04386724 -0.02391783 5.07175348 -1 8 C-1.99 8 -2.98 8 -4 8 C-4 5.69 -4 3.38 -4 1 C-2 0 -2 0 0 0 Z " fill="#237E43" transform="translate(257,326)"/>
<path d="M0 0 C0.66 0 1.32 0 2 0 C2 1.98 2 3.96 2 6 C2.99 6 3.98 6 5 6 C5 6.66 5 7.32 5 8 C3.35 8 1.7 8 0 8 C0 5.36 0 2.72 0 0 Z " fill="#CBA304" transform="translate(248,343)"/>
<path d="M0 0 C2.31 0 4.62 0 7 0 C7 0.66 7 1.32 7 2 C4.36 2.33 1.72 2.66 -1 3 C-0.67 2.01 -0.34 1.02 0 0 Z " fill="#0DA857" transform="translate(326,326)"/>
<path d="M0 0 C2.31 0 4.62 0 7 0 C7 0.66 7 1.32 7 2 C4.36 2.33 1.72 2.66 -1 3 C-0.67 2.01 -0.34 1.02 0 0 Z " fill="#0DA857" transform="translate(282,326)"/>
</svg>
