<?xml version="1.0" encoding="UTF-8"?>
<svg version="1.1" xmlns="http://www.w3.org/2000/svg" width="1563" height="1563">
<path d="M0 0 C29.04 0 58.08 0 88 0 C88 5.94 88 11.88 88 18 C64.9 18 41.8 18 18 18 C18 23.61 18 29.22 18 35 C35.49 35 52.98 35 71 35 C71 40.94 71 46.88 71 53 C53.51 53 36.02 53 18 53 C18 58.61 18 64.22 18 70 C41.1 70 64.2 70 88 70 C88 75.94 88 81.88 88 88 C58.96 88 29.92 88 0 88 C0 58.96 0 29.92 0 0 Z " fill="#0D1B2A" transform="translate(802,697)"/>
<path d="M0 0 C23.43 0 46.86 0 71 0 C71 5.94 71 11.88 71 18 C47.9 18 24.8 18 1 18 C1 35.16 1 52.32 1 70 C18.16 70 35.32 70 53 70 C53 64.39 53 58.78 53 53 C41.45 53 29.9 53 18 53 C18 47.06 18 41.12 18 35 C35.49 35 52.98 35 71 35 C71 52.49 71 69.98 71 88 C47.57 88 24.14 88 0 88 C0 82.39 0 76.78 0 71 C-5.61 71 -11.22 71 -17 71 C-17 53.18 -17 35.36 -17 17 C-11.39 17 -5.78 17 0 17 C0 11.39 0 5.78 0 0 Z " fill="#0D1B2A" transform="translate(1321,697)"/>
<path d="M0 0 C17.82 0 35.64 0 54 0 C54 5.61 54 11.22 54 17 C59.61 17 65.22 17 71 17 C71 40.43 71 63.86 71 88 C65.06 88 59.12 88 53 88 C53 82.39 53 76.78 53 71 C35.84 71 18.68 71 1 71 C1 76.61 1 82.22 1 88 C-4.94 88 -10.88 88 -17 88 C-17 64.57 -17 41.14 -17 17 C-11.39 17 -5.78 17 0 17 C0 11.39 0 5.78 0 0 Z M1 18 C1 29.22 1 40.44 1 52 C18.16 52 35.32 52 53 52 C53 40.78 53 29.56 53 18 C35.84 18 18.68 18 1 18 Z " fill="#0D1B2A" transform="translate(1099,697)"/>
<path d="M0 0 C17.82 0 35.64 0 54 0 C54 5.61 54 11.22 54 17 C59.61 17 65.22 17 71 17 C71 40.43 71 63.86 71 88 C65.06 88 59.12 88 53 88 C53 82.39 53 76.78 53 71 C35.84 71 18.68 71 1 71 C1 76.61 1 82.22 1 88 C-4.94 88 -10.88 88 -17 88 C-17 64.57 -17 41.14 -17 17 C-11.39 17 -5.78 17 0 17 C0 11.39 0 5.78 0 0 Z M1 18 C1 29.22 1 40.44 1 52 C18.16 52 35.32 52 53 52 C53 40.78 53 29.56 53 18 C35.84 18 18.68 18 1 18 Z " fill="#0D1B2A" transform="translate(486,697)"/>
<path d="M0 0 C5.94 0 11.88 0 18 0 C18 5.61 18 11.22 18 17 C23.94 17 29.88 17 36 17 C36 22.94 36 28.88 36 35 C41.61 35 47.22 35 53 35 C53 40.61 53 46.22 53 52 C58.61 52 64.22 52 70 52 C70 34.84 70 17.68 70 0 C75.94 0 81.88 0 88 0 C88 29.04 88 58.08 88 88 C82.06 88 76.12 88 70 88 C70 82.39 70 76.78 70 71 C64.06 71 58.12 71 52 71 C52 65.06 52 59.12 52 53 C46.39 53 40.78 53 35 53 C35 47.39 35 41.78 35 36 C29.39 36 23.78 36 18 36 C18 53.16 18 70.32 18 88 C12.06 88 6.12 88 0 88 C0 58.96 0 29.92 0 0 Z " fill="#0D1B2A" transform="translate(358,697)"/>
<path d="M0 0 C5.94 0 11.88 0 18 0 C18 5.61 18 11.22 18 17 C23.54973121 16.96042519 23.54973121 16.96042519 29.09936523 16.90991211 C31.06645974 16.90276909 33.03353621 16.94968107 35 17 C36 18 36 18 36.09765625 21.81640625 C36.09191138 23.39847047 36.07889593 24.98051031 36.0625 26.5625 C36.041875 29.346875 36.02125 32.13125 36 35 C41.61 35 47.22 35 53 35 C53 40.61 53 46.22 53 52 C58.61 52 64.22 52 70 52 C70 34.84 70 17.68 70 0 C75.94 0 81.88 0 88 0 C88 29.04 88 58.08 88 88 C82.06 88 76.12 88 70 88 C70 82.39 70 76.78 70 71 C64.06 71 58.12 71 52 71 C52 65.06 52 59.12 52 53 C46.39 53 40.78 53 35 53 C35 47.39 35 41.78 35 36 C29.39 36 23.78 36 18 36 C18 53.16 18 70.32 18 88 C12.06 88 6.12 88 0 88 C0 58.96 0 29.92 0 0 Z " fill="#0D1B2A" transform="translate(1193,697)"/>
<path d="M0 0 C5.94 0 11.88 0 18 0 C18 5.61 18 11.22 18 17 C23.54973121 16.96042519 23.54973121 16.96042519 29.09936523 16.90991211 C31.06645974 16.90276909 33.03353621 16.94968107 35 17 C36 18 36 18 36.09765625 21.81640625 C36.09191138 23.39847047 36.07889593 24.98051031 36.0625 26.5625 C36.041875 29.346875 36.02125 32.13125 36 35 C41.61 35 47.22 35 53 35 C53 40.61 53 46.22 53 52 C58.61 52 64.22 52 70 52 C70 34.84 70 17.68 70 0 C75.94 0 81.88 0 88 0 C88 29.04 88 58.08 88 88 C82.06 88 76.12 88 70 88 C70 82.39 70 76.78 70 71 C64.06 71 58.12 71 52 71 C52 65.06 52 59.12 52 53 C46.39 53 40.78 53 35 53 C35 47.39 35 41.78 35 36 C29.39 36 23.78 36 18 36 C18 53.16 18 70.32 18 88 C12.06 88 6.12 88 0 88 C0 58.96 0 29.92 0 0 Z " fill="#0D1B2A" transform="translate(580,697)"/>
<path d="M0 0 C29.37 0 58.74 0 89 0 C89 5.94 89 11.88 89 18 C65.57 18 42.14 18 18 18 C18 23.61 18 29.22 18 35 C35.49 35 52.98 35 71 35 C71 40.94 71 46.88 71 53 C53.51 53 36.02 53 18 53 C18 64.55 18 76.1 18 88 C12.06 88 6.12 88 0 88 C0 58.96 0 29.92 0 0 Z " fill="#0D1B2A" transform="translate(171,697)"/>
<path d="M0 0 C23.43 0 46.86 0 71 0 C71 5.94 71 11.88 71 18 C47.9 18 24.8 18 1 18 C1 35.16 1 52.32 1 70 C24.1 70 47.2 70 71 70 C71 75.94 71 81.88 71 88 C47.57 88 24.14 88 0 88 C0 82.39 0 76.78 0 71 C-5.61 71 -11.22 71 -17 71 C-17 53.18 -17 35.36 -17 17 C-11.39 17 -5.78 17 0 17 C0 11.39 0 5.78 0 0 Z " fill="#0D1B2A" transform="translate(708,697)"/>
<path d="M0 0 C17.82 0 35.64 0 54 0 C54 5.94 54 11.88 54 18 C48.06 18 42.12 18 36 18 C36 35.16 36 52.32 36 70 C41.94 70 47.88 70 54 70 C54 75.94 54 81.88 54 88 C36.18 88 18.36 88 0 88 C0 82.06 0 76.12 0 70 C5.94 70 11.88 70 18 70 C18 52.84 18 35.68 18 18 C12.06 18 6.12 18 0 18 C0 12.06 0 6.12 0 0 Z " fill="#0D1B2A" transform="translate(282,697)"/>
<path d="M0 0 C5.94 0 11.88 0 18 0 C18 23.1 18 46.2 18 70 C41.1 70 64.2 70 88 70 C88 75.94 88 81.88 88 88 C64.57 88 41.14 88 17 88 C17 82.39 17 76.78 17 71 C11.39 71 5.78 71 0 71 C0 47.57 0 24.14 0 0 Z " fill="#0D1B2A" transform="translate(971,697)"/>
<path d="M0 0 C4.29 0 8.58 0 13 0 C13 1.32 13 2.64 13 4 C14.32 4 15.64 4 17 4 C17 9.61 17 15.22 17 21 C15.35 21 13.7 21 12 21 C12 19.68 12 18.36 12 17 C8.37 17 4.74 17 1 17 C1 18.32 1 19.64 1 21 C-0.65 21 -2.3 21 -4 21 C-4 15.39 -4 9.78 -4 4 C-2.68 4 -1.36 4 0 4 C0 2.68 0 1.36 0 0 Z M1 5 C1 7.31 1 9.62 1 12 C4.63 12 8.26 12 12 12 C12 9.69 12 7.38 12 5 C8.37 5 4.74 5 1 5 Z " fill="#0D1B2A" transform="translate(803,881)"/>
<path d="M0 0 C5.61 0 11.22 0 17 0 C17 1.32 17 2.64 17 4 C18.32 4 19.64 4 21 4 C21 8.29 21 12.58 21 17 C19.68 17 18.36 17 17 17 C17 18.32 17 19.64 17 21 C11.39 21 5.78 21 0 21 C0 14.07 0 7.14 0 0 Z M5 5 C5 8.63 5 12.26 5 16 C8.63 16 12.26 16 16 16 C16 12.37 16 8.74 16 5 C12.37 5 8.74 5 5 5 Z " fill="#0D1B2A" transform="translate(743,881)"/>
<path d="M0 0 C5.61 0 11.22 0 17 0 C17 1.65 17 3.3 17 5 C11.72 5 6.44 5 1 5 C1 5.99 1 6.98 1 8 C4.96 8 8.92 8 13 8 C13 9.32 13 10.64 13 12 C14.32 12 15.64 12 17 12 C17 13.65 17 15.3 17 17 C15.68 17 14.36 17 13 17 C13 18.32 13 19.64 13 21 C7.39 21 1.78 21 -4 21 C-4 19.35 -4 17.7 -4 16 C1.28 16 6.56 16 12 16 C12 15.01 12 14.02 12 13 C8.04 13 4.08 13 0 13 C0 11.68 0 10.36 0 9 C-1.32 9 -2.64 9 -4 9 C-4 7.35 -4 5.7 -4 4 C-2.68 4 -1.36 4 0 4 C0 2.68 0 1.36 0 0 Z " fill="#0D1C2B" transform="translate(830,881)"/>
<path d="M0 0 C5.61 0 11.22 0 17 0 C17 1.32 17 2.64 17 4 C18.32 4 19.64 4 21 4 C21 6.97 21 9.94 21 13 C19.68 13 18.36 13 17 13 C17 14.32 17 15.64 17 17 C13.04 17 9.08 17 5 17 C5 18.32 5 19.64 5 21 C3.35 21 1.7 21 0 21 C0 14.07 0 7.14 0 0 Z M5 5 C5 7.31 5 9.62 5 12 C8.63 12 12.26 12 16 12 C16 9.69 16 7.38 16 5 C12.37 5 8.74 5 5 5 Z " fill="#0D1B2A" transform="translate(688,881)"/>
<path d="M0 0 C4.62 0 9.24 0 14 0 C14 1.32 14 2.64 14 4 C15.32 4 16.64 4 18 4 C18 8.29 18 12.58 18 17 C16.68 17 15.36 17 14 17 C14 18.32 14 19.64 14 21 C9.38 21 4.76 21 0 21 C0 19.68 0 18.36 0 17 C-1.32 17 -2.64 17 -4 17 C-4 12.71 -4 8.42 -4 4 C-2.68 4 -1.36 4 0 4 C0 2.68 0 1.36 0 0 Z M1 5 C1 8.63 1 12.26 1 16 C4.96 16 8.92 16 13 16 C13 12.37 13 8.74 13 5 C9.04 5 5.08 5 1 5 Z " fill="#0D1C2B" transform="translate(719,881)"/>
<path d="M0 0 C5.61 0 11.22 0 17 0 C17 1.65 17 3.3 17 5 C11.72 5 6.44 5 1 5 C1 8.63 1 12.26 1 16 C6.28 16 11.56 16 17 16 C17 17.65 17 19.3 17 21 C11.39 21 5.78 21 0 21 C0 19.68 0 18.36 0 17 C-1.32 17 -2.64 17 -4 17 C-4 12.71 -4 8.42 -4 4 C-2.68 4 -1.36 4 0 4 C0 2.68 0 1.36 0 0 Z " fill="#0D1C2B" transform="translate(775,881)"/>
<path d="M0 0 C6.93 0 13.86 0 21 0 C21 1.65 21 3.3 21 5 C18.36 5 15.72 5 13 5 C13 10.28 13 15.56 13 21 C11.35 21 9.7 21 8 21 C8 15.72 8 10.44 8 5 C5.36 5 2.72 5 0 5 C0 3.35 0 1.7 0 0 Z " fill="#0D1B2A" transform="translate(854,881)"/>
</svg>
