<?xml version="1.0" encoding="UTF-8"?>
<svg id="Layer_1" xmlns="http://www.w3.org/2000/svg" version="1.1" viewBox="0 0 1000 1000">
  <!-- Generator: Adobe Illustrator 29.5.1, SVG Export Plug-In . SVG Version: 2.1.0 Build 141)  -->
  <defs>
    <style>
      .st0 {
        fill: #0745db;
      }
    </style>
  </defs>
  <g id="Layer_11" data-name="Layer_1">
    <g>
      <g>
        <polygon class="st0" points="474.4 396.93 474.4 447.92 372.37 447.92 372.37 549.95 321.33 549.95 321.33 396.93 474.4 396.93"/>
        <polygon class="st0" points="678.36 396.93 678.36 447.92 576.32 447.92 576.32 549.95 525.28 549.95 525.28 396.93 678.36 396.93"/>
        <rect class="st0" x="321.33" y="294.85" width="356.95" height="51.04"/>
      </g>
      <g>
        <path class="st0" d="M352.3,601.08v9.28h-19.39v10.03h14.51v9.01h-14.51v19.25h-11.59v-47.58h30.98Z"/>
        <path class="st0" d="M370,601.08v47.58h-11.59v-47.58h11.59Z"/>
        <path class="st0" d="M420.96,648.66h-11.59l-19.39-29.35v29.35h-11.59v-47.58h11.59l19.39,29.48v-29.48h11.59v47.58Z"/>
        <path class="st0" d="M458.99,640.26h-17.76l-2.85,8.4h-12.13l17.22-47.58h13.42l17.22,47.58h-12.27l-2.85-8.4ZM456.01,631.31l-5.9-17.42-5.83,17.42h11.73Z"/>
        <path class="st0" d="M521.89,648.66h-11.59l-19.39-29.35v29.35h-11.59v-47.58h11.59l19.39,29.48v-29.48h11.59v47.58Z"/>
        <path class="st0" d="M531.35,612.57c2.02-3.65,4.82-6.49,8.43-8.53,3.6-2.04,7.69-3.06,12.26-3.06,5.6,0,10.39,1.48,14.37,4.43,3.98,2.96,6.65,6.98,7.99,12.09h-12.62c-.94-1.97-2.27-3.47-3.99-4.5-1.72-1.03-3.68-1.54-5.88-1.54-3.54,0-6.4,1.23-8.6,3.69-2.19,2.46-3.29,5.75-3.29,9.87s1.1,7.41,3.29,9.87c2.19,2.46,5.06,3.69,8.6,3.69,2.19,0,4.15-.51,5.88-1.54,1.72-1.03,3.05-2.53,3.99-4.5h12.62c-1.34,5.1-4.01,9.12-7.99,12.06-3.98,2.93-8.78,4.4-14.37,4.4-4.57,0-8.65-1.02-12.26-3.06-3.6-2.03-6.41-4.87-8.43-8.49-2.01-3.62-3.02-7.77-3.02-12.42s1.01-8.8,3.02-12.46Z"/>
        <path class="st0" d="M593.54,601.08v47.58h-11.59v-47.58h11.59Z"/>
        <path class="st0" d="M631.57,640.26h-17.76l-2.85,8.4h-12.13l17.22-47.58h13.42l17.22,47.58h-12.27l-2.85-8.4ZM628.58,631.31l-5.9-17.42-5.83,17.42h11.73Z"/>
        <path class="st0" d="M663.49,639.72h15.18v8.95h-26.77v-47.58h11.59v38.63h0Z"/>
        <path class="st0" d="M352.3,657.57v9.29h-19.39v10.03h14.51v9.02h-14.51v19.25h-11.59v-47.59h30.98Z"/>
        <path class="st0" d="M388.02,696.74h-17.76l-2.85,8.41h-12.13l17.22-47.59h13.42l17.22,47.59h-12.27l-2.85-8.41ZM385.04,687.8l-5.9-17.42-5.83,17.42h11.73Z"/>
        <path class="st0" d="M419.95,657.57v47.59h-11.59v-47.59h11.59Z"/>
        <path class="st0" d="M440.69,695.66h20.47v9.49h-33.62v-8.81l20.33-29.28h-20.33v-9.49h33.62v8.81l-20.47,29.28Z"/>
      </g>
    </g>
  </g>
</svg>