<svg xmlns="http://www.w3.org/2000/svg" version="1.1" viewBox="714.2508 396.94065934065935 1645.0500000000002 585.8461538461539" style="max-height: 500px" width="1645.0500000000002" height="585.8461538461539">
<path transform="translate(1037.25,451.6875)" fill="#2C4FFE" d="M0 0 C1.27125732 0.00491455 2.54251465 0.0098291 3.85229492 0.01489258 C38.83313846 0.44956182 69.26743357 14.95348077 94.75 38.3125 C93.42289741 41.25459835 91.98210009 43.32864431 89.70016479 45.60284424 C89.07476807 46.2309903 88.44937134 46.85913635 87.80502319 47.50631714 C87.12025909 48.18389069 86.435495 48.86146423 85.72998047 49.55957031 C84.64689606 50.6430928 84.64689606 50.6430928 83.54193115 51.74850464 C81.15506011 54.13398279 78.7611838 56.51229939 76.3671875 58.890625 C74.71051221 60.54357002 73.05427805 62.19695727 71.39846802 63.85076904 C67.03974083 68.20186088 62.67504076 72.54691313 58.30908203 76.89074707 C53.85478495 81.32458371 49.40614582 85.76408909 44.95703125 90.203125 C36.22689145 98.9118166 27.49043306 107.61414008 18.75 116.3125 C20.1788578 115.48724068 20.1788578 115.48724068 21.63658142 114.64530945 C22.90341409 113.9166763 24.17030886 113.18815113 25.43725586 112.4597168 C26.06306297 112.09789055 26.68887009 111.7360643 27.33364105 111.36327362 C32.19063772 108.57503271 37.09136185 106.16405406 42.3125 104.125 C43.14040039 103.79749756 43.96830078 103.46999512 44.82128906 103.13256836 C78.77053383 90.20270508 115.69272089 91.08366323 149.03808594 105.28710938 C183.13969183 120.64432695 206.40095967 147.57553615 220.5 181.6875 C232.59053221 214.36461407 230.73362221 252.22699029 216.59521484 283.89941406 C204.63394338 309.09782595 184.75124082 327.48718459 165.328125 346.97265625 C164.24279707 348.06204347 163.15749816 349.1514596 162.07222748 350.24090385 C156.97302455 355.3590723 151.87146963 360.47488187 146.76697278 365.58777052 C140.92401452 371.44050153 135.0894432 377.30143028 129.26181722 383.16942698 C124.72075568 387.74083889 120.1718633 392.30436619 115.61724925 396.86227506 C112.91298444 399.56886646 110.21198081 402.27851493 107.51932526 404.99666023 C93.69194777 418.94818247 80.13207169 432.15300484 62.4375 441.125 C61.55360596 441.57875 60.66971191 442.0325 59.7590332 442.5 C27.82720064 458.45877142 -9.44471272 460.40905832 -43.25 449.3125 C-62.79232308 442.63550358 -79.80157432 432.06979939 -94.25 417.3125 C-92.92289741 414.37040165 -91.48210009 412.29635569 -89.20016479 410.02215576 C-88.2620697 409.07993668 -88.2620697 409.07993668 -87.30502319 408.11868286 C-86.62025909 407.44110931 -85.935495 406.76353577 -85.22998047 406.06542969 C-84.50792419 405.34308136 -83.78586792 404.62073303 -83.04193115 403.87649536 C-80.65506011 401.49101721 -78.2611838 399.11270061 -75.8671875 396.734375 C-74.21051221 395.08142998 -72.55427805 393.42804273 -70.89846802 391.77423096 C-66.53974083 387.42313912 -62.17504076 383.07808687 -57.80908203 378.73425293 C-53.35478495 374.30041629 -48.90614582 369.86091091 -44.45703125 365.421875 C-35.72689145 356.7131834 -26.99043306 348.01085992 -18.25 339.3125 C-19.69224945 340.14156609 -19.69224945 340.14156609 -21.16363525 340.98738098 C-22.4375079 341.71796285 -23.71141516 342.44848437 -24.98535156 343.17895508 C-25.93373398 343.72444378 -25.93373398 343.72444378 -26.90127563 344.28095245 C-47.59395057 356.13586736 -69.93792738 361.75414714 -93.75 361.6875 C-94.8006514 361.68718277 -94.8006514 361.68718277 -95.87252808 361.68685913 C-107.70315776 361.65134081 -118.84187559 360.56014618 -130.25 357.3125 C-130.91692871 357.13058105 -131.58385742 356.94866211 -132.27099609 356.76123047 C-166.55262014 347.2020136 -194.42817612 322.85225987 -212 292.4375 C-229.52595919 260.94316908 -232.11404887 223.5126584 -222.63720703 189.08642578 C-212.74806353 155.59143164 -188.99596359 132.89788132 -165.046875 108.87109375 C-163.97269115 107.79285046 -162.89853624 106.71457833 -161.82440948 105.63627815 C-156.7775318 100.57043594 -151.72830277 95.50695202 -146.67613196 90.44638866 C-140.89373373 84.65421782 -135.11972353 78.85385013 -129.35265803 73.04641384 C-124.85830669 68.52170921 -120.35612201 64.00489224 -115.8482163 59.49369198 C-113.17189653 56.81504598 -110.49883684 54.13334616 -107.83412933 51.44314384 C-86.83354898 30.25212888 -65.45049158 12.87599073 -36.1875 4.5625 C-35.49237305 4.36374268 -34.79724609 4.16498535 -34.08105469 3.96020508 C-22.82420176 0.93041298 -11.6289711 -0.05353967 0 0 Z"/>
<path transform="translate(848,585)" fill="#3B03A8" d="M0 0 C5.55153557 4.62432301 10.68532596 9.5485616 15.78100586 14.66748047 C16.63058868 15.51691727 17.48017151 16.36635406 18.35549927 17.24153137 C20.66467735 19.55128322 22.97163402 21.86322545 25.27758861 24.17619467 C27.69542349 26.60031731 30.1161257 29.02157336 32.53651428 31.44314575 C37.11049497 36.02022386 41.68192244 40.59984313 46.25241905 45.18040001 C51.45968184 50.39887351 56.66981362 55.61447862 61.88017833 60.82985473 C72.58996199 71.55006675 83.29616999 82.27384317 94 93 C97.24501444 91.57510293 99.3975619 89.84811333 101.89103699 87.34274292 C102.65236435 86.58271973 103.41369171 85.82269653 104.1980896 85.03964233 C105.02370392 84.20526642 105.84931824 83.3708905 106.69995117 82.51123047 C108.01514992 81.19406036 108.01514992 81.19406036 109.35691833 79.85028076 C111.26023658 77.94269853 113.16163028 76.03340583 115.05998802 74.12090683 C118.05897087 71.09965057 121.06503277 68.08550523 124.07209778 65.07229614 C128.82386301 60.3091575 133.57092882 55.54136684 138.31596786 50.77152836 C146.82369512 42.2194214 155.33707655 33.67295152 163.85562688 25.13162529 C166.84687306 22.13194903 169.83528777 19.12948757 172.82148969 16.12478995 C175.1085327 13.82465618 177.3986664 11.52760243 179.68823242 9.22998047 C180.51991943 8.39155609 181.35160645 7.55313171 182.20849609 6.68930054 C182.96136398 5.93491699 183.71423187 5.18053345 184.48991394 4.40328979 C185.14748782 3.74219648 185.8050617 3.08110317 186.48256207 2.39997673 C188 1 188 1 189 1 C189.32762185 25.26988746 189.57420175 49.53944166 189.72537041 73.8110981 C189.79743973 85.08201314 189.89561991 96.35155115 190.05615234 107.62158203 C190.19607232 117.44925289 190.28610261 127.27592622 190.31723893 137.1045655 C190.33543023 142.30528251 190.37790511 147.50314695 190.48022079 152.70294571 C190.57593366 157.60735561 190.60443377 162.50776589 190.58350754 167.41302109 C190.58732972 169.20375139 190.61479161 170.99462846 190.66887665 172.7845459 C190.9292337 181.8529922 190.52143581 188.26200765 184.11198819 195.10832775 C178.65440781 200.37844919 172.76116611 205.22748019 166.125 208.9375 C165.37089844 209.37658691 164.61679687 209.81567383 163.83984375 210.26806641 C142.60841764 222.37300219 119.96869292 228.44348495 95.5 228.375 C94.4493486 228.37468277 94.4493486 228.37468277 93.37747192 228.37435913 C81.54684224 228.33884081 70.40812441 227.24764618 59 224 C57.99960693 223.72712158 57.99960693 223.72712158 56.97900391 223.44873047 C22.69737986 213.8895136 -5.17817612 189.53975987 -22.75 159.125 C-40.27595919 127.63066908 -42.86404887 90.2001584 -33.38720703 55.77392578 C-27.03530259 34.25972668 -15.22422427 16.26796542 0 0 Z"/>
<path transform="translate(1037.25,451.6875)" fill="#FEB40D" d="M0 0 C1.27125732 0.00491455 2.54251465 0.0098291 3.85229492 0.01489258 C38.83313846 0.44956182 69.26743357 14.95348077 94.75 38.3125 C93.32095377 41.56867615 91.57946691 43.73232275 89.07064819 46.23908997 C88.30535797 47.00857468 87.54006775 47.77805939 86.75158691 48.57086182 C85.91107788 49.40575134 85.07056885 50.24064087 84.20458984 51.10083008 C82.87743454 52.4308329 82.87743454 52.4308329 81.52346802 53.78770447 C79.09703703 56.21720582 76.66621834 58.64214929 74.23318815 61.06503129 C71.68183894 63.60758014 69.13578016 66.1554167 66.58901978 68.70256042 C62.30672657 72.98391704 58.02058 77.26138487 53.73193359 81.53637695 C48.78906807 86.46356221 43.85140246 91.39590848 38.91673887 96.33130723 C33.64870356 101.60002114 28.37685449 106.86490649 23.10390139 112.12869811 C21.59299164 113.63748701 20.08278406 115.14697566 18.57273483 116.65662575 C15.74207145 119.4860866 12.90715291 122.31124753 10.07177734 125.13598633 C9.2434137 125.96480316 8.41505005 126.79362 7.56158447 127.64755249 C3.41121065 131.77529646 -0.82040904 135.72166231 -5.25406456 139.54171467 C-9.00651307 142.87087083 -12.51500098 146.4475723 -16.05273438 150.00170898 C-16.89270966 150.84153824 -17.73268494 151.68136749 -18.59811401 152.54664612 C-21.3490389 155.29826266 -24.09641368 158.05339462 -26.84375 160.80859375 C-28.75995895 162.72722856 -30.67692438 164.64510686 -32.59387207 166.56300354 C-37.10761384 171.07983977 -41.61880285 175.59921649 -46.1290555 180.11953646 C-51.26862346 185.27032445 -56.41106858 190.4182359 -61.55374432 195.56592071 C-72.12234273 206.14494076 -82.68736497 216.72752554 -93.25 227.3125 C-96.51362976 225.88156155 -98.67615023 224.13379135 -101.18572998 221.61727905 C-101.95691666 220.84884171 -102.72810333 220.08040436 -103.5226593 219.28868103 C-104.3591954 218.44495438 -105.19573151 217.60122772 -106.05761719 216.73193359 C-106.94577621 215.84406662 -107.83393524 214.95619965 -108.74900818 214.04142761 C-111.18087819 211.61013109 -113.60653521 209.17272036 -116.03112316 206.73416471 C-118.56731792 204.18546197 -121.10918285 201.64242711 -123.65045166 199.0987854 C-128.46028534 194.28273716 -133.26499831 189.46161367 -138.06789231 184.63864577 C-143.53672294 179.14745542 -149.01123807 173.66194739 -154.486238 168.17690921 C-165.7471623 156.89508345 -177.00092689 145.60614333 -188.25 134.3125 C-186.79357913 130.96865668 -184.95532136 128.76265524 -182.38996887 126.18504333 C-181.58430984 125.37085434 -180.77865082 124.55666534 -179.94857788 123.71780396 C-178.62015366 122.39073929 -178.62015366 122.39073929 -177.26489258 121.03686523 C-176.32303006 120.08901558 -175.38157818 119.14075773 -174.44050598 118.19212341 C-171.88260479 115.61655338 -169.31824629 113.04750738 -166.75213456 110.48012042 C-165.1437947 108.87035655 -163.53688864 107.25917569 -161.93048668 105.6474781 C-156.30972122 100.00819496 -150.68379685 94.37411804 -145.05297852 88.74487305 C-139.83397533 83.52706509 -134.62616197 78.29827619 -129.42363626 73.06404346 C-124.93806285 68.55212661 -120.44461573 64.04815077 -115.94521636 59.55002171 C-113.26680189 56.8721125 -110.59144987 54.19132563 -107.92402077 51.50247002 C-86.88251181 30.30386591 -65.48538643 12.8859042 -36.1875 4.5625 C-35.49237305 4.36374268 -34.79724609 4.16498535 -34.08105469 3.96020508 C-22.82420176 0.93041298 -11.6289711 -0.05353967 0 0 Z"/>
<path transform="translate(1217.25830078125,576.226806640625)" fill="#27E2CB" d="M0 0 C26.56699838 22.42916142 44.04543543 53.97855637 47.74169922 88.77319336 C49.46603125 130.10285237 39.80872722 165.11570651 11.39404297 196.00756836 C10.84876953 196.59022461 10.30349609 197.17288086 9.74169922 197.77319336 C6.75543783 196.43080289 4.66936974 194.95008837 2.36029434 192.63788414 C1.70790197 191.98947386 1.05550959 191.34106358 0.38334775 190.67300451 C-0.32482632 189.95900476 -1.03300039 189.245005 -1.76263428 188.5093689 C-2.52150916 187.75220286 -3.28038405 186.99503682 -4.06225514 186.21492636 C-6.61122566 183.66925765 -9.15296871 181.11649234 -11.69482422 178.5637207 C-13.51762165 176.74035931 -15.34085923 174.91743784 -17.164505 173.09492493 C-21.09376954 169.16670923 -25.01935483 165.23484749 -28.94246674 161.30048752 C-34.6146352 155.61206682 -40.29231651 149.92917502 -45.97135964 144.24761863 C-55.18501839 135.02958234 -64.39420172 125.80708832 -73.60058594 116.58178711 C-82.5438808 107.62013496 -91.48927328 98.66058523 -100.4375 89.70385742 C-100.98904329 89.15178869 -101.54058658 88.59971995 -102.1088433 88.03092186 C-104.87577953 85.26137556 -107.6427571 82.49187057 -110.40975523 79.72238612 C-133.36568423 56.7457228 -156.31435598 33.76182392 -179.25830078 10.77319336 C-171.63762113 -5.42182241 -149.71738105 -16.05176514 -133.86767578 -21.88696289 C-88.05655862 -38.0159888 -37.85180471 -31.16874036 0 0 Z"/>
<path transform="translate(1130,680)" fill="#3D7DFE" d="M0 0 C3.28198266 1.4364888 5.45082228 3.20342016 7.97369385 5.73318481 C9.14309509 6.89846207 9.14309509 6.89846207 10.33612061 8.08728027 C11.18200745 8.94035767 12.02789429 9.79343506 12.89941406 10.67236328 C13.79732666 11.56998383 14.69523926 12.46760437 15.62036133 13.39242554 C18.07908978 15.85058047 20.53160549 18.31485045 22.98305225 20.78026438 C25.54727454 23.35699408 28.11716645 25.92805644 30.6864624 28.49972534 C35.54941983 33.3688975 40.40725677 38.24314518 45.26327491 43.11923683 C50.79256418 48.67088529 56.32753748 54.21685188 61.86299562 59.76234841 C73.24833386 71.16858848 84.62651247 82.58194296 96 94 C91.37567699 99.55153557 86.4514384 104.68532596 81.33251953 109.78100586 C80.48308273 110.63058868 79.63364594 111.48017151 78.75846863 112.35549927 C76.44871678 114.66467735 74.13677455 116.97163402 71.82380533 119.27758861 C69.39968269 121.69542349 66.97842664 124.1161257 64.55685425 126.53651428 C59.97977614 131.11049497 55.40015687 135.68192244 50.81959999 140.25241905 C45.60112649 145.45968184 40.38552138 150.66981362 35.17014527 155.88017833 C24.44993325 166.58996199 13.72615683 177.29616999 3 188 C-0.25167426 186.57084207 -2.42864728 184.82802435 -4.94245911 182.33169556 C-5.71509094 181.56903885 -6.48772278 180.80638214 -7.2837677 180.02061462 C-8.12187485 179.18317215 -8.95998199 178.34572968 -9.82348633 177.48291016 C-10.71325165 176.60146835 -11.60301697 175.72002655 -12.51974487 174.81187439 C-14.95521546 172.3963655 -17.38600796 169.97635008 -19.81405473 167.55339098 C-21.33069918 166.04039137 -22.8486332 164.52869783 -24.36701012 163.01743698 C-29.66209474 157.74682832 -34.95145091 152.47054024 -40.23608398 147.18945312 C-45.16629627 142.26288286 -50.10950634 137.34962047 -55.0587576 132.44218409 C-59.30627893 128.22929944 -63.54418329 124.00690104 -67.77477092 119.77701223 C-70.30236393 117.25021377 -72.83381243 114.72758734 -75.37516212 112.21461868 C-78.20518725 109.41549864 -81.01515804 106.59677519 -83.82348633 103.77587891 C-84.67171463 102.94248489 -85.51994293 102.10909088 -86.39387512 101.2504425 C-87.15240784 100.48214615 -87.91094055 99.71384979 -88.69245911 98.92227173 C-89.35925092 98.25749125 -90.02604273 97.59271076 -90.71304035 96.90778542 C-92 95 -92 95 -91.93015671 93.00084114 C-90.77457549 90.51509392 -89.36966607 89.0008779 -87.42503357 87.06427002 C-86.65797089 86.29308334 -85.8909082 85.52189667 -85.1006012 84.7273407 C-84.25327927 83.8908046 -83.40595734 83.05426849 -82.53295898 82.19238281 C-81.64523804 81.30422379 -80.75751709 80.41606476 -79.84289551 79.50099182 C-77.40962186 77.06685714 -74.96720687 74.64208543 -72.52305865 72.21887684 C-69.9699011 69.68446806 -67.4252319 67.14156591 -64.87965393 64.59954834 C-60.05847825 59.78769841 -55.229706 54.98354714 -50.39816481 50.18210769 C-44.89777867 44.71524905 -39.40590466 39.23987341 -33.91473281 33.763762 C-22.6192736 22.49966381 -11.31316042 11.24632145 0 0 Z"/>
<path transform="translate(1037.25,451.6875)" fill="#FEDC0F" d="M0 0 C1.90688599 0.00737183 1.90688599 0.00737183 3.85229492 0.01489258 C38.83313846 0.44956182 69.26743357 14.95348077 94.75 38.3125 C93.3135112 41.59448266 91.54657984 43.76332228 89.01681519 46.28619385 C87.85153793 47.45559509 87.85153793 47.45559509 86.66271973 48.64862061 C85.80964233 49.49450745 84.95656494 50.34039429 84.07763672 51.21191406 C83.18001617 52.10982666 82.28239563 53.00773926 81.35757446 53.93286133 C78.89941953 56.39158978 76.43514955 58.84410549 73.96973562 61.29555225 C71.39300592 63.85977454 68.82194356 66.42966645 66.25027466 68.9989624 C61.3811025 73.86191983 56.50685482 78.71975677 51.63076317 83.57577491 C46.07911471 89.10506418 40.53314812 94.64003748 34.98765159 100.17549562 C23.58141152 111.56083386 12.16805704 122.93901247 0.75 134.3125 C-4.8356465 129.66158041 -9.99651353 124.70261637 -15.12280273 119.55322266 C-15.98213913 118.69403229 -16.84147552 117.83484192 -17.72685242 116.94961548 C-20.06289178 114.61300229 -22.39670241 112.27420553 -24.7295177 109.93437624 C-27.17538015 107.48222672 -29.62410926 105.03294313 -32.07252502 102.58334351 C-36.69962953 97.95314138 -41.32418085 93.32039799 -45.94780165 88.68671739 C-51.21552311 83.40778586 -56.486113 78.13172216 -61.75693595 72.85588765 C-72.5911336 62.01126118 -83.42175532 51.16307065 -94.25 40.3125 C-86.97815334 24.8818496 -62.51750368 13.79962529 -47.19384766 8.00048828 C-43.56467738 6.71601179 -39.89001368 5.6143683 -36.1875 4.5625 C-35.49237305 4.36374268 -34.79724609 4.16498535 -34.08105469 3.96020508 C-22.82420176 0.93041298 -11.6289711 -0.05353967 0 0 Z"/>
<path transform="translate(1226,585)" fill="#08BFA6" d="M0 0 C22.94850632 17.8294084 33.43843948 48.85568925 38.61328125 76.24609375 C42.28831141 111.91987134 34.77294048 147.81637983 12.25 176.33203125 C8.60545892 180.65359645 4.8627376 184.87244115 1 189 C-2.26362976 187.56906155 -4.42615023 185.82129135 -6.93572998 183.30477905 C-7.70691666 182.53634171 -8.47810333 181.76790436 -9.2726593 180.97618103 C-10.1091954 180.13245438 -10.94573151 179.28872772 -11.80761719 178.41943359 C-12.69577621 177.53156662 -13.58393524 176.64369965 -14.49900818 175.72892761 C-16.93087819 173.29763109 -19.35653521 170.86022036 -21.78112316 168.42166471 C-24.31731792 165.87296197 -26.85918285 163.32992711 -29.40045166 160.7862854 C-34.21028534 155.97023716 -39.01499831 151.14911367 -43.81789231 146.32614577 C-49.28672294 140.83495542 -54.76123807 135.34944739 -60.236238 129.86440921 C-71.4971623 118.58258345 -82.75092689 107.29364333 -94 96 C-92.5635112 92.71801734 -90.79657984 90.54917772 -88.26681519 88.02630615 C-87.10153793 86.85690491 -87.10153793 86.85690491 -85.91271973 85.66387939 C-85.05964233 84.81799255 -84.20656494 83.97210571 -83.32763672 83.10058594 C-82.43001617 82.20267334 -81.53239563 81.30476074 -80.60757446 80.37963867 C-78.14941953 77.92091022 -75.68514955 75.46839451 -73.21973562 73.01694775 C-70.64300592 70.45272546 -68.07194356 67.88283355 -65.50027466 65.3135376 C-60.6311025 60.45058017 -55.75685482 55.59274323 -50.88076317 50.73672509 C-45.32911471 45.20743582 -39.78314812 39.67246252 -34.23765159 34.13700438 C-22.83141152 22.75166614 -11.41805704 11.37348753 0 0 Z"/>
<path transform="translate(848,585)" fill="#5203E8" d="M0 0 C5.5856465 4.65091959 10.74651353 9.60988363 15.87280273 14.75927734 C16.73213913 15.61846771 17.59147552 16.47765808 18.47685242 17.36288452 C20.81289178 19.69949771 23.14670241 22.03829447 25.4795177 24.37812376 C27.92538015 26.83027328 30.37410926 29.27955687 32.82252502 31.72915649 C37.44962953 36.35935862 42.07418085 40.99210201 46.69780165 45.62578261 C51.96552311 50.90471414 57.236113 56.18077784 62.50693595 61.45661235 C73.3411336 72.30123882 84.17175532 83.14942935 95 94 C90.34908041 99.5856465 85.39011637 104.74651353 80.24072266 109.87280273 C79.38153229 110.73213913 78.52234192 111.59147552 77.63711548 112.47685242 C75.30050229 114.81289178 72.96170553 117.14670241 70.62187624 119.4795177 C68.16972672 121.92538015 65.72044313 124.37410926 63.27084351 126.82252502 C58.64064138 131.44962953 54.00789799 136.07418085 49.37421739 140.69780165 C44.09528586 145.96552311 38.81922216 151.236113 33.54338765 156.50693595 C22.69876118 167.3411336 11.85057065 178.17175532 1 189 C-0.11171353 188.06531092 -1.22082362 187.12752488 -2.32885742 186.18847656 C-2.94677658 185.66658752 -3.56469574 185.14469849 -4.20133972 184.60699463 C-27.34418355 163.93025752 -37.19288463 129.49531781 -38.89794922 99.59912109 C-40.34613593 62.71539928 -26.42631691 28.69938043 -1.65234375 1.765625 C-0.83443359 0.89164063 -0.83443359 0.89164063 0 0 Z"/>
<path transform="translate(1430,509)" fill="#404041" d="M0 0 C0 9.24 0 18.48 0 28 C-7.1875 29.1875 -7.1875 29.1875 -9.42260742 29.52416992 C-14.39555619 30.43548545 -16.82188744 32.13874175 -20 36 C-21.93686373 39.77688428 -22.27246824 42.63480942 -23 47 C-3.2 47 16.6 47 37 47 C37.05607422 54.31478516 37.05607422 54.31478516 37.11328125 61.77734375 C37.14358473 64.8808936 37.17474802 67.98438774 37.20898438 71.08789062 C37.26315289 76.00558544 37.31426837 80.92317008 37.34643555 85.84106445 C37.37259222 89.80942715 37.41308013 93.77741635 37.46318626 97.74554634 C37.47977191 99.25362029 37.49133759 100.76175872 37.49761391 102.26991081 C37.462522 115.87824567 37.462522 115.87824567 43.1875 127.875 C49.51221463 132.65367328 56.14329784 134.08242491 64 133 C70.28208835 131.23503232 74.37414568 128.54542425 78 123 C81.77981615 115.38618092 81.47671824 107.65854872 81.51171875 99.34375 C81.52858691 97.83059247 81.54674 96.31744878 81.56611633 94.80432129 C81.61339093 90.8457471 81.64334532 86.88722901 81.66955566 82.9284668 C81.70474775 78.16580438 81.76169562 73.40335727 81.81494904 68.64086914 C81.89319843 61.42727437 81.94400302 54.21395628 82 47 C91.9 47 101.8 47 112 47 C112 83.63 112 120.26 112 158 C102.1 158 92.2 158 82 158 C81.67 155.36 81.34 152.72 81 150 C80.47792969 150.45890625 79.95585938 150.9178125 79.41796875 151.390625 C67.95003895 160.95058049 56.88559999 162.08826604 42.36962891 161.22753906 C31.29160256 160.16379287 22.60210222 153.65715916 15.60546875 145.34765625 C10.63247259 138.0757081 7.86423249 129.62816796 7.88647461 120.8425293 C7.88658791 119.34153938 7.88658791 119.34153938 7.88670349 117.81022644 C7.89186478 116.7423439 7.89702606 115.67446136 7.90234375 114.57421875 C7.9037587 113.47149124 7.90517365 112.36876373 7.90663147 111.23262024 C7.91221996 107.71755233 7.92477041 104.20254859 7.9375 100.6875 C7.94251648 98.30143321 7.94707913 95.91536543 7.95117188 93.52929688 C7.96133386 87.68615343 7.98091168 81.84314837 8 76 C-2.23 76 -12.46 76 -23 76 C-23 103.06 -23 130.12 -23 158 C-32.9 158 -42.8 158 -53 158 C-53 130.94 -53 103.88 -53 76 C-57.95 76 -62.9 76 -68 76 C-68 66.43 -68 56.86 -68 47 C-63.05 47 -58.1 47 -53 47 C-52.90203125 45.80503906 -52.8040625 44.61007812 -52.703125 43.37890625 C-51.21351268 26.9344157 -51.21351268 26.9344157 -47 20 C-46.401875 18.96875 -45.80375 17.9375 -45.1875 16.875 C-38.03107269 7.46940982 -29.60177447 2.30665836 -17.8359375 0.26953125 C-11.88926028 -0.29564882 -5.96645795 -0.10848105 0 0 Z"/>
<path transform="translate(2068,560)" fill="#404041" d="M0 0 C2.44895578 1.90578395 4.70881869 3.89975046 7 6 C7.33 2.7 7.66 -0.6 8 -4 C17.57 -4 27.14 -4 37 -4 C37.06788265 10.93453114 37.12307785 25.86898257 37.15543652 40.80363178 C37.1708647 47.73901734 37.19187608 54.67429979 37.22631836 61.60961914 C37.25956546 68.30750629 37.2768734 75.00526441 37.28463173 81.70323753 C37.29015794 84.25358957 37.30094916 86.80393602 37.31719017 89.35424232 C37.33909189 92.93721608 37.34196154 96.51975286 37.34057617 100.1027832 C37.351362 101.14792084 37.36214783 102.19305847 37.3732605 103.26986694 C37.31519688 117.22491569 33.07736428 128.46838661 23.54296875 138.609375 C11.10554479 150.30169983 -4.00452828 154.17537252 -20.5625 154.25 C-22.23795898 154.2809375 -22.23795898 154.2809375 -23.94726562 154.3125 C-40.14553419 154.3876224 -54.07347397 149.53384107 -65.859375 138.2421875 C-68.69375804 135.27332643 -70.96578044 132.57742061 -73 129 C-72.89770508 126.99145508 -72.89770508 126.99145508 -72 125 C-70.0222168 123.4284668 -70.0222168 123.4284668 -67.44921875 121.94921875 C-66.52302734 121.41619141 -65.59683594 120.88316406 -64.64257812 120.33398438 C-63.66740234 119.79064453 -62.69222656 119.24730469 -61.6875 118.6875 C-60.72392578 118.12482422 -59.76035156 117.56214844 -58.76757812 116.98242188 C-51.61391413 112.93214919 -51.61391413 112.93214919 -48.79101562 113.24414062 C-46.36057106 114.26985714 -45.38900875 115.71438095 -43.8125 117.8125 C-39.35713694 123.17045816 -33.77438322 125.66490258 -27 127 C-17.3569354 127.74933368 -7.54893664 127.70758163 0.1640625 121.1640625 C5.84706896 115.0600926 7.33374734 109.41066373 7.125 101.125 C7.11597656 100.43664062 7.10695313 99.74828125 7.09765625 99.0390625 C7.07432513 97.35922162 7.03846326 95.67956254 7 94 C6.05125 94.886875 5.1025 95.77375 4.125 96.6875 C-7.11370464 106.27212109 -19.64945116 107.93590536 -34 107 C-48.54142889 104.89485397 -60.59078719 97.81291133 -70 86.62109375 C-80.77310764 72.15633932 -83.55702709 55.65476791 -81 38 C-79.08972481 28.83275545 -75.46349148 21.55615909 -70 14 C-69.278125 12.96875 -68.55625 11.9375 -67.8125 10.875 C-51.41544563 -7.49183039 -21.25456837 -13.79043729 0 0 Z M-46.8203125 32.03515625 C-51.9694811 40.6114205 -53.22301482 48.56691961 -51.59765625 58.4453125 C-49.64096362 65.78610707 -44.80762665 71.27098431 -38.7109375 75.640625 C-30.66014821 80.20361307 -21.48814064 81.2418849 -12.5625 78.8125 C-3.88364802 75.67691477 2.47808617 69.92625592 6.67578125 61.7265625 C9.44507679 53.93332373 9.4809296 44.12936711 6.0625 36.5 C2.1630912 29.96793949 -4.07539245 23.65379888 -11.51953125 21.41015625 C-24.60115902 19.24705245 -38.29620873 20.50996269 -46.8203125 32.03515625 Z"/>
<path transform="translate(1769,512)" fill="#404041" d="M0 0 C9.57 0 19.14 0 29 0 C29 51.15 29 102.3 29 155 C19.43 155 9.86 155 0 155 C-0.33 151.7 -0.66 148.4 -1 145 C-2.6396875 146.5778125 -2.6396875 146.5778125 -4.3125 148.1875 C-15.85065664 158.30905022 -28.91519076 158.69724357 -43.49951172 158.17480469 C-55.69545972 157.32220766 -66.94445742 149.95609958 -75.15625 141.22265625 C-85.92542215 128.24032795 -91.45590719 111.90730933 -90 95 C-88.13794881 79.02021524 -82.78971272 66.41007975 -71 55 C-70.41347656 54.41605469 -69.82695313 53.83210937 -69.22265625 53.23046875 C-59.22728031 43.94064876 -45.69780305 40.33403436 -32.296875 40.71875 C-19.32585538 41.82528248 -10.19108951 45.80891049 -1 55 C-0.67 36.85 -0.34 18.7 0 0 Z M-54.25 80.25 C-59.71610845 88.83959899 -61.14105449 96.85858714 -60 107 C-58.1481862 114.64653452 -54.34520233 121.09060366 -47.75390625 125.50390625 C-39.23234805 130.4153462 -30.08826516 131.74318817 -20.36328125 129.3515625 C-11.98571129 125.93035592 -5.61011307 120.06610851 -1.91015625 111.80078125 C0.99104917 102.87303754 0.80508161 93.60393024 -3 85 C-7.13790488 77.99067299 -12.4534377 72.82011544 -20.26171875 70.2578125 C-33.78347376 66.90607017 -44.56958997 70.56958997 -54.25 80.25 Z"/>
<path transform="translate(1037,586)" fill="#5103E8" d="M0 0 C7.875 6.75 7.875 6.75 11.14463806 10.02438354 C11.88629211 10.76466293 12.62794617 11.50494232 13.39207458 12.26765442 C14.18042191 13.05959702 14.96876923 13.85153961 15.78100586 14.66748047 C16.63058868 15.51691727 17.48017151 16.36635406 18.35549927 17.24153137 C20.66467735 19.55128322 22.97163402 21.86322545 25.27758861 24.17619467 C27.69542349 26.60031731 30.1161257 29.02157336 32.53651428 31.44314575 C37.11049497 36.02022386 41.68192244 40.59984313 46.25241905 45.18040001 C51.45968184 50.39887351 56.66981362 55.61447862 61.88017833 60.82985473 C72.58996199 71.55006675 83.29616999 82.27384317 94 93 C89.37759466 98.54699539 84.45895769 103.68352559 79.34838867 108.78100586 C78.07664291 110.0553801 78.07664291 110.0553801 76.77920532 111.35549927 C74.4735867 113.66474309 72.1657611 115.97175085 69.8567369 118.27758861 C67.43605295 120.69572697 65.01782529 123.11631979 62.59919739 125.53651428 C58.54522146 129.59230342 54.48915465 133.64599254 50.43188477 137.69848633 C45.73675231 142.38815574 41.04526282 147.08144645 36.35560626 151.77659124 C32.32421876 155.81250786 28.29089707 159.84648376 24.25593358 163.87882525 C21.84771189 166.28548588 19.44017599 168.69282209 17.03438377 171.10191154 C14.36020591 173.77861206 11.68287289 176.45211489 9.00463867 179.12475586 C8.20414597 179.9272728 7.40365326 180.72978973 6.5789032 181.55662537 C5.85416809 182.27854065 5.12943298 183.00045593 4.38273621 183.74424744 C3.43345639 184.69296172 3.43345639 184.69296172 2.4649992 185.66084194 C1 187 1 187 0 187 C0 125.29 0 63.58 0 0 Z"/>
<path transform="translate(1037,586)" fill="#27E2CB" d="M0 0 C0 61.71 0 123.42 0 187 C-7.875 180.25 -7.875 180.25 -11.14463806 176.97561646 C-11.88629211 176.23533707 -12.62794617 175.49505768 -13.39207458 174.73234558 C-14.57459557 173.54443169 -14.57459557 173.54443169 -15.78100586 172.33251953 C-16.63058868 171.48308273 -17.48017151 170.63364594 -18.35549927 169.75846863 C-20.66467735 167.44871678 -22.97163402 165.13677455 -25.27758861 162.82380533 C-27.69542349 160.39968269 -30.1161257 157.97842664 -32.53651428 155.55685425 C-37.11049497 150.97977614 -41.68192244 146.40015687 -46.25241905 141.81959999 C-51.45968184 136.60112649 -56.66981362 131.38552138 -61.88017833 126.17014527 C-72.58996199 115.44993325 -83.29616999 104.72615683 -94 94 C-89.37759466 88.45300461 -84.45895769 83.31647441 -79.34838867 78.21899414 C-78.07664291 76.9446199 -78.07664291 76.9446199 -76.77920532 75.64450073 C-74.4735867 73.33525691 -72.1657611 71.02824915 -69.8567369 68.72241139 C-67.43605295 66.30427303 -65.01782529 63.88368021 -62.59919739 61.46348572 C-58.54522146 57.40769658 -54.48915465 53.35400746 -50.43188477 49.30151367 C-45.73675231 44.61184426 -41.04526282 39.91855355 -36.35560626 35.22340876 C-32.32421876 31.18749214 -28.29089707 27.15351624 -24.25593358 23.12117475 C-21.84771189 20.71451412 -19.44017599 18.30717791 -17.03438377 15.89808846 C-14.36020591 13.22138794 -11.68287289 10.54788511 -9.00463867 7.87524414 C-8.20414597 7.0727272 -7.40365326 6.27021027 -6.5789032 5.44337463 C-5.49180054 4.36050171 -5.49180054 4.36050171 -4.38273621 3.25575256 C-3.74988299 2.62327638 -3.11702978 1.99080019 -2.4649992 1.33915806 C-1 0 -1 0 0 0 Z"/>
<path transform="translate(1648.9765625,560.3515625)" fill="#404041" d="M0 0 C0.66773438 0.54398438 1.33546875 1.08796875 2.0234375 1.6484375 C2.64992188 2.15117188 3.27640625 2.65390625 3.921875 3.171875 C11.48264013 9.94024553 15.64431665 19.71653193 17.0234375 29.6484375 C17.29513447 35.55732787 17.25677997 41.45732497 17.21875 47.37109375 C17.21501415 49.08458795 17.21216988 50.79808431 17.21017456 52.51158142 C17.2025831 56.99468002 17.18297377 61.47764651 17.1607666 65.96069336 C17.14021088 70.54604303 17.13115215 75.13141429 17.12109375 79.71679688 C17.09972312 88.69407744 17.06457817 97.67122575 17.0234375 106.6484375 C7.4534375 106.6484375 -2.1165625 106.6484375 -11.9765625 106.6484375 C-12.01394531 101.92789063 -12.05132813 97.20734375 -12.08984375 92.34375 C-12.12015433 89.33590245 -12.15132221 86.32811187 -12.18554688 83.3203125 C-12.23967367 78.55634594 -12.29079025 73.79249207 -12.32299805 69.02832031 C-12.349193 65.183141 -12.38970665 61.33834465 -12.43974876 57.49340439 C-12.45630891 56.03360671 -12.46789024 54.57374297 -12.47417641 53.1138649 C-12.41034615 39.07013103 -12.41034615 39.07013103 -18.2890625 26.7109375 C-25.32740276 21.30942055 -31.24320564 20.74787552 -39.9765625 21.6484375 C-45.78809955 22.94180628 -49.07742081 25.27070936 -52.4765625 30.1484375 C-55.63338081 35.26949832 -56.10420058 39.35194637 -56.18188477 45.34472656 C-56.19673416 46.34046692 -56.19673416 46.34046692 -56.21188354 47.35632324 C-56.2433751 49.54220052 -56.26820687 51.7280995 -56.29296875 53.9140625 C-56.31354895 55.43292799 -56.33454571 56.95178788 -56.35594177 58.47064209 C-56.41105234 62.46215275 -56.46051003 66.45371415 -56.50878906 70.4453125 C-56.5679325 75.23783908 -56.6340997 80.03027321 -56.69908905 84.82272339 C-56.79695995 92.09790481 -56.88591068 99.3731464 -56.9765625 106.6484375 C-66.8765625 106.6484375 -76.7765625 106.6484375 -86.9765625 106.6484375 C-86.9765625 70.0184375 -86.9765625 33.3884375 -86.9765625 -4.3515625 C-77.0765625 -4.3515625 -67.1765625 -4.3515625 -56.9765625 -4.3515625 C-56.6465625 -1.3815625 -56.3165625 1.5884375 -55.9765625 4.6484375 C-55.51507812 4.18953125 -55.05359375 3.730625 -54.578125 3.2578125 C-40.27767927 -10.19478072 -15.95276701 -11.80619941 0 0 Z"/>
<path transform="translate(1955.9765625,560.3515625)" fill="#404041" d="M0 0 C0.66773438 0.54398438 1.33546875 1.08796875 2.0234375 1.6484375 C2.64992188 2.15117188 3.27640625 2.65390625 3.921875 3.171875 C11.48264013 9.94024553 15.64431665 19.71653193 17.0234375 29.6484375 C17.29513447 35.55732787 17.25677997 41.45732497 17.21875 47.37109375 C17.21501415 49.08458795 17.21216988 50.79808431 17.21017456 52.51158142 C17.2025831 56.99468002 17.18297377 61.47764651 17.1607666 65.96069336 C17.14021088 70.54604303 17.13115215 75.13141429 17.12109375 79.71679688 C17.09972312 88.69407744 17.06457817 97.67122575 17.0234375 106.6484375 C7.4534375 106.6484375 -2.1165625 106.6484375 -11.9765625 106.6484375 C-12.01394531 101.92789063 -12.05132813 97.20734375 -12.08984375 92.34375 C-12.12015433 89.33590245 -12.15132221 86.32811187 -12.18554688 83.3203125 C-12.23967367 78.55634594 -12.29079025 73.79249207 -12.32299805 69.02832031 C-12.349193 65.183141 -12.38970665 61.33834465 -12.43974876 57.49340439 C-12.45630891 56.03360671 -12.46789024 54.57374297 -12.47417641 53.1138649 C-12.41034615 39.07013103 -12.41034615 39.07013103 -18.2890625 26.7109375 C-25.32740276 21.30942055 -31.24320564 20.74787552 -39.9765625 21.6484375 C-45.78809955 22.94180628 -49.07742081 25.27070936 -52.4765625 30.1484375 C-55.63338081 35.26949832 -56.10420058 39.35194637 -56.18188477 45.34472656 C-56.19673416 46.34046692 -56.19673416 46.34046692 -56.21188354 47.35632324 C-56.2433751 49.54220052 -56.26820687 51.7280995 -56.29296875 53.9140625 C-56.31354895 55.43292799 -56.33454571 56.95178788 -56.35594177 58.47064209 C-56.41105234 62.46215275 -56.46051003 66.45371415 -56.50878906 70.4453125 C-56.5679325 75.23783908 -56.6340997 80.03027321 -56.69908905 84.82272339 C-56.79695995 92.09790481 -56.88591068 99.3731464 -56.9765625 106.6484375 C-66.8765625 106.6484375 -76.7765625 106.6484375 -86.9765625 106.6484375 C-86.9765625 70.0184375 -86.9765625 33.3884375 -86.9765625 -4.3515625 C-77.0765625 -4.3515625 -67.1765625 -4.3515625 -56.9765625 -4.3515625 C-56.6465625 -1.3815625 -56.3165625 1.5884375 -55.9765625 4.6484375 C-55.51507812 4.18953125 -55.05359375 3.730625 -54.578125 3.2578125 C-40.27767927 -10.19478072 -15.95276701 -11.80619941 0 0 Z"/>
<path transform="translate(1837.6875,745)" fill="#404041" d="M0 0 C10.88856019 9.49017367 17.49135374 21.8942687 20.3125 36 C20.3125 41.61 20.3125 47.22 20.3125 53 C-12.3575 53 -45.0275 53 -78.6875 53 C-75.48941484 66.34357818 -75.48941484 66.34357818 -68.6875 77 C-68.20925781 77.61101562 -67.73101563 78.22203125 -67.23828125 78.8515625 C-60.10065019 87.01399197 -48.70137611 91.77243791 -38.09765625 92.90625 C-25.72338891 93.24643604 -15.04551183 91.12920515 -4.6875 84 C-2.10843255 81.39850588 0.16464844 78.78324567 2.34765625 75.84375 C2.99605469 75.2353125 3.64445312 74.626875 4.3125 74 C8.82555935 74.15969287 11.71721016 76.40804686 15.3125 79 C12.86531657 87.70109664 5.46809322 93.03658878 -1.92578125 97.46484375 C-16.60070793 105.62219337 -33.72722394 107.54490324 -50.1875 103.875 C-65.19300938 99.28061651 -77.29311141 90.46415275 -85.2890625 76.83203125 C-93.05231735 61.11035592 -93.84579558 43.36756844 -88.94140625 26.69140625 C-84.10819544 12.46279499 -74.92113083 2.03916533 -61.6875 -5 C-42.01336775 -14.67033619 -17.62299696 -13.41415272 0 0 Z M-63.6875 11 C-64.60982422 11.71736328 -64.60982422 11.71736328 -65.55078125 12.44921875 C-74.40772447 20.2456854 -77.54941378 30.61913782 -78.6875 42 C-49.9775 42 -21.2675 42 8.3125 42 C6.10995792 28.7847475 2.81574387 17.43452419 -8.16015625 9.12890625 C-25.65606032 -2.70728201 -46.96204322 -2.29625288 -63.6875 11 Z"/>
<path transform="translate(2070.390625,746.9609375)" fill="#404041" d="M0 0 C10.37974311 9.49711189 16.32323934 22.32224852 18.609375 36.0390625 C18.609375 40.9890625 18.609375 45.9390625 18.609375 51.0390625 C-14.390625 51.0390625 -47.390625 51.0390625 -81.390625 51.0390625 C-76.05210916 67.05461002 -72.29197668 78.04038651 -57.328125 85.8515625 C-45.49564242 91.32790117 -33.02718315 92.37328688 -20.390625 89.0390625 C-11.45992991 85.56362333 -2.81492197 80.88765645 1.609375 72.0390625 C6.36419146 72.61540389 9.57985712 74.58974771 13.609375 77.0390625 C7.32966392 89.87151558 -3.30969764 96.1744778 -16.25390625 101.13671875 C-32.61606543 106.11248144 -51.68478092 103.95301268 -66.640625 95.9765625 C-79.75015437 87.62452363 -88.82097015 75.83976492 -92.5859375 60.69140625 C-93.58722846 55.70468919 -93.73567981 50.8009268 -93.703125 45.7265625 C-93.69748535 44.80302979 -93.6918457 43.87949707 -93.68603516 42.92797852 C-93.41351869 27.56857301 -88.47743189 14.46184167 -77.734375 3.2890625 C-56.2225063 -17.36233145 -23.01832319 -18.88104288 0 0 Z M-69.390625 12.0390625 C-76.48975111 20.61717322 -79.82332978 29.06799594 -81.390625 40.0390625 C-52.350625 40.0390625 -23.310625 40.0390625 6.609375 40.0390625 C3.09996153 23.66179965 -0.47058037 13.56138528 -14.328125 4.1640625 C-31.56824138 -5.58621858 -55.61010817 -2.58441148 -69.390625 12.0390625 Z"/>
<path transform="translate(1556.30078125,746.515625)" fill="#404041" d="M0 0 C10.86838286 9.19093684 18.57513971 21.23701466 20.69921875 35.484375 C21.80351784 53.88069869 19.82773496 69.47546982 7.26171875 83.796875 C5.75908587 85.37688598 4.23966476 86.94120736 2.69921875 88.484375 C2.13460938 89.06058594 1.57 89.63679687 0.98828125 90.23046875 C-10.76219394 101.26445155 -26.42528943 104.23831106 -41.96484375 103.765625 C-57.2675111 102.96757194 -69.67642357 96.27473826 -80.30078125 85.484375 C-81.29078125 84.49244141 -81.29078125 84.49244141 -82.30078125 83.48046875 C-86.80860976 78.67147066 -89.79615732 73.56703312 -92.30078125 67.484375 C-92.62175781 66.72253906 -92.94273438 65.96070313 -93.2734375 65.17578125 C-98.39590198 50.28489614 -96.45738146 32.33101683 -89.828125 18.38671875 C-82.28342909 4.27831575 -70.09094841 -5.63218928 -54.86328125 -10.453125 C-35.8709921 -15.25506521 -15.59855962 -12.35953992 0 0 Z M-72.30078125 14.484375 C-81.37409274 26.13358424 -84.78534125 38.82434504 -83.30078125 53.484375 C-80.99130305 66.24424205 -73.94381784 77.04169207 -63.30078125 84.484375 C-52.86443703 91.23362755 -41.37197376 93.53258767 -29.05078125 91.984375 C-16.24929209 89.22633059 -5.07340782 81.74171991 2.07421875 70.734375 C8.83059467 58.29650114 10.87629349 45.3944893 7.07421875 31.671875 C5.09550439 25.92451385 2.40493802 21.27255437 -1.30078125 16.484375 C-2.38359375 14.9375 -2.38359375 14.9375 -3.48828125 13.359375 C-9.64131795 6.21070129 -20.0545569 0.96273345 -29.30078125 -0.515625 C-45.820863 -1.43833633 -60.59432518 1.72875542 -72.30078125 14.484375 Z"/>
<path transform="translate(1684.4609375,745.8125)" fill="#404041" d="M0 0 C5.53219533 4.55808784 9.46418511 9.70011162 12.5390625 16.1875 C12.5390625 16.8475 12.5390625 17.5075 12.5390625 18.1875 C9.2390625 19.8375 5.9390625 21.4875 2.5390625 23.1875 C1.84683594 22.11822266 1.84683594 22.11822266 1.140625 21.02734375 C-5.72451534 10.94671278 -13.03798604 5.09135152 -24.89453125 1.84375 C-39.71510885 -0.88336614 -51.96885455 1.83705746 -64.4609375 10.1875 C-65.3478125 10.765 -66.2346875 11.3425 -67.1484375 11.9375 C-76.36139616 20.90145977 -81.50153281 32.92396271 -81.7109375 45.75 C-81.56210337 59.21122012 -76.92411072 70.21466021 -67.8359375 80.04296875 C-57.51253596 89.36459283 -45.17695049 92.69846221 -31.51171875 92.046875 C-20.91136705 90.74482913 -9.99149236 85.95349429 -2.79296875 77.8984375 C-0.85234995 75.40579517 0.89379942 72.88573146 2.5390625 70.1875 C6.73266699 70.85847672 9.94240602 73.0433394 13.5390625 75.1875 C7.58176271 88.24773417 -1.55947694 95.21694159 -14.52734375 101.14453125 C-29.40037859 106.43228132 -47.38865832 106.0428614 -61.828125 99.7109375 C-76.66829917 92.20516811 -86.86285873 80.93340696 -92.4609375 65.1875 C-94.18752549 59.06623035 -94.81910015 53.22145643 -94.7734375 46.875 C-94.76779785 46.04540771 -94.7621582 45.21581543 -94.75634766 44.36108398 C-94.43241614 27.87745992 -88.15581232 14.71707624 -76.4609375 3.1875 C-75.89632813 2.61257813 -75.33171875 2.03765625 -74.75 1.4453125 C-54.65240074 -17.47584193 -21.21892928 -15.62790982 0 0 Z"/>
<path transform="translate(2169,743)" fill="#404041" d="M0 0 C4.61273779 4.38829249 7.61706578 8.04266445 10 14 C6.7 15.98 3.4 17.96 0 20 C-3 16 -3 16 -4.2890625 14.21875 C-8.87353658 8.32059621 -14.70516785 5.42930168 -22 4 C-31.68596237 3.32574291 -40.14189711 3.66412952 -47.9375 9.875 C-52.63553777 14.32291075 -53.21462538 18.36252674 -53.4609375 24.62109375 C-52.59462984 29.09212229 -50.15026621 32.13222292 -46.56640625 34.8359375 C-36.97876281 39.74820215 -26.91705257 42.43192153 -16.48266602 44.98388672 C-6.07275706 47.62235252 2.51043904 50.96978108 8.84375 59.97265625 C11.64219867 64.87939564 12.38819906 69.13445882 12.375 74.75 C12.37338867 75.45938721 12.37177734 76.16877441 12.37011719 76.8996582 C12.2337331 82.74746037 11.13879769 87.10041336 8 92 C7.443125 92.886875 6.88625 93.77375 6.3125 94.6875 C-3.05661958 104.05661958 -14.56615323 107.35560907 -27.5625 107.4375 C-41.26053068 107.24314426 -52.64417882 104.13901205 -62.875 94.625 C-66.19129177 91.12054983 -68.06995288 87.40050744 -70 83 C-67.24829249 80.0444623 -64.58029701 77.88436685 -61 76 C-60.34 76 -59.68 76 -59 76 C-58.09014236 77.50946874 -57.24778901 79.05982636 -56.4375 80.625 C-52.56327673 87.29622349 -47.7289717 90.54984434 -40.625 93.3125 C-28.95685159 95.5254247 -17.29317621 96.00514209 -6.84765625 89.46484375 C-2.87507889 86.31533739 -1.28490286 83.30572545 -0.6640625 78.28125 C-0.47243175 72.79766234 -0.82510194 69.58325822 -4 65 C-10.43762832 59.77828349 -17.98725388 57.46154936 -25.875 55.375 C-27.99902107 54.78110242 -30.12272356 54.18606422 -32.24609375 53.58984375 C-33.24624512 53.31382324 -34.24639648 53.03780273 -35.27685547 52.75341797 C-47.474423 49.37869201 -58.41097022 45.62493112 -65 34 C-67.45235686 27.03171769 -67.331758 16.68086435 -64.2265625 9.93359375 C-58.05085059 0.19799695 -50.32119647 -5.67915459 -39.125 -8.3125 C-25.19107032 -10.57676357 -11.37295085 -8.83502725 0 0 Z"/>
<path transform="translate(1437.6875,743.75)" fill="#404041" d="M0 0 C3.54603074 3.19630752 6.3044603 6.91004323 8.3125 11.25 C8.3125 12.24 8.3125 13.23 8.3125 14.25 C3.3625 16.725 3.3625 16.725 -1.6875 19.25 C-2.5125 17.868125 -3.3375 16.48625 -4.1875 15.0625 C-8.09674202 9.21243429 -12.43380058 6.61655376 -18.8125 3.9375 C-28.5647689 2.20725874 -37.95149106 2.18444349 -46.6875 7.25 C-51.19238066 10.70054689 -53.69915765 14.67934313 -54.6875 20.25 C-54.65295644 24.32614001 -53.84504261 27.64613218 -51.44140625 30.9765625 C-42.70107373 39.47713528 -28.08809505 41.66457699 -16.70947266 44.57592773 C-5.56485071 47.53108595 2.51263241 51.70690954 9.3125 61.25 C12.39043363 67.9188562 12.46896742 76.71415475 10.66015625 83.80859375 C7.23497318 92.29069947 0.74244273 99.37787266 -7.62890625 103.1171875 C-20.22282724 108.13563799 -37.0691609 108.19080527 -49.6875 103.25 C-53.20566752 101.48349395 -56.44893371 99.48287472 -59.6875 97.25 C-60.595 96.6725 -61.5025 96.095 -62.4375 95.5 C-65.97148638 91.96601362 -68.50745 87.73745687 -70.6875 83.25 C-70.6875 82.26 -70.6875 81.27 -70.6875 80.25 C-67.3875 78.6 -64.0875 76.95 -60.6875 75.25 C-59.45 77.291875 -59.45 77.291875 -58.1875 79.375 C-53.43118373 86.47597921 -47.0644371 91.27553995 -38.6875 93.25 C-28.10538109 95.03100178 -16.75852556 94.60588866 -7.6875 88.25 C-3.57400765 84.34166936 -1.56181031 80.6302984 -1.375 74.9375 C-1.45052802 70.27742126 -2.53765729 67.8036687 -5.6875 64.25 C-13.17205641 57.43073749 -23.51205636 55.40659797 -33.05078125 52.7421875 C-33.97358887 52.4836499 -34.89639648 52.2251123 -35.84716797 51.95874023 C-37.65485671 51.45685161 -39.46500173 50.96370053 -41.27783203 50.48071289 C-51.74340647 47.60751678 -59.25601932 43.60178897 -65.5625 34.5625 C-68.18523592 26.8399998 -68.82268787 17.90631715 -65.6875 10.25 C-60.23782752 0.10712516 -52.52447178 -5.37454977 -41.6875 -8.75 C-27.48349461 -12.30100135 -11.46678267 -9.07992019 0 0 Z"/>
<path transform="translate(1819,556)" fill="#404041" d="M0 0 C9.57 0 19.14 0 29 0 C29 36.63 29 73.26 29 111 C19.43 111 9.86 111 0 111 C0 74.37 0 37.74 0 0 Z"/>
<path transform="translate(1896,706)" fill="#404041" d="M0 0 C0 10.23 0 20.46 0 31 C10.89 31 21.78 31 33 31 C33 34.63 33 38.26 33 42 C22.11 42 11.22 42 0 42 C0.09094762 55.11051445 0.09094762 55.11051445 0.20898438 68.22070312 C0.263176 73.57297072 0.3142909 78.92513656 0.34643555 84.27758789 C0.37257095 88.59606297 0.41304463 92.91419361 0.46318626 97.2324543 C0.47978608 98.87450415 0.49134302 100.51661349 0.49761391 102.15873528 C0.06254078 116.42726503 0.06254078 116.42726503 6.5 128.5 C14.72572015 132.02530864 24.20966844 131.10341567 33 131 C33 134.63 33 138.26 33 142 C21.72445206 144.14772342 8.84930292 144.61677216 -1.3125 138.6875 C-7.30627358 134.56083446 -9.54979746 130.40249617 -11.37149048 123.46835327 C-12.66502884 116.33011929 -12.36223422 109.09370989 -12.29296875 101.86328125 C-12.28736231 100.13022736 -12.28309718 98.39716866 -12.28010559 96.66410828 C-12.2687392 92.1382192 -12.2393443 87.61262636 -12.20599365 83.08685303 C-12.17511421 78.45442713 -12.16156233 73.82195263 -12.14648438 69.18945312 C-12.11446533 60.12615206 -12.06176611 51.06314719 -12 42 C-19.92 42 -27.84 42 -36 42 C-36 38.37 -36 34.74 -36 31 C-28.08 31 -20.16 31 -12 31 C-12 21.76 -12 12.52 -12 3 C-3 0 -3 0 0 0 Z"/>
<path transform="translate(1945,737)" fill="#404041" d="M0 0 C3.96 0 7.92 0 12 0 C12 36.63 12 73.26 12 111 C8.04 111 4.08 111 0 111 C0 74.37 0 37.74 0 0 Z"/>
<path transform="translate(1715,737)" fill="#404041" d="M0 0 C3.96 0 7.92 0 12 0 C12 36.63 12 73.26 12 111 C8.04 111 4.08 111 0 111 C0 74.37 0 37.74 0 0 Z"/>
<path transform="translate(1842.25,509.5625)" fill="#404041" d="M0 0 C4.10305998 2.35045552 6.82313922 5.0958609 8.75 9.4375 C10.24280002 15.12126654 10.21854922 20.27353503 7.8359375 25.68359375 C5.24871084 29.862244 1.23115971 32.5419445 -3.25 34.4375 C-9.05610102 35.28669165 -14.38239486 34.79524905 -19.48828125 31.8125 C-23.77692109 28.46526891 -25.89258817 24.84765766 -26.69140625 19.4609375 C-26.87393111 14.71529111 -26.66944781 11.32479345 -24.625 7 C-17.65080846 -0.52478561 -10.06245053 -4.46795716 0 0 Z"/>
<path transform="translate(1953.91015625,692.58203125)" fill="#404041" d="M0 0 C2.08984375 0.41796875 2.08984375 0.41796875 4.58984375 2.04296875 C6.46240743 5.00786124 7.01952231 6.90189669 7.08984375 10.41796875 C5.56110504 14.39268938 4.66203878 16.0365054 1.08984375 18.41796875 C-3.12193868 18.88594458 -5.19614739 18.8836267 -8.78515625 16.54296875 C-11.49748015 13.83064485 -11.84929718 12.95555722 -12.28515625 9.10546875 C-11.91015625 5.41796875 -11.91015625 5.41796875 -9.97265625 2.48046875 C-6.36906331 0.05355922 -4.25890717 -0.26219562 0 0 Z"/>
<path transform="translate(1725,693)" fill="#404041" d="M0 0 C2.50160818 1.87620613 3.61945652 3.23891303 5 6 C5.43023798 9.87214182 5.31669086 11.52496371 3.125 14.8125 C0.40819426 17.60921179 -0.39613102 17.94303123 -4.3125 18.3125 C-8.69433524 17.94115803 -10.15956566 17.34168746 -13 14 C-14.05501118 11.24524859 -14.35920789 8.92978938 -14 6 C-10.69178389 -0.17533674 -6.84687309 -1.53574724 0 0 Z"/>
</svg>