<?xml version="1.0" encoding="UTF-8"?>
<svg version="1.1" xmlns="http://www.w3.org/2000/svg" width="1957" height="800">
<path d="M0 0 C2.61182734 2.21446594 5.15124421 4.49679068 7.68334961 6.80224609 C8.3472168 7.38361328 9.01108398 7.96498047 9.69506836 8.56396484 C32.53158904 29.69706207 41.92689482 62.78422064 43.68334961 92.80224609 C43.80918876 97.54824188 43.81049683 102.29040405 43.796875 107.0378418 C43.79659207 108.40920001 43.79675293 109.78055838 43.7973175 111.1519165 C43.79760134 114.83079508 43.79177229 118.50964024 43.78474355 122.18851113 C43.77844037 126.04951569 43.77790075 129.91052124 43.77671814 133.77153015 C43.77362518 141.06325217 43.76543955 148.35495898 43.75536865 155.64667434 C43.74414389 163.95636819 43.73868111 172.26606282 43.73367321 180.57576239 C43.72325497 197.65126724 43.70493516 214.72675116 43.68334961 231.80224609 C26.52334961 231.80224609 9.36334961 231.80224609 -8.31665039 231.80224609 C-8.64665039 218.27224609 -8.97665039 204.74224609 -9.31665039 190.80224609 C-11.29665039 194.43224609 -13.27665039 198.06224609 -15.31665039 201.80224609 C-29.57160615 221.81401091 -49.40352204 234.01796572 -73.59790039 238.39599609 C-104.653587 241.78863413 -137.51863602 234.50572479 -162.69165039 215.61474609 C-190.2716614 193.3853545 -206.17249454 163.43256098 -210.36914062 128.14550781 C-214.343011 89.46650281 -207.59148559 50.21266397 -183.62915039 18.73974609 C-162.00376175 -6.94574515 -134.19129391 -22.04113 -100.6652832 -26.00366211 C-65.57563538 -28.90348228 -27.85612972 -22.8617524 0 0 Z M-138.96508789 47.97412109 C-143.25927302 53.13855637 -146.32219401 58.81333333 -149.31665039 64.80224609 C-149.81165039 65.79224609 -150.30665039 66.78224609 -150.81665039 67.80224609 C-161.36408859 90.90615833 -159.70299746 119.45658953 -151.24560547 142.94165039 C-148.53759137 149.96536691 -145.06452156 155.98415806 -140.31665039 161.80224609 C-139.62571289 162.65560547 -138.93477539 163.50896484 -138.22290039 164.38818359 C-133.20671688 170.26983539 -127.92161038 174.79612728 -121.31665039 178.80224609 C-120.18163086 179.49447266 -120.18163086 179.49447266 -119.02368164 180.20068359 C-102.59113029 189.28400343 -81.72348782 190.45905424 -63.72680664 185.91162109 C-53.76464201 182.67077945 -44.28711335 178.72966081 -36.31665039 171.80224609 C-35.34727539 171.10099609 -34.37790039 170.39974609 -33.37915039 169.67724609 C-18.4059111 156.90715373 -11.31148882 136.11341804 -9.47998047 117.03295898 C-7.68501314 92.51783714 -11.41581272 67.56256095 -27.34399414 47.99365234 C-41.64936166 32.10194704 -59.36744735 25.05399624 -80.45336914 23.58349609 C-103.3026217 22.90897941 -123.11031832 31.5656929 -138.96508789 47.97412109 Z " fill="#00B14F" transform="translate(1635.316650390625,330.19775390625)"/>
<path d="M0 0 C0.79767792 -0.00705963 1.59535583 -0.01411926 2.41720581 -0.02139282 C34.40042312 -0.24008614 62.60729951 4.05485466 92.42578125 16.203125 C93.42578125 17.203125 93.42578125 17.203125 93.54603577 19.29750061 C93.54381516 20.21905441 93.54159454 21.14060822 93.53930664 22.09008789 C93.53923111 23.13109146 93.53915558 24.17209503 93.53907776 25.24464417 C93.53391647 26.3769194 93.52875519 27.50919464 93.5234375 28.67578125 C93.52131508 30.40495033 93.52131508 30.40495033 93.51914978 32.16905212 C93.5135313 35.86793564 93.50097567 39.56675964 93.48828125 43.265625 C93.48326863 45.76627517 93.47870531 48.26692629 93.47460938 50.76757812 C93.46355587 56.91278088 93.44679977 63.05794869 93.42578125 69.203125 C88.84751834 70.68750824 85.78328831 68.96317838 81.55078125 67.140625 C59.34415113 58.09862245 36.91133932 53.99379245 12.98828125 53.890625 C11.75658203 53.88498535 10.52488281 53.8793457 9.25585938 53.87353516 C-16.41782104 54.07680235 -40.73612594 61.68620767 -60.57421875 78.203125 C-61.56292969 78.98558594 -62.55164062 79.76804687 -63.5703125 80.57421875 C-85.21710763 99.51868315 -94.36718635 130.07849907 -96.42919922 157.85986328 C-97.95444067 182.50509469 -95.30420904 209.08554114 -83.57421875 231.203125 C-82.98769531 232.32203125 -82.40117188 233.4409375 -81.796875 234.59375 C-69.63601447 257.14968955 -49.88839343 272.39756207 -25.57421875 280.203125 C-19.31598059 281.9206817 -12.97308557 283.14402402 -6.57421875 284.203125 C-5.2284375 284.43128906 -5.2284375 284.43128906 -3.85546875 284.6640625 C-1.41572453 284.9819165 0.96564088 285.12077721 3.42578125 285.203125 C4.08529785 285.22890625 4.74481445 285.2546875 5.42431641 285.28125 C33.6726042 286.25302511 62.34016912 280.66678719 87.62890625 267.76953125 C89.42578125 267.203125 89.42578125 267.203125 93.42578125 268.203125 C93.42578125 285.693125 93.42578125 303.183125 93.42578125 321.203125 C85.63575763 325.09813681 78.80486267 328.40967197 70.61328125 330.828125 C69.63842773 331.12025879 68.66357422 331.41239258 67.65917969 331.71337891 C20.99675014 345.18317725 -31.4938069 342.25099188 -74.64428711 319.24536133 C-97.56128718 306.50100657 -116.32171685 287.7243985 -129.57421875 265.203125 C-129.92081543 264.61837402 -130.26741211 264.03362305 -130.62451172 263.43115234 C-145.78227565 237.49421764 -152.52331071 207.02264052 -153.57421875 177.203125 C-153.61546875 176.05328125 -153.65671875 174.9034375 -153.69921875 173.71875 C-154.27510445 140.74929348 -147.39046007 108.18884091 -131.57421875 79.203125 C-131.00960938 78.14738281 -130.445 77.09164062 -129.86328125 76.00390625 C-110.4263581 41.09957243 -77.20710333 17.14498641 -39.28955078 5.94628906 C-26.48256044 2.44112105 -13.29072447 0.07849666 0 0 Z " fill="#00B14F" transform="translate(1303.57421875,229.796875)"/>
<path d="M0 0 C0.34057617 2.79736328 0.34057617 2.79736328 0.29296875 6.3203125 C0.28330078 7.57714844 0.27363281 8.83398438 0.26367188 10.12890625 C0.23853516 11.44761719 0.21339844 12.76632812 0.1875 14.125 C0.17245483 15.46482903 0.15876613 16.80467404 0.14648438 18.14453125 C0.11102872 21.43008842 0.06160849 24.71484582 0 28 C-4.08434346 26.42275327 -7.67300022 24.4956438 -11.4375 22.25 C-48.5009585 0.73101559 -98.34895998 -4.90117691 -139.6875 5.625 C-149.9629819 8.37973302 -159.50464774 12.23619641 -169 17 C-170.04542969 17.515625 -171.09085937 18.03125 -172.16796875 18.5625 C-203.57476851 34.8639137 -225.50047982 63.03195114 -237 96 C-237.35835937 96.97582031 -237.71671875 97.95164062 -238.0859375 98.95703125 C-244.02839731 116.35994928 -244.76875832 134.78042777 -244 153 C-243.9680957 153.77907715 -243.93619141 154.5581543 -243.90332031 155.36083984 C-242.08777955 190.53112309 -225.23579421 223.83030885 -200.140625 248.109375 C-168.84298413 275.75181694 -130.87250895 285.04599762 -90 283 C-83.5584073 282.49231515 -77.2897365 281.46635436 -71 280 C-70.28489258 279.83371094 -69.56978516 279.66742187 -68.83300781 279.49609375 C-41.88307883 272.94365717 -19.93046738 258.49398451 -5 235 C10.95700163 208.4099475 10.2372838 178.508648 11 148 C-26.62 147.67 -64.24 147.34 -103 147 C-103 138.09 -103 129.18 -103 120 C-56.47 120 -9.94 120 38 120 C38 233.76198934 38 233.76198934 -3 276 C-24.42052477 297.14233614 -51.9507489 306.17982687 -81 311 C-81.93118652 311.1757959 -82.86237305 311.3515918 -83.82177734 311.53271484 C-126.00889437 317.73536825 -173.19503534 305.53899063 -207.29663086 280.19433594 C-213.48253579 275.45619599 -219.33223544 270.34417247 -225 265 C-225.66257813 264.39027344 -226.32515625 263.78054688 -227.0078125 263.15234375 C-252.24856664 239.08676642 -267.15764424 204.91179321 -273 171 C-273.17660156 170.03811768 -273.35320312 169.07623535 -273.53515625 168.08520508 C-274.99730586 159.56491989 -275.39828249 151.19655306 -275.375 142.5625 C-275.37512085 141.86778595 -275.3752417 141.1730719 -275.37536621 140.45730591 C-275.34461804 127.96335872 -273.93211122 116.14993585 -271 104 C-270.70751999 102.67596065 -270.41579798 101.35175353 -270.125 100.02734375 C-264.43437562 76.27406786 -253.12694744 54.98131025 -238 36 C-237.1710853 34.93420747 -236.34290753 33.86784119 -235.515625 32.80078125 C-231.7136858 27.99591671 -227.86405297 23.69762229 -223.13671875 19.796875 C-220.63521496 17.69323379 -218.3055597 15.44012991 -215.9375 13.1875 C-206.42859747 4.52266094 -195.41899614 -2.14755426 -184 -8 C-183.09378906 -8.48984375 -182.18757813 -8.9796875 -181.25390625 -9.484375 C-126.23818793 -38.44787392 -51.44776896 -34.29851264 0 0 Z " fill="#00B14F" transform="translate(358,258)"/>
<path d="M0 0 C0.61488281 0.47953125 1.22976563 0.9590625 1.86328125 1.453125 C7.42041641 5.89883313 11.65571384 11.40053081 16 17 C16.68320312 17.86753906 17.36640625 18.73507812 18.0703125 19.62890625 C40.1475409 48.67561263 43.66906051 82.26806956 43.40557575 117.61177897 C43.38014563 121.61416804 43.37818802 125.61657641 43.37347412 129.61903381 C43.36116411 137.1584416 43.32850938 144.69761047 43.28807616 152.23691422 C43.24297967 160.83700811 43.22127736 169.43711492 43.20129442 178.03729808 C43.15976223 195.69169401 43.08656486 213.34576349 43 231 C33.76 231 24.52 231 15 231 C14.97812622 224.88645996 14.97812622 224.88645996 14.95581055 218.64941406 C14.90526529 205.11864851 14.83878195 191.58799954 14.76428509 178.05734634 C14.71954138 169.86116074 14.68007899 161.66501653 14.65356445 153.46875 C14.63040906 146.31519273 14.59682022 139.16176882 14.55129844 132.00831771 C14.52759949 128.22940536 14.50871964 124.45062314 14.50238609 120.67163849 C14.44190583 88.89177574 12.47833056 58.27689994 -9 33 C-9.56976562 32.27425781 -10.13953125 31.54851562 -10.7265625 30.80078125 C-25.62977388 12.63154695 -50.0477411 2.42764277 -73 0 C-102.36122418 -1.42239196 -129.34931736 4.39686375 -152 24 C-152.82628906 24.63550781 -153.65257812 25.27101563 -154.50390625 25.92578125 C-173.27609331 41.5252043 -183.3992272 68.29861771 -186 92 C-187.41407255 122.59664832 -183.0448466 153.62658793 -162.265625 177.515625 C-161.51796875 178.33546875 -160.7703125 179.1553125 -160 180 C-159.31421875 180.77859375 -158.6284375 181.5571875 -157.921875 182.359375 C-142.5143752 198.90817108 -117.99395779 209.00447497 -95.54345703 210.12231445 C-75.06284244 210.7283473 -55.45864852 208.75101342 -38 197 C-37.34 197 -36.68 197 -36 197 C-35.65008347 201.5188579 -35.43802444 206.03424463 -35.25 210.5625 C-35.14945313 211.83931641 -35.04890625 213.11613281 -34.9453125 214.43164062 C-34.8255266 218.27477165 -34.90146958 221.30979652 -36 225 C-39.52786684 228.50996631 -43.39053598 230.23386828 -48 232 C-48.91797363 232.35231689 -49.83594727 232.70463379 -50.78173828 233.06762695 C-53.31540632 233.9417257 -55.84941503 234.68029294 -58.4375 235.375 C-59.72430664 235.74431641 -59.72430664 235.74431641 -61.03710938 236.12109375 C-91.8125747 244.84597393 -124.54374177 236.85940033 -152 222 C-153.40765625 221.24203125 -153.40765625 221.24203125 -154.84375 220.46875 C-171.23775523 211.13039259 -185.08886397 196.93333106 -195 181 C-195.68707031 179.91203125 -196.37414062 178.8240625 -197.08203125 177.703125 C-216.35080384 145.7235942 -220.62945754 106.49412302 -212.39794922 70.35693359 C-207.19144063 49.62839942 -197.80934756 31.31778709 -184 15 C-183.31164062 14.17628906 -182.62328125 13.35257812 -181.9140625 12.50390625 C-160.80460172 -11.92057815 -129.43756775 -27.255778 -97.328125 -29.7578125 C-61.33243133 -31.97318089 -28.01186711 -23.33518706 0 0 Z " fill="#00B14F" transform="translate(775,331)"/>
<path d="M0 0 C1.11822144 0.51481934 1.11822144 0.51481934 2.2590332 1.04003906 C4.5083044 2.12410992 6.68699296 3.29736869 8.875 4.5 C9.7839502 4.94545166 10.69290039 5.39090332 11.62939453 5.84985352 C14.56964956 7.51131858 16.66726164 8.93558888 18.875 11.5 C20.07878092 16.20731131 19.8285084 20.61853443 19.5 25.4375 C19.45488281 26.69369141 19.40976562 27.94988281 19.36328125 29.24414062 C19.24578254 32.33435678 19.08181167 35.414688 18.875 38.5 C17.885 38.83 16.895 39.16 15.875 39.5 C14 38.49609375 14 38.49609375 11.875 36.9375 C-12.24475708 20.09257287 -41.829308 11.33391202 -71.125 10.5 C-71.76566406 10.47953613 -72.40632812 10.45907227 -73.06640625 10.43798828 C-99.5674202 9.68877737 -124.86410324 15.40303485 -145.98828125 31.93359375 C-148.125 33.5 -148.125 33.5 -151.125 34.5 C-151.125 35.16 -151.125 35.82 -151.125 36.5 C-152.777932 37.85032269 -154.44695122 39.18102015 -156.125 40.5 C-177.32858374 63.48112968 -182.955454 90.98388727 -182.25683594 121.33496094 C-181.15445321 147.80031231 -169.56734589 172.04043742 -150.4375 190.1875 C-130.53310235 208.27835758 -103.95968284 213.77286155 -77.78808594 212.65966797 C-59.62733347 211.57082197 -40.4395997 206.29268138 -27.4609375 192.765625 C-26.125 191.5 -26.125 191.5 -24.125 191.5 C-23.85429687 190.9225 -23.58359375 190.345 -23.3046875 189.75 C-22.11888137 187.48833002 -20.75564854 185.55953997 -19.25 183.5 C-14.00663045 175.71827551 -12.27861656 167.7289325 -11.125 158.5 C-35.215 158.17 -59.305 157.84 -84.125 157.5 C-84.125 147.93 -84.125 138.36 -84.125 128.5 C-50.465 128.5 -16.805 128.5 17.875 128.5 C17.875 164.91914191 17.875 164.91914191 13.875 177.5 C13.53597656 178.63566406 13.19695312 179.77132812 12.84765625 180.94140625 C5.41611284 202.9186752 -11.86040496 219.69218963 -32 230.3125 C-57.88142346 242.5342833 -87.33465805 244.63595939 -115.125 238.5 C-117.04892578 238.08234375 -117.04892578 238.08234375 -119.01171875 237.65625 C-150.31752823 230.06696285 -176.92783031 209.94843357 -193.98706055 182.79223633 C-206.16482493 162.79161494 -213.19666492 140.96947121 -214.125 117.5 C-214.16625 116.48808594 -214.2075 115.47617187 -214.25 114.43359375 C-214.97786315 78.0859276 -201.62017455 46.65637715 -176.8671875 20.34765625 C-130.5303282 -27.77138994 -57.04051112 -26.42637769 0 0 Z " fill="#00B14F" transform="translate(339.125,288.5)"/>
<path d="M0 0 C2.22508592 -0.00960642 4.44920623 -0.04064066 6.67407227 -0.07226562 C19.79135087 -0.170096 32.38278994 1.5988798 44.82446289 5.92773438 C45.56664062 6.18264648 46.30881836 6.43755859 47.07348633 6.70019531 C79.35183445 18.18212365 103.8289043 41.69483602 118.83227539 72.25195312 C125.04786539 85.47773047 129.02292896 99.74417067 130.82446289 114.24023438 C130.93532227 115.09101563 131.04618164 115.94179688 131.16040039 116.81835938 C135.17380173 153.04744176 126.54202889 191.29027287 103.82446289 220.24023438 C100.02877716 224.77280241 95.95532307 229.01481946 91.82446289 233.24023438 C91.2224707 233.90410156 90.62047852 234.56796875 90.00024414 235.25195312 C72.22011772 254.46523835 41.60744206 266.90752017 15.79858398 268.41723633 C-0.00754755 268.71985563 -14.8919361 268.51094307 -30.17553711 264.24023438 C-30.92802734 264.0365625 -31.68051758 263.83289063 -32.45581055 263.62304688 C-49.3637034 258.91874693 -65.20049419 251.15731226 -78.17553711 239.24023438 C-79.15780273 238.39847656 -80.14006836 237.55671875 -81.15209961 236.68945312 C-94.07092876 225.50501108 -106.60532842 209.99766623 -111.17553711 193.24023438 C-110.81508637 188.69705322 -108.88857846 186.14774155 -106.11303711 182.61523438 C-105.30608398 181.57625 -104.49913086 180.53726563 -103.66772461 179.46679688 C-103.25361328 178.93602539 -102.83950195 178.40525391 -102.4128418 177.85839844 C-99.76549224 174.39615833 -97.30141452 170.79603479 -94.80444336 167.22460938 C-94.2669043 166.56976563 -93.72936523 165.91492188 -93.17553711 165.24023438 C-92.51553711 165.24023438 -91.85553711 165.24023438 -91.17553711 165.24023438 C-90.90741211 166.13742187 -90.63928711 167.03460938 -90.36303711 167.95898438 C-85.88450819 182.2195633 -80.16503982 194.9546884 -70.17553711 206.24023438 C-69.39952148 207.21734375 -68.62350586 208.19445312 -67.82397461 209.20117188 C-65.22473605 212.3253944 -62.23483481 214.81386405 -58.98803711 217.24023438 C-58.41633789 217.67174805 -57.84463867 218.10326172 -57.25561523 218.54785156 C-34.80694179 235.26521564 -8.43094767 242.2952103 19.44018555 238.92382812 C44.33578807 234.81033775 67.59166609 222.04424223 82.51196289 201.36523438 C100.3291996 174.63937931 107.06585653 142.44785299 101.30273438 110.74536133 C97.52367802 92.24568324 90.26837752 75.5481109 77.82446289 61.24023438 C77.12450195 60.32564453 77.12450195 60.32564453 76.41040039 59.39257812 C71.85259797 53.54206567 65.84649811 49.4764799 59.82446289 45.24023438 C59.14383789 44.75425781 58.46321289 44.26828125 57.76196289 43.76757812 C36.46049917 29.49008843 6.91503903 25.69811826 -17.92553711 30.49023438 C-42.19601698 35.89479484 -60.65941042 48.16313657 -78.17553711 65.24023438 C-78.67698242 65.7265332 -79.17842773 66.21283203 -79.69506836 66.71386719 C-85.05169675 71.50099298 -85.05169675 71.50099298 -89.17553711 77.24023438 C-89.83553711 77.24023438 -90.49553711 77.24023438 -91.17553711 77.24023438 C-91.4165918 77.79324219 -91.65764648 78.34625 -91.90600586 78.91601562 C-93.45883895 81.75889467 -95.37214072 83.97246344 -97.48803711 86.42773438 C-103.48585068 93.48562145 -109.05614901 100.85291741 -114.64868164 108.23291016 C-116.00182057 110.01185296 -117.36396226 111.78299006 -118.73413086 113.54882812 C-122.48833121 118.38798621 -126.19335695 123.24768309 -129.80053711 128.19726562 C-130.43096924 129.06109863 -131.06140137 129.92493164 -131.7109375 130.81494141 C-132.95951218 132.53002884 -134.20364515 134.24836041 -135.44287109 135.97021484 C-136.01336182 136.75412598 -136.58385254 137.53803711 -137.17163086 138.34570312 C-137.67879639 139.04848389 -138.18596191 139.75126465 -138.70849609 140.4753418 C-140.17553711 142.24023438 -140.17553711 142.24023438 -143.17553711 144.24023438 C-144.76290526 100.96810295 -144.76290526 100.96810295 -133.81445312 88.86352539 C-132.55156546 87.56496024 -131.26690707 86.28711873 -129.95874023 85.03417969 C-127.20510687 82.26395817 -125.14471078 79.10557001 -122.98803711 75.86523438 C-118.14512835 68.95561928 -112.72067108 62.59099832 -107.17553711 56.24023438 C-106.53745117 55.50160156 -105.89936523 54.76296875 -105.24194336 54.00195312 C-103.56556034 52.07004752 -101.87225757 50.15428757 -100.17553711 48.24023438 C-99.11399414 47.02207031 -99.11399414 47.02207031 -98.03100586 45.77929688 C-93.37606004 40.49787624 -88.64447045 35.67195622 -83.17553711 31.24023438 C-82.24225586 30.469375 -81.30897461 29.69851563 -80.34741211 28.90429688 C-57.20114873 10.18332224 -29.72970918 0.07722838 0 0 Z " fill="#00B14F" transform="translate(972.175537109375,301.759765625)"/>
<path d="M0 0 C0 16.83 0 33.66 0 51 C-5.28 49.68 -10.56 48.36 -16 47 C-24.27778759 45.36212117 -32.07327794 44.66133006 -40.5 44.6875 C-41.53769531 44.67138672 -42.57539062 44.65527344 -43.64453125 44.63867188 C-58.86759584 44.62919301 -71.67347821 49.10297539 -82.74609375 59.62109375 C-101.50889054 79.42446159 -99.46731033 107.78161178 -99.50611091 133.11445475 C-99.51560092 137.2704408 -99.54181125 141.42632382 -99.56611633 145.58224487 C-99.60949659 153.42271975 -99.63821723 161.26317431 -99.66143972 169.10373199 C-99.68864566 178.04237097 -99.73254649 186.9809048 -99.77772844 195.91946816 C-99.87016608 214.2796033 -99.93982964 232.63972881 -100 251 C-117.49 251 -134.98 251 -153 251 C-153.06797934 230.1101216 -153.12313353 209.22033413 -153.15543652 188.33037281 C-153.17084058 178.62865524 -153.19180497 168.92701177 -153.22631836 159.2253418 C-153.25642023 150.75963733 -153.27562181 142.29398659 -153.28226548 133.82823008 C-153.28614291 129.35450784 -153.29511686 124.88093915 -153.31719017 120.40726662 C-153.46703845 88.79117944 -153.40108911 55.75249895 -134 29 C-132.9790625 27.39125 -132.9790625 27.39125 -131.9375 25.75 C-118.75875616 7.04468616 -95.38913568 -1.82075551 -73.80810547 -5.75170898 C-48.83716113 -10.01235671 -24.02220864 -8.00740288 0 0 Z " fill="#00B14F" transform="translate(1874,311)"/>
<path d="M0 0 C0.85078125 0.61746094 1.7015625 1.23492187 2.578125 1.87109375 C21.73401606 16.47305365 33.56461369 38.35186946 36.98657227 62.07348633 C40.58232776 90.0763903 34.70138577 118.72042585 17.24609375 141.34765625 C9.19721661 150.8523303 1.06670483 158.09500451 -10 164 C-10.89203125 164.48082031 -11.7840625 164.96164062 -12.703125 165.45703125 C-32.26390234 175.14957212 -55.97372332 176.25198127 -76.6875 169.6171875 C-87.21896101 165.85662548 -96.48052541 160.23034357 -105 153 C-105.86625 152.360625 -106.7325 151.72125 -107.625 151.0625 C-111.12746407 148.02088647 -114.04879258 144.57043397 -117 141 C-117.495 140.40445313 -117.99 139.80890625 -118.5 139.1953125 C-126.91577485 128.53838021 -132.37751788 117.01353872 -136 104 C-136.26554688 103.21753906 -136.53109375 102.43507813 -136.8046875 101.62890625 C-137.3125 99.6875 -137.3125 99.6875 -137 96 C-135.43972502 93.47588543 -133.64120996 91.36136442 -131.671875 89.140625 C-127.49202512 84.39226386 -124.0079888 79.07492442 -120.39404297 73.89306641 C-119.85408691 73.13171387 -119.31413086 72.37036133 -118.7578125 71.5859375 C-118.2745752 70.8954834 -117.79133789 70.2050293 -117.29345703 69.49365234 C-116.86661621 69.00074707 -116.43977539 68.5078418 -116 68 C-115.34 68 -114.68 68 -114 68 C-113.91363281 69.24652344 -113.82726562 70.49304688 -113.73828125 71.77734375 C-111.860936 95.67276081 -105.28304064 115.68265976 -86.83203125 131.90625 C-84.94055806 133.38620507 -83.0284496 134.71545075 -81 136 C-80.30519531 136.44859375 -79.61039063 136.8971875 -78.89453125 137.359375 C-65.56903894 145.37825533 -49.93993552 146.43618517 -35 143 C-21.35036486 139.29086002 -9.21530272 131.33881659 -1.83789062 119.06689453 C8.29845863 100.63915117 11.48551805 78.89371995 6.375 58.3125 C1.2977919 40.99654818 -7.79771719 28.8356354 -23.3125 19.75 C-38.31548233 11.92507875 -55.82494009 11.53743498 -71.97265625 15.78125 C-84.76414085 20.0512132 -94.529531 27.69988587 -104 37 C-104.95132813 37.91265625 -105.90265625 38.8253125 -106.8828125 39.765625 C-113.0946031 45.82168826 -118.61526398 52.20867429 -124 59 C-126.11834051 61.6304129 -128.24625621 64.25300313 -130.375 66.875 C-130.93171387 67.56239258 -131.48842773 68.24978516 -132.06201172 68.95800781 C-135.48249734 73.17074192 -138.96499755 77.32078009 -142.5 81.4375 C-147.78764863 87.6197299 -152.70484401 94.06196322 -157.61328125 100.546875 C-160.45042793 104.29240275 -163.33677466 107.99654696 -166.23852539 111.69213867 C-176.21148389 124.40472347 -185.86748546 137.34733249 -194.51171875 151.0078125 C-195.00285156 151.66523438 -195.49398437 152.32265625 -196 153 C-196.66 153 -197.32 153 -198 153 C-198.10531296 146.84649471 -198.14309457 140.69734175 -198.12207031 134.54296875 C-198.12400034 132.45596111 -198.14342585 130.36888519 -198.18164062 128.28222656 C-198.43463246 113.6227555 -196.98356162 104.8993441 -187 94 C-185.94352463 92.60346131 -184.90305603 91.19441607 -183.890625 89.765625 C-183.01251906 88.59217381 -182.13233208 87.42027682 -181.25 86.25 C-180.76031738 85.59862061 -180.27063477 84.94724121 -179.76611328 84.27612305 C-174.69346829 77.55267851 -169.51511947 70.91185785 -164.33203125 64.2734375 C-161.39208632 60.50755205 -158.47157728 56.72726049 -155.5625 52.9375 C-154.77101563 51.90753906 -153.97953125 50.87757813 -153.1640625 49.81640625 C-151.82544816 48.07427459 -150.48689423 46.3320965 -149.1484375 44.58984375 C-126.71751225 15.55255011 -101.84693643 -10.56196156 -63.50390625 -15.68359375 C-40.90844261 -17.72398679 -18.58455847 -13.59212273 0 0 Z " fill="#00B14F" transform="translate(1027,357)"/>
<path d="M0 0 C17.04260347 14.10422356 29.18106941 34.58683926 31.80132866 56.79351807 C32.23564657 62.30029608 32.12869417 67.82743262 32.11352539 73.34765625 C32.11324292 74.75768532 32.11340242 76.16771454 32.1139679 77.57774353 C32.11425353 81.38501266 32.10839464 85.19224996 32.10139394 88.99951172 C32.09512144 92.98600094 32.09455353 96.97249098 32.09336853 100.95898438 C32.09026667 108.49878439 32.08206878 116.03856981 32.07201904 123.57836342 C32.06082226 132.1660498 32.05533848 140.75373689 32.05032361 149.34142876 C32.03988517 166.99846244 32.02155398 184.65547614 32 202.3125 C23.09 202.3125 14.18 202.3125 5 202.3125 C4.98018066 198.35685059 4.96036133 194.40120117 4.93994141 190.32568359 C4.87288359 177.22197569 4.79534324 164.11834714 4.71247292 151.01473045 C4.66250729 143.07396718 4.6160636 135.13321341 4.578125 127.19238281 C4.54502029 120.26524146 4.50508949 113.33817751 4.45720994 106.41112196 C4.43212707 102.74867811 4.41029385 99.08628437 4.39665604 95.42377853 C4.38124405 91.31935391 4.35058131 87.21517078 4.31884766 83.11083984 C4.31668747 81.91752548 4.31452728 80.72421112 4.31230164 79.49473572 C4.14412734 62.34619186 1.73235135 41.87205857 -11.18359375 29.1640625 C-13 27.3125 -13 27.3125 -13 25.3125 C-13.57105469 25.05082031 -14.14210938 24.78914063 -14.73046875 24.51953125 C-17.16079574 23.22698213 -19.1420515 21.69062568 -21.3125 20 C-34.01835047 10.95675725 -50.87292574 8.54317225 -66.10839844 10.59667969 C-81.78132132 13.35292685 -95.26609411 21.23504619 -104.75 34.125 C-116.36976632 51.71603512 -119.50853327 72.56347646 -115.875 93.125 C-112.112553 109.58131025 -103.28381194 124.09897196 -88.95703125 133.2578125 C-71.57654438 143.18358637 -51.97211532 144.26669531 -32.81640625 139.2734375 C-25.46690809 137.19233181 -18.72664479 134.4624819 -12.13671875 130.546875 C-10 129.3125 -10 129.3125 -7 128.3125 C-6.76751414 132.87414082 -6.62551857 137.43426219 -6.5 142 C-6.43296875 143.29357422 -6.3659375 144.58714844 -6.296875 145.91992188 C-6.10475553 155.21370105 -6.10475553 155.21370105 -8.54833984 158.21289062 C-10.65310605 159.57543093 -12.64385904 160.4632711 -15 161.3125 C-15.95664551 161.74357056 -15.95664551 161.74357056 -16.93261719 162.18334961 C-39.98407409 172.42069442 -67.24628595 174.4262395 -91 165.3125 C-100.51360149 161.5359459 -109.3775018 156.16716414 -117 149.3125 C-117 148.6525 -117 147.9925 -117 147.3125 C-117.85851562 146.96445312 -117.85851562 146.96445312 -118.734375 146.609375 C-131.36545179 139.37917243 -139.08854556 119.4597461 -143 106.3125 C-150.39449656 78.96214453 -148.03109986 50.05037651 -134.07763672 25.13574219 C-131.39739917 20.60107658 -128.30017124 16.40971858 -125 12.3125 C-124.22785156 11.3328125 -123.45570313 10.353125 -122.66015625 9.34375 C-92.71567547 -26.28524155 -35.31687426 -26.84301124 0 0 Z " fill="#00B14F" transform="translate(746,359.6875)"/>
<path d="M0 0 C-1.3931403 3.25301796 -2.94960155 5.03386216 -5.6875 7.25 C-9.91512111 10.81294942 -13.47167606 14.75498525 -17 19 C-20.31463548 18.428312 -23.08083624 17.59725111 -26.125 16.1875 C-49.92343524 6.6331282 -76.89443608 7.58576503 -100.65234375 16.55859375 C-120.64738859 25.16789544 -135.71854288 40.26474889 -144.546875 60.08203125 C-146.38272562 64.7540988 -147.62124214 69.56739619 -148.8125 74.4375 C-149.0194751 75.27055664 -149.2264502 76.10361328 -149.43969727 76.96191406 C-152.18149372 88.9450076 -152.14978707 101.29645993 -152.20532227 113.53271484 C-152.21493412 114.9239275 -152.22494593 116.31513743 -152.23532104 117.7063446 C-152.26201881 121.43471786 -152.28321518 125.16310333 -152.30332303 128.89151716 C-152.32540314 132.80592457 -152.35268258 136.72029592 -152.37937927 140.63467407 C-152.42901187 148.02550034 -152.47405808 155.41634694 -152.51740164 162.80721247 C-152.56702792 171.23061716 -152.6218507 179.65398563 -152.67708123 188.07735515 C-152.79044858 205.38487104 -152.89669794 222.69242066 -153 240 C-161.91 240 -170.82 240 -180 240 C-180.04642644 220.17996347 -180.08205481 200.35994245 -180.10362434 180.53986263 C-180.11390853 171.33571959 -180.1279138 162.13161109 -180.15087891 152.92749023 C-180.17090073 144.89912741 -180.18373717 136.87078962 -180.18817699 128.84240252 C-180.19076957 124.59694444 -180.19680272 120.35155795 -180.21146011 116.10612297 C-180.22518346 112.09820155 -180.22919333 108.0903802 -180.22621536 104.08243752 C-180.22675901 102.62291797 -180.23064763 101.16339457 -180.23841095 99.70389557 C-180.30540844 86.44138145 -179.27618486 73.57894301 -175.25 60.875 C-174.85530518 59.60354126 -174.85530518 59.60354126 -174.45263672 58.30639648 C-169.20668526 41.87335201 -161.07245299 27.37542961 -149 15 C-148.154375 14.113125 -147.30875 13.22625 -146.4375 12.3125 C-145.633125 11.549375 -144.82875 10.78625 -144 10 C-143.46503906 9.48179687 -142.93007813 8.96359375 -142.37890625 8.4296875 C-128.48371034 -4.45442347 -110.32374135 -12.04079856 -92 -16 C-90.98808594 -16.22558594 -89.97617187 -16.45117188 -88.93359375 -16.68359375 C-57.25542677 -22.43244758 -27.18798556 -16.50549508 0 0 Z " fill="#00B14F" transform="translate(593,322)"/>
<path d="M0 0 C-4 8 -8 16 -12 24 C-15.40054554 23.36959584 -18.63475596 22.51779477 -21.9375 21.5 C-36.16442768 17.65282545 -51.58635176 18.05930091 -64.66796875 25.45703125 C-76.53634915 33.30964475 -83.63084624 44.31213469 -86.58991623 58.23611259 C-87.44807789 64.01996059 -87.31033213 69.86440723 -87.31884766 75.69946289 C-87.32816071 77.16875756 -87.3383314 78.638047 -87.34928894 80.10733032 C-87.37644795 84.07153595 -87.39169622 88.03570632 -87.40471697 91.99998021 C-87.42040962 96.1520001 -87.4471801 100.30394865 -87.4727478 104.45591736 C-87.51942744 112.30731061 -87.5562237 120.15871745 -87.58942068 128.01017803 C-87.62771874 136.95342889 -87.67710864 145.89660791 -87.72740483 154.83979809 C-87.83056375 173.22648548 -87.91841209 191.61320337 -88 210 C-97.24 210 -106.48 210 -116 210 C-116.06787675 190.55383219 -116.12307449 171.10776119 -116.15543652 151.66150475 C-116.17086614 142.631064 -116.19188045 133.60070242 -116.22631836 124.5703125 C-116.25634086 116.69394614 -116.27560334 108.81763715 -116.28226548 100.94121516 C-116.2861561 96.77567285 -116.29521689 92.61029457 -116.31719017 88.44480515 C-116.33775907 84.51318501 -116.34379324 80.58179434 -116.33932304 76.6501255 C-116.34013923 75.21759221 -116.34598223 73.78505014 -116.35761642 72.35256386 C-116.52769564 50.30428839 -110.19271038 28.86488598 -94.82617188 12.61181641 C-69.33570098 -13.0750977 -31.20332439 -16.27999533 0 0 Z " fill="#00B14F" transform="translate(568,352)"/>
<path d="M0 0 C9.24 0 18.48 0 28 0 C28.2034658 15.88180981 28.36912265 31.76258073 28.46630955 47.64531612 C28.51264245 55.0206118 28.57576363 62.39503799 28.67895508 69.76977539 C28.7688952 76.20057306 28.82677834 82.63074088 28.84679645 89.06215006 C28.85849218 92.46533734 28.88580686 95.86672342 28.95157051 99.26933098 C29.01707641 103.07638455 29.02589503 106.87972789 29.02172852 110.68725586 C29.054086 111.80503922 29.08644348 112.92282257 29.11978149 114.07447815 C29.04516851 120.3906172 28.1207986 123.54913827 23.59434509 128.08839417 C22.07449431 129.40576315 20.5443561 130.71144589 19 132 C17.46296598 133.75999883 15.95407554 135.54586529 14.5 137.375 C13.76652344 138.28636719 13.03304687 139.19773437 12.27734375 140.13671875 C11.10485665 141.61087492 9.93249547 143.08513293 8.76220703 144.56103516 C7.53373796 146.10698983 6.29820222 147.64732075 5.0625 149.1875 C4.33160156 150.10917969 3.60070312 151.03085937 2.84765625 151.98046875 C2.23792969 152.64691406 1.62820313 153.31335938 1 154 C0.34 154 -0.32 154 -1 154 C-0.505 77.77 -0.505 77.77 0 0 Z " fill="#00B14F" transform="translate(846,207)"/>
<path d="M0 0 C9.24 0 18.48 0 28 0 C28 31.68 28 63.36 28 96 C23.38 98.64 18.76 101.28 14 104 C11.4662959 105.80132378 9.07089354 107.53901903 6.6875 109.5 C1.08881579 114 1.08881579 114 0 114 C0 76.38 0 38.76 0 0 Z " fill="#00B14F" transform="translate(885,207)"/>
</svg>
