<?xml version="1.0" encoding="UTF-8"?>
<svg version="1.1" xmlns="http://www.w3.org/2000/svg" width="1004" height="591">
<path d="M0 0 C331.32 0 662.64 0 1004 0 C1004 195.03 1004 390.06 1004 591 C672.68 591 341.36 591 0 591 C0 395.97 0 200.94 0 0 Z " fill="#FEFEFE" transform="translate(0,0)"/>
<path d="M0 0 C122.76 0 245.52 0 372 0 C372 32.67 372 65.34 372 99 C284.55 99 197.1 99 107 99 C107 171.27 107 243.54 107 318 C161.78 318 216.56 318 273 318 C277.95 327.9 277.95 327.9 283 338 C286.74329409 345.13603928 286.74329409 345.13603928 290.50439453 352.26269531 C294.29776329 359.44156365 297.98234697 366.67636469 301.6763916 373.90667725 C308.08472887 386.44948856 314.49946959 398.98686365 321.10522461 411.42724609 C324 416.89891128 324 416.89891128 324 418 C217.08 418 110.16 418 0 418 C0 280.06 0 142.12 0 0 Z " fill="#051535" transform="translate(272,60)"/>
<path d="M0 0 C31.35 0 62.7 0 95 0 C100.9072833 11.22383827 106.8021883 22.44468003 112.58789062 33.73022461 C114.52911423 37.51655885 116.47368606 41.30117345 118.41796875 45.0859375 C118.80794037 45.84521545 119.19791199 46.60449341 119.59970093 47.38677979 C123.21921296 54.43175054 126.85740427 61.466939 130.5 68.5 C135.9753723 79.07460203 141.43093601 89.65924601 146.875 100.25 C147.44077255 101.3506076 147.44077255 101.3506076 148.01797485 102.47344971 C149.54333768 105.44079683 151.0686877 108.40815054 152.5940094 111.3755188 C156.62171225 119.21046145 160.65346757 127.0433146 164.6875 134.875 C165.21583939 135.90074127 165.21583939 135.90074127 165.75485229 136.94720459 C170.03200034 145.25008427 174.31609362 153.54932768 178.60961914 161.84375 C181.39217481 167.21931902 184.17250886 172.5960357 186.9520874 177.97314453 C187.68439657 179.38956499 188.41687264 180.80589918 189.1494751 182.22216797 C191.61491941 186.98840214 194.07773995 191.75597737 196.53738403 196.52520752 C197.33737127 198.07541306 198.13819561 199.62518695 198.93991089 201.17449951 C200.0611821 203.34172585 201.17936792 205.51051836 202.296875 207.6796875 C202.62746414 208.31700806 202.95805328 208.95432861 203.29866028 209.61096191 C205.39646579 213.69300255 207.18334609 217.76114087 209 222 C177.65 222 146.3 222 114 222 C100.66666667 197.55555556 100.66666667 197.55555556 94.7421875 185.45703125 C92.35321098 180.63771481 89.84455187 175.88450982 87.33203125 171.12890625 C82.52290608 162.02503652 77.81062509 152.87420971 73.12927246 143.70410156 C70.84020613 139.22061279 68.54707536 134.73920387 66.25390625 130.2578125 C65.80022675 129.37111877 65.34654724 128.48442505 64.87911987 127.57086182 C60.43082852 118.8808145 55.94846202 110.20871909 51.45776367 101.54052734 C46.8347019 92.61657715 42.22635051 83.6851609 37.625 74.75 C36.91219221 73.36604743 36.19938296 71.98209561 35.48657227 70.59814453 C32.2148719 64.24549559 28.94433829 57.89224764 25.67536926 51.53819275 C24.20729774 48.68484929 22.73878028 45.83173549 21.27017212 42.97866821 C20.55267235 41.58454211 19.8353645 40.1903172 19.11825562 38.79598999 C15.5264049 31.81254449 11.92275507 24.83624373 8.265625 17.88671875 C7.69948486 16.80986816 7.13334473 15.73301758 6.55004883 14.62353516 C5.50415492 12.63815774 4.45472373 10.65463819 3.40112305 8.67333984 C2.72110229 7.38290771 2.72110229 7.38290771 2.02734375 6.06640625 C1.63281006 5.32334229 1.23827637 4.58027832 0.83178711 3.81469727 C0 2 0 2 0 0 Z " fill="#051535" transform="translate(522,256)"/>
<path d="M0 0 C11.55 0 23.1 0 35 0 C36.77375 3.568125 38.5475 7.13625 40.375 10.8125 C44.03239872 18.14305147 47.71872023 25.45279958 51.5625 32.6875 C56.38402093 41.76789242 61.09646591 50.90389787 65.79855347 60.04653931 C66.68217309 61.76419502 67.56655116 63.48146076 68.45169067 65.19833374 C69.70163973 67.6233493 70.94886785 70.04974423 72.1953125 72.4765625 C72.57917618 73.22042709 72.96303986 73.96429169 73.35853577 74.73069763 C76 79.88549751 76 79.88549751 76 81 C64.45 81 52.9 81 41 81 C33.63014068 67.01894334 26.27669919 53.02980887 19 39 C18.42980133 37.90114471 18.42980133 37.90114471 17.8480835 36.78009033 C15.24788659 31.76761465 12.65346269 26.75219928 10.06466675 21.73382568 C9.18936482 20.03848824 8.31267922 18.34386446 7.43460083 16.64996338 C6.19728795 14.26212339 4.96520549 11.87165511 3.734375 9.48046875 C3.35685593 8.75444962 2.97933685 8.02843048 2.59037781 7.28041077 C0 2.22826088 0 2.22826088 0 0 Z " fill="#061636" transform="translate(655,256)"/>
<path d="M0 0 C11.55 0 23.1 0 35 0 C36.77375 3.568125 38.5475 7.13625 40.375 10.8125 C44.03239872 18.14305147 47.71872023 25.45279958 51.5625 32.6875 C56.38402093 41.76789242 61.09646591 50.90389787 65.79855347 60.04653931 C66.68217309 61.76419502 67.56655116 63.48146076 68.45169067 65.19833374 C69.70163973 67.6233493 70.94886785 70.04974423 72.1953125 72.4765625 C72.57917618 73.22042709 72.96303986 73.96429169 73.35853577 74.73069763 C76 79.88549751 76 79.88549751 76 81 C64.45 81 52.9 81 41 81 C33.63014068 67.01894334 26.27669919 53.02980887 19 39 C18.42980133 37.90114471 18.42980133 37.90114471 17.8480835 36.78009033 C15.24788659 31.76761465 12.65346269 26.75219928 10.06466675 21.73382568 C9.18936482 20.03848824 8.31267922 18.34386446 7.43460083 16.64996338 C6.19728795 14.26212339 4.96520549 11.87165511 3.734375 9.48046875 C3.35685593 8.75444962 2.97933685 8.02843048 2.59037781 7.28041077 C0 2.22826088 0 2.22826088 0 0 Z " fill="#061636" transform="translate(445,256)"/>
<path d="M0 0 C2.64 0 5.28 0 8 0 C9.98 5.94 11.96 11.88 14 18 C15.93272435 12.45141413 15.93272435 12.45141413 17.85913086 6.90063477 C18.22083374 5.86894165 18.22083374 5.86894165 18.58984375 4.81640625 C18.83597412 4.10943604 19.08210449 3.40246582 19.33569336 2.67407227 C20 1 20 1 21 0 C23.64 0 26.28 0 29 0 C29 8.91 29 17.82 29 27 C27.02 27 25.04 27 23 27 C22.67 22.05 22.34 17.1 22 12 C20.35 16.95 18.7 21.9 17 27 C15.02 27 13.04 27 11 27 C9.35 21.39 7.7 15.78 6 10 C5.67 15.61 5.34 21.22 5 27 C3.35 27 1.7 27 0 27 C0 18.09 0 9.18 0 0 Z " fill="#3F444F" transform="translate(555,517)"/>
<path d="M0 0 C1.65 0 3.3 0 5 0 C5.33 0.66 5.66 1.32 6 2 C6.99 1.34 7.98 0.68 9 0 C12.96047946 -0.33706208 15.59677126 -0.09429461 19 2 C19.99 1.34 20.98 0.68 22 0 C28.13383672 0.2190656 28.13383672 0.2190656 30.70703125 2.5390625 C32.55283201 6.05221803 32.32055915 9.38787287 32.1875 13.25 C32.16719727 14.36761719 32.16719727 14.36761719 32.14648438 15.5078125 C32.11127204 17.33885416 32.05746851 19.16952169 32 21 C30.02 21 28.04 21 26 21 C25.67 16.05 25.34 11.1 25 6 C23.35 6 21.7 6 20 6 C19.67 10.95 19.34 15.9 19 21 C17.02 21 15.04 21 13 21 C12.67 16.05 12.34 11.1 12 6 C10.35 6.33 8.7 6.66 7 7 C6.67 11.62 6.34 16.24 6 21 C4.02 21 2.04 21 0 21 C0 14.07 0 7.14 0 0 Z " fill="#3F4550" transform="translate(700,523)"/>
<path d="M0 0 C1.65 0 3.3 0 5 0 C5.33 0.66 5.66 1.32 6 2 C6.99 1.34 7.98 0.68 9 0 C15.24565469 0.2230591 15.24565469 0.2230591 17.6953125 2.74609375 C19.94806171 6.63781919 19.54379069 10.63555005 19 15 C17.83567931 17.48050929 16.90574048 19.09425952 15 21 C8.47457627 21.23728814 8.47457627 21.23728814 6 20 C6 23.3 6 26.6 6 30 C4.02 30 2.04 30 0 30 C0 20.1 0 10.2 0 0 Z " fill="#3D434E" transform="translate(737,523)"/>
<path d="M0 0 C1.98 0 3.96 0 6 0 C6 9.57 6 19.14 6 29 C4.35 29 2.7 29 1 29 C1 28.34 1 27.68 1 27 C0.01 27.66 -0.98 28.32 -2 29 C-8.11524164 29.66711727 -8.11524164 29.66711727 -11.19140625 27.34765625 C-14.04462244 23.64402141 -13.5483794 20.38325758 -13.3828125 15.86328125 C-13 13 -13 13 -11.375 9.75 C-8.35633954 7.52572387 -6.67179103 7.52107074 -3 8 C-2.34 8.33 -1.68 8.66 -1 9 C-0.67 6.03 -0.34 3.06 0 0 Z " fill="#3F4550" transform="translate(625,515)"/>
<path d="M0 0 C2.79563494 2.18195898 3.78900222 3.64568869 4.3359375 7.15625 C4.54109582 11.89067285 4.08168366 15.20715857 1 19 C-2.4974771 20.74873855 -6.18376722 20.54611607 -10 20 C-13.0625 18.1875 -13.0625 18.1875 -15 15 C-15.86307612 10.57175561 -16.22287818 6.18830833 -13.9609375 2.140625 C-9.85717853 -1.94020794 -5.11979192 -1.72926558 0 0 Z " fill="#393F4B" transform="translate(432,524)"/>
<path d="M0 0 C2.73828125 1.47265625 2.73828125 1.47265625 5 4 C5.60659097 6.94144327 5.4735011 9.76281033 5.3125 12.75 C5.28994141 13.54277344 5.26738281 14.33554687 5.24414062 15.15234375 C5.18540471 17.1023762 5.09572654 19.05143312 5 21 C4.05125 20.814375 3.1025 20.62875 2.125 20.4375 C-0.89868793 19.71313368 -0.89868793 19.71313368 -3 21 C-4.875 21.16796875 -4.875 21.16796875 -7 21.1875 C-8.051875 21.20876953 -8.051875 21.20876953 -9.125 21.23046875 C-11 21 -11 21 -13 19 C-13.56762749 13.89135255 -13.56762749 13.89135255 -13 11 C-10.07175551 8.16049019 -8.25938651 8.01275671 -4.1875 7.8125 C-3.135625 7.874375 -2.08375 7.93625 -1 8 C-1.33 7.01 -1.66 6.02 -2 5 C-4.64 5 -7.28 5 -10 5 C-10.33 3.68 -10.66 2.36 -11 1 C-7.35001694 -0.21666102 -3.78201543 -0.75501773 0 0 Z " fill="#3D434E" transform="translate(602,523)"/>
<path d="M0 0 C2.73828125 1.47265625 2.73828125 1.47265625 5 4 C5.60659097 6.94144327 5.4735011 9.76281033 5.3125 12.75 C5.28994141 13.54277344 5.26738281 14.33554687 5.24414062 15.15234375 C5.18540471 17.1023762 5.09572654 19.05143312 5 21 C4.05125 20.814375 3.1025 20.62875 2.125 20.4375 C-0.89868793 19.71313368 -0.89868793 19.71313368 -3 21 C-4.875 21.16796875 -4.875 21.16796875 -7 21.1875 C-8.051875 21.20876953 -8.051875 21.20876953 -9.125 21.23046875 C-11 21 -11 21 -13 19 C-13.56762749 13.89135255 -13.56762749 13.89135255 -13 11 C-10.07175551 8.16049019 -8.25938651 8.01275671 -4.1875 7.8125 C-3.135625 7.874375 -2.08375 7.93625 -1 8 C-1.33 7.01 -1.66 6.02 -2 5 C-4.64 5 -7.28 5 -10 5 C-10.33 3.68 -10.66 2.36 -11 1 C-7.35001694 -0.21666102 -3.78201543 -0.75501773 0 0 Z " fill="#3D434E" transform="translate(362,523)"/>
<path d="M0 0 C2.73828125 1.47265625 2.73828125 1.47265625 5 4 C5.60659097 6.94144327 5.4735011 9.76281033 5.3125 12.75 C5.28994141 13.54277344 5.26738281 14.33554687 5.24414062 15.15234375 C5.18540471 17.1023762 5.09572654 19.05143312 5 21 C4.05125 20.814375 3.1025 20.62875 2.125 20.4375 C-0.89868793 19.71313368 -0.89868793 19.71313368 -3 21 C-4.875 21.16796875 -4.875 21.16796875 -7 21.1875 C-8.051875 21.20876953 -8.051875 21.20876953 -9.125 21.23046875 C-11 21 -11 21 -13 19 C-13.56762749 13.89135255 -13.56762749 13.89135255 -13 11 C-10.07175551 8.16049019 -8.25938651 8.01275671 -4.1875 7.8125 C-3.135625 7.874375 -2.08375 7.93625 -1 8 C-1.33 7.01 -1.66 6.02 -2 5 C-4.64 5 -7.28 5 -10 5 C-10.33 3.68 -10.66 2.36 -11 1 C-7.35001694 -0.21666102 -3.78201543 -0.75501773 0 0 Z " fill="#3D434E" transform="translate(284,523)"/>
<path d="M0 0 C2.7871087 1.3631274 3.86518898 2.55277761 6 5 C6.375 8.8125 6.375 8.8125 6 12 C1.71 12 -2.58 12 -7 12 C-6.34 13.32 -5.68 14.64 -5 16 C-1.7 16 1.6 16 5 16 C5 17.32 5 18.64 5 20 C1.30009772 21.84995114 -2.96167141 21.46986842 -7 21 C-10.55680172 18.89495409 -11.69468936 17.91593192 -13 14 C-13.37066773 8.99598565 -13.09881835 6.01698676 -10 2 C-6.23124125 -0.51250583 -4.46849866 -0.53016086 0 0 Z " fill="#3C414D" transform="translate(784,523)"/>
<path d="M0 0 C2.7871087 1.3631274 3.86518898 2.55277761 6 5 C6.375 8.8125 6.375 8.8125 6 12 C1.71 12 -2.58 12 -7 12 C-6.34 13.32 -5.68 14.64 -5 16 C-1.7 16 1.6 16 5 16 C5 17.32 5 18.64 5 20 C1.30009772 21.84995114 -2.96167141 21.46986842 -7 21 C-10.55680172 18.89495409 -11.69468936 17.91593192 -13 14 C-13.37066773 8.99598565 -13.09881835 6.01698676 -10 2 C-6.23124125 -0.51250583 -4.46849866 -0.53016086 0 0 Z " fill="#3C414D" transform="translate(648,523)"/>
<path d="M0 0 C1.65 0 3.3 0 5 0 C5.33 0.66 5.66 1.32 6 2 C6.99 1.34 7.98 0.68 9 0 C12.4501392 -0.4404433 14.26484956 -0.49889922 17.17578125 1.4765625 C19.8423153 5.16517277 19.44087211 8.32323539 19.25 12.75 C19.23195313 13.54277344 19.21390625 14.33554687 19.1953125 15.15234375 C19.14833082 17.10208348 19.07659044 19.05119878 19 21 C17.02 21 15.04 21 13 21 C12.67 16.05 12.34 11.1 12 6 C10.35 5.67 8.7 5.34 7 5 C6.67 10.28 6.34 15.56 6 21 C4.02 21 2.04 21 0 21 C0 14.07 0 7.14 0 0 Z " fill="#404550" transform="translate(247,523)"/>
<path d="M0 0 C2.0625 1.625 2.0625 1.625 3 4 C3.1875 7.75 3.1875 7.75 3 11 C-1.29 11 -5.58 11 -10 11 C-9.67 12.32 -9.34 13.64 -9 15 C-5.37 15 -1.74 15 2 15 C1.67 16.65 1.34 18.3 1 20 C-9.12055838 20.62817259 -9.12055838 20.62817259 -12.625 18.125 C-15.42591655 13.79631079 -15.65916139 10.08872595 -15 5 C-10.9247835 -1.5203464 -7.0782565 -1.64640765 0 0 Z " fill="#393F4B" transform="translate(496,524)"/>
<path d="M0 0 C0.86882813 0.01546875 1.73765625 0.0309375 2.6328125 0.046875 C4.875 0.25 4.875 0.25 6.875 1.25 C6.545 2.9 6.215 4.55 5.875 6.25 C2.905 6.25 -0.065 6.25 -3.125 6.25 C-3.125 7.24 -3.125 8.23 -3.125 9.25 C-2.49851562 9.57613281 -1.87203125 9.90226563 -1.2265625 10.23828125 C-0.00066406 10.89376953 -0.00066406 10.89376953 1.25 11.5625 C2.06210937 11.99175781 2.87421875 12.42101562 3.7109375 12.86328125 C5.875 14.25 5.875 14.25 7.875 17.25 C7.65277778 23.47222222 7.65277778 23.47222222 5.171875 25.953125 C2.33242166 27.55635376 0.49133095 27.58736741 -2.75 27.5 C-3.71164062 27.48453125 -4.67328125 27.4690625 -5.6640625 27.453125 C-8.125 27.25 -8.125 27.25 -10.125 26.25 C-10.125 24.6 -10.125 22.95 -10.125 21.25 C-6.825 21.58 -3.525 21.91 -0.125 22.25 C0.205 20.93 0.535 19.61 0.875 18.25 C0.32070313 17.91226563 -0.23359375 17.57453125 -0.8046875 17.2265625 C-1.52914062 16.78054688 -2.25359375 16.33453125 -3 15.875 C-4.07894531 15.21371094 -4.07894531 15.21371094 -5.1796875 14.5390625 C-7.125 13.25 -7.125 13.25 -9.125 11.25 C-9.6662844 5.56651376 -9.6662844 5.56651376 -9.125 3.25 C-6.23695692 0.30234135 -4.04476263 -0.12073918 0 0 Z " fill="#3B414C" transform="translate(677.125,516.75)"/>
<path d="M0 0 C3.6875 0.3125 3.6875 0.3125 5.90234375 1.78515625 C8.51383688 5.48239051 8.12749997 8.65596233 7.9375 13.0625 C7.91945313 13.85527344 7.90140625 14.64804687 7.8828125 15.46484375 C7.83583082 17.41458348 7.76409044 19.36369878 7.6875 21.3125 C5.7075 21.3125 3.7275 21.3125 1.6875 21.3125 C1.3575 16.3625 1.0275 11.4125 0.6875 6.3125 C-0.9625 6.3125 -2.6125 6.3125 -4.3125 6.3125 C-4.6425 11.2625 -4.9725 16.2125 -5.3125 21.3125 C-7.2925 21.3125 -9.2725 21.3125 -11.3125 21.3125 C-11.3125 14.7125 -11.3125 8.1125 -11.3125 1.3125 C-8.97916667 1.3125 -6.64583333 1.3125 -4.3125 1.3125 C-3.3125 0.3125 -3.3125 0.3125 0 0 Z " fill="#3D434E" transform="translate(515.3125,522.6875)"/>
<path d="M0 0 C3.6875 0.3125 3.6875 0.3125 5.90234375 1.78515625 C8.51383688 5.48239051 8.12749997 8.65596233 7.9375 13.0625 C7.91945313 13.85527344 7.90140625 14.64804687 7.8828125 15.46484375 C7.83583082 17.41458348 7.76409044 19.36369878 7.6875 21.3125 C5.7075 21.3125 3.7275 21.3125 1.6875 21.3125 C1.3575 16.3625 1.0275 11.4125 0.6875 6.3125 C-0.9625 6.3125 -2.6125 6.3125 -4.3125 6.3125 C-4.6425 11.2625 -4.9725 16.2125 -5.3125 21.3125 C-7.2925 21.3125 -9.2725 21.3125 -11.3125 21.3125 C-11.3125 14.7125 -11.3125 8.1125 -11.3125 1.3125 C-8.97916667 1.3125 -6.64583333 1.3125 -4.3125 1.3125 C-3.3125 0.3125 -3.3125 0.3125 0 0 Z " fill="#3D434E" transform="translate(452.3125,522.6875)"/>
<path d="M0 0 C0.86882812 0.01546875 1.73765625 0.0309375 2.6328125 0.046875 C4.875 0.25 4.875 0.25 6.875 1.25 C6.545 2.9 6.215 4.55 5.875 6.25 C5.17632812 6.21519531 4.47765625 6.18039062 3.7578125 6.14453125 C2.84773438 6.11746094 1.93765625 6.09039063 1 6.0625 C0.09507812 6.02769531 -0.80984375 5.99289062 -1.7421875 5.95703125 C-2.52851563 6.05371094 -3.31484375 6.15039062 -4.125 6.25 C-6.20633467 9.372002 -6.3987822 10.18266989 -6.375 13.75 C-6.38015625 14.5234375 -6.3853125 15.296875 -6.390625 16.09375 C-6.25238062 18.54513844 -6.25238062 18.54513844 -4.125 21.25 C-1.45846095 21.61460453 -1.45846095 21.61460453 1.5 21.4375 C2.50289063 21.41042969 3.50578125 21.38335938 4.5390625 21.35546875 C5.69535156 21.30326172 5.69535156 21.30326172 6.875 21.25 C6.875 22.9 6.875 24.55 6.875 26.25 C2.93249412 28.22125294 -1.82719715 27.69717024 -6.125 27.25 C-9.31668619 25.49131577 -10.58909612 24.14317313 -12.4375 21.0625 C-13.79217485 15.52064834 -14.03779071 11.01038209 -11.375 5.875 C-7.8073231 1.71271029 -5.59824721 -0.16711186 0 0 Z " fill="#3D434E" transform="translate(406.125,516.75)"/>
<path d="M0 0 C2.64252476 1.98962025 4.69682349 3.55413811 5.40063477 6.91064453 C5.49152731 9.06522818 5.43754221 11.15985028 5.3125 13.3125 C5.28994141 14.05306641 5.26738281 14.79363281 5.24414062 15.55664062 C5.1855815 17.37197357 5.09590886 19.18625681 5 21 C3.02 21 1.04 21 -1 21 C-1.33 16.05 -1.66 11.1 -2 6 C-3.65 6 -5.3 6 -7 6 C-8.94090826 7.94090826 -8.39919435 11.47293902 -8.5625 14.0625 C-8.64628906 15.35285156 -8.73007812 16.64320313 -8.81640625 17.97265625 C-8.87699219 18.97167969 -8.93757813 19.97070312 -9 21 C-10.65 21 -12.3 21 -14 21 C-14 14.4 -14 7.8 -14 1 C-12.68 1 -11.36 1 -10 1 C-10 1.66 -10 2.32 -10 3 C-9.46375 2.505 -8.9275 2.01 -8.375 1.5 C-5.25991849 -0.4674199 -3.62829011 -0.5923739 0 0 Z " fill="#383E4A" transform="translate(309,523)"/>
<path d="M0 0 C4.95 0 9.9 0 15 0 C15 1.65 15 3.3 15 5 C11.7 5 8.4 5 5 5 C5 7.31 5 9.62 5 12 C7.97 12 10.94 12 14 12 C14 13.32 14 14.64 14 16 C11.03 16 8.06 16 5 16 C5 19.63 5 23.26 5 27 C3.35 27 1.7 27 0 27 C0 18.09 0 9.18 0 0 Z " fill="#343A45" transform="translate(216,517)"/>
<path d="M0 0 C1.32 0 2.64 0 4 0 C4 1.32 4 2.64 4 4 C5.98 4 7.96 4 10 4 C10 5.65 10 7.3 10 9 C8.02 9 6.04 9 4 9 C4.33 12.63 4.66 16.26 5 20 C6.65 20.33 8.3 20.66 10 21 C10 22.32 10 23.64 10 25 C8.56416999 25.10836453 7.1259798 25.18576167 5.6875 25.25 C4.88699219 25.29640625 4.08648438 25.3428125 3.26171875 25.390625 C1 25 1 25 -0.78125 23.375 C-2.34382375 20.32998448 -2.29852942 18.1549021 -2.1875 14.75 C-2.14689453 13.13351562 -2.14689453 13.13351562 -2.10546875 11.484375 C-2.07066406 10.66453125 -2.03585937 9.8446875 -2 9 C-2.66 9 -3.32 9 -4 9 C-3.67 7.68 -3.34 6.36 -3 5 C-2.34 5 -1.68 5 -1 5 C-0.67 3.35 -0.34 1.7 0 0 Z " fill="#404551" transform="translate(531,519)"/>
<path d="M0 0 C1.32 0 2.64 0 4 0 C4 1.32 4 2.64 4 4 C5.98 4 7.96 4 10 4 C10 5.65 10 7.3 10 9 C8.02 9 6.04 9 4 9 C4.33 12.63 4.66 16.26 5 20 C6.65 20.33 8.3 20.66 10 21 C10 22.32 10 23.64 10 25 C8.56416999 25.10836453 7.1259798 25.18576167 5.6875 25.25 C4.88699219 25.29640625 4.08648437 25.3428125 3.26171875 25.390625 C1 25 1 25 -0.78125 23.375 C-2.34382375 20.32998448 -2.29852942 18.1549021 -2.1875 14.75 C-2.14689453 13.13351562 -2.14689453 13.13351562 -2.10546875 11.484375 C-2.07066406 10.66453125 -2.03585937 9.8446875 -2 9 C-2.66 9 -3.32 9 -4 9 C-3.67 7.68 -3.34 6.36 -3 5 C-2.34 5 -1.68 5 -1 5 C-0.67 3.35 -0.34 1.7 0 0 Z " fill="#404551" transform="translate(468,519)"/>
<path d="M0 0 C0.99 0.33 1.98 0.66 3 1 C2.67 2.65 2.34 4.3 2 6 C-0.64 6 -3.28 6 -6 6 C-6.02689216 7.47906892 -6.04634621 8.95827483 -6.0625 10.4375 C-6.07410156 11.26121094 -6.08570313 12.08492187 -6.09765625 12.93359375 C-6.23267348 14.99163938 -6.23267348 14.99163938 -5 16 C-3.08575543 15.8981629 -3.08575543 15.8981629 -0.9375 15.5625 C1.0115625 15.2840625 1.0115625 15.2840625 3 15 C3 16.65 3 18.3 3 20 C-0.49474739 21.7473737 -4.18678856 21.55225821 -8 21 C-11.0625 19.125 -11.0625 19.125 -13 16 C-13.91317618 11.02645119 -13.78663343 7.28483461 -11.125 2.9375 C-7.44402753 -0.41868078 -4.91019591 -0.17228758 0 0 Z " fill="#3D434E" transform="translate(331,523)"/>
<path d="M0 0 C1.98 0 3.96 0 6 0 C6 9.57 6 19.14 6 29 C4.02 29 2.04 29 0 29 C0 19.43 0 9.86 0 0 Z " fill="#434953" transform="translate(761,515)"/>
<path d="M0 0 C1.65 0 3.3 0 5 0 C5 9.57 5 19.14 5 29 C3.35 29 1.7 29 0 29 C0 19.43 0 9.86 0 0 Z " fill="#333945" transform="translate(373,515)"/>
<path d="M0 0 C1.98 0 3.96 0 6 0 C6 6.93 6 13.86 6 21 C4.02 21 2.04 21 0 21 C0 14.07 0 7.14 0 0 Z " fill="#454A55" transform="translate(689,523)"/>
<path d="M0 0 C1.98 0 3.96 0 6 0 C6 6.93 6 13.86 6 21 C4.02 21 2.04 21 0 21 C0 14.07 0 7.14 0 0 Z " fill="#434953" transform="translate(338,523)"/>
<path d="M0 0 C1.98 0 3.96 0 6 0 C6 6.93 6 13.86 6 21 C4.02 21 2.04 21 0 21 C0 14.07 0 7.14 0 0 Z " fill="#454A55" transform="translate(236,523)"/>
<path d="M0 0 C2.4375 0.1875 2.4375 0.1875 3.4375 1.1875 C3.60546875 3.18359375 3.60546875 3.18359375 3.625 5.625 C3.63917969 6.42808594 3.65335938 7.23117187 3.66796875 8.05859375 C3.4375 10.1875 3.4375 10.1875 1.4375 12.1875 C-1.125 11.9375 -1.125 11.9375 -3.5625 11.1875 C-5.06912097 8.17425805 -4.74020373 5.50463623 -4.5625 2.1875 C-2.5625 0.1875 -2.5625 0.1875 0 0 Z " fill="#F4F4F5" transform="translate(621.5625,527.8125)"/>
<path d="M0 0 C2.4375 0.1875 2.4375 0.1875 3.4375 1.1875 C3.60546875 3.18359375 3.60546875 3.18359375 3.625 5.625 C3.63917969 6.42808594 3.65335937 7.23117187 3.66796875 8.05859375 C3.4375 10.1875 3.4375 10.1875 1.4375 12.1875 C-1.125 11.9375 -1.125 11.9375 -3.5625 11.1875 C-5.06912097 8.17425805 -4.74020373 5.50463623 -4.5625 2.1875 C-2.5625 0.1875 -2.5625 0.1875 0 0 Z " fill="#F5F5F5" transform="translate(426.5625,527.8125)"/>
<path d="M0 0 C2.5 0.125 2.5 0.125 3.5 1.125 C3.59823996 2.60148876 3.62973519 4.08275417 3.625 5.5625 C3.62757813 6.36558594 3.63015625 7.16867187 3.6328125 7.99609375 C3.5 10.125 3.5 10.125 2.5 12.125 C-2.375 11.25 -2.375 11.25 -3.5 10.125 C-3.5979057 8.62761876 -3.62974864 7.12557108 -3.625 5.625 C-3.62757813 4.8103125 -3.63015625 3.995625 -3.6328125 3.15625 C-3.43435342 0.12099356 -3.05615366 0.15280768 0 0 Z " fill="#F7F7F8" transform="translate(746.5,527.875)"/>
<path d="M0 0 C1.4540625 0.0309375 1.4540625 0.0309375 2.9375 0.0625 C2.6075 1.7125 2.2775 3.3625 1.9375 5.0625 C0.2875 5.0625 -1.3625 5.0625 -3.0625 5.0625 C-3.625 3.125 -3.625 3.125 -4.0625 1.0625 C-3.0625 0.0625 -3.0625 0.0625 0 0 Z " fill="#ECEDEE" transform="translate(598.0625,534.9375)"/>
<path d="M0 0 C1.4540625 0.0309375 1.4540625 0.0309375 2.9375 0.0625 C2.6075 1.7125 2.2775 3.3625 1.9375 5.0625 C0.2875 5.0625 -1.3625 5.0625 -3.0625 5.0625 C-3.625 3.125 -3.625 3.125 -4.0625 1.0625 C-3.0625 0.0625 -3.0625 0.0625 0 0 Z " fill="#ECEDEE" transform="translate(358.0625,534.9375)"/>
<path d="M0 0 C1.4540625 0.0309375 1.4540625 0.0309375 2.9375 0.0625 C2.6075 1.7125 2.2775 3.3625 1.9375 5.0625 C0.2875 5.0625 -1.3625 5.0625 -3.0625 5.0625 C-3.625 3.125 -3.625 3.125 -4.0625 1.0625 C-3.0625 0.0625 -3.0625 0.0625 0 0 Z " fill="#ECEDEE" transform="translate(280.0625,534.9375)"/>
<path d="M0 0 C1.65 0 3.3 0 5 0 C5.33 1.32 5.66 2.64 6 4 C4.35 4.33 2.7 4.66 1 5 C0.67 3.35 0.34 1.7 0 0 Z " fill="#424752" transform="translate(689,516)"/>
<path d="M0 0 C1.65 0 3.3 0 5 0 C4.67 1.65 4.34 3.3 4 5 C2.35 4.67 0.7 4.34 -1 4 C-0.67 2.68 -0.34 1.36 0 0 Z " fill="#414651" transform="translate(339,516)"/>
<path d="M0 0 C1.65 0 3.3 0 5 0 C5.33 1.32 5.66 2.64 6 4 C4.35 4.33 2.7 4.66 1 5 C0.67 3.35 0.34 1.7 0 0 Z " fill="#424752" transform="translate(236,516)"/>
<path d="M0 0 C1.65 0.33 3.3 0.66 5 1 C5 1.99 5 2.98 5 4 C2.69 4 0.38 4 -2 4 C-1.34 2.68 -0.68 1.36 0 0 Z " fill="#EEEEEF" transform="translate(779,527)"/>
<path d="M0 0 C1.65 0.33 3.3 0.66 5 1 C5 1.99 5 2.98 5 4 C2.69 4 0.38 4 -2 4 C-1.34 2.68 -0.68 1.36 0 0 Z " fill="#EEEEEF" transform="translate(643,527)"/>
<path d="M0 0 C1.65 0.33 3.3 0.66 5 1 C5.33 1.99 5.66 2.98 6 4 C3.69 4 1.38 4 -1 4 C-0.67 2.68 -0.34 1.36 0 0 Z " fill="#EFEFF0" transform="translate(488,527)"/>
</svg>
