<?xml version="1.0" encoding="UTF-8"?>
<svg version="1.1" xmlns="http://www.w3.org/2000/svg" width="4646" height="1596">
<path d="M0 0 C2.46728898 1.00850702 3.470288 2.16573739 5.12866211 4.24389648 C5.98705688 5.30459351 5.98705688 5.30459351 6.86279297 6.38671875 C7.4622876 7.14654053 8.06178223 7.9063623 8.67944336 8.68920898 C9.30665283 9.46643311 9.9338623 10.24365723 10.58007812 11.04443359 C13.19806414 14.29138342 15.78944848 17.55910514 18.38256836 20.82592773 C31.33714457 36.96970305 46.15659186 52.46396739 61.99194336 65.81420898 C63.42280273 67.0787793 63.42280273 67.0787793 64.88256836 68.36889648 C88.0459153 88.77123352 113.90148291 106.09069851 140.99194336 120.81420898 C141.89203125 121.30872559 142.79211914 121.80324219 143.71948242 122.31274414 C192.48163184 148.98891123 244.5714661 162.34977816 298.99194336 171.81420898 C298.99194336 197.88420898 298.99194336 223.95420898 298.99194336 250.81420898 C291.46381836 251.68045898 283.93569336 252.54670898 276.17944336 253.43920898 C237.89721234 257.98257827 200.19771176 264.60522683 162.99194336 274.81420898 C207.64551768 290.67272112 251.81351673 298.43874593 298.99194336 304.81420898 C298.99194336 330.88420898 298.99194336 356.95420898 298.99194336 383.81420898 C284.55360422 386.03549193 284.55360422 386.03549193 278.12084961 386.89233398 C241.8228928 391.80533509 206.12725522 399.14238315 171.34741211 410.78271484 C170.54045898 411.05220947 169.73350586 411.3217041 168.90209961 411.59936523 C168.21253174 411.83534424 167.52296387 412.07132324 166.8125 412.31445312 C164.99194336 412.81420898 164.99194336 412.81420898 161.99194336 412.81420898 C161.99194336 413.47420898 161.99194336 414.13420898 161.99194336 414.81420898 C162.98081543 414.94093994 163.9696875 415.0676709 164.98852539 415.19824219 C169.06521989 415.7824607 173.04686872 416.69987301 177.04663086 417.66967773 C178.62918613 418.0461886 180.21187425 418.4221414 181.79467773 418.79760742 C182.62056396 418.99414917 183.4464502 419.19069092 184.29736328 419.39318848 C222.26573651 428.3847486 260.18526117 433.72929507 298.99194336 437.81420898 C298.99194336 463.88420898 298.99194336 489.95420898 298.99194336 516.81420898 C293.82383261 517.96267804 288.84340583 519.06408765 283.64819336 519.89233398 C224.73913666 529.51460026 167.4816595 549.6199923 116.99194336 581.81420898 C116.1126416 582.37398437 116.1126416 582.37398437 115.21557617 582.94506836 C93.7344124 596.73129387 73.81793042 612.61515908 54.99194336 629.81420898 C54.00255558 630.71025829 53.01296323 631.60608175 52.02319336 632.50170898 C43.88482264 639.88628824 35.94547685 647.38508387 28.78881836 655.73999023 C26.81731906 658.01578616 24.78059941 660.22343566 22.74194336 662.43920898 C15.23544405 670.75548476 8.45232653 679.66974576 1.99194336 688.81420898 C-2.21674076 688.28726619 -5.23168069 687.40220385 -8.85961914 685.21655273 C-9.7796875 684.6700708 -10.69975586 684.12358887 -11.64770508 683.56054688 C-12.63287109 682.96363037 -13.61803711 682.36671387 -14.63305664 681.75170898 C-16.77546282 680.4768874 -18.9187289 679.20351007 -21.06274414 677.93139648 C-22.75222168 676.92544434 -22.75222168 676.92544434 -24.47583008 675.89916992 C-30.52519442 672.31443955 -36.64585192 668.85274799 -42.75805664 665.37670898 C-51.20302023 660.56951161 -59.62434995 655.72745545 -68.00805664 650.81420898 C-67.40155822 647.62348072 -66.36719354 645.64831737 -64.38305664 643.09155273 C-63.84608154 642.39392822 -63.30910645 641.69630371 -62.75585938 640.97753906 C-62.17908447 640.24301514 -61.60230957 639.50849121 -61.00805664 638.75170898 C-60.12065796 637.60835083 -60.12065796 637.60835083 -59.21533203 636.44189453 C-54.57607334 630.48541662 -49.86611802 624.59405637 -45.00805664 618.81420898 C-44.57734863 618.29858398 -44.14664063 617.78295898 -43.70288086 617.25170898 C-29.34088837 600.09218854 -14.00202826 582.85302016 3.12866211 568.40014648 C5.34665521 566.51229492 7.47436491 564.53718106 9.61694336 562.56420898 C15.21546981 557.51872846 21.10957188 552.91724101 27.0715332 548.31518555 C28.97789991 546.82518523 30.85586003 545.30514089 32.73022461 543.77514648 C60.51537919 521.30909876 91.77747752 502.17226828 123.99194336 486.81420898 C120.68600084 484.61024731 117.4089164 483.51262563 113.66772461 482.31030273 C112.15948676 481.81581147 110.65126813 481.32126158 109.14306641 480.82666016 C107.53020698 480.30163059 105.91733233 479.77664777 104.30444336 479.25170898 C92.16192021 475.28254696 80.12899966 471.20100133 68.31542969 466.31787109 C67.43910889 465.96990479 66.56278809 465.62193848 65.65991211 465.26342773 C64.55039185 464.80456177 64.55039185 464.80456177 63.41845703 464.33642578 C58.60851823 463.30126539 54.57369949 464.26319509 50.421875 466.75683594 C49.15647675 467.59219798 47.90023289 468.44154552 46.65209961 469.30249023 C45.97242126 469.75707611 45.29274292 470.21166199 44.59246826 470.68002319 C42.40406621 472.14931639 40.22903002 473.63706165 38.05444336 475.12670898 C36.55247327 476.14331722 35.05011222 477.15934809 33.54736328 478.17480469 C24.39705224 484.38056687 15.32283992 490.67183765 6.63647461 497.51831055 C4.89959422 498.88698055 3.14993047 500.23805547 1.39819336 501.58764648 C-9.25285495 509.8295805 -19.54526738 518.47292184 -29.49633789 527.54858398 C-30.83218233 528.75354476 -32.17350941 529.95336532 -33.55029297 531.11132812 C-40.41284477 536.93306111 -46.69585342 543.35159544 -53.04443359 549.72021484 C-55.06569932 551.74683878 -57.09225238 553.76806446 -59.11938477 555.78881836 C-65.29358612 561.95954999 -71.39807256 568.11810186 -77.00805664 574.81420898 C-77.95642481 575.89812748 -78.90691207 576.98019593 -79.85961914 578.06030273 C-85.28553701 584.28153167 -90.50174752 590.62466457 -95.50805664 597.18920898 C-96.04374268 597.89158691 -96.57942871 598.59396484 -97.13134766 599.31762695 C-99.91949623 602.99628845 -102.65968334 606.70421065 -105.35571289 610.45092773 C-105.89583008 611.19358887 -106.43594727 611.93625 -106.99243164 612.70141602 C-108.02342108 614.12253544 -109.04350025 615.55165192 -110.05102539 616.98950195 C-111.44946289 618.91186523 -111.44946289 618.91186523 -114.00805664 621.81420898 C-118.1255212 621.81420898 -119.17157169 621.4318636 -122.58618164 619.46264648 C-123.93848877 618.69078003 -123.93848877 618.69078003 -125.31811523 617.90332031 C-126.2882959 617.33766357 -127.25847656 616.77200684 -128.25805664 616.18920898 C-129.27077637 615.60743896 -130.28349609 615.02566895 -131.3269043 614.42626953 C-134.55961551 612.5651849 -137.78445264 610.69101774 -141.00805664 608.81420898 C-143.09399344 607.60457236 -145.17993093 606.39493692 -147.26586914 605.18530273 C-151.29985804 602.84230513 -155.32620202 600.48682611 -159.34790039 598.12280273 C-162.96750216 595.99727813 -166.60263138 593.90569367 -170.26196289 591.84936523 C-171.05876465 591.39650146 -171.85556641 590.9436377 -172.67651367 590.47705078 C-174.14432878 589.64396226 -175.61767472 588.82051249 -177.09741211 588.00878906 C-181.7915122 585.32348943 -181.7915122 585.32348943 -182.82543945 582.8918457 C-183.15894142 579.09759207 -180.08119692 576.38890101 -177.82055664 573.56420898 C-176.70553857 572.12834856 -175.59096786 570.69214064 -174.47680664 569.25561523 C-173.61249023 568.1537085 -173.61249023 568.1537085 -172.73071289 567.02954102 C-170.55284512 564.228808 -168.43876332 561.38384089 -166.3269043 558.53320312 C-161.08195119 551.45974206 -155.67330909 544.55809441 -150.00805664 537.81420898 C-149.36054443 537.03932129 -149.36054443 537.03932129 -148.69995117 536.2487793 C-143.33869657 529.83506684 -137.90765349 523.50333387 -132.27368164 517.32592773 C-131.01809253 515.93395567 -129.76878091 514.53594955 -128.54655457 513.11459351 C-124.14196603 507.99752475 -119.51028679 503.17030447 -114.73071289 498.40405273 C-113.96053329 497.63291641 -113.1903537 496.86178009 -112.39683533 496.067276 C-110.77864291 494.44840745 -109.15920452 492.83078348 -107.53857422 491.21435547 C-105.07738432 488.75852181 -102.62157855 486.29739534 -100.16625977 483.83569336 C-98.58389798 482.25399245 -97.00122597 480.67260181 -95.41821289 479.09155273 C-94.6940065 478.36532211 -93.96980011 477.63909149 -93.22364807 476.89085388 C-88.6446088 472.33250687 -83.91510262 468.01605176 -79.00805664 463.81420898 C-77.89015685 462.8410683 -76.7728507 461.86724463 -75.65649414 460.89233398 C-68.26283907 454.48822248 -60.71886409 448.33051421 -52.98266602 442.34594727 C-50.76127323 440.62277487 -48.54848206 438.88888148 -46.33618164 437.15405273 C-44.72691014 435.89480588 -43.11753623 434.63568987 -41.50805664 433.37670898 C-40.75427734 432.78519043 -40.00049805 432.19367188 -39.22387695 431.58422852 C-35.24876613 428.48428179 -31.24667167 425.54382341 -27.00805664 422.81420898 C-27.71599365 422.3976001 -28.42393066 421.98099121 -29.15332031 421.55175781 C-31.88672413 419.94165248 -34.618899 418.32948461 -37.35031128 416.71600342 C-38.57784811 415.99135776 -39.80581301 415.26743674 -41.03421021 414.54425049 C-47.53060912 410.71852544 -53.99234441 406.86287198 -60.33618164 402.78686523 C-61.76474487 401.87360474 -61.76474487 401.87360474 -63.22216797 400.94189453 C-65.0094978 399.79162642 -66.78837361 398.6280925 -68.55761719 397.45019531 C-69.35466064 396.9386792 -70.1517041 396.42716309 -70.97290039 395.90014648 C-71.65989014 395.44687988 -72.34687988 394.99361328 -73.0546875 394.52661133 C-75.02490207 393.57308501 -75.02490207 393.57308501 -77.07519531 394.54760742 C-79.96648411 396.44226528 -82.68051208 398.53903945 -85.38305664 400.68920898 C-85.9944751 401.17244629 -86.60589355 401.65568359 -87.23583984 402.15356445 C-92.24300671 406.14059872 -97.11759384 410.27078623 -101.95336914 414.46313477 C-105.5404161 417.57143646 -109.18100465 420.59235483 -112.88305664 423.56420898 C-116.79324486 426.73586971 -120.39855136 430.04540951 -123.86352539 433.69702148 C-125.62917569 435.44015894 -127.41584656 437.02038319 -129.30493164 438.62280273 C-135.51096 444.01249361 -141.24453634 449.90201028 -147.04443359 455.72021484 C-149.06569932 457.74683878 -151.09225238 459.76806446 -153.11938477 461.78881836 C-159.2948494 467.96109829 -165.38078356 474.13070443 -171.00805664 480.81420898 C-172.46251181 482.42189271 -173.92026559 484.02660613 -175.38305664 485.62670898 C-179.20720143 489.86861748 -182.8569512 494.21971995 -186.44555664 498.66186523 C-188.33826577 501.00280779 -190.26055839 503.3167011 -192.19555664 505.62280273 C-202.1158831 517.47770533 -211.547056 529.67893886 -220.19165039 542.50170898 C-220.68963135 543.2396167 -221.1876123 543.97752441 -221.70068359 544.73779297 C-222.62918287 546.12429069 -223.54888619 547.51673556 -224.45800781 548.91601562 C-228.29534672 554.68067511 -228.29534672 554.68067511 -232.00805664 555.81420898 C-234.3762207 554.97827148 -234.3762207 554.97827148 -237.02368164 553.43920898 C-238.01561523 552.87298828 -239.00754883 552.30676758 -240.02954102 551.72338867 C-241.62765625 550.77834473 -241.62765625 550.77834473 -243.25805664 549.81420898 C-244.3647168 549.17644531 -245.47137695 548.53868164 -246.61157227 547.8815918 C-249.51421631 546.2047098 -252.40814555 544.51454228 -255.29833984 542.81640625 C-257.99226894 541.23728602 -260.69589062 539.67497363 -263.39868164 538.11108398 C-267.41219197 535.78511563 -271.41675794 533.44484056 -275.41430664 531.09155273 C-279.02225654 528.96890039 -282.64499045 526.87767686 -286.28930664 524.81811523 C-287.09174805 524.36017578 -287.89418945 523.90223633 -288.72094727 523.43041992 C-290.20419134 522.5849328 -291.69224093 521.74779975 -293.18579102 520.9206543 C-295.13305664 519.80249023 -295.13305664 519.80249023 -298.00805664 517.81420898 C-298.00805664 514.43989003 -297.51848216 513.7281323 -295.65649414 511.03295898 C-294.88474854 509.90796997 -294.88474854 509.90796997 -294.09741211 508.76025391 C-293.24880615 507.54946167 -293.24880615 507.54946167 -292.38305664 506.31420898 C-291.80056152 505.47414307 -291.21806641 504.63407715 -290.61791992 503.76855469 C-269.90772233 474.06919123 -247.15894192 445.83242213 -222.44799805 419.36743164 C-221.0742953 417.88565869 -219.71842011 416.3874176 -218.36352539 414.88842773 C-211.70845503 407.52742516 -204.76477504 400.46351176 -197.75805664 393.43920898 C-197.28619934 392.96476349 -196.81434204 392.49031799 -196.32818604 392.00149536 C-191.30515354 386.95672996 -186.24046938 382.03154659 -180.83569336 377.39672852 C-177.87362348 374.83192262 -175.04532467 372.1272501 -172.19555664 369.43920898 C-166.33728472 363.95861148 -160.27972766 358.81878368 -154.00805664 353.81420898 C-151.94105587 352.13214776 -149.88111331 350.44168085 -147.82055664 348.75170898 C-146.21638997 347.43920898 -144.61222331 346.12670898 -143.00805664 344.81420898 C-148.28750812 339.92280229 -153.56367528 335.11167226 -159.19555664 330.62670898 C-164.71608679 326.17390315 -169.85935872 321.36604628 -174.99902344 316.48144531 C-178.4878032 313.16663854 -182.01342608 309.91387143 -185.61743164 306.72436523 C-191.73983492 301.23555611 -197.53835884 295.43426781 -203.34082031 289.61181641 C-205.19947772 287.74777655 -207.06345278 285.88917387 -208.92797852 284.03100586 C-214.30608662 278.65590244 -219.63840287 273.29367333 -224.56884766 267.49853516 C-226.91737928 264.75001613 -229.41029407 262.13799094 -231.88305664 259.50170898 C-236.36672933 254.68184821 -240.62429894 249.7391692 -244.74633789 244.60327148 C-246.75402901 242.12746585 -248.80843501 239.70040765 -250.88769531 237.28466797 C-257.31805563 229.79804679 -263.32085266 222.01939851 -269.25610352 214.13696289 C-271.06709093 211.73594083 -272.8886132 209.34316759 -274.71118164 206.95092773 C-283.17016981 195.80703079 -291.22417809 184.43930131 -299.00805664 172.81420898 C-296.23068318 169.82535631 -293.56876673 167.8036999 -289.99243164 165.85327148 C-289.00025635 165.30622559 -288.00808105 164.75917969 -286.98583984 164.19555664 C-285.92067139 163.61596191 -284.85550293 163.03636719 -283.75805664 162.43920898 C-281.49531498 161.1910616 -279.23362283 159.94100999 -276.97290039 158.68920898 C-276.39585861 158.37021637 -275.81881683 158.05122375 -275.22428894 157.7225647 C-269.20294764 154.38565568 -263.2589203 150.92093943 -257.32055664 147.43920898 C-255.82685547 146.5683667 -255.82685547 146.5683667 -254.30297852 145.67993164 C-250.02518567 143.18359741 -245.75978874 140.67345494 -241.53540039 138.08764648 C-240.88466553 137.69625488 -240.23393066 137.30486328 -239.56347656 136.90161133 C-237.90799396 135.90451606 -236.26219497 134.89138885 -234.61743164 133.87670898 C-232.00805664 132.81420898 -232.00805664 132.81420898 -229.94555664 133.20092773 C-227.08992369 135.57870275 -225.25324488 138.53581489 -223.25805664 141.62670898 C-216.313969 152.05005384 -208.66834327 161.91203463 -201.00805664 171.81420898 C-200.0040555 173.12142778 -199.0001395 174.42871196 -197.99633789 175.73608398 C-189.25978743 187.05012015 -179.84327986 197.78615626 -170.22802734 208.35888672 C-168.87098847 209.85979291 -167.52241692 211.36848091 -166.18896484 212.89038086 C-159.46804959 220.51929962 -152.29411661 227.67990922 -145.09667969 234.85595703 C-142.94293142 237.00432765 -140.79460438 239.15801592 -138.64672852 241.31225586 C-137.2557731 242.70255067 -135.86450761 244.09253534 -134.47290039 245.48217773 C-133.52724464 246.43086983 -133.52724464 246.43086983 -132.56248474 247.39872742 C-128.74953205 251.19200935 -124.82087611 254.79984478 -120.74777222 258.31260681 C-118.52577154 260.23048413 -116.36185005 262.20881466 -114.19555664 264.18920898 C-109.47429765 268.44478993 -104.60921677 272.48811523 -99.66235352 276.4777832 C-97.74795257 278.02433438 -95.83874152 279.57716889 -93.92993164 281.13061523 C-88.83874905 285.28371268 -88.83874905 285.28371268 -83.7199707 289.40258789 C-82.22041535 290.63910088 -80.80476819 291.97594243 -79.40649414 293.32592773 C-77.04800358 295.15809467 -77.04800358 295.15809467 -74.06274414 294.29858398 C-70.88505274 292.75443727 -68.05957614 291.04500844 -65.13305664 289.06420898 C-55.5425928 282.69937067 -45.5228972 277.04650093 -35.55664062 271.29711914 C-33.02665262 269.82502917 -30.51453123 268.32592559 -28.00805664 266.81420898 C-32.05625765 262.52741067 -36.48350895 259.03314428 -41.19555664 255.50170898 C-42.72606964 254.34229831 -44.25602088 253.18214568 -45.78540039 252.02124023 C-46.51742676 251.46645996 -47.24945312 250.91167969 -48.00366211 250.34008789 C-55.98497033 244.26418334 -63.64221404 237.80343025 -71.26977539 231.29370117 C-73.0525609 229.77633036 -74.84230181 228.2674751 -76.63305664 226.75952148 C-82.67642629 221.65145455 -88.4988464 216.47855272 -94.02368164 210.80249023 C-95.82921503 208.99340264 -97.68106721 207.33672143 -99.63305664 205.68920898 C-108.38081173 198.17353208 -116.71338518 189.76987618 -124.14868164 180.95483398 C-126.26031891 178.5237894 -128.45492888 176.18313993 -130.65966797 173.83666992 C-135.84256195 168.31823513 -140.85395547 162.74121045 -145.58618164 156.82592773 C-147.42824727 154.53523 -149.29063603 152.27244637 -151.17993164 150.02124023 C-159.36325007 140.24697756 -167.07348771 130.20455712 -174.52368164 119.86108398 C-175.82269189 118.06981722 -177.14208779 116.29765437 -178.47680664 114.53295898 C-179.12649414 113.65639648 -179.77618164 112.77983398 -180.44555664 111.87670898 C-180.98051758 111.16643555 -181.51547852 110.45616211 -182.06665039 109.72436523 C-183.00805664 107.81420898 -183.00805664 107.81420898 -182.87744141 105.88867188 C-181.62355566 102.89674061 -179.87230652 102.23521284 -177.03930664 100.71264648 C-176.00201416 100.14537842 -174.96472168 99.57811035 -173.89599609 98.99365234 C-172.77797607 98.39818604 -171.65995605 97.80271973 -170.50805664 97.18920898 C-168.19870984 95.92886908 -165.89011693 94.66714685 -163.58227539 93.40405273 C-162.45096191 92.78900879 -161.31964844 92.17396484 -160.15405273 91.5402832 C-156.16412227 89.3511781 -152.23298139 87.07574371 -148.32055664 84.75170898 C-147.673125 84.37087158 -147.02569336 83.99003418 -146.35864258 83.59765625 C-142.29623988 81.20052175 -138.27068092 78.74837633 -134.25415039 76.27514648 C-132.76371216 75.36841187 -132.76371216 75.36841187 -131.24316406 74.44335938 C-129.28922188 73.25424645 -127.34240735 72.05332189 -125.40380859 70.83935547 C-124.5152417 70.30125244 -123.6266748 69.76314941 -122.71118164 69.20874023 C-121.53023926 68.47941284 -121.53023926 68.47941284 -120.32543945 67.73535156 C-117.41496143 66.57845801 -115.94297238 66.79421748 -113.00805664 67.81420898 C-111.25345747 69.85924521 -109.83704226 71.76060782 -108.38305664 74.00170898 C-107.50704006 75.2875366 -106.62803945 76.57133542 -105.74633789 77.85327148 C-105.29597168 78.51230469 -104.84560547 79.17133789 -104.3815918 79.8503418 C-97.69629531 89.4089136 -90.02109255 98.30623571 -82.43041992 107.14916992 C-80.95550712 108.87572421 -79.49451705 110.61335446 -78.03540039 112.35327148 C-72.43394605 119.00443294 -66.66048748 125.30291487 -60.44165039 131.38061523 C-58.42416301 133.39810261 -56.57869936 135.43545197 -54.75805664 137.62670898 C-49.64889289 143.60577831 -43.67502069 148.78105831 -37.88745117 154.08764648 C-36.16922878 155.66614334 -34.45989358 157.25350258 -32.75415039 158.84545898 C-27.33112111 163.89165882 -21.79660861 168.74534505 -16.02368164 173.38842773 C-13.81163448 175.16780764 -11.61598825 176.96051451 -9.42993164 178.77124023 C7.3255268 192.60873261 24.89778045 205.20108089 43.17944336 216.95043945 C45.09682996 218.22104096 46.97181459 219.55744812 48.80444336 220.94750977 C53.66254727 224.66177452 53.66254727 224.66177452 59.46899414 225.74414062 C62.11417612 224.98068948 64.49194778 223.96625044 66.99194336 222.81420898 C68.95423992 222.08244845 70.9206432 221.36163423 72.89038086 220.65014648 C75.04964701 219.83091904 77.2084826 219.01055609 79.36694336 218.18920898 C89.33794033 214.44520831 99.35561132 210.95376424 109.49194336 207.68920898 C111.29864502 207.10405518 111.29864502 207.10405518 113.1418457 206.50708008 C121.60672647 203.81420898 121.60672647 203.81420898 124.99194336 203.81420898 C124.99194336 203.15420898 124.99194336 202.49420898 124.99194336 201.81420898 C124.1229541 201.54503662 123.25396484 201.27586426 122.35864258 200.99853516 C116.64800374 198.98966576 111.43602847 195.99107077 106.11694336 193.12670898 C105.1930481 192.63075729 105.1930481 192.63075729 104.25048828 192.12478638 C73.86390687 175.76530531 45.40310049 156.01324192 18.99194336 133.81420898 C18.47631836 133.38350098 17.96069336 132.95279297 17.42944336 132.5090332 C4.35741986 121.56815032 -7.99186659 109.89985266 -20.07055664 97.87670898 C-21.10563354 96.84864136 -21.10563354 96.84864136 -22.16162109 95.79980469 C-26.64683408 91.30040317 -30.86711527 86.63025773 -35.00805664 81.81420898 C-36.05365465 80.62298272 -37.10049835 79.43284853 -38.14868164 78.24389648 C-44.92217843 70.51673436 -51.46026641 62.65756045 -57.71166992 54.50170898 C-59.02947443 52.78632956 -60.36008728 51.08142112 -61.69165039 49.37670898 C-62.52702225 48.29394343 -63.36169078 47.21063478 -64.19555664 46.12670898 C-64.93161133 45.1740918 -65.66766602 44.22147461 -66.42602539 43.23999023 C-68.00805664 40.81420898 -68.00805664 40.81420898 -68.00805664 37.81420898 C-67.37641602 37.46342285 -66.74477539 37.11263672 -66.09399414 36.7512207 C-54.17222162 30.12252622 -42.2861772 23.44558259 -30.50805664 16.56420898 C-29.5203125 15.98840088 -28.53256836 15.41259277 -27.51489258 14.81933594 C-22.94051144 12.14509995 -18.38569945 9.44558855 -13.86743164 6.67749023 C-13.08303711 6.20150391 -12.29864258 5.72551758 -11.49047852 5.23510742 C-10.04768374 4.35718636 -8.61096866 3.46915922 -7.18188477 2.5690918 C-2.55568516 -0.23645914 -2.55568516 -0.23645914 0 0 Z M47.44116211 316.79858398 C46.5255249 317.23340088 45.6098877 317.66821777 44.66650391 318.11621094 C43.68077393 318.59405029 42.69504395 319.07188965 41.67944336 319.56420898 C40.15347534 320.29933716 40.15347534 320.29933716 38.59667969 321.04931641 C24.36552753 327.97895397 10.51426696 335.59036958 -3.00805664 343.81420898 C-0.04949662 347.04961135 2.87016409 349.04742109 6.73413086 351.09936523 C8.44221924 352.01202148 8.44221924 352.01202148 10.18481445 352.94311523 C11.411839 353.58831588 12.63922306 354.23283324 13.86694336 354.87670898 C15.1243431 355.54062847 16.38166663 356.20469232 17.63891602 356.86889648 C20.18714297 358.21218678 22.73864134 359.54898406 25.29272461 360.88110352 C27.65438266 362.11296265 30.00999841 363.3543503 32.36303711 364.6027832 C35.35581753 366.1902701 38.35890413 367.75587396 41.36694336 369.31420898 C42.25623535 369.78866455 43.14552734 370.26312012 44.06176758 370.75195312 C44.89208496 371.17468506 45.72240234 371.59741699 46.57788086 372.03295898 C47.28992676 372.40356445 48.00197266 372.77416992 48.7355957 373.15600586 C53.6283788 374.58328818 57.87157312 372.61665578 62.21850586 370.40014648 C63.23388428 369.89314209 64.2492627 369.3861377 65.29541016 368.86376953 C66.39151611 368.31116455 67.48762207 367.75855957 68.61694336 367.18920898 C80.12366669 361.50325849 91.81562079 356.39641622 103.67944336 351.50170898 C104.4931842 351.16588806 105.30692505 350.83006714 106.14532471 350.48406982 C110.75668642 348.58380583 115.37237374 346.69442597 119.99194336 344.81420898 C117.74826547 342.5705311 116.11979593 341.94671387 113.17163086 340.81811523 C112.17301025 340.42986572 111.17438965 340.04161621 110.14550781 339.64160156 C109.06358154 339.22418701 107.98165527 338.80677246 106.86694336 338.37670898 C90.02583356 331.76138556 73.52621074 324.37402715 57.50366211 315.95874023 C53.44906796 314.1111569 51.27158264 314.97562928 47.44116211 316.79858398 Z " fill="#ED2E24" transform="translate(748.008056640625,437.185791015625)"/>
<path d="M0 0 C0.87011719 0.76183594 1.74023438 1.52367187 2.63671875 2.30859375 C5.11997998 4.50975057 7.56702467 6.74350993 10 9 C10.59167969 9.53753906 11.18335937 10.07507813 11.79296875 10.62890625 C41.56062126 38.84100448 54.62713265 80.33661632 55.9296875 120.31640625 C56.83063207 166.31164368 41.19011018 206.48722204 10 240 C9.37609375 240.67804688 8.7521875 241.35609375 8.109375 242.0546875 C-15.15673844 266.39612551 -47.96306816 280.02516048 -80 288 C-75.14987638 289.67549725 -70.30644764 291.19291772 -65.35424805 292.54077148 C-29.20180828 302.57822228 2.57067527 323.1344024 29.61816406 348.69726562 C30.7345509 349.74974622 31.86173409 350.79076776 32.9921875 351.828125 C61.06588657 378.42426096 80.57424543 420.28071593 82.16113281 458.92382812 C82.18064247 460.2929013 82.19441544 461.66206553 82.203125 463.03125 C82.21018463 463.77615189 82.21724426 464.52105377 82.22451782 465.28852844 C82.59499175 515.98982625 71.79392042 565.98856138 35.45507812 603.48925781 C33.96603381 605.03526557 32.50665877 606.60606738 31.046875 608.1796875 C-11.48057668 653.21233853 -77.78704357 667.72010059 -137 673 C-138.22638184 673.11021484 -138.22638184 673.11021484 -139.47753906 673.22265625 C-214.40576718 679.51408407 -298.53693073 670.25624739 -366 636 C-367.56782373 634.43217627 -367.13119497 632.89608194 -367.13800651 630.71603715 C-367.1459895 629.31777481 -367.1459895 629.31777481 -367.15413377 627.89126474 C-367.15493692 626.85306815 -367.15574008 625.81487156 -367.15656757 624.74521446 C-367.16369108 623.10046512 -367.16369108 623.10046512 -367.17095849 621.42248851 C-367.18579367 617.69843816 -367.19337638 613.97440732 -367.20100403 610.25033569 C-367.21002169 607.57333899 -367.21941828 604.89634596 -367.22925013 602.21935236 C-367.25259082 595.60160301 -367.27032538 588.98384902 -367.28628838 582.36607821 C-367.2997054 576.86204766 -367.31543323 571.35802772 -367.33262825 565.85400772 C-367.52170663 505.21812298 -367.62349267 444.58194813 -367.70018102 383.9458266 C-367.71132249 375.16359099 -367.72289132 366.38135594 -367.73461914 357.59912109 C-367.73590536 356.62867154 -367.73719159 355.65822199 -367.73851678 354.65836488 C-367.78051889 323.18765373 -367.86405613 291.71722642 -367.97009973 260.246671 C-368.07886252 227.91040626 -368.14862156 195.57429575 -368.16807189 163.23784767 C-368.17082952 158.67306703 -368.17401967 154.10828679 -368.17746544 149.54350662 C-368.17812801 148.64507727 -368.17879059 147.74664792 -368.17947324 146.82099344 C-368.19126996 132.34566172 -368.24407082 117.87075488 -368.31194561 103.39558963 C-368.37922808 88.85183542 -368.40279373 74.30853114 -368.38152973 59.76463215 C-368.3702077 51.11829199 -368.39247308 42.4735438 -368.46243372 33.82747117 C-368.50585302 28.05524038 -368.50586676 22.28407284 -368.47030593 16.51179076 C-368.45127231 13.21963122 -368.45795153 9.93111732 -368.50427697 6.6391397 C-368.76329837 -12.92204 -368.76329837 -12.92204 -364.43289506 -18.02520633 C-361.2837086 -19.92272001 -358.52591913 -21.00153556 -355 -22 C-353.0819869 -22.84273632 -351.17151603 -23.70312133 -349.2734375 -24.58984375 C-347.31270026 -25.38585046 -345.34629498 -26.168011 -343.375 -26.9375 C-342.30161377 -27.3593457 -341.22822754 -27.78119141 -340.12231445 -28.21582031 C-302.49989753 -42.72361465 -262.15640851 -50.10506358 -222 -53 C-221.30632324 -53.05639648 -220.61264648 -53.11279297 -219.89794922 -53.17089844 C-146.58986661 -59.0494588 -57.27535232 -50.98339116 0 0 Z M-234 5 C-234.96502441 5.17692383 -235.93004883 5.35384766 -236.92431641 5.53613281 C-258.30588483 8.38186278 -258.30588483 8.38186278 -277 17 C-277.09632909 18.33963101 -277.12371971 19.68430073 -277.12304783 21.02739048 C-277.12503888 21.90023042 -277.12702993 22.77307037 -277.12908131 23.67236 C-277.12616847 24.64218424 -277.12325563 25.61200847 -277.12025452 26.61122131 C-277.12110894 27.63296383 -277.12196337 28.65470634 -277.12284368 29.70741075 C-277.12450156 33.15920593 -277.11897211 36.61095338 -277.11352539 40.06274414 C-277.11324356 42.5259145 -277.11340117 44.98908494 -277.1139679 47.45225525 C-277.11419622 52.76974676 -277.11134481 58.08722318 -277.10573006 63.40471077 C-277.09761725 71.09298794 -277.09500006 78.78125918 -277.09374207 86.46954017 C-277.0915512 98.94201777 -277.08489018 111.41448884 -277.07543945 123.88696289 C-277.06626623 136.00577766 -277.05918496 148.12459066 -277.05493164 160.2434082 C-277.05466892 160.98989437 -277.05440619 161.73638055 -277.05413551 162.50548751 C-277.05283051 166.25023468 -277.05156679 169.99498186 -277.05032361 173.73972905 C-277.03994992 204.82649078 -277.02225655 235.9132444 -277 267 C-267.25237912 267.07068681 -257.50485138 267.12339475 -247.75702667 267.15543652 C-243.22675792 267.170844 -238.6966691 267.19160165 -234.16650391 267.22631836 C-180.41963304 267.62697248 -116.86496295 265.94480198 -74 229 C-73.30390625 228.43667969 -72.6078125 227.87335938 -71.890625 227.29296875 C-50.03426782 209.20640961 -40.61706742 180.72777137 -37.4140625 153.43359375 C-36.74954035 146.1821538 -36.75586849 138.90112821 -36.75 131.625 C-36.74932526 130.8712207 -36.74865051 130.11744141 -36.74795532 129.34082031 C-36.76498461 117.33692652 -37.34202952 105.74896204 -40 94 C-40.24943359 92.86618896 -40.24943359 92.86618896 -40.50390625 91.70947266 C-46.77439616 64.18318315 -62.22425777 39.84588285 -86.19335938 24.4140625 C-111.61028157 8.80489841 -141.94385551 1.93871646 -171.59765625 1.796875 C-173.07371338 1.78635353 -173.07371338 1.78635353 -174.57958984 1.77561951 C-177.7406069 1.75819979 -180.9014367 1.75176668 -184.0625 1.75 C-185.68078201 1.74898788 -185.68078201 1.74898788 -187.33175659 1.74795532 C-203.08502334 1.76363226 -218.47299735 2.08145415 -234 5 Z M-277 316 C-277 408.4 -277 500.8 -277 596 C-263.82783638 601.29019944 -263.82783638 601.29019944 -250.375 605.1875 C-249.36010498 605.4352417 -248.34520996 605.6829834 -247.29956055 605.93823242 C-237.2985911 608.30023135 -227.21908209 609.93936398 -217 611 C-216.11393066 611.0942627 -215.22786133 611.18852539 -214.31494141 611.28564453 C-203.15242316 612.30974558 -191.95043804 612.24366333 -180.75 612.25 C-179.14345551 612.25101212 -179.14345551 612.25101212 -177.50445557 612.25204468 C-161.81735653 612.23634026 -146.45681839 611.95258641 -131 609 C-130.0620459 608.82307617 -129.1240918 608.64615234 -128.15771484 608.46386719 C-98.08337549 602.59199314 -71.11615674 591.58642844 -49 570 C-48.34515625 569.40703125 -47.6903125 568.8140625 -47.015625 568.203125 C-25.23051037 548.01691787 -15.77317315 514.90574467 -14.08984375 486.20703125 C-14.06019531 485.14871094 -14.03054688 484.09039063 -14 483 C-13.97953613 482.28118652 -13.95907227 481.56237305 -13.93798828 480.82177734 C-13.01088916 442.611502 -19.12323106 403.31454804 -44 373 C-45.04607422 371.72382812 -45.04607422 371.72382812 -46.11328125 370.421875 C-73.9125595 338.09949664 -117.1631202 325.78398824 -157.875 319.8125 C-158.92381348 319.6575708 -159.97262695 319.5026416 -161.05322266 319.34301758 C-199.83268916 313.99402524 -237.39400872 316 -277 316 Z " fill="#001548" transform="translate(2409,469)"/>
<path d="M0 0 C31.35 0 62.7 0 95 0 C95 99.33 95 198.66 95 301 C182.12 301 269.24 301 359 301 C359 201.67 359 102.34 359 0 C390.35 0 421.7 0 454 0 C454 228.69 454 457.38 454 693 C422.65 693 391.3 693 359 693 C359 584.43 359 475.86 359 364 C271.88 364 184.76 364 95 364 C95 472.57 95 581.14 95 693 C63.65 693 32.3 693 0 693 C0 464.31 0 235.62 0 0 Z " fill="#001548" transform="translate(1129,435)"/>
<path d="M0 0 C39.84551975 13.10036754 80.16635639 19.37214275 121.8125 25 C121.8125 51.07 121.8125 77.14 121.8125 104 C107.37416087 106.22128294 107.37416087 106.22128294 100.94140625 107.078125 C64.64344944 111.99112611 28.94781186 119.32817417 -5.83203125 130.96850586 C-7.04246094 131.3727478 -7.04246094 131.3727478 -8.27734375 131.78515625 C-8.96691162 132.02113525 -9.65647949 132.25711426 -10.36694336 132.50024414 C-12.1875 133 -12.1875 133 -15.1875 133 C-15.1875 133.66 -15.1875 134.32 -15.1875 135 C-14.19862793 135.12673096 -13.20975586 135.25346191 -12.19091797 135.3840332 C-8.11422347 135.96825171 -4.13257464 136.88566403 -0.1328125 137.85546875 C1.44974277 138.23197962 3.03243089 138.60793241 4.61523438 138.98339844 C5.44112061 139.17994019 6.26700684 139.37648193 7.11791992 139.57897949 C45.08629315 148.57053961 83.00581781 153.91508609 121.8125 158 C121.8125 184.07 121.8125 210.14 121.8125 237 C116.64438926 238.14846905 111.66396247 239.24987867 106.46875 240.078125 C47.5596933 249.70039128 -9.69778386 269.80578332 -60.1875 302 C-61.06680176 302.55977539 -61.06680176 302.55977539 -61.96386719 303.13085938 C-83.44503096 316.91708489 -103.36151294 332.8009501 -122.1875 350 C-123.17688778 350.89604931 -124.16648013 351.79187277 -125.15625 352.6875 C-133.29462072 360.07207925 -141.23396651 367.57087489 -148.390625 375.92578125 C-150.3621243 378.20157718 -152.39884395 380.40922667 -154.4375 382.625 C-161.94399931 390.94127578 -168.72711683 399.85553678 -175.1875 409 C-179.39618412 408.4730572 -182.41112405 407.58799487 -186.0390625 405.40234375 C-186.95913086 404.85586182 -187.87919922 404.30937988 -188.82714844 403.74633789 C-189.81231445 403.14942139 -190.79748047 402.55250488 -191.8125 401.9375 C-193.95490618 400.66267842 -196.09817226 399.38930109 -198.2421875 398.1171875 C-199.36850586 397.44655273 -200.49482422 396.77591797 -201.65527344 396.08496094 C-207.70463778 392.50023057 -213.82529528 389.03853901 -219.9375 385.5625 C-228.38246359 380.75530263 -236.80379331 375.91324647 -245.1875 371 C-244.58100158 367.80927174 -243.5466369 365.83410839 -241.5625 363.27734375 C-240.75703735 362.23090698 -240.75703735 362.23090698 -239.93530273 361.16333008 C-239.35852783 360.42880615 -238.78175293 359.69428223 -238.1875 358.9375 C-237.59590088 358.17526123 -237.00430176 357.41302246 -236.39477539 356.62768555 C-231.7555167 350.67120764 -227.04556138 344.77984739 -222.1875 339 C-221.75679199 338.484375 -221.32608398 337.96875 -220.88232422 337.4375 C-206.52033172 320.27797956 -191.18147162 303.03881117 -174.05078125 288.5859375 C-171.83278815 286.69808593 -169.70507845 284.72297208 -167.5625 282.75 C-161.96397354 277.70451947 -156.06987148 273.10303202 -150.10791016 268.50097656 C-148.20154345 267.01097625 -146.32358332 265.49093191 -144.44921875 263.9609375 C-116.66406417 241.49488978 -85.40196584 222.3580593 -53.1875 207 C-56.49344252 204.79603832 -59.77052696 203.69841664 -63.51171875 202.49609375 C-65.0199566 202.00160249 -66.52817522 201.50705259 -68.03637695 201.01245117 C-69.64923638 200.48742161 -71.26211102 199.96243879 -72.875 199.4375 C-85.01752315 195.46833797 -97.0504437 191.38679234 -108.86401367 186.50366211 C-110.17849487 185.98171265 -110.17849487 185.98171265 -111.51953125 185.44921875 C-112.62905151 184.99035278 -112.62905151 184.99035278 -113.76098633 184.5222168 C-118.57092512 183.48705641 -122.60574387 184.4489861 -126.75756836 186.94262695 C-128.02296661 187.77798899 -129.27921047 188.62733653 -130.52734375 189.48828125 C-131.54686127 190.17016006 -131.54686127 190.17016006 -132.5869751 190.86581421 C-134.77537715 192.33510741 -136.95041334 193.82285266 -139.125 195.3125 C-140.62697009 196.32910824 -142.12933114 197.34513911 -143.63208008 198.3605957 C-152.78239112 204.56635789 -161.85660343 210.85762866 -170.54296875 217.70410156 C-172.27984914 219.07277156 -174.02951289 220.42384649 -175.78125 221.7734375 C-186.43229831 230.01537152 -196.72471074 238.65871285 -206.67578125 247.734375 C-208.01162569 248.93933577 -209.35295277 250.13915633 -210.72973633 251.29711914 C-217.59228813 257.11885213 -223.87529677 263.53738646 -230.22387695 269.90600586 C-232.24514268 271.9326298 -234.27169574 273.95385547 -236.29882812 275.97460938 C-242.47302948 282.14534101 -248.57751592 288.30389287 -254.1875 295 C-255.13586817 296.08391849 -256.08635543 297.16598694 -257.0390625 298.24609375 C-262.46498037 304.46732269 -267.68119087 310.81045559 -272.6875 317.375 C-273.49102905 318.42856689 -273.49102905 318.42856689 -274.31079102 319.50341797 C-277.09893959 323.18207947 -279.8391267 326.89000166 -282.53515625 330.63671875 C-283.34533203 331.75071045 -283.34533203 331.75071045 -284.171875 332.88720703 C-285.20286444 334.30832645 -286.22294361 335.73744294 -287.23046875 337.17529297 C-288.62890625 339.09765625 -288.62890625 339.09765625 -291.1875 342 C-295.30496456 342 -296.35101505 341.61765462 -299.765625 339.6484375 C-300.66716309 339.13385986 -301.56870117 338.61928223 -302.49755859 338.08911133 C-303.46773926 337.52345459 -304.43791992 336.95779785 -305.4375 336.375 C-306.45021973 335.79322998 -307.46293945 335.21145996 -308.50634766 334.61206055 C-311.73905887 332.75097592 -314.963896 330.87680875 -318.1875 329 C-320.2734368 327.79036338 -322.35937429 326.58072794 -324.4453125 325.37109375 C-328.4793014 323.02809615 -332.50564538 320.67261712 -336.52734375 318.30859375 C-340.14694552 316.18306915 -343.78207474 314.09148469 -347.44140625 312.03515625 C-348.23820801 311.58229248 -349.03500977 311.12942871 -349.85595703 310.6628418 C-351.32377214 309.82975328 -352.79711808 309.0063035 -354.27685547 308.19458008 C-358.97095556 305.50928044 -358.97095556 305.50928044 -360.00488281 303.07763672 C-360.33838478 299.28338309 -357.26064028 296.57469202 -355 293.75 C-353.88498193 292.31413957 -352.77041122 290.87793166 -351.65625 289.44140625 C-351.08003906 288.70680176 -350.50382813 287.97219727 -349.91015625 287.21533203 C-347.73228848 284.41459901 -345.61820668 281.5696319 -343.50634766 278.71899414 C-338.26139455 271.64553307 -332.85275245 264.74388542 -327.1875 258 C-326.7558252 257.4834082 -326.32415039 256.96681641 -325.87939453 256.43457031 C-320.51813993 250.02085785 -315.08709685 243.68912489 -309.453125 237.51171875 C-308.19753589 236.11974668 -306.94822427 234.72174057 -305.72599792 233.30038452 C-301.32140939 228.18331577 -296.68973015 223.35609548 -291.91015625 218.58984375 C-291.13997665 217.81870743 -290.36979706 217.04757111 -289.57627869 216.25306702 C-287.95808627 214.63419847 -286.33864788 213.01657449 -284.71801758 211.40014648 C-282.25682768 208.94431282 -279.80102191 206.48318635 -277.34570312 204.02148438 C-275.76334133 202.43978347 -274.18066933 200.85839283 -272.59765625 199.27734375 C-271.87344986 198.55111313 -271.14924347 197.82488251 -270.40309143 197.0766449 C-265.82405216 192.51829789 -261.09454598 188.20184278 -256.1875 184 C-255.06960021 183.02685931 -253.95229406 182.05303565 -252.8359375 181.078125 C-245.43149963 174.66467383 -237.87556013 168.50146923 -230.12695312 162.50976562 C-228.00592028 160.85864942 -225.90095403 159.18828557 -223.796875 157.515625 C-216.07123806 151.3974017 -208.34577906 145.58291729 -199.96875 140.3828125 C-196.24734489 138.06695964 -192.62804215 135.61079692 -189.00048828 133.15136719 C-171.96488228 121.62532393 -154.31760106 111.08824422 -136.26171875 101.2421875 C-133.67515066 99.83045088 -131.11744361 98.38440124 -128.58203125 96.8828125 C-106.66585558 83.9825595 -82.80583806 74.28953409 -59.1875 65 C-62.05585297 63.08776469 -64.61225897 61.94032921 -67.8046875 60.671875 C-68.95590088 60.20837646 -70.10711426 59.74487793 -71.29321289 59.26733398 C-71.90730011 59.02054901 -72.52138733 58.77376404 -73.15408325 58.51950073 C-84.70318068 53.86274065 -96.0408151 48.86191097 -107.25 43.4375 C-107.87541687 43.13654419 -108.50083374 42.83558838 -109.14520264 42.5255127 C-120.21039757 37.18747413 -120.21039757 37.18747413 -124.1875 34 C-104.75770469 24.43582713 -84.62401548 16.53320753 -64.3125 9.0625 C-63.09602783 8.61414795 -61.87955566 8.1657959 -60.6262207 7.70385742 C-52.88125301 4.88610364 -45.08445067 2.35540077 -37.1875 0 C-36.3320459 -0.26240479 -35.4765918 -0.52480957 -34.59521484 -0.79516602 C-32.33907022 -1.4851249 -30.07734367 -2.15175117 -27.8125 -2.8125 C-27.07128906 -3.04130859 -26.33007812 -3.27011719 -25.56640625 -3.50585938 C-16.29234652 -6.18012528 -8.84297756 -2.99816068 0 0 Z " fill="#ED2E24" transform="translate(925.1875,717)"/>
<path d="M0 0 C30.36 0 60.72 0 92 0 C92 208.56 92 417.12 92 632 C162.62 632 233.24 632 306 632 C306 652.13 306 672.26 306 693 C205.02 693 104.04 693 0 693 C0 464.31 0 235.62 0 0 Z " fill="#001548" transform="translate(1662,435)"/>
<path d="M0 0 C33.33047973 -0.95413209 69.25381258 3.87257662 94.92431641 27.07080078 C98.32532808 30.34082438 101.65151592 33.672659 104.92431641 37.07080078 C107.8456903 35.76963211 109.64451577 34.46858884 111.73681641 32.07080078 C134.08641906 9.19812232 169.44959147 0.46743758 200.29931641 -0.11669922 C231.08605709 0.18912933 263.24117848 5.97055541 286.92431641 27.07080078 C287.67197266 27.72435547 288.41962891 28.37791016 289.18994141 29.05126953 C309.90333299 48.35238442 316.93182198 76.39559207 318.03414774 103.80140662 C318.20661986 110.8616373 318.17560392 117.92188732 318.15136719 124.98364258 C318.15080165 127.32139074 318.15112241 129.65913925 318.1522522 131.99688721 C318.15282115 138.28278356 318.14114172 144.56860208 318.12710428 150.8544805 C318.11579847 156.77637031 318.11385117 162.69825749 318.11180054 168.62015662 C318.10744505 180.33394376 318.09419485 192.04770273 318.07519531 203.76147461 C318.0567805 215.12670757 318.04265157 226.49193283 318.03417969 237.85717773 C318.03365424 238.56010394 318.03312879 239.26303015 318.03258742 239.98725715 C318.02997697 243.51433993 318.02744964 247.04142277 318.02496362 250.56850564 C318.0042981 279.73595883 317.96746496 308.90337115 317.92431641 338.07080078 C299.77431641 338.07080078 281.62431641 338.07080078 262.92431641 338.07080078 C262.90973389 330.6920459 262.89515137 323.31329102 262.88012695 315.7109375 C262.83130146 292.06354264 262.76787357 268.41620988 262.69533012 244.7688769 C262.68406285 241.0916865 262.67292425 237.41449572 262.66186523 233.73730469 C262.65855971 232.63927636 262.65855971 232.63927636 262.65518741 231.51906563 C262.61987832 219.68832461 262.5949782 207.85758364 262.57396939 196.02680956 C262.5521563 183.87454664 262.51905393 171.72235171 262.47561485 159.57014668 C262.44919267 152.08013529 262.43142798 144.59020851 262.42497037 137.10015287 C262.41906019 131.34305452 262.39739316 125.58609586 262.37004089 119.82906342 C262.36128728 117.47739877 262.3575325 115.12570904 262.35930824 112.77402878 C262.37110154 89.93775499 259.91991874 69.86229899 244.15869141 52.07861328 C230.8578922 39.06696189 211.59560959 36.58251459 193.90258789 36.64428711 C185.06348579 36.84664559 177.3039649 38.24487717 168.92431641 41.07080078 C167.55146484 41.50392578 167.55146484 41.50392578 166.15087891 41.94580078 C154.80513083 45.95439316 145.47737507 53.82763554 136.92431641 62.07080078 C136.23054775 62.55076382 135.5367791 63.03072685 134.82198715 63.52523422 C131.76333888 67.62815501 132.36838218 71.89404834 132.40533447 76.87799072 C132.39783322 77.99213466 132.39033197 79.10627861 132.38260341 80.25418448 C132.36224583 84.00086093 132.3704451 87.74693686 132.37841797 91.49365234 C132.36968734 94.17403387 132.35937911 96.8543659 132.34709167 99.534729 C132.32376059 105.31218354 132.31503196 111.0895125 132.31620026 116.86701202 C132.31786834 125.22029123 132.29754665 133.57340285 132.27184495 141.92663738 C132.23074431 155.47891545 132.20744607 169.03116342 132.1953125 182.58349609 C132.18348731 195.74889013 132.16329697 208.91422746 132.13183594 222.07958984 C132.12989984 222.89100175 132.12796373 223.70241365 132.12596896 224.53841379 C132.11620451 228.60899898 132.10627538 232.67958374 132.09626436 236.75016832 C132.01341633 270.52370328 131.96272111 304.29717878 131.92431641 338.07080078 C114.10431641 338.07080078 96.28431641 338.07080078 77.92431641 338.07080078 C77.90244263 326.97293945 77.90244263 326.97293945 77.88012695 315.65087891 C77.83128409 291.93015324 77.76785148 268.20948936 77.69533012 244.48882529 C77.68406307 240.79919115 77.67292444 237.10955664 77.66186523 233.41992188 C77.65855971 232.31819455 77.65855971 232.31819455 77.65518741 231.19421011 C77.61989449 219.32925427 77.59498529 207.46429848 77.57396939 195.59930974 C77.55214333 183.40861696 77.51902888 171.21799181 77.47561485 159.02735662 C77.44921481 151.51585451 77.4314339 144.00443652 77.42497037 136.49289036 C77.4190518 130.71575223 77.39736492 124.93875281 77.37004089 119.16168022 C77.36129996 116.80440535 77.35752983 114.44710554 77.35930824 112.08981514 C77.37029549 90.79223123 76.50414309 70.92953466 61.92431641 54.07080078 C46.71729628 39.52138152 26.39323794 36.83731074 6.23681641 36.82080078 C5.49988556 36.82012604 4.76295471 36.81945129 4.00369263 36.8187561 C-15.84326701 36.84759677 -33.56396776 39.66611445 -52.07568359 47.07080078 C-52.40568359 143.10080078 -52.73568359 239.13080078 -53.07568359 338.07080078 C-70.89568359 338.07080078 -88.71568359 338.07080078 -107.07568359 338.07080078 C-107.07568359 234.12080078 -107.07568359 130.17080078 -107.07568359 23.07080078 C-82.10285862 13.55734365 -82.10285862 13.55734365 -74.88818359 11.38330078 C-73.49188721 10.96141479 -73.49188721 10.96141479 -72.06738281 10.53100586 C-48.58405469 3.69288158 -24.36836006 0.83119553 0 0 Z " fill="#001548" transform="translate(3487.07568359375,654.92919921875)"/>
<path d="M0 0 C18.85289961 17.41420457 27.41828388 40.90180821 29.55221558 65.93922424 C29.63765212 66.94056414 29.72308866 67.94190404 29.81111419 68.97358757 C30.64774829 79.52658748 30.72455041 90.0369963 30.68408203 100.61694336 C30.68351583 102.73853551 30.68383853 104.86012805 30.68496704 106.98171997 C30.68553342 112.65996456 30.67389697 118.33812208 30.65981913 124.01634669 C30.64719056 129.98066547 30.64613182 135.94498693 30.64376831 141.90931702 C30.63758877 153.16730599 30.62122644 164.42525544 30.60106933 175.68322712 C30.5785996 188.51543341 30.56768924 201.34764174 30.55767846 214.17986286 C30.53685649 240.54310744 30.50175021 266.90631712 30.45703125 293.26953125 C27.90310918 294.56105301 25.34766679 295.84939997 22.79125977 297.13598633 C22.07294228 297.49964546 21.35462479 297.8633046 20.6145401 298.2379837 C15.32576953 300.89536061 10.04208392 303.16449126 4.39453125 304.95703125 C3.52296387 305.23901367 2.65139648 305.52099609 1.75341797 305.81152344 C-21.58720108 313.12544319 -46.12527629 316.61766849 -70.54296875 317.26953125 C-71.28401855 317.29144531 -72.02506836 317.31335938 -72.78857422 317.3359375 C-109.45079156 318.27740253 -150.5096451 313.11056503 -178.54296875 287.26953125 C-179.24550781 286.65851563 -179.94804687 286.0475 -180.671875 285.41796875 C-199.15396811 268.41878331 -205.22017818 243.37906415 -206.73046875 219.27734375 C-207.32029978 195.02054278 -200.00069402 171.37302905 -183.54296875 153.26953125 C-182.70507812 152.32722656 -181.8671875 151.38492188 -181.00390625 150.4140625 C-142.94733093 109.14854491 -74.79911555 99.5581873 -21.54296875 95.26953125 C-21.61297104 90.96806464 -21.70143849 86.66744703 -21.80541992 82.36669922 C-21.83821902 80.91041929 -21.86638304 79.45402591 -21.8894043 77.99755859 C-22.19713653 59.02292002 -25.14536925 40.27970577 -39.41796875 26.453125 C-59.88089228 10.12541727 -88.21284845 10.21445423 -113.09765625 12.73046875 C-117.63987153 13.32434224 -122.0859407 14.21987568 -126.54296875 15.26953125 C-127.83605957 15.56754639 -127.83605957 15.56754639 -129.15527344 15.87158203 C-143.09466221 19.1698954 -156.94132558 23.53276605 -169.59130859 30.37792969 C-171.54296875 31.26953125 -171.54296875 31.26953125 -174.54296875 31.26953125 C-176.07773039 27.55445795 -177.60748038 23.83736336 -179.1328125 20.1184082 C-179.65132846 18.85613784 -180.17116014 17.59440706 -180.69238281 16.33325195 C-181.44560187 14.51008667 -182.1935458 12.68474492 -182.94140625 10.859375 C-183.39177246 9.76488037 -183.84213867 8.67038574 -184.30615234 7.54272461 C-185.59077149 4.14302289 -186.59243966 0.77484976 -187.54296875 -2.73046875 C-132.58155001 -29.01895646 -50.54621185 -43.44161985 0 0 Z M-42.79296875 127.33203125 C-43.47259674 127.44179291 -44.15222473 127.55155457 -44.85244751 127.66464233 C-77.94901527 133.07917916 -119.52557922 142.35388706 -140.54296875 171.26953125 C-152.91450623 190.04328241 -156.7365205 211.76650716 -152.35546875 233.89453125 C-148.40509993 249.23878791 -140.7169895 263.82754753 -126.82324219 272.32080078 C-110.47090828 281.68499407 -93.883074 284.50379844 -75.16796875 284.51953125 C-74.09083618 284.52054337 -74.09083618 284.52054337 -72.99194336 284.52157593 C-55.2680361 284.49509204 -37.60838752 282.30224064 -21.54296875 274.26953125 C-21.54296875 225.09953125 -21.54296875 175.92953125 -21.54296875 125.26953125 C-28.83987791 125.26953125 -35.61871184 126.16879961 -42.79296875 127.33203125 Z " fill="#001548" transform="translate(3297.54296875,681.73046875)"/>
<path d="M0 0 C0 25.74 0 51.48 0 78 C-5.16811074 79.14846905 -10.14853753 80.24987867 -15.34375 81.078125 C-74.2528067 90.70039128 -131.51028386 110.80578332 -182 143 C-182.58620117 143.37318359 -183.17240234 143.74636719 -183.77636719 144.13085938 C-205.25753096 157.91708489 -225.17401294 173.8009501 -244 191 C-244.98938778 191.89604931 -245.97898013 192.79187277 -246.96875 193.6875 C-255.10712072 201.07207925 -263.04646651 208.57087489 -270.203125 216.92578125 C-272.1746243 219.20157718 -274.21134395 221.40922667 -276.25 223.625 C-283.75649931 231.94127578 -290.53961683 240.85553678 -297 250 C-301.20868412 249.4730572 -304.22362405 248.58799487 -307.8515625 246.40234375 C-309.23166504 245.58262085 -309.23166504 245.58262085 -310.63964844 244.74633789 C-312.11739746 243.85096313 -312.11739746 243.85096313 -313.625 242.9375 C-315.76740618 241.66267842 -317.91067226 240.38930109 -320.0546875 239.1171875 C-321.18100586 238.44655273 -322.30732422 237.77591797 -323.46777344 237.08496094 C-329.51713778 233.50023057 -335.63779528 230.03853901 -341.75 226.5625 C-350.19496359 221.75530263 -358.61629331 216.91324647 -367 212 C-366.39350158 208.80927174 -365.3591369 206.83410839 -363.375 204.27734375 C-362.56953735 203.23090698 -362.56953735 203.23090698 -361.74780273 202.16333008 C-360.88264038 201.06154419 -360.88264038 201.06154419 -360 199.9375 C-359.40840088 199.17526123 -358.81680176 198.41302246 -358.20727539 197.62768555 C-353.5680167 191.67120764 -348.85806138 185.77984739 -344 180 C-343.56929199 179.484375 -343.13858398 178.96875 -342.69482422 178.4375 C-328.33283172 161.27797956 -312.99397162 144.03881117 -295.86328125 129.5859375 C-293.64528815 127.69808593 -291.51757845 125.72297208 -289.375 123.75 C-283.77647354 118.70451947 -277.88237148 114.10303202 -271.92041016 109.50097656 C-270.01404345 108.01097625 -268.13608332 106.49093191 -266.26171875 104.9609375 C-214.80420134 63.35429326 -152.05986792 32.14334828 -88.05078125 15.54443359 C-85.93092287 14.98166167 -83.82496285 14.3813042 -81.71875 13.76953125 C-63.79349421 8.57627025 -45.6933695 4.95450309 -27.25 2.1875 C-26.15933228 2.02072754 -26.15933228 2.02072754 -25.04663086 1.85058594 C-22.93340126 1.53021851 -20.8187482 1.22208683 -18.703125 0.91796875 C-17.48270508 0.74031982 -16.26228516 0.5626709 -15.00488281 0.37963867 C-10.02398346 -0.09252047 -5.00322822 0 0 0 Z " fill="#ED2E24" transform="translate(1047,876)"/>
<path d="M0 0 C30.95228641 -0.63573374 59.28331417 6.97958365 86.10546875 22.125 C85.51991366 26.67385203 84.30946068 30.39517209 82.453125 34.58203125 C81.92396484 35.77634766 81.39480469 36.97066406 80.84960938 38.20117188 C80.5735083 38.81404053 80.29740723 39.42690918 80.01293945 40.05834961 C79.16444202 41.94534318 78.33063051 43.83836142 77.49804688 45.73242188 C73.36074621 54.99736127 73.36074621 54.99736127 71.10546875 56.125 C68.55161009 54.83286913 66.08783328 53.4810729 63.60546875 52.0625 C41.83266835 40.11965294 15.08948232 33.63832338 -9.38305664 40.29052734 C-21.99909186 44.10210551 -31.87963414 51.06920528 -38.26953125 62.75 C-44.83691354 77.01581375 -45.1414834 91.18329384 -40.89453125 106.125 C-34.69770007 121.99374807 -19.97691108 130.73141854 -5.45703125 137.93359375 C-4.76943222 138.27592545 -4.08183319 138.61825714 -3.37339783 138.97096252 C3.49000065 142.36037625 10.45667828 145.50608229 17.44619751 148.62469482 C51.49068117 163.85148369 51.49068117 163.85148369 65.10546875 175.125 C65.976875 175.83269531 66.84828125 176.54039062 67.74609375 177.26953125 C84.74375927 191.73840297 93.68413891 211.21881778 96.10546875 233.125 C97.50811966 261.92334844 91.74936762 287.01691869 72.109375 308.95703125 C49.71767566 333.03452137 18.4575261 342.69997513 -13.625 344.3125 C-45.20302983 344.8634798 -78.65754698 338.53702899 -105.89453125 322.125 C-105.04097906 315.33080204 -102.21455678 309.51194277 -99.4296875 303.3371582 C-98.51683474 301.30650156 -97.62322033 299.26807571 -96.73046875 297.22851562 C-96.15348855 295.93698796 -95.57540226 294.64595374 -94.99609375 293.35546875 C-94.47354004 292.18395264 -93.95098633 291.01243652 -93.41259766 289.80541992 C-91.89453125 287.125 -91.89453125 287.125 -88.89453125 286.125 C-86.46178731 287.23461992 -84.17122524 288.40539838 -81.83203125 289.6875 C-65.44260082 298.24087484 -47.3790521 303.1299116 -28.89453125 304.125 C-28.01152344 304.17785156 -27.12851563 304.23070312 -26.21875 304.28515625 C-9.59057598 304.80267723 8.16540816 301.00229174 21.0859375 290.0234375 C33.38806298 278.45896365 39.60939367 265.01216935 40.48046875 248.0625 C39.04644393 233.00523934 34.51749977 219.4944036 23.10546875 209.125 C9.04817989 197.68541742 -8.04628846 190.27394763 -24.51953125 183.0625 C-53.18113658 170.51033948 -81.01763512 156.21210952 -93.76953125 125.8125 C-102.35163035 101.19464479 -101.08210053 73.68594641 -89.89453125 50.125 C-85.31494793 41.90300547 -79.47561328 34.81974493 -72.89453125 28.125 C-72.22035156 27.43792969 -71.54617187 26.75085938 -70.8515625 26.04296875 C-51.87436693 7.99149004 -25.50921488 1.10161252 0 0 Z " fill="#001548" transform="translate(2858.89453125,654.875)"/>
<path d="M0 0 C18.15 0 36.3 0 55 0 C55 159.06 55 318.12 55 482 C36.85 482 18.7 482 0 482 C0 322.94 0 163.88 0 0 Z " fill="#001548" transform="translate(2997,511)"/>
<path d="M0 0 C0.99 1.485 0.99 1.485 2 3 C1.33913858 5.40165311 0.59903907 7.50375341 -0.359375 9.78515625 C-0.62381409 10.44204941 -0.88825317 11.09894257 -1.16070557 11.77574158 C-1.72275832 13.16440136 -2.29144705 14.55039084 -2.86621094 15.93383789 C-3.74581663 18.05242409 -4.60500933 20.17839345 -5.4609375 22.30664062 C-6.00923646 23.65412667 -6.55867798 25.00114848 -7.109375 26.34765625 C-7.36781189 26.98413589 -7.62624878 27.62061554 -7.89251709 28.27638245 C-9.02230688 30.98357235 -9.90365976 32.90365976 -12 35 C-12.84820312 34.48050781 -13.69640625 33.96101562 -14.5703125 33.42578125 C-34.80763243 21.28397233 -57.38850053 15.46195995 -80.75 21.09375 C-89.70306797 23.59027857 -96.64823039 27.307526 -104 33 C-104.68964844 33.52335938 -105.37929687 34.04671875 -106.08984375 34.5859375 C-125.75282136 50.54993913 -134.62413865 77.12802297 -139.75 101 C-139.94891846 101.92385498 -140.14783691 102.84770996 -140.3527832 103.79956055 C-143.41053391 118.9807484 -144.3842769 134.16995943 -144.3125 149.625 C-144.30976578 150.86008301 -144.30976578 150.86008301 -144.30697632 152.12011719 C-144.16727881 189.81933333 -137.33425352 229.03194071 -113 259 C-112.236875 260.051875 -111.47375 261.10375 -110.6875 262.1875 C-99.57476198 273.81710956 -84.85679048 281.64165795 -68.6875 282.3359375 C-50.48189326 282.62554684 -32.22660362 280.33970527 -16.79296875 269.8125 C-14 268 -14 268 -11 268 C-6.71 278.89 -2.42 289.78 2 301 C-2.40459175 305.40459175 -5.5002392 307.73854447 -10.8125 310.5 C-11.93301758 311.08418701 -11.93301758 311.08418701 -13.07617188 311.68017578 C-42.15871224 326.37457644 -79.67081619 328.09259967 -110.55078125 318.53515625 C-143.18358041 307.67661914 -165.59764273 283.42477843 -181.0625 253.4375 C-194.49061928 226.47001484 -201.052074 194.88067227 -201.203125 164.83984375 C-201.21018463 163.90037903 -201.21724426 162.96091431 -201.22451782 161.99298096 C-201.51647539 111.71093856 -195.14535593 59.55452122 -161 20 C-160.33871094 19.19433594 -159.67742188 18.38867188 -158.99609375 17.55859375 C-140.17426249 -4.59085409 -112.91112764 -16.63594878 -84.375 -19.6875 C-54.96094968 -21.75466605 -24.797436 -16.63805076 0 0 Z " fill="#001548" transform="translate(4160,675)"/>
<path d="M0 0 C18.81 0 37.62 0 57 0 C57 139.59 57 279.18 57 423 C38.19 423 19.38 423 0 423 C0 283.41 0 143.82 0 0 Z " fill="#001548" transform="translate(2656,570)"/>
<path d="M0 0 C2.46728898 1.00850702 3.470288 2.16573739 5.12866211 4.24389648 C5.98705688 5.30459351 5.98705688 5.30459351 6.86279297 6.38671875 C7.4622876 7.14654053 8.06178223 7.9063623 8.67944336 8.68920898 C9.62025757 9.85504517 9.62025757 9.85504517 10.58007812 11.04443359 C13.19806414 14.29138342 15.78944848 17.55910514 18.38256836 20.82592773 C31.33714457 36.96970305 46.15659186 52.46396739 61.99194336 65.81420898 C62.94584961 66.65725586 63.89975586 67.50030273 64.88256836 68.36889648 C88.0459153 88.77123352 113.90148291 106.09069851 140.99194336 120.81420898 C141.89203125 121.30872559 142.79211914 121.80324219 143.71948242 122.31274414 C192.24606566 148.86004073 244.71470165 162.87367265 298.99194336 171.81420898 C298.99194336 172.14420898 298.99194336 172.47420898 298.99194336 172.81420898 C297.95489258 172.89461426 296.9178418 172.97501953 295.84936523 173.05786133 C291.92019133 173.36351096 287.99142207 173.67412941 284.06274414 173.98608398 C282.37762572 174.11922914 280.69240687 174.25111061 279.00708008 174.3815918 C251.75188989 176.49439724 224.84947339 180.59530747 198.09033203 186.17749023 C194.65820731 186.88279173 191.21973308 187.55202753 187.78100586 188.22436523 C180.35750982 189.70679758 172.99577435 191.396841 165.64013672 193.18383789 C163.56024702 193.68780274 161.47835998 194.18283084 159.39624023 194.67749023 C151.6039717 196.55219273 143.951177 198.64558534 136.36561584 201.24606323 C131.38329381 202.89638906 127.36331156 203.70523516 122.36499023 201.82714844 C121.05111328 201.13431763 121.05111328 201.13431763 119.71069336 200.42749023 C118.71545654 199.90823975 117.72021973 199.38898926 116.69482422 198.85400391 C115.63787354 198.28399658 114.58092285 197.71398926 113.49194336 197.12670898 C112.38407471 196.53801025 111.27620605 195.94931152 110.13476562 195.34277344 C77.69546993 177.9549034 47.22588489 157.4229216 18.99194336 133.81420898 C18.40106934 133.32243164 17.81019531 132.8306543 17.20141602 132.32397461 C4.19363966 121.46543519 -8.06505191 109.82700391 -20.07055664 97.87670898 C-20.76060791 97.19133057 -21.45065918 96.50595215 -22.16162109 95.79980469 C-26.64683408 91.30040317 -30.86711527 86.63025773 -35.00805664 81.81420898 C-36.05365465 80.62298272 -37.10049835 79.43284853 -38.14868164 78.24389648 C-44.92217843 70.51673436 -51.46026641 62.65756045 -57.71166992 54.50170898 C-59.02947443 52.78632956 -60.36008728 51.08142112 -61.69165039 49.37670898 C-62.52702225 48.29394343 -63.36169078 47.21063478 -64.19555664 46.12670898 C-64.93161133 45.1740918 -65.66766602 44.22147461 -66.42602539 43.23999023 C-68.00805664 40.81420898 -68.00805664 40.81420898 -68.00805664 37.81420898 C-67.37641602 37.46342285 -66.74477539 37.11263672 -66.09399414 36.7512207 C-54.17222162 30.12252622 -42.2861772 23.44558259 -30.50805664 16.56420898 C-29.5203125 15.98840088 -28.53256836 15.41259277 -27.51489258 14.81933594 C-22.94051144 12.14509995 -18.38569945 9.44558855 -13.86743164 6.67749023 C-12.69083984 5.96351074 -12.69083984 5.96351074 -11.49047852 5.23510742 C-10.04768374 4.35718636 -8.61096866 3.46915922 -7.18188477 2.5690918 C-2.55568516 -0.23645914 -2.55568516 -0.23645914 0 0 Z " fill="#001547" transform="translate(748.008056640625,437.185791015625)"/>
<path d="M0 0 C1.75459917 2.04503623 3.17101438 3.94639884 4.625 6.1875 C5.50101658 7.47332762 6.38001719 8.75712643 7.26171875 10.0390625 C7.71208496 10.6980957 8.16245117 11.35712891 8.62646484 12.03613281 C15.31176133 21.59470462 22.98696409 30.49202673 30.57763672 39.33496094 C32.05254952 41.06151523 33.51353959 42.79914547 34.97265625 44.5390625 C40.57411059 51.19022395 46.34756916 57.48870589 52.56640625 63.56640625 C54.58389363 65.58389363 56.42935728 67.62124299 58.25 69.8125 C63.35916375 75.79156933 69.33303595 80.96684932 75.12060547 86.2734375 C76.83882786 87.85193435 78.54816306 89.43929359 80.25390625 91.03125 C85.67693553 96.07744983 91.21144803 100.93113606 96.984375 105.57421875 C99.19642216 107.35359865 101.39206839 109.14630553 103.578125 110.95703125 C123.89108322 127.73248419 145.47850929 142.71713442 167.90039062 156.53930664 C170 158 170 158 171 160 C170.3694873 160.25990723 169.73897461 160.51981445 169.08935547 160.78759766 C142.83910718 171.65025646 117.20665716 183.49995142 92.15942383 196.9152832 C90 198 90 198 87 199 C85.13745117 198.00292969 85.13745117 198.00292969 83.04296875 196.421875 C82.26719482 195.84356934 81.4914209 195.26526367 80.69213867 194.66943359 C79.86560791 194.03602051 79.03907715 193.40260742 78.1875 192.75 C77.33454346 192.10756348 76.48158691 191.46512695 75.6027832 190.80322266 C73.05920938 188.88069026 70.52799111 186.94295924 68 185 C67.32839844 184.48727539 66.65679688 183.97455078 65.96484375 183.44628906 C57.65368579 177.08940019 49.67087725 170.38869768 41.77197266 163.52929688 C39.96615328 161.97078867 38.14744722 160.42871772 36.32421875 158.890625 C30.2988119 153.79789388 24.4930251 148.64771557 18.984375 142.98828125 C17.17884161 141.17919366 15.32698943 139.52251245 13.375 137.875 C4.62724491 130.35932309 -3.70532854 121.95566719 -11.140625 113.140625 C-13.25226227 110.70958042 -15.44687224 108.36893095 -17.65161133 106.02246094 C-22.83450531 100.50402615 -27.84589883 94.92700147 -32.578125 89.01171875 C-34.42019063 86.72102101 -36.28257939 84.45823738 -38.171875 82.20703125 C-46.35519343 72.43276857 -54.06543107 62.39034813 -61.515625 52.046875 C-62.81463525 50.25560824 -64.13403115 48.48344539 -65.46875 46.71875 C-66.1184375 45.8421875 -66.768125 44.965625 -67.4375 44.0625 C-67.97246094 43.35222656 -68.50742187 42.64195312 -69.05859375 41.91015625 C-70 40 -70 40 -69.86938477 38.07446289 C-68.61549901 35.08253163 -66.86424988 34.42100386 -64.03125 32.8984375 C-62.99395752 32.33116943 -61.95666504 31.76390137 -60.88793945 31.17944336 C-59.21090942 30.2862439 -59.21090942 30.2862439 -57.5 29.375 C-55.1906532 28.11466009 -52.88206029 26.85293786 -50.57421875 25.58984375 C-49.44290527 24.9747998 -48.3115918 24.35975586 -47.14599609 23.72607422 C-43.15606563 21.53696911 -39.22492475 19.26153472 -35.3125 16.9375 C-34.34135254 16.3662439 -34.34135254 16.3662439 -33.35058594 15.78344727 C-29.28818324 13.38631276 -25.26262428 10.93416734 -21.24609375 8.4609375 C-20.25246826 7.85644775 -19.25884277 7.25195801 -18.23510742 6.62915039 C-16.28116524 5.44003746 -14.33435071 4.23911291 -12.39575195 3.02514648 C-11.06290161 2.21799194 -11.06290161 2.21799194 -9.703125 1.39453125 C-8.91583008 0.90831299 -8.12853516 0.42209473 -7.31738281 -0.07885742 C-4.40690479 -1.23575097 -2.93491574 -1.0199915 0 0 Z " fill="#001548" transform="translate(635,505)"/>
<path d="M0 0 C18.15 0 36.3 0 55 0 C55 109.23 55 218.46 55 331 C36.85 331 18.7 331 0 331 C0 221.77 0 112.54 0 0 Z " fill="#001548" transform="translate(3861,662)"/>
<path d="M0 0 C2.85563295 2.37777502 4.69231176 5.33488715 6.6875 8.42578125 C13.63158764 18.8491261 21.27721337 28.71110689 28.9375 38.61328125 C29.94150114 39.92050004 30.94541714 41.22778423 31.94921875 42.53515625 C40.68576921 53.84919242 50.10227678 64.58522852 59.7175293 75.15795898 C61.07456817 76.65886517 62.42313972 78.16755318 63.7565918 79.68945312 C70.47750705 87.31837188 77.65144003 94.47898149 84.84887695 101.6550293 C87.00262522 103.80339991 89.15095226 105.95708819 91.29882812 108.11132812 C92.68978354 109.50162293 94.08104903 110.89160761 95.47265625 112.28125 C96.418312 113.22994209 96.418312 113.22994209 97.3830719 114.19779968 C101.19602459 117.99108162 105.12468053 121.59891704 109.19778442 125.11167908 C111.4197851 127.0295564 113.58370659 129.00788692 115.75 130.98828125 C120.47274289 135.24519973 125.33932298 139.29012928 130.28759766 143.28125 C132.90257041 145.39242067 135.51029142 147.51250546 138.11865234 149.63183594 C139.50513707 150.75817611 140.89215323 151.88386253 142.27978516 153.00878906 C146.19047679 156.181412 150.07626797 159.38062187 153.9375 162.61328125 C150.27672505 166.52318266 146.49999931 169.42043036 142 172.30078125 C124.99939142 183.41342521 107.34245772 195.22790909 92.37109375 208.96875 C89.9375 210.61328125 89.9375 210.61328125 87.57421875 210.73828125 C83.66558401 209.07059709 80.87423219 206.45219362 77.75 203.61328125 C77.08798584 203.02530762 76.42597168 202.43733398 75.74389648 201.83154297 C73.79993819 200.10132325 71.86755416 198.35898125 69.9375 196.61328125 C68.97328125 195.74960937 68.0090625 194.8859375 67.015625 193.99609375 C65.37650052 192.52495408 63.74089697 191.049879 62.109375 189.5703125 C60.17702519 187.8291124 58.2209207 186.12296296 56.25 184.42578125 C44.88654546 174.46880537 34.12780895 163.90599742 23.4375 153.23828125 C22.87138 152.67474945 22.30526001 152.11121765 21.72198486 151.53060913 C16.11869248 145.94751922 10.56213417 140.36414208 5.42285156 134.34375 C3.05400761 131.58399229 0.55018168 128.95296889 -1.9375 126.30078125 C-6.42117269 121.48092048 -10.6787423 116.53824147 -14.80078125 111.40234375 C-16.80847237 108.92653812 -18.86287837 106.49947992 -20.94213867 104.08374023 C-27.37249899 96.59711905 -33.37529602 88.81847078 -39.31054688 80.93603516 C-41.12153429 78.5350131 -42.94305656 76.14223986 -44.765625 73.75 C-53.22461317 62.60610305 -61.27862145 51.23837357 -69.0625 39.61328125 C-66.28512654 36.62442857 -63.62321009 34.60277217 -60.046875 32.65234375 C-59.05469971 32.10529785 -58.06252441 31.55825195 -57.0402832 30.99462891 C-55.97511475 30.41503418 -54.90994629 29.83543945 -53.8125 29.23828125 C-51.54975834 27.99013387 -49.28806619 26.74008226 -47.02734375 25.48828125 C-46.45030197 25.16928864 -45.87326019 24.85029602 -45.2787323 24.52163696 C-39.257391 21.18472794 -33.31336366 17.7200117 -27.375 14.23828125 C-26.37919922 13.65771973 -25.38339844 13.0771582 -24.35742188 12.47900391 C-20.07962903 9.98266967 -15.8142321 7.47252721 -11.58984375 4.88671875 C-10.61374146 4.29963135 -10.61374146 4.29963135 -9.61791992 3.70068359 C-7.96243732 2.70358833 -6.31663832 1.69046111 -4.671875 0.67578125 C-2.0625 -0.38671875 -2.0625 -0.38671875 0 0 Z " fill="#001548" transform="translate(518.0625,570.38671875)"/>
<path d="M0 0 C39.70847817 13.05531115 80.45310324 19.76285364 121.8125 25 C121.8125 25.33 121.8125 25.66 121.8125 26 C121.26239258 26.03963867 120.71228516 26.07927734 120.14550781 26.12011719 C67.29355813 30.04551846 15.29518013 41.16157481 -34.9375 57.8125 C-35.67044281 58.0553775 -36.40338562 58.298255 -37.15853882 58.54849243 C-39.24770268 59.24311462 -41.33511665 59.94271945 -43.421875 60.64453125 C-44.63069336 61.05034424 -45.83951172 61.45615723 -47.08496094 61.87426758 C-50.09137394 62.86471825 -50.09137394 62.86471825 -52.29785156 64.2097168 C-57.72277879 66.47851388 -65.45154328 61.65915979 -70.5 59.625 C-71.60142334 59.18236816 -72.70284668 58.73973633 -73.83764648 58.28369141 C-90.98377326 51.31582591 -107.72458316 43.44934996 -124.1875 35 C-103.09344511 18.13087474 -68.62933093 10.40690444 -43.25 1.875 C-42.198125 1.52091064 -41.14625 1.16682129 -40.0625 0.80200195 C-24.51273131 -4.32064362 -15.57946758 -5.28212887 0 0 Z " fill="#011547" transform="translate(925.1875,717)"/>
<path d="M0 0 C1.02158203 0.24395508 2.04316406 0.48791016 3.09570312 0.73925781 C6.15064785 1.49571216 9.19410754 2.28711389 12.23596191 3.09432983 C51.79017111 13.51629698 92.34835329 19.01327891 133 23 C133 23.33 133 23.66 133 24 C131.96782349 24.11275269 131.96782349 24.11275269 130.91479492 24.2277832 C122.93757509 25.10588137 114.96662555 26.03041661 107 27 C105.74654785 27.15227051 105.74654785 27.15227051 104.46777344 27.30761719 C57.95459029 33.2071531 7.34176575 47.79678588 -33.921875 69.953125 C-40.17155563 72.0786509 -46.66514072 69.69248846 -52.70703125 67.62890625 C-53.42257675 67.39076706 -54.13812225 67.15262787 -54.87535095 66.90727234 C-57.19052215 66.13371644 -59.50158117 65.34865932 -61.8125 64.5625 C-63.41368038 64.02359483 -65.01491791 63.48485942 -66.61621094 62.94628906 C-80.51763952 58.24881822 -94.29003967 53.22986198 -108 48 C-108 47.34 -108 46.68 -108 46 C-81.27203472 30.57664955 -54.01288817 16.50963781 -25.24072266 5.28369141 C-23.01194568 4.40084454 -20.79841585 3.47882474 -18.59912109 2.52490234 C-11.82651293 -0.32884051 -7.15862525 -1.83724588 0 0 Z " fill="#011547" transform="translate(914,852)"/>
<path d="M0 0 C3.42091107 1.73337654 6.70502313 3.66470454 10 5.625 C19.64121534 11.230802 29.44759677 16.36314125 39.4375 21.3125 C40.11482178 21.64832092 40.79214355 21.98414185 41.48999023 22.33013916 C45.32260481 24.22839006 49.15939082 26.11796413 53 28 C50.59575103 30.54148309 48.47443902 32.50732263 45.33203125 34.05078125 C44.61700439 34.41123535 43.90197754 34.77168945 43.1652832 35.14306641 C42.38886475 35.52897949 41.61244629 35.91489258 40.8125 36.3125 C22.77606651 45.56870844 5.64213543 56.34491441 -11.12182617 67.72119141 C-12.94350045 68.95706312 -14.77231929 70.18249928 -16.60961914 71.39501953 C-18.07832379 72.38115622 -19.52278178 73.4062313 -20.91967773 74.49169922 C-22.62890625 75.72265625 -22.62890625 75.72265625 -26 77 C-29.31084978 76.21531724 -31.94606186 74.5409417 -34.8125 72.75 C-35.65619141 72.25363037 -36.49988281 71.75726074 -37.36914062 71.24584961 C-40.26558605 69.52784459 -43.13142772 67.76411481 -46 66 C-47.72200197 64.96571191 -49.44404278 63.93148541 -51.16764832 62.89987183 C-56.33942655 59.800003 -61.49515232 56.67262866 -66.625 53.50390625 C-67.56601562 52.92455322 -68.50703125 52.3452002 -69.4765625 51.74829102 C-71.95432978 50.03164129 -73.94620548 48.19812662 -76 46 C-60.74381211 33.91754463 -44.74674218 22.77541763 -28.26708984 12.42675781 C-26.64609181 11.40660785 -25.02973217 10.3790726 -23.41650391 9.34667969 C-20.72624762 7.62945356 -18.02162321 5.93726962 -15.3125 4.25 C-14.47460938 3.71165527 -13.63671875 3.17331055 -12.7734375 2.61865234 C-5.20982819 -2.019728 -5.20982819 -2.019728 0 0 Z " fill="#011548" transform="translate(748,783)"/>
<path d="M0 0 C5.60702175 5.26651436 9.2382817 11.79009209 9.92578125 19.4765625 C10.16943067 29.19689199 8.13915406 37.05555222 1.390625 44.28125 C-7.0805717 51.89755529 -16.03527885 53.38946922 -27.10546875 53.12109375 C-36.39560914 52.62344453 -43.01754987 48.4719684 -49.3125 41.8125 C-54.89960988 35.40082938 -56.76840182 28.84386259 -56.5625 20.36328125 C-55.87646577 13.36358822 -53.23406744 6.88567971 -48.3125 1.8125 C-34.06415869 -9.88638894 -14.93800174 -12.05670178 0 0 Z " fill="#001548" transform="translate(3911.3125,546.1875)"/>
</svg>
