<?xml version="1.0" encoding="UTF-8"?>
<svg version="1.1" xmlns="http://www.w3.org/2000/svg" width="401" height="401">
<path d="M0 0 C132.33 0 264.66 0 401 0 C401 132.33 401 264.66 401 401 C268.67 401 136.34 401 0 401 C0 268.67 0 136.34 0 0 Z " fill="#231048" transform="translate(0,0)"/>
<path d="M0 0 C0.79596588 -0.0181073 1.59193176 -0.0362146 2.41201782 -0.05487061 C5.03081651 -0.10864212 7.64909214 -0.13901244 10.26831055 -0.16455078 C11.16727743 -0.17552921 12.06624432 -0.18650764 12.99245262 -0.19781876 C17.74903297 -0.2543952 22.50535146 -0.292295 27.26220703 -0.31542969 C32.15926201 -0.34305077 37.05280074 -0.43590077 41.94865131 -0.54374504 C45.7295616 -0.61486708 49.50963739 -0.63662789 53.29115868 -0.64532852 C55.09536416 -0.65804542 56.89954278 -0.68918101 58.70308876 -0.73958969 C72.77684177 -1.10760852 72.77684177 -1.10760852 77.97201538 2.97357178 C84.47833242 10.80436025 85.67933798 16.4498604 84.8425293 26.51513672 C83.20886602 32.39632452 79.93545451 36.15188422 74.8425293 39.51513672 C66.8687378 43.48286998 58.1723647 42.97076736 49.49487305 42.94873047 C47.91264117 42.95329993 46.33041127 42.95860777 44.7481842 42.96461487 C41.44580985 42.97350932 38.14367783 42.97116367 34.84130859 42.96118164 C30.62594846 42.94967623 26.41142412 42.96994555 22.19617367 42.99909878 C18.93346418 43.01750846 15.67095346 43.01715924 12.40820503 43.01146126 C10.85458768 43.01130873 9.30095626 43.01729568 7.74738884 43.02975273 C-7.1539145 43.13245714 -7.1539145 43.13245714 -14.1574707 38.51513672 C-14.1574707 35.51513672 -14.1574707 35.51513672 -12.1574707 33.51513672 C-13.4774707 32.85513672 -14.7974707 32.19513672 -16.1574707 31.51513672 C-16.1574707 26.56513672 -16.1574707 21.61513672 -16.1574707 16.51513672 C-18.75817378 20.41619134 -19.26395084 23.85458322 -19.1574707 28.51513672 C-17.78749913 31.38660666 -17.78749913 31.38660666 -16.1574707 33.51513672 C-16.4874707 34.17513672 -16.8174707 34.83513672 -17.1574707 35.51513672 C-21.85893499 29.99091618 -22.63042073 25.68804595 -22.5949707 18.64013672 C-22.59239258 17.87838135 -22.58981445 17.11662598 -22.5871582 16.33178711 C-22.43863769 10.7963037 -22.43863769 10.7963037 -20.1574707 8.51513672 C-19.8274707 8.84513672 -19.4974707 9.17513672 -19.1574707 9.51513672 C-18.4562207 8.58701172 -17.7549707 7.65888672 -17.0324707 6.70263672 C-12.70526125 0.97544774 -6.79707244 0.05963196 0 0 Z " fill="#25134C" transform="translate(294.157470703125,191.48486328125)"/>
<path d="M0 0 C6.6 0 13.2 0 20 0 C18.68 0.99 17.36 1.98 16 3 C15.3625747 5.20554477 15.3625747 5.20554477 15.390625 7.66796875 C15.35839844 8.56064453 15.32617188 9.45332031 15.29296875 10.37304688 C15.27169922 11.76620117 15.27169922 11.76620117 15.25 13.1875 C15.22035156 14.12787109 15.19070312 15.06824219 15.16015625 16.03710938 C15.08948108 18.35761078 15.04247372 20.67881113 15 23 C19.95 23 24.9 23 30 23 C29.91318187 19.72785469 29.80632335 16.45850495 29.6875 13.1875 C29.66494141 12.25873047 29.64238281 11.32996094 29.61914062 10.37304688 C29.5659668 9.0340332 29.5659668 9.0340332 29.51171875 7.66796875 C29.47244263 6.43469849 29.47244263 6.43469849 29.43237305 5.17651367 C29.12373961 2.5679627 29.12373961 2.5679627 26 0 C44.48 0 62.96 0 82 0 C82 4.62 82 9.24 82 14 C81.34 14 80.68 14 80 14 C79.7525 12.906875 79.505 11.81375 79.25 10.6875 C77.95225775 6.85916036 77.52680737 5.76340368 74 4 C72.02 3.67 70.04 3.34 68 3 C68.33 18.51 68.66 34.02 69 50 C70.65 50.33 72.3 50.66 74 51 C74 51.33 74 51.66 74 52 C66.74 52 59.48 52 52 52 C53.32 51.01 54.64 50.02 56 49 C56.61292341 46.85705554 56.61292341 46.85705554 56.54589844 44.43676758 C56.56561707 43.51603958 56.58533569 42.59531158 56.60565186 41.64668274 C56.60688049 40.65597275 56.60810913 39.66526276 56.609375 38.64453125 C56.62591125 37.62775803 56.64244751 36.6109848 56.65948486 35.56340027 C56.70810414 32.3130396 56.72936706 29.06314722 56.75 25.8125 C56.77814797 23.6100023 56.80807373 21.40752655 56.83984375 19.20507812 C56.91386646 13.80347084 56.96542723 8.401996 57 3 C55.72125 3.268125 54.4425 3.53625 53.125 3.8125 C52.40570313 3.96332031 51.68640625 4.11414063 50.9453125 4.26953125 C48.62953451 4.92308838 48.62953451 4.92308838 47 8 C46.29835358 9.98799818 45.62627128 11.98698517 45 14 C44.67 14 44.34 14 44 14 C44 10.04 44 6.08 44 2 C43.34 2.33 42.68 2.66 42 3 C42 18.51 42 34.02 42 50 C43.32 50 44.64 50 46 50 C46 50.66 46 51.32 46 52 C39.07 52 32.14 52 25 52 C26 50 26 50 29 49 C29.33 41.74 29.66 34.48 30 27 C25.05 27 20.1 27 15 27 C15.33 34.59 15.66 42.18 16 50 C17.32 50 18.64 50 20 50 C20 50.66 20 51.32 20 52 C13.4 52 6.8 52 0 52 C0 51.34 0 50.68 0 50 C1.485 49.505 1.485 49.505 3 49 C3.07597206 42.50390094 3.12856672 36.00791615 3.16479492 29.51147461 C3.17989525 27.30081908 3.20037709 25.09019357 3.22631836 22.87963867 C3.26264655 19.70484007 3.27971384 16.53043703 3.29296875 13.35546875 C3.30845261 12.36475876 3.32393646 11.37404877 3.33988953 10.35331726 C3.34022942 8.97222527 3.34022942 8.97222527 3.34057617 7.56323242 C3.34723801 6.7527092 3.35389984 5.94218597 3.36076355 5.10710144 C3.13260805 2.55497252 3.13260805 2.55497252 0 0 Z " fill="#F3F0F5" transform="translate(186,184)"/>
<path d="M0 0 C4.12481817 -0.2740934 8.24605522 -0.47243071 12.37792969 -0.60424805 C13.77925972 -0.65922429 15.17996836 -0.73405021 16.57910156 -0.82983398 C28.1246951 -1.59981472 28.1246951 -1.59981472 32.5078125 2.1394043 C34.59577356 4.99447943 36.30336371 7.89830592 38 11 C39.18909765 12.75666507 40.39682471 14.5008992 41.625 16.23046875 C42.75169383 17.88165798 43.87671353 19.53399089 45 21.1875 C45.87591797 22.47237305 45.87591797 22.47237305 46.76953125 23.78320312 C48.1812112 25.85443846 49.59135545 27.92669968 51 30 C51.08690253 25.56262288 51.14035926 21.12546366 51.1875 16.6875 C51.21263672 15.42486328 51.23777344 14.16222656 51.26367188 12.86132812 C51.27817383 11.04858398 51.27817383 11.04858398 51.29296875 9.19921875 C51.31653442 7.52605591 51.31653442 7.52605591 51.34057617 5.8190918 C51.24983954 2.63264647 51.24983954 2.63264647 48 0 C51.96 0 55.92 0 60 0 C58.68 0.99 57.36 1.98 56 3 C55.38521012 5.30663634 55.38521012 5.30663634 55.45410156 7.93041992 C55.43438293 8.93123093 55.41466431 9.93204193 55.39434814 10.96318054 C55.39250519 12.5804882 55.39250519 12.5804882 55.390625 14.23046875 C55.37408875 15.33602615 55.35755249 16.44158356 55.34051514 17.5806427 C55.29187918 21.11631743 55.27062891 24.65156158 55.25 28.1875 C55.22185348 30.58270414 55.19192793 32.97788808 55.16015625 35.37304688 C55.08611612 41.24861934 55.03456514 47.12406993 55 53 C51.6118962 49.76542023 48.85068379 46.56890089 46.29296875 42.6484375 C45.62330078 41.63136719 44.95363281 40.61429688 44.26367188 39.56640625 C43.2359668 37.98666016 43.2359668 37.98666016 42.1875 36.375 C40.82920774 34.29791767 39.46853724 32.2223886 38.10546875 30.1484375 C37.50887451 29.23239746 36.91228027 28.31635742 36.29760742 27.37255859 C32.97936131 22.50184859 29.46645133 17.76637057 26 13 C26 25.21 26 37.42 26 50 C27.32 50 28.64 50 30 50 C30 50.66 30 51.32 30 52 C20.1 52 10.2 52 0 52 C0 51.34 0 50.68 0 50 C1.32 49.34 2.64 48.68 4 48 C4 33.48 4 18.96 4 4 C2.68 3.34 1.36 2.68 0 2 C0 1.34 0 0.68 0 0 Z " fill="#F8F5F9" transform="translate(43,184)"/>
<path d="M0 0 C0.33 -0.99 0.66 -1.98 1 -3 C7.93 -2.67 14.86 -2.34 22 -2 C21.01 -1.01 20.02 -0.02 19 1 C18.54741223 3.13155595 18.54741223 3.13155595 18.61181641 5.515625 C18.60235992 6.42666992 18.59290344 7.33771484 18.5831604 8.27636719 C18.59226944 9.74831543 18.59226944 9.74831543 18.6015625 11.25 C18.59725723 12.7644873 18.59725723 12.7644873 18.59286499 14.30957031 C18.59082312 16.44466716 18.59636154 18.57978266 18.60888672 20.71484375 C18.62493822 23.98740371 18.60904175 27.25872856 18.58984375 30.53125 C18.59182616 32.6041694 18.59566979 34.67708803 18.6015625 36.75 C18.59548981 37.73129883 18.58941711 38.71259766 18.5831604 39.72363281 C18.59261688 40.63467773 18.60207336 41.54572266 18.61181641 42.484375 C18.61539658 43.68658691 18.61539658 43.68658691 18.61904907 44.91308594 C18.87696966 47.44560294 18.87696966 47.44560294 22 50 C15.4 50 8.8 50 2 50 C3 48 3 48 6 47 C6 31.82 6 16.64 6 1 C5.01 0.67 4.02 0.34 3 0 C3 4.62 3 9.24 3 14 C2.34 14 1.68 14 1 14 C0.84144531 13.39671875 0.68289062 12.7934375 0.51953125 12.171875 C-0.60328025 8.32578034 -1.55984678 5.51560806 -4.1875 2.4375 C-8.16323499 0.40545767 -10.55496581 0.4981413 -15 1 C-17.212981 1.87870914 -17.212981 1.87870914 -18 4 C-17.88618307 8.54421567 -17.88618307 8.54421567 -15.84375 12.48046875 C-13.28326384 14.59069993 -10.49360698 16.14844538 -7.625 17.8125 C-2.08948374 21.10788585 2.06264291 24.12528581 5 30 C5.55769904 35.96308973 5.50156448 40.92876868 2 46 C-1.98430185 49.68547921 -5.03622259 51.14195803 -10.4375 51.1875 C-11.58025391 51.20876953 -11.58025391 51.20876953 -12.74609375 51.23046875 C-15.25027798 50.97440832 -16.77049965 50.12139879 -19 49 C-20.32 49 -21.64 49 -23 49 C-23.33 49.66 -23.66 50.32 -24 51 C-24.66 51 -25.32 51 -26 51 C-26 44.73 -26 38.46 -26 32 C-25.34 32 -24.68 32 -24 32 C-23.73445313 32.67546875 -23.46890625 33.3509375 -23.1953125 34.046875 C-22.84210938 34.93890625 -22.48890625 35.8309375 -22.125 36.75 C-21.77695313 37.63171875 -21.42890625 38.5134375 -21.0703125 39.421875 C-20.71710938 40.27265625 -20.36390625 41.1234375 -20 42 C-19.56300781 43.12148437 -19.56300781 43.12148437 -19.1171875 44.265625 C-18.14014221 46.14673273 -18.14014221 46.14673273 -16.171875 46.74609375 C-13.83991202 47.01871532 -11.59766571 47.0970245 -9.25 47.0625 C-8.45078125 47.05347656 -7.6515625 47.04445312 -6.828125 47.03515625 C-6.22484375 47.02355469 -5.6215625 47.01195312 -5 47 C-4.10183246 44.30549738 -3.74782637 42.36388595 -3.625 39.5625 C-3.57601562 38.80066406 -3.52703125 38.03882813 -3.4765625 37.25390625 C-4.81296504 31.4993968 -13.47022447 28.07248057 -18.16015625 25.09765625 C-21.77165281 22.43001711 -24.38734267 19.95603617 -25.75 15.60546875 C-26.38961899 9.41915382 -25.79362055 5.05412067 -22 0 C-15.61510477 -5.83761849 -7.06613888 -3.08340606 0 0 Z " fill="#F6F3F7" transform="translate(126,186)"/>
<path d="M0 0 C0.59296875 0.31710938 1.1859375 0.63421875 1.796875 0.9609375 C4.10484501 0.62153014 5.71197961 0.00338519 7.796875 -1.0390625 C7.796875 4.5709375 7.796875 10.1809375 7.796875 15.9609375 C4.44034833 14.28267416 3.63211877 10.61765983 2.11328125 7.30859375 C0.87621899 4.68562375 0.87621899 4.68562375 -2.203125 2.9609375 C-5.2726641 2.42390948 -8.12952409 2.4542388 -11.203125 2.9609375 C-14.97927105 5.67201671 -15.58734249 8.96579721 -16.453125 13.3359375 C-17.96533522 24.42547908 -18.56960592 36.41310088 -14.203125 46.9609375 C-10.5589476 49.3903891 -8.49071228 49.12273325 -4.203125 48.9609375 C-4.09519663 46.35566645 -4.01587622 43.75485439 -3.953125 41.1484375 C-3.91960937 40.41044922 -3.88609375 39.67246094 -3.8515625 38.91210938 C-3.76414406 36.4763719 -3.76414406 36.4763719 -4.203125 32.9609375 C-5.523125 31.9709375 -6.843125 30.9809375 -8.203125 29.9609375 C-1.603125 29.9609375 4.996875 29.9609375 11.796875 29.9609375 C10.806875 30.9509375 9.816875 31.9409375 8.796875 32.9609375 C8.42012982 35.75345333 8.19495559 38.34872951 8.109375 41.1484375 C8.07521484 41.89802734 8.04105469 42.64761719 8.00585938 43.41992188 C7.92353206 45.26640588 7.85852219 47.11364744 7.796875 48.9609375 C0.37146404 53.16116996 -6.94584836 54.44262414 -15.34765625 52.453125 C-21.3876614 50.16344985 -25.31925705 45.58448001 -28.203125 39.9609375 C-30.56254159 31.99496619 -30.79478404 20.46138608 -27.578125 12.7734375 C-22.00724309 2.78900478 -11.9824565 -5.65130041 0 0 Z " fill="#F7F5F8" transform="translate(176.203125,184.0390625)"/>
<path d="M0 0 C10.23 0 20.46 0 31 0 C31 4.62 31 9.24 31 14 C30.34 14 29.68 14 29 14 C28.7525 12.906875 28.505 11.81375 28.25 10.6875 C26.95225775 6.85916036 26.52680737 5.76340368 23 4 C20.03 3.505 20.03 3.505 17 3 C17.33 18.51 17.66 34.02 18 50 C19.65 50.33 21.3 50.66 23 51 C23 51.33 23 51.66 23 52 C15.74 52 8.48 52 1 52 C2.65 50.68 4.3 49.36 6 48 C6.74867168 45.76643561 6.74867168 45.76643561 6.65942383 43.32324219 C6.67906693 42.40258972 6.69871002 41.48193726 6.71894836 40.53338623 C6.71304939 39.05506317 6.71304939 39.05506317 6.70703125 37.546875 C6.72215256 36.53151672 6.73727386 35.51615845 6.75285339 34.47003174 C6.79581117 31.22979667 6.80457645 27.99049174 6.8125 24.75 C6.83563793 22.55205846 6.86100179 20.35413915 6.88867188 18.15625 C6.95160366 12.7708246 6.98647393 7.38576385 7 2 C4.36 2 1.72 2 -1 2 C-0.67 1.34 -0.34 0.68 0 0 Z " fill="#FCFBFC" transform="translate(237,184)"/>
<path d="M0 0 C6.6 0 13.2 0 20 0 C18.68 0.99 17.36 1.98 16 3 C15.41920178 5.2753275 15.41920178 5.2753275 15.5390625 7.81640625 C15.54292969 8.74517578 15.54679688 9.67394531 15.55078125 10.63085938 C15.57527344 11.59830078 15.59976563 12.56574219 15.625 13.5625 C15.62693359 15.01946289 15.62693359 15.01946289 15.62890625 16.50585938 C15.37566062 21.7926493 15.37566062 21.7926493 18 26 C17.01 26 16.02 26 15 26 C15.33 33.92 15.66 41.84 16 50 C17.32 50 18.64 50 20 50 C20 50.66 20 51.32 20 52 C13.4 52 6.8 52 0 52 C0 51.34 0 50.68 0 50 C1.485 49.505 1.485 49.505 3 49 C3.07597206 42.50390094 3.12856672 36.00791615 3.16479492 29.51147461 C3.17989525 27.30081908 3.20037709 25.09019357 3.22631836 22.87963867 C3.26264655 19.70484007 3.27971384 16.53043703 3.29296875 13.35546875 C3.30845261 12.36475876 3.32393646 11.37404877 3.33988953 10.35331726 C3.34022942 8.97222527 3.34022942 8.97222527 3.34057617 7.56323242 C3.34723801 6.7527092 3.35389984 5.94218597 3.36076355 5.10710144 C3.13260805 2.55497252 3.13260805 2.55497252 0 0 Z " fill="#F4F2F6" transform="translate(186,184)"/>
<path d="M0 0 C5.28 0 10.56 0 16 0 C15.01 0.99 14.02 1.98 13 3 C12.54741223 5.13155595 12.54741223 5.13155595 12.61181641 7.515625 C12.60235992 8.42666992 12.59290344 9.33771484 12.5831604 10.27636719 C12.59226944 11.74831543 12.59226944 11.74831543 12.6015625 13.25 C12.59869232 14.2596582 12.59582214 15.26931641 12.59286499 16.30957031 C12.59082312 18.44466716 12.59636154 20.57978266 12.60888672 22.71484375 C12.62493822 25.98740371 12.60904175 29.25872856 12.58984375 32.53125 C12.59182616 34.6041694 12.59566979 36.67708803 12.6015625 38.75 C12.59548981 39.73129883 12.58941711 40.71259766 12.5831604 41.72363281 C12.59734512 43.0902002 12.59734512 43.0902002 12.61181641 44.484375 C12.61420319 45.28584961 12.61658997 46.08732422 12.61904907 46.91308594 C12.87696966 49.44560294 12.87696966 49.44560294 16 52 C9.4 52 2.8 52 -4 52 C-3 50 -3 50 0 49 C0 32.83 0 16.66 0 0 Z " fill="#F6F3F7" transform="translate(132,184)"/>
<path d="M0 0 C-0.763125 0.515625 -1.52625 1.03125 -2.3125 1.5625 C-5.43112693 4.3910221 -7.12620148 6.9171184 -8 11 C-8.18403131 15.71120144 -7.97006852 19.49100453 -5.3828125 23.515625 C-2.51211624 26.50867881 0.52869901 28.49664634 4.0625 30.625 C12.29360122 35.65370167 12.29360122 35.65370167 14 38 C14.86106961 42.21225944 14.68195258 45.88159776 12.4375 49.5625 C9.09615597 51.53303623 6.82002825 51.40928874 3 51 C-1.8587697 49.13053051 -3.77398598 45.51897583 -6 41 C-6.8125 37.5 -6.8125 37.5 -7 35 C-7.66 35 -8.32 35 -9 35 C-9 40.61 -9 46.22 -9 52 C-9.99 52.495 -9.99 52.495 -11 53 C-11.05058729 46.05829978 -11.08568579 39.11664685 -11.10986328 32.17480469 C-11.11993924 29.81183089 -11.13360029 27.44886961 -11.15087891 25.0859375 C-11.17505724 21.69528112 -11.18646699 18.30478916 -11.1953125 14.9140625 C-11.20563507 13.85256989 -11.21595764 12.79107727 -11.22659302 11.69741821 C-11.22674408 10.71655243 -11.22689514 9.73568665 -11.22705078 8.72509766 C-11.23371262 7.42603989 -11.23371262 7.42603989 -11.24050903 6.10073853 C-11 4 -11 4 -9 2 C-11.97 1.67 -14.94 1.34 -18 1 C-18 0.67 -18 0.34 -18 0 C-5.33029613 -1.33257403 -5.33029613 -1.33257403 0 0 Z " fill="#231443" transform="translate(109,183)"/>
<path d="M0 0 C4.62 0 9.24 0 14 0 C14.95471816 2.86415447 15.12651891 4.65130012 15.12939453 7.62329102 C15.13254669 8.55758438 15.13569885 9.49187775 15.13894653 10.45448303 C15.1369223 11.46079269 15.13489807 12.46710236 15.1328125 13.50390625 C15.13376923 14.53813217 15.13472595 15.57235809 15.13571167 16.63792419 C15.13639228 18.82429058 15.1345463 21.01065898 15.13037109 23.19702148 C15.12501577 26.5526175 15.13032293 29.90808 15.13671875 33.26367188 C15.13605805 35.38541696 15.13477707 37.50716197 15.1328125 39.62890625 C15.13483673 40.63724014 15.13686096 41.64557404 15.13894653 42.6844635 C15.13579437 43.61560471 15.13264221 44.54674591 15.12939453 45.50610352 C15.12820114 46.73829369 15.12820114 46.73829369 15.12698364 47.99537659 C15 50 15 50 14 52 C9.38 52 4.76 52 0 52 C0 51.34 0 50.68 0 50 C1.32 49.34 2.64 48.68 4 48 C4 33.48 4 18.96 4 4 C2.68 3.34 1.36 2.68 0 2 C0 1.34 0 0.68 0 0 Z " fill="#FCFBFC" transform="translate(43,184)"/>
<path d="M0 0 C3.96 0 7.92 0 12 0 C10.68 0.99 9.36 1.98 8 3 C7.38521012 5.30663634 7.38521012 5.30663634 7.45410156 7.93041992 C7.42452362 9.43163643 7.42452362 9.43163643 7.39434814 10.96318054 C7.39250519 12.5804882 7.39250519 12.5804882 7.390625 14.23046875 C7.37408875 15.33602615 7.35755249 16.44158356 7.34051514 17.5806427 C7.29187918 21.11631743 7.27062891 24.65156158 7.25 28.1875 C7.22185348 30.58270414 7.19192793 32.97788808 7.16015625 35.37304688 C7.08611612 41.24861934 7.03456514 47.12406993 7 53 C2.34089355 48.48993727 -1.22491439 43.70477102 -4.875 38.375 C-5.48085937 37.51648438 -6.08671875 36.65796875 -6.7109375 35.7734375 C-7.278125 34.9484375 -7.8453125 34.1234375 -8.4296875 33.2734375 C-8.94772949 32.52497559 -9.46577148 31.77651367 -9.99951172 31.00537109 C-11 29 -11 29 -10 26 C-7.5625 23.3125 -7.5625 23.3125 -5 21 C-4.34 21 -3.68 21 -3 21 C-1.4921875 22.96875 -1.4921875 22.96875 0.125 25.5 C0.93324219 26.75296875 0.93324219 26.75296875 1.7578125 28.03125 C2.16773437 28.6809375 2.57765625 29.330625 3 30 C3.08690253 25.56262288 3.14035926 21.12546366 3.1875 16.6875 C3.21263672 15.42486328 3.23777344 14.16222656 3.26367188 12.86132812 C3.27333984 11.65283203 3.28300781 10.44433594 3.29296875 9.19921875 C3.3086792 8.08377686 3.32438965 6.96833496 3.34057617 5.8190918 C3.24983954 2.63264647 3.24983954 2.63264647 0 0 Z " fill="#F1EEF4" transform="translate(91,184)"/>
<path d="M0 0 C1.51223648 0.00666183 1.51223648 0.00666183 3.05502319 0.01345825 C4.19605499 0.01360931 5.33708679 0.01376038 6.51269531 0.01391602 C8.36741959 0.02939987 8.36741959 0.02939987 10.25961304 0.04519653 C12.15313004 0.04944138 12.15313004 0.04944138 14.0848999 0.05377197 C17.44201998 0.06308772 20.79886965 0.08106068 24.15591431 0.10317993 C27.58108176 0.12363353 31.00627713 0.13277264 34.43148804 0.14285278 C41.15291724 0.16494445 47.87421827 0.19844527 54.59555054 0.24050903 C54.59555054 0.57050903 54.59555054 0.90050903 54.59555054 1.24050903 C37.10555054 1.57050903 19.61555054 1.90050903 1.59555054 2.24050903 C2.25555054 2.90050903 2.91555054 3.56050903 3.59555054 4.24050903 C3.82260132 6.30349731 3.82260132 6.30349731 3.79086304 8.81082153 C3.78119507 10.15466919 3.78119507 10.15466919 3.77133179 11.52566528 C3.75457397 12.46281372 3.73781616 13.39996216 3.72055054 14.36550903 C3.7115271 15.31039185 3.70250366 16.25527466 3.69320679 17.22879028 C3.66959722 19.5661373 3.63372547 21.90335453 3.59555054 24.24050903 C-1.35444946 24.24050903 -6.30444946 24.24050903 -11.40444946 24.24050903 C-11.45821887 20.94862635 -11.49801053 17.65761478 -11.52944946 14.36550903 C-11.54620728 13.4283606 -11.56296509 12.49121216 -11.58023071 11.52566528 C-11.58989868 10.18181763 -11.58989868 10.18181763 -11.59976196 8.81082153 C-11.6102356 7.98340454 -11.62070923 7.15598755 -11.63150024 6.30349731 C-11.40444946 4.24050903 -11.40444946 4.24050903 -9.40444946 2.24050903 C-8.41444946 2.24050903 -7.42444946 2.24050903 -6.40444946 2.24050903 C-5.41444946 3.72550903 -5.41444946 3.72550903 -4.40444946 5.24050903 C-3.74444946 5.24050903 -3.08444946 5.24050903 -2.40444946 5.24050903 C-2.40444946 4.58050903 -2.40444946 3.92050903 -2.40444946 3.24050903 C-3.06444946 2.91050903 -3.72444946 2.58050903 -4.40444946 2.24050903 C-2.40444946 0.24050903 -2.40444946 0.24050903 0 0 Z " fill="#231148" transform="translate(212.40444946289063,182.75949096679688)"/>
<path d="M0 0 C1.9375 0.25 1.9375 0.25 4 1 C6.06907114 4.1036067 6.24955688 4.75926469 6.24291992 8.27197266 C6.24599655 9.12941071 6.24907318 9.98684875 6.25224304 10.87026978 C6.24505753 11.79222137 6.23787201 12.71417297 6.23046875 13.6640625 C6.23001053 14.61187592 6.22955231 15.55968933 6.2290802 16.53622437 C6.22605981 18.53848524 6.21817988 20.5407438 6.20581055 22.54296875 C6.18753044 25.61987558 6.18530103 28.69648199 6.18554688 31.7734375 C6.1806326 33.71614845 6.17480467 35.65885736 6.16796875 37.6015625 C6.16685593 38.52756256 6.1657431 39.45356262 6.16459656 40.40762329 C6.15821671 41.25875702 6.15183685 42.10989075 6.14526367 42.98681641 C6.14145187 43.73943756 6.13764008 44.49205872 6.13371277 45.26748657 C6 47 6 47 5 48 C3.33382885 48.04063832 1.66611905 48.042721 0 48 C-1.17210616 45.65578767 -1.12677084 44.26967765 -1.12939453 41.65795898 C-1.13254669 40.7604039 -1.13569885 39.86284882 -1.13894653 38.93809509 C-1.13591019 37.48180443 -1.13591019 37.48180443 -1.1328125 35.99609375 C-1.13376923 35.0024733 -1.13472595 34.00885284 -1.13571167 32.98512268 C-1.13639286 30.88274065 -1.1345428 28.78035652 -1.13037109 26.67797852 C-1.12501638 23.44738072 -1.13032105 20.21692161 -1.13671875 16.98632812 C-1.13605807 14.94791636 -1.13477711 12.90950468 -1.1328125 10.87109375 C-1.13483673 9.89820908 -1.13686096 8.9253244 -1.13894653 7.92295837 C-1.13579437 7.02855545 -1.13264221 6.13415253 -1.12939453 5.21264648 C-1.12859894 4.42147934 -1.12780334 3.63031219 -1.12698364 2.81517029 C-1 1 -1 1 0 0 Z " fill="#221044" transform="translate(59,186)"/>
<path d="M0 0 C3.3 0 6.6 0 10 0 C9.67 0.99 9.34 1.98 9 3 C7.68 2.67 6.36 2.34 5 2 C5 3.32 5 4.64 5 6 C6.32 6.33 7.64 6.66 9 7 C7.68 7 6.36 7 5 7 C5 8.65 5 10.3 5 12 C6.3303125 11.443125 6.3303125 11.443125 7.6875 10.875 C11.40826005 9.89215772 12.67438135 10.23937836 16 12 C15.30788391 8.90041737 15.30788391 8.90041737 12.9375 7.625 C11 6 11 6 10.6875 3.375 C11 1 11 1 12 0 C14.31074168 -0.09932392 16.62462942 -0.12969618 18.9375 -0.125 C20.20464844 -0.12757813 21.47179687 -0.13015625 22.77734375 -0.1328125 C26 0 26 0 28 1 C28 2.32 28 3.64 28 5 C28.639375 5.226875 29.27875 5.45375 29.9375 5.6875 C32 7 32 7 32.8125 9.5625 C32.874375 10.366875 32.93625 11.17125 33 12 C32 13 32 13 28.9375 13.0625 C27.968125 13.041875 26.99875 13.02125 26 13 C26.33 11.68 26.66 10.36 27 9 C27 9.99 27 10.98 27 12 C28.32 12 29.64 12 31 12 C30.3503125 10.9171875 30.3503125 10.9171875 29.6875 9.8125 C28.58264565 7.97107609 27.49836092 6.11711522 26.4375 4.25 C25.19737444 1.88495578 25.19737444 1.88495578 23 1 C23 4.96 23 8.92 23 13 C22.01 12.67 21.02 12.34 20 12 C20.33 8.7 20.66 5.4 21 2 C19.35 2.66 17.7 3.32 16 4 C15.67 3.34 15.34 2.68 15 2 C14.34 2 13.68 2 13 2 C13.75150023 5.27773504 13.75150023 5.27773504 17 7 C17 8.98 17 10.96 17 13 C12.38 13 7.76 13 3 13 C2.67 9.37 2.34 5.74 2 2 C1.34 3.98 0.68 5.96 0 8 C-1.08174162 4.63458162 -0.92538169 3.70152678 0 0 Z " fill="#C9BCDC" transform="translate(320,203)"/>
<path d="M0 0 C10.4050681 -0.25549322 20.80938385 -0.45062863 31.21695614 -0.56993389 C36.05047246 -0.62721337 40.88183481 -0.70481895 45.71411133 -0.82983398 C50.3827414 -0.94985175 55.04930805 -1.01522419 59.71936226 -1.04364967 C61.49575853 -1.06388939 63.27204861 -1.10341868 65.04755974 -1.16303062 C78.95244129 -1.61107506 78.95244129 -1.61107506 84.11599731 2.45175171 C90.6180844 10.27980409 91.85964291 15.93157965 91 26 C89.50635406 30.94528372 86.93131737 34.6302994 83 38 C82.34 37.67 81.68 37.34 81 37 C82.28062485 35.2925002 83.61767557 33.62626404 85 32 C85.66 32 86.32 32 87 32 C89.10240549 25.82418388 90.44603279 19.86643102 88.08984375 13.56640625 C84.94634782 7.41081454 81.63184896 4.21061632 75 2 C72.58305476 1.88079838 70.19262565 1.81483143 67.7746582 1.79467773 C67.04270233 1.78477814 66.31074646 1.77487854 65.55661011 1.76467896 C63.13803335 1.73309989 60.71943696 1.70832077 58.30078125 1.68359375 C56.62354523 1.66302112 54.94631436 1.64202456 53.26908875 1.62062073 C48.85505341 1.56543199 44.44097154 1.51600861 40.02685547 1.46777344 C35.52241881 1.41753507 31.01804972 1.36186119 26.51367188 1.30664062 C17.67583898 1.19909817 8.83794741 1.09764449 0 1 C0 0.67 0 0.34 0 0 Z " fill="#57468B" transform="translate(288,192)"/>
<path d="M0 0 C0.9384375 -0.00515625 1.876875 -0.0103125 2.84375 -0.015625 C5.56025505 0.25602551 7.1291244 0.97138368 9.5 2.25 C11.80797001 1.91059264 13.41510461 1.29244769 15.5 0.25 C15.5 5.86 15.5 11.47 15.5 17.25 C12.14347333 15.57173666 11.33524377 11.90672233 9.81640625 8.59765625 C8.57934399 5.97468625 8.57934399 5.97468625 5.5 4.25 C3.31813053 3.9342006 3.31813053 3.9342006 1 4 C0.2265625 3.99484375 -0.546875 3.9896875 -1.34375 3.984375 C-3.79513844 4.12261938 -3.79513844 4.12261938 -6.5 6.25 C-6.83 5.59 -7.16 4.93 -7.5 4.25 C-8.11875 4.745 -8.7375 5.24 -9.375 5.75 C-11.5 7.25 -11.5 7.25 -13.5 7.25 C-13.768125 7.86875 -14.03625 8.4875 -14.3125 9.125 C-15.5 11.25 -15.5 11.25 -18.5 13.25 C-16.9560837 7.4174273 -12.57288341 4.1434572 -7.6171875 1.08984375 C-4.97404263 0.04136377 -2.83824462 -0.01559475 0 0 Z " fill="#EFE7F5" transform="translate(168.5,182.75)"/>
<path d="M0 0 C1.34061543 0.30271961 2.67405895 0.63837971 4 1 C4.66 1 5.32 1 6 1 C7.34882408 1.63474075 8.6846659 2.29848848 10 3 C8.14453125 5.44140625 8.14453125 5.44140625 6.2890625 7.8828125 C2.8906645 13.46442376 2.71381584 18.73113185 2.8125 25.0625 C2.81314453 25.85205078 2.81378906 26.64160156 2.81445312 27.45507812 C2.84442684 31.42826071 3.02486429 35.12286042 4 39 C3.01 39.495 3.01 39.495 2 40 C0.91534997 36.74604992 0.71733072 33.98157794 0.5 30.5625 C0.2760507 26.28084959 0.2760507 26.28084959 -0.50927734 22.08642578 C-1.04215829 19.82075384 -1.12939991 17.8139588 -1.1328125 15.48828125 C-1.13410156 14.64845703 -1.13539063 13.80863281 -1.13671875 12.94335938 C-1.13285156 12.07517578 -1.12898437 11.20699219 -1.125 10.3125 C-1.12886719 9.43271484 -1.13273438 8.55292969 -1.13671875 7.64648438 C-1.13542969 6.81052734 -1.13414062 5.97457031 -1.1328125 5.11328125 C-1.13168457 4.34798096 -1.13055664 3.58268066 -1.12939453 2.79418945 C-1 1 -1 1 0 0 Z " fill="#241543" transform="translate(145,186)"/>
<path d="M0 0 C0.48192771 7.22891566 0.48192771 7.22891566 -1.5625 10.5 C-4.9238388 12.56851618 -7.11959911 12.48505011 -11 12 C-13.4375 10.5 -13.4375 10.5 -15 9 C-14.34 9 -13.68 9 -13 9 C-12.67 7.02 -12.34 5.04 -12 3 C-11.34 3 -10.68 3 -10 3 C-10 2.01 -10 1.02 -10 0 C-6.30581799 -1.231394 -3.7943739 -0.64432764 0 0 Z " fill="#241448" transform="translate(123,222)"/>
<path d="M0 0 C1.9375 0.1875 1.9375 0.1875 4 1 C5.25 3.0625 5.25 3.0625 6 5 C5.34 5.66 4.68 6.32 4 7 C4 6.34 4 5.68 4 5 C3.01 5.495 3.01 5.495 2 6 C2 18.87 2 31.74 2 45 C3.32 45.66 4.64 46.32 6 47 C5 48 5 48 2.4375 48.0625 C1.633125 48.041875 0.82875 48.02125 0 48 C-1.17210616 45.65578767 -1.12677084 44.26967765 -1.12939453 41.65795898 C-1.13254669 40.7604039 -1.13569885 39.86284882 -1.13894653 38.93809509 C-1.13591019 37.48180443 -1.13591019 37.48180443 -1.1328125 35.99609375 C-1.13376923 35.0024733 -1.13472595 34.00885284 -1.13571167 32.98512268 C-1.13639286 30.88274065 -1.1345428 28.78035652 -1.13037109 26.67797852 C-1.12501638 23.44738072 -1.13032105 20.21692161 -1.13671875 16.98632812 C-1.13605807 14.94791636 -1.13477711 12.90950468 -1.1328125 10.87109375 C-1.13483673 9.89820908 -1.13686096 8.9253244 -1.13894653 7.92295837 C-1.13579437 7.02855545 -1.13264221 6.13415253 -1.12939453 5.21264648 C-1.12859894 4.42147934 -1.12780334 3.63031219 -1.12698364 2.81517029 C-1 1 -1 1 0 0 Z " fill="#2F2345" transform="translate(59,186)"/>
<path d="M0 0 C1.32 0.33 2.64 0.66 4 1 C4.04941382 6.35683849 4.08572607 11.7135445 4.10986328 17.07055664 C4.11992491 18.89317129 4.1335756 20.71576979 4.15087891 22.53833008 C4.17512021 25.15710435 4.18648138 27.77566531 4.1953125 30.39453125 C4.20563507 31.21025101 4.21595764 32.02597076 4.22659302 32.8664093 C4.2273686 36.77130756 4.21650661 38.67524008 2 42 C2.01160156 40.85660156 2.02320313 39.71320313 2.03515625 38.53515625 C2.04453288 37.04427246 2.05363321 35.55338691 2.0625 34.0625 C2.07087891 33.30775391 2.07925781 32.55300781 2.08789062 31.77539062 C2.09652441 29.85005687 2.05224333 27.92464419 2 26 C1.67 25.67 1.34 25.34 1 25 C-0.29938669 16.73846736 -0.10951775 8.3355177 0 0 Z " fill="#201536" transform="translate(129,186)"/>
<path d="M0 0 C6.45892714 -0.40368295 11.06108578 0.4084738 17 3 C17.33 2.01 17.66 1.02 18 0 C19.98 0.66 21.96 1.32 24 2 C23.67 2.66 23.34 3.32 23 4 C22.01 3.67 21.02 3.34 20 3 C20 7.62 20 12.24 20 17 C19.34 17 18.68 17 18 17 C17.84144531 16.39671875 17.68289062 15.7934375 17.51953125 15.171875 C16.39671975 11.32578034 15.44015322 8.51560806 12.8125 5.4375 C8.8660395 3.42042019 6.41344292 3.57289262 2 4 C1.01 4.66 0.02 5.32 -1 6 C-0.67 4.02 -0.34 2.04 0 0 Z " fill="#E4DCEB" transform="translate(109,183)"/>
<path d="M0 0 C2.31 0 4.62 0 7 0 C7.33 2.64 7.66 5.28 8 8 C8.66 8 9.32 8 10 8 C9.67 9.65 9.34 11.3 9 13 C5.893533 9.893533 5.30910218 6.16532512 4 2 C3.67 5.63 3.34 9.26 3 13 C2.34 13 1.68 13 1 13 C-0.2890625 11.25 -0.2890625 11.25 -1.625 9 C-2.07101562 8.2575 -2.51703125 7.515 -2.9765625 6.75 C-3.31429688 6.1725 -3.65203125 5.595 -4 5 C-4 7.64 -4 10.28 -4 13 C-5.98 13 -7.96 13 -10 13 C-10 9.04 -10 5.08 -10 1 C-9.34 1 -8.68 1 -8 1 C-8 4.63 -8 8.26 -8 12 C-7.34 12 -6.68 12 -6 12 C-6 8.37 -6 4.74 -6 1 C-2 3 -2 3 0 6 C0 4.02 0 2.04 0 0 Z " fill="#CEC3DD" transform="translate(309,203)"/>
<path d="M0 0 C0 0.66 0 1.32 0 2 C-0.83144531 2.31130859 -0.83144531 2.31130859 -1.6796875 2.62890625 C-6.55862307 4.66240912 -6.55862307 4.66240912 -9.3125 9 C-9.54892713 10.33206507 -9.77681724 11.665652 -10 13 C-10.55813037 15.04286552 -11.12095934 17.08445088 -11.6875 19.125 C-13.38205389 25.30891706 -12.49110992 29.18741019 -10 35 C-14.07256967 31.19893497 -16.06581348 28.58111383 -16.265625 22.9609375 C-16.27091443 21.43229195 -16.26538836 19.90357725 -16.25 18.375 C-16.26160156 17.21097656 -16.26160156 17.21097656 -16.2734375 16.0234375 C-16.25340266 10.25340266 -16.25340266 10.25340266 -14 8 C-13.67 8.33 -13.34 8.66 -13 9 C-12.29875 8.071875 -11.5975 7.14375 -10.875 6.1875 C-8.04464075 2.77655423 -4.63122232 0 0 0 Z " fill="#2E1D6A" transform="translate(288,192)"/>
<path d="M0 0 C0.66 0 1.32 0 2 0 C2.26554687 0.67546875 2.53109375 1.3509375 2.8046875 2.046875 C3.33449219 3.38492188 3.33449219 3.38492188 3.875 4.75 C4.22304687 5.63171875 4.57109375 6.5134375 4.9296875 7.421875 C5.28289062 8.27265625 5.63609375 9.1234375 6 10 C6.2784375 10.7425 6.556875 11.485 6.84375 12.25 C7.88639564 14.19726782 7.88639564 14.19726782 10.1640625 14.828125 C10.97617188 14.96734375 11.78828125 15.1065625 12.625 15.25 C13.44226563 15.39953125 14.25953125 15.5490625 15.1015625 15.703125 C15.72804688 15.80109375 16.35453125 15.8990625 17 16 C15.375 17.625 15.375 17.625 13 19 C10 18.1875 10 18.1875 7 17 C5.68 17 4.36 17 3 17 C2.67 17.66 2.34 18.32 2 19 C1.34 19 0.68 19 0 19 C0 12.73 0 6.46 0 0 Z " fill="#E5DEEA" transform="translate(100,218)"/>
<path d="M0 0 C0.66 0.33 1.32 0.66 2 1 C3.65 1.33 5.3 1.66 7 2 C7 17.18 7 32.36 7 48 C6.67 48 6.34 48 6 48 C6 33.15 6 18.3 6 3 C-1.82062059 4.00220202 -1.82062059 4.00220202 -4 8 C-4.70164642 9.98799818 -5.37372872 11.98698517 -6 14 C-6.33 14 -6.66 14 -7 14 C-7.33 9.71 -7.66 5.42 -8 1 C-5.26094655 -0.36952673 -3.02912668 -0.12621361 0 0 Z " fill="#C9C2D6" transform="translate(237,184)"/>
<path d="M0 0 C-0.763125 0.515625 -1.52625 1.03125 -2.3125 1.5625 C-5.61575607 4.55847644 -6.48625726 6.85712514 -8 11 C-8.33 11 -8.66 11 -9 11 C-9.33 24.86 -9.66 38.72 -10 53 C-10.33 53 -10.66 53 -11 53 C-11.05058729 46.05829978 -11.08568579 39.11664685 -11.10986328 32.17480469 C-11.11993924 29.81183089 -11.13360029 27.44886961 -11.15087891 25.0859375 C-11.17505724 21.69528112 -11.18646699 18.30478916 -11.1953125 14.9140625 C-11.20563507 13.85256989 -11.21595764 12.79107727 -11.22659302 11.69741821 C-11.22674408 10.71655243 -11.22689514 9.73568665 -11.22705078 8.72509766 C-11.23371262 7.42603989 -11.23371262 7.42603989 -11.24050903 6.10073853 C-11 4 -11 4 -9 2 C-11.97 1.67 -14.94 1.34 -18 1 C-18 0.67 -18 0.34 -18 0 C-5.33029613 -1.33257403 -5.33029613 -1.33257403 0 0 Z " fill="#4D4460" transform="translate(109,183)"/>
<path d="M0 0 C0.66 0 1.32 0 2 0 C2 13.2 2 26.4 2 40 C2.66 40 3.32 40 4 40 C4.33 41.65 4.66 43.3 5 45 C6.32 45 7.64 45 9 45 C9 45.66 9 46.32 9 47 C3.72 47 -1.56 47 -7 47 C-7 44.36 -7 41.72 -7 39 C-5 42.75 -5 42.75 -5 45 C-2.525 44.505 -2.525 44.505 0 44 C0 29.48 0 14.96 0 0 Z " fill="#D8D1E3" transform="translate(64,189)"/>
<path d="M0 0 C3.96 0 7.92 0 12 0 C10.68 0.99 9.36 1.98 8 3 C7.57285919 5.56494618 7.3952377 7.72322205 7.390625 10.29296875 C7.37408875 10.99899734 7.35755249 11.70502594 7.34051514 12.43244934 C7.29198712 14.68422092 7.27065562 16.93531709 7.25 19.1875 C7.22184401 20.71552886 7.19191709 22.24352619 7.16015625 23.77148438 C7.08622806 27.51426728 7.03668377 31.25667424 7 35 C4.21747651 32.21747651 4.74624017 30.4929549 4.7265625 26.6015625 C4.7059375 25.31765625 4.6853125 24.03375 4.6640625 22.7109375 C4.64148202 20.66789476 4.62500055 18.62519295 4.61914062 16.58203125 C4.60960091 14.60921748 4.57463894 12.63657853 4.5390625 10.6640625 C4.53084473 9.48279785 4.52262695 8.3015332 4.51416016 7.08447266 C4.21350359 3.43854718 4.21350359 3.43854718 0 0 Z " fill="#FEF8FF" transform="translate(91,184)"/>
<path d="M0 0 C0.33 0.66 0.66 1.32 1 2 C2.97888961 2.72693904 4.97954558 3.39816251 7 4 C5.64844718 8.42326378 3.80109562 10.40412982 0 13 C-3.47325181 14.1577506 -6.36067448 14.06866652 -10 14 C-10.33 13.34 -10.66 12.68 -11 12 C-8.03 11.34 -5.06 10.68 -2 10 C-1.34 6.7 -0.68 3.4 0 0 Z " fill="#EBE6EF" transform="translate(123,223)"/>
<path d="M0 0 C1.98 0 3.96 0 6 0 C6.268125 0.78375 6.53625 1.5675 6.8125 2.375 C7.84814432 5.28114923 7.84814432 5.28114923 11 7 C11 7.99 11 8.98 11 10 C10.113125 9.814375 9.22625 9.62875 8.3125 9.4375 C5.14821189 9.01957516 3.05160358 9.19222258 0 10 C0 6.7 0 3.4 0 0 Z " fill="#33274D" transform="translate(325,205)"/>
<path d="M0 0 C1.51223648 0.00666183 1.51223648 0.00666183 3.05502319 0.01345825 C4.19605499 0.01360931 5.33708679 0.01376038 6.51269531 0.01391602 C8.36741959 0.02939987 8.36741959 0.02939987 10.25961304 0.04519653 C12.15313004 0.04944138 12.15313004 0.04944138 14.0848999 0.05377197 C17.44201998 0.06308772 20.79886965 0.08106068 24.15591431 0.10317993 C27.58108176 0.12363353 31.00627713 0.13277264 34.43148804 0.14285278 C41.15291724 0.16494445 47.87421827 0.19844527 54.59555054 0.24050903 C54.59555054 0.57050903 54.59555054 0.90050903 54.59555054 1.24050903 C53.60956123 1.25597023 53.60956123 1.25597023 52.60365295 1.27174377 C45.77443389 1.37975774 38.94534813 1.49436 32.11630249 1.61282349 C29.5662006 1.6561887 27.01606937 1.69786259 24.46591187 1.73782349 C20.80460764 1.79548743 17.14345132 1.85919328 13.48226929 1.92410278 C11.76652962 1.94917152 11.76652962 1.94917152 10.01612854 1.9747467 C8.42481865 2.00466454 8.42481865 2.00466454 6.80136108 2.03518677 C5.39904488 2.05850319 5.39904488 2.05850319 3.96839905 2.08229065 C1.4456854 2.15023611 1.4456854 2.15023611 -1.40444946 3.24050903 C-1.40444946 4.23050903 -1.40444946 5.22050903 -1.40444946 6.24050903 C-2.06444946 5.91050903 -2.72444946 5.58050903 -3.40444946 5.24050903 C-3.07444946 4.58050903 -2.74444946 3.92050903 -2.40444946 3.24050903 C-3.06444946 2.91050903 -3.72444946 2.58050903 -4.40444946 2.24050903 C-2.40444946 0.24050903 -2.40444946 0.24050903 0 0 Z " fill="#42355A" transform="translate(212.40444946289063,182.75949096679688)"/>
<path d="M0 0 C0.66 0 1.32 0 2 0 C2.66 0.33 3.32 0.66 4 1 C4 1.99 4 2.98 4 4 C4.99 4.33 5.98 4.66 7 5 C7 5.99 7 6.98 7 8 C2 7 -3 6 -8 5 C-7.1875 2.5625 -7.1875 2.5625 -6 0 C-3 -1 -3 -1 0 0 Z " fill="#281845" transform="translate(119,178)"/>
<path d="M0 0 C-0.11391632 2.60508636 -0.24065548 5.20845546 -0.375 7.8125 C-0.4059375 8.55048828 -0.436875 9.28847656 -0.46875 10.04882812 C-0.67346148 13.81893115 -0.86433827 15.79650741 -3 19 C-5.85936856 16.14063144 -5.33391034 14.04408788 -5.375 10.0625 C-5.40335938 8.81597656 -5.43171875 7.56945312 -5.4609375 6.28515625 C-5 3 -5 3 -3.0390625 1.05859375 C-1 0 -1 0 0 0 Z " fill="#221441" transform="translate(189,214)"/>
<path d="M0 0 C0.33 0 0.66 0 1 0 C1 5.61 1 11.22 1 17 C-2.16277272 15.41861364 -2.43093689 12.67403949 -3.625 9.4375 C-4.29402344 7.64119141 -4.29402344 7.64119141 -4.9765625 5.80859375 C-5.31429687 4.88175781 -5.65203125 3.95492187 -6 3 C-5.195625 2.690625 -4.39125 2.38125 -3.5625 2.0625 C-1.10919595 1.23664655 -1.10919595 1.23664655 0 0 Z " fill="#F8F1FA" transform="translate(183,183)"/>
<path d="M0 0 C4.62 0 9.24 0 14 0 C14 7.26 14 14.52 14 22 C12.68 22.33 11.36 22.66 10 23 C10.33 21.68 10.66 20.36 11 19 C11.66 19 12.32 19 13 19 C12.85936865 16.70800823 12.71234057 14.41640814 12.5625 12.125 C12.44068359 10.21074219 12.44068359 10.21074219 12.31640625 8.2578125 C12.20793973 5.11699848 12.20793973 5.11699848 11 3 C8.41394668 2.5316735 8.41394668 2.5316735 5.4375 2.375 C3.91962891 2.26285156 3.91962891 2.26285156 2.37109375 2.1484375 C1.19740234 2.07496094 1.19740234 2.07496094 0 2 C0 1.34 0 0.68 0 0 Z " fill="#201439" transform="translate(202,211)"/>
<path d="M0 0 C8.58 0 17.16 0 26 0 C25.67 0.99 25.34 1.98 25 3 C16.94630872 3.16107383 16.94630872 3.16107383 13.0625 2.5 C8.7074287 1.78896795 4.40268191 1.92169143 0 2 C0 1.34 0 0.68 0 0 Z " fill="#211339" transform="translate(46,236)"/>
<path d="M0 0 C1.32 0.33 2.64 0.66 4 1 C3.99476318 1.60996826 3.98952637 2.21993652 3.98413086 2.84838867 C3.96326665 5.62808185 3.95030987 8.40775851 3.9375 11.1875 C3.92912109 12.14720703 3.92074219 13.10691406 3.91210938 14.09570312 C3.90727539 15.49272461 3.90727539 15.49272461 3.90234375 16.91796875 C3.89710693 17.77156982 3.89187012 18.6251709 3.88647461 19.50463867 C4.00420677 22.09246747 4.42892956 24.47661953 5 27 C4.34 27.33 3.68 27.66 3 28 C1.91534997 24.74604992 1.71733072 21.98157794 1.5 18.5625 C1.26624821 14.89343171 0.90484937 11.55209464 0 8 C-0.12205329 5.32459184 -0.04467313 2.68038762 0 0 Z " fill="#3A2D4D" transform="translate(144,198)"/>
<path d="M0 0 C2.31 0 4.62 0 7 0 C7.33 2.64 7.66 5.28 8 8 C8.66 8 9.32 8 10 8 C9.67 9.65 9.34 11.3 9 13 C5.893533 9.893533 5.30910218 6.16532512 4 2 C3.67 5.63 3.34 9.26 3 13 C2.34 12.67 1.68 12.34 1 12 C-0.17169312 8.01624339 -0.08089427 4.12560776 0 0 Z " fill="#7C6D96" transform="translate(309,203)"/>
<path d="M0 0 C3.53685025 3.03158593 5.72951851 6.60255046 6.2578125 11.28515625 C6.39711085 17.40433373 6.39711085 17.40433373 4 21 C2.83936396 16.74433453 3.23826608 13.3164922 4 9 C3.01 9 2.02 9 1 9 C0 2.25 0 2.25 0 0 Z " fill="#201059" transform="translate(372,199)"/>
<path d="M0 0 C0.33 0.99 0.66 1.98 1 3 C0.67 3.66 0.34 4.32 0 5 C-2.32288812 5.39310414 -4.61845176 5.50749695 -6.96875 5.65625 C-7.6390625 5.7696875 -8.309375 5.883125 -9 6 C-9.33 6.66 -9.66 7.32 -10 8 C-10.21917317 5.29686424 -10.32851983 3.56041618 -8.9375 1.1875 C-6.00731249 -0.60842137 -3.3527047 -0.18977574 0 0 Z " fill="#211341" transform="translate(118,186)"/>
<path d="M0 0 C1.32 0 2.64 0 4 0 C5.27171984 3.81515952 4.27137096 5.26067364 3 9 C2.83142517 11.75065232 2.83142517 11.75065232 3 14 C2.34 14 1.68 14 1 14 C1 15.98 1 17.96 1 20 C0.67 20 0.34 20 0 20 C0 13.4 0 6.8 0 0 Z " fill="#201240" transform="translate(201,187)"/>
<path d="M0 0 C0.86625 0.5259375 0.86625 0.5259375 1.75 1.0625 C4.24020355 2.36283174 4.24020355 2.36283174 8 1 C8 3.97 8 6.94 8 10 C7.01 10 6.02 10 5 10 C4.62875 9.1028125 4.62875 9.1028125 4.25 8.1875 C2.83629988 5.71352479 1.34944617 4.56629745 -1 3 C-0.67 2.01 -0.34 1.02 0 0 Z " fill="#1F1138" transform="translate(333,204)"/>
<path d="M0 0 C1.32 0 2.64 0 4 0 C4 4.62 4 9.24 4 14 C3.34 14 2.68 14 2 14 C-1.33333333 2.66666667 -1.33333333 2.66666667 0 0 Z " fill="#DFD6E7" transform="translate(264,184)"/>
<path d="M0 0 C0.7528125 0.15984375 1.505625 0.3196875 2.28125 0.484375 C4.78208084 1.34733775 6.47168549 2.57203072 8.5 4.25 C1.40370975 4.56461385 -4.18284595 4.69572039 -10.5 1.25 C-6.763237 -0.6183815 -4.07793219 -0.9217244 0 0 Z " fill="#EAE2F1" transform="translate(166.5,232.75)"/>
<path d="M0 0 C1.5 1.375 1.5 1.375 3 3 C3 3.66 3 4.32 3 5 C2.34 5 1.68 5 1 5 C1 6.65 1 8.3 1 10 C-1.4375 9.25 -1.4375 9.25 -4 8 C-4.8125 5.875 -4.8125 5.875 -5 4 C-3.35 2.68 -1.7 1.36 0 0 Z " fill="#2E1F4C" transform="translate(149,226)"/>
<path d="M0 0 C0.52849741 5.28497409 0.52849741 5.28497409 0 8 C-3 10.5 -3 10.5 -6 12 C-7.32 11.34 -8.64 10.68 -10 10 C-9.21625 9.443125 -8.4325 8.88625 -7.625 8.3125 C-4.87896913 5.89337756 -4.18418704 4.37037849 -3 1 C-1 0 -1 0 0 0 Z " fill="#2A2043" transform="translate(133,225)"/>
<path d="M0 0 C0.66 0 1.32 0 2 0 C2.18043297 12.69045192 1.62102318 25.32683275 1 38 C0.67 38 0.34 38 0 38 C-0.0294985 34.22918364 -0.04696364 30.45839769 -0.0625 26.6875 C-0.07087891 25.63498047 -0.07925781 24.58246094 -0.08789062 23.49804688 C-0.10909421 16.60688314 0.24328318 9.84969487 1 3 C0.34 3 -0.32 3 -1 3 C-0.67 2.01 -0.34 1.02 0 0 Z " fill="#1E113B" transform="translate(228,186)"/>
<path d="M0 0 C5.99291003 0.41330414 9.25036599 1.31903365 14 5 C13.01 5.495 13.01 5.495 12 6 C11.67 6.66 11.34 7.32 11 8 C10.34 7.01 9.68 6.02 9 5 C6.80545319 4.42006301 6.80545319 4.42006301 4.375 4.3125 C3.55773437 4.24675781 2.74046875 4.18101562 1.8984375 4.11328125 C1.27195312 4.07589844 0.64546875 4.03851563 0 4 C0 2.68 0 1.36 0 0 Z " fill="#221257" transform="translate(358,193)"/>
<path d="M0 0 C0.99 0.33 1.98 0.66 3 1 C3 6.28 3 11.56 3 17 C2.01 17.33 1.02 17.66 0 18 C-0.125 10.375 -0.125 10.375 1 7 C0.72230092 4.6593935 0.39460023 2.32375692 0 0 Z " fill="#201538" transform="translate(170,216)"/>
<path d="M0 0 C2.475 0.495 2.475 0.495 5 1 C5 7.6 5 14.2 5 21 C3.68 20.67 2.36 20.34 1 20 C1.309375 19.21625 1.61875 18.4325 1.9375 17.625 C3.26335807 13.10148422 3.64811085 8.68568186 4 4 C2.68 3.34 1.36 2.68 0 2 C0 1.34 0 0.68 0 0 Z " fill="#21143C" transform="translate(211,186)"/>
<path d="M0 0 C3.77528304 1.25842768 4.10667045 2.62493429 6 6 C6.66 6.66 7.32 7.32 8 8 C8 8.99 8 9.98 8 11 C6.68 11 5.36 11 4 11 C3.87625 10.360625 3.7525 9.72125 3.625 9.0625 C3.41875 8.381875 3.2125 7.70125 3 7 C2.34 6.67 1.68 6.34 1 6 C1.33 6.99 1.66 7.98 2 9 C1.34 9 0.68 9 0 9 C0 6.03 0 3.06 0 0 Z " fill="#2A1D42" transform="translate(343,204)"/>
<path d="M0 0 C6.6 0 13.2 0 20 0 C17 3 17 3 14.22265625 3.0390625 C12.65837891 2.83410156 12.65837891 2.83410156 11.0625 2.625 C7.39262175 2.16114922 4.54015362 1.82279229 1 3 C0.67 2.01 0.34 1.02 0 0 Z " fill="#1F1239" transform="translate(128,236)"/>
<path d="M0 0 C0.33 0 0.66 0 1 0 C1 3.63 1 7.26 1 11 C0.01 11 -0.98 11 -2 11 C-2.33 11.99 -2.66 12.98 -3 14 C-3.66 14 -4.32 14 -5 14 C-4.54636829 12.41531323 -4.08688548 10.83230076 -3.625 9.25 C-3.36976563 8.36828125 -3.11453125 7.4865625 -2.8515625 6.578125 C-2.0790066 4.23919428 -1.16374324 2.16557438 0 0 Z " fill="#271943" transform="translate(322,204)"/>
<path d="M0 0 C2 2 2 2 2 5 C2.66 5 3.32 5 4 5 C4 5.66 4 6.32 4 7 C4.66 7.33 5.32 7.66 6 8 C6 9.65 6 11.3 6 13 C1.99027798 9.32442148 -0.45335415 5.81033104 -3 1 C-2.01 0.67 -1.02 0.34 0 0 Z " fill="#2A1D41" transform="translate(89,202)"/>
<path d="M0 0 C4.39786467 1.95460652 6.00667261 3.00889681 9 7 C5.7 7 2.4 7 -1 7 C-0.67 4.69 -0.34 2.38 0 0 Z " fill="#2B1D49" transform="translate(114,215)"/>
<path d="M0 0 C-1.28813342 0.83878455 -2.58063256 1.67086783 -3.875 2.5 C-4.59429687 2.9640625 -5.31359375 3.428125 -6.0546875 3.90625 C-8 5 -8 5 -10 5 C-10.268125 5.61875 -10.53625 6.2375 -10.8125 6.875 C-12 9 -12 9 -15 11 C-13.60991124 5.74855359 -10.1957125 3.12699328 -6 0 C-3.50907189 -1.24546405 -2.58919267 -0.7767578 0 0 Z " fill="#EEE8F4" transform="translate(165,185)"/>
<path d="M0 0 C6.6 0 13.2 0 20 0 C15.89794883 2.05102558 14.38406007 2 10 2 C7.69769234 2.89831016 7.69769234 2.89831016 6 4 C5.67 3.34 5.34 2.68 5 2 C3.35 2 1.7 2 0 2 C0 1.34 0 0.68 0 0 Z " fill="#1F1038" transform="translate(237,236)"/>
<path d="M0 0 C0.33 0 0.66 0 1 0 C1.06058594 1.21816406 1.12117187 2.43632812 1.18359375 3.69140625 C1.26806403 5.31511277 1.35270872 6.93881022 1.4375 8.5625 C1.47681641 9.36236328 1.51613281 10.16222656 1.55664062 10.98632812 C1.80748156 15.71371506 2.25321814 20.32476901 3 25 C2.34 25 1.68 25 1 25 C-0.27861615 22.44276771 -0.11336609 20.63262898 -0.09765625 17.7734375 C-0.09443359 16.7421875 -0.09121094 15.7109375 -0.08789062 14.6484375 C-0.07951172 13.56820312 -0.07113281 12.48796875 -0.0625 11.375 C-0.05798828 10.28703125 -0.05347656 9.1990625 -0.04882812 8.078125 C-0.03701776 5.38536211 -0.02054778 2.69270812 0 0 Z " fill="#25183D" transform="translate(254,209)"/>
<path d="M0 0 C-0.33 0.99 -0.66 1.98 -1 3 C-4.47325181 4.1577506 -7.36067448 4.06866652 -11 4 C-11.33 3.34 -11.66 2.68 -12 2 C-10.56656 1.46809459 -9.12804633 0.94984742 -7.6875 0.4375 C-6.48673828 0.00244141 -6.48673828 0.00244141 -5.26171875 -0.44140625 C-3 -1 -3 -1 0 0 Z " fill="#F8F2FA" transform="translate(124,233)"/>
<path d="M0 0 C2.6486859 3.19668988 4.93992341 6.39486597 7 10 C4 10 4 10 0 9 C0 6.03 0 3.06 0 0 Z " fill="#31234A" transform="translate(75,205)"/>
<path d="M0 0 C2.475 0.495 2.475 0.495 5 1 C5.66 2.98 6.32 4.96 7 7 C6.01 7.33 5.02 7.66 4 8 C1.8125 6.875 1.8125 6.875 0 5 C-0.25 2.3125 -0.25 2.3125 0 0 Z " fill="#4C3D67" transform="translate(348,203)"/>
<path d="M0 0 C0.99 0.33 1.98 0.66 3 1 C2.01 1.495 2.01 1.495 1 2 C0.53476937 3.89533342 0.53476937 3.89533342 0.375 6.0625 C0.25125 7.361875 0.1275 8.66125 0 10 C-0.66 10 -1.32 10 -2 10 C-2.33 7.36 -2.66 4.72 -3 2 C-2.01 1.34 -1.02 0.68 0 0 Z " fill="#2B1C49" transform="translate(319,201)"/>
<path d="M0 0 C3.03920174 3.03920174 3.44265837 3.73410982 4.1875 7.6875 C4.34605469 8.49574219 4.50460937 9.30398437 4.66796875 10.13671875 C4.77753906 10.75160156 4.88710938 11.36648437 5 12 C4.34 11.67 3.68 11.34 3 11 C3 10.34 3 9.68 3 9 C2.01 9.33 1.02 9.66 0 10 C0 6.7 0 3.4 0 0 Z " fill="#2E2144" transform="translate(312,204)"/>
<path d="M0 0 C0 0.66 0 1.32 0 2 C-1.98600337 3.3540932 -3.98817543 4.68457624 -6 6 C-7.36886951 7.29682374 -8.7169291 8.61823134 -10 10 C-10.33 8.35 -10.66 6.7 -11 5 C-10.360625 4.87625 -9.72125 4.7525 -9.0625 4.625 C-8.381875 4.41875 -7.70125 4.2125 -7 4 C-6.67 3.34 -6.34 2.68 -6 2 C-3.85118612 0.75230162 -2.50320403 0 0 0 Z " fill="#211256" transform="translate(284,192)"/>
<path d="M0 0 C-0.66 0 -1.32 0 -2 0 C-2.33 1.32 -2.66 2.64 -3 4 C-1.68 4.33 -0.36 4.66 1 5 C-2.06890187 6.53445094 -4.70094266 5.54984289 -8 5 C-7.1875 2.5625 -7.1875 2.5625 -6 0 C-3 -1 -3 -1 0 0 Z " fill="#2F214F" transform="translate(119,178)"/>
<path d="M0 0 C0.1953125 6.0546875 0.1953125 6.0546875 0 8 C-0.66 8.66 -1.32 9.32 -2 10 C-2.33 8.35 -2.66 6.7 -3 5 C-3.66 5.66 -4.32 6.32 -5 7 C-4.6875 4.625 -4.6875 4.625 -4 2 C-1 0 -1 0 0 0 Z " fill="#382B58" transform="translate(189,214)"/>
<path d="M0 0 C2.45611685 2.45611685 2.73561342 4.49780579 3.11328125 7.890625 C2.92225299 11.44770286 1.22730096 13.30024126 -1 16 C-1.33 15.34 -1.66 14.68 -2 14 C-1.67 13.01 -1.34 12.02 -1 11 C-0.77820215 9.10787263 -0.59385985 7.21115528 -0.4375 5.3125 C-0.35371094 4.31863281 -0.26992188 3.32476562 -0.18359375 2.30078125 C-0.12300781 1.54152344 -0.06242187 0.78226563 0 0 Z " fill="#200E5A" transform="translate(379,207)"/>
<path d="M0 0 C5.57142857 5.14285714 5.57142857 5.14285714 6 9 C4.33388095 9.042721 2.66617115 9.04063832 1 9 C0 8 0 8 -0.09765625 6.15234375 C-0.06510417 4.1015625 -0.03255208 2.05078125 0 0 Z " fill="#302248" transform="translate(304,207)"/>
<path d="M0 0 C2.97 0.495 2.97 0.495 6 1 C6.33 1.99 6.66 2.98 7 4 C6.01 4.495 6.01 4.495 5 5 C5 4.34 5 3.68 5 3 C4.01 3.66 3.02 4.32 2 5 C-0.1875 4.625 -0.1875 4.625 -2 4 C-1.34 2.68 -0.68 1.36 0 0 Z " fill="#20133D" transform="translate(165,186)"/>
<path d="M0 0 C2.64 0 5.28 0 8 0 C7.67 1.65 7.34 3.3 7 5 C2.545 4.01 2.545 4.01 -2 3 C-1.34 2.67 -0.68 2.34 0 2 C0 1.34 0 0.68 0 0 Z " fill="#F0E9F3" transform="translate(256,184)"/>
<path d="M0 0 C3.74633486 1.24877829 5.41041797 3.06047445 8 6 C8 6.99 8 7.98 8 9 C6.0625 8.6875 6.0625 8.6875 4 8 C3.67 7.01 3.34 6.02 3 5 C2.01 5 1.02 5 0 5 C0 3.35 0 1.7 0 0 Z " fill="#291D43" transform="translate(100,204)"/>
<path d="M0 0 C3.96 0 7.92 0 12 0 C7.375 4 7.375 4 4 4 C2.68 2.68 1.36 1.36 0 0 Z " fill="#F7F0FB" transform="translate(91,184)"/>
<path d="M0 0 C2.64 0.66 5.28 1.32 8 2 C7.01 3.485 7.01 3.485 6 5 C5.67 5.66 5.34 6.32 5 7 C3.35 6.67 1.7 6.34 0 6 C0.33 5.01 0.66 4.02 1 3 C0.67 2.01 0.34 1.02 0 0 Z " fill="#25135B" transform="translate(276,222)"/>
<path d="M0 0 C1.32 0.33 2.64 0.66 4 1 C4.29296875 7.0546875 4.29296875 7.0546875 4 9 C3.01 9.66 2.02 10.32 1 11 C1 9.68 1 8.36 1 7 C1.66 7 2.32 7 3 7 C3 6.01 3 5.02 3 4 C2.01 3.67 1.02 3.34 0 3 C0 2.01 0 1.02 0 0 Z " fill="#22173B" transform="translate(119,221)"/>
<path d="M0 0 C0.928125 0.5259375 0.928125 0.5259375 1.875 1.0625 C2.57625 1.371875 3.2775 1.68125 4 2 C4.66 1.67 5.32 1.34 6 1 C5.625 2.9375 5.625 2.9375 5 5 C4.01 5.495 4.01 5.495 3 6 C1.68 5.01 0.36 4.02 -1 3 C-0.67 2.01 -0.34 1.02 0 0 Z " fill="#2A1D43" transform="translate(333,204)"/>
<path d="M0 0 C4.62 0 9.24 0 14 0 C14 0.33 14 0.66 14 1 C9.05 2.485 9.05 2.485 4 4 C3.67 3.34 3.34 2.68 3 2 C2.01 2 1.02 2 0 2 C0 1.34 0 0.68 0 0 Z " fill="#9082AB" transform="translate(332,203)"/>
<path d="M0 0 C0.99 1.32 1.98 2.64 3 4 C2.67 4.33 2.34 4.66 2 5 C1.76346477 7.52596259 1.57826308 10.03107207 1.4375 12.5625 C1.39431641 13.27341797 1.35113281 13.98433594 1.30664062 14.71679688 C1.20028223 16.47761912 1.09961154 18.2387832 1 20 C0.67 20 0.34 20 0 20 C0 13.4 0 6.8 0 0 Z " fill="#2F2842" transform="translate(201,187)"/>
<path d="M0 0 C1.98 0.66 3.96 1.32 6 2 C5.67 3.32 5.34 4.64 5 6 C4.01 5.34 3.02 4.68 2 4 C-0.32387947 3.60612212 -2.65793749 3.26513915 -5 3 C-5 2.67 -5 2.34 -5 2 C-3.35 2 -1.7 2 0 2 C0 1.34 0 0.68 0 0 Z " fill="#DCD2E5" transform="translate(172,183)"/>
<path d="M0 0 C1.65 0.33 3.3 0.66 5 1 C5 1.66 5 2.32 5 3 C5.99 3.33 6.98 3.66 8 4 C7.01 4.66 6.02 5.32 5 6 C3.02 4.68 1.04 3.36 -1 2 C-0.67 1.34 -0.34 0.68 0 0 Z " fill="#2B1D46" transform="translate(120,203)"/>
<path d="M0 0 C4.20390632 1.50139512 5.89110738 4.17275043 8 8 C7.67 8.99 7.34 9.98 7 11 C5.83051998 9.35616456 4.6644855 7.70987731 3.5 6.0625 C2.8503125 5.14597656 2.200625 4.22945312 1.53125 3.28515625 C0 1 0 1 0 0 Z " fill="#E2D5EE" transform="translate(303,204)"/>
<path d="M0 0 C0.99 0 1.98 0 3 0 C3 0.66 3 1.32 3 2 C3.66 2.33 4.32 2.66 5 3 C1.86501708 4.85776765 -0.37471432 5.20140476 -4 5 C-2.1875 2.5 -2.1875 2.5 0 0 Z " fill="#1E0C40" transform="translate(122,199)"/>
<path d="M0 0 C1.32 0 2.64 0 4 0 C4 0.66 4 1.32 4 2 C5.32 2 6.64 2 8 2 C8 2.66 8 3.32 8 4 C5.69 4 3.38 4 1 4 C0.67 2.68 0.34 1.36 0 0 Z " fill="#E6DEEC" transform="translate(224,232)"/>
<path d="M0 0 C3 3.625 3 3.625 3 7 C3.66 7 4.32 7 5 7 C4.67 8.65 4.34 10.3 4 12 C1.57869669 9.57869669 1.47159496 8.19888623 0.875 4.875 C0.70742188 3.96492187 0.53984375 3.05484375 0.3671875 2.1171875 C0.24601562 1.41851562 0.12484375 0.71984375 0 0 Z " fill="#DDD0EA" transform="translate(314,204)"/>
<path d="M0 0 C0.763125 0.061875 1.52625 0.12375 2.3125 0.1875 C2.6425 1.1775 2.9725 2.1675 3.3125 3.1875 C0.3425 3.1875 -2.6275 3.1875 -5.6875 3.1875 C-2.6875 0.1875 -2.6875 0.1875 0 0 Z " fill="#35284C" transform="translate(169.6875,179.8125)"/>
<path d="M0 0 C2.64 0.66 5.28 1.32 8 2 C6.3125 3.5625 6.3125 3.5625 4 5 C1.25 4.6875 1.25 4.6875 -1 4 C-0.67 2.68 -0.34 1.36 0 0 Z " fill="#D8D0E0" transform="translate(109,232)"/>
<path d="M0 0 C2.43542455 1.90598443 3.00158196 3.00596275 3.8125 6.0625 C3.874375 7.031875 3.93625 8.00125 4 9 C3.34 9.66 2.68 10.32 2 11 C1.664061 9.5422647 1.33133376 8.08378894 1 6.625 C0.814375 5.81289062 0.62875 5.00078125 0.4375 4.1640625 C0 2 0 2 0 0 Z " fill="#33244A" transform="translate(123,190)"/>
<path d="M0 0 C0.33 0.66 0.66 1.32 1 2 C1.66 2 2.32 2 3 2 C1.79618552 4.49361571 0.54571278 6.68143083 -1 9 C-1.09765625 2.84765625 -1.09765625 2.84765625 -1 1 C-0.67 0.67 -0.34 0.34 0 0 Z " fill="#1F113B" transform="translate(203,222)"/>
<path d="M0 0 C0.99 0 1.98 0 3 0 C3.66 1.32 4.32 2.64 5 4 C3.35 4.33 1.7 4.66 0 5 C0 3.35 0 1.7 0 0 Z " fill="#25193B" transform="translate(325,210)"/>
<path d="M0 0 C3.24208567 0.35049575 4.61527704 0.56221181 6.8125 3.0625 C7.204375 3.701875 7.59625 4.34125 8 5 C5.07120629 4.37240135 2.63904371 3.41377341 0 2 C0 1.34 0 0.68 0 0 Z " fill="#291F41" transform="translate(257,187)"/>
<path d="M0 0 C1.875 0.25 1.875 0.25 4 1 C5.25 3.0625 5.25 3.0625 6 5 C5.34 5.66 4.68 6.32 4 7 C3.34 5.35 2.68 3.7 2 2 C1.34 2 0.68 2 0 2 C0 1.34 0 0.68 0 0 Z " fill="#291D40" transform="translate(59,186)"/>
<path d="M0 0 C-0.33 0.99 -0.66 1.98 -1 3 C-1 2.34 -1 1.68 -1 1 C-1.99 1 -2.98 1 -4 1 C-4.33 1.99 -4.66 2.98 -5 4 C-5.99 3.67 -6.98 3.34 -8 3 C-8 2.34 -8 1.68 -8 1 C-3.375 -1.125 -3.375 -1.125 0 0 Z " fill="#33264A" transform="translate(186,234)"/>
<path d="M0 0 C0.66 0 1.32 0 2 0 C2 3.96 2 7.92 2 12 C1.67 12 1.34 12 1 12 C1 9.03 1 6.06 1 3 C0.34 3 -0.32 3 -1 3 C-0.67 2.01 -0.34 1.02 0 0 Z " fill="#423D51" transform="translate(228,186)"/>
<path d="M0 0 C1.65 0 3.3 0 5 0 C5.33 1.32 5.66 2.64 6 4 C4.35 3.67 2.7 3.34 1 3 C0.67 2.01 0.34 1.02 0 0 Z " fill="#1C1136" transform="translate(184,186)"/>
<path d="M0 0 C0.66 1.32 1.32 2.64 2 4 C0.68 4.33 -0.64 4.66 -2 5 C-2 3.68 -2 2.36 -2 1 C-1.34 0.67 -0.68 0.34 0 0 Z " fill="#261A39" transform="translate(180,181)"/>
</svg>
