<?xml version="1.0" encoding="UTF-8"?>
<svg version="1.1" xmlns="http://www.w3.org/2000/svg" width="544" height="123">
<path d="M0 0 C5.15231753 3.83706348 7.61849634 8.60592394 8.9765625 14.81640625 C9.32662592 18.61024081 9.4782034 22.41011374 9.47412109 26.21972656 C9.57393839 32.82502773 11.30920309 38.07090155 15.9765625 42.875 C16.9665625 43.55755859 16.9665625 43.55755859 17.9765625 44.25390625 C18.6365625 44.72699219 19.2965625 45.20007812 19.9765625 45.6875 C23.93955758 47.92442495 27.61173679 47.91494225 32.1015625 48.06640625 C39.51106851 48.62357449 45.64353791 50.32693356 50.890625 55.8203125 C56.15048645 62.58833327 56.21447066 68.14464749 56.2890625 76.50390625 C56.31806641 77.56802734 56.34707031 78.63214844 56.37695312 79.72851562 C56.43907901 87.46557832 55.34244571 92.91589729 50.23046875 98.83984375 C49.67230469 99.28585938 49.11414063 99.731875 48.5390625 100.19140625 C47.98347656 100.65289062 47.42789063 101.114375 46.85546875 101.58984375 C40.90161154 105.47656134 35.03928531 105.18309782 28.1640625 105.19140625 C26.58141602 105.22814453 26.58141602 105.22814453 24.96679688 105.265625 C17.28397334 105.29434584 11.8731039 104.1111652 5.953125 99.10546875 C5.50710937 98.55632812 5.06109375 98.0071875 4.6015625 97.44140625 C4.14007813 96.89742188 3.67859375 96.3534375 3.203125 95.79296875 C-0.13859591 90.40790258 -0.27134286 85.12744082 -0.3984375 79.00390625 C-0.72063544 71.29910536 -1.05146354 64.56415588 -6.9609375 58.98828125 C-13.41158179 53.91314199 -18.91227098 53.06084553 -27.0234375 53.81640625 C-33.4066276 55.428543 -36.4798755 59.16398061 -39.89453125 64.59765625 C-41.62346417 67.99569742 -42.1370448 71.07559026 -42.19921875 74.86328125 C-42.22306641 75.62640625 -42.24691406 76.38953125 -42.27148438 77.17578125 C-42.31402475 78.75364227 -42.34550549 80.33184518 -42.36523438 81.91015625 C-42.60531359 88.5653754 -44.38215642 93.75559283 -48.76953125 98.83984375 C-49.32769531 99.28585938 -49.88585937 99.731875 -50.4609375 100.19140625 C-51.29431641 100.88363281 -51.29431641 100.88363281 -52.14453125 101.58984375 C-57.24979742 104.92259547 -61.84461863 105.13592665 -67.76171875 105.15234375 C-68.60131638 105.15900055 -69.440914 105.16565735 -70.30595398 105.17251587 C-72.07854023 105.18261654 -73.8511643 105.18733369 -75.6237793 105.18701172 C-78.3168913 105.19137539 -81.00835048 105.22769447 -83.70117188 105.265625 C-85.42968194 105.27149587 -87.15819973 105.27546345 -88.88671875 105.27734375 C-89.68282059 105.29171478 -90.47892242 105.30608582 -91.29914856 105.32089233 C-97.86409247 105.26802286 -103.04634334 103.3854431 -108.046875 99.0703125 C-108.49289063 98.51214844 -108.93890625 97.95398438 -109.3984375 97.37890625 C-109.85992187 96.82332031 -110.32140625 96.26773438 -110.796875 95.6953125 C-114.58606524 89.89085229 -114.38991861 84.27077079 -114.3984375 77.56640625 C-114.42292969 76.56738281 -114.44742188 75.56835938 -114.47265625 74.5390625 C-114.50249453 66.93030222 -113.37027088 60.4293894 -108.05859375 54.6953125 C-107.40761719 54.26089844 -106.75664063 53.82648438 -106.0859375 53.37890625 C-105.43753906 52.92644531 -104.78914063 52.47398438 -104.12109375 52.0078125 C-99.18046795 49.20168425 -95.29621476 48.56899438 -89.59765625 48.54296875 C-88.14647675 48.52267369 -86.69530493 48.50182279 -85.24414062 48.48046875 C-82.97983279 48.45794076 -80.71583054 48.44141894 -78.45141602 48.43554688 C-65.48608244 48.65278838 -65.48608244 48.65278838 -54.52270508 42.36962891 C-49.71834016 36.93964674 -48.77508533 32.78987639 -48.5859375 25.69140625 C-48.16093518 16.1581995 -47.31216356 7.61921724 -40.0234375 0.81640625 C-28.64777241 -6.35972325 -11.67258569 -6.82778661 0 0 Z " fill="#D3A65A" transform="translate(114.0234375,17.18359375)"/>
<path d="M0 0 C1.38155273 -0.04350586 1.38155273 -0.04350586 2.79101562 -0.08789062 C10.21192933 -0.15635896 15.6653949 1.33550869 21.125 6.5 C26.52131349 15.49385582 27.064365 25.38391758 25.25 35.625 C23.09425407 41.15495694 20.02077409 45.37457282 14.87890625 48.48046875 C6.99604464 51.65447541 -3.72266617 51.82650658 -11.75 49.125 C-17.29744477 46.19998367 -21.13767211 43.48439759 -23.58764648 37.43505859 C-24.76593325 33.26573621 -24.61698675 29.05142587 -24.5625 24.75 C-24.57410156 23.83025391 -24.58570312 22.91050781 -24.59765625 21.96289062 C-24.56998127 15.54690837 -23.77250568 11.09033876 -19.25 6.23046875 C-18.569375 5.65941406 -17.88875 5.08835937 -17.1875 4.5 C-16.506875 3.91605469 -15.82625 3.33210937 -15.125 2.73046875 C-10.59552347 -0.58445056 -5.36733103 0.05518161 0 0 Z " fill="#231F20" transform="translate(24.1875,0.6875)"/>
<path d="M0 0 C3.96 0 7.92 0 12 0 C12.91523438 1.62550781 13.83046875 3.25101562 14.7734375 4.92578125 C15.9738974 7.05472186 17.17442157 9.18362623 18.375 11.3125 C18.97828125 12.38435547 19.5815625 13.45621094 20.203125 14.56054688 C21.07324219 16.10258789 21.07324219 16.10258789 21.9609375 17.67578125 C22.49509277 18.62364502 23.02924805 19.57150879 23.57958984 20.5480957 C24.65498717 22.40444072 25.80997786 24.21496679 27 26 C27.33 17.42 27.66 8.84 28 0 C31.3 0 34.6 0 38 0 C38 15.51 38 31.02 38 47 C27 47 27 47 24.2824707 44.52148438 C23.66976318 43.39033203 23.05705566 42.25917969 22.42578125 41.09375 C22.08620895 40.49445679 21.74663666 39.89516357 21.39677429 39.27770996 C20.32817261 37.37106506 19.32102557 35.43897175 18.3125 33.5 C17.59563078 32.19710193 16.87496074 30.89628745 16.15039062 29.59765625 C14.38031293 26.42246533 12.6969682 23.21934243 11 20 C10.67 28.91 10.34 37.82 10 47 C6.7 47 3.4 47 0 47 C0 31.49 0 15.98 0 0 Z " fill="#231F20" transform="translate(217,1)"/>
<path d="M0 0 C3.63 0 7.26 0 11 0 C13.75368831 3.09087463 15.13656303 5.38141296 17 9 C18.26562135 11.17790436 19.55621196 13.33971907 20.85083008 15.50048828 C22.9245103 18.98618429 24.95807154 22.49560926 27 26 C27.33 17.42 27.66 8.84 28 0 C31.3 0 34.6 0 38 0 C38 15.18 38 30.36 38 46 C34.04 46 30.08 46 26 46 C25.08476562 44.37449219 24.16953125 42.74898437 23.2265625 41.07421875 C22.0261026 38.94527814 20.82557843 36.81637377 19.625 34.6875 C19.02171875 33.61564453 18.4184375 32.54378906 17.796875 31.43945312 C17.21679688 30.41142578 16.63671875 29.38339844 16.0390625 28.32421875 C15.50490723 27.37635498 14.97075195 26.42849121 14.42041016 25.4519043 C13.34501283 23.59555928 12.19002214 21.78503321 11 20 C10.67 28.58 10.34 37.16 10 46 C6.7 46 3.4 46 0 46 C0 30.82 0 15.64 0 0 Z " fill="#E2BB66" transform="translate(244,76)"/>
<path d="M0 0 C4.36775158 3.14884416 7.96773395 6.77820184 9.6875 11.9375 C9.7721817 14.45118055 9.80351885 16.93619374 9.78515625 19.44921875 C9.7837413 20.17744339 9.78232635 20.90566803 9.78086853 21.65596008 C9.77527659 23.97901539 9.76272562 26.30197388 9.75 28.625 C9.74498396 30.20117048 9.74042123 31.77734248 9.73632812 33.35351562 C9.7253098 37.21488098 9.70805074 41.07617408 9.6875 44.9375 C6.3875 44.9375 3.0875 44.9375 -0.3125 44.9375 C-0.3125 41.9675 -0.3125 38.9975 -0.3125 35.9375 C-5.9225 35.9375 -11.5325 35.9375 -17.3125 35.9375 C-17.3125 38.9075 -17.3125 41.8775 -17.3125 44.9375 C-20.6125 44.9375 -23.9125 44.9375 -27.3125 44.9375 C-27.38697267 40.34769186 -27.44125322 35.75823986 -27.47729492 31.16796875 C-27.49232869 29.60833606 -27.51276135 28.04874528 -27.53881836 26.48925781 C-27.57544211 24.24012884 -27.59228021 21.99156153 -27.60546875 19.7421875 C-27.62095261 19.0513205 -27.63643646 18.36045349 -27.65238953 17.64865112 C-27.65427293 12.16092252 -26.33398544 8.12897398 -22.59375 4.07421875 C-22.0059375 3.59597656 -21.418125 3.11773437 -20.8125 2.625 C-20.2246875 2.13386719 -19.636875 1.64273438 -19.03125 1.13671875 C-13.73908174 -2.55577137 -5.86921721 -1.8825791 0 0 Z M-16.3125 12.9375 C-17.63479189 15.58208379 -17.40927194 17.61511301 -17.375 20.5625 C-17.354375 22.33625 -17.33375 24.11 -17.3125 25.9375 C-11.7025 25.9375 -6.0925 25.9375 -0.3125 25.9375 C0.22409005 18.6127729 0.22409005 18.6127729 -1.875 11.8125 C-7.31854807 7.62515533 -11.63326627 8.12064174 -16.3125 12.9375 Z " fill="#DFB763" transform="translate(316.3125,77.0625)"/>
<path d="M0 0 C4.36775158 3.14884416 7.96773395 6.77820184 9.6875 11.9375 C9.7721817 14.45118055 9.80351885 16.93619374 9.78515625 19.44921875 C9.7837413 20.17744339 9.78232635 20.90566803 9.78086853 21.65596008 C9.77527659 23.97901539 9.76272562 26.30197388 9.75 28.625 C9.74498396 30.20117048 9.74042123 31.77734248 9.73632812 33.35351562 C9.7253098 37.21488098 9.70805074 41.07617408 9.6875 44.9375 C6.3875 44.9375 3.0875 44.9375 -0.3125 44.9375 C-0.3125 41.9675 -0.3125 38.9975 -0.3125 35.9375 C-5.9225 35.9375 -11.5325 35.9375 -17.3125 35.9375 C-17.3125 38.9075 -17.3125 41.8775 -17.3125 44.9375 C-20.6125 44.9375 -23.9125 44.9375 -27.3125 44.9375 C-27.38697267 40.34769186 -27.44125322 35.75823986 -27.47729492 31.16796875 C-27.49232869 29.60833606 -27.51276135 28.04874528 -27.53881836 26.48925781 C-27.57544211 24.24012884 -27.59228021 21.99156153 -27.60546875 19.7421875 C-27.62095261 19.0513205 -27.63643646 18.36045349 -27.65238953 17.64865112 C-27.65427293 12.16092252 -26.33398544 8.12897398 -22.59375 4.07421875 C-22.0059375 3.59597656 -21.418125 3.11773437 -20.8125 2.625 C-20.2246875 2.13386719 -19.636875 1.64273438 -19.03125 1.13671875 C-13.73908174 -2.55577137 -5.86921721 -1.8825791 0 0 Z M-16.3125 12.9375 C-17.63479189 15.58208379 -17.40927194 17.61511301 -17.375 20.5625 C-17.354375 22.33625 -17.33375 24.11 -17.3125 25.9375 C-11.7025 25.9375 -6.0925 25.9375 -0.3125 25.9375 C0.22409005 18.6127729 0.22409005 18.6127729 -1.875 11.8125 C-7.31854807 7.62515533 -11.63326627 8.12064174 -16.3125 12.9375 Z " fill="#E3BE67" transform="translate(227.3125,77.0625)"/>
<path d="M0 0 C1.16337891 0.00322266 2.32675781 0.00644531 3.52539062 0.00976562 C4.74033203 0.01814453 5.95527344 0.02652344 7.20703125 0.03515625 C8.43357422 0.03966797 9.66011719 0.04417969 10.92382812 0.04882812 C13.95577793 0.0606256 16.98763031 0.07708704 20.01953125 0.09765625 C20.01953125 3.39765625 20.01953125 6.69765625 20.01953125 10.09765625 C12.42953125 10.42765625 4.83953125 10.75765625 -2.98046875 11.09765625 C-3.31046875 12.74765625 -3.64046875 14.39765625 -3.98046875 16.09765625 C-1.63471255 18.44341245 4.23166806 17.4937082 7.40625 17.62109375 C12.51045205 18.29429662 15.83622273 19.8184038 19.33203125 23.59765625 C22.16065598 27.78821141 22.43450112 31.1180178 22.01953125 36.09765625 C20.61239823 39.82961774 18.74532593 42.55331024 15.51953125 44.97265625 C11.52390727 46.77068704 8.19035515 47.22074244 3.81640625 47.1953125 C2.83671875 47.19208984 1.85703125 47.18886719 0.84765625 47.18554688 C-0.168125 47.17716797 -1.18390625 47.16878906 -2.23046875 47.16015625 C-3.77734375 47.15338867 -3.77734375 47.15338867 -5.35546875 47.14648438 C-7.89716029 47.13471728 -10.43882193 47.11678235 -12.98046875 47.09765625 C-12.98046875 43.46765625 -12.98046875 39.83765625 -12.98046875 36.09765625 C-5.39046875 35.76765625 2.19953125 35.43765625 10.01953125 35.09765625 C10.34953125 34.10765625 10.67953125 33.11765625 11.01953125 32.09765625 C9.97305138 30.4660061 9.97305138 30.4660061 8.01953125 29.09765625 C4.59735636 28.73970507 4.59735636 28.73970507 0.76953125 28.78515625 C-3.87561884 28.63644042 -7.59885918 28.43000245 -11.29296875 25.34765625 C-14.96336488 21.35645429 -16.20064729 18.14455275 -15.98046875 12.72265625 C-15.28620218 7.65959028 -12.86329046 4.34299977 -8.98046875 1.09765625 C-5.74295197 0.01848399 -3.40295104 -0.01659976 0 0 Z " fill="#231F20" transform="translate(274.98046875,0.90234375)"/>
<path d="M0 0 C1.73540039 0.01450195 1.73540039 0.01450195 3.50585938 0.02929688 C4.70404297 0.05443359 5.90222656 0.07957031 7.13671875 0.10546875 C8.96299805 0.12577148 8.96299805 0.12577148 10.82617188 0.14648438 C13.8259722 0.18177614 16.8248685 0.23108394 19.82421875 0.29296875 C19.82421875 3.59296875 19.82421875 6.89296875 19.82421875 10.29296875 C12.23421875 10.62296875 4.64421875 10.95296875 -3.17578125 11.29296875 C-3.50578125 12.94296875 -3.83578125 14.59296875 -4.17578125 16.29296875 C-2.25448676 18.21426324 1.39436362 17.51797371 3.94921875 17.60546875 C11.21765184 17.98549516 15.71464061 18.88246369 20.76171875 24.41796875 C22.68872848 29.63223037 22.76484463 35.01566398 20.63671875 40.16796875 C17.49299514 43.85371367 14.63787158 46.41643515 9.82421875 47.29296875 C8.0184012 47.37287979 6.20990066 47.40066698 4.40234375 47.390625 C3.37753906 47.38740234 2.35273438 47.38417969 1.296875 47.38085938 C0.23339844 47.37248047 -0.83007812 47.36410156 -1.92578125 47.35546875 C-3.00472656 47.35095703 -4.08367187 47.34644531 -5.1953125 47.34179688 C-7.8554925 47.33002617 -10.51564394 47.31209114 -13.17578125 47.29296875 C-13.17578125 43.66296875 -13.17578125 40.03296875 -13.17578125 36.29296875 C-5.58578125 35.96296875 2.00421875 35.63296875 9.82421875 35.29296875 C10.90506396 31.65677219 10.90506396 31.65677219 10.82421875 29.29296875 C9.66664063 29.2671875 8.5090625 29.24140625 7.31640625 29.21484375 C5.77730747 29.15853526 4.23824642 29.10118855 2.69921875 29.04296875 C1.93867188 29.02878906 1.178125 29.01460937 0.39453125 29 C-4.88252643 28.77254062 -7.95777536 27.72652843 -12.17578125 24.29296875 C-15.56148592 20.45583679 -15.68869297 16.65895413 -15.52734375 11.73046875 C-15.00155622 8.08500857 -13.62044029 6.00191525 -11.17578125 3.29296875 C-7.3377079 0.50288732 -4.71326911 -0.06965422 0 0 Z " fill="#231F20" transform="translate(470.17578125,0.70703125)"/>
<path d="M0 0 C3.3 0 6.6 0 10 0 C10 5.94 10 11.88 10 18 C15.61 18 21.22 18 27 18 C27 12.06 27 6.12 27 0 C30.3 0 33.6 0 37 0 C37 15.51 37 31.02 37 47 C33.7 47 30.4 47 27 47 C27 40.73 27 34.46 27 28 C21.39 28 15.78 28 10 28 C10 34.27 10 40.54 10 47 C6.7 47 3.4 47 0 47 C0 31.49 0 15.98 0 0 Z " fill="#231F20" transform="translate(368,1)"/>
<path d="M0 0 C1.74023438 0.00966797 1.74023438 0.00966797 3.515625 0.01953125 C4.7221875 0.03628906 5.92875 0.05304688 7.171875 0.0703125 C9.00492188 0.08384766 9.00492188 0.08384766 10.875 0.09765625 C13.89082282 0.12121737 16.90624992 0.15411544 19.921875 0.1953125 C19.921875 3.4953125 19.921875 6.7953125 19.921875 10.1953125 C12.331875 10.5253125 4.741875 10.8553125 -3.078125 11.1953125 C-3.408125 12.8453125 -3.738125 14.4953125 -4.078125 16.1953125 C-2.15683051 18.11660699 1.49201987 17.42031746 4.046875 17.5078125 C10.02544069 17.82673505 14.25413209 18.27016505 18.921875 22.1953125 C22.27688146 26.84903113 22.81998119 31.62705412 21.921875 37.1953125 C19.66577363 41.70751525 17.40700209 43.97971004 12.921875 46.1953125 C9.9675293 46.53588867 9.9675293 46.53588867 6.74609375 46.48828125 C5.01069336 46.4737793 5.01069336 46.4737793 3.24023438 46.45898438 C2.04205078 46.43384766 0.84386719 46.40871094 -0.390625 46.3828125 C-2.2169043 46.36250977 -2.2169043 46.36250977 -4.08007812 46.34179688 C-7.07987845 46.30650511 -10.07877475 46.25719731 -13.078125 46.1953125 C-13.078125 42.8953125 -13.078125 39.5953125 -13.078125 36.1953125 C-5.488125 35.8653125 2.101875 35.5353125 9.921875 35.1953125 C11.00272021 31.55911594 11.00272021 31.55911594 10.921875 29.1953125 C9.76429688 29.16953125 8.60671875 29.14375 7.4140625 29.1171875 C5.87496372 29.06087901 4.33590267 29.0035323 2.796875 28.9453125 C2.03632812 28.93113281 1.27578125 28.91695312 0.4921875 28.90234375 C-4.78604334 28.6748338 -7.85658969 27.62530994 -12.078125 24.1953125 C-15.66044467 20.25476086 -15.63771603 15.9686396 -15.5 10.859375 C-14.8280412 6.61607958 -13.2721679 5.02639598 -10.078125 2.1953125 C-6.69020875 0.0397854 -3.97524773 -0.03897302 0 0 Z " fill="#D1A357" transform="translate(522.078125,75.8046875)"/>
<path d="M0 0 C0.66 0.99 1.32 1.98 2 3 C0.35 5.64 -1.3 8.28 -3 11 C-4.32 10.319375 -5.64 9.63875 -7 8.9375 C-11.9519781 6.74959773 -14.77052288 6.60547277 -20 8 C-23.9401305 10.3983403 -25.85442197 12.52183134 -27 17 C-27.46303703 21.24450609 -27.29268248 23.43631522 -25.3125 27.25 C-22.86677748 30.15842678 -21.5320317 31.61790064 -18 33 C-14.62313929 33.23342355 -11.39348419 33.13573937 -8 33 C-8 28.71 -8 24.42 -8 20 C-4.7 20 -1.4 20 2 20 C2 26.27 2 32.54 2 39 C-6.45802619 43.83315783 -13.69484648 45.87710164 -23.38671875 43.38671875 C-29.70956578 40.56690288 -34.27064601 35.30832937 -37.4375 29.25 C-38.88341053 20.8958503 -38.8837591 13.70629791 -34.62109375 6.1953125 C-26.35938777 -4.99282909 -11.63716809 -7.49895099 0 0 Z " fill="#231F20" transform="translate(359,4)"/>
<path d="M0 0 C0.58265625 0.3609375 1.1653125 0.721875 1.765625 1.09375 C0.38264641 4.67145548 -1.19054479 7.84220193 -3.234375 11.09375 C-3.70746094 10.79339844 -4.18054688 10.49304688 -4.66796875 10.18359375 C-9.38680433 7.47003333 -12.78474271 6.55827397 -18.1875 7.48046875 C-21.99187493 8.62032918 -24.2119641 10.73053547 -26.546875 13.84375 C-28.10915972 18.95668181 -27.92525977 22.73756879 -25.546875 27.40625 C-22.75855271 30.64673267 -20.6568614 32.7392398 -16.3125 33.375 C-11.69285399 33.58340508 -9.10540267 32.74816898 -5.234375 30.09375 C-4.244375 30.09375 -3.254375 30.09375 -2.234375 30.09375 C0.98828125 35.26953125 0.98828125 35.26953125 1.765625 37.09375 C0.765625 40.09375 0.765625 40.09375 -0.87890625 41.26171875 C-8.1272608 44.6704044 -15.31330313 45.69993318 -23.046875 43.17578125 C-30.07494645 39.9441234 -34.89190647 35.61152886 -37.72265625 28.19921875 C-39.64424152 20.29284884 -38.73222152 13.25359896 -34.71875 6.21875 C-26.33078231 -5.78928795 -12.07920612 -6.83728648 0 0 Z " fill="#D6AA5B" transform="translate(502.234375,78.90625)"/>
<path d="M0 0 C3.3 0 6.6 0 10 0 C10.03867187 1.77117187 10.03867187 1.77117187 10.078125 3.578125 C10.13441397 5.13545323 10.19176114 6.69274347 10.25 8.25 C10.26417969 9.02730469 10.27835937 9.80460937 10.29296875 10.60546875 C10.49542533 15.41102515 10.49542533 15.41102515 12.9296875 19.48828125 C15.69821078 21.51787593 15.69821078 21.51787593 19 22 C23.28611247 20.40485216 23.28611247 20.40485216 26 17 C26.23274209 14.12089412 26.41972757 11.25853505 26.5625 8.375 C26.60568359 7.57320313 26.64886719 6.77140625 26.69335938 5.9453125 C26.79951457 3.9637489 26.90026855 1.98189729 27 0 C30.3 0 33.6 0 37 0 C37.1360363 3.16813434 37.23459384 6.33033222 37.3125 9.5 C37.35439453 10.386875 37.39628906 11.27375 37.43945312 12.1875 C37.55906017 18.69412313 36.27581992 23.0157868 32 28 C29.58190005 30.09712642 27.32486794 32 24 32 C24 36.62 24 41.24 24 46 C20.7 46 17.4 46 14 46 C14 41.38 14 36.76 14 32 C12.02 31.34 10.04 30.68 8 30 C3.71325038 26.41109334 0.3661287 22.47766049 -0.23852539 16.734375 C-0.29442925 14.19137594 -0.26216506 11.66744109 -0.1875 9.125 C-0.17396484 8.24585937 -0.16042969 7.36671875 -0.14648438 6.4609375 C-0.11136623 4.30702448 -0.05756694 2.15342996 0 0 Z " fill="#DCB160" transform="translate(366,76)"/>
<path d="M0 0 C12.54 0 25.08 0 38 0 C38 3.3 38 6.6 38 10 C33.38 10 28.76 10 24 10 C24 22.21 24 34.42 24 47 C20.7 47 17.4 47 14 47 C14 34.79 14 22.58 14 10 C9.38 10 4.76 10 0 10 C0 6.7 0 3.4 0 0 Z " fill="#231F20" transform="translate(412,1)"/>
<path d="M0 0 C12.54 0 25.08 0 38 0 C38 3.3 38 6.6 38 10 C33.38 10 28.76 10 24 10 C24 21.88 24 33.76 24 46 C20.7 46 17.4 46 14 46 C14 34.12 14 22.24 14 10 C9.38 10 4.76 10 0 10 C0 6.7 0 3.4 0 0 Z " fill="#D9AF5E" transform="translate(407,76)"/>
<path d="M0 0 C3.3 0 6.6 0 10 0 C10 11.88 10 23.76 10 36 C17.59 36 25.18 36 33 36 C33 39.3 33 42.6 33 46 C22.11 46 11.22 46 0 46 C0 30.82 0 15.64 0 0 Z " fill="#DEB562" transform="translate(333,76)"/>
<path d="M0 0 C3.3 0 6.6 0 10 0 C10 15.51 10 31.02 10 47 C6.7 47 3.4 47 0 47 C0 31.49 0 15.98 0 0 Z " fill="#231F20" transform="translate(304,1)"/>
<path d="M0 0 C3.3 0 6.6 0 10 0 C10 15.51 10 31.02 10 47 C6.7 47 3.4 47 0 47 C0 31.49 0 15.98 0 0 Z " fill="#231F20" transform="translate(200,1)"/>
<path d="M0 0 C3.3 0 6.6 0 10 0 C10 15.18 10 30.36 10 46 C6.7 46 3.4 46 0 46 C0 30.82 0 15.64 0 0 Z " fill="#D7AC5D" transform="translate(449,76)"/>
</svg>
