<?xml version="1.0" encoding="UTF-8"?>
<svg version="1.1" xmlns="http://www.w3.org/2000/svg" width="1920" height="1080">
<path d="M0 0 C2.10460299 0.2929732 2.10460299 0.2929732 4.51171875 -0.3125 C7.56640158 -0.92343657 10.04065018 -0.52047844 13.09765625 -0.0625 C15.12402815 0.25183548 15.12402815 0.25183548 17.63671875 0.125 C20.01171875 0.1875 20.01171875 0.1875 23.13671875 1.25 C26.03466216 2.51027361 26.03466216 2.51027361 29.01171875 1.1875 C29.01171875 1.8475 29.01171875 2.5075 29.01171875 3.1875 C29.75421875 2.98125 30.49671875 2.775 31.26171875 2.5625 C34.46588918 2.12556767 35.22430931 2.7515618 38.01171875 4.1875 C38.98109375 4.1875 39.95046875 4.1875 40.94921875 4.1875 C44.27345625 4.1875 45.97225694 4.91516715 49.01171875 6.1875 C50.42340617 6.52177432 51.84089693 6.83197089 53.26171875 7.125 C62.08336574 8.99758842 70.97894046 12.09446221 79.01171875 16.1875 C79.71167969 16.52007812 80.41164063 16.85265625 81.1328125 17.1953125 C90.81735546 21.86610388 102.37757273 27.55335398 110.01171875 35.1875 C111.60842655 36.46769227 113.21372275 37.73719729 114.82421875 39 C118.45377669 41.89419164 121.93800607 44.70395897 125.01171875 48.1875 C125.01171875 48.8475 125.01171875 49.5075 125.01171875 50.1875 C125.58535156 50.42726563 126.15898438 50.66703125 126.75 50.9140625 C129.46643793 52.44352496 131.13528331 54.23137591 133.19921875 56.5625 C133.89402344 57.33335937 134.58882812 58.10421875 135.3046875 58.8984375 C137.01171875 61.1875 137.01171875 61.1875 137.5625 63.4140625 C137.78486328 64.29191406 137.78486328 64.29191406 138.01171875 65.1875 C139.00171875 65.5175 139.99171875 65.8475 141.01171875 66.1875 C142.48046875 68.41015625 142.48046875 68.41015625 144.01171875 71.1875 C145.17425963 73.00264905 146.341049 74.81508296 147.51171875 76.625 C149.91763854 80.39562219 152.12288044 84.12649764 154.01171875 88.1875 C154.58921875 89.26 155.16671875 90.3325 155.76171875 91.4375 C156.17421875 92.345 156.58671875 93.2525 157.01171875 94.1875 C156.68171875 94.8475 156.35171875 95.5075 156.01171875 96.1875 C157.00171875 96.5175 157.99171875 96.8475 159.01171875 97.1875 C159.94726562 98.87060547 159.94726562 98.87060547 160.73046875 101.0546875 C161.16734009 102.25230713 161.16734009 102.25230713 161.61303711 103.47412109 C162.05788452 104.75536865 162.05788452 104.75536865 162.51171875 106.0625 C162.81924072 106.92568848 163.1267627 107.78887695 163.44360352 108.67822266 C169.03712779 124.57749108 169.03712779 124.57749108 169.01171875 132.1875 C169.920056 134.25419397 169.920056 134.25419397 171.01171875 136.1875 C172.07439796 139.64317535 172.3481744 143.0930618 172.63671875 146.6875 C172.73210937 147.8115625 172.8275 148.935625 172.92578125 150.09375 C173.00002704 152.76659839 172.83737521 154.67356094 172.01171875 157.1875 C172.67171875 157.1875 173.33171875 157.1875 174.01171875 157.1875 C173.82609375 157.991875 173.64046875 158.79625 173.44921875 159.625 C173.30484375 160.470625 173.16046875 161.31625 173.01171875 162.1875 C173.34171875 162.5175 173.67171875 162.8475 174.01171875 163.1875 C174.08522246 165.84245418 174.10403929 168.4709719 174.07421875 171.125 C174.06970703 171.86685547 174.06519531 172.60871094 174.06054688 173.37304688 C174.04824655 175.31122723 174.03033473 177.24937002 174.01171875 179.1875 C174.01171875 179.8475 174.01171875 180.5075 174.01171875 181.1875 C174.01171875 182.5075 174.01171875 183.8275 174.01171875 185.1875 C173.35171875 185.1875 172.69171875 185.1875 172.01171875 185.1875 C172.13740234 186.0228125 172.13740234 186.0228125 172.265625 186.875 C173.17186429 193.666059 172.78513763 199.53717919 171.01171875 206.1875 C170.84671875 207.198125 170.68171875 208.20875 170.51171875 209.25 C170.01171875 212.1875 170.01171875 212.1875 169.01171875 215.1875 C168.45683365 217.12031539 167.90223976 219.05321564 167.35009766 220.98681641 C165.26714091 228.22950546 163.08797258 235.29460583 160.01171875 242.1875 C159.49738281 243.35925781 158.98304688 244.53101563 158.453125 245.73828125 C154.90504593 253.67034789 150.89915583 260.98079301 146.01171875 268.1875 C145.49609375 268.97769531 144.98046875 269.76789063 144.44921875 270.58203125 C139.80602077 277.6798365 135.06947024 284.22832139 129.01171875 290.1875 C128.17253906 291.04988281 127.33335937 291.91226562 126.46875 292.80078125 C111.03802901 308.55060135 111.03802901 308.55060135 104.01171875 310.1875 C103.68171875 310.8475 103.35171875 311.5075 103.01171875 312.1875 C101.44185276 313.39992838 99.83102179 314.55981181 98.19921875 315.6875 C97.32652344 316.2959375 96.45382812 316.904375 95.5546875 317.53125 C93.408614 318.92899987 91.32486441 320.10213866 89.01171875 321.1875 C88.14546875 321.620625 87.27921875 322.05375 86.38671875 322.5 C84.71609375 323.3353125 84.71609375 323.3353125 83.01171875 324.1875 C82.20863281 324.60644531 81.40554688 325.02539062 80.578125 325.45703125 C79.71058594 325.90433594 78.84304688 326.35164063 77.94921875 326.8125 C77.13324219 327.23789062 76.31726563 327.66328125 75.4765625 328.1015625 C73.01171875 329.1875 73.01171875 329.1875 70.390625 329.7109375 C67.75894975 330.08123758 67.75894975 330.08123758 65.01171875 332.1875 C63.68608595 332.55024861 62.35178567 332.88236142 61.01171875 333.1875 C59.02897397 333.91279829 57.07113747 334.68872516 55.109375 335.46875 C49.89035336 337.25701812 44.28081722 337.81115119 38.8515625 338.6875 C36.52949176 339.09633777 34.29236715 339.60160094 32.01171875 340.1875 C27.61178078 340.92082299 23.46254945 341.1875 19.01171875 341.1875 C18.35171875 341.5175 17.69171875 341.8475 17.01171875 342.1875 C14.67838542 342.1875 12.34505208 342.1875 10.01171875 342.1875 C9.02171875 342.5175 8.03171875 342.8475 7.01171875 343.1875 C5.03437309 343.28205661 3.05381792 343.31739394 1.07421875 343.3125 C0.03394531 343.31507813 -1.00632812 343.31765625 -2.078125 343.3203125 C-4.58695197 343.2058157 -6.5846291 342.82644551 -8.98828125 342.1875 C-10.20515625 342.1875 -11.42203125 342.1875 -12.67578125 342.1875 C-13.76890625 342.1875 -14.86203125 342.1875 -15.98828125 342.1875 C-16.31828125 341.8575 -16.64828125 341.5275 -16.98828125 341.1875 C-18.52922423 341.14026803 -20.07206467 341.15025005 -21.61328125 341.1875 C-28.46348077 341.24596543 -34.42076399 340.09805048 -40.98828125 338.1875 C-41.93703125 338.043125 -42.88578125 337.89875 -43.86328125 337.75 C-48.06843229 336.99307281 -51.95984333 335.58811583 -55.98828125 334.1875 C-57.50858831 333.68590209 -59.02941573 333.18587836 -60.55078125 332.6875 C-64.73955823 331.29369921 -68.86428016 329.7621186 -72.98828125 328.1875 C-72.98828125 327.5275 -72.98828125 326.8675 -72.98828125 326.1875 C-73.97828125 326.5175 -74.96828125 326.8475 -75.98828125 327.1875 C-78.75490013 325.95240229 -81.33647939 324.63790893 -83.98828125 323.1875 C-84.86355469 322.73890625 -85.73882812 322.2903125 -86.640625 321.828125 C-92.23892381 318.90727344 -97.17179978 315.68266783 -102.07421875 311.70703125 C-104.01957913 310.09493769 -104.01957913 310.09493769 -106.48828125 308.6875 C-110.57012706 306.23839251 -114.45593224 303.38123603 -117.98828125 300.1875 C-117.98828125 299.5275 -117.98828125 298.8675 -117.98828125 298.1875 C-118.64828125 298.1875 -119.30828125 298.1875 -119.98828125 298.1875 C-119.98828125 297.5275 -119.98828125 296.8675 -119.98828125 296.1875 C-120.64828125 296.1875 -121.30828125 296.1875 -121.98828125 296.1875 C-121.98828125 295.5275 -121.98828125 294.8675 -121.98828125 294.1875 C-122.58640625 293.919375 -123.18453125 293.65125 -123.80078125 293.375 C-126.00647158 292.17762525 -127.42411312 291.14271016 -128.98828125 289.1875 C-128.98828125 288.1975 -128.98828125 287.2075 -128.98828125 286.1875 C-129.88546875 285.8471875 -129.88546875 285.8471875 -130.80078125 285.5 C-133.58023861 283.83232559 -134.39220763 281.98062884 -135.98828125 279.1875 C-136.68953125 278.506875 -137.39078125 277.82625 -138.11328125 277.125 C-140.08560712 275.08692993 -140.59376327 273.94912584 -140.98828125 271.1875 C-141.64828125 271.1875 -142.30828125 271.1875 -142.98828125 271.1875 C-146.79951926 265.55512855 -150.00771302 259.43215037 -152.95703125 253.3046875 C-153.76282737 251.65036364 -154.60336567 250.0129505 -155.45703125 248.3828125 C-158.72602884 242.0851848 -161.18893859 236.04157502 -162.98828125 229.1875 C-163.40396161 227.85385885 -163.82051926 226.52049055 -164.23828125 225.1875 C-164.98828125 222.1875 -164.98828125 222.1875 -163.98828125 220.1875 C-164.64828125 220.1875 -165.30828125 220.1875 -165.98828125 220.1875 C-167.72240309 214.38644956 -169.13334525 209.28018793 -168.98828125 203.1875 C-169.48328125 202.0428125 -169.48328125 202.0428125 -169.98828125 200.875 C-171.24553242 197.49613749 -171.09687522 194.64796764 -170.9609375 191.078125 C-170.76885422 189.17465798 -170.76885422 189.17465798 -171.98828125 188.1875 C-172.03588087 186.52151319 -172.02530915 184.8537553 -171.98828125 183.1875 C-171.94572712 179.53730129 -172.05820602 176.05387513 -172.55078125 172.4375 C-173.05437555 168.5066667 -172.64174011 165.10825315 -171.98828125 161.1875 C-171.98828125 159.99125 -171.98828125 158.795 -171.98828125 157.5625 C-171.98828125 154.55581274 -171.60287618 152.10682594 -170.98828125 149.1875 C-171.00890625 148.40375 -171.02953125 147.62 -171.05078125 146.8125 C-170.98828125 144.1875 -170.98828125 144.1875 -170.05078125 140.9375 C-169.01912121 137.29634693 -168.55573078 133.95446183 -168.234375 130.203125 C-167.98828125 128.1875 -167.98828125 128.1875 -166.98828125 125.1875 C-166.84390625 124.383125 -166.69953125 123.57875 -166.55078125 122.75 C-166.00200104 120.25000125 -165.15398115 118.44604355 -163.98828125 116.1875 C-163.76398438 115.27677734 -163.76398438 115.27677734 -163.53515625 114.34765625 C-162.47105047 110.14443841 -160.6304761 106.19205489 -158.98828125 102.1875 C-158.56933594 101.13820313 -158.15039062 100.08890625 -157.71875 99.0078125 C-157.29207031 97.95335937 -156.86539062 96.89890625 -156.42578125 95.8125 C-156.03261719 94.83539063 -155.63945312 93.85828125 -155.234375 92.8515625 C-154.05073641 90.32102482 -152.70249834 88.37656946 -150.98828125 86.1875 C-150.30695674 84.52677151 -149.64085998 82.859733 -148.98828125 81.1875 C-147.48828125 78.375 -147.48828125 78.375 -145.98828125 76.1875 C-145.32828125 76.1875 -144.66828125 76.1875 -143.98828125 76.1875 C-143.76914062 75.34316406 -143.55 74.49882812 -143.32421875 73.62890625 C-141.7048622 69.45740591 -139.43459048 66.55140582 -136.61328125 63.125 C-135.89011719 62.2268457 -135.89011719 62.2268457 -135.15234375 61.31054688 C-134.20892942 60.14025165 -133.26106329 58.97352837 -132.30834961 57.81079102 C-131.11006373 56.33725618 -129.94371943 54.83788916 -128.78125 53.3359375 C-126.98828125 51.1875 -126.98828125 51.1875 -124.67578125 49.875 C-121.36557868 47.79650071 -119.33107166 45.22443756 -116.82421875 42.2578125 C-113.40533349 38.4024738 -109.92258132 34.83226669 -104.98828125 33.1875 C-104.43011719 32.60742188 -103.87195313 32.02734375 -103.296875 31.4296875 C-100.20870815 28.43035117 -96.76405702 26.45821379 -93.05078125 24.3125 C-92.30094971 23.87558838 -91.55111816 23.43867676 -90.77856445 22.98852539 C-75.24288325 14.06124401 -75.24288325 14.06124401 -66.98828125 12.1875 C-62.51694701 10.79230924 -58.10709534 9.2504509 -53.73828125 7.5625 C-49.41901006 5.97876723 -45.6743753 5.26496223 -41.11328125 4.75 C-37.26494216 4.29255592 -33.69581077 3.32827831 -29.98828125 2.1875 C-26.9430662 1.36446891 -24.58474507 1.1729521 -21.42578125 1.25 C-19.04001298 1.46881488 -19.04001298 1.46881488 -17.98828125 0.1875 C-15.43264754 0.11538335 -12.89167672 0.19116284 -10.3359375 0.25 C-0.14782119 -0.02123105 -0.14782119 -0.02123105 0 0 Z M-19.17578125 23.75 C-20.98828125 24.1875 -20.98828125 24.1875 -23.98828125 24.1875 C-26.38688956 24.50024055 -28.78251708 24.83619517 -31.17578125 25.1875 C-32.44808594 25.373125 -33.72039062 25.55875 -35.03125 25.75 C-36.00707031 25.894375 -36.98289062 26.03875 -37.98828125 26.1875 C-37.98828125 26.8475 -37.98828125 27.5075 -37.98828125 28.1875 C-39.63828125 27.8575 -41.28828125 27.5275 -42.98828125 27.1875 C-42.98828125 27.8475 -42.98828125 28.5075 -42.98828125 29.1875 C-43.56578125 28.98125 -44.14328125 28.775 -44.73828125 28.5625 C-47.5984398 28.08580691 -48.48533138 28.78879272 -50.98828125 30.1875 C-56.54383681 32.1875 -56.54383681 32.1875 -58.98828125 32.1875 C-59.31828125 32.8475 -59.64828125 33.5075 -59.98828125 34.1875 C-61.76878731 34.8159139 -63.54968497 35.44323083 -65.33203125 36.06640625 C-69.4126538 37.788669 -73.17406129 40.06107991 -76.9753418 42.31884766 C-79.50013713 43.80876329 -81.9118502 45.15904757 -84.6640625 46.18359375 C-87.46113811 47.39174238 -88.9128524 48.97617997 -90.98828125 51.1875 C-92.46863193 52.39940681 -93.96906982 53.58717892 -95.48828125 54.75 C-96.24109375 55.32878906 -96.99390625 55.90757812 -97.76953125 56.50390625 C-99.20117266 57.59023979 -100.63585933 58.67257721 -102.07421875 59.75 C-107.1657991 63.23120476 -107.1657991 63.23120476 -110.85546875 67.96484375 C-112.45596697 71.10513163 -114.716577 73.64487016 -116.98828125 76.3125 C-117.43945312 76.85003906 -117.890625 77.38757813 -118.35546875 77.94140625 C-120.17219885 80.09675764 -121.9942108 82.19342955 -123.98828125 84.1875 C-125.04714627 85.95695613 -126.06318028 87.75230265 -127.05078125 89.5625 C-127.84162109 90.99722656 -127.84162109 90.99722656 -128.6484375 92.4609375 C-130.04144058 95.04805418 -130.04144058 95.04805418 -130.546875 97.4765625 C-130.69253906 98.04117188 -130.83820313 98.60578125 -130.98828125 99.1875 C-131.97828125 99.6825 -131.97828125 99.6825 -132.98828125 100.1875 C-133.31828125 101.3425 -133.64828125 102.4975 -133.98828125 103.6875 C-134.31828125 104.8425 -134.64828125 105.9975 -134.98828125 107.1875 C-135.97828125 107.6825 -135.97828125 107.6825 -136.98828125 108.1875 C-137.71732211 109.82784193 -138.37483368 111.50051918 -138.98828125 113.1875 C-139.45234375 114.2703125 -139.45234375 114.2703125 -139.92578125 115.375 C-140.92649998 118.02396135 -141.82243446 120.67532106 -142.67578125 123.375 C-143.08376953 124.66470703 -143.08376953 124.66470703 -143.5 125.98046875 C-144.23726569 128.2144186 -144.23726569 128.2144186 -142.98828125 130.1875 C-143.97828125 130.6825 -143.97828125 130.6825 -144.98828125 131.1875 C-145.69431529 134.92948039 -145.98828125 138.37542739 -145.98828125 142.1875 C-146.97828125 142.6825 -146.97828125 142.6825 -147.98828125 143.1875 C-147.96765625 144.13625 -147.94703125 145.085 -147.92578125 146.0625 C-147.98828125 149.1875 -147.98828125 149.1875 -148.98828125 151.1875 C-150.4645798 157.06461776 -150.17429955 163.03099318 -150.17358398 169.05249023 C-150.17577095 171.11528142 -150.19395778 173.17753755 -150.21289062 175.24023438 C-150.21482422 176.55185547 -150.21675781 177.86347656 -150.21875 179.21484375 C-150.22285889 180.40843506 -150.22696777 181.60202637 -150.23120117 182.83178711 C-149.98217784 186.27181288 -149.14506686 188.95594874 -147.98828125 192.1875 C-147.86328125 195.5625 -147.86328125 195.5625 -147.98828125 198.1875 C-147.32828125 198.1875 -146.66828125 198.1875 -145.98828125 198.1875 C-146.31828125 200.1675 -146.64828125 202.1475 -146.98828125 204.1875 C-146.32828125 204.1875 -145.66828125 204.1875 -144.98828125 204.1875 C-145.29765625 204.991875 -145.29765625 204.991875 -145.61328125 205.8125 C-146.12702354 209.0662012 -145.10002615 211.09075843 -143.98828125 214.1875 C-143.57449219 215.34507812 -143.16070312 216.50265625 -142.734375 217.6953125 C-141.86001159 220.11220956 -140.98500867 222.52887536 -140.109375 224.9453125 C-139.02327147 228.08630879 -138.20080231 231.12489472 -137.55078125 234.375 C-137.36515625 234.973125 -137.17953125 235.57125 -136.98828125 236.1875 C-136.32828125 236.5175 -135.66828125 236.8475 -134.98828125 237.1875 C-133.91523185 239.24442573 -132.90547864 241.33450892 -131.92578125 243.4375 C-128.82415005 249.91579215 -125.11477293 255.63595726 -120.90625 261.4453125 C-119.34952283 263.67102019 -118.18580856 265.77152787 -116.98828125 268.1875 C-114.57161354 270.93791666 -114.57161354 270.93791666 -111.98828125 273.1875 C-111.32828125 273.1875 -110.66828125 273.1875 -109.98828125 273.1875 C-109.98828125 273.8475 -109.98828125 274.5075 -109.98828125 275.1875 C-109.32828125 275.1875 -108.66828125 275.1875 -107.98828125 275.1875 C-107.98828125 275.8475 -107.98828125 276.5075 -107.98828125 277.1875 C-107.32828125 277.1875 -106.66828125 277.1875 -105.98828125 277.1875 C-105.7665625 277.75082031 -105.54484375 278.31414062 -105.31640625 278.89453125 C-101.04230878 286.27363483 -91.43268447 291.74646042 -84.36328125 296.3125 C-83.75967773 296.70268311 -83.15607422 297.09286621 -82.53417969 297.49487305 C-79.49603572 299.54551375 -79.49603572 299.54551375 -75.98828125 300.1875 C-75.65828125 300.8475 -75.32828125 301.5075 -74.98828125 302.1875 C-69.7524246 305.33524716 -64.17052664 307.62485712 -58.3515625 309.43359375 C-54.70784963 310.59596827 -51.14426997 311.97076741 -47.56640625 313.3203125 C-45.05055259 314.16655418 -42.5891117 314.67883418 -39.98828125 315.1875 C-39.32828125 315.538125 -38.66828125 315.88875 -37.98828125 316.25 C-35.51816295 317.40786795 -33.69394858 317.25514168 -30.98828125 317.1875 C-30.30765625 317.373125 -29.62703125 317.55875 -28.92578125 317.75 C-26.6321144 318.26792477 -25.2022655 317.8991378 -22.98828125 317.1875 C-22.98828125 317.8475 -22.98828125 318.5075 -22.98828125 319.1875 C-21.56515625 319.1565625 -21.56515625 319.1565625 -20.11328125 319.125 C-16.98828125 319.1875 -16.98828125 319.1875 -14.98828125 320.1875 C-12.50728391 320.27399451 -10.05483197 320.30315054 -7.57421875 320.28515625 C-6.47975937 320.28303383 -6.47975937 320.28303383 -5.3631897 320.28086853 C-3.0298454 320.27526531 -0.69659661 320.26271235 1.63671875 320.25 C3.21744653 320.24498541 4.79817582 320.24042243 6.37890625 320.23632812 C10.25654729 320.22529484 14.13411682 320.20802811 18.01171875 320.1875 C18.01171875 319.5275 18.01171875 318.8675 18.01171875 318.1875 C18.91921875 318.373125 19.82671875 318.55875 20.76171875 318.75 C23.89127614 319.17128657 25.08481507 318.96226862 28.01171875 318.1875 C29.75862794 317.9731066 31.50912105 317.78642347 33.26171875 317.625 C34.59976563 317.49931641 34.59976563 317.49931641 35.96484375 317.37109375 C36.6403125 317.31050781 37.31578125 317.24992187 38.01171875 317.1875 C38.01171875 316.5275 38.01171875 315.8675 38.01171875 315.1875 C38.87796875 315.22875 39.74421875 315.27 40.63671875 315.3125 C44.1692396 315.18166589 46.76050072 314.54847499 50.01171875 313.1875 C50.34171875 312.5275 50.67171875 311.8675 51.01171875 311.1875 C52.25308594 311.30351563 52.25308594 311.30351563 53.51953125 311.421875 C58.00212447 311.12102982 60.97873691 309.53664453 64.88671875 307.4375 C66.23828125 306.734375 67.58984375 306.03125 68.94140625 305.328125 C69.94022827 304.800979 69.94022827 304.800979 70.95922852 304.26318359 C75.90363941 301.67188177 80.82822941 299.26089573 86.01171875 297.1875 C87.00171875 296.5275 87.99171875 295.8675 89.01171875 295.1875 C89.01171875 294.5275 89.01171875 293.8675 89.01171875 293.1875 C89.52734375 292.960625 90.04296875 292.73375 90.57421875 292.5 C93.9071888 290.70532382 97.15875546 288.68784985 100.01171875 286.1875 C100.01171875 285.5275 100.01171875 284.8675 100.01171875 284.1875 C100.5428125 283.98125 101.07390625 283.775 101.62109375 283.5625 C105.01945311 281.60788808 107.52227803 278.96626283 110.26171875 276.1875 C110.81601562 275.6409375 111.3703125 275.094375 111.94140625 274.53125 C115.0038765 271.86149232 115.0038765 271.86149232 116.01171875 268.1875 C116.67171875 268.1875 117.33171875 268.1875 118.01171875 268.1875 C119.29999422 266.69528771 119.29999422 266.69528771 120.51171875 264.8125 C121.93418101 262.70482726 123.20326848 260.99595027 125.01171875 259.1875 C125.92215086 257.70873755 126.79379141 256.20575509 127.63671875 254.6875 C128.08273437 253.8934375 128.52875 253.099375 128.98828125 252.28125 C130.15810209 250.27644481 130.15810209 250.27644481 130.01171875 248.1875 C130.67171875 247.8575 131.33171875 247.5275 132.01171875 247.1875 C134.97085598 242.74879416 136.51502307 237.85227992 138.38671875 232.875 C139.84835088 229.03225204 141.36422341 225.3630875 143.32421875 221.75 C145.02185429 218.16610274 145.40169323 216.08724483 145.01171875 212.1875 C145.67171875 212.1875 146.33171875 212.1875 147.01171875 212.1875 C147.20663327 210.73013913 147.39241233 209.27155407 147.57421875 207.8125 C147.67863281 207.00039063 147.78304688 206.18828125 147.890625 205.3515625 C148.19409203 203.13850814 148.19409203 203.13850814 147.01171875 201.1875 C147.67171875 200.8575 148.33171875 200.5275 149.01171875 200.1875 C149.46504957 197.87712676 149.46504957 197.87712676 149.609375 195.09375 C149.68865234 194.06378906 149.76792969 193.03382813 149.84960938 191.97265625 C149.92373047 190.88855469 149.99785156 189.80445313 150.07421875 188.6875 C150.22785723 186.55179819 150.3852053 184.41635888 150.546875 182.28125 C150.61269775 181.32927734 150.67852051 180.37730469 150.74633789 179.39648438 C151.01171875 177.1875 151.01171875 177.1875 152.01171875 176.1875 C152.10962445 174.69011876 152.14146739 173.18807108 152.13671875 171.6875 C152.14058594 170.46546875 152.14058594 170.46546875 152.14453125 169.21875 C152.23623655 167.19219623 152.23623655 167.19219623 151.01171875 166.1875 C150.84812772 163.66395687 150.73163948 161.15126719 150.63671875 158.625 C150.10599926 147.50707681 148.18444531 136.87324307 145.01171875 126.1875 C144.81191406 125.48625 144.61210938 124.785 144.40625 124.0625 C142.24032365 117.08501914 139.01390737 110.58959171 135.87402344 104.01367188 C134.24058471 100.55440753 132.69988815 97.0530097 131.15234375 93.5546875 C128.96943433 88.56441954 128.96943433 88.56441954 125.01171875 85.1875 C125.01171875 84.5275 125.01171875 83.8675 125.01171875 83.1875 C123.70208359 81.83088241 122.36363239 80.50199042 121.01171875 79.1875 C119.62011365 77.49266578 118.24621794 75.78319455 116.88671875 74.0625 C108.26433918 63.51161414 98.67376629 55.32273954 87.66894531 47.39892578 C86.32529195 46.41672072 85.0177714 45.38521827 83.72265625 44.33984375 C81.94081164 42.90818652 81.94081164 42.90818652 79.01171875 43.1875 C78.68171875 42.5275 78.35171875 41.8675 78.01171875 41.1875 C75.58989577 39.89625059 73.18833392 38.70809837 70.69921875 37.5625 C70.02181641 37.23765625 69.34441406 36.9128125 68.64648438 36.578125 C65.13700139 34.94516908 62.94447071 34.1875 59.01171875 34.1875 C58.68171875 33.5275 58.35171875 32.8675 58.01171875 32.1875 C56.13683614 31.34585291 56.13683614 31.34585291 53.88671875 30.6875 C53.07332031 30.43355469 52.25992188 30.17960937 51.421875 29.91796875 C50.62652344 29.67691406 49.83117187 29.43585938 49.01171875 29.1875 C47.79484375 28.795625 46.57796875 28.40375 45.32421875 28 C42.07820659 27.20380834 39.33783738 27.02525031 36.01171875 27.1875 C35.68171875 26.5275 35.35171875 25.8675 35.01171875 25.1875 C34.26921875 25.208125 33.52671875 25.22875 32.76171875 25.25 C30.24872042 25.1928864 28.41850812 24.8245913 26.01171875 24.1875 C22.70511587 23.64641953 19.55202242 23.1875 16.19921875 23.1875 C14.01171875 23.1875 14.01171875 23.1875 12.01171875 22.1875 C10.34203329 22.09118597 8.66855352 22.05674936 6.99609375 22.0546875 C5.99191406 22.05339844 4.98773437 22.05210937 3.953125 22.05078125 C2.89996094 22.05464844 1.84679687 22.05851562 0.76171875 22.0625 C-0.79482422 22.05669922 -0.79482422 22.05669922 -2.3828125 22.05078125 C-8.16518026 22.05816614 -13.55031781 22.30345226 -19.17578125 23.75 Z " fill="#F26823" transform="translate(516.98828125,368.8125)"/>
<path d="M0 0 C4.54863953 -0.36389116 7.66072525 -0.20990448 11.44775391 2.47509766 C14.79045208 5.75891219 16.59542149 10.14727743 18.625 14.3125 C19.55362207 16.16329537 20.48328932 18.01356675 21.4140625 19.86328125 C22.07003418 21.18126709 22.07003418 21.18126709 22.73925781 22.52587891 C24.38392762 25.75343192 26.17371886 28.87218365 28 32 C28.66666667 33.33333333 29.33333333 34.66666667 30 36 C30.98853785 37.74641687 31.99080403 39.48419443 33 41.21875 C34.06577419 43.11716027 35.02717201 45.05234415 36 47 C36.69686142 48.34175068 37.39757289 49.68150683 38.1015625 51.01953125 C38.50560303 51.7875708 38.90964355 52.55561035 39.32592773 53.34692383 C39.75462158 54.16056396 40.18331543 54.9742041 40.625 55.8125 C41.28834351 57.07259888 41.28834351 57.07259888 41.96508789 58.3581543 C45.38732018 64.85283441 48.83853366 71.33154605 52.30859375 77.80078125 C53.3956762 79.85694875 54.4578775 81.926571 55.48828125 84.01171875 C57.12687287 87.25079521 58.91922841 90.36571903 60.75 93.5 C63.50472323 98.2586195 66.07526753 103.06155406 68.5 108 C71.11666562 113.32826696 73.95246455 118.46835445 76.94042969 123.59619141 C80.60417952 129.94302618 83.84584982 136.49396802 87.05078125 143.08178711 C87.71899308 144.43213185 88.40565949 145.7734228 89.10546875 147.10766602 C89.46769531 147.80303467 89.82992187 148.49840332 90.203125 149.21484375 C90.53473633 149.8399585 90.86634766 150.46507324 91.20800781 151.10913086 C92.67907712 154.62128616 92.49548185 157.22195087 92 161 C90.24023741 163.99811404 88.73792211 165.53616324 85.8125 167.375 C81.66121903 168.29750688 78.06378643 168.35936518 74 167 C69.27587292 163.17665986 66.87541242 158.14873957 64.625 152.625 C63.13562536 149.02861286 63.13562536 149.02861286 61.08984375 146.15625 C59.08704325 143.1314597 57.50665444 140.14173072 55.9375 136.875 C51.31329316 127.39438648 46.13057672 118.21301606 41 109 C37.83910592 109 36.82889058 109.43255575 34.12890625 110.8984375 C33.38962891 111.29546875 32.65035156 111.6925 31.88867188 112.1015625 C31.12103516 112.52179688 30.35339844 112.94203125 29.5625 113.375 C28.04312034 114.19559324 26.52359381 115.01591462 25.00390625 115.8359375 C23.99565796 116.38580322 23.99565796 116.38580322 22.96704102 116.94677734 C20.99514774 118.00259807 19.00464002 119.00793928 17 120 C16.39687988 120.30156006 15.79375977 120.60312012 15.17236328 120.91381836 C4.9453125 126.02734375 4.9453125 126.02734375 2.92138672 127.03808594 C1.15880535 127.92049643 -0.60045497 128.80953246 -2.359375 129.69921875 C-5 131 -5 131 -7.375 131.875 C-9.78568844 132.90815219 -11.74514704 134.07725861 -13.9375 135.5 C-17.18468158 137.58879422 -20.25246468 138.96942779 -24 140 C-24 140.66 -24 141.32 -24 142 C-24.66 142 -25.32 142 -26 142 C-26 142.66 -26 143.32 -26 144 C-26.99 144 -27.98 144 -29 144 C-29.226875 144.5775 -29.45375 145.155 -29.6875 145.75 C-31.34848222 148.59739809 -33.31524561 150.12067193 -36 152 C-36.66 152 -37.32 152 -38 152 C-38.33 152.99 -38.66 153.98 -39 155 C-43.33333333 158 -43.33333333 158 -46 158 C-46.33 158.66 -46.66 159.32 -47 160 C-48.38316689 161.02594404 -49.80653291 161.99829045 -51.25 162.9375 C-52.06339844 163.46730469 -52.87679687 163.99710938 -53.71484375 164.54296875 C-59.47492632 168.21563678 -65.15282872 171.14717571 -71.5 173.6875 C-72.6240625 174.14511719 -73.748125 174.60273437 -74.90625 175.07421875 C-77.92004127 175.97607296 -79.14331718 176.15527614 -82 175 C-82 175.66 -82 176.32 -82 177 C-91.41002278 178.51708428 -91.41002278 178.51708428 -96 176 C-96.8125 172.75 -96.8125 172.75 -97 169 C-93.28016822 164.38227779 -87.49631125 163.47569772 -82 162 C-79.99255385 161.35610218 -77.99054876 160.69437747 -76 160 C-75.113125 159.690625 -74.22625 159.38125 -73.3125 159.0625 C-71.00930574 158.17342251 -71.00930574 158.17342251 -69.6875 156.64453125 C-67.55493801 154.56627061 -65.22686076 153.17741695 -62.6875 151.625 C-59.42668941 149.59346324 -56.33874083 147.5831325 -53.4375 145.0625 C-51 143 -51 143 -49 143 C-49 142.34 -49 141.68 -49 141 C-44.52941176 137 -44.52941176 137 -42 137 C-41.74347656 136.42507813 -41.48695313 135.85015625 -41.22265625 135.2578125 C-39.88359821 132.78504717 -38.32849133 130.95153746 -36.4375 128.875 C-33.92320784 126.13961955 -33.92320784 126.13961955 -32 123 C-31.34 123 -30.68 123 -30 123 C-29.62488281 121.94039062 -29.62488281 121.94039062 -29.2421875 120.859375 C-27.85872773 117.67480723 -26.11722631 115.09174169 -24.125 112.25 C-21.19235517 107.93603695 -18.74696622 103.76821572 -16.7890625 98.9375 C-15.95838288 96.89781144 -14.99380829 94.96485762 -14 93 C-11.71114393 88.0825358 -9.58166051 83.19688454 -8 78 C-7.649375 76.906875 -7.29875 75.81375 -6.9375 74.6875 C-6.03010443 71.11841075 -5.56846283 67.74309385 -5.21875 64.08984375 C-4.9673381 61.68796224 -4.53176297 59.35495029 -4 57 C-3.34 57 -2.68 57 -2 57 C-2.24943359 55.50146484 -2.24943359 55.50146484 -2.50390625 53.97265625 C-3.2363344 48.85595695 -2.97175787 43.77629759 -2.83984375 38.62109375 C-2.9998028 35.00445868 -3.72688962 32.36430309 -5 29 C-5.34740923 27.00239695 -5.67966043 25.00212229 -6 23 C-6.34761352 21.70655435 -6.70221448 20.41497331 -7.0625 19.125 C-8.12199938 14.8544025 -8.49755247 11.40689327 -8 7 C-6.54809629 4.62231797 -4.99221355 2.99221355 -3 1 C-2.01 1.33 -1.02 1.66 0 2 C0 1.34 0 0.68 0 0 Z M18 66 C17.67 67.2375 17.34 68.475 17 69.75 C16.814375 70.44609375 16.62875 71.1421875 16.4375 71.859375 C15.86650651 74.28901861 15.86650651 74.28901861 16 78 C15.01 78.495 15.01 78.495 14 79 C13.49724713 80.64232604 13.00317392 82.28812596 12.56640625 83.94921875 C11.60944445 87.41408043 10.37508751 90.67687184 9 94 C8.34 94.33 7.68 94.66 7 95 C7 96.32 7 97.64 7 99 C10.75622534 98.32764463 13.55960182 96.63756862 16.8125 94.6875 C17.86566406 94.06101562 18.91882813 93.43453125 20.00390625 92.7890625 C20.99261719 92.19867187 21.98132813 91.60828125 23 91 C25.32730017 89.65568304 27.66318794 88.32773413 30 87 C26.50333565 79.89852704 22.9240283 72.87573101 19 66 C18.67 66 18.34 66 18 66 Z M16 69 C17 71 17 71 17 71 Z " fill="#F26823" transform="translate(529,452)"/>
<path d="M0 0 C0.95841797 -0.00322266 1.91683594 -0.00644531 2.90429688 -0.00976562 C9.19080889 0.03802403 14.27812523 0.38154779 19.4375 4.3125 C25.80343927 12.35368645 26.8125 21.38874936 26.8125 31.3125 C27.1425 31.6425 27.4725 31.9725 27.8125 32.3125 C27.91182153 34.00808726 27.94330007 35.70775747 27.9453125 37.40625 C27.94660156 38.43621094 27.94789063 39.46617187 27.94921875 40.52734375 C27.94535156 41.61144531 27.94148437 42.69554687 27.9375 43.8125 C27.94136719 44.89660156 27.94523438 45.98070312 27.94921875 47.09765625 C27.94728516 48.64259766 27.94728516 48.64259766 27.9453125 50.21875 C27.94418457 51.17072266 27.94305664 52.12269531 27.94189453 53.10351562 C27.8125 55.3125 27.8125 55.3125 26.8125 56.3125 C26.76519645 58.1869032 26.77528649 60.06286933 26.8125 61.9375 C26.86391479 69.17841566 25.83320346 75.36633186 23.8125 82.3125 C23.6475 83.3025 23.4825 84.2925 23.3125 85.3125 C22.4241032 90.64288079 20.8073736 95.43634923 18.59765625 100.35546875 C17.66555587 102.67876373 16.99396972 105.0291646 16.3125 107.4375 C15.23237862 111.15356525 13.95008386 114.06337253 11.8125 117.3125 C11.255625 118.50875 10.69875 119.705 10.125 120.9375 C7.85206449 125.58027912 4.81895958 129.58224363 1.71484375 133.69921875 C-0.23994997 136.28465263 -0.23994997 136.28465263 -1.80859375 139.14453125 C-2.26363281 139.85996094 -2.71867187 140.57539062 -3.1875 141.3125 C-3.8475 141.3125 -4.5075 141.3125 -5.1875 141.3125 C-5.1875 141.9725 -5.1875 142.6325 -5.1875 143.3125 C-7.5625 145.9375 -7.5625 145.9375 -10.1875 148.3125 C-10.8475 148.3125 -11.5075 148.3125 -12.1875 148.3125 C-12.1875 148.9725 -12.1875 149.6325 -12.1875 150.3125 C-12.8475 150.3125 -13.5075 150.3125 -14.1875 150.3125 C-14.5175 150.9725 -14.8475 151.6325 -15.1875 152.3125 C-23.07041318 159.72595929 -33.77712842 165.46509012 -44.1875 168.3125 C-44.8475 167.9825 -45.5075 167.6525 -46.1875 167.3125 C-46.1875 167.9725 -46.1875 168.6325 -46.1875 169.3125 C-49.52083333 169.97916667 -52.85416667 170.64583333 -56.1875 171.3125 C-56.95320313 171.49296875 -57.71890625 171.6734375 -58.5078125 171.859375 C-68.65317127 173.57491672 -79.07224556 173.34223203 -88.1875 168.3125 C-89.21875 167.77625 -90.25 167.24 -91.3125 166.6875 C-91.93125 166.23375 -92.55 165.78 -93.1875 165.3125 C-93.1875 164.6525 -93.1875 163.9925 -93.1875 163.3125 C-93.8475 163.3125 -94.5075 163.3125 -95.1875 163.3125 C-95.1875 162.6525 -95.1875 161.9925 -95.1875 161.3125 C-95.78304688 161.08691406 -96.37859375 160.86132812 -96.9921875 160.62890625 C-101.85723913 157.7116066 -104.32617437 151.0449813 -105.98046875 145.796875 C-106.4682097 143.64054659 -106.85370679 141.49732831 -107.1875 139.3125 C-107.39375 138.384375 -107.6 137.45625 -107.8125 136.5 C-108.60629027 129.75278272 -108.6857604 122.95372517 -107.1875 116.3125 C-107.03410156 115.4875 -106.88070313 114.6625 -106.72265625 113.8125 C-104.92517538 104.30516315 -104.92517538 104.30516315 -103.1875 101.3125 C-101.1171875 100.69140625 -101.1171875 100.69140625 -99.1875 100.3125 C-99.15011719 101.59125 -99.11273438 102.87 -99.07421875 104.1875 C-99.00851258 105.8958604 -98.94206689 107.60419247 -98.875 109.3125 C-98.84116211 110.57126953 -98.84116211 110.57126953 -98.80664062 111.85546875 C-98.20752053 125.90755815 -90.51219327 136.29553211 -81.0078125 146.21875 C-79.1875 148.3125 -79.1875 148.3125 -78.1875 151.3125 C-77.5275 151.3125 -76.8675 151.3125 -76.1875 151.3125 C-74.8984375 152.84375 -74.8984375 152.84375 -73.5625 154.8125 C-73.11648438 155.4621875 -72.67046875 156.111875 -72.2109375 156.78125 C-71.87320313 157.2865625 -71.53546875 157.791875 -71.1875 158.3125 C-66.34536057 157.3208636 -61.71371858 156.34929836 -57.1875 154.3125 C-56.53265625 154.04695312 -55.8778125 153.78140625 -55.203125 153.5078125 C-43.95132573 148.81309625 -32.77929383 140.87786812 -25.4609375 130.9765625 C-25.04070312 130.42742187 -24.62046875 129.87828125 -24.1875 129.3125 C-23.5275 129.3125 -22.8675 129.3125 -22.1875 129.3125 C-21.94 128.77625 -21.6925 128.24 -21.4375 127.6875 C-20.1875 125.3125 -20.1875 125.3125 -18.390625 122.66796875 C-10.46774108 110.85920171 -4.85290728 98.29999131 -2.1875 84.3125 C-1.85416667 82.64583333 -1.52083333 80.97916667 -1.1875 79.3125 C-0.5275 79.3125 0.1325 79.3125 0.8125 79.3125 C0.503125 78.508125 0.503125 78.508125 0.1875 77.6875 C-0.1875 75.3125 -0.1875 75.3125 0.77246094 72.71850586 C2.05526931 68.51745899 2.10020018 64.80441244 2.078125 60.44140625 C2.08003845 59.6008519 2.0819519 58.76029755 2.08392334 57.89427185 C2.0852792 56.12344054 2.08162473 54.3525991 2.07324219 52.58178711 C2.06254753 49.88697725 2.07315084 47.192836 2.0859375 44.49804688 C2.08461554 42.77083188 2.08205238 41.04361729 2.078125 39.31640625 C2.08217346 38.51828018 2.08622192 37.72015411 2.09039307 36.89784241 C2.04983203 32.00223583 1.36842832 27.95981221 -0.1875 23.3125 C-1.23550781 23.65474609 -1.23550781 23.65474609 -2.3046875 24.00390625 C-3.21476562 24.29136719 -4.12484375 24.57882812 -5.0625 24.875 C-5.96742188 25.16503906 -6.87234375 25.45507812 -7.8046875 25.75390625 C-10.1875 26.3125 -10.1875 26.3125 -12.1875 25.3125 C-12.6825 26.7975 -12.6825 26.7975 -13.1875 28.3125 C-13.991875 28.621875 -14.79625 28.93125 -15.625 29.25 C-18.79403819 30.56399145 -18.88363057 31.22222678 -20.1875 34.3125 C-21.44193613 37.70320361 -22.66210066 41.10455639 -23.87109375 44.51171875 C-24.30550781 45.43597656 -24.73992187 46.36023438 -25.1875 47.3125 C-26.6725 47.8075 -26.6725 47.8075 -28.1875 48.3125 C-28.5175 49.3025 -28.8475 50.2925 -29.1875 51.3125 C-36.39684412 51.92346137 -36.39684412 51.92346137 -39.9375 49.1875 C-45.38623359 42.22522931 -47.58545733 37.37884595 -47.46875 28.58203125 C-47.00705294 24.85639245 -45.38255015 22.29149663 -43.1875 19.3125 C-42.79046875 18.75304687 -42.3934375 18.19359375 -41.984375 17.6171875 C-39.42612264 14.26555308 -37.24775 12.47257143 -33.1875 11.3125 C-33.1875 10.6525 -33.1875 9.9925 -33.1875 9.3125 C-31.77421871 8.49412558 -30.35671654 7.68303781 -28.9375 6.875 C-27.75414062 6.19630859 -27.75414062 6.19630859 -26.546875 5.50390625 C-24.35817939 4.39868744 -22.54727871 3.89745152 -20.1875 3.3125 C-18.83587984 2.80176113 -17.48569064 2.28722429 -16.13671875 1.76953125 C-10.73516888 -0.04720292 -5.65412147 -0.09622399 0 0 Z M-25.1875 41.3125 C-24.1875 43.3125 -24.1875 43.3125 -24.1875 43.3125 Z " fill="#F26723" transform="translate(490.1875,419.6875)"/>
<path d="M0 0 C0.7940625 0.01417969 1.588125 0.02835938 2.40625 0.04296875 C3.59734375 0.05263672 3.59734375 0.05263672 4.8125 0.0625 C6.90625 0.23046875 6.90625 0.23046875 8.90625 1.23046875 C8.90625 1.89046875 8.90625 2.55046875 8.90625 3.23046875 C11.64808087 2.74661624 14.10720439 2.15455265 16.71875 1.16796875 C22.28294411 -0.46855893 27.67786188 -0.59568699 32.90625 2.23046875 C34.60919787 3.51714047 36.28571188 4.84143608 37.90625 6.23046875 C38.57720703 5.70646484 38.57720703 5.70646484 39.26171875 5.171875 C42.76750899 2.53318853 45.41878514 0.55100195 49.90625 0.23046875 C50.586875 0.18019531 51.2675 0.12992188 51.96875 0.078125 C58.66682668 -0.20473297 63.46697204 1.1238196 68.65625 5.60546875 C72.92766296 10.58878387 75.04053598 14.79609771 75.01977539 21.35644531 C75.01966209 22.55723724 75.01966209 22.55723724 75.01954651 23.7822876 C75.01438522 24.63659363 75.00922394 25.49089966 75.00390625 26.37109375 C75.0024913 27.25327576 75.00107635 28.13545776 74.99961853 29.04437256 C74.99403001 31.8564394 74.98147961 34.66842605 74.96875 37.48046875 C74.96373352 39.38932177 74.95917087 41.29817603 74.95507812 43.20703125 C74.94406434 47.88154122 74.92680758 52.5559914 74.90625 57.23046875 C71.84091836 58.76313457 68.63870728 58.33323346 65.28125 58.29296875 C64.57484375 58.28845703 63.8684375 58.28394531 63.140625 58.27929688 C61.39579725 58.2675075 59.651013 58.24957199 57.90625 58.23046875 C57.89166748 57.1002832 57.87708496 55.97009766 57.86206055 54.80566406 C57.80404315 50.60840376 57.72681063 46.41167802 57.64379883 42.21484375 C57.61056564 40.39917686 57.58252866 38.58340707 57.55981445 36.76757812 C57.52623859 34.15580433 57.47392238 31.54497221 57.41796875 28.93359375 C57.41157883 28.12303528 57.4051889 27.31247681 57.39860535 26.47735596 C57.31150837 23.13111255 57.14811763 20.66441763 55.50195312 17.7109375 C54.00844742 16.06282075 54.00844742 16.06282075 51.86328125 15.83984375 C51.15558594 15.88625 50.44789062 15.93265625 49.71875 15.98046875 C47.8315625 16.10421875 47.8315625 16.10421875 45.90625 16.23046875 C44.73963048 20.39451639 44.78048937 24.42027555 44.80859375 28.71484375 C44.81071617 29.93823456 44.81071617 29.93823456 44.81288147 31.18634033 C44.81846697 33.78442087 44.83101679 36.38241438 44.84375 38.98046875 C44.84876688 40.74479042 44.85332946 42.50911344 44.85742188 44.2734375 C44.86843165 48.59248131 44.88568631 52.91146029 44.90625 57.23046875 C41.87195323 58.74761714 38.73023333 58.37410791 35.40625 58.35546875 C34.71660156 58.35933594 34.02695313 58.36320313 33.31640625 58.3671875 C28.15958293 58.35713521 28.15958293 58.35713521 25.90625 57.23046875 C25.91148682 56.09504639 25.91672363 54.95962402 25.92211914 53.78979492 C25.94021038 49.57984199 25.95169714 45.36989251 25.96118164 41.15991211 C25.9662124 39.33731509 25.97303769 37.5147221 25.98168945 35.69213867 C25.99380997 33.07339481 25.99949086 30.45470428 26.00390625 27.8359375 C26.00906754 27.02021774 26.01422882 26.20449799 26.01954651 25.36405945 C26.0198746 22.06032946 25.95850621 19.38723737 24.90625 16.23046875 C19.58454506 15.93484508 19.58454506 15.93484508 14.90625 18.23046875 C14.59309624 21.1097277 14.46525364 23.78490584 14.46484375 26.66796875 C14.45163589 27.50384521 14.43842804 28.33972168 14.42481995 29.20092773 C14.3838304 31.87747515 14.36222552 34.55367787 14.34375 37.23046875 C14.31999669 39.90715488 14.29192656 42.58351453 14.25196838 45.26000977 C14.22753521 46.92704904 14.21273868 48.59426204 14.20835876 50.26147461 C14.13076908 56.00594967 14.13076908 56.00594967 11.90625 58.23046875 C9.34332683 58.40210606 6.90279143 58.46311433 4.34375 58.41796875 C3.64572266 58.41732422 2.94769531 58.41667969 2.22851562 58.41601562 C-2.95343842 58.37078033 -2.95343842 58.37078033 -4.09375 57.23046875 C-4.19778846 55.52274453 -4.23228224 53.81073069 -4.23901367 52.09985352 C-4.24539352 51.00524307 -4.25177338 49.91063263 -4.25834656 48.78285217 C-4.25945938 47.59122971 -4.2605722 46.39960724 -4.26171875 45.171875 C-4.26504715 43.95725082 -4.26837555 42.74262665 -4.27180481 41.49119568 C-4.27687923 38.91625346 -4.27921298 36.34130464 -4.27905273 33.76635742 C-4.28123863 29.81352978 -4.29938762 25.8609813 -4.31835938 21.90820312 C-4.32129322 19.41276138 -4.32327808 16.9173183 -4.32421875 14.421875 C-4.33140427 13.23227676 -4.33858978 12.04267853 -4.34599304 10.81703186 C-4.3413781 9.17038795 -4.3413781 9.17038795 -4.33666992 7.49047852 C-4.33809494 6.52086685 -4.33951996 5.55125519 -4.34098816 4.55226135 C-4.01032486 1.44703035 -3.15535182 0.34732417 0 0 Z " fill="#F36721" transform="translate(1055.09375,575.76953125)"/>
<path d="M0 0 C0.77666016 -0.03287109 1.55332031 -0.06574219 2.35351562 -0.09960938 C4.62109375 -0.12109375 4.62109375 -0.12109375 8.5625 0.4375 C11.58131173 3.97142643 12.35245343 8.00066258 13.5625 12.4375 C14.20496537 13.78266187 14.87588218 15.11433025 15.5625 16.4375 C18.89355002 23.28517385 21.96185496 29.98513486 23.96875 37.34375 C24.57077263 39.62380094 24.57077263 39.62380094 25.8125 42.4375 C26.06 43.0975 26.3075 43.7575 26.5625 44.4375 C26.0675 45.4275 26.0675 45.4275 25.5625 46.4375 C27.0475 46.9325 27.0475 46.9325 28.5625 47.4375 C29.44140625 49.80078125 29.44140625 49.80078125 30.125 52.75 C31.08490329 56.83102029 31.08490329 56.83102029 32.71484375 60.66796875 C32.99457031 61.25191406 33.27429688 61.83585938 33.5625 62.4375 C33.0675 63.4275 33.0675 63.4275 32.5625 64.4375 C34.0475 64.9325 34.0475 64.9325 35.5625 65.4375 C36.4765625 67.3984375 36.4765625 67.3984375 37.1875 69.8125 C37.42726563 70.60398437 37.66703125 71.39546875 37.9140625 72.2109375 C38.12804687 72.94570313 38.34203125 73.68046875 38.5625 74.4375 C38.8925 75.4275 39.2225 76.4175 39.5625 77.4375 C34.4533773 79.99206135 27.0857534 79.20713367 21.5625 78.4375 C18.52667107 76.27562182 17.65636354 73.92645813 16.5625 70.4375 C15.5725 67.4675 14.5825 64.4975 13.5625 61.4375 C4.6525 61.4375 -4.2575 61.4375 -13.4375 61.4375 C-14.4275 64.4075 -14.4275 64.4075 -15.4375 67.4375 C-15.90565566 68.83706481 -16.38339211 70.2334997 -16.875 71.625 C-17.10058594 72.27855469 -17.32617188 72.93210937 -17.55859375 73.60546875 C-18.66282683 75.90718127 -19.29113877 76.99486376 -21.4375 78.4375 C-24.21526762 78.70857281 -26.73087834 78.81120959 -29.5 78.75 C-30.59924805 78.75483398 -30.59924805 78.75483398 -31.72070312 78.75976562 C-37.17028061 78.70471939 -37.17028061 78.70471939 -39.4375 76.4375 C-38.90125 75.2825 -38.365 74.1275 -37.8125 72.9375 C-34.96895824 66.55218025 -32.59450878 59.99113068 -30.17724609 53.43603516 C-29.40771228 51.35702399 -28.62852775 49.28180826 -27.84765625 47.20703125 C-27.07775356 45.15887504 -26.32203081 43.11033729 -25.59375 41.046875 C-24.56824806 38.14128616 -23.6972892 35.77722434 -21.8125 33.3125 C-20.23139691 31.45403041 -20.23139691 31.45403041 -20 28.75 C-19.38656661 25.13755891 -18.16018526 22.44670027 -16.6171875 19.15234375 C-14.66606643 14.66218102 -13.15564095 10.01303076 -11.5859375 5.37890625 C-9.26001207 -0.57831093 -5.71377195 0.04246404 0 0 Z M-0.4375 23.4375 C-1.60921756 26.72739086 -2.77401088 30.01969102 -3.9375 33.3125 C-4.27136719 34.24964844 -4.60523438 35.18679688 -4.94921875 36.15234375 C-5.42294922 37.49619141 -5.42294922 37.49619141 -5.90625 38.8671875 C-6.19951172 39.69460449 -6.49277344 40.52202148 -6.79492188 41.37451172 C-7.53662901 43.39562785 -7.53662901 43.39562785 -7.4375 45.4375 C-2.4875 45.4375 2.4625 45.4375 7.5625 45.4375 C7.5625 43.4575 7.5625 41.4775 7.5625 39.4375 C6.9025 38.7775 6.2425 38.1175 5.5625 37.4375 C4.78125 35.44921875 4.78125 35.44921875 4.0625 33.125 C3.01689825 29.83427369 1.89897729 26.62448431 0.5625 23.4375 C0.2325 23.4375 -0.0975 23.4375 -0.4375 23.4375 Z M8.5625 44.4375 C9.5625 46.4375 9.5625 46.4375 9.5625 46.4375 Z M-18.4375 69.4375 C-17.4375 71.4375 -17.4375 71.4375 -17.4375 71.4375 Z " fill="#F36822" transform="translate(794.4375,555.5625)"/>
<path d="M0 0 C0.65260803 -0.00095673 1.30521606 -0.00191345 1.9776001 -0.00289917 C3.3629974 -0.00358114 4.74839786 -0.00172567 6.13378906 0.00244141 C8.24291297 0.00775528 10.35182056 0.00251495 12.4609375 -0.00390625 C13.80729213 -0.0032448 15.15364663 -0.00196225 16.5 0 C17.72428711 0.00112793 18.94857422 0.00225586 20.20996094 0.00341797 C23.12710917 0.11760472 25.68197725 0.47773485 28.515625 1.1328125 C30.371875 1.4421875 30.371875 1.4421875 32.265625 1.7578125 C38.26504742 3.30311828 43.38833743 7.09967445 46.9375 12.16015625 C48.97817088 16.01229222 50.20994559 19.75140763 50.515625 24.1328125 C50.020625 25.6178125 50.020625 25.6178125 49.515625 27.1328125 C49.76505859 28.08220703 49.76505859 28.08220703 50.01953125 29.05078125 C50.96131738 33.00331672 49.17611753 36.55822495 47.515625 40.1328125 C44.13575118 45.36089527 40.14532258 48.56488027 34.515625 51.1328125 C30.890625 51.8203125 30.890625 51.8203125 27.515625 52.1328125 C25.040625 52.6278125 25.040625 52.6278125 22.515625 53.1328125 C18.885625 53.1328125 15.255625 53.1328125 11.515625 53.1328125 C11.515625 61.3828125 11.515625 69.6328125 11.515625 78.1328125 C10.855625 78.1328125 10.195625 78.1328125 9.515625 78.1328125 C9.515625 78.7928125 9.515625 79.4528125 9.515625 80.1328125 C4.235625 80.1328125 -1.044375 80.1328125 -6.484375 80.1328125 C-6.484375 79.4728125 -6.484375 78.8128125 -6.484375 78.1328125 C-7.144375 77.8028125 -7.804375 77.4728125 -8.484375 77.1328125 C-8.37703769 67.24084261 -8.26443824 57.34894818 -8.14503574 47.45711613 C-8.08976535 42.86442072 -8.03633891 38.271719 -7.98706055 33.67895508 C-7.93947753 29.25041919 -7.88713719 24.82196321 -7.83143425 20.39352226 C-7.81098313 18.70017919 -7.7922747 17.00681419 -7.77530098 15.31343269 C-7.75131772 12.94984087 -7.72125534 10.58640146 -7.68969727 8.22290039 C-7.6839418 7.51583954 -7.67818634 6.80877869 -7.67225647 6.08029175 C-7.57117715 -0.53712793 -6.40550208 0.00592319 0 0 Z M11.515625 15.1328125 C11.52086182 15.78878418 11.52609863 16.44475586 11.53149414 17.12060547 C11.55223772 20.08299813 11.56527676 23.04537553 11.578125 26.0078125 C11.58650391 27.04035156 11.59488281 28.07289063 11.60351562 29.13671875 C11.60673828 30.12285156 11.60996094 31.10898437 11.61328125 32.125 C11.61851807 33.03620605 11.62375488 33.94741211 11.62915039 34.88623047 C11.515625 37.1328125 11.515625 37.1328125 10.515625 39.1328125 C18.62197905 39.81465536 23.79589947 38.77854867 30.515625 34.1328125 C30.515625 32.8128125 30.515625 31.4928125 30.515625 30.1328125 C31.175625 30.1328125 31.835625 30.1328125 32.515625 30.1328125 C32.83343487 25.77106126 32.83343487 25.77106126 31.078125 21.8828125 C30.5625 21.3053125 30.046875 20.7278125 29.515625 20.1328125 C29.185625 19.4728125 28.855625 18.8128125 28.515625 18.1328125 C24.54642383 15.41704328 21.47415078 14.97052541 16.7890625 15.046875 C15.80083496 15.05928223 14.81260742 15.07168945 13.79443359 15.08447266 C12.66642334 15.10840088 12.66642334 15.10840088 11.515625 15.1328125 Z " fill="#F26822" transform="translate(771.484375,449.8671875)"/>
<path d="M0 0 C0.74572266 -0.00386719 1.49144531 -0.00773438 2.25976562 -0.01171875 C7.81086499 -0.00163501 7.81086499 -0.00163501 8.9375 1.125 C9.03248646 3.55896019 9.06308417 5.96442952 9.05102539 8.39868164 C9.05117142 9.15960617 9.05131744 9.9205307 9.0514679 10.70451355 C9.05076862 13.23142298 9.04297555 15.75825962 9.03515625 18.28515625 C9.03329212 20.0325059 9.0318682 21.77985607 9.03086853 23.52720642 C9.02704293 28.13531934 9.01721229 32.74340095 9.00616455 37.35150146 C8.99595134 42.05008521 8.9913711 46.74867399 8.98632812 51.44726562 C8.97559005 60.67319087 8.95851313 69.89909284 8.9375 79.125 C6.24643093 80.47053453 4.06584578 80.33094114 1.0625 80.375 C0.01320313 80.40078125 -1.03609375 80.4265625 -2.1171875 80.453125 C-5.36806586 80.09095818 -6.68600767 79.30632146 -9.0625 77.125 C-10.7021875 78.115 -10.7021875 78.115 -12.375 79.125 C-18.78269373 82.31748571 -25.10129882 81.95025279 -31.875 80.0625 C-38.23018666 76.1995434 -42.78019857 70.18296677 -44.625 62.90625 C-45.16178758 59.49381468 -45.23248311 56.20433102 -45.25 52.75 C-45.26417969 51.48414063 -45.27835938 50.21828125 -45.29296875 48.9140625 C-44.91250805 42.65903059 -43.00537881 37.60945597 -40.0625 32.125 C-39.4025 32.125 -38.7425 32.125 -38.0625 32.125 C-37.7325 30.805 -37.4025 29.485 -37.0625 28.125 C-36.423125 28.00125 -35.78375 27.8775 -35.125 27.75 C-34.444375 27.54375 -33.76375 27.3375 -33.0625 27.125 C-32.7325 26.465 -32.4025 25.805 -32.0625 25.125 C-26.37681793 21.01867406 -19.76953327 21.64327938 -13.0625 22.125 C-12.4025 22.455 -11.7425 22.785 -11.0625 23.125 C-10.7325 15.865 -10.4025 8.605 -10.0625 1.125 C-6.88856311 -0.46196844 -3.48075795 -0.0181447 0 0 Z M-26.0625 40.125 C-27.26620117 43.27439633 -27.26620117 43.27439633 -27.0625 47.125 C-27.10890625 48.011875 -27.1553125 48.89875 -27.203125 49.8125 C-27.41449037 55.36838977 -27.24496545 59.35130182 -24.0625 64.125 C-22.27592243 66.33870051 -22.27592243 66.33870051 -19.8984375 66.3203125 C-18.68027344 66.28550781 -18.68027344 66.28550781 -17.4375 66.25 C-16.62023437 66.23195313 -15.80296875 66.21390625 -14.9609375 66.1953125 C-14.02121094 66.16050781 -14.02121094 66.16050781 -13.0625 66.125 C-13.0625 65.465 -13.0625 64.805 -13.0625 64.125 C-12.0725 63.795 -11.0825 63.465 -10.0625 63.125 C-10.0625 54.875 -10.0625 46.625 -10.0625 38.125 C-16.64449503 35.49220199 -20.43871941 35.8882505 -26.0625 40.125 Z " fill="#F36421" transform="translate(979.0625,553.875)"/>
<path d="M0 0 C6.94170022 -0.05058729 13.88335315 -0.08568579 20.82519531 -0.10986328 C23.18816911 -0.11993924 25.55113039 -0.13360029 27.9140625 -0.15087891 C31.30471888 -0.17505724 34.69521084 -0.18646699 38.0859375 -0.1953125 C39.14743011 -0.20563507 40.20892273 -0.21595764 41.30258179 -0.22659302 C42.77388046 -0.22681961 42.77388046 -0.22681961 44.27490234 -0.22705078 C45.14094086 -0.231492 46.00697937 -0.23593323 46.89926147 -0.24050903 C49 0 49 0 51 2 C51.1953125 5.0390625 51.1953125 5.0390625 51.125 8.625 C51.10695313 9.81351562 51.08890625 11.00203125 51.0703125 12.2265625 C51.04710937 13.14179688 51.02390625 14.05703125 51 15 C48.02640551 16.48679725 45.33700821 16.11112605 42.0234375 16.09765625 C40.99556625 16.09553383 40.99556625 16.09553383 39.94692993 16.09336853 C37.75624239 16.08776675 35.5656567 16.07521406 33.375 16.0625 C31.89062648 16.05748522 30.40625135 16.05292228 28.921875 16.04882812 C25.2811791 16.03864721 21.64070369 16.01907237 18 16 C18 21.61 18 27.22 18 33 C20.78050781 32.96519531 20.78050781 32.96519531 23.6171875 32.9296875 C26.03645432 32.91093349 28.45572548 32.8927329 30.875 32.875 C32.09832031 32.85824219 33.32164063 32.84148437 34.58203125 32.82421875 C35.74863281 32.81777344 36.91523437 32.81132812 38.1171875 32.8046875 C39.19597168 32.79421387 40.27475586 32.78374023 41.38623047 32.77294922 C44 33 44 33 46 35 C46.1953125 38.0390625 46.1953125 38.0390625 46.125 41.625 C46.10695313 42.81351562 46.08890625 44.00203125 46.0703125 45.2265625 C46.04710937 46.14179688 46.02390625 47.05703125 46 48 C43.28598706 49.35700647 41.15153684 49.1123861 38.1171875 49.09765625 C36.95058594 49.09443359 35.78398438 49.09121094 34.58203125 49.08789062 C33.35871094 49.07951172 32.13539062 49.07113281 30.875 49.0625 C29.64394531 49.05798828 28.41289063 49.05347656 27.14453125 49.04882812 C24.09630608 49.0370133 21.04817686 49.02054028 18 49 C18.01047363 49.86802246 18.02094727 50.73604492 18.03173828 51.63037109 C18.06579716 54.84699528 18.09088767 58.06352767 18.10986328 61.28027344 C18.11992877 62.67320781 18.13358234 64.06612102 18.15087891 65.45898438 C18.1751022 67.4595436 18.18540814 69.46025615 18.1953125 71.4609375 C18.20578613 72.66540527 18.21625977 73.86987305 18.22705078 75.11083984 C18 78 18 78 16 80 C13.25514407 80.14507695 10.61519457 80.18652423 7.875 80.125 C7.12089844 80.11597656 6.36679688 80.10695313 5.58984375 80.09765625 C3.72642746 80.0740687 1.86317407 80.03819719 0 80 C0 79.34 0 78.68 0 78 C-0.66 78 -1.32 78 -2 78 C-2 52.92 -2 27.84 -2 2 C-1.34 2 -0.68 2 0 2 C0 1.34 0 0.68 0 0 Z " fill="#F36B20" transform="translate(1186,450)"/>
<path d="M0 0 C1.625 0.828125 1.625 0.828125 3.875 2.328125 C3.875 2.988125 3.875 3.648125 3.875 4.328125 C4.865 4.658125 5.855 4.988125 6.875 5.328125 C12.81861866 11.45185332 13.17238284 18.46492298 13.0703125 26.54296875 C13.0674826 27.39870987 13.06465271 28.25445099 13.06173706 29.13612366 C13.05061935 31.84610491 13.02553082 34.55574509 13 37.265625 C12.98995931 39.11262541 12.98083537 40.95963104 12.97265625 42.80664062 C12.95070763 47.31393177 12.91623654 51.82097073 12.875 56.328125 C12.215 56.328125 11.555 56.328125 10.875 56.328125 C10.875 56.988125 10.875 57.648125 10.875 58.328125 C5.925 58.328125 0.975 58.328125 -4.125 58.328125 C-4.125 57.668125 -4.125 57.008125 -4.125 56.328125 C-4.785 56.328125 -5.445 56.328125 -6.125 56.328125 C-6.13958252 55.12687988 -6.15416504 53.92563477 -6.16918945 52.68798828 C-6.22705992 48.24106727 -6.30429262 43.79465866 -6.38745117 39.34814453 C-6.42075369 37.42179669 -6.44876889 35.49535001 -6.47143555 33.56884766 C-6.50488424 30.8032815 -6.55719336 28.03862547 -6.61328125 25.2734375 C-6.61967117 24.4088089 -6.6260611 23.5441803 -6.63264465 22.65335083 C-6.66420053 19.97548837 -6.66420053 19.97548837 -7.125 16.328125 C-9.94361771 13.99990942 -9.94361771 13.99990942 -13.125 14.578125 C-16.27915418 15.18798483 -16.27915418 15.18798483 -19.125 17.328125 C-19.43825873 20.19594088 -19.5659964 22.85881744 -19.56640625 25.73046875 C-19.57961411 26.56397354 -19.59282196 27.39747833 -19.60643005 28.25624084 C-19.64741834 30.92606924 -19.6690195 33.5955526 -19.6875 36.265625 C-19.71127495 38.93202123 -19.73939351 41.59809165 -19.77928162 44.26429749 C-19.8036587 45.92469446 -19.81850095 47.58526424 -19.82289124 49.24583435 C-19.87520144 53.11831539 -19.92777677 55.03229015 -22.125 58.328125 C-24.75197064 58.54949893 -27.13393964 58.60974525 -29.75 58.515625 C-30.45640625 58.50208984 -31.1628125 58.48855469 -31.890625 58.47460938 C-33.63574128 58.4392354 -35.38046608 58.38542721 -37.125 58.328125 C-37.125 57.668125 -37.125 57.008125 -37.125 56.328125 C-37.785 56.328125 -38.445 56.328125 -39.125 56.328125 C-39.125 38.178125 -39.125 20.028125 -39.125 1.328125 C-36.43393093 -0.01740953 -34.25334578 0.12218386 -31.25 0.078125 C-30.20070313 0.05234375 -29.15140625 0.0265625 -28.0703125 0 C-24.81943414 0.36216682 -23.50149233 1.14680354 -21.125 3.328125 C-20.135 2.668125 -19.145 2.008125 -18.125 1.328125 C-17.465 1.658125 -16.805 1.988125 -16.125 2.328125 C-16.125 1.668125 -16.125 1.008125 -16.125 0.328125 C-11.66129461 -1.90372769 -4.69137829 -1.48330343 0 0 Z " fill="#F36621" transform="translate(1063.125,471.671875)"/>
<path d="M0 0 C7.53849044 0 12.39603931 0.93329747 17.8984375 6.18359375 C22.86172556 11.54191903 25.05632292 16.03292546 25.6875 23.375 C25.78546875 24.39722656 25.8834375 25.41945313 25.984375 26.47265625 C25.93571588 29.42058823 25.57204162 30.88867629 23.9375 33.3125 C20.96390551 34.79929725 18.27450821 34.42362605 14.9609375 34.41015625 C13.93306625 34.40803383 13.93306625 34.40803383 12.88442993 34.40586853 C10.69374239 34.40026675 8.5031567 34.38771406 6.3125 34.375 C4.82812648 34.36998522 3.34375135 34.36542228 1.859375 34.36132812 C-1.78128315 34.35029677 -5.42188164 34.33303099 -9.0625 34.3125 C-8.63582031 35.42625 -8.20914063 36.54 -7.76953125 37.6875 C-7.52952393 38.31398438 -7.2895166 38.94046875 -7.04223633 39.5859375 C-6.02745877 41.70238426 -6.02745877 41.70238426 -2.75 43.3125 C4.52603123 45.28566101 10.27272789 42.14436957 16.9375 39.3125 C23.64209519 44.4065919 23.64209519 44.4065919 24.875 48.1875 C24.895625 48.88875 24.91625 49.59 24.9375 50.3125 C17.19347585 57.79760541 8.94964645 59.16513364 -1.5625 59.5625 C-8.69074814 59.44002151 -14.22594021 56.92124823 -19.45703125 52.12109375 C-23.55794172 47.50133329 -26.07336892 42.38859091 -27.0625 36.3125 C-27.19011719 35.53390625 -27.31773437 34.7553125 -27.44921875 33.953125 C-28.53271565 25.34143534 -27.47609441 18.43131853 -22.546875 11.16796875 C-18.4968131 6.10539137 -14.39901342 2.97206304 -8.0625 1.3125 C-6.10291017 -0.64708983 -2.59312282 0.04854122 0 0 Z M2.9375 13.3125 C-1.02082823 13.87797546 -3.85810679 14.88755379 -7.0625 17.3125 C-7.7225 18.9625 -8.3825 20.6125 -9.0625 22.3125 C-3.1225 22.3125 2.8175 22.3125 8.9375 22.3125 C8.2775 20.3325 7.6175 18.3525 6.9375 16.3125 C5.9475 15.9825 4.9575 15.6525 3.9375 15.3125 C3.6075 14.6525 3.2775 13.9925 2.9375 13.3125 Z M-26.0625 19.3125 C-25.0625 21.3125 -25.0625 21.3125 -25.0625 21.3125 Z " fill="#F36822" transform="translate(1020.0625,575.6875)"/>
<path d="M0 0 C1.8871875 -0.00386719 1.8871875 -0.00386719 3.8125 -0.0078125 C7 0.125 7 0.125 9 1.125 C9 1.785 9 2.445 9 3.125 C9.99 2.795 10.98 2.465 12 2.125 C17.37422919 4.71092618 21.46877757 9.08199347 24.16796875 14.3359375 C25.88700867 20.098353 25.35228078 26.18319748 25 32.125 C21.35783305 34.42322325 18.29174993 34.35628602 14.046875 34.3203125 C13.38665344 34.3174826 12.72643188 34.31465271 12.04620361 34.31173706 C9.94728103 34.30058415 7.84879258 34.27548946 5.75 34.25 C4.32292285 34.23996384 2.89583898 34.2308391 1.46875 34.22265625 C-2.02097328 34.20066111 -5.51044423 34.16616536 -9 34.125 C-8.19030232 37.99998177 -6.69670342 40.19035216 -4 43.125 C0.13047665 44.50182555 3.94097886 45.07103674 8.0234375 43.1953125 C8.69632813 42.82148437 9.36921875 42.44765625 10.0625 42.0625 C13.09976963 40.37512799 13.84709729 40.11407838 17.5 40.375 C18.325 40.6225 19.15 40.87 20 41.125 C20.33 42.115 20.66 43.105 21 44.125 C21.99 44.455 22.98 44.785 24 45.125 C24.495 47.6 24.495 47.6 25 50.125 C24.34 50.125 23.68 50.125 23 50.125 C22.67 51.115 22.34 52.105 22 53.125 C19.92578125 54.4765625 19.92578125 54.4765625 17.3125 55.75 C16.03826172 56.38808594 16.03826172 56.38808594 14.73828125 57.0390625 C6.71586314 60.22056355 -3.97691084 60.77037456 -12 57.4375 C-15.71209506 55.5165079 -18.36035073 53.36069911 -21 50.125 C-21 49.465 -21 48.805 -21 48.125 C-21.66 47.795 -22.32 47.465 -23 47.125 C-25.29659733 43.81789984 -26.37533013 41.08124249 -27 37.125 C-27.495 35.64 -27.495 35.64 -28 34.125 C-28.39200325 28.74635077 -28.450631 24.026262 -26 19.125 C-25.62875 17.701875 -25.62875 17.701875 -25.25 16.25 C-22.72266007 9.93165017 -17.95628184 5.30168365 -12 2.125 C-11.01 2.455 -10.02 2.785 -9 3.125 C-9 2.465 -9 1.805 -9 1.125 C-6.02760209 -0.36119895 -3.30380422 -0.00677009 0 0 Z M-5 14.125 C-6.32 16.435 -7.64 18.745 -9 21.125 C-3.39 21.125 2.22 21.125 8 21.125 C8.33 20.135 8.66 19.145 9 18.125 C7.90241493 17.28301693 6.79664683 16.45169329 5.6875 15.625 C4.76517578 14.92890625 4.76517578 14.92890625 3.82421875 14.21875 C0.94946976 12.49513176 -2.03443376 12.77701534 -5 14.125 Z " fill="#F36622" transform="translate(849,470.875)"/>
<path d="M0 0 C1.30453125 -0.02578125 2.6090625 -0.0515625 3.953125 -0.078125 C7.99273152 0.2709768 10.28427552 1.21278235 13.75 3.25 C14.44867187 3.63542969 15.14734375 4.02085937 15.8671875 4.41796875 C17.49479167 5.36197917 19.12239583 6.30598958 20.75 7.25 C20.75 8.24 20.75 9.23 20.75 10.25 C21.74 10.58 22.73 10.91 23.75 11.25 C24.8125 13.4375 24.8125 13.4375 25.75 16.25 C26.3378125 17.7659375 26.3378125 17.7659375 26.9375 19.3125 C27.74408342 22.22860928 27.81510653 23.48072302 26.75 26.25 C27.41 26.25 28.07 26.25 28.75 26.25 C28.82438448 30.11799305 28.829056 33.53325155 27.75 37.25 C27.646875 38.178125 27.54375 39.10625 27.4375 40.0625 C26.56945382 44.08707776 24.91423554 46.75929752 22.75 50.25 C22.09 50.25 21.43 50.25 20.75 50.25 C20.42 51.24 20.09 52.23 19.75 53.25 C12.56372886 59.17867369 4.04809023 59.80127484 -5.03515625 59.62109375 C-12.13059508 58.80205768 -17.33605709 55.57253456 -22.1875 50.4375 C-29.19518095 41.47956821 -29.08767687 32.18331501 -28.25 21.25 C-27.23046875 18.23046875 -27.23046875 18.23046875 -26.25 16.25 C-25.59 16.25 -24.93 16.25 -24.25 16.25 C-24.58 15.26 -24.91 14.27 -25.25 13.25 C-21.45913435 6.79492458 -16.08478292 3.71386268 -9.25 1.25 C-6.21764223 -0.26617889 -3.37074987 0.03965588 0 0 Z M-3.25 14.25 C-3.25 14.91 -3.25 15.57 -3.25 16.25 C-4.178125 16.4046875 -4.178125 16.4046875 -5.125 16.5625 C-7.61526484 17.12525373 -7.61526484 17.12525373 -9.25 20.25 C-9.41713569 22.87531524 -9.41713569 22.87531524 -9.25 25.25 C-9.91 25.25 -10.57 25.25 -11.25 25.25 C-11.78375705 31.65508456 -11.25981998 36.99297849 -7.25 42.25 C-6.26 42.58 -5.27 42.91 -4.25 43.25 C-3.92 43.91 -3.59 44.57 -3.25 45.25 C1.20768233 45.68702768 3.09650802 45.76445113 6.6875 42.9375 C9.05440939 40.41796326 9.05440939 40.41796326 8.75 37.25 C9.41 36.92 10.07 36.59 10.75 36.25 C10.63521587 34.18690624 10.50773802 32.12451646 10.375 30.0625 C10.30539062 28.91394531 10.23578125 27.76539063 10.1640625 26.58203125 C9.59914388 22.03603521 8.70546192 19.23200253 5.5 15.9375 C2.29677695 13.97188585 0.4414299 13.90661117 -3.25 14.25 Z " fill="#F36722" transform="translate(991.25,470.75)"/>
<path d="M0 0 C6.12905548 3.72550431 11.6065494 7.56272924 13.71875 14.69140625 C16.1484122 26.33353764 16.1484122 26.33353764 13.6184082 30.55664062 C10.37081615 33.73736953 8.5093788 33.58928018 4.015625 33.64453125 C3.3332074 33.65965256 2.65078979 33.67477386 1.94769287 33.69035339 C-0.22270845 33.73319394 -2.39171823 33.74206339 -4.5625 33.75 C-6.03779732 33.77314763 -7.51306161 33.79851355 -8.98828125 33.82617188 C-12.59632732 33.88898374 -16.20390916 33.92135064 -19.8125 33.9375 C-17.39056027 39.43780823 -17.39056027 39.43780823 -12.8125 42.9375 C-8.06272444 43.68455208 -4.25007792 43.51338199 -0.125 40.9375 C3.41338742 38.80111515 5.14755861 38.54335938 9.1875 38.9375 C9.1875 39.5975 9.1875 40.2575 9.1875 40.9375 C9.8475 40.9375 10.5075 40.9375 11.1875 40.9375 C11.1875 41.9275 11.1875 42.9175 11.1875 43.9375 C12.1775 44.2675 13.1675 44.5975 14.1875 44.9375 C13.35476766 48.91611006 12.25973269 51.24769829 9.0625 53.6875 C0.98852177 58.81200455 -8.51737789 58.91490506 -17.8125 57.9375 C-22.96821908 56.25979417 -26.77536582 54.49320127 -29.8125 49.9375 C-30.43125 49.421875 -31.05 48.90625 -31.6875 48.375 C-37.76244706 41.40667837 -38.37953178 33.48373347 -38.15234375 24.5234375 C-37.71331271 19.89090313 -36.61325158 16.214285 -34.8125 11.9375 C-34.1525 11.9375 -33.4925 11.9375 -32.8125 11.9375 C-32.6475 11.23625 -32.4825 10.535 -32.3125 9.8125 C-29.69664777 4.79878323 -25.12448877 1.87112712 -19.94921875 -0.21875 C-13.39826926 -1.98089831 -6.51271245 -1.81501822 0 0 Z M-14.625 13.5625 C-18.20286062 15.70535718 -18.20286062 15.70535718 -18.8125 19.9375 C-13.2025 19.9375 -7.5925 19.9375 -1.8125 19.9375 C-1.52034764 17.02237297 -1.52034764 17.02237297 -2.9375 15.375 C-6.94945232 12.29916988 -10.06000223 11.17220342 -14.625 13.5625 Z " fill="#F36622" transform="translate(1522.8125,472.0625)"/>
<path d="M0 0 C5.96423315 2.31090063 10.10927273 6.42447466 13.0871582 12.0559082 C14.38951231 16.25625273 14.26590427 20.23309331 14.23046875 24.60546875 C14.23001053 25.52588455 14.22955231 26.44630035 14.2290802 27.39460754 C14.22606683 29.33364151 14.21820802 31.27267325 14.20581055 33.21166992 C14.18750047 36.18742387 14.18530137 39.16286735 14.18554688 42.13867188 C14.18063333 44.0234402 14.17480573 45.90820642 14.16796875 47.79296875 C14.16685593 48.68565964 14.1657431 49.57835052 14.16459656 50.49809265 C14.15821671 51.32267471 14.15183685 52.14725677 14.14526367 52.99682617 C14.13954597 54.08673103 14.13954597 54.08673103 14.13371277 55.19865417 C14 57 14 57 13 59 C10.54137599 59.05383848 8.0839245 59.09359038 5.625 59.125 C4.92632813 59.14175781 4.22765625 59.15851562 3.5078125 59.17578125 C1.67102514 59.19344267 -0.16601963 59.10303261 -2 59 C-4 57 -4 57 -4.16357422 53.33227539 C-4.13612036 51.75389045 -4.09916239 50.17565331 -4.0546875 48.59765625 C-4.0293957 46.88607578 -4.00467373 45.17448681 -3.98046875 43.46289062 C-3.93079159 40.75892859 -3.87482488 38.05540393 -3.80810547 35.35180664 C-3.74777025 32.74622774 -3.71217688 30.14121 -3.6796875 27.53515625 C-3.65276825 26.7257106 -3.625849 25.91626495 -3.59811401 25.08229065 C-3.52982475 22.53893112 -3.52982475 22.53893112 -4 19 C-5.88832288 17.05638032 -5.88832288 17.05638032 -8 16 C-8 15.34 -8 14.68 -8 14 C-11.95199987 15.16763633 -14.7725527 16.46414855 -18 19 C-18.66 19 -19.32 19 -20 19 C-20 32.2 -20 45.4 -20 59 C-24.95 59 -29.9 59 -35 59 C-37 57 -37 57 -37.24050903 54.67147827 C-37.23606781 53.6988504 -37.23162659 52.72622253 -37.22705078 51.72412109 C-37.22689972 50.6231308 -37.22674866 49.5221405 -37.22659302 48.38778687 C-37.21627045 47.19505157 -37.20594788 46.00231628 -37.1953125 44.7734375 C-37.1924826 43.55548492 -37.18965271 42.33753235 -37.18673706 41.08267212 C-37.17551256 37.18001617 -37.15040372 33.27758697 -37.125 29.375 C-37.11497314 26.73437831 -37.10584678 24.09375303 -37.09765625 21.453125 C-37.07556581 14.9686722 -37.04206592 8.4843523 -37 2 C-33.08729537 0.04364769 -28.2758022 0.6303341 -24 1 C-20.8125 2.5 -20.8125 2.5 -19 4 C-18.21625 3.525625 -17.4325 3.05125 -16.625 2.5625 C-11.1608388 -0.6899769 -6.30093224 -0.70273555 0 0 Z M-22 5 C-21 7 -21 7 -21 7 Z " fill="#F36823" transform="translate(1418,471)"/>
<path d="M0 0 C0.66 0.33 1.32 0.66 2 1 C2 1.66 2 2.32 2 3 C2.66 3 3.32 3 4 3 C6.28495717 5.55915204 7.37186237 7.64993266 8 11 C8.20625 11.70125 8.4125 12.4025 8.625 13.125 C9 15 9 15 8 17 C8.66 17 9.32 17 10 17 C10 28.88 10 40.76 10 53 C9.34 53 8.68 53 8 53 C8 53.66 8 54.32 8 55 C4.37 55 0.74 55 -3 55 C-3 54.34 -3 53.68 -3 53 C-4.82835478 52.30896459 -4.82835478 52.30896459 -7 52 C-8.134375 52.639375 -9.26875 53.27875 -10.4375 53.9375 C-16.04291861 56.95015007 -21.79831268 56.78312123 -28 56 C-32.83577153 54.43005334 -36.50498423 51.41425866 -39 47 C-40.16112989 41.82614181 -40.93036918 36.66195097 -38 32 C-33.05711735 26.37060587 -28.44722748 22.80040253 -20.94921875 22.21484375 C-18.75344914 22.04200455 -18.75344914 22.04200455 -15.8125 20.9375 C-13.01198553 20.00399518 -10.92553 19.82791 -8 20 C-8.85612759 17.38405458 -9.55551047 15.29805152 -11 13 C-13.6588432 11.55366221 -13.6588432 11.55366221 -17 12 C-19.33476316 12.91214761 -21.56715405 13.96961225 -23.828125 15.05078125 C-26.84168037 16.36785671 -28.77523895 16.73290024 -32 16 C-34.9375 13.3125 -34.9375 13.3125 -37 10 C-36.85698487 6.83394086 -36.49511363 5.4706767 -34.1796875 3.26953125 C-23.76308194 -3.3158821 -11.34312224 -6.30173458 0 0 Z M-23 36 C-23 37.98 -23 39.96 -23 42 C-20.64653604 43.17673198 -19.1193967 43.16623866 -16.5 43.1875 C-15.7059375 43.20167969 -14.911875 43.21585938 -14.09375 43.23046875 C-11.77966683 43.19666303 -11.77966683 43.19666303 -10 41 C-9.34 40.34 -8.68 39.68 -8 39 C-7.83318891 35.91652174 -7.83318891 35.91652174 -8 33 C-13.26472331 30.97510642 -18.09820173 33.98161248 -23 36 Z " fill="#F36721" transform="translate(921,579)"/>
<path d="M0 0 C5.12469621 3.2082118 9.29828307 6.96271903 10.95654297 12.98583984 C11.52490868 16.92557151 11.51374572 20.79794957 11.50390625 24.7734375 C11.50486298 25.62489349 11.5058197 26.47634949 11.50680542 27.35360718 C11.50748396 29.14719721 11.50565245 30.94078973 11.50146484 32.734375 C11.49609873 35.48182665 11.50142766 38.22911582 11.5078125 40.9765625 C11.50715192 42.72135453 11.50587117 44.46614645 11.50390625 46.2109375 C11.50593048 47.03284576 11.50795471 47.85475403 11.51004028 48.7015686 C11.49640628 52.00801052 11.42400045 54.70065489 10.37109375 57.859375 C5.42109375 57.859375 0.47109375 57.859375 -4.62890625 57.859375 C-6.20030453 54.71657843 -5.68673719 51.37385887 -5.62109375 47.9296875 C-5.60357414 46.3138084 -5.58666618 44.69792257 -5.5703125 43.08203125 C-5.53936281 40.53187541 -5.50386407 37.98205407 -5.45751953 35.43212891 C-5.41514434 32.97293941 -5.39172766 30.51414266 -5.37109375 28.0546875 C-5.35247284 27.2941507 -5.33385193 26.53361389 -5.31466675 25.75003052 C-5.29370259 21.41680528 -5.67731641 19.06737146 -8.62890625 15.859375 C-8.62890625 15.199375 -8.62890625 14.539375 -8.62890625 13.859375 C-12.30395843 13.50937003 -14.41695271 13.7604579 -17.79174805 15.33544922 C-21.00462859 17.67927535 -21.00462859 17.67927535 -21.38598633 21.77001953 C-21.42008828 23.34371154 -21.42237195 24.91830802 -21.3984375 26.4921875 C-21.40977219 27.32523407 -21.42110687 28.15828064 -21.43278503 29.01657104 C-21.46349224 31.673141 -21.45366788 34.32768764 -21.44140625 36.984375 C-21.45556952 39.64754933 -21.47793207 42.31051577 -21.50358582 44.97360229 C-21.51663839 46.62958314 -21.52136647 48.28565427 -21.51704407 49.94168091 C-21.52146056 55.64448362 -21.52146056 55.64448362 -22.62890625 57.859375 C-25.08753026 57.91321348 -27.54498175 57.95296538 -30.00390625 57.984375 C-30.70257812 58.00113281 -31.40125 58.01789062 -32.12109375 58.03515625 C-33.95788111 58.05281767 -35.79492588 57.96240761 -37.62890625 57.859375 C-39.62890625 55.859375 -39.62890625 55.859375 -39.86941528 53.53085327 C-39.86497406 52.5582254 -39.86053284 51.58559753 -39.85595703 50.58349609 C-39.85580597 49.4825058 -39.85565491 48.3815155 -39.85549927 47.24716187 C-39.8451767 46.05442657 -39.83485413 44.86169128 -39.82421875 43.6328125 C-39.82138885 42.41485992 -39.81855896 41.19690735 -39.81564331 39.94204712 C-39.80441881 36.03939117 -39.77930997 32.13696197 -39.75390625 28.234375 C-39.74387939 25.59375331 -39.73475303 22.95312803 -39.7265625 20.3125 C-39.70447206 13.8280472 -39.67097217 7.3437273 -39.62890625 0.859375 C-37.063259 -0.42344863 -35.11857556 -0.34454453 -32.25390625 -0.390625 C-31.29742188 -0.41640625 -30.3409375 -0.4421875 -29.35546875 -0.46875 C-26.24998478 -0.09502414 -24.92354559 0.79311209 -22.62890625 2.859375 C-21.02015625 1.869375 -21.02015625 1.869375 -19.37890625 0.859375 C-13.20655991 -2.17763789 -6.38750817 -2.77140028 0 0 Z " fill="#F36422" transform="translate(1308.62890625,472.140625)"/>
<path d="M0 0 C1.27746094 -0.01675781 2.55492187 -0.03351563 3.87109375 -0.05078125 C7.76898831 0.33282107 10.20771609 1.34733292 13.5625 3.3125 C13.5625 3.9725 13.5625 4.6325 13.5625 5.3125 C14.5525 5.3125 15.5425 5.3125 16.5625 5.3125 C18.7174389 7.69832521 20.25674348 10.38132042 21.5625 13.3125 C21.375 16.3125 21.375 16.3125 20.5625 18.3125 C21.2225 18.3125 21.8825 18.3125 22.5625 18.3125 C22.58717609 23.83007479 22.60534856 29.34761761 22.61743164 34.86523438 C22.62246763 36.74316975 22.62929671 38.6211012 22.63793945 40.49902344 C22.65003713 43.19467132 22.65573557 45.89026747 22.66015625 48.5859375 C22.66531754 49.42869232 22.67047882 50.27144714 22.67579651 51.13973999 C22.67637171 57.08475659 22.67637171 57.08475659 21.5625 59.3125 C20.14626784 59.36697047 18.72941809 59.40550508 17.3125 59.4375 C16.52359375 59.46070313 15.7346875 59.48390625 14.921875 59.5078125 C11.21367616 59.2008424 9.16521414 57.91521414 6.5625 55.3125 C5.716875 55.9725 4.87125 56.6325 4 57.3125 C-1.79650337 60.63836259 -9.00430043 60.25631353 -15.4375 59.3125 C-19.69517073 56.88312317 -22.89865589 54.54390685 -25.4375 50.3125 C-26.50360652 45.73990251 -27.12219918 40.76491926 -25.4375 36.3125 C-21.19037173 30.00615802 -15.80579989 26.978246 -8.4375 25.3125 C-7.57125 25.10625 -6.705 24.9 -5.8125 24.6875 C-3.4375 24.3125 -3.4375 24.3125 -1.4375 25.3125 C-1.4375 24.6525 -1.4375 23.9925 -1.4375 23.3125 C-0.7775 23.3125 -0.1175 23.3125 0.5625 23.3125 C0.5625 23.9725 0.5625 24.6325 0.5625 25.3125 C1.8825 24.9825 3.2025 24.6525 4.5625 24.3125 C4.29856499 20.88019552 4.29856499 20.88019552 3.5625 17.3125 C0.77120492 15.01193416 0.77120492 15.01193416 -2.25 15.5 C-5.63153667 16.36196033 -8.33792122 17.72973637 -11.4375 19.3125 C-13.9375 20.3125 -13.9375 20.3125 -16.4375 20.3125 C-19.47118156 18.27059895 -21.76583101 16.57681809 -23.5 13.3125 C-23.40054616 10.12997701 -22.46838599 8.77417998 -20.4375 6.3125 C-17.87971157 4.70490511 -15.21999953 3.47951904 -12.4375 2.3125 C-11.68082031 1.9515625 -10.92414063 1.590625 -10.14453125 1.21875 C-6.67726101 0.05798998 -3.65214217 0.01103366 0 0 Z M5.5625 20.3125 C6.5625 24.3125 6.5625 24.3125 6.5625 24.3125 Z M5.5625 35.3125 C5.5625 37.6225 5.5625 39.9325 5.5625 42.3125 C5.8925 42.3125 6.2225 42.3125 6.5625 42.3125 C6.5625 40.0025 6.5625 37.6925 6.5625 35.3125 C6.2325 35.3125 5.9025 35.3125 5.5625 35.3125 Z M-8.4375 39.3125 C-8.6877157 42.22884129 -8.6877157 42.22884129 -8.4375 45.3125 C-5.78505566 47.52180861 -5.78505566 47.52180861 -3.625 47.1875 C-0.44838322 45.91685329 1.93573376 44.52137161 4.5625 42.3125 C5.06419415 39.14323436 5.06419415 39.14323436 4.5625 36.3125 C-0.66925837 35.92968841 -3.81552694 37.09395293 -8.4375 39.3125 Z M-10.4375 41.3125 C-9.4375 43.3125 -9.4375 43.3125 -9.4375 43.3125 Z " fill="#F36821" transform="translate(1106.4375,470.6875)"/>
<path d="M0 0 C5.5345383 3.53443287 9.76001816 7.38291855 11.27661133 13.91992188 C12.27700661 18.67504286 12.37130422 23.14170896 12.19140625 27.98046875 C12.16875198 28.80881226 12.14609772 29.63715576 12.12275696 30.49060059 C12.07322083 32.22175805 12.018332 33.95277014 11.95825195 35.68359375 C11.86647693 38.3448235 11.79228167 41.00612625 11.72070312 43.66796875 C11.67028476 45.35549935 11.61888854 47.04300108 11.56640625 48.73046875 C11.54341965 49.52827759 11.52043304 50.32608643 11.49674988 51.14807129 C11.29613955 56.7077667 11.29613955 56.7077667 10.1796875 57.82421875 C8.66040712 57.89601839 7.13801268 57.90813882 5.6171875 57.88671875 C4.79089844 57.87769531 3.96460938 57.86867188 3.11328125 57.859375 C2.47519531 57.84777344 1.83710937 57.83617187 1.1796875 57.82421875 C0.8496875 56.83421875 0.5196875 55.84421875 0.1796875 54.82421875 C-1.64036071 53.89598787 -1.64036071 53.89598787 -3.8203125 53.82421875 C-5.78652719 54.57962655 -5.78652719 54.57962655 -7.7578125 55.76171875 C-13.67667867 58.55511103 -19.39065254 58.75664106 -25.8203125 57.82421875 C-30.33038789 56.17075897 -33.01077226 53.93733657 -35.8203125 50.07421875 C-37.54484096 44.46950125 -37.57194632 39.8285756 -35.5078125 34.32421875 C-33.8203125 31.82421875 -33.8203125 31.82421875 -30.8203125 30.82421875 C-30.4903125 29.83421875 -30.1603125 28.84421875 -29.8203125 27.82421875 C-25.2663252 24.45519754 -20.35901307 23.34431525 -14.80078125 23 C-12.60970066 22.88241288 -12.60970066 22.88241288 -9.8203125 21.82421875 C-9.8203125 22.48421875 -9.8203125 23.14421875 -9.8203125 23.82421875 C-8.5003125 23.49421875 -7.1803125 23.16421875 -5.8203125 22.82421875 C-6.1503125 20.18421875 -6.4803125 17.54421875 -6.8203125 14.82421875 C-12.0188404 13.3224218 -14.53513226 13.93638857 -19.3828125 16.38671875 C-24.42619296 18.8600478 -24.42619296 18.8600478 -28.2578125 18.51171875 C-31.43954224 16.41643331 -32.95940632 14.11659121 -34.8203125 10.82421875 C-32.69923737 5.42511841 -28.50847974 2.96282256 -23.4453125 0.57421875 C-16.09819788 -2.17133978 -7.35900118 -3.06794924 0 0 Z M-14.8203125 34.82421875 C-14.8203125 35.48421875 -14.8203125 36.14421875 -14.8203125 36.82421875 C-16.1403125 37.15421875 -17.4603125 37.48421875 -18.8203125 37.82421875 C-18.8203125 38.48421875 -18.8203125 39.14421875 -18.8203125 39.82421875 C-19.4803125 39.82421875 -20.1403125 39.82421875 -20.8203125 39.82421875 C-20.8203125 40.48421875 -20.8203125 41.14421875 -20.8203125 41.82421875 C-20.1603125 41.82421875 -19.5003125 41.82421875 -18.8203125 41.82421875 C-18.8203125 42.48421875 -18.8203125 43.14421875 -18.8203125 43.82421875 C-18.1603125 43.82421875 -17.5003125 43.82421875 -16.8203125 43.82421875 C-16.8203125 44.48421875 -16.8203125 45.14421875 -16.8203125 45.82421875 C-12.30032087 45.29245503 -9.27218436 43.79443407 -5.8203125 40.82421875 C-5.31861835 37.65495311 -5.31861835 37.65495311 -5.8203125 34.82421875 C-8.7903125 34.82421875 -11.7603125 34.82421875 -14.8203125 34.82421875 Z " fill="#F26722" transform="translate(1361.8203125,472.17578125)"/>
<path d="M0 0 C1.23492188 -0.02835938 2.46984375 -0.05671875 3.7421875 -0.0859375 C7.125 0.375 7.125 0.375 9.4375 2.15234375 C10.97078591 4.17188006 12.17159991 6.02429814 13.25 8.3125 C13.58128906 9.01375 13.91257812 9.715 14.25390625 10.4375 C16.30318591 14.99553905 17.9006298 19.63665664 19.44140625 24.38671875 C20.08945733 26.41400574 20.08945733 26.41400574 21.125 28.375 C22.115 28.045 23.105 27.715 24.125 27.375 C24.78946024 25.5378451 24.78946024 25.5378451 25.125 23.375 C26.80911551 17.88640668 28.81414513 12.62694288 31.125 7.375 C31.455 6.385 31.785 5.395 32.125 4.375 C33.9375 2.1875 33.9375 2.1875 37.125 0.375 C41.14706821 0.03459058 45.09862272 0.14382044 49.125 0.375 C50.2265625 2.11328125 50.2265625 2.11328125 51.125 4.375 C50.5859375 6.41796875 50.5859375 6.41796875 49.5 8.5625 C48.92378906 9.74585938 48.92378906 9.74585938 48.3359375 10.953125 C47.93632813 11.75234375 47.53671875 12.5515625 47.125 13.375 C46.44934935 14.85008463 45.78247927 16.32922677 45.125 17.8125 C44.795 18.55371094 44.465 19.29492188 44.125 20.05859375 C42.72111742 23.31055613 41.429329 26.60403321 40.12890625 29.8984375 C38.85546162 33.03993127 37.46130316 36.11982896 36.0625 39.20703125 C35.13879626 41.34309615 34.34068342 43.49480608 33.5625 45.6875 C32.125 49.375 32.125 49.375 30.5 51.5 C28.65501488 54.01588881 28.57074823 56.31844072 28.125 59.375 C27.25 61.3125 27.25 61.3125 26.125 63.375 C25.67125 64.509375 25.2175 65.64375 24.75 66.8125 C23.03647377 70.56907673 21.03990595 73.46009405 18.125 76.375 C15.77186445 76.44771741 13.41666332 76.45870868 11.0625 76.4375 C9.12697266 76.42396484 9.12697266 76.42396484 7.15234375 76.41015625 C6.15332031 76.39855469 5.15429688 76.38695312 4.125 76.375 C3.03715665 73.06104014 3.05237456 72.53919665 4.5625 69.125 C5.3359375 67.76375 5.3359375 67.76375 6.125 66.375 C6.785 66.375 7.445 66.375 8.125 66.375 C7.795 65.385 7.465 64.395 7.125 63.375 C7.90234375 61.61328125 7.90234375 61.61328125 9.0625 59.6875 C11.40952351 55.25423338 11.69758497 52.36466902 11.125 47.375 C9.87822937 44.90688648 9.87822937 44.90688648 8.125 42.375 C7.51447858 40.92783813 6.93495513 39.46746862 6.375 38 C4.35573998 32.78749157 2.01095606 27.76245583 -0.41308594 22.72900391 C-2.18392112 19.01261904 -3.79331028 15.3528267 -4.875 11.375 C-4.545 10.715 -4.215 10.055 -3.875 9.375 C-4.865 9.045 -5.855 8.715 -6.875 8.375 C-8.0625 5.3125 -8.0625 5.3125 -8.875 2.375 C-6.02535053 -0.47464947 -3.97007176 0.04126894 0 0 Z " fill="#F36621" transform="translate(1136.875,575.625)"/>
<path d="M0 0 C3.01926732 1.81805344 5.78438468 3.92852409 8.4375 6.25 C7.0437718 10.68458973 4.83167765 13.12378374 1.4375 16.25 C0.385625 15.940625 -0.66625 15.63125 -1.75 15.3125 C-8.60833903 13.3937998 -8.60833903 13.3937998 -15.5625 14.25 C-15.5625 15.24 -15.5625 16.23 -15.5625 17.25 C-11.71515275 18.96902749 -7.98208777 20.43940057 -3.9375 21.625 C0.25073225 22.9854632 2.59047345 24.81682093 5.4375 28.25 C6.015 28.86875 6.5925 29.4875 7.1875 30.125 C9.5291492 34.10580364 9.74879861 37.86330617 8.75 42.3125 C5.79221861 48.93229644 2.26656682 53.62060987 -4.5 56.5 C-12.77573372 58.51891526 -22.10973311 58.53137672 -29.5625 54.25 C-30.51125 53.79625 -31.46 53.3425 -32.4375 52.875 C-34.5625 51.25 -34.5625 51.25 -35.6875 48.9375 C-35.49390026 44.77510559 -33.49981806 43.05960858 -30.5625 40.25 C-27.60649545 39.25332083 -26.0976391 39.06330356 -23.1328125 40.09765625 C-22.32585938 40.49855469 -21.51890625 40.89945313 -20.6875 41.3125 C-17.20773044 42.83880611 -15.12758626 43.60252577 -11.4375 42.5 C-10.48875 42.0875 -9.54 41.675 -8.5625 41.25 C-8.8925 40.26 -9.2225 39.27 -9.5625 38.25 C-12.6805723 36.72413483 -15.80982988 35.52039937 -19.07421875 34.34765625 C-25.70728069 31.87884844 -29.56503993 29.24619011 -33.5625 23.25 C-34.37760783 17.97704581 -34.7724095 12.59626827 -32.27734375 7.7578125 C-30.51440558 5.62943612 -28.73891455 3.95019332 -26.5625 2.25 C-25.98371094 1.79753906 -25.40492188 1.34507812 -24.80859375 0.87890625 C-17.8188584 -3.48401711 -7.34283177 -3.51118331 0 0 Z " fill="#F36721" transform="translate(952.5625,472.75)"/>
<path d="M0 0 C1.794375 -0.00773437 1.794375 -0.00773437 3.625 -0.015625 C9.38909053 0.43803027 13.40909969 2.80682476 18 6.25 C18.495 7.735 18.495 7.735 19 9.25 C19.66 9.58 20.32 9.91 21 10.25 C19.05273547 13.75507615 17.21127314 16.79432054 14 19.25 C10.87195718 19.16979377 9.23460313 18.40434416 6.625 16.6875 C3.18073329 14.80135395 0.87461129 14.82731513 -3 15.25 C-6.59443202 16.94737068 -8.05377151 19.54788102 -9.45703125 23.23046875 C-11.07430355 29.24579091 -10.59844742 35.17053478 -7.53125 40.63671875 C-4.93680521 43.37015165 -2.10440059 43.86950885 1.54296875 44.35546875 C5.14336862 44.20092058 7.15036166 42.33973478 10 40.25 C14.37043316 40.1746477 16.23673816 40.56306435 19.5 43.5 C21 46.25 21 46.25 20.9375 48.875 C19.94379189 51.39239388 19.17898665 52.6576636 17 54.25 C16.01 54.25 15.02 54.25 14 54.25 C14 54.91 14 55.57 14 56.25 C13.01 56.58 12.02 56.91 11 57.25 C10.01 56.755 10.01 56.755 9 56.25 C9 56.91 9 57.57 9 58.25 C3.26374136 59.52472414 -5.58170067 60.95914967 -11 58.25 C-11 57.59 -11 56.93 -11 56.25 C-12.485 56.745 -12.485 56.745 -14 57.25 C-21.37538866 51.54955647 -26.29596181 46.61616734 -28 37.25 C-29.06685558 26.01663834 -27.81120521 16.87865688 -20.67578125 7.97265625 C-18.03627665 5.25931935 -15.42744164 3.87024514 -12 2.25 C-10.87271484 1.71246094 -10.87271484 1.71246094 -9.72265625 1.1640625 C-6.37131856 0.03893622 -3.53077455 -0.01521886 0 0 Z " fill="#F36722" transform="translate(1464,470.75)"/>
<path d="M0 0 C3.56384976 2.07545327 6.08823095 4.27389015 8.3125 7.8125 C7.0385411 9.85083424 5.70188077 11.85102126 4.3125 13.8125 C3.6525 13.8125 2.9925 13.8125 2.3125 13.8125 C2.3125 14.4725 2.3125 15.1325 2.3125 15.8125 C-4.20204139 16.06305928 -4.20204139 16.06305928 -6.625 14.8125 C-9.89090998 13.22902849 -13.13350523 13.20678836 -16.6875 13.8125 C-19.65608157 16.01990681 -20.51615791 17.29847373 -21.6875 20.8125 C-22.3475 20.8125 -23.0075 20.8125 -23.6875 20.8125 C-23.3575 21.4725 -23.0275 22.1325 -22.6875 22.8125 C-22.71890389 24.18856143 -22.78645984 25.56393097 -22.875 26.9375 C-22.92398807 31.99960055 -21.6550702 35.71168292 -18.6875 39.8125 C-16.35000834 41.96852694 -16.35000834 41.96852694 -13.6875 42.8125 C-10.28898145 42.28965099 -7.47653589 40.80950526 -4.4375 39.25 C-3.54546875 38.79496094 -2.6534375 38.33992187 -1.734375 37.87109375 C-1.05890625 37.52175781 -0.3834375 37.17242188 0.3125 36.8125 C1.65462062 37.90596881 2.98597975 39.0126575 4.3125 40.125 C5.055 40.73988281 5.7975 41.35476563 6.5625 41.98828125 C8.3125 43.8125 8.3125 43.8125 8.3125 46.8125 C5.9375 49.5 5.9375 49.5 3.3125 51.8125 C2.6525 51.8125 1.9925 51.8125 1.3125 51.8125 C1.3125 52.4725 1.3125 53.1325 1.3125 53.8125 C-7.2210209 57.28376274 -16.30531482 58.54537296 -25.25 55.625 C-28.89718167 53.70194057 -30.37372118 52.16349001 -32.6875 48.8125 C-33.533125 48.049375 -34.37875 47.28625 -35.25 46.5 C-40.65997445 40.53515638 -40.95064005 34.73028506 -41 27.0625 C-41.00555908 26.31709961 -41.01111816 25.57169922 -41.0168457 24.80371094 C-40.9661767 20.96672513 -40.74930374 18.08620365 -38.6875 14.8125 C-38.460625 14.07 -38.23375 13.3275 -38 12.5625 C-34.98152394 6.23807396 -30.25842334 1.35126584 -23.6875 -1.1875 C-16.32575849 -3.64141384 -7.00609345 -3.33573703 0 0 Z " fill="#F36722" transform="translate(872.6875,578.1875)"/>
<path d="M0 0 C1.12535156 0.00580078 1.12535156 0.00580078 2.2734375 0.01171875 C3.02367187 0.00785156 3.77390625 0.00398438 4.546875 0 C10.14682697 0.01010822 10.14682697 0.01010822 11.2734375 1.13671875 C11.37375819 3.59050115 11.4096193 6.01615251 11.40283203 8.47045898 C11.40458435 9.2379245 11.40633667 10.00539001 11.40814209 10.79611206 C11.41256144 13.34586821 11.40962205 15.89555559 11.40625 18.4453125 C11.40692309 20.21029168 11.40789315 21.97527077 11.40914917 23.74024963 C11.41062631 27.44508748 11.40847133 31.14990127 11.40380859 34.85473633 C11.39811546 39.61094551 11.40138757 44.36709822 11.40738106 49.12330532 C11.41098978 52.77004931 11.40984657 56.41677986 11.40725327 60.06352425 C11.40658464 61.8174649 11.40741017 63.57140675 11.40973282 65.32534599 C11.41226397 67.77479167 11.40841198 70.22414519 11.40283203 72.67358398 C11.40485626 73.40353073 11.40688049 74.13347748 11.40896606 74.88554382 C11.38770104 79.90819168 11.38770104 79.90819168 10.2734375 82.13671875 C7.81481349 82.19055723 5.357362 82.23030913 2.8984375 82.26171875 C2.19976563 82.27847656 1.50109375 82.29523438 0.78125 82.3125 C-1.05553736 82.33016142 -2.89258213 82.23975136 -4.7265625 82.13671875 C-7.19930816 79.66397309 -6.96526031 78.25987391 -6.98651123 74.88554382 C-6.98089172 74.15559708 -6.97527222 73.42565033 -6.96948242 72.67358398 C-6.97138077 71.90436615 -6.97327911 71.13514832 -6.97523499 70.34262085 C-6.97894763 67.79341525 -6.9682326 65.24449289 -6.95703125 62.6953125 C-6.95583972 60.92936741 -6.95538623 59.16342167 -6.9556427 57.3974762 C-6.95407704 53.69438721 -6.94578047 49.99139478 -6.93237305 46.28833008 C-6.91537067 41.53092317 -6.91155901 36.77362235 -6.91231823 32.01618862 C-6.91204692 28.36948119 -6.90657216 24.72279716 -6.89931679 21.07609749 C-6.89612478 19.32133219 -6.89416148 17.56656423 -6.89342308 15.81179619 C-6.89126583 13.36463737 -6.88253542 10.91759333 -6.87182617 8.47045898 C-6.87227936 7.73848801 -6.87273254 7.00651703 -6.87319946 6.25236511 C-6.83270298 -0.04481445 -6.26487292 0.01130843 0 0 Z " fill="#F36B24" transform="translate(1143.7265625,447.86328125)"/>
<path d="M0 0 C2.6875 1.5625 2.6875 1.5625 4 4 C3.8125 7.4375 3.8125 7.4375 3 11 C2.7215625 12.4540625 2.7215625 12.4540625 2.4375 13.9375 C2.293125 14.618125 2.14875 15.29875 2 16 C1.34 16 0.68 16 0 16 C0 16.66 0 17.32 0 18 C-0.74765625 17.95359375 -1.4953125 17.9071875 -2.265625 17.859375 C-3.25046875 17.82328125 -4.2353125 17.7871875 -5.25 17.75 C-6.71179688 17.68039062 -6.71179688 17.68039062 -8.203125 17.609375 C-11.05069185 17.78745478 -11.05069185 17.78745478 -13.14111328 19.52587891 C-15.68012327 22.90522317 -15.56682106 25.91267671 -15.5390625 29.9765625 C-15.55085541 30.74302094 -15.56264832 31.50947937 -15.57479858 32.29916382 C-15.61003884 34.74131699 -15.61922831 37.18261336 -15.625 39.625 C-15.64132847 42.07427114 -15.66331492 44.52315902 -15.69662476 46.97225952 C-15.71629697 48.49464014 -15.72558506 50.01719702 -15.72354126 51.53970337 C-15.77653617 56.77653617 -15.77653617 56.77653617 -18 59 C-20.54848356 59.22503811 -22.95263669 59.32440357 -25.5 59.3125 C-26.18964844 59.32861328 -26.87929688 59.34472656 -27.58984375 59.36132812 C-29.59375 59.36328125 -29.59375 59.36328125 -33 59 C-35.23077928 55.65383108 -35.24524037 54.60406041 -35.22705078 50.70239258 C-35.22689972 49.62149857 -35.22674866 48.54060455 -35.22659302 47.42695618 C-35.21627045 46.26125595 -35.20594788 45.09555573 -35.1953125 43.89453125 C-35.1924826 42.70018967 -35.18965271 41.50584808 -35.18673706 40.27531433 C-35.17552677 36.45427503 -35.15042037 32.63346866 -35.125 28.8125 C-35.11497131 26.22461276 -35.10584527 23.63672184 -35.09765625 21.04882812 C-35.07558465 14.69913904 -35.0420986 8.34958616 -35 2 C-31.06978326 0.03489163 -26.28395638 0.52469072 -22 1 C-18.8125 3 -18.8125 3 -17 5 C-16.21625 4.360625 -15.4325 3.72125 -14.625 3.0625 C-9.9293884 -0.62690911 -5.84417055 -0.65876319 0 0 Z " fill="#F36321" transform="translate(914,471)"/>
<path d="M0 0 C1.258125 0.01417969 2.51625 0.02835937 3.8125 0.04296875 C5.070625 0.04941406 6.32875 0.05585938 7.625 0.0625 C10.8125 0.23046875 10.8125 0.23046875 12.8125 1.23046875 C12.83778819 9.02668569 12.85534068 16.82289211 12.86743164 24.61914062 C12.87247042 27.273116 12.87930151 29.92708859 12.88793945 32.58105469 C12.90002489 36.38867886 12.90573275 40.19626644 12.91015625 44.00390625 C12.91531754 45.19664154 12.92047882 46.38937683 12.92579651 47.61825562 C12.92590981 49.26974106 12.92590981 49.26974106 12.92602539 50.95458984 C12.928246 51.92721771 12.93046661 52.89984558 12.93275452 53.90194702 C12.8125 56.23046875 12.8125 56.23046875 11.8125 58.23046875 C9.35351345 58.31123838 6.89716258 58.37084018 4.4375 58.41796875 C3.73882813 58.44310547 3.04015625 58.46824219 2.3203125 58.49414062 C0.2890625 58.5234375 0.2890625 58.5234375 -3.1875 58.23046875 C-5.3937209 54.9211374 -5.43969505 53.90561001 -5.44628906 50.05639648 C-5.45259338 49.00197861 -5.45889771 47.94756073 -5.46539307 46.8611908 C-5.4613446 45.72363846 -5.45729614 44.58608612 -5.453125 43.4140625 C-5.45503845 42.24666031 -5.4569519 41.07925812 -5.45892334 39.8764801 C-5.46028501 37.40764144 -5.45658986 34.93879562 -5.44824219 32.4699707 C-5.43753311 28.6796877 -5.44814335 24.88987767 -5.4609375 21.09960938 C-5.45961609 18.70442603 -5.45705408 16.30924298 -5.453125 13.9140625 C-5.45717346 12.77448593 -5.46122192 11.63490936 -5.46539307 10.46080017 C-5.45908875 9.40953445 -5.45278442 8.35826874 -5.44628906 7.27514648 C-5.44469788 6.34709702 -5.44310669 5.41904755 -5.44146729 4.46287537 C-5.00920745 0.6632532 -3.66482723 0.26498138 0 0 Z " fill="#F36421" transform="translate(1247.1875,471.76953125)"/>
<path d="M0 0 C3.19401628 3.74156193 3.48089709 5.6725485 3.1875 10.5625 C2.1875 12.9375 2.1875 12.9375 1.1875 14.5625 C0.5275 14.5625 -0.1325 14.5625 -0.8125 14.5625 C-0.8125 15.2225 -0.8125 15.8825 -0.8125 16.5625 C-3.51289267 18.39876701 -4.92315361 18.55847623 -8.25 18.4375 C-12.85738918 17.30586055 -15.39368982 15.49724115 -18.1875 11.6875 C-19.10670201 8.56221316 -18.74871453 6.68321509 -17.8125 3.5625 C-15.99680244 0.64247893 -14.03387514 -1.84651203 -10.875 -3.375 C-6.18123621 -3.51723527 -3.63142355 -3.14723375 0 0 Z " fill="#F36620" transform="translate(1258.8125,451.4375)"/>
<path d="M0 0 C0.33 0 0.66 0 1 0 C1 11.55 1 23.1 1 35 C0.67 35 0.34 35 0 35 C0 23.45 0 11.9 0 0 Z " fill="#FF7E3F" transform="translate(1302,493)"/>
<path d="M0 0 C0.33 0 0.66 0 1 0 C1 2.97 1 5.94 1 9 C0.67 9 0.34 9 0 9 C0 6.03 0 3.06 0 0 Z " fill="#FF6400" transform="translate(831,601)"/>
<path d="M0 0 C0.33 0 0.66 0 1 0 C1 2.31 1 4.62 1 7 C0.67 7 0.34 7 0 7 C0 4.69 0 2.38 0 0 Z " fill="#FF5B00" transform="translate(962,497)"/>
<path d="M0 0 C1.65 0 3.3 0 5 0 C5 0.33 5 0.66 5 1 C3.35 1 1.7 1 0 1 C0 0.67 0 0.34 0 0 Z " fill="#FF7B11" transform="translate(890,595)"/>
<path d="M0 0 C0.33 0 0.66 0 1 0 C1 1.65 1 3.3 1 5 C0.67 5 0.34 5 0 5 C0 3.35 0 1.7 0 0 Z " fill="#FF6F14" transform="translate(368,549)"/>
<path d="M0 0 C0.33 0 0.66 0 1 0 C1 1.65 1 3.3 1 5 C0.67 5 0.34 5 0 5 C0 3.35 0 1.7 0 0 Z " fill="#FF650E" transform="translate(368,526)"/>
<path d="M0 0 C0.33 0 0.66 0 1 0 C1 1.65 1 3.3 1 5 C0.67 5 0.34 5 0 5 C0 3.35 0 1.7 0 0 Z " fill="#FF6700" transform="translate(442,449)"/>
<path d="M0 0 C1 4 1 4 1 4 Z " fill="#FF6509" transform="translate(517,477)"/>
<path d="M0 0 C1 4 1 4 1 4 Z " fill="#FF5B0A" transform="translate(517,447)"/>
<path d="M0 0 C3 1 3 1 3 1 Z " fill="#FF7318" transform="translate(536,710)"/>
<path d="M0 0 C3 1 3 1 3 1 Z " fill="#FF7922" transform="translate(496,710)"/>
<path d="" fill="#FF7811" transform="translate(0,0)"/>
<path d="" fill="#FF7613" transform="translate(0,0)"/>
<path d="" fill="#FF6000" transform="translate(0,0)"/>
<path d="M0 0 C3 1 3 1 3 1 Z " fill="#FF7000" transform="translate(456,471)"/>
<path d="" fill="#FF630C" transform="translate(0,0)"/>
<path d="M0 0 C2 1 2 1 2 1 Z " fill="#FF601E" transform="translate(481,684)"/>
<path d="" fill="#FF6A00" transform="translate(0,0)"/>
<path d="M0 0 C2 1 2 1 2 1 Z " fill="#FF551A" transform="translate(900,600)"/>
<path d="" fill="#FF6116" transform="translate(0,0)"/>
<path d="" fill="#FF6D00" transform="translate(0,0)"/>
<path d="M0 0 C2 1 2 1 2 1 Z " fill="#FF641D" transform="translate(799,502)"/>
<path d="" fill="#FF7613" transform="translate(0,0)"/>
<path d="" fill="#FF6E00" transform="translate(0,0)"/>
<path d="" fill="#FF7412" transform="translate(0,0)"/>
<path d="" fill="#FF7100" transform="translate(0,0)"/>
<path d="M0 0 C2 1 2 1 2 1 Z " fill="#FF7F20" transform="translate(470,398)"/>
<path d="M0 0 C2 1 2 1 2 1 Z " fill="#FF7119" transform="translate(564,374)"/>
<path d="M0 0 C2 1 2 1 2 1 Z " fill="#FF6A1E" transform="translate(555,372)"/>
<path d="M0 0 C2 1 2 1 2 1 Z " fill="#FF7114" transform="translate(478,372)"/>
<path d="" fill="#FF7000" transform="translate(0,0)"/>
<path d="" fill="#FF5500" transform="translate(0,0)"/>
<path d="" fill="#FF6A20" transform="translate(0,0)"/>
<path d="" fill="#FF8026" transform="translate(0,0)"/>
<path d="" fill="#FF5500" transform="translate(0,0)"/>
<path d="" fill="#FF8000" transform="translate(0,0)"/>
<path d="" fill="#FF5500" transform="translate(0,0)"/>
<path d="" fill="#FF801F" transform="translate(0,0)"/>
<path d="" fill="#FF0000" transform="translate(0,0)"/>
<path d="" fill="#FF0000" transform="translate(0,0)"/>
<path d="" fill="#FF4600" transform="translate(0,0)"/>
<path d="" fill="#FF7F00" transform="translate(0,0)"/>
<path d="" fill="#FF4020" transform="translate(0,0)"/>
<path d="" fill="#FF3B00" transform="translate(0,0)"/>
<path d="" fill="#FF5500" transform="translate(0,0)"/>
<path d="" fill="#FF6900" transform="translate(0,0)"/>
<path d="" fill="#FF3B00" transform="translate(0,0)"/>
<path d="" fill="#FF5500" transform="translate(0,0)"/>
<path d="" fill="#FF4E00" transform="translate(0,0)"/>
<path d="" fill="#FF4A00" transform="translate(0,0)"/>
<path d="" fill="#FF7F3B" transform="translate(0,0)"/>
<path d="" fill="#FF6600" transform="translate(0,0)"/>
<path d="" fill="#FF7700" transform="translate(0,0)"/>
<path d="" fill="#FF4D00" transform="translate(0,0)"/>
<path d="" fill="#FF4900" transform="translate(0,0)"/>
<path d="" fill="#FF6000" transform="translate(0,0)"/>
<path d="" fill="#FF7300" transform="translate(0,0)"/>
<path d="" fill="#FF5500" transform="translate(0,0)"/>
<path d="" fill="#FF5A00" transform="translate(0,0)"/>
<path d="" fill="#FF6700" transform="translate(0,0)"/>
<path d="" fill="#FF5500" transform="translate(0,0)"/>
<path d="" fill="#FF8000" transform="translate(0,0)"/>
<path d="" fill="#FF6800" transform="translate(0,0)"/>
<path d="" fill="#FF5500" transform="translate(0,0)"/>
<path d="" fill="#FF6500" transform="translate(0,0)"/>
<path d="" fill="#FF8040" transform="translate(0,0)"/>
<path d="" fill="#FF5F00" transform="translate(0,0)"/>
<path d="" fill="#FF5600" transform="translate(0,0)"/>
<path d="" fill="#FF8000" transform="translate(0,0)"/>
<path d="" fill="#FF3800" transform="translate(0,0)"/>
<path d="" fill="#FF7700" transform="translate(0,0)"/>
<path d="" fill="#FF5B00" transform="translate(0,0)"/>
<path d="" fill="#FF5800" transform="translate(0,0)"/>
<path d="" fill="#FF0000" transform="translate(0,0)"/>
<path d="" fill="#FF5100" transform="translate(0,0)"/>
<path d="" fill="#FF5000" transform="translate(0,0)"/>
<path d="" fill="#FF8000" transform="translate(0,0)"/>
<path d="" fill="#FF8000" transform="translate(0,0)"/>
<path d="" fill="#FF8000" transform="translate(0,0)"/>
<path d="" fill="#FF8000" transform="translate(0,0)"/>
<path d="" fill="#FF8000" transform="translate(0,0)"/>
<path d="" fill="#FF4900" transform="translate(0,0)"/>
<path d="" fill="#FF0000" transform="translate(0,0)"/>
<path d="" fill="#FF5500" transform="translate(0,0)"/>
<path d="" fill="#FF8029" transform="translate(0,0)"/>
<path d="" fill="#FF5F00" transform="translate(0,0)"/>
<path d="" fill="#FF8038" transform="translate(0,0)"/>
</svg>
