<?xml version="1.0" encoding="UTF-8"?>
<svg version="1.1" xmlns="http://www.w3.org/2000/svg" width="256" height="256">
<path d="M0 0 C2.31 0 4.62 0 7 0 C6.62875 1.216875 6.2575 2.43375 5.875 3.6875 C4.88536564 7.57096174 5.35742527 9.32836236 7 13 C6.625 16.0625 6.625 16.0625 6 19 C5.67794844 22.76129186 5.67794844 22.76129186 7 24.8125 C8.48175607 28.05384139 8.36479976 30.47360233 8 34 C5.87849257 38.01571049 4.22944971 40.35727876 0 42 C-4.85932379 42.71279221 -9.76828257 43.02885956 -14.3046875 40.9375 C-17.61982942 38.40643729 -19.36455232 36.06900439 -20.125 31.9375 C-19.99621939 27.88091079 -19.46339223 26.15314206 -17 23 C-15.02 23.66 -13.04 24.32 -11 25 C-11.226875 26.093125 -11.45375 27.18625 -11.6875 28.3125 C-12.32767007 31.82616349 -12.32767007 31.82616349 -10.9375 33.9375 C-8.16247021 35.45929053 -6.11454177 35.32443143 -3 35 C-2.01 34.34 -1.02 33.68 0 33 C0.5 30.5 0.5 30.5 0 28 C-2.87418809 26.0838746 -4.11113551 25.67083399 -7.375 25.125 C-11.48296071 24.28199829 -13.97900927 23.02099073 -17 20 C-18.62013117 16.75973767 -18.55125947 13.50251442 -18 10 C-15.82414783 6.42538573 -14.04377948 5.25924822 -9.99609375 4.25390625 C-7.00066014 3.74111065 -4.02133349 3.32285382 -1 3 C-0.67 2.01 -0.34 1.02 0 0 Z M-11 12 C-10.89386164 14.45224694 -10.89386164 14.45224694 -10 17 C-7.74303573 18.58612501 -7.74303573 18.58612501 -5 19 C-2.71502233 18.44123112 -2.71502233 18.44123112 -1 17 C-0.67 16.01 -0.34 15.02 0 14 C-1.74934898 11.91666921 -1.74934898 11.91666921 -4 10 C-8.04622502 9.63019987 -8.04622502 9.63019987 -11 12 Z " fill="#C41230" transform="translate(190,111)"/>
<path d="M0 0 C3.4331459 2.00318208 6.21130844 4.42261689 8 8 C8 10.31 8 12.62 8 15 C-1.405 15.495 -1.405 15.495 -11 16 C-11 16.66 -11 17.32 -11 18 C-6.36830092 18.89071136 -4.11896066 19.12188883 0 17 C2.69104557 16.8178209 5.29812279 16.90993743 8 17 C3.8 24.4 3.8 24.4 -1 26 C-6.42910777 26.52867716 -10.57178697 26.51652211 -15 23 C-17.78557871 20.61236111 -18.74425731 18.67042059 -19.30859375 14.984375 C-19.57646921 10.34120042 -19.22407468 7.6378766 -16.1875 4 C-11.79228759 -0.68822657 -6.12167255 -1.00947399 0 0 Z M-11 9 C-7.37 9 -3.74 9 0 9 C-0.99 8.01 -1.98 7.02 -3 6 C-7.3 5.6 -7.3 5.6 -11 9 Z " fill="#C41230" transform="translate(77,115)"/>
<path d="M0 0 C0.94488281 -0.03738281 1.88976562 -0.07476562 2.86328125 -0.11328125 C6.78174212 0.47746873 8.17613955 1.19823172 10.6875 4.3125 C11.30246138 8.07957114 11.15688206 11.75871337 11 15.5625 C10.97744141 16.59375 10.95488281 17.625 10.93164062 18.6875 C10.87277163 21.23064065 10.79060065 23.77083113 10.6875 26.3125 C7.79065842 26.42079314 4.89788981 26.49993954 2 26.5625 C1.18337891 26.59601563 0.36675781 26.62953125 -0.47460938 26.6640625 C-4.59816924 26.7308408 -6.74564636 26.66184003 -10.3359375 24.44921875 C-12.64925024 21.94846367 -13.22973597 20.70582518 -13.3125 17.3125 C-12.9375 14.6875 -12.9375 14.6875 -11.3125 12.3125 C-6.61760995 10.0125741 -1.47278124 8.97407452 3.6875 8.3125 C3.6875 7.9825 3.6875 7.6525 3.6875 7.3125 C1.3775 7.3125 -0.9325 7.3125 -3.3125 7.3125 C-3.6425 7.9725 -3.9725 8.6325 -4.3125 9.3125 C-6.6225 9.3125 -8.9325 9.3125 -11.3125 9.3125 C-10.81483954 5.62981261 -10.24964041 3.66221233 -7.3125 1.3125 C-4.76895023 0.04072512 -2.84084848 0.07303941 0 0 Z M3.6875 14.3125 C0.7175 14.9725 -2.2525 15.6325 -5.3125 16.3125 C-5.3125 17.6325 -5.3125 18.9525 -5.3125 20.3125 C-0.51941658 20.77772293 -0.51941658 20.77772293 3.625 18.8125 C3.975625 18.3175 4.32625 17.8225 4.6875 17.3125 C4.3575 16.3225 4.0275 15.3325 3.6875 14.3125 Z " fill="#C41230" transform="translate(128.3125,114.6875)"/>
<path d="M0 0 C2.82421875 1.328125 2.82421875 1.328125 5 4 C5.61625321 7.76676122 5.46937604 11.44635939 5.3125 15.25 C5.28994141 16.28125 5.26738281 17.3125 5.24414062 18.375 C5.18527163 20.91814065 5.10310065 23.45833113 5 26 C2.10315842 26.10829314 -0.78961019 26.18743954 -3.6875 26.25 C-4.50412109 26.28351563 -5.32074219 26.31703125 -6.16210938 26.3515625 C-10.22604634 26.41737524 -12.46080591 26.3113656 -16.05078125 24.23828125 C-18.1239875 21.85762557 -18.64300596 21.03000396 -18.5 17.9375 C-18 14 -18 14 -16.88671875 12.359375 C-14.1892316 10.41584389 -11.55147601 9.98595046 -8.3125 9.3125 C-6.54326172 8.93544922 -6.54326172 8.93544922 -4.73828125 8.55078125 C-3.83464844 8.36902344 -2.93101562 8.18726562 -2 8 C-2 7.67 -2 7.34 -2 7 C-4.31 7 -6.62 7 -9 7 C-9.33 7.66 -9.66 8.32 -10 9 C-12.31 9 -14.62 9 -17 9 C-16.73309994 5.79719931 -16.16670984 4.2056088 -14.125 1.6875 C-9.58506676 -0.76406395 -5.05276257 -0.98732142 0 0 Z M-12 17 C-11.67 17.99 -11.34 18.98 -11 20 C-6.25409437 20.43963608 -6.25409437 20.43963608 -2.0625 18.625 C-0.81758355 17.04459814 -0.81758355 17.04459814 -1 15 C-2.8871875 14.938125 -2.8871875 14.938125 -4.8125 14.875 C-5.52019531 14.85179687 -6.22789062 14.82859375 -6.95703125 14.8046875 C-9.31359719 14.86745538 -9.31359719 14.86745538 -12 17 Z " fill="#C41230" transform="translate(218,115)"/>
<path d="M0 0 C1.98 0 3.96 0 6 0 C6.33 2.64 6.66 5.28 7 8 C7.46148437 7.4225 7.92296875 6.845 8.3984375 6.25 C13.66256216 0.25763675 13.66256216 0.25763675 17.7578125 -0.53125 C20.21676247 -0.50322778 22.5683742 -0.35876446 25 0 C24.06409496 1.1055189 23.12620142 2.20935453 22.1875 3.3125 C21.66542969 3.92738281 21.14335938 4.54226562 20.60546875 5.17578125 C19.12827531 6.85424679 17.59960869 8.43882034 16 10 C17.38282761 13.88309167 19.20394614 16.92229635 21.625 20.25 C25 24.90612245 25 24.90612245 25 26 C19.97927461 26.88082902 19.97927461 26.88082902 17 26 C14.15152076 22.96517165 12.06006583 19.6051152 10 16 C6.87393036 17.60480784 6.87393036 17.60480784 6.48828125 19.9453125 C6.43027344 20.66460937 6.37226562 21.38390625 6.3125 22.125 C6.1578125 24.043125 6.1578125 24.043125 6 26 C4.02 26 2.04 26 0 26 C0 17.42 0 8.84 0 0 Z " fill="#C41230" transform="translate(33,115)"/>
<path d="M0 0 C3.61691275 2.09780939 4.68291409 3.04874226 6 7 C6.0806622 8.48123547 6.10761193 9.96582204 6.09765625 11.44921875 C6.09443359 12.29677734 6.09121094 13.14433594 6.08789062 14.01757812 C6.07951172 14.89865234 6.07113281 15.77972656 6.0625 16.6875 C6.05798828 17.58017578 6.05347656 18.47285156 6.04882812 19.39257812 C6.03704983 21.59511987 6.02060164 23.79752599 6 26 C3.625 26.125 3.625 26.125 1 26 C-1.93447357 23.06552643 -1.46158423 19.81740544 -1.625 15.875 C-1.66367188 15.12089844 -1.70234375 14.36679688 -1.7421875 13.58984375 C-1.83651031 11.72696816 -1.91934662 9.86351745 -2 8 C-5.58327753 6.99782936 -5.58327753 6.99782936 -9 8 C-10.18695553 11.56086658 -10.35095418 14.97331024 -10.5625 18.6875 C-10.62727539 19.7403418 -10.62727539 19.7403418 -10.69335938 20.81445312 C-10.7991736 22.54275206 -10.90006581 24.2713511 -11 26 C-13.31 26 -15.62 26 -18 26 C-18.05454409 23.64551325 -18.0939279 21.29232125 -18.125 18.9375 C-18.14820312 17.62652344 -18.17140625 16.31554687 -18.1953125 14.96484375 C-17.94357979 9.85466982 -17.28740759 5.6196418 -14.0625 1.5625 C-9.43607604 -0.79792039 -5.09036134 -0.7719617 0 0 Z " fill="#C41230" transform="translate(106,115)"/>
<path d="M0 0 C3.00969624 1.2540401 4.42592405 2.05840461 6.11279297 4.82519531 C7.10065908 7.24674493 7.23051931 8.94157115 7.1953125 11.546875 C7.18886719 12.39121094 7.18242187 13.23554688 7.17578125 14.10546875 C7.15902344 14.97816406 7.14226562 15.85085937 7.125 16.75 C7.11597656 17.63816406 7.10695312 18.52632812 7.09765625 19.44140625 C7.07414577 21.62788058 7.04128499 23.81380094 7 26 C4.625 26.125 4.625 26.125 2 26 C-1.02093215 22.97906785 -0.46676834 19.43627928 -0.625 15.375 C-0.66367188 14.57320312 -0.70234375 13.77140625 -0.7421875 12.9453125 C-0.83653931 10.96392444 -0.91936215 8.98199355 -1 7 C-3.3431213 7.25561323 -5.67843403 7.59270772 -8 8 C-9.585869 11.171738 -9.37866445 14.63513822 -9.5625 18.125 C-9.60568359 18.87910156 -9.64886719 19.63320312 -9.69335938 20.41015625 C-9.7994832 22.27321888 -9.90025001 24.13658524 -10 26 C-12.31 26 -14.62 26 -17 26 C-17.08144943 23.29105233 -17.14070614 20.58458737 -17.1875 17.875 C-17.21263672 17.11445313 -17.23777344 16.35390625 -17.26367188 15.5703125 C-17.32761857 10.62510158 -16.80651362 7.25076445 -14 3 C-9.88242631 -1.05765058 -5.46467388 -0.65540659 0 0 Z " fill="#C41230" transform="translate(160,115)"/>
</svg>
