<?xml version="1.0" encoding="UTF-8"?>
<svg version="1.1" xmlns="http://www.w3.org/2000/svg" width="8000" height="8000">
<path d="M0 0 C2117.61 0 4235.22 0 6417 0 C6417 627 6417 1254 6417 1900 C6506.43 1900 6595.86 1900 6688 1900 C6688 2470.9 6688 3041.8 6688 3630 C4569.07 3630 2450.14 3630 267 3630 C267 3124.11 267 2618.22 267 2097 C178.89 2097 90.78 2097 0 2097 C0 1404.99 0 712.98 0 0 Z " fill="#F6921D" transform="translate(608,2033)"/>
<path d="M0 0 C2118.93 0 4237.86 0 6421 0 C6421 570.9 6421 1141.8 6421 1730 C4302.07 1730 2183.14 1730 0 1730 C0 1159.1 0 588.2 0 0 Z " fill="#FE0000" transform="translate(875,3933)"/>
<path d="M0 0 C0.78671094 0.00262701 1.57342189 0.00525403 2.38397256 0.00796065 C3.21580625 0.0068068 4.04763995 0.00565296 4.90468073 0.00446415 C7.72835846 0.00178991 10.55198065 0.00632623 13.37565556 0.01075396 C15.40592053 0.01031842 17.43618545 0.00944384 19.46645007 0.00816479 C25.07377213 0.00591639 30.6810753 0.0099458 36.28839496 0.01494285 C42.32456192 0.01924225 48.36072773 0.0178013 54.3968958 0.01704058 C64.86436716 0.01651502 75.33183303 0.01963043 85.79930249 0.02527842 C96.78140296 0.03118894 107.76350095 0.03504305 118.745603 0.03613123 C119.76862381 0.03623434 119.76862381 0.03623434 120.81231171 0.03633953 C124.27570485 0.03667785 127.73909799 0.03697924 131.20249113 0.03726641 C155.75422776 0.03936862 180.30596116 0.04611098 204.85769597 0.05556902 C228.7141411 0.06474863 252.57058536 0.07183461 276.4270319 0.07607684 C277.16197589 0.07620836 277.89691987 0.07633989 278.65413488 0.0764754 C286.03452802 0.07779388 293.41492116 0.0790697 300.79531431 0.08031426 C315.83095504 0.08285069 330.86659572 0.08567194 345.90223637 0.08866534 C346.59359963 0.08880263 347.28496289 0.08893992 347.99727655 0.08908137 C394.19057854 0.09828703 440.38387863 0.11415355 486.57717839 0.13100848 C487.67579571 6.42449677 488.77312662 12.71820844 489.86961976 19.01206717 C490.24173259 21.1471333 490.61412542 23.28215065 490.9868187 25.41711554 C493.83036037 41.70786548 496.54187606 58.01064382 499.07058659 74.35342059 C501.00309924 86.80009397 503.11214236 99.20564472 505.36532381 111.59766027 C508.9446944 131.3153352 512.28961811 151.06706502 515.54577175 170.84031591 C516.27211042 175.24704664 517.00173079 179.65323427 517.73094121 184.05949053 C519.11389782 192.41878016 520.49425753 200.77849617 521.87352201 209.1383957 C523.55072646 219.30358314 525.2308091 229.46829434 526.91116276 239.6329616 C527.21362228 241.4626433 527.51608168 243.29232501 527.81854096 245.12200674 C528.27091535 247.85854532 528.72329869 250.59508242 529.17570433 253.33161584 C529.9248723 257.86322284 530.67396233 262.39484269 531.42286816 266.92649302 C535.55388373 291.92315146 539.69445944 316.91819586 543.85588804 341.90981063 C544.2342303 344.18264347 544.61224729 346.45553018 544.99016324 348.72843394 C547.67874726 364.89585546 550.39929664 381.05633967 553.26467839 397.19350848 C556.3960972 414.86857471 559.29287751 432.57919092 562.16726628 450.29775652 C563.95924528 461.32992015 565.76968343 472.3573813 567.68264714 483.36928973 C567.93587239 484.82749888 567.93587239 484.82749888 568.1942133 486.3151668 C568.44517262 487.76012782 568.44517262 487.76012782 568.70120183 489.23427996 C571.81431553 507.16532317 574.69549051 525.11348195 577.26467839 543.13100848 C577.3973914 544.05814654 577.53010441 544.9852846 577.66683903 545.94051775 C578.67244517 552.99930849 579.6346342 560.06353593 580.57717839 567.13100848 C580.66694195 567.80391924 580.75670552 568.47683001 580.84918919 569.17013201 C584.18602733 594.23204658 587.1305665 619.32349338 589.79444447 644.46543536 C590.08270826 647.1831433 590.37251494 649.90068319 590.66265813 652.61819109 C594.80118891 691.41507585 598.36496108 730.24651207 601.57717839 769.13100848 C601.72739445 767.65990618 601.72739445 767.65990618 601.88064519 766.15908465 C604.84306725 737.45509857 608.2472181 708.79428203 611.57717839 680.13100848 C611.77210881 678.45246783 611.77210881 678.45246783 611.97097722 676.74001727 C614.55559258 654.54812858 617.64035745 632.47090637 621.16726628 610.40810809 C621.31060902 609.5112076 621.45395177 608.61430712 621.60163823 607.69022784 C621.88320201 605.92904066 622.16518969 604.16792119 622.44761601 602.40687212 C623.22859096 597.49106393 623.9207956 592.57507652 624.53420964 587.63491473 C625.65292643 578.98879017 627.36216029 570.46872312 629.0364069 561.91689715 C629.93456864 557.2898436 630.7940623 552.65567561 631.65530339 548.02163348 C632.01072457 546.11568495 632.36627654 544.2097608 632.72195378 542.30386004 C632.9019492 541.33903704 633.08194462 540.37421404 633.26739445 539.38015398 C636.47447582 522.19762505 639.7519072 505.03154008 643.13220158 487.88229021 C645.94290988 473.60150292 648.56775603 459.29132047 651.14080754 444.96599993 C653.53499368 431.65122721 656.07958856 418.37617785 658.77423039 405.11910662 C660.67482482 395.7639365 662.44510647 386.40157326 664.0195612 376.98525652 C665.51906464 368.16265184 667.30004752 359.40089145 669.07717839 350.63100848 C671.2305199 340.00142509 673.29163837 329.3739399 675.09548894 318.67837176 C676.52339226 310.27550852 678.1394391 301.91296068 679.7718195 293.54769549 C680.16276713 291.54423574 680.55363204 289.54075993 680.94436589 287.53725848 C681.07682713 286.85813403 681.20928837 286.17900957 681.34576359 285.4793056 C682.93279919 277.32737223 684.47411175 269.16682774 686.01467839 261.00600848 C686.31000311 259.44277529 686.60533191 257.87954287 686.90066472 256.31631121 C688.08746101 250.03233163 689.27261504 243.74804296 690.45657292 237.46352801 C691.32922136 232.83168733 692.20280153 228.20002318 693.07717839 223.56850848 C693.22046574 222.80930102 693.3637531 222.05009356 693.51138249 221.26787981 C695.8668157 208.7961757 698.28210189 196.33668349 700.71682683 183.88024554 C702.55268746 174.48213048 704.33875523 165.07807689 706.01931706 155.65078387 C707.75517534 145.99261814 709.66146098 136.36755356 711.54544011 126.73745379 C713.27770133 117.87801917 714.99292804 109.01837313 716.57717839 100.13100848 C718.36286343 90.12478098 720.31683708 80.15301189 722.27087346 70.17867693 C725.24904421 54.96115625 728.09564354 39.72026252 730.91213933 24.47207293 C731.07507985 23.59099367 731.23802037 22.70991442 731.40589848 21.8021358 C731.70786312 20.16845017 732.00916615 18.53464203 732.30961552 16.90067706 C733.05293046 12.87707683 733.82521972 8.86078988 734.63032475 4.84905657 C734.80827675 3.96163838 734.98622874 3.07422018 735.16957322 2.15991053 C735.30408292 1.49037285 735.43859263 0.82083517 735.57717839 0.13100848 C782.08747723 0.11389873 828.59777633 0.09797701 875.10807744 0.08866534 C875.7958913 0.08852728 876.48370516 0.08838922 877.19236187 0.08824698 C892.13859486 0.08525443 907.08482789 0.08248419 922.03106096 0.07994315 C929.36015415 0.07869575 936.68924732 0.07739921 944.0183405 0.07607684 C944.74769297 0.07594608 945.47704545 0.07581532 946.22849951 0.0756806 C969.89039401 0.07141541 993.55228613 0.06390125 1017.21417919 0.05471126 C1041.51961276 0.04528842 1065.82504502 0.0391253 1090.13048039 0.03709349 C1093.55948087 0.03680531 1096.98848134 0.03647967 1100.41748181 0.03613123 C1101.09239182 0.03606381 1101.76730183 0.03599639 1102.46266366 0.03592692 C1113.34895438 0.03474288 1124.23524103 0.03009859 1135.12153008 0.02417644 C1146.05253238 0.01830323 1156.98353122 0.01611821 1167.91453513 0.0175071 C1173.84261873 0.01815081 1179.77069036 0.01712925 1185.69877186 0.011803 C1191.11625202 0.00697075 1196.53371203 0.00666867 1201.95119307 0.01010958 C1203.92024266 0.01053545 1205.88929347 0.00923825 1207.85834064 0.00612529 C1210.51653698 0.00216422 1213.17465874 0.00424326 1215.8328537 0.00796065 C1216.61314727 0.00533363 1217.39344083 0.00270662 1218.19737965 0 C1223.46303259 0.01686268 1223.46303259 0.01686268 1224.57717839 1.13100848 C1224.96774678 4.10454871 1225.29839859 7.06536755 1225.59280339 10.04897723 C1225.68869755 10.98752047 1225.78459172 11.92606371 1225.88339177 12.89304766 C1226.20270999 16.03441013 1226.51510939 19.17641813 1226.82717839 22.31850848 C1227.05035497 24.53401644 1227.27366457 26.74951101 1227.49710026 28.96499285 C1229.22085996 46.1524056 1230.8190476 63.35080777 1232.38958684 80.55279192 C1233.83566709 96.38120419 1235.37325328 112.19669842 1237.01467839 128.00600848 C1238.99129246 147.0546338 1240.80908954 166.1150859 1242.5739359 185.1844295 C1244.81490533 209.38675162 1247.20136876 233.57282036 1249.63967839 257.75600848 C1252.04475021 281.6095436 1254.39061388 305.46494264 1256.56234685 329.34109148 C1257.94908009 344.57361068 1259.43619852 359.79218884 1261.01467839 375.00600848 C1262.99091892 394.05467456 1264.80908909 413.11508109 1266.5739359 432.1844295 C1268.81490533 456.38675162 1271.20136876 480.57282036 1273.63967839 504.75600848 C1276.04441115 528.6061808 1278.39057352 552.45817462 1280.56133977 576.33102068 C1282.05858304 592.78341183 1283.68553449 609.21866259 1285.39050236 625.65075335 C1287.06389365 641.80125962 1288.60226636 657.9612294 1290.07717839 674.13100848 C1291.62533665 691.10031797 1293.25495637 708.05732723 1295.01467839 725.00600848 C1296.99129246 744.0546338 1298.80908954 763.1150859 1300.5739359 782.1844295 C1302.81490533 806.38675162 1305.20136876 830.57282036 1307.63967839 854.75600848 C1310.04475021 878.6095436 1312.39061388 902.46494264 1314.56234685 926.34109148 C1315.94908009 941.57361068 1317.43619852 956.79218884 1319.01467839 972.00600848 C1320.99091892 991.05467456 1322.80908909 1010.11508109 1324.5739359 1029.1844295 C1326.81490533 1053.38675162 1329.20136876 1077.57282036 1331.63967839 1101.75600848 C1334.04441115 1125.6061808 1336.39057352 1149.45817462 1338.56133977 1173.33102068 C1340.05858304 1189.78341183 1341.68553449 1206.21866259 1343.39050236 1222.65075335 C1345.06389365 1238.80125962 1346.60226636 1254.9612294 1348.07717839 1271.13100848 C1349.715253 1289.08588799 1351.45888903 1307.02539992 1353.3212885 1324.95834002 C1355.35679519 1344.59468478 1357.2053418 1364.24715295 1359.02349797 1383.90453753 C1360.84977407 1403.66867524 1360.84977407 1403.66867524 1362.84670964 1423.41616473 C1362.99080014 1424.78487719 1362.99080014 1424.78487719 1363.13780156 1426.18124041 C1363.56789383 1430.24794959 1364.00663022 1434.31343817 1364.46023503 1438.37759051 C1364.61131395 1439.77845662 1364.76228188 1441.17933472 1364.91311589 1442.58022723 C1365.04250554 1443.73869158 1365.17189519 1444.89715594 1365.30520573 1446.09072527 C1365.68674791 1451.75871581 1365.57717839 1457.45019065 1365.57717839 1463.13100848 C1229.28717839 1463.13100848 1092.99717839 1463.13100848 952.57717839 1463.13100848 C951.91717839 1448.28100848 951.25717839 1433.43100848 950.57717839 1418.13100848 C950.14158164 1408.99654473 949.70479862 1399.86228411 949.25854436 1390.72835955 C948.24815561 1369.99116337 947.30551232 1349.25292028 946.51467839 1328.50600848 C946.47486851 1327.46229082 946.43505864 1326.41857317 946.3940424 1325.34322771 C946.35449437 1324.30591509 946.31494633 1323.26860247 946.27419987 1322.19985613 C945.76789991 1308.92506592 945.23125901 1295.65228833 944.63967839 1282.38100848 C944.59994908 1281.48889666 944.56021977 1280.59678484 944.51928654 1279.67763934 C943.98886541 1267.81976256 943.42764189 1255.96345526 942.85452214 1244.10757098 C942.59525364 1238.74039089 942.33608379 1233.37320609 942.07717839 1228.00600848 C942.04474286 1227.3340922 942.01230733 1226.66217593 941.9788889 1225.96989855 C941.07107862 1207.15179356 940.23230795 1188.33246052 939.51467839 1169.50600848 C939.47486851 1168.46229082 939.43505864 1167.41857317 939.3940424 1166.34322771 C939.35449437 1165.30591509 939.31494633 1164.26860247 939.27419987 1163.19985613 C938.76789991 1149.92506592 938.23125901 1136.65228833 937.63967839 1123.38100848 C937.59994908 1122.48889666 937.56021977 1121.59678484 937.51928654 1120.67763934 C936.98886541 1108.81976256 936.42764189 1096.96345526 935.85452214 1085.10757098 C935.59525364 1079.74039089 935.33608379 1074.37320609 935.07717839 1069.00600848 C935.04474286 1068.3340922 935.01230733 1067.66217593 934.9788889 1066.96989855 C934.07107862 1048.15179356 933.23230795 1029.33246052 932.51467839 1010.50600848 C932.47486851 1009.46229082 932.43505864 1008.41857317 932.3940424 1007.34322771 C932.35449437 1006.30591509 932.31494633 1005.26860247 932.27419987 1004.19985613 C931.76789991 990.92506592 931.23125901 977.65228833 930.63967839 964.38100848 C930.59994908 963.48889666 930.56021977 962.59678484 930.51928654 961.67763934 C929.98886537 949.81976175 929.42746486 937.96346434 928.85452214 926.10757098 C928.78997144 924.76809446 928.72544218 923.42861692 928.66093388 922.08913836 C928.59583559 920.73818568 928.53072631 919.38723354 928.46560612 918.03628191 C928.43319231 917.36382937 928.40077849 916.69137682 928.36738244 915.99854693 C928.15378069 911.57413359 927.93640757 907.14991567 927.71804753 902.72573504 C926.97460072 887.48631307 926.33982722 872.24526856 925.75696126 856.9989036 C924.82711742 832.69095744 923.71937166 808.39546523 922.51830998 784.09954485 C921.96139392 772.82914963 921.41461627 761.5582611 920.87014714 750.28725848 C920.81494216 749.1449886 920.75973717 748.00271872 920.70285931 746.8258346 C919.60491516 724.06372776 918.60560797 701.29789293 917.63558522 678.53002581 C916.34763977 648.31436644 914.99792288 618.10262707 913.52128926 587.89554629 C913.39071235 585.2147363 913.26156192 582.53386111 913.13281193 579.85296282 C912.93323003 575.70246061 912.72973634 571.55216932 912.52295247 567.40201983 C912.44805476 565.88859221 912.37437171 564.37510392 912.30199757 562.86155352 C912.20303526 560.79891384 912.0993591 558.73656413 911.99441472 556.67422137 C911.93764058 555.52385897 911.88086644 554.37349657 911.82237187 553.18827471 C911.60074448 550.42484917 911.18924578 547.83158167 910.57717839 545.13100848 C910.47284489 546.37817644 910.3685114 547.62534441 910.26101628 548.91030535 C903.62298089 627.54243427 894.56781296 706.01693949 880.98916569 783.76769671 C880.61006007 785.94238696 880.23510137 788.11774505 879.86135808 790.29336199 C877.80366818 802.20024885 875.5072677 814.06114908 873.22460881 825.92657122 C871.80506456 833.30635132 870.39182016 840.68733869 868.97952214 848.06850848 C868.81870467 848.90894513 868.6578872 849.74938177 868.49219647 850.6152862 C865.16843054 867.99172087 861.87297072 885.37351245 858.58108464 902.75600848 C858.44799334 903.45877531 858.31490204 904.16154215 858.17777768 904.88560495 C855.46197155 919.22644058 852.74791375 933.56760702 850.0345985 947.90891412 C848.6102315 955.43741842 847.18563332 962.96587894 845.76077214 970.49428973 C845.63349547 971.16678767 845.5062188 971.83928561 845.37508526 972.53216228 C840.1615709 1000.07801958 834.9202566 1027.61854575 829.66931668 1055.15729174 C827.43951395 1066.85158489 825.21202948 1078.54631904 822.98471013 1090.24108538 C821.73951177 1096.77907352 820.49386783 1103.31697668 819.2481226 1109.85486063 C817.11574025 1121.04601197 814.9864113 1132.23773656 812.86079159 1143.4301742 C811.70447766 1149.51808988 810.5472184 1155.60582582 809.38967839 1161.69350848 C809.26409676 1162.35406615 809.13851514 1163.01462382 809.009128 1163.69519839 C805.46868356 1182.31580056 801.87109756 1200.92414626 798.20770207 1219.52093157 C795.59227756 1232.80703233 793.08229887 1246.10847697 790.65881291 1259.43084368 C788.24508101 1272.68710924 785.68300928 1285.91126014 783.07717839 1299.13100848 C780.22756388 1313.59604832 777.42899826 1328.06809266 774.76467839 1342.56850848 C774.62034367 1343.3539403 774.47600896 1344.13937212 774.32730046 1344.94860491 C772.43447112 1355.2701284 770.62090139 1365.60339778 768.85769597 1375.94790301 C767.68329107 1382.74668195 766.20226814 1389.42506584 764.57717839 1396.13100848 C763.1418026 1402.52592897 762.1304565 1408.96835936 761.13967839 1415.44350848 C760.11224142 1422.13978817 758.86002193 1428.71139389 757.26077214 1435.29897723 C756.23379967 1439.55357744 755.41546265 1443.83480164 754.57717839 1448.13100848 C753.58717839 1453.08100848 752.59717839 1458.03100848 751.57717839 1463.13100848 C645.31717839 1463.13100848 539.05717839 1463.13100848 429.57717839 1463.13100848 C428.31721485 1458.72113609 427.22554448 1454.69436028 426.42874089 1450.23647723 C426.13133 1448.57902483 426.13133 1448.57902483 425.82791081 1446.88808855 C425.62141911 1445.71012713 425.41492741 1444.5321657 425.20217839 1443.31850848 C424.98086247 1442.06642596 424.75954655 1440.81434344 424.53152409 1439.52431902 C423.00950958 1430.82419208 421.61658668 1422.1108645 420.30374089 1413.37710223 C418.53402583 1401.67503289 416.61568306 1389.99777952 414.70217839 1378.31850848 C414.44011601 1376.71826327 414.44011601 1376.71826327 414.17275944 1375.08568987 C413.47043721 1370.79724695 412.76798389 1366.50882558 412.06512395 1362.22047076 C410.5380237 1352.90064242 409.02383189 1343.57875724 407.51467839 1334.25600848 C407.03432359 1331.28984418 406.55384276 1328.32370031 406.07327214 1325.35757098 C405.89365941 1324.24896464 405.89365941 1324.24896464 405.71041813 1323.11796221 C404.17123465 1313.62146041 402.6238256 1304.12629695 401.07717839 1294.63100848 C398.78338196 1280.54824521 396.49469345 1266.46466901 394.2124323 1252.38003191 C392.17318812 1239.79607117 390.1265536 1227.21332305 388.07717839 1214.63100848 C385.90560813 1201.29846697 383.73790139 1187.96531228 381.57717839 1174.63100848 C379.43660985 1161.42181635 377.29026829 1148.21357277 375.13967839 1135.00600848 C374.99386326 1134.11049273 374.84804814 1133.21497698 374.69781438 1132.29232439 C373.65776688 1125.90519229 372.61749737 1119.51809636 371.57717839 1113.13100848 C370.38952703 1105.83936645 369.20197206 1098.54770875 368.01467839 1091.25600848 C367.8687827 1090.36000933 367.72288701 1089.46401019 367.57257023 1088.54085955 C365.44727817 1075.48753453 363.32760911 1062.43330708 361.21215764 1049.37838396 C359.17300713 1036.79497219 357.12646408 1024.21277341 355.07717839 1011.63100848 C352.90560813 998.29846697 350.73790139 984.96531228 348.57717839 971.63100848 C346.43660985 958.42181635 344.29026829 945.21357277 342.13967839 932.00600848 C341.9209557 930.66273486 341.9209557 930.66273486 341.69781438 929.29232439 C340.65776688 922.90519229 339.61749737 916.51809636 338.57717839 910.13100848 C337.9808062 906.46955308 337.38445497 902.80809427 336.78811589 899.14663348 C336.56803364 897.79547442 336.56803364 897.79547442 336.34350529 896.41701922 C335.60357027 891.873864 334.86410098 887.33063374 334.12551823 882.78725848 C333.83337683 880.99038127 333.54122201 879.19350625 333.24905339 877.39663348 C333.10629979 876.51866106 332.96354619 875.64068865 332.81646672 874.73611102 C332.04864222 870.01719768 331.2769264 865.29895528 330.49977055 860.58157 C323.09584602 815.63392664 316.0089968 770.64289233 310.48484746 725.42216143 C309.58391864 718.08234361 308.56440013 710.76358922 307.51467839 703.44350848 C305.52357165 689.43617124 303.96410057 675.38168542 302.41482487 661.31972918 C302.21796716 659.54064028 302.0207825 657.76158753 301.82327214 655.98257098 C301.72343022 655.08248309 301.6235883 654.18239519 301.52072087 653.25503191 C300.93130147 648.02348216 300.27077337 642.80753636 299.55126897 637.592419 C297.04416647 619.30290598 295.42183325 600.91270618 293.66268864 582.53963885 C293.20276644 577.74495247 292.7383947 572.95069704 292.27444401 568.1563991 C291.37110327 558.81500901 290.47254101 549.47316641 289.57717839 540.13100848 C288.88661376 551.64018595 288.35885921 563.1433569 288.00716153 574.6677669 C287.92544538 577.34442356 287.8409953 580.02098344 287.75596562 582.6975368 C287.63340131 586.562325 287.51184236 590.42714275 287.39111272 594.2919887 C287.06819561 604.61355244 286.73611951 614.93482149 286.40139714 625.25600848 C286.35048641 626.82643688 286.35048641 626.82643688 286.29854718 628.4285911 C285.61138141 649.56147064 284.83327528 670.69035526 284.01467839 691.81850848 C283.9674092 693.03892147 283.9674092 693.03892147 283.91918507 694.28398928 C283.82434348 696.73193914 283.72945328 699.17988712 283.63455144 701.62783465 C283.54166722 704.02425507 283.44880035 706.42067615 283.35597745 708.81709895 C283.29540236 710.38084034 283.23478595 711.94458013 283.17412701 713.50831828 C282.76666102 724.02379446 282.37854851 734.53970877 282.01467839 745.05678973 C281.949548 746.93922633 281.949548 746.93922633 281.88310185 748.85969195 C281.6891513 754.49258504 281.49806738 760.12555811 281.31130925 765.75869402 C281.08342476 772.55011248 280.83404235 779.34062832 280.57717839 786.13100848 C280.55026669 786.84996672 280.52335499 787.56892496 280.49562779 788.30966982 C279.05166959 826.75199821 276.89208155 865.15548153 274.7747083 903.56509355 C273.85797801 920.20135078 272.95106641 936.83814756 272.04540363 953.47501048 C271.94416402 955.33471243 271.8428954 957.19441279 271.7415978 959.05411157 C270.38562332 983.95016214 269.05582411 1008.84728656 267.79202214 1033.74819598 C267.75839369 1034.41057072 267.72476524 1035.07294546 267.69011775 1035.75539216 C267.04137238 1048.53983872 266.40000962 1061.3246472 265.76652661 1074.10985884 C264.54091652 1098.83059225 263.22805329 1123.54475712 261.8173615 1148.25555572 C260.24602276 1175.78278956 258.76606343 1203.31366182 257.35842839 1230.84975848 C257.28846886 1232.21736878 257.28846886 1232.21736878 257.217096 1233.61260757 C256.50071224 1247.61858481 255.78849159 1261.62477294 255.07717839 1275.63100848 C250.77614833 1360.32118402 250.77614833 1360.32118402 248.54680768 1400.04190287 C248.4240294 1402.23194462 248.30185936 1404.42201956 248.17982426 1406.61210284 C247.95232915 1410.6895227 247.72111592 1414.76672326 247.48928776 1418.8438991 C247.42641575 1419.96916003 247.36354375 1421.09442095 247.29876652 1422.25378069 C246.51456227 1435.88915771 245.51705346 1449.50281998 244.57717839 1463.13100848 C105.64717839 1463.13100848 -33.28282161 1463.13100848 -176.42282161 1463.13100848 C-174.1126444 1438.87414778 -174.1126444 1438.87414778 -172.67282161 1426.88100848 C-172.50473632 1425.46557635 -172.33677258 1424.05012978 -172.16891536 1422.63467059 C-170.75011225 1410.71083709 -169.27952707 1398.79331195 -167.81402645 1386.8751491 C-164.55928942 1360.40460823 -161.50474745 1333.91796396 -158.56979427 1307.41030535 C-155.48480489 1279.55152774 -152.23833832 1251.71879157 -148.81704769 1223.89931902 C-145.56091801 1197.42076893 -142.50564072 1170.92603172 -139.56979427 1144.41030535 C-136.83753137 1119.73679913 -134.02712172 1095.07655088 -130.98141536 1070.43960223 C-130.46161875 1066.2326037 -129.94204358 1062.02557796 -129.42282161 1057.81850848 C-129.29305934 1056.76730822 -129.16329708 1055.71610796 -129.02960262 1054.63305315 C-127.34949333 1040.99676244 -125.74687608 1027.35631063 -124.29782161 1013.69350848 C-124.17839198 1012.56790011 -124.17839198 1012.56790011 -124.05654964 1011.41955218 C-123.97745357 1010.67392016 -123.8983575 1009.92828814 -123.81686458 1009.16006121 C-121.39875841 986.37408467 -118.61277535 963.63341305 -115.81604061 940.89126238 C-112.5603745 914.41538211 -109.50534297 887.92334246 -106.56979427 861.41030535 C-103.48480489 833.55152774 -100.23833832 805.71879157 -96.81704769 777.89931902 C-93.80559054 753.41042367 -90.93168459 728.91130883 -88.24313411 704.38491473 C-87.82449418 700.57104307 -87.4051943 696.75724461 -86.98532161 692.94350848 C-86.82833797 691.51709032 -86.82833797 691.51709032 -86.66818294 690.06185564 C-85.17492314 676.52868653 -83.57312182 663.01309517 -81.86032161 649.50600848 C-78.85820074 625.82649476 -76.19428144 602.11424402 -73.567597 578.39052996 C-70.48337576 550.53834175 -67.23752852 522.71220687 -63.81704769 494.89931902 C-60.56091801 468.42076893 -57.50564072 441.92603172 -54.56979427 415.41030535 C-51.48480489 387.55152774 -48.23833832 359.71879157 -44.81704769 331.89931902 C-41.80559054 307.41042367 -38.93168459 282.91130883 -36.24313411 258.38491473 C-35.82449418 254.57104307 -35.4051943 250.75724461 -34.98532161 246.94350848 C-34.88066585 245.99256304 -34.77601009 245.04161761 -34.66818294 244.06185564 C-33.17492314 230.52868653 -31.57312182 217.01309517 -29.86032161 203.50600848 C-26.85820074 179.82649476 -24.19428144 156.11424402 -21.567597 132.39052996 C-18.81400644 107.52411582 -15.97287477 82.67242786 -12.91110286 57.84194598 C-12.7783546 56.76388689 -12.64560634 55.68582781 -12.50883541 54.57510027 C-11.85210307 49.24337585 -11.19288346 43.91198463 -10.5285345 38.58120379 C-10.28183078 36.59005827 -10.03564689 34.59884827 -9.79000911 32.60757098 C-9.67155132 31.64738055 -9.55309352 30.68719012 -9.4310461 29.69790301 C-8.51890714 22.18610473 -7.7455326 14.66450669 -7.07537898 7.12725481 C-6.41583192 0.02037949 -6.41583192 0.02037949 0 0 Z " fill="#000000" transform="translate(1125.422821611166,2265.868991523981)"/>
<path d="M0 0 C3.76875157 -0.00218366 7.53720814 -0.02040545 11.3059082 -0.03930664 C26.67736032 -0.07552566 41.81752495 0.58083763 57.10473633 2.18530273 C57.88871796 2.26571808 58.67269958 2.34613342 59.48043823 2.4289856 C64.23674636 2.92214893 68.98377913 3.47477799 73.72973633 4.06030273 C74.42663574 4.14622681 75.12353516 4.23215088 75.84155273 4.32067871 C88.02352452 5.83343205 100.10018636 7.59494896 112.10473633 10.18530273 C113.27810547 10.43731445 114.45147461 10.68932617 115.66040039 10.94897461 C163.76770943 21.49337593 209.620113 39.24683653 252.10473633 64.18530273 C252.92635254 64.66644531 253.74796875 65.14758789 254.59448242 65.64331055 C265.84032665 72.26779753 276.56470485 79.49214939 287.10473633 87.18530273 C288.15016602 87.94456055 289.1955957 88.70381836 290.27270508 89.48608398 C301.58393725 97.83594093 312.57798708 106.6923654 322.93676758 116.20092773 C325.02342427 118.11087656 327.14862587 119.9647562 329.29223633 121.81030273 C332.45523971 124.56129164 335.40599209 127.46225963 338.33911133 130.45483398 C340.11088141 132.19132546 341.95504006 133.778139 343.85473633 135.37280273 C348.85051637 139.6877759 353.17072041 144.60779385 357.57788086 149.50561523 C359.70910263 151.85016365 361.88240079 154.1540878 364.05322266 156.46191406 C370.02652924 162.82491649 375.65103327 169.36817391 381.10473633 176.18530273 C382.09767853 177.38865412 383.09260142 178.59037289 384.08911133 179.79077148 C391.63265836 188.90870357 398.68927555 198.29492509 405.52270508 207.95483398 C407.06037068 210.12275265 408.61181284 212.28010155 410.16723633 214.43530273 C427.85265196 239.04459013 443.0121997 265.38573167 457.10473633 292.18530273 C457.83660156 293.57096436 457.83660156 293.57096436 458.58325195 294.98461914 C488.78959438 352.56673673 509.30942503 415.03585612 524.10473633 478.18530273 C524.55453857 480.09617676 524.55453857 480.09617676 525.01342773 482.0456543 C526.80936615 489.73890901 528.49688307 497.4506582 530.10473633 505.18530273 C530.34643555 506.340625 530.58813477 507.49594727 530.8371582 508.6862793 C547.98055341 591.48665175 553.54407425 675.81265478 553.48229599 760.199543 C553.479697 763.92924517 553.4803595 767.65893851 553.48110962 771.38864136 C553.47289503 806.63848219 552.84150658 841.55720464 549.34820557 876.65203857 C548.9794397 880.488997 548.68012661 884.3306035 548.38208008 888.17358398 C546.20031203 915.54478199 542.13841361 942.82202276 537.85473633 969.93530273 C537.70399658 970.89106201 537.55325684 971.84682129 537.39794922 972.83154297 C536.67963113 977.22027653 535.80200635 981.48774927 534.67651367 985.79370117 C533.7581293 989.63507319 533.04808007 993.51609 532.30345154 997.39424133 C526.83108768 1025.86474197 520.19824555 1053.98917739 511.26489258 1081.58862305 C510.18146726 1084.94742392 509.11544418 1088.31116693 508.05387878 1091.6769104 C492.70608832 1140.28182729 473.80849077 1188.2788366 448.5402832 1232.6628418 C447.05367626 1235.27502256 445.58622189 1237.89736889 444.12036133 1240.52124023 C437.49271689 1252.32257082 430.48325647 1263.83929233 423.10473633 1275.18530273 C422.61505371 1275.93908203 422.12537109 1276.69286133 421.62084961 1277.46948242 C401.74167892 1307.9469449 379.45614298 1336.89865676 354.64428711 1363.52807617 C352.93494935 1365.3680674 351.23689421 1367.218176 349.53833008 1369.06811523 C342.2245783 1376.99631684 334.72296576 1384.54541846 326.69311523 1391.74536133 C325.07508829 1393.2121801 323.48378942 1394.70357214 321.89770508 1396.20483398 C315.41440474 1402.32686017 308.72950618 1408.00350769 301.65551758 1413.43139648 C299.33943236 1415.21052807 297.07111798 1417.02914775 294.83520508 1418.90795898 C278.37739437 1432.65149838 259.79240485 1444.69398006 241.10473633 1455.18530273 C240.27039062 1455.65709961 239.43604492 1456.12889648 238.57641602 1456.61499023 C217.58115924 1468.42344525 195.86077741 1479.18933161 173.10473633 1487.18530273 C172.18821289 1487.51030762 171.27168945 1487.8353125 170.32739258 1488.17016602 C137.28522001 1499.72311029 102.98624385 1508.17282751 68.1762085 1511.95672607 C66.12509157 1512.18305663 64.07612703 1512.42374658 62.02709961 1512.66821289 C23.9758255 1517.14889811 -14.88497434 1516.76765697 -52.89526367 1512.18530273 C-54.96299103 1511.95407114 -57.03126889 1511.72824045 -59.09959412 1511.50242615 C-74.67997746 1509.79067974 -89.98626767 1507.4751502 -105.23901367 1503.80883789 C-107.87778486 1503.18940576 -110.52269423 1502.62310122 -113.17651367 1502.07202148 C-170.56377612 1490.00157957 -226.82891799 1464.63386202 -274.89526367 1431.18530273 C-275.84876709 1430.52498047 -275.84876709 1430.52498047 -276.8215332 1429.85131836 C-290.29715746 1420.50355956 -303.29027095 1410.68654146 -315.89526367 1400.18530273 C-316.40557129 1399.7613623 -316.91587891 1399.33742188 -317.44165039 1398.90063477 C-324.93995204 1392.66078934 -332.22895178 1386.23635816 -339.37280273 1379.59448242 C-340.92212532 1378.16043977 -342.48146327 1376.73806931 -344.04370117 1375.31811523 C-354.16329621 1366.09793726 -364.27809998 1356.68974171 -373.13354492 1346.22827148 C-374.98579041 1344.08032384 -376.90319247 1341.9996368 -378.83325195 1339.92163086 C-384.44446665 1333.87379769 -389.77739597 1327.65930063 -394.89526367 1321.18530273 C-395.40428223 1320.54351074 -395.91330078 1319.90171875 -396.43774414 1319.24047852 C-450.66024514 1250.70640353 -488.58328635 1172.89167152 -521.97583008 1061.61669922 C-522.64939911 1059.1028881 -523.34290633 1056.60068193 -524.06079102 1054.09960938 C-527.31193738 1042.73791025 -529.96657612 1031.31124952 -532.39526367 1019.74780273 C-532.58980133 1018.82789551 -532.78433899 1017.90798828 -532.98477173 1016.96020508 C-534.30677862 1010.70568246 -535.60883929 1004.44723619 -536.89526367 998.18530273 C-537.15871582 996.90381348 -537.42216797 995.62232422 -537.69360352 994.30200195 C-541.89206114 973.55615156 -544.71441673 952.58003534 -547.56390381 931.61499023 C-547.86780425 929.3866482 -548.17578406 927.15892306 -548.4855957 924.93139648 C-551.9120833 900.10411738 -554.07876741 875.17620312 -555.89526367 850.18530273 C-555.97258728 849.13826172 -556.04991089 848.0912207 -556.12957764 847.01245117 C-558.50997003 814.47729056 -559.18218946 782.0167941 -559.20533752 749.407341 C-559.20771596 746.55502121 -559.21302415 743.70271787 -559.21862793 740.85040283 C-559.25454817 715.90857401 -558.57623299 691.08265323 -557.02036667 666.18874741 C-556.90506841 664.34231941 -556.79274327 662.49570641 -556.68069458 660.64907837 C-556.27225812 653.98922226 -555.80125772 647.33647977 -555.27026367 640.68530273 C-555.19144958 639.68976379 -555.1126355 638.69422485 -555.03143311 637.66851807 C-551.89948191 598.86741559 -547.60798828 559.44306061 -539.36724854 521.38085938 C-538.82918093 518.87790218 -538.30284152 516.37262068 -537.77758789 513.86694336 C-531.35816661 483.27879362 -524.43855647 452.97330415 -514.89526367 423.18530273 C-514.50886719 421.97165039 -514.1224707 420.75799805 -513.72436523 419.50756836 C-498.66919923 372.37902966 -479.54686785 326.14151201 -454.89526367 283.18530273 C-454.43958008 282.37770508 -453.98389648 281.57010742 -453.5144043 280.73803711 C-436.06631529 249.86093615 -415.60765863 220.40831996 -392.89526367 193.18530273 C-392.40396973 192.59491211 -391.91267578 192.00452148 -391.40649414 191.39624023 C-386.12137862 185.05765463 -380.74576626 178.81023497 -375.18505859 172.71044922 C-373.77767043 171.15840574 -372.37856082 169.59874648 -370.99365234 168.02661133 C-364.81881575 161.03859951 -358.29625275 154.43324966 -351.69287109 147.85253906 C-349.82883123 145.99388165 -347.97022855 144.12990659 -346.11206055 142.26538086 C-340.20871785 136.35839303 -334.28395649 130.57174181 -327.89526367 125.18530273 C-326.70310963 124.14076268 -325.51300516 123.09387882 -324.32495117 122.04467773 C-316.62836787 115.29744329 -308.80668805 108.77659818 -300.67993164 102.5534668 C-299.48845185 101.64005329 -298.29997115 100.72271458 -297.11450195 99.80151367 C-280.26646834 86.71416125 -262.41211659 74.7831592 -243.89526367 64.18530273 C-242.95408691 63.64365479 -242.95408691 63.64365479 -241.99389648 63.09106445 C-237.98856597 60.79192913 -233.96362197 58.53112433 -229.91918945 56.30151367 C-228.59017802 55.56855345 -227.26296294 54.83232468 -225.93774414 54.0925293 C-176.26624003 26.44342498 -119.74626025 10.09221635 -63.45532227 3.48950195 C-60.4601862 3.13360461 -57.47014556 2.74461266 -54.48046875 2.34570312 C-36.3707074 0.13239303 -18.22286263 -0.00117696 0 0 Z " fill="#000000" transform="translate(3122.895263671875,2239.814697265625)"/>
<path d="M0 0 C124.74 0 249.48 0 378 0 C383.28 13.86 388.56 27.72 394 42 C397.79002465 51.76528875 401.58201293 61.52932756 405.38665771 71.28884888 C408.95979027 80.45777565 412.51386187 89.6340691 416.0625 98.8125 C416.58361862 100.16018463 416.58361862 100.16018463 417.11526489 101.53509521 C423.88248301 119.0440065 430.57081394 136.58279764 437.25588989 154.12319946 C442.32911141 167.43141879 447.42368392 180.72717604 452.67675781 193.96557617 C458.69737432 209.20364863 464.47647119 224.53648554 470.30273438 239.84960938 C474.70034432 251.40149185 479.13157979 262.9381039 483.64976501 274.44338989 C487.62551127 284.57413249 491.52501006 294.73388422 495.42379761 304.8944397 C501.82179427 321.56686903 508.24269856 338.22961742 514.73867798 354.86410522 C518.61738926 364.80327546 522.44416166 374.76167188 526.24609375 384.73046875 C526.70896286 385.94410599 527.17183197 387.15774323 527.64872742 388.40815735 C529.94976792 394.44388497 532.2479591 400.4806828 534.54272461 406.51879883 C538.30317027 416.40230394 542.07809327 426.27533747 546.03515625 436.08203125 C551.16370228 448.7923778 555.95970013 461.62932838 560.79370117 474.45385742 C566.61107296 489.89843049 566.61107296 489.89843049 572.79296875 505.19921875 C575.74088491 512.24797459 578.32087834 519.37930092 580.75 526.625 C581.60809408 529.14888413 582.46730012 531.67236129 583.328125 534.1953125 C583.54629883 534.83619812 583.76447266 535.47708374 583.98925781 536.13739014 C586.81515934 544.42135862 589.76715597 552.66068217 592.71777344 560.90087891 C596.90028249 572.62071983 600.9380787 584.39034924 604.98709583 596.15680408 C606.93015051 601.80145639 608.88299365 607.4426998 610.83668518 613.0836792 C629.64278231 667.40722269 648.05415026 721.88861059 664.9354248 776.84495544 C665.19392212 777.68631546 665.45241943 778.52767548 665.71875 779.39453125 C666.10407898 780.64877647 666.10407898 780.64877647 666.49719238 781.92835999 C670.73993096 795.69391197 675.18000793 809.39793621 679.58618164 823.11181641 C684.27507528 837.70714494 688.93456862 852.30764647 693.3125 867 C693.79184177 868.60548936 694.27125763 870.21095661 694.75073242 871.81640625 C695.16715495 873.2109375 695.58357747 874.60546875 696 876 C694.84719922 863.71283071 693.50029658 851.45033371 692.08203125 839.19140625 C691.94896261 838.04017682 691.94896261 838.04017682 691.81320572 836.86569023 C691.4400109 833.63740277 691.0666031 830.40914001 690.69296837 827.18090343 C686.54341388 791.31558402 682.7186374 755.42841724 679.1509552 719.50099182 C678.03657623 708.29994934 676.86668226 697.1052576 675.68231201 685.91143799 C666.94017582 603.08946408 659.72508474 519.98171948 655.3125 436.8125 C655.25147095 435.68101532 655.19044189 434.54953064 655.12756348 433.38375854 C653.38453872 400.68524996 652.84351209 367.98031312 652.88392727 335.24019518 C652.88840517 330.6507355 652.88682556 326.06127639 652.88610935 321.47181511 C652.88558516 312.62828889 652.89012828 303.78477311 652.89661068 294.94124954 C652.90390439 284.67689654 652.90461048 274.41254951 652.90539551 264.14819336 C652.91061333 237.14046062 652.92457458 210.13273015 652.9375 183.125 C652.9684375 92.478125 652.9684375 92.478125 653 0 C777.41 0 901.82 0 1030 0 C1030 482.79 1030 965.58 1030 1463 C905.59 1463 781.18 1463 653 1463 C647.38389732 1449.52135356 647.38389732 1449.52135356 645.45703125 1444.1796875 C645.02817627 1442.99834229 644.59932129 1441.81699707 644.1574707 1440.59985352 C643.71363037 1439.37065186 643.26979004 1438.1414502 642.8125 1436.875 C639.25065443 1427.06168333 635.59978544 1417.29165153 631.8125 1407.5625 C628.32642434 1398.59548578 625.07440444 1389.57576637 621.96801758 1380.47094727 C619.31886794 1372.76705242 616.37218115 1365.2030986 613.35961914 1357.63525391 C610.68706198 1350.87583223 608.22857692 1344.06406266 605.875 1337.1875 C603.60313868 1330.55003617 601.27149496 1323.96013897 598.6875 1317.4375 C595.58016733 1309.58801338 592.64789358 1301.67897805 589.75 1293.75 C589.51763641 1293.11460297 589.28527283 1292.47920593 589.04586792 1291.82455444 C587.11781013 1286.55099612 585.19431803 1281.27577519 583.27099609 1276.00048828 C581.59940739 1271.41623195 579.92588132 1266.83268885 578.25 1262.25 C578.01803925 1261.61532806 577.78607849 1260.98065613 577.54708862 1260.32675171 C574.62580617 1252.34015333 571.62308225 1244.39527779 568.49121094 1236.48925781 C565.77684279 1229.56843173 563.38759789 1222.54006746 560.97314453 1215.51025391 C558.99179458 1209.76995652 556.92393363 1204.08309881 554.6875 1198.4375 C551.58018329 1190.58800657 548.64789381 1182.67897867 545.75 1174.75 C545.51763641 1174.11460297 545.28527283 1173.47920593 545.04586792 1172.82455444 C543.11781013 1167.55099612 541.19431803 1162.27577519 539.27099609 1157.00048828 C537.59940739 1152.41623195 535.92588132 1147.83268885 534.25 1143.25 C534.01803925 1142.61532806 533.78607849 1141.98065613 533.54708862 1141.32675171 C530.62444993 1133.33644545 527.62028104 1125.38790709 524.48681641 1117.47827148 C521.82157376 1110.68325363 519.48353304 1103.78179351 517.12036133 1096.87719727 C514.75066818 1090.012299 512.18587724 1083.24691443 509.5 1076.5 C506.43046315 1068.78933395 503.56246556 1061.03960167 500.875 1053.1875 C498.60313868 1046.55003617 496.27149496 1039.96013897 493.6875 1033.4375 C490.58016733 1025.58801338 487.64789358 1017.67897805 484.75 1009.75 C484.51763641 1009.11460297 484.28527283 1008.47920593 484.04586792 1007.82455444 C482.11781013 1002.55099612 480.19431803 997.27577519 478.27099609 992.00048828 C476.59940739 987.41623195 474.92588132 982.83268885 473.25 978.25 C473.01803925 977.61532806 472.78607849 976.98065613 472.54708862 976.32675171 C469.62500348 968.33795882 466.6203774 960.39137862 463.48901367 952.48266602 C460.80541723 945.63777124 458.4356585 938.68975868 456.05004883 931.73657227 C453.82187539 925.27395808 451.46552417 918.87554552 449 912.5 C445.19844261 902.64105627 441.7187996 892.68938247 438.27978516 882.69921875 C435.8704115 875.73492465 433.42631923 868.78274807 430.98815918 861.82849121 C420.04699058 830.61232574 420.04699058 830.61232574 414.70129395 815.04205322 C414.20153091 813.58682504 413.70141093 812.13171942 413.2010498 810.67669678 C398.48902979 767.89352601 384.10178812 724.99987564 371.10205078 681.66162109 C370.09911604 678.32931819 369.08316062 675.00148579 368.05859375 671.67578125 C363.49181175 656.84403092 359.22061088 641.93332476 355 627 C355.06469482 627.804375 355.12938965 628.60875 355.19604492 629.4375 C357.28624557 655.61793588 359.12077879 681.81507261 360.92513561 708.01640701 C361.19601043 711.94975207 361.4670813 715.88308359 361.73828125 719.81640625 C361.79176287 720.59232117 361.84524448 721.36823608 361.90034676 722.16766357 C362.78105395 734.93557143 363.6954084 747.70077627 364.62353516 760.46533203 C367.81028656 804.31111445 370.38360894 848.17601059 372.33508229 892.09449667 C372.40588368 893.68726482 372.4766873 895.28003287 372.54749298 896.87280083 C372.5835892 897.68590284 372.61968543 898.49900485 372.65687548 899.33674632 C372.88890379 904.54967887 373.12673899 909.76231621 373.36813007 914.97482315 C376.35140526 979.45661802 377.57331778 1043.79211334 377.41415258 1108.33955887 C377.38456766 1120.68116078 377.37946721 1133.02274659 377.37496826 1145.36437888 C377.36635973 1167.34719893 377.34015275 1189.32995731 377.30175781 1211.31274414 C377.26465228 1232.58032136 377.23655497 1253.84787752 377.21972656 1275.11547852 C377.218644 1276.46833219 377.21756118 1277.82118587 377.21647811 1279.17403954 C377.20812804 1289.65902314 377.20032808 1300.14400713 377.19265985 1310.62899125 C377.15538805 1361.41938424 377.07481092 1412.20962157 377 1463 C252.59 1463 128.18 1463 0 1463 C0 980.21 0 497.42 0 0 Z " fill="#000000" transform="translate(3779,2266)"/>
<path d="M0 0 C487.30716926 0 487.30716926 0 549.20605469 14.35888672 C552.05231234 15.01200386 554.90366812 15.6362327 557.7578125 16.25390625 C567.82635259 18.44829853 577.68974928 20.88350457 587.46435547 24.16015625 C590.58450129 25.19359565 593.71625187 26.18870093 596.84765625 27.1875 C612.6355699 32.27372337 627.97291126 37.92330706 643 45 C643.72783691 45.34240723 644.45567383 45.68481445 645.20556641 46.03759766 C649.86083252 48.25234574 654.44512729 50.586098 659 53 C659.80066895 53.4242627 660.60133789 53.84852539 661.42626953 54.28564453 C671.61490569 59.71868314 681.6031079 65.2632575 691 72 C692.07314453 72.76401123 692.07314453 72.76401123 693.16796875 73.54345703 C702.97498661 80.54875548 712.2558192 87.69530142 721 96 C722.24452034 97.06891317 723.49429524 98.13174823 724.75 99.1875 C734.28502748 107.50361675 743.22008219 116.60889388 751.04296875 126.55078125 C752.8598049 128.82454626 754.76412944 130.93683731 756.75 133.0625 C797.87688852 179.07575151 819.78311319 241.84324711 828 302 C828.21716984 303.51957102 828.43458617 305.03910684 828.65234375 306.55859375 C838.44008234 378.64493123 830.18670174 464.91595314 784.94458008 524.47387695 C779.34694925 531.66744069 773.28023922 538.40091786 767 545 C766.34773438 545.70511719 765.69546875 546.41023438 765.0234375 547.13671875 C740.81066435 572.53437229 706.10873921 589.08221253 673 599 C672.22027832 599.24169922 671.44055664 599.48339844 670.63720703 599.73242188 C651.59275642 605.58757339 631.38968045 609.58204976 611.55078125 611.60546875 C608.18677813 611.60499019 608.18677813 611.60499019 607 613 C608.07145264 613.21092285 609.14290527 613.4218457 610.24682617 613.63916016 C649.83590616 621.46191455 649.83590616 621.46191455 667 627 C668.66554932 627.52134521 668.66554932 627.52134521 670.36474609 628.05322266 C705.42181036 639.05014856 739.31429103 653.65054558 768 677 C768.52658203 677.42361816 769.05316406 677.84723633 769.59570312 678.28369141 C821.66508988 720.34095124 845.59858002 782.55552053 852.55810547 847.77563477 C852.62850037 848.45336945 852.69889526 849.13110413 852.77142334 849.82937622 C852.9306057 851.34101358 853.09493734 852.85211385 853.26324463 854.36276245 C854.80650379 868.24033381 855.40047904 881.97725345 855.375 895.9375 C855.37512085 896.9682666 855.3752417 897.9990332 855.37536621 899.06103516 C855.34203313 919.23762741 853.812925 939.03078914 851 959 C850.8345166 960.18464844 850.6690332 961.36929688 850.49853516 962.58984375 C849.51040807 969.43118845 848.32272242 976.21616149 847 983 C846.84515137 983.84111328 846.69030273 984.68222656 846.53076172 985.54882812 C836.98022455 1036.70889282 813.0022018 1086.00511378 780 1126 C779.55350098 1126.54946289 779.10700195 1127.09892578 778.64697266 1127.66503906 C771.24253404 1136.73094866 763.12323187 1145.08313005 754.875 1153.375 C754.36997955 1153.88528748 753.86495911 1154.39557495 753.34463501 1154.92132568 C746.57793598 1161.74254946 739.53849199 1168.02922767 732 1174 C730.76840831 1175.01268294 729.53891409 1176.02792784 728.3125 1177.046875 C545.03535009 1327.35914015 156.37854293 1257 0 1257 C0 842.19 0 427.38 0 0 Z " fill="#FFFEFE" transform="translate(1326,4162)"/>
<path d="M0 0 C344.85585043 0 344.85585043 0 377.8125 3.875 C379.34859192 4.04927034 380.88472606 4.22316884 382.42089844 4.39672852 C386.94944993 4.91337505 391.47485718 5.45443169 396 6 C397.3800429 6.16424774 398.76008841 6.32847355 400.14013672 6.49267578 C417.27155165 8.54716445 434.16191226 11.22673871 451 15 C452.25119629 15.27827637 453.50239258 15.55655273 454.79150391 15.84326172 C475.26356706 20.43244382 495.16055293 26.19049215 515 33 C516.6701416 33.56654297 516.6701416 33.56654297 518.37402344 34.14453125 C556.50081169 47.14047353 593.96527096 64.81528862 627 88 C627.53995605 88.37688965 628.07991211 88.7537793 628.63623047 89.14208984 C644.49531609 100.23407627 659.81067311 112.02784376 673.98046875 125.2265625 C676.16603655 127.25808793 678.40614229 129.21082283 680.671875 131.15234375 C685.52857447 135.3854741 690.07511815 139.92467474 694.6184082 144.48803711 C696.06025221 145.93524385 697.50737116 147.37702026 698.95507812 148.81835938 C704.18341138 154.04294371 709.19676317 159.3828476 714 165 C715.45445517 166.60768373 716.91220895 168.21239715 718.375 169.8125 C723.1021291 175.06398292 727.60346283 180.47010495 732 186 C732.51723633 186.65000977 733.03447266 187.30001953 733.56738281 187.96972656 C742.09440873 198.72333579 750.22806306 209.68952948 758 221 C758.41137207 221.59248535 758.82274414 222.1849707 759.24658203 222.79541016 C798.2907479 279.13580642 826.00306103 343.71609376 843 410 C843.28681641 411.11826172 843.57363281 412.23652344 843.86914062 413.38867188 C851.10581386 441.90967815 856.58861356 470.54743188 860.4296875 499.70068359 C860.7933864 502.46051187 861.16734924 505.21848886 861.5546875 507.97509766 C862.90452618 517.63304667 864.04124341 527.29651781 865 537 C865.0762561 537.76131226 865.15251221 538.52262451 865.2310791 539.30700684 C868.27040322 570.22582127 868.29019535 601.22386641 868.31007385 632.26016235 C868.31246748 635.45656946 868.31778948 638.6529623 868.32336426 641.84936523 C868.36527782 674.77717081 867.25962296 707.25715146 863.5625 740 C863.33596892 742.0458569 863.10981943 744.09175608 862.8840332 746.13769531 C862.44906501 750.06693349 862.00903201 753.9955562 861.56542969 757.92382812 C861.11153904 761.96224827 860.68953097 766.0027596 860.2890625 770.046875 C857.37556405 798.41700737 851.39392158 826.77229155 844.61425781 854.45019531 C844.05504501 856.77150632 843.5297553 859.09636189 843.0234375 861.4296875 C840.16063828 874.52253294 836.09336551 887.24759205 832 900 C831.7939917 900.64336304 831.5879834 901.28672607 831.37573242 901.94958496 C807.60219555 976.11593969 772.3055787 1047.90010034 719.16015625 1105.62890625 C717.95771193 1106.94876828 716.76356659 1108.27683136 715.60400391 1109.63452148 C710.60655111 1115.47289905 705.25339968 1120.9327485 699.82226562 1126.36303711 C698.26139673 1127.92608734 696.70872112 1129.49697365 695.15625 1131.06835938 C688.76193934 1137.49805227 682.11128327 1143.35755898 675 1149 C673.97230828 1149.8632196 672.94888925 1150.73160885 671.93359375 1151.609375 C606.40834654 1207.80317073 516.88810659 1239.5604778 432 1250 C430.38541632 1250.20279672 428.77083301 1250.40559641 427.15625 1250.60839844 C422.49287041 1251.18950021 417.82700676 1251.74691179 413.15927124 1252.29187012 C411.33387344 1252.50547862 409.50882276 1252.7220874 407.68423462 1252.94250488 C272.744209 1269.07943217 135.90147511 1257 0 1257 C0 842.19 0 427.38 0 0 Z " fill="#FFFEFE" transform="translate(4335,4162)"/>
<path d="M0 0 C453.24911032 0 453.24911032 0 523 16 C524.11197754 16.24830566 525.22395508 16.49661133 526.36962891 16.75244141 C585.58641856 30.0463383 642.94793965 52.33683347 691 90 C691.98226562 90.76828125 692.96453125 91.5365625 693.9765625 92.328125 C700.20617039 97.31899242 706.06725288 102.66152201 711.890625 108.11328125 C714.47994835 110.5334963 717.13500784 112.86491032 719.8125 115.1875 C730.84534931 125.08461483 740.8831414 136.33533244 750 148 C751.06439532 149.32348706 752.12956424 150.64635216 753.1953125 151.96875 C795.82834681 205.29572902 821.09229921 270.80965244 830.58691406 338.09423828 C830.98259625 340.87757716 831.40694332 343.65522557 831.8359375 346.43359375 C837.69854524 385.82732773 838.04263146 427.10758217 834.1875 466.6875 C834.10481873 467.53861359 834.02213745 468.38972717 833.93695068 469.26663208 C831.3322545 495.37306624 826.5292214 521.15852459 818 546 C817.68579102 546.94037109 817.37158203 547.88074219 817.04785156 548.84960938 C804.33139003 586.78972016 785.21739251 622.2499316 758.03515625 651.78125 C756.2045558 653.77699099 754.44163517 655.81230611 752.6875 657.875 C745.36665293 666.24409769 737.45708309 673.90158234 728.74609375 680.80859375 C725.95561654 683.03541838 723.26569166 685.35585502 720.5625 687.6875 C664.74450231 734 664.74450231 734 642 734 C648.74385425 748.21067944 655.6016591 762.36384286 662.5 776.5 C668.01889729 787.8100673 673.52217862 799.12594551 678.93188477 810.48876953 C682.89436476 818.80335689 686.91461582 827.08952762 690.9375 835.375 C695.64613942 845.07330152 700.34330954 854.77660609 705 864.5 C709.98035251 874.8986134 715.00693575 885.2743695 720.04202271 895.64654541 C724.36172229 904.54596705 728.66558961 913.45250572 732.9375 922.375 C737.75451339 932.43484011 742.62187926 942.46970378 747.5 952.5 C752.85421817 963.50923841 758.18601706 974.52841237 763.47265625 985.5703125 C767.62068369 994.22706543 771.80796908 1002.86450224 776 1011.5 C781.16684794 1022.14381882 786.31108318 1032.79786598 791.421875 1043.46875 C795.58776925 1052.158895 799.79154185 1060.8304183 804 1069.5 C809.16681585 1080.14383453 814.31108307 1090.79786575 819.421875 1101.46875 C823.58776925 1110.158895 827.79154185 1118.8304183 832 1127.5 C837.16681585 1138.14383453 842.31108307 1148.79786575 847.421875 1159.46875 C851.58776945 1168.15889542 855.79159413 1176.83039261 860 1185.5 C865.20374444 1196.22051446 870.38991594 1206.94897322 875.53613281 1217.69726562 C878.29442336 1223.4558352 881.06636775 1229.20753488 883.8515625 1234.953125 C884.50636366 1236.30500527 885.16114891 1237.65689325 885.81591797 1239.00878906 C886.7776593 1240.99434682 887.74006662 1242.97956675 888.70465088 1244.96374512 C889.59124451 1246.78751162 890.47537149 1248.61247663 891.359375 1250.4375 C892.12459473 1252.01337891 892.12459473 1252.01337891 892.90527344 1253.62109375 C894 1256 894 1256 894 1257 C772.56 1257 651.12 1257 526 1257 C518.08 1235.715 518.08 1235.715 510 1214 C508.02 1209.05 506.04 1204.1 504 1199 C502.84749775 1195.77544582 501.7165434 1192.5564904 500.625 1189.3125 C497.99260296 1181.63523254 495.12325353 1174.08691902 492.01611328 1166.58911133 C490.02021455 1161.72562061 488.21703188 1156.8128067 486.4921875 1151.84765625 C483.65770791 1143.71739188 480.64648207 1135.65652111 477.60546875 1127.6015625 C477.35586647 1126.94035526 477.10626419 1126.27914803 476.84909821 1125.59790421 C475.5231437 1122.08679652 474.19568717 1118.57625886 472.86746216 1115.06600952 C469.95070992 1107.35716898 467.04172984 1099.64539345 464.1328125 1091.93359375 C463.83444803 1091.14272936 463.53608356 1090.35186497 463.22867775 1089.53703499 C457.22292301 1073.61558752 451.26494245 1057.67653996 445.32384872 1041.73086929 C443.02263195 1035.55467756 440.72038553 1029.37886947 438.41796875 1023.203125 C438.16188402 1022.5162089 437.90579929 1021.82929279 437.64195442 1021.12156105 C431.49878002 1004.64470381 425.33486496 988.17562306 419.16329956 971.7093811 C417.9869342 968.57072177 416.81109603 965.43186585 415.63577271 962.29281616 C413.99546419 957.91216958 412.35393327 953.53198318 410.7109375 949.15234375 C410.45398354 948.46739145 410.19702957 947.78243916 409.93228912 947.07673073 C406.71495464 938.50567529 403.45076499 929.95498668 400.10725403 921.43232727 C398.12686638 916.37104858 396.29599201 911.27514699 394.5625 906.125 C391.95047753 898.51065861 389.09752394 891.02516704 386.01586914 883.58837891 C383.96342201 878.5873991 382.12022272 873.5317336 380.34765625 868.42578125 C377.8661034 861.29618154 375.20042784 854.2482188 372.46875 847.2109375 C371.86511375 845.64949257 371.86511375 845.64949257 371.24928284 844.0565033 C369.58669347 839.75611508 367.92387243 835.45596508 366.24072266 831.16357422 C361.51573626 819.09597738 357.29814019 807.16489889 354.20077515 794.57417297 C351.4627124 783.53233143 347.79032076 772.82452443 344.125 762.0625 C343.42896932 759.99959114 342.73365418 757.9364407 342.0390625 755.87304688 C340.36755402 750.91256002 338.68659495 745.9553766 337 741 C336.97445075 745.50846049 336.95676056 750.01687795 336.94506836 754.52539062 C336.9401727 756.04525488 336.93345934 757.56511484 336.92456055 759.08496094 C336.87750727 767.35526676 336.95506346 775.59807994 337.35853487 783.859707 C338.29414843 803.72477665 338.13569864 823.60314283 338.11606562 843.48476648 C338.11169532 849.04946031 338.11321215 854.6141532 338.1139679 860.17884827 C338.11448901 869.79027716 338.11138562 879.4016992 338.10573006 889.01312637 C338.09755871 902.90916671 338.0949941 916.80520377 338.09374207 930.70124625 C338.09156035 953.25363235 338.08493293 975.80601452 338.07543945 998.35839844 C338.06623514 1020.24934877 338.05917824 1042.14029812 338.05493164 1064.03125 C338.054661 1065.41104388 338.05439029 1066.79083776 338.05411953 1068.17063165 C338.05203356 1078.85564325 338.05008296 1089.54065488 338.04816496 1100.22566652 C338.03875304 1152.48378103 338.01862961 1204.7418864 338 1257 C226.46 1257 114.92 1257 0 1257 C0 842.19 0 427.38 0 0 Z " fill="#FFFEFE" transform="translate(6124,4162)"/>
<path d="M0 0 C453.24911032 0 453.24911032 0 523 16 C524.11197754 16.24830566 525.22395508 16.49661133 526.36962891 16.75244141 C585.58641856 30.0463383 642.94793965 52.33683347 691 90 C691.98226562 90.76828125 692.96453125 91.5365625 693.9765625 92.328125 C700.20617039 97.31899242 706.06725288 102.66152201 711.890625 108.11328125 C714.47994835 110.5334963 717.13500784 112.86491032 719.8125 115.1875 C730.84534931 125.08461483 740.8831414 136.33533244 750 148 C751.06439532 149.32348706 752.12956424 150.64635216 753.1953125 151.96875 C795.82834681 205.29572902 821.09229921 270.80965244 830.58691406 338.09423828 C830.98259625 340.87757716 831.40694332 343.65522557 831.8359375 346.43359375 C837.69854524 385.82732773 838.04263146 427.10758217 834.1875 466.6875 C834.10481873 467.53861359 834.02213745 468.38972717 833.93695068 469.26663208 C831.3322545 495.37306624 826.5292214 521.15852459 818 546 C817.68579102 546.94037109 817.37158203 547.88074219 817.04785156 548.84960938 C804.33139003 586.78972016 785.21739251 622.2499316 758.03515625 651.78125 C756.2045558 653.77699099 754.44163517 655.81230611 752.6875 657.875 C745.36665293 666.24409769 737.45708309 673.90158234 728.74609375 680.80859375 C725.95561654 683.03541838 723.26569166 685.35585502 720.5625 687.6875 C664.74450231 734 664.74450231 734 642 734 C648.74385425 748.21067944 655.6016591 762.36384286 662.5 776.5 C668.01889729 787.8100673 673.52217862 799.12594551 678.93188477 810.48876953 C682.89436476 818.80335689 686.91461582 827.08952762 690.9375 835.375 C695.64613942 845.07330152 700.34330954 854.77660609 705 864.5 C709.98035251 874.8986134 715.00693575 885.2743695 720.04202271 895.64654541 C724.36172229 904.54596705 728.66558961 913.45250572 732.9375 922.375 C737.75451339 932.43484011 742.62187926 942.46970378 747.5 952.5 C752.85421817 963.50923841 758.18601706 974.52841237 763.47265625 985.5703125 C767.62068369 994.22706543 771.80796908 1002.86450224 776 1011.5 C781.16684794 1022.14381882 786.31108318 1032.79786598 791.421875 1043.46875 C795.58776925 1052.158895 799.79154185 1060.8304183 804 1069.5 C809.16681585 1080.14383453 814.31108307 1090.79786575 819.421875 1101.46875 C823.58776925 1110.158895 827.79154185 1118.8304183 832 1127.5 C837.16681585 1138.14383453 842.31108307 1148.79786575 847.421875 1159.46875 C851.58776945 1168.15889542 855.79159413 1176.83039261 860 1185.5 C865.20374444 1196.22051446 870.38991594 1206.94897322 875.53613281 1217.69726562 C878.29442336 1223.4558352 881.06636775 1229.20753488 883.8515625 1234.953125 C884.50636366 1236.30500527 885.16114891 1237.65689325 885.81591797 1239.00878906 C886.7776593 1240.99434682 887.74006662 1242.97956675 888.70465088 1244.96374512 C889.59124451 1246.78751162 890.47537149 1248.61247663 891.359375 1250.4375 C892.12459473 1252.01337891 892.12459473 1252.01337891 892.90527344 1253.62109375 C894 1256 894 1256 894 1257 C772.56 1257 651.12 1257 526 1257 C518.08 1235.715 518.08 1235.715 510 1214 C508.02 1209.05 506.04 1204.1 504 1199 C502.84749775 1195.77544582 501.7165434 1192.5564904 500.625 1189.3125 C497.99260296 1181.63523254 495.12325353 1174.08691902 492.01611328 1166.58911133 C490.02021455 1161.72562061 488.21703188 1156.8128067 486.4921875 1151.84765625 C483.65770791 1143.71739188 480.64648207 1135.65652111 477.60546875 1127.6015625 C477.35586647 1126.94035526 477.10626419 1126.27914803 476.84909821 1125.59790421 C475.5231437 1122.08679652 474.19568717 1118.57625886 472.86746216 1115.06600952 C469.95070992 1107.35716898 467.04172984 1099.64539345 464.1328125 1091.93359375 C463.83444803 1091.14272936 463.53608356 1090.35186497 463.22867775 1089.53703499 C457.22292301 1073.61558752 451.26494245 1057.67653996 445.32384872 1041.73086929 C443.02263195 1035.55467756 440.72038553 1029.37886947 438.41796875 1023.203125 C438.16188402 1022.5162089 437.90579929 1021.82929279 437.64195442 1021.12156105 C431.49878002 1004.64470381 425.33486496 988.17562306 419.16329956 971.7093811 C417.9869342 968.57072177 416.81109603 965.43186585 415.63577271 962.29281616 C413.99546419 957.91216958 412.35393327 953.53198318 410.7109375 949.15234375 C410.45398354 948.46739145 410.19702957 947.78243916 409.93228912 947.07673073 C406.71495464 938.50567529 403.45076499 929.95498668 400.10725403 921.43232727 C398.12686638 916.37104858 396.29599201 911.27514699 394.5625 906.125 C391.95047753 898.51065861 389.09752394 891.02516704 386.01586914 883.58837891 C383.96342201 878.5873991 382.12022272 873.5317336 380.34765625 868.42578125 C377.8661034 861.29618154 375.20042784 854.2482188 372.46875 847.2109375 C371.86511375 845.64949257 371.86511375 845.64949257 371.24928284 844.0565033 C369.58669347 839.75611508 367.92387243 835.45596508 366.24072266 831.16357422 C361.51573626 819.09597738 357.29814019 807.16489889 354.20077515 794.57417297 C351.4627124 783.53233143 347.79032076 772.82452443 344.125 762.0625 C343.42896932 759.99959114 342.73365418 757.9364407 342.0390625 755.87304688 C340.36755402 750.91256002 338.68659495 745.9553766 337 741 C336.97445075 745.50846049 336.95676056 750.01687795 336.94506836 754.52539062 C336.9401727 756.04525488 336.93345934 757.56511484 336.92456055 759.08496094 C336.87750727 767.35526676 336.95506346 775.59807994 337.35853487 783.859707 C338.29414843 803.72477665 338.13569864 823.60314283 338.11606562 843.48476648 C338.11169532 849.04946031 338.11321215 854.6141532 338.1139679 860.17884827 C338.11448901 869.79027716 338.11138562 879.4016992 338.10573006 889.01312637 C338.09755871 902.90916671 338.0949941 916.80520377 338.09374207 930.70124625 C338.09156035 953.25363235 338.08493293 975.80601452 338.07543945 998.35839844 C338.06623514 1020.24934877 338.05917824 1042.14029812 338.05493164 1064.03125 C338.054661 1065.41104388 338.05439029 1066.79083776 338.05411953 1068.17063165 C338.05203356 1078.85564325 338.05008296 1089.54065488 338.04816496 1100.22566652 C338.03875304 1152.48378103 338.01862961 1204.7418864 338 1257 C226.46 1257 114.92 1257 0 1257 C0 842.19 0 427.38 0 0 Z " fill="#FFFEFE" transform="translate(2326,4162)"/>
<path d="M0 0 C242.55 0 485.1 0 735 0 C735 113.52 735 227.04 735 344 C623.13 344.33 511.26 344.66 396 345 C395.67 414.96 395.34 484.92 395 557 C495.32 557 595.64 557 699 557 C699 666.23 699 775.46 699 888 C598.68 888 498.36 888 395 888 C395.33 961.59 395.66 1035.18 396 1111 C507.54 1111.33 619.08 1111.66 734 1112 C734 1227.83 734 1343.66 734 1463 C491.78 1463 249.56 1463 0 1463 C0 980.21 0 497.42 0 0 Z " fill="#000000" transform="translate(4947,2266)"/>
<path d="M0 0 C137.28 0 274.56 0 416 0 C420.59293702 18.3717481 420.59293702 18.3717481 422.26171875 26.55078125 C422.54946167 27.93960007 422.54946167 27.93960007 422.84301758 29.35647583 C423.46079642 32.34121618 424.07411973 35.32685296 424.6875 38.3125 C425.1250313 40.42919551 425.56294502 42.54581201 426.0012207 44.66235352 C426.89782799 48.9930838 427.79312011 53.32408264 428.6875 57.65527344 C430.67100487 67.25279527 432.67837394 76.84531489 434.6875 86.4375 C434.966436 87.77003311 434.966436 87.77003311 435.25100708 89.12948608 C438.52699106 104.77823449 441.83519803 120.4200099 445.16162109 136.05810547 C446.44385928 142.0862149 447.72413323 148.1147411 449.00363159 154.14343262 C449.29222454 155.50306938 449.58090011 156.8626886 449.86965942 158.22229004 C451.59305346 166.33737738 453.30702838 174.45436092 455.0078125 182.57421875 C459.33581339 203.24739927 459.33581339 203.24739927 463.875 223.875 C466.65491582 236.2222339 469.23837625 248.60852245 471.8125 261 C472.13266083 262.54108932 472.13266083 262.54108932 472.45928955 264.11331177 C473.54558157 269.34406289 474.63071781 274.57505309 475.71533203 279.80615234 C477.72057711 289.47625133 479.73123894 299.14521329 481.75 308.8125 C482.03312042 310.16850815 482.03312042 310.16850815 482.32196045 311.5519104 C484.45963489 321.77954315 486.63729596 331.99494985 488.9375 342.1875 C492.12146505 356.30244512 495.03536541 370.4725535 497.97412109 384.64013672 C501.36176721 400.96740514 504.79977474 417.28358746 508.25872803 433.59588623 C510.68186984 445.0244452 513.10065004 456.45376964 515.484375 467.890625 C515.68078583 468.8329599 515.87719666 469.7752948 516.07955933 470.7461853 C516.46718712 472.60631823 516.85479126 474.4664561 517.24237061 476.32659912 C519.73681507 488.29678147 522.24491889 500.25995473 524.9375 512.1875 C528.1215685 526.30241982 531.03536601 540.47255638 533.97412109 554.64013672 C537.36176721 570.96740514 540.79977474 587.28358746 544.25872803 603.59588623 C546.68186984 615.0244452 549.10065004 626.45376964 551.484375 637.890625 C551.68078583 638.8329599 551.87719666 639.7752948 552.07955933 640.7461853 C552.46718712 642.60631823 552.85479126 644.4664561 553.24237061 646.32659912 C555.73681507 658.29678147 558.24491889 670.25995473 560.9375 682.1875 C564.1215685 696.30241982 567.03536601 710.47255638 569.97412109 724.64013672 C573.36176721 740.96740514 576.79977474 757.28358746 580.25872803 773.59588623 C582.68186984 785.0244452 585.10065004 796.45376964 587.484375 807.890625 C587.68078583 808.8329599 587.87719666 809.7752948 588.07955933 810.7461853 C588.46718712 812.60631823 588.85479126 814.4664561 589.24237061 816.32659912 C591.73681496 828.2967809 594.24489027 840.25996148 596.9375 852.1875 C599.69945029 864.4300007 602.26010756 876.71239538 604.8125 889 C605.02603119 890.02784607 605.23956238 891.05569214 605.45956421 892.11468506 C606.54576319 897.34497873 607.63081348 902.57551 608.71533203 907.80615234 C610.72057711 917.47625133 612.73123894 927.14521329 614.75 936.8125 C615.03312042 938.16850815 615.03312042 938.16850815 615.32196045 939.5519104 C617.45963481 949.77954277 619.6372719 959.99495542 621.9375 970.1875 C625.87468866 987.63991276 629.43655222 1005.17325209 633.06835938 1022.69113159 C635.26307058 1033.27569807 637.47259738 1043.85714225 639.6875 1054.4375 C639.87363861 1055.32685242 640.05977722 1056.21620483 640.2515564 1057.13250732 C643.52738244 1072.78024298 646.83541101 1088.42101115 650.16162109 1104.05810547 C651.44385928 1110.0862149 652.72413323 1116.1147411 654.00363159 1122.14343262 C654.29222454 1123.50306938 654.58090011 1124.8626886 654.86965942 1126.22229004 C656.59305346 1134.33737738 658.30702838 1142.45436092 660.0078125 1150.57421875 C664.33580026 1171.24740207 664.33580026 1171.24740207 668.875 1191.875 C671.59353392 1203.94937569 674.14474802 1216.05818072 676.67877197 1228.17242432 C677.14143539 1230.38369342 677.60509276 1232.5947548 678.06976318 1234.80560303 C678.72417488 1237.9218296 679.37444457 1241.03889097 680.0234375 1244.15625 C680.22312134 1245.10496979 680.42280518 1246.05368958 680.62854004 1247.03115845 C680.80961304 1247.90581757 680.99068604 1248.78047668 681.17724609 1249.68164062 C681.33679779 1250.4462561 681.49634949 1251.21087158 681.66073608 1251.99865723 C682 1254 682 1254 682 1257 C566.17 1257 450.34 1257 331 1257 C329.78750315 1252.15001258 328.72912705 1247.82652138 328.0625 1242.9609375 C327.81101196 1241.17695557 327.81101196 1241.17695557 327.55444336 1239.35693359 C327.42052689 1238.39288605 327.42052689 1238.39288605 327.28390503 1237.40936279 C324.8601338 1220.04147739 322.0694474 1202.7309112 319.26849365 1185.420784 C318.94229776 1183.40465366 318.61649385 1181.38846031 318.29077148 1179.37225342 C316.17140451 1166.26197288 314.03182817 1153.15562756 311.83203125 1140.05859375 C310.36049618 1131.28209114 308.98657626 1122.50063981 307.75 1113.6875 C307.57726563 1112.48544922 307.40453125 1111.28339844 307.2265625 1110.04492188 C306 1101.39570933 306 1101.39570933 306 1098 C230.43 1098 154.86 1098 77 1098 C76.34 1103.61 75.68 1109.22 75 1115 C74.3779632 1118.60586957 73.73555255 1122.17059601 73 1125.75 C72.64419295 1127.55176017 72.29001707 1129.35384325 71.9375 1131.15625 C71.7725 1131.99800781 71.6075 1132.83976562 71.4375 1133.70703125 C70.70641881 1137.53867999 70.12704748 1141.38765116 69.55859375 1145.24609375 C67.56181748 1158.6649888 65.42699393 1172.05937561 62.84765625 1185.37890625 C61.37668599 1193.19673952 60.15458418 1201.06333523 58.88891602 1208.91674805 C57.68736081 1216.26462741 56.30031348 1223.53552636 54.67211914 1230.80126953 C53.77562063 1235.06785997 53.13320701 1239.35582057 52.52734375 1243.671875 C51.81967757 1248.13803492 50.88681313 1252.56593434 50 1257 C-65.83 1257 -181.66 1257 -301 1257 C-298.72480509 1242.21123311 -298.72480509 1242.21123311 -296.6875 1235 C-296.24013842 1233.35602498 -295.79490077 1231.71147082 -295.3515625 1230.06640625 C-295.12629883 1229.23125488 -294.90103516 1228.39610352 -294.66894531 1227.53564453 C-293.5653419 1223.35242373 -292.55862671 1219.14741652 -291.5625 1214.9375 C-291.35689453 1214.06907471 -291.15128906 1213.20064941 -290.93945312 1212.3059082 C-289.81910117 1207.54656693 -288.71959191 1202.78273918 -287.6328125 1198.015625 C-284.54481529 1184.48423682 -281.28398498 1171.0078488 -277.89575195 1157.54931641 C-275.38961296 1147.59119668 -272.97405095 1137.6146691 -270.61962891 1127.61962891 C-269.44652917 1122.66007015 -268.25327636 1117.7053384 -267.0625 1112.75 C-266.81097168 1111.70199219 -266.55944336 1110.65398437 -266.30029297 1109.57421875 C-265.03550127 1104.30519501 -263.7679724 1099.03684888 -262.49609375 1093.76953125 C-259.98044763 1083.33818246 -257.51141068 1072.89920355 -255.125 1062.4375 C-252.53418185 1051.10148274 -249.73421008 1039.82405504 -246.89550781 1028.54833984 C-244.38944745 1018.59054641 -241.97397398 1008.61434238 -239.61962891 998.61962891 C-238.44652927 993.66007053 -237.25336295 988.70531728 -236.0625 983.75 C-235.55338475 981.63020849 -235.04427017 979.51041683 -234.53515625 977.390625 C-234.15447998 975.80604492 -234.15447998 975.80604492 -233.76611328 974.18945312 C-233.00909027 971.03784428 -232.25249593 967.8861329 -231.49609375 964.734375 C-231.24915771 963.70546143 -231.00222168 962.67654785 -230.74780273 961.61645508 C-230.24849356 959.53559266 -229.74930774 957.45470063 -229.25024414 955.3737793 C-228.00361804 950.17673179 -226.75448222 944.98031343 -225.5 939.78515625 C-222.98290286 929.34863198 -220.51260515 918.90443996 -218.125 908.4375 C-215.53418185 897.10148274 -212.73421008 885.82405504 -209.89550781 874.54833984 C-207.38944745 864.59054641 -204.97397398 854.61434238 -202.61962891 844.61962891 C-201.44652917 839.66007015 -200.25327636 834.7053384 -199.0625 829.75 C-198.81097168 828.70199219 -198.55944336 827.65398437 -198.30029297 826.57421875 C-197.03550127 821.30519501 -195.7679724 816.03684888 -194.49609375 810.76953125 C-191.98044763 800.33818246 -189.51141068 789.89920355 -187.125 779.4375 C-184.53418185 768.10148274 -181.73421008 756.82405504 -178.89550781 745.54833984 C-176.38944745 735.59054641 -173.97397398 725.61434238 -171.61962891 715.61962891 C-170.44652927 710.66007053 -169.25336295 705.70531728 -168.0625 700.75 C-167.55338475 698.63020849 -167.04427017 696.51041683 -166.53515625 694.390625 C-166.15447998 692.80604492 -166.15447998 692.80604492 -165.76611328 691.18945312 C-165.00909027 688.03784428 -164.25249593 684.8861329 -163.49609375 681.734375 C-163.24915771 680.70546143 -163.00222168 679.67654785 -162.74780273 678.61645508 C-162.24849356 676.53559266 -161.74930774 674.45470063 -161.25024414 672.3737793 C-160.00361804 667.17673179 -158.75448222 661.98031343 -157.5 656.78515625 C-154.98290286 646.34863198 -152.51260515 635.90443996 -150.125 625.4375 C-147.53418185 614.10148274 -144.73421008 602.82405504 -141.89550781 591.54833984 C-139.38944745 581.59054641 -136.97397398 571.61434238 -134.61962891 561.61962891 C-133.44652917 556.66007015 -132.25327636 551.7053384 -131.0625 546.75 C-130.81097168 545.70199219 -130.55944336 544.65398437 -130.30029297 543.57421875 C-129.03550127 538.30519501 -127.7679724 533.03684888 -126.49609375 527.76953125 C-123.98044763 517.33818246 -121.51141068 506.89920355 -119.125 496.4375 C-116.53418185 485.10148274 -113.73421008 473.82405504 -110.89550781 462.54833984 C-108.38944745 452.59054641 -105.97397398 442.61434238 -103.61962891 432.61962891 C-102.44652927 427.66007053 -101.25336295 422.70531728 -100.0625 417.75 C-99.55338475 415.63020849 -99.04427017 413.51041683 -98.53515625 411.390625 C-98.15447998 409.80604492 -98.15447998 409.80604492 -97.76611328 408.18945312 C-97.00909027 405.03784428 -96.25249593 401.8861329 -95.49609375 398.734375 C-95.24915771 397.70546143 -95.00222168 396.67654785 -94.74780273 395.61645508 C-94.24849356 393.53559266 -93.74930774 391.45470063 -93.25024414 389.3737793 C-92.00361804 384.17673179 -90.75448222 378.98031343 -89.5 373.78515625 C-86.98290286 363.34863198 -84.51260515 352.90443996 -82.125 342.4375 C-79.53418185 331.10148274 -76.73421008 319.82405504 -73.89550781 308.54833984 C-71.38944745 298.59054641 -68.97397398 288.61434238 -66.61962891 278.61962891 C-65.44652917 273.66007015 -64.25327636 268.7053384 -63.0625 263.75 C-62.81097168 262.70199219 -62.55944336 261.65398437 -62.30029297 260.57421875 C-61.03550127 255.30519501 -59.7679724 250.03684888 -58.49609375 244.76953125 C-55.96030422 234.25477734 -53.47100511 223.73217918 -51.0625 213.1875 C-48.69080399 202.81260147 -46.14065907 192.48952553 -43.53320312 182.17163086 C-41.78270131 175.21647753 -40.11795678 168.25120254 -38.5625 161.25 C-36.52879486 152.1064823 -34.28673585 143.02022334 -32 133.9375 C-29.12455353 122.51525091 -26.31980636 111.08032699 -23.61962891 99.61523438 C-22.69959539 95.73209843 -21.76130137 91.85340804 -20.82519531 87.97412109 C-18.53355834 78.47453763 -16.29744546 68.96503661 -14.125 59.4375 C-11.51679594 48.01129062 -8.69695263 36.64350731 -5.80322266 25.28686523 C-5.48272949 24.02173096 -5.16223633 22.75659668 -4.83203125 21.453125 C-4.41014526 19.80038574 -4.41014526 19.80038574 -3.97973633 18.11425781 C-2.54762726 12.10032759 -1.29532864 6.04486698 0 0 Z " fill="#FFFEFE" transform="translate(3555,4162)"/>
<path d="M0 0 C135.96 0 271.92 0 412 0 C414.29150864 5.72877159 416.50429945 11.26110752 418.4375 17.08203125 C418.64431396 17.70293137 418.85112793 18.32383148 419.06420898 18.96354675 C419.495736 20.26111094 419.92582844 21.5591531 420.35449219 22.85766602 C420.99592094 24.80014712 421.64209937 26.74099667 422.2890625 28.68164062 C424.20605666 34.44939544 426.08343389 40.22499094 427.84375 46.04296875 C430.85752046 55.92774251 434.21234076 65.70382523 437.5 75.5 C444.90662208 97.56936883 444.90662208 97.56936883 447.94824219 107.62207031 C450.152724 114.70220271 452.55158953 121.72016056 454.91064453 128.74996948 C461.82180799 149.3542036 468.59095115 170.00243863 475.29589844 190.67453003 C477.54540492 197.60746215 479.80611341 204.53669747 482.0703125 211.46484375 C482.75390742 213.55737267 483.43750118 215.64990196 484.12109375 217.74243164 C485.10995754 220.76921549 486.09911806 223.79590036 487.08935547 226.82223511 C490.15135668 236.18128325 493.20762109 245.53826584 496.07421875 254.95947266 C497.09625103 258.3161156 498.13849291 261.66609506 499.18359375 265.015625 C503.22465482 277.98172892 507.21770295 290.95575295 511 304 C511.60330236 306.04853781 512.20921843 308.09629202 512.81518555 310.14404297 C513.88389186 313.76062226 514.94318097 317.37993131 516 321 C516.23332031 321.79889648 516.46664062 322.59779297 516.70703125 323.42089844 C519.87487891 334.30084581 522.86011295 345.21199703 525.67504883 356.18847656 C527.51409242 363.29585673 529.53485458 370.33776814 531.625 377.375 C534.02297752 385.45488804 536.183107 393.52359366 537.98046875 401.7578125 C538.80816766 405.39145646 539.83837163 408.95312102 540.87890625 412.53125 C543.06452986 420.09442574 544.93278491 427.71617931 546.75 435.375 C547.06872951 436.70840051 547.38773887 438.04173416 547.70703125 439.375 C548.47408798 442.58269179 549.23837196 445.79101575 550 449 C552.30409913 441.55721051 554.60105542 434.11426722 556.75 426.625 C556.9960498 425.76777344 557.24209961 424.91054687 557.49560547 424.02734375 C560.21375695 414.43268721 562.67187997 404.76943799 565.10839844 395.10009766 C566.89624753 388.06032842 568.85588113 381.11819185 571.03125 374.18896484 C572.67566734 368.77581484 574.04828861 363.29562093 575.4375 357.8125 C577.98688076 347.86637235 580.62597035 337.95524288 583.41601562 328.07421875 C584.20822111 325.26043205 584.98853852 322.44340677 585.76855469 319.6262207 C586.38539081 317.39999854 587.00503445 315.17457127 587.625 312.94921875 C588.63289092 309.3289635 589.6302741 305.70592461 590.625 302.08203125 C593.64920975 291.11403685 596.77127653 280.20261766 600.33935547 269.39746094 C601.98834426 264.35769432 603.48913546 259.29030479 604.91366768 254.18347931 C608.42829429 241.63336974 612.42387841 229.27017005 616.5390625 216.90625 C617.2608565 214.72680995 617.98224621 212.54723597 618.70326233 210.36753845 C620.22200564 205.77872099 621.74327127 201.19075146 623.26669312 196.60348511 C625.6558728 189.40905591 628.03911661 182.21266959 630.42114258 175.01586914 C631.21820857 172.60786194 632.01528191 170.19985717 632.81236267 167.79185486 C633.204373 166.6075633 633.59638332 165.42327175 634.00027275 164.20309258 C635.17911991 160.64241935 636.35852365 157.08193096 637.5381012 153.52149963 C643.28608435 136.17039154 649.00252593 118.80935085 654.6875 101.4375 C665.76321977 67.61567117 676.88475808 33.80886083 688 0 C823.3 0 958.6 0 1098 0 C1096.25682432 5.22952705 1094.56298392 10.28027218 1092.52661133 15.36962891 C1091.82273033 17.13394257 1091.82273033 17.13394257 1091.10462952 18.93389893 C1090.59718156 20.19815416 1090.08964632 21.46237436 1089.58203125 22.7265625 C1089.04684687 24.06460262 1088.51185272 25.40271884 1087.97703552 26.74090576 C1086.55314184 30.30140903 1085.1257618 33.86050438 1083.69746399 37.41924286 C1082.80878502 39.63425953 1081.92113253 41.84968481 1081.03381348 44.06524658 C1073.55133064 62.74723704 1066.01131866 81.40367522 1058.33935547 100.00878906 C1054.31342599 109.77462113 1050.34849442 119.56258284 1046.4375 129.375 C1040.39389237 144.53694015 1034.29856022 159.67762052 1028.1875 174.8125 C1027.19978759 177.25895149 1026.21207601 179.70540332 1025.22436523 182.15185547 C1023.70383368 185.91797374 1022.1832558 189.68407328 1020.6625824 193.45013428 C1015.46130163 206.3319575 1010.26636351 219.21633618 1005.07192993 232.10092163 C1002.44397957 238.61944221 999.81579343 245.13786774 997.1875 251.65625 C996.92843683 252.29874884 996.66937366 252.94124767 996.4024601 253.60321617 C990.29887382 268.74039026 984.19104179 283.87585062 978.08300781 299.01123047 C970.55202889 317.67282003 963.02500983 336.33600299 955.5 355 C947.03108727 376.00512364 938.55872765 397.00885233 930.08300781 418.01123047 C922.55202889 436.67282003 915.02500983 455.33600299 907.5 474 C899.03108727 495.00512364 890.55872765 516.00885233 882.08300781 537.01123047 C874.55202889 555.67282003 867.02500983 574.33600299 859.5 593 C851.03108727 614.00512364 842.55872765 635.00885233 834.08300781 656.01123047 C827.07937819 673.36606078 820.07893573 690.72217325 813.08081055 708.07922363 C804.86301536 728.46134094 796.64475667 748.84327147 788.42260742 769.22363281 C787.50862259 771.48922349 786.59471619 773.7548458 785.6809082 776.02050781 C784.85030153 778.07984225 784.01810577 780.13853673 783.18403393 782.19647014 C782.30827888 784.37568613 781.44419447 786.55965302 780.59544939 788.74952996 C778.2566581 794.71554675 775.79212947 800.51438295 772.89007906 806.23014388 C757.84618161 836.04835446 756.56028065 864.37810045 756.91966984 897.20689424 C756.99836841 904.73621397 756.9742556 912.26449738 756.94871394 919.7940624 C756.90432914 933.67897246 756.93746726 947.56262254 757.01739311 961.44733047 C757.09607533 975.16164458 757.13870088 988.87532161 757.13490486 1002.58987045 C757.1345782 1003.87692188 757.1345782 1003.87692188 757.13424494 1005.18997435 C757.13295589 1009.54886627 757.1310394 1013.90775767 757.1288817 1018.26664923 C757.11478763 1049.0074745 757.178922 1079.74767553 757.2902832 1110.48828125 C757.39817455 1140.32131462 757.46958398 1170.15408103 757.4934082 1199.98730469 C757.49496113 1201.86873245 757.49651513 1203.75016022 757.49807018 1205.63158798 C757.51051633 1220.92307221 757.52047448 1236.21455805 757.52983055 1251.50604445 C757.57475201 1322.00456093 757.80119881 1392.50140754 758 1463 C627.65 1463 497.3 1463 363 1463 C363.19464844 1418.85863281 363.38929687 1374.71726562 363.58984375 1329.23828125 C363.65748425 1302.89872447 363.72351346 1276.55935135 363.76048291 1250.21976292 C363.78230535 1234.75641081 363.80520279 1219.2930609 363.83142018 1203.82971554 C363.83458766 1201.95980056 363.83772127 1200.08988551 363.84082056 1198.21997041 C363.89032247 1168.52264564 364.01408548 1138.82621494 364.17755473 1109.12931669 C364.34546342 1078.55318194 364.43636749 1047.9777297 364.43330867 1017.40111223 C364.43290965 1013.06118733 364.43337152 1008.72126292 364.4343586 1004.38133812 C364.43452618 1003.52735824 364.43469375 1002.67337836 364.43486641 1001.79352031 C364.43973862 988.16447722 364.5234151 974.53705719 364.63817944 960.90854471 C364.7524218 947.13531032 364.77980599 933.36391251 364.72436189 919.59030244 C364.69670095 912.15531821 364.70349799 904.72490719 364.81910133 897.2906456 C365.39281413 858.77578485 359.43638168 829.63914678 341.71281064 795.35148561 C338.23150463 788.58331454 335.25480944 781.62503118 332.35352957 774.59313873 C330.95617074 771.22681563 329.51237617 767.88029499 328.07421875 764.53125 C327.44314209 763.0547108 326.81210967 761.5781527 326.18115234 760.1015625 C321.68566025 749.58446661 317.18080151 739.0713756 312.67643356 728.55807877 C312.14204352 727.31079052 311.60767311 726.06349387 311.0733223 724.81618881 C304.76854599 710.0994129 298.45291338 695.38798692 292.06738281 680.70605469 C287.06297564 669.18202603 282.12628453 657.62910422 277.18325806 646.0786438 C268.61196358 626.05030794 259.99936 606.04107599 251.3125 586.0625 C241.38747967 563.2331235 231.55895489 540.36359672 221.77001953 517.47558594 C216.68464724 505.58590657 211.59268263 493.69904952 206.5 481.8125 C205.98204865 480.60347015 205.46409729 479.39444031 204.93045044 478.14877319 C199.00555882 464.32021859 193.06607419 450.49870582 187.06591797 436.70263672 C182.06195046 425.17976872 177.12579671 413.62796433 172.18325806 402.0786438 C163.61196358 382.05030794 154.99936 362.04107599 146.3125 342.0625 C136.38747967 319.2331235 126.55895489 296.36359672 116.77001953 273.47558594 C111.68464724 261.58590657 106.59268263 249.69904952 101.5 237.8125 C100.72307297 235.99895523 100.72307297 235.99895523 99.93045044 234.14877319 C94.00555882 220.32021859 88.06607419 206.49870582 82.06591797 192.70263672 C77.06195046 181.17976872 72.12579671 169.62796433 67.18325806 158.0786438 C58.61196439 138.05030983 49.999666 118.0409417 41.3125 98.0625 C31.63173372 75.7983546 22.02905865 53.50144355 12.49729919 31.17308044 C10.47805181 26.44441662 8.44789978 21.72083288 6.40136719 17.00390625 C5.77166519 15.54809143 5.77166519 15.54809143 5.12924194 14.06286621 C4.32575663 12.20618978 3.51942578 10.35074144 2.70986938 8.4967041 C2.35363495 7.67214722 1.99740051 6.84759033 1.63037109 5.99804688 C1.31458099 5.27194214 0.99879089 4.5458374 0.6734314 3.79772949 C0 2 0 2 0 0 Z " fill="#000000" transform="translate(5746,2266)"/>
<path d="M0 0 C208.23 0 416.46 0 631 0 C631 97.68 631 195.36 631 296 C534.64 296 438.28 296 339 296 C339 356.39 339 416.78 339 479 C425.46 479 511.92 479 601 479 C601 572.72 601 666.44 601 763 C514.87 763 428.74 763 340 763 C340 826.36 340 889.72 340 955 C436.03 955 532.06 955 631 955 C631 1054.66 631 1154.32 631 1257 C422.77 1257 214.54 1257 0 1257 C0 842.19 0 427.38 0 0 Z " fill="#FFFEFE" transform="translate(5348,4162)"/>
<path d="M0 0 C1.70542969 -0.00483398 1.70542969 -0.00483398 3.4453125 -0.00976562 C24.48572198 0.12294338 43.80180719 7.60571903 59.12109375 22.19921875 C61.35474002 24.35922823 61.35474002 24.35922823 63.88671875 26.26171875 C82.38835241 41.51031792 93.66163874 67.65336458 102.375 89.3125 C102.73335937 90.2003418 103.09171875 91.08818359 103.4609375 92.00292969 C119.03489105 131.18664552 125.67093955 173.50129173 131.08505249 215.09207153 C131.29450304 216.69605135 131.50604907 218.29975802 131.71890259 219.90328979 C133.58665043 234.02205444 135.10347739 248.13118337 136.20043945 262.33081055 C136.43137412 265.29633518 136.67699364 268.26037185 136.92382812 271.22460938 C140.06288186 310.23508435 140.75668113 349.33688355 140.69285583 388.45613098 C140.68740271 391.93710437 140.68504483 395.41807094 140.6829834 398.89904785 C140.65203593 432.44369982 140.38032994 465.87859045 137.375 499.3125 C137.29531982 500.20779419 137.21563965 501.10308838 137.13354492 502.0255127 C136.18822723 512.53192244 135.090575 523.01461899 133.83056641 533.48779297 C133.4294029 536.85576056 133.05711229 540.22488074 132.69921875 543.59765625 C125.05196449 613.18056729 108.20021389 708.78091092 50.87353516 755.53710938 C30.7746983 771.40492802 7.8535849 777.7919017 -17.625 776.3125 C-26.87744939 775.143285 -35.23634004 772.32397091 -43.625 768.3125 C-44.55054687 767.87035156 -45.47609375 767.42820312 -46.4296875 766.97265625 C-87.10783171 746.172642 -106.90478333 696.98776498 -120.625 656.3125 C-122.04017141 651.83249517 -123.29201753 647.32428877 -124.45996094 642.77441406 C-125.20027302 639.90479848 -125.97422718 637.04934944 -126.79394531 634.20141602 C-129.87607449 623.48913302 -132.40252844 612.74617219 -134.5625 601.8125 C-134.73075287 600.96843597 -134.89900574 600.12437195 -135.07235718 599.25473022 C-142.39094076 562.32089384 -146.59270563 524.97081553 -149.25 487.4375 C-149.31271088 486.55482452 -149.37542175 485.67214905 -149.44003296 484.76272583 C-150.94658908 463.31388052 -151.78508139 441.90841113 -151.79296875 420.40625 C-151.79620313 418.26485169 -151.79956858 416.12345358 -151.80305481 413.98205566 C-151.80898788 409.51472465 -151.81090126 405.04741279 -151.81030273 400.58007812 C-151.81022229 396.11128622 -151.81704349 391.64259861 -151.83081055 387.17382812 C-151.90309743 363.32215349 -151.73848029 339.51561772 -150.6953125 315.68359375 C-150.65342993 314.72673676 -150.61154736 313.76987976 -150.56839561 312.7840271 C-146.73830475 227.40788514 -135.0539457 137.46874773 -73.625 37.3125 C-72.81675781 36.35859375 -72.00851563 35.4046875 -71.17578125 34.421875 C-52.7175066 13.15920424 -28.57740574 -0.40778262 0 0 Z " fill="#F6921D" transform="translate(3125.625,2608.6875)"/>
<path d="M0 0 C40.7511245 0 71.48494139 9.74359138 100.875 38.5 C113.41184201 51.0831224 123.26677834 65.59459699 132 81 C132.45084961 81.79325684 132.90169922 82.58651367 133.36621094 83.40380859 C150.83265123 114.52481524 161.31508521 148.30928102 169 183 C169.30115723 184.35061523 169.30115723 184.35061523 169.60839844 185.72851562 C172.0190469 196.77477819 173.66341064 207.95271851 175.23895264 219.14379883 C175.44491221 220.60389326 175.65378079 222.06358247 175.86651611 223.52270508 C180.51760669 255.71887526 181.47890293 288.00206338 181.3225708 320.47918701 C181.30910932 324.26643171 181.31442125 328.05355952 181.31943226 331.84081745 C181.34777392 360.17891656 180.8807101 388.5481169 177.1875 416.6875 C177.10285492 417.35002777 177.01820984 418.01255554 176.93099976 418.69515991 C176.320972 423.46831416 175.67040775 428.23498893 175 433 C174.82629883 434.24813477 174.65259766 435.49626953 174.47363281 436.78222656 C165.34411369 500.62135935 143.5684943 568.71476101 90.33544922 609.26806641 C64.53724955 628.45019166 32.07428432 639 0 639 C0 428.13 0 217.26 0 0 Z " fill="#FF0000" transform="translate(4675,4476)"/>
<path d="M0 0 C38.70979021 0 38.70979021 0 54 3 C55.29550781 3.23976562 56.59101563 3.47953125 57.92578125 3.7265625 C88.68617938 9.8450242 117.19877944 24.50275345 135.8125 50.3125 C160.08738285 87.32612871 163.92919818 136.27970594 156 179 C154.38432072 186.45007668 152.27765808 193.7291906 150 201 C149.63261719 202.23492187 149.26523437 203.46984375 148.88671875 204.7421875 C144.00300107 219.83731486 136.00108529 234.69405538 126 247 C125.30519531 247.89460938 124.61039063 248.78921875 123.89453125 249.7109375 C101.55017457 277.94787674 72.35802071 293.56030451 37 299 C24.79 299 12.58 299 0 299 C0 200.33 0 101.66 0 0 Z " fill="#FF0000" transform="translate(6464,4445)"/>
<path d="M0 0 C38.70979021 0 38.70979021 0 54 3 C55.29550781 3.23976562 56.59101563 3.47953125 57.92578125 3.7265625 C88.68617938 9.8450242 117.19877944 24.50275345 135.8125 50.3125 C160.08738285 87.32612871 163.92919818 136.27970594 156 179 C154.38432072 186.45007668 152.27765808 193.7291906 150 201 C149.63261719 202.23492187 149.26523438 203.46984375 148.88671875 204.7421875 C144.00300107 219.83731486 136.00108529 234.69405538 126 247 C125.30519531 247.89460938 124.61039063 248.78921875 123.89453125 249.7109375 C101.55017457 277.94787674 72.35802071 293.56030451 37 299 C24.79 299 12.58 299 0 299 C0 200.33 0 101.66 0 0 Z " fill="#FF0000" transform="translate(2666,4445)"/>
<path d="M0 0 C60.6598657 0 60.6598657 0 80.375 5.75 C81.27581299 6.00458984 82.17662598 6.25917969 83.10473633 6.52148438 C91.42485074 8.96132267 99.23117901 12.17239191 107 16 C107.99128906 16.48210937 108.98257812 16.96421875 110.00390625 17.4609375 C136.94913588 31.33600596 154.74948913 54.77968836 164.03125 83.15234375 C172.9830423 115.7816267 168.88258495 152.90792529 152.2265625 182.33203125 C135.44611255 210.70040545 107.14162567 228.43132358 75.7956543 236.73413086 C60.54583674 240.57980033 45.51849481 242.1784891 29.8125 242.1875 C28.70841797 242.19974609 27.60433594 242.21199219 26.46679688 242.22460938 C17.34860455 242.2403939 9.23482267 241.15435283 0 240 C0 160.8 0 81.6 0 0 Z " fill="#FF0000" transform="translate(1666,4906)"/>
<path d="M0 0 C0.33 0 0.66 0 1 0 C2.98777458 15.04517486 4.16971532 30.16398985 5.4289856 45.2829895 C8.81551092 85.90073367 12.61195067 126.46425867 17.20214844 166.96533203 C18.14989704 175.32988829 19.08740058 183.69359585 19.921875 192.0703125 C22.03055791 213.15233755 24.65077332 234.15088237 27.40341187 255.15795898 C29.79337554 273.40169676 32.05687394 291.65397092 34.125 309.9375 C38.91662681 353.76049071 38.91662681 353.76049071 45.53173828 397.33105469 C47.09191359 406.18872008 48.28993208 415.08925097 49.5 424 C50.86310601 434.02645921 52.2681807 444.02905258 54 454 C56.2409078 466.92725832 57.9822511 479.91998394 59.75390625 492.91796875 C61.1304424 502.95071652 62.56786258 512.97503806 64 523 C16.81 523 -30.38 523 -79 523 C-75.05162293 495.3613605 -75.05162293 495.3613605 -73.19921875 485.875 C-70.62427229 472.66779587 -68.36428303 459.42135883 -66.19433594 446.14257812 C-64.93050801 438.43192453 -63.59637952 430.74335833 -62.13269043 423.06809998 C-60.60100782 414.98469594 -59.27530092 406.86730128 -57.9375 398.75 C-57.67919283 397.19007827 -57.42072967 395.63018235 -57.16210938 394.0703125 C-55.79495311 385.81989187 -55.79495311 385.81989187 -54.4375 377.56787109 C-53.42202571 371.40122634 -52.3160664 365.25999007 -51.125 359.125 C-50.77166155 357.27613216 -50.41881152 355.42717093 -50.06640625 353.578125 C-49.55006684 350.8723754 -49.03242063 348.16695501 -48.50732422 345.46289062 C-45.98610218 332.44384376 -44.00885464 319.38050371 -42.17752075 306.25042725 C-40.9288065 297.30397282 -39.61837764 288.38875434 -38 279.5 C-36.16355662 269.39123917 -34.72845408 259.23819665 -33.31201172 249.06442261 C-31.72423819 237.69616658 -29.93286852 226.3768711 -28 215.0625 C-25.17359407 198.47618531 -22.79026814 181.84803725 -20.56152344 165.171875 C-20.04842686 161.34157494 -19.5147156 157.51436648 -18.9765625 153.6875 C-16.79589723 138.01837363 -15.04387912 122.32636197 -13.38040161 106.59597778 C-10.91191597 83.35519873 -7.86457632 60.19471699 -4.79589844 37.02685547 C-3.78634851 29.39744733 -2.80084769 21.76499241 -1.82034302 14.13180542 C-1.42420942 11.04867734 -1.0264551 7.96575836 -0.62890625 4.8828125 C-0.41924317 3.2552119 -0.20959516 1.62760935 0 0 Z " fill="#FF0000" transform="translate(3757,4467)"/>
<path d="M0 0 C0.92072296 -0.01264893 1.84144592 -0.02529785 2.79006958 -0.03833008 C3.77353363 -0.04590332 4.75699768 -0.05347656 5.77026367 -0.0612793 C6.80480682 -0.07102783 7.83934998 -0.08077637 8.90524292 -0.09082031 C52.43750366 -0.41680394 52.43750366 -0.41680394 70.12573242 4.17700195 C70.84470703 4.3589209 71.56368164 4.54083984 72.30444336 4.72827148 C94.21518798 10.53000438 115.59968317 23.64569747 127.40893555 43.37744141 C129.0643251 46.27162461 130.60324484 49.21019022 132.12573242 52.17700195 C132.62073242 53.12704102 133.11573242 54.07708008 133.62573242 55.0559082 C136.96848526 61.89064393 138.72197002 68.72199258 140.12573242 76.17700195 C140.26253418 76.84666992 140.39933594 77.51633789 140.5402832 78.20629883 C146.47738203 107.57720036 144.76027934 140.3892747 128.12573242 166.17700195 C125.93690604 169.31220496 123.59333424 172.25751421 121.12573242 175.17700195 C120.12413086 176.39709961 120.12413086 176.39709961 119.10229492 177.6418457 C104.90932965 194.26862271 85.51035351 203.47320363 65.12573242 210.17700195 C63.66780273 210.66813477 63.66780273 210.66813477 62.18041992 211.16918945 C38.34328687 218.41747129 13.74290717 216.17700195 -10.87426758 216.17700195 C-10.87426758 145.22700195 -10.87426758 74.27700195 -10.87426758 1.17700195 C-6.98920505 0.52949153 -3.83060841 0.04716518 0 0 Z " fill="#FF0000" transform="translate(1676.874267578125,4433.822998046875)"/>
<path d="M0 0 C0.33 0 0.66 0 1 0 C1.33 3.63 1.66 7.26 2 11 C1.01 11 0.02 11 -1 11 C-0.67 7.37 -0.34 3.74 0 0 Z " fill="#FF3838" transform="translate(3757,4467)"/>
</svg>
