<?xml version="1.0" encoding="UTF-8"?>
<svg version="1.1" xmlns="http://www.w3.org/2000/svg" width="1000" height="1000">
<path d="M0 0 C6.84998533 5.12542917 10.03974505 10.68564141 12.71875 18.72265625 C12.86847889 20.58420827 12.96698226 22.45008715 13.03515625 24.31640625 C13.07705078 25.43015625 13.11894531 26.54390625 13.16210938 27.69140625 C13.20142578 28.85671875 13.24074219 30.02203125 13.28125 31.22265625 C13.32443359 32.35703125 13.36761719 33.49140625 13.41210938 34.66015625 C13.66584213 41.68412336 13.77471341 48.69436289 13.71875 55.72265625 C14.33621094 54.66949219 14.95367187 53.61632812 15.58984375 52.53125 C17.83828733 48.69927571 20.0931928 44.87114162 22.35058594 41.04443359 C23.21225279 39.5821831 24.07248418 38.11908484 24.93066406 36.65478516 C27.12145133 32.91805675 29.34034967 29.20147037 31.61425781 25.51464844 C32.35641056 24.31053677 33.09266462 23.10277126 33.82324219 21.89160156 C38.07722259 14.90426041 41.74528858 9.77290935 49.5625 6.6484375 C51.95357627 5.78490294 51.95357627 5.78490294 54.03125 3.34765625 C54.588125 2.81140625 55.145 2.27515625 55.71875 1.72265625 C58.46875 1.97265625 58.46875 1.97265625 60.71875 2.72265625 C61.21375 5.19765625 61.21375 5.19765625 61.71875 7.72265625 C63.36875 7.72265625 65.01875 7.72265625 66.71875 7.72265625 C68.48337683 10.8107532 68.71875 11.95577761 68.71875 15.72265625 C69.37875 15.72265625 70.03875 15.72265625 70.71875 15.72265625 C71.86477963 19.168873 71.56840514 21.67845896 70.90625 25.22265625 C70.73480469 26.16109375 70.56335938 27.09953125 70.38671875 28.06640625 C70.05607422 29.87625 70.05607422 29.87625 69.71875 31.72265625 C69.59177734 32.58238037 69.46480469 33.44210449 69.33398438 34.32788086 C68.14080108 42.20666813 66.13821749 49.66218401 63.84375 57.28515625 C61.10187143 66.55801587 58.625058 75.76297854 56.99853516 85.30102539 C56.60546875 87.453125 56.60546875 87.453125 55.71875 90.72265625 C54.23375 91.21765625 54.23375 91.21765625 52.71875 91.72265625 C52.71875 92.71265625 52.71875 93.70265625 52.71875 94.72265625 C53.37875 94.72265625 54.03875 94.72265625 54.71875 94.72265625 C54.46910076 97.8080878 54.19033521 100.89021983 53.90625 103.97265625 C53.80086914 105.28169922 53.80086914 105.28169922 53.69335938 106.6171875 C52.89610164 114.97244858 52.89610164 114.97244858 49.71875 117.72265625 C45.36749639 118.53390692 43.17046759 118.68629637 39.453125 116.21875 C32.87153236 110.54863691 32.87153236 110.54863691 32.55761719 106.796875 C32.2778756 90.89714394 33.5734857 75.4717109 35.71875 59.72265625 C32.4944437 61.36402742 32.4944437 61.36402742 32.21875 64.16015625 C32.05375 65.00578125 31.88875 65.85140625 31.71875 66.72265625 C30.74024805 67.74370176 29.73894573 68.74326835 28.71875 69.72265625 C27.55752092 72.17413987 26.78036556 74.37631423 26.30517578 77.04736328 C25.66621367 79.96232864 24.67160579 82.42584851 23.4609375 85.15234375 C23.00323975 86.18834717 22.54554199 87.22435059 22.07397461 88.29174805 C21.58550049 89.38269775 21.09702637 90.47364746 20.59375 91.59765625 C20.09818604 92.71503174 19.60262207 93.83240723 19.09204102 94.98364258 C15.84470764 102.28103875 12.5184879 109.53542653 9.05859375 116.734375 C7.73516553 119.68604436 6.68540477 122.63768624 5.71875 125.72265625 C5.05875 125.72265625 4.39875 125.72265625 3.71875 125.72265625 C3.05875 126.71265625 2.39875 127.70265625 1.71875 128.72265625 C1.05875 128.72265625 0.39875 128.72265625 -0.28125 128.72265625 C-0.61125 128.06265625 -0.94125 127.40265625 -1.28125 126.72265625 C-3.26125 127.71265625 -3.26125 127.71265625 -5.28125 128.72265625 C-5.8690625 127.79453125 -5.8690625 127.79453125 -6.46875 126.84765625 C-8.12827566 124.52246781 -8.12827566 124.52246781 -10.84375 123.91015625 C-13.28125 122.72265625 -13.28125 122.72265625 -14.421875 119.57421875 C-15.25373293 115.84598276 -15.51495119 112.71965463 -15.46875 108.91015625 C-15.46157959 108.2557959 -15.45440918 107.60143555 -15.44702148 106.92724609 C-15.41052466 104.52494393 -15.34863071 102.1242971 -15.28125 99.72265625 C-15.2512793 98.65128418 -15.22130859 97.57991211 -15.19042969 96.47607422 C-15.0848682 92.93285846 -14.96728225 89.39028935 -14.84375 85.84765625 C-14.80467529 84.6877417 -14.76560059 83.52782715 -14.7253418 82.33276367 C-14.68320557 81.24713135 -14.64106934 80.16149902 -14.59765625 79.04296875 C-14.56099854 78.06602051 -14.52434082 77.08907227 -14.48657227 76.08251953 C-14.28125 73.72265625 -14.28125 73.72265625 -13.28125 71.72265625 C-13.94125 71.72265625 -14.60125 71.72265625 -15.28125 71.72265625 C-15.46300781 72.49609375 -15.64476562 73.26953125 -15.83203125 74.06640625 C-16.20908203 75.62875 -16.20908203 75.62875 -16.59375 77.22265625 C-16.83738281 78.24359375 -17.08101562 79.26453125 -17.33203125 80.31640625 C-18.28125 83.72265625 -18.28125 83.72265625 -19.69213867 87.42407227 C-21.24788719 91.52965292 -22.484096 95.67774465 -23.65625 99.90625 C-24.08799234 101.42528645 -24.52029983 102.94416236 -24.953125 104.46289062 C-25.62361359 106.82715404 -26.29016425 109.19228086 -26.94726562 111.56030273 C-27.58906074 113.86645813 -28.24628879 116.16773807 -28.90625 118.46875 C-29.10009277 119.18220078 -29.29393555 119.89565155 -29.49365234 120.63072205 C-30.0703125 122.61499023 -30.0703125 122.61499023 -31.28125 125.72265625 C-32.27125 126.05265625 -33.26125 126.38265625 -34.28125 126.72265625 C-35.01448796 128.73773983 -35.01448796 128.73773983 -35.28125 130.72265625 C-40.64488636 130.72265625 -40.64488636 130.72265625 -43.28125 129.72265625 C-43.61125 128.73265625 -43.94125 127.74265625 -44.28125 126.72265625 C-45.4878125 126.53703125 -45.4878125 126.53703125 -46.71875 126.34765625 C-47.564375 126.14140625 -48.41 125.93515625 -49.28125 125.72265625 C-52.31273025 119.65969576 -50.02143169 110.89094459 -48.65625 104.53515625 C-48.47731201 103.67768799 -48.29837402 102.82021973 -48.11401367 101.93676758 C-45.868095 91.43655311 -43.14231025 81.06977603 -40.28125 70.72265625 C-39.94432129 69.49981934 -39.60739258 68.27698242 -39.26025391 67.01708984 C-27.03557427 22.85414265 -27.03557427 22.85414265 -16.28125 6.72265625 C-15.8171875 5.995625 -15.353125 5.26859375 -14.875 4.51953125 C-10.6513896 -1.81588434 -6.9952503 -3.91686104 0 0 Z M-22.28125 85.72265625 C-21.28125 87.72265625 -21.28125 87.72265625 -21.28125 87.72265625 Z " fill="#999DEF" transform="translate(212.28125,394.27734375)"/>
<path d="M0 0 C1.98751036 1.98751036 3.43184324 3.71330702 5 6 C5.44730469 6.63808594 5.89460937 7.27617187 6.35546875 7.93359375 C12.32307577 16.91125475 12.29361906 24.94183655 12.1875 35.5 C12.17852018 36.96174966 12.16982025 38.42350105 12.16137695 39.88525391 C12.13255899 43.99471112 12.08477466 48.10378515 12.03320312 52.2130127 C11.99780053 55.18461836 11.96925601 58.15624405 11.94140625 61.12792969 C11.88909197 66.48296764 11.81797056 71.83749833 11.73452759 77.19213867 C11.70322008 79.31105363 11.67649393 81.43004133 11.65438843 83.54907227 C11.62117465 86.54095558 11.56889087 89.53192846 11.51171875 92.5234375 C11.50531372 93.42303192 11.49890869 94.32262634 11.49230957 95.2494812 C11.31226785 102.82379238 11.31226785 102.82379238 8 106 C3.66038724 106.15226711 1.24241088 106.110139 -2.0546875 103.1640625 C-7.2629189 96.48628863 -8.09129673 90.3210446 -8 82 C-8.62044189 82.15146484 -9.24088379 82.30292969 -9.88012695 82.45898438 C-12.69007062 83.14286096 -15.50125656 83.82148723 -18.3125 84.5 C-19.77719727 84.85771484 -19.77719727 84.85771484 -21.27148438 85.22265625 C-22.67817383 85.56103516 -22.67817383 85.56103516 -24.11328125 85.90625 C-24.97735596 86.11572266 -25.84143066 86.32519531 -26.73168945 86.54101562 C-29 87 -29 87 -32 87 C-32.268125 87.969375 -32.53625 88.93875 -32.8125 89.9375 C-34.85857851 97.08436579 -37.34932425 104.05775398 -40 111 C-46.4 111.49230769 -46.4 111.49230769 -49.4375 109 C-49.953125 108.34 -50.46875 107.68 -51 107 C-51 108.98 -51 110.96 -51 113 C-52.2065625 112.89558594 -52.2065625 112.89558594 -53.4375 112.7890625 C-72.74989859 111.89967572 -90.93928628 118.90472193 -108.47143555 126.30395508 C-114.78492954 128.93377678 -120.15033132 130.67313352 -127 131 C-127 130.34 -127 129.68 -127 129 C-128.32 129 -129.64 129 -131 129 C-133.65690829 124.46111501 -134.90531829 121.25084605 -134 116 C-132.91020452 114.92155656 -131.77884868 113.88461759 -130.625 112.875 C-125.80391588 107.85143035 -126.11840296 102.28517854 -125.70092773 95.68579102 C-123.99278298 70.09888469 -115.7370481 44.36698143 -104.4375 21.5 C-103.96618652 20.54319336 -103.49487305 19.58638672 -103.00927734 18.60058594 C-98.38132952 9.40980388 -98.38132952 9.40980388 -95 6 C-91.875 5.5625 -91.875 5.5625 -89 6 C-87 8 -87 8 -87 11 C-86.36707031 11.2371875 -85.73414063 11.474375 -85.08203125 11.71875 C-83 13 -83 13 -82.13671875 15.03125 C-81.98847656 15.8459375 -81.84023438 16.660625 -81.6875 17.5 C-81.52636719 18.2940625 -81.36523438 19.088125 -81.19921875 19.90625 C-80.63259242 28.70562359 -82.82202581 36.71258647 -85.375 45.0625 C-85.67921875 46.08666016 -85.9834375 47.11082031 -86.296875 48.16601562 C-88.08621648 54.14960411 -89.98591758 60.08854685 -92 66 C-95.68466842 76.88063703 -99.24087725 87.84354716 -102 99 C-100.71609375 98.71125 -99.4321875 98.4225 -98.109375 98.125 C-88.77746227 96.1252409 -79.62431189 94.57394343 -70.0625 94.4375 C-69.24168945 94.41107422 -68.42087891 94.38464844 -67.57519531 94.35742188 C-63.32207269 94.38213907 -60.76542535 94.77955728 -57.43359375 97.53515625 C-56.63050781 98.34855469 -55.82742188 99.16195312 -55 100 C-54.65710938 98.75734375 -54.31421875 97.5146875 -53.9609375 96.234375 C-44.74463201 63.95289174 -32.98783096 23.81560746 -7 1 C-4.32590305 -0.33704848 -2.97186266 -0.4837916 0 0 Z M-11 40 C-11.350625 41.19625 -11.70125 42.3925 -12.0625 43.625 C-13.7577534 48.78482465 -16.15187197 53.50161611 -18.66235352 58.30126953 C-20.42788114 61.48132237 -20.42788114 61.48132237 -21 65 C-19.56163249 64.88541307 -18.12429034 64.75790884 -16.6875 64.625 C-15.88699219 64.55539062 -15.08648437 64.48578125 -14.26171875 64.4140625 C-11.72775559 64.10435574 -11.72775559 64.10435574 -9 62 C-8.58429992 59.77501085 -8.58429992 59.77501085 -8.70703125 57.2109375 C-8.7215332 55.79941406 -8.7215332 55.79941406 -8.73632812 54.359375 C-8.76146484 53.37453125 -8.78660156 52.3896875 -8.8125 51.375 C-8.82603516 50.38242187 -8.83957031 49.38984375 -8.85351562 48.3671875 C-8.88894257 45.91091928 -8.93833804 43.45572715 -9 41 C-9.66 40.67 -10.32 40.34 -11 40 Z " fill="#999DEF" transform="translate(480,379)"/>
<path d="M0 0 C6.60279372 5.2272117 10.2332736 12.6083352 11.8125 20.8203125 C11.8125 29.44676308 9.15348919 35.16249049 3.23828125 41.359375 C2.76777344 41.82085938 2.29726563 42.28234375 1.8125 42.7578125 C-2.73097826 41.32302989 -2.73097826 41.32302989 -4.5 39.1328125 C-6.34455375 32.76071773 -4.95663947 26.94980063 -3.1875 20.7578125 C-12.08718687 26.24910865 -17.99244605 34.75007546 -23.80078125 43.296875 C-25.49818241 45.08512298 -26.78729222 45.37910168 -29.1875 45.7578125 C-28.8575 46.4178125 -28.5275 47.0778125 -28.1875 47.7578125 C-29.09619141 49.78222656 -29.09619141 49.78222656 -30.5390625 52.2734375 C-31.31854248 53.64592651 -31.31854248 53.64592651 -32.11376953 55.04614258 C-32.67435059 56.02349365 -33.23493164 57.00084473 -33.8125 58.0078125 C-38.52286691 66.42444062 -42.53341596 74.44965045 -45.1875 83.7578125 C-45.54908203 84.94117188 -45.54908203 84.94117188 -45.91796875 86.1484375 C-47.64684772 92.5998248 -47.37201121 99.12565957 -47.1875 105.7578125 C-45.10047017 104.34635302 -43.01794062 102.92892719 -40.9375 101.5078125 C-40.35097656 101.11207031 -39.76445313 100.71632813 -39.16015625 100.30859375 C-36.50016602 98.48545438 -34.18131503 96.75162753 -31.890625 94.4609375 C-31.32859375 93.89890625 -30.7665625 93.336875 -30.1875 92.7578125 C-29.5275 92.7578125 -28.8675 92.7578125 -28.1875 92.7578125 C-26.30358215 89.49235489 -25.69462033 86.47669489 -25.1875 82.7578125 C-25.950625 82.7165625 -26.71375 82.6753125 -27.5 82.6328125 C-30.1875 81.7578125 -30.1875 81.7578125 -32 78.8203125 C-33.1875 75.7578125 -33.1875 75.7578125 -33.1875 73.7578125 C-33.6825 73.3453125 -34.1775 72.9328125 -34.6875 72.5078125 C-36.83646623 70.00068524 -36.29141764 67.96193984 -36.1875 64.7578125 C-33.9840194 63.6017398 -31.77546844 62.45796529 -29.5625 61.3203125 C-28.94503906 60.99482422 -28.32757812 60.66933594 -27.69140625 60.33398438 C-20.72659751 56.77826623 -14.3333317 56.55537599 -6.6875 56.5078125 C-5.85863281 56.4871875 -5.02976562 56.4665625 -4.17578125 56.4453125 C1.6266629 56.40841301 6.07573611 57.08747492 10.421875 61.328125 C10.79828125 61.84117187 11.1746875 62.35421875 11.5625 62.8828125 C13.4979598 65.77918592 13.4979598 65.77918592 15.8125 66.7578125 C16.14583333 68.7578125 16.47916667 70.7578125 16.8125 72.7578125 C17.4725 73.0878125 18.1325 73.4178125 18.8125 73.7578125 C17.0625 77.6328125 17.0625 77.6328125 14.8125 78.7578125 C12.83865625 79.12134056 10.85831138 79.45009873 8.875 79.7578125 C5.70834319 80.25031806 2.85561158 80.74344197 -0.1875 81.7578125 C-0.5175 82.4178125 -0.8475 83.0778125 -1.1875 83.7578125 C-0.5275 83.7578125 0.1325 83.7578125 0.8125 83.7578125 C2.1333252 95.38107426 -6.02785673 107.91650771 -12.76953125 116.85546875 C-19.54720963 124.358738 -29.35046178 128.39311842 -39.2421875 129.6328125 C-49.85369736 130.08316836 -56.7867807 126.47798882 -64.60546875 119.64453125 C-72.07657716 112.58780732 -76.21440489 105.47400509 -76.63256836 95.09448242 C-76.89494936 82.14219003 -74.03473423 71.68267663 -69.1875 59.7578125 C-68.73117187 58.60563232 -68.73117187 58.60563232 -68.265625 57.43017578 C-65.0327245 49.33197273 -61.48384968 41.73611106 -56.1875 34.7578125 C-55.61612305 33.98993408 -55.61612305 33.98993408 -55.03320312 33.20654297 C-53.73847733 31.46744095 -52.43432481 29.73594735 -51.125 28.0078125 C-50.71338623 27.46423096 -50.30177246 26.92064941 -49.87768555 26.3605957 C-47.20211053 22.8949824 -44.3266439 19.80462864 -41.1875 16.7578125 C-40.63707031 16.17257812 -40.08664062 15.58734375 -39.51953125 14.984375 C-30.52488026 5.50415159 -13.63651832 -7.74359433 0 0 Z M-9.1875 104.7578125 C-8.1875 106.7578125 -8.1875 106.7578125 -8.1875 106.7578125 Z M-19.1875 110.7578125 C-20.87838222 112.73738192 -22.54580472 114.73726446 -24.1875 116.7578125 C-21.56562506 115.70906252 -20.39378639 115.10849937 -18.9375 112.6328125 C-18.69 112.0140625 -18.4425 111.3953125 -18.1875 110.7578125 C-18.5175 110.7578125 -18.8475 110.7578125 -19.1875 110.7578125 Z " fill="#999DEF" transform="translate(591.1875,512.2421875)"/>
<path d="M0 0 C0.2475 0.61875 0.495 1.2375 0.75 1.875 C1.80802664 4.14890939 1.80802664 4.14890939 4 4.875 C6 6 6 6 7.3125 8.5625 C7.96863965 11.84319824 7.83903162 13.3785453 7.25 16.5625 C6.84844237 18.8603149 6.84844237 18.8603149 7 21 C9.37183789 23.3928839 9.37183789 23.3928839 11.3046875 24.6484375 C17.71291604 29.75730173 19.1009167 38.34297193 20 46 C20.25330078 47.54494141 20.25330078 47.54494141 20.51171875 49.12109375 C22.65359378 66.43294603 16.8724803 84.27474372 12.5 100.875 C12.22800781 101.91309814 11.95601562 102.95119629 11.67578125 104.02075195 C7.49528513 119.26459739 7.49528513 119.26459739 4 125 C0.48532632 126.87312438 -1.89904111 127.20909834 -5.8125 126.625 C-6.60269531 126.51414062 -7.39289062 126.40328125 -8.20703125 126.2890625 C-8.79871094 126.19367188 -9.39039063 126.09828125 -10 126 C-10.33 124.68 -10.66 123.36 -11 122 C-11.66 122 -12.32 122 -13 122 C-13 121.34 -13 120.68 -13 120 C-13.99 120 -14.98 120 -16 120 C-19.11062747 113.77874505 -15.95685613 105.40573032 -14.5 99.0625 C-14.26152344 97.99708984 -14.02304687 96.93167969 -13.77734375 95.83398438 C-13.19149341 93.22109187 -12.59888542 90.60992993 -12 88 C-12.98742187 88.3609375 -13.97484375 88.721875 -14.9921875 89.09375 C-16.28639791 89.56266681 -17.58067206 90.03140769 -18.875 90.5 C-19.85146484 90.85771484 -19.85146484 90.85771484 -20.84765625 91.22265625 C-25.7734375 93 -25.7734375 93 -28 93 C-29.5951377 96.85786001 -30.94323322 100.75975175 -32.2421875 104.7265625 C-32.67243924 106.01847513 -33.10345168 107.31013462 -33.53515625 108.6015625 C-34.20888439 110.61831772 -34.87856057 112.63595801 -35.53564453 114.65820312 C-36.17544066 116.62284888 -36.83217094 118.58113172 -37.4921875 120.5390625 C-37.87745605 121.70646973 -38.26272461 122.87387695 -38.65966797 124.07666016 C-40.07209042 127.15723328 -41.08109317 128.35302915 -44 130 C-46.82265356 130.34673671 -49.32471586 129.95873916 -52 129 C-53.6875 126.5625 -53.6875 126.5625 -55 124 C-57.55183404 122.79549696 -57.55183404 122.79549696 -60 122 C-61.60670684 118.78658631 -60.82510855 115.37041032 -60.5625 111.875 C-60.51029297 111.12089844 -60.45808594 110.36679687 -60.40429688 109.58984375 C-60.27454996 107.7262063 -60.13792512 105.86305004 -60 104 C-61.32 103.67 -62.64 103.34 -64 103 C-63.938125 102.21625 -63.87625 101.4325 -63.8125 100.625 C-63.874375 99.75875 -63.93625 98.8925 -64 98 C-64.99 97.34 -65.98 96.68 -67 96 C-66.50633329 91.828874 -65.54609482 90.09212737 -62.3125 87.4375 C-61.31669922 86.60025391 -61.31669922 86.60025391 -60.30078125 85.74609375 C-58 84 -58 84 -54.94140625 82.28125 C-51.1008735 79.30266949 -50.15458465 76.56159368 -48.625 72.0625 C-48.33665283 71.27544678 -48.04830566 70.48839355 -47.7512207 69.67749023 C-46.81670273 67.12427599 -45.90746842 64.56293982 -45 62 C-37.01600744 39.74719047 -27.81680065 15.8128005 -8.375 1 C-5.45476623 -0.22957212 -3.13658967 -0.21883184 0 0 Z M-5.5 39.1875 C-7.17205971 40.91478202 -7.17205971 40.91478202 -7.45092773 43.28857422 C-8.04077818 46.20137057 -9.01796395 48.51088839 -10.28515625 51.1953125 C-10.73310547 52.15824219 -11.18105469 53.12117187 -11.64257812 54.11328125 C-12.59291658 56.12899225 -13.54343884 58.14461659 -14.49414062 60.16015625 C-14.94080078 61.12050781 -15.38746094 62.08085938 -15.84765625 63.0703125 C-16.4665271 64.38153076 -16.4665271 64.38153076 -17.09790039 65.71923828 C-18.18390051 68.05617163 -18.18390051 68.05617163 -18 71 C-15.03 71 -12.06 71 -9 71 C-7.27304136 67.13806502 -6.50292121 63.57132487 -5.9296875 59.38671875 C-5.75566406 58.13955078 -5.58164062 56.89238281 -5.40234375 55.60742188 C-5.14130859 53.66706055 -5.14130859 53.66706055 -4.875 51.6875 C-4.69199042 50.36124738 -4.50840247 49.03507444 -4.32421875 47.70898438 C-3.87711904 44.47339433 -3.43592964 41.23711069 -3 38 C-4.18818461 37.89654951 -4.18818461 37.89654951 -5.5 39.1875 Z " fill="#999DEF" transform="translate(666,506)"/>
<path d="M0 0 C0.495 1.98 0.495 1.98 1 4 C1.639375 4.103125 2.27875 4.20625 2.9375 4.3125 C3.618125 4.539375 4.29875 4.76625 5 5 C6 8 6 8 5 11 C5.66 11 6.32 11 7 11 C6.649375 11.9075 6.29875 12.815 5.9375 13.75 C4.74481685 17.52851073 4.74481685 17.52851073 6 21 C6.9075 21.70125 7.815 22.4025 8.75 23.125 C15.68091357 28.62308048 17.71335582 37.12414427 18.7109375 45.5546875 C18.80632812 46.69164062 18.90171875 47.82859375 19 49 C19.09539062 50.09570312 19.19078125 51.19140625 19.2890625 52.3203125 C20.2295769 74.4471513 12.96981786 103.28331597 3 123 C0.01279055 125.47719808 -1.14099003 126 -5 126 C-5.33 125.34 -5.66 124.68 -6 124 C-8.475 124.495 -8.475 124.495 -11 125 C-14 121.25 -14 121.25 -14 119 C-15.32 118.67 -16.64 118.34 -18 118 C-19.58311099 113.0415769 -18.29963531 109.00147511 -17.0625 104.125 C-15.6753259 98.60377241 -14.74888352 93.70719269 -15 88 C-17.1090001 88.56560916 -19.21212137 89.1531711 -21.3125 89.75 C-22.48425781 90.07484375 -23.65601563 90.3996875 -24.86328125 90.734375 C-29.10667149 92.44652748 -30.36755856 94.51242264 -32.13500977 98.66967773 C-32.48362061 99.66427002 -32.83223145 100.6588623 -33.19140625 101.68359375 C-33.57876953 102.77607422 -33.96613281 103.86855469 -34.36523438 104.99414062 C-34.95788086 106.69860352 -34.95788086 106.69860352 -35.5625 108.4375 C-36.35480953 110.68643027 -37.14775518 112.93513656 -37.94140625 115.18359375 C-38.28888916 116.17931396 -38.63637207 117.17503418 -38.99438477 118.20092773 C-39.49216431 119.58646851 -39.49216431 119.58646851 -40 121 C-40.32218506 121.9062915 -40.64437012 122.81258301 -40.97631836 123.74633789 C-42.36229481 126.79760156 -43.97495861 127.67193305 -47 129 C-47.99 128.67 -48.98 128.34 -50 128 C-51.66362417 127.65179959 -53.32995171 127.31595508 -55 127 C-55.495 124.525 -55.495 124.525 -56 122 C-57.65 121.67 -59.3 121.34 -61 121 C-64.03343928 114.93312143 -62.33166212 109.33051683 -61 103 C-62.65 102.67 -64.3 102.34 -66 102 C-65.67 100.68 -65.34 99.36 -65 98 C-65.99 97.34 -66.98 96.68 -68 96 C-68.6875 93.3125 -68.6875 93.3125 -68 90 C-64.84290863 86.32062437 -61.39117035 83.58112179 -56.9140625 81.7109375 C-53.06016562 79.44819376 -52.48884491 77.48215197 -51 73.3125 C-50.75781738 72.65548096 -50.51563477 71.99846191 -50.26611328 71.3215332 C-49.75485121 69.93013001 -49.25258612 68.53539207 -48.75878906 67.13769531 C-47.51552213 63.63510676 -46.18822487 60.16431667 -44.875 56.6875 C-42.95204831 51.57295916 -42.95204831 51.57295916 -41.0859375 46.4375 C-35.13413114 30.41768476 -20.80370288 -3.46728381 0 0 Z M-8 39 C-8.35116969 40.66299992 -8.680857 42.33055799 -9 44 C-9.79499643 45.91150128 -10.64631825 47.8001186 -11.5390625 49.66796875 C-12.28542969 51.25448242 -12.28542969 51.25448242 -13.046875 52.87304688 C-14.10495103 55.09526843 -15.16486806 57.31661429 -16.2265625 59.53710938 C-16.7215625 60.59091797 -17.2165625 61.64472656 -17.7265625 62.73046875 C-18.18627441 63.69364014 -18.64598633 64.65681152 -19.11962891 65.64916992 C-19.41015137 66.42494385 -19.70067383 67.20071777 -20 68 C-19.67 68.66 -19.34 69.32 -19 70 C-16.03 70 -13.06 70 -10 70 C-7.43785761 59.37564955 -6.04669261 48.86097506 -5 38 C-6.2236068 37.9254644 -6.2236068 37.9254644 -8 39 Z " fill="#999DEF" transform="translate(409,529)"/>
<path d="M0 0 C4.02360093 0.73902874 5.45183389 2.50429113 8.0625 5.5625 C8.5575 6.0575 8.5575 6.0575 9.0625 6.5625 C9.10330783 8.56208364 9.10504356 10.56295254 9.0625 12.5625 C9.7225 12.5625 10.3825 12.5625 11.0625 12.5625 C10.61059906 15.12628464 10.15122754 17.68835122 9.6875 20.25 C9.49800781 21.3318457 9.49800781 21.3318457 9.3046875 22.43554688 C8.58596617 26.37054614 7.68653828 29.88134656 6.0625 33.5625 C5.70391484 34.88926508 5.3606424 36.22085921 5.0625 37.5625 C4.4025 37.5625 3.7425 37.5625 3.0625 37.5625 C2.36957655 40.97192864 1.7310365 44.38664075 1.125 47.8125 C-0.15853663 54.8767053 -1.50617797 61.78953148 -3.9375 68.5625 C-4.5975 68.5625 -5.2575 68.5625 -5.9375 68.5625 C-7.11190669 75.19846787 -8.15071212 81.78385068 -8.69140625 88.50390625 C-8.9375 90.5625 -8.9375 90.5625 -9.9375 93.5625 C-10.1025 94.738125 -10.2675 95.91375 -10.4375 97.125 C-10.9375 100.5625 -10.9375 100.5625 -11.9375 102.5625 C-12.13703061 106.10084282 -12.25605104 109.63739289 -12.36328125 113.1796875 C-13.02045001 117.05117149 -13.77311076 118.2990045 -16.9375 120.5625 C-20.3705787 120.78761991 -21.88760838 120.85898951 -24.9375 119.5625 C-26.96660799 117.64612023 -28.63438039 115.61303629 -30.35546875 113.41796875 C-32.32268539 111.11073936 -34.10507336 110.55384932 -36.9375 109.5625 C-38.6953125 108.40625 -38.6953125 108.40625 -40.5625 106.9375 C-41.13226562 106.49148438 -41.70203125 106.04546875 -42.2890625 105.5859375 C-47.60497672 99.06071578 -48.22578923 89.56886014 -49.625 81.5625 C-49.84994141 80.31082031 -50.07488281 79.05914062 -50.30664062 77.76953125 C-50.85698507 74.70165371 -51.40040283 71.63271953 -51.9375 68.5625 C-53.40886609 73.2071123 -54.87755568 77.85252145 -56.33984375 82.5 C-57.27873515 85.48308117 -58.22608315 88.46287474 -59.19140625 91.4375 C-61.02721259 97.18201579 -62.46532933 102.54232399 -62.9375 108.5625 C-66.42931381 110.05899163 -68.41107021 110.6637365 -72.1875 109.9375 C-75.29499332 108.38375334 -75.60093353 107.61750907 -76.9375 104.5625 C-77.5975 104.2325 -78.2575 103.9025 -78.9375 103.5625 C-81.52078061 102.2708597 -81.9024002 101.22756107 -82.9375 98.5625 C-83.39880694 89.21272265 -80.31557808 79.54778048 -78.1875 70.5 C-77.82177958 68.92547411 -77.45613875 67.35092973 -77.09057617 65.77636719 C-74.64240709 55.29203458 -72.08648407 44.86140338 -68.9375 34.5625 C-68.74091797 33.90459473 -68.54433594 33.24668945 -68.34179688 32.56884766 C-61.91400969 11.21350646 -61.91400969 11.21350646 -54.9375 6.5625 C-51.75 6.9375 -51.75 6.9375 -48.9375 7.5625 C-48.9375 8.2225 -48.9375 8.8825 -48.9375 9.5625 C-48.23625 9.7275 -47.535 9.8925 -46.8125 10.0625 C-40.05139961 13.59003064 -36.28569164 21.54994587 -33.9375 28.5625 C-31.56963557 37.42778443 -30.80529513 46.52620629 -29.8125 55.625 C-29.62935426 57.27023223 -29.4457643 58.91541506 -29.26171875 60.56054688 C-28.81518523 64.5606465 -28.37468135 68.5613679 -27.9375 72.5625 C-27.78716309 71.76368408 -27.63682617 70.96486816 -27.48193359 70.1418457 C-14.70341074 2.81554674 -14.70341074 2.81554674 0 0 Z " fill="#999DEF" transform="translate(844.9375,354.4375)"/>
<path d="M0 0 C1.17820312 -0.03738281 2.35640625 -0.07476562 3.5703125 -0.11328125 C7.61169288 0.40741669 9.06640858 1.39291613 11.875 4.3125 C16.12307116 11.24850999 19.49567947 19.04686604 18.875 27.3125 C17.07189348 32.83451372 12.93862171 38.16148857 8.875 42.3125 C5.83841998 43.46332395 3.95147324 43.3013664 0.875 42.3125 C0.875 41.3225 0.875 40.3325 0.875 39.3125 C-1.105 38.8175 -1.105 38.8175 -3.125 38.3125 C-3.104375 37.425625 -3.08375 36.53875 -3.0625 35.625 C-3.11804896 32.68090504 -3.50581564 30.17439935 -4.125 27.3125 C-15.01765944 30.94865584 -15.01765944 30.94865584 -25.125 36.3125 C-22.8043116 38.88936829 -20.42487569 40.31784552 -17.375 41.9375 C-6.12165921 48.6568861 0.17050463 61.89267947 4.08203125 74.0703125 C7.12650252 86.72085523 5.46556281 97.32379319 -0.4296875 108.8671875 C-3.78145581 113.70176575 -9.56982995 118.26609711 -15.26171875 119.94140625 C-16.87914082 120.10630611 -18.50223228 120.21314687 -20.125 120.3125 C-20.73214844 120.786875 -21.33929687 121.26125 -21.96484375 121.75 C-28.06151535 126.15988904 -38.80992387 126.0615638 -46.125 125.3125 C-52.44122074 124.09674623 -58.65558181 122.13446772 -63.125 117.3125 C-67.63582896 110.09517366 -70.30124745 102.86702688 -69.125 94.3125 C-66.29994929 86.32442558 -61.63359717 78.95940769 -54.0625 74.875 C-50.98699469 73.48777591 -48.53743348 72.88594582 -45.125 73.3125 C-45.125 76.3125 -45.125 76.3125 -46.125 78.3125 C-43.65 77.8175 -43.65 77.8175 -41.125 77.3125 C-40.135 80.7775 -40.135 80.7775 -39.125 84.3125 C-39.681875 84.786875 -40.23875 85.26125 -40.8125 85.75 C-44.90850402 90.28881527 -47.42494205 95.86284175 -50.125 101.3125 C-36.19204843 96.30638386 -23.46546339 91.69058408 -16.6875 77.6875 C-15.1091204 74.13449489 -14.98627921 71.18558452 -15.125 67.3125 C-17.06196444 66.56111793 -18.99960827 65.81148726 -20.9375 65.0625 C-22.12085938 64.60488281 -23.30421875 64.14726562 -24.5234375 63.67578125 C-27.68728788 62.47818496 -30.86566216 61.35524283 -34.0625 60.25 C-41.80565143 57.42920028 -47.41280516 53.45139548 -51.3125 46.0625 C-56.33950096 29.0480352 -56.33950096 29.0480352 -52.5 21.625 C-49.06734117 15.71319868 -42.68236824 12.21503685 -36.8125 9.125 C-36.15386963 8.77550293 -35.49523926 8.42600586 -34.81665039 8.06591797 C-29.95214322 5.56348886 -25.55210146 4.17394468 -20.125 3.3125 C-19.09375 2.961875 -18.0625 2.61125 -17 2.25 C-11.36378893 0.41210508 -5.8992213 0.17857768 0 0 Z M-10.125 8.3125 C-6.125 9.3125 -6.125 9.3125 -6.125 9.3125 Z M-10.125 20.3125 C-6.31010326 21.77976798 -3.83488378 20.74586419 -0.125 19.3125 C-4.06170488 18.00026504 -6.24988144 19.06953744 -10.125 20.3125 Z M-16.125 110.3125 C-16.455 110.9725 -16.785 111.6325 -17.125 112.3125 C-16.135 111.9825 -15.145 111.6525 -14.125 111.3125 C-14.785 110.9825 -15.445 110.6525 -16.125 110.3125 Z M-8.125 111.3125 C-8.455 111.9725 -8.785 112.6325 -9.125 113.3125 C-8.465 113.3125 -7.805 113.3125 -7.125 113.3125 C-7.455 112.6525 -7.785 111.9925 -8.125 111.3125 Z M-23.125 115.3125 C-20.65233235 114.96805119 -20.65233235 114.96805119 -18.125 114.3125 C-17.795 113.6525 -17.465 112.9925 -17.125 112.3125 C-19.88723278 112.3125 -21.01781454 113.62675163 -23.125 115.3125 Z M-13.125 115.3125 C-13.785 115.9725 -14.445 116.6325 -15.125 117.3125 C-14.135 117.3125 -13.145 117.3125 -12.125 117.3125 C-12.455 116.6525 -12.785 115.9925 -13.125 115.3125 Z " fill="#999DEF" transform="translate(643.125,363.6875)"/>
<path d="M0 0 C2.73412559 1.67663814 5.00228047 3.48113625 7 6 C7.4375 9.375 7.4375 9.375 7 12 C7.66 12 8.32 12 9 12 C9 26.52 9 41.04 9 56 C16.94980912 48.05019088 21.96252639 39.38300131 27.08325195 29.47998047 C30.05669882 23.7450329 33.13447607 18.088677 36.375 12.5 C36.77952393 11.78835693 37.18404785 11.07671387 37.60083008 10.34350586 C39.67320155 6.80929917 41.4002812 4.16969352 45 2 C50.72045466 4.23237255 54.87545292 7.72902493 58 13 C58.542623 16.10207486 58.45322015 18.8922047 58 22 C58.66 22 59.32 22 60 22 C61.49808441 45.96935056 35.6637134 75.36630385 23 94 C22.02979037 95.43869585 21.05972908 96.87749175 20.08984375 98.31640625 C14.05513232 107.22433049 7.71905141 115.88021132 1.18798828 124.43041992 C0.19565449 125.74149964 -0.76900074 127.07346935 -1.7265625 128.41015625 C-3.37330678 130.46606092 -4.4258054 130.62144197 -7 131 C-7.9075 131.185625 -8.815 131.37125 -9.75 131.5625 C-10.86375 131.7790625 -10.86375 131.7790625 -12 132 C-12 131.01 -12 130.02 -12 129 C-12.99 129.99 -12.99 129.99 -14 131 C-16.93453261 130.63318342 -17.86437246 130.13562754 -20 128 C-20.625 125.875 -20.625 125.875 -21 124 C-21.639375 123.87625 -22.27875 123.7525 -22.9375 123.625 C-23.618125 123.41875 -24.29875 123.2125 -25 123 C-26.42592254 120.14815492 -26.28709733 118.16955449 -26 115 C-24.42578125 112.140625 -24.42578125 112.140625 -22.3125 109.25 C-15.01925918 99.58861484 -15.01925918 99.58861484 -13.25 88.109375 C-13.41326782 86.66292603 -13.41326782 86.66292603 -13.57983398 85.18725586 C-14.19382579 80.52969457 -14.84520695 75.87817316 -15.51123047 71.2277832 C-22.67078194 20.37847986 -22.67078194 20.37847986 -9.875 1.9375 C-6.5241096 -1.52508674 -4.5605518 -1.29072221 0 0 Z " fill="#999DEF" transform="translate(460,525)"/>
<path d="M0 0 C7.76866052 6.54550971 12.79013947 15.3628042 14.09082031 25.54150391 C14.70628302 33.90186988 14.81620558 41.28960161 9.75390625 48.3359375 C6.315236 52.29986288 2.66783663 55.96579109 -1.1640625 59.546875 C-2.20820312 60.63355469 -2.20820312 60.63355469 -3.2734375 61.7421875 C-5.1640625 63.546875 -5.1640625 63.546875 -7.7890625 64.546875 C-10.29340731 65.29687688 -10.29340731 65.29687688 -11.08984375 67.4140625 C-14.46220319 74.10972887 -23.50154927 78.13933134 -29.7265625 81.921875 C-30.43433838 82.36289551 -31.14211426 82.80391602 -31.87133789 83.25830078 C-37.68894363 86.70482309 -42.37746104 87.546875 -49.1640625 87.546875 C-49.4940625 88.206875 -49.8240625 88.866875 -50.1640625 89.546875 C-50.95554687 89.80210937 -51.74703125 90.05734375 -52.5625 90.3203125 C-56.06722478 91.97269025 -56.45678393 93.59194279 -57.7890625 97.171875 C-58.20027344 98.24953125 -58.61148438 99.3271875 -59.03515625 100.4375 C-59.40769531 101.46359375 -59.78023437 102.4896875 -60.1640625 103.546875 C-60.46441406 104.32546875 -60.76476562 105.1040625 -61.07421875 105.90625 C-62.2255041 108.89149242 -63.23552351 111.82251031 -64.0390625 114.921875 C-65.1640625 117.546875 -65.1640625 117.546875 -67.4140625 119.109375 C-71.24284722 119.71849984 -72.98199919 118.66825054 -76.1640625 116.546875 C-77.3515625 114.546875 -77.3515625 114.546875 -78.1640625 112.546875 C-78.7003125 112.134375 -79.2365625 111.721875 -79.7890625 111.296875 C-82.09187615 108.36602126 -81.55171434 105.08223243 -81.1640625 101.546875 C-80.15237453 97.11518451 -78.79967099 92.81188503 -77.4140625 88.484375 C-77.01791748 87.22882813 -76.62177246 85.97328125 -76.21362305 84.6796875 C-73.12188145 75.01440956 -69.64105005 65.50825025 -65.9765625 56.046875 C-65.60839417 55.09396072 -65.60839417 55.09396072 -65.23278809 54.12179565 C-61.59515811 44.75257134 -57.66040421 35.53955843 -53.1640625 26.546875 C-54.0303125 26.7325 -54.8965625 26.918125 -55.7890625 27.109375 C-59.32617422 27.56788948 -61.76194455 27.62936708 -65.1640625 26.546875 C-67.16253661 23.59260893 -67.17056193 21.70824665 -67.02734375 18.15234375 C-65.59759281 12.181031 -60.81556175 9.730486 -55.89306641 6.58837891 C-51.17992112 3.74931116 -46.2803424 1.54722504 -41.1640625 -0.453125 C-40.34164062 -0.7934375 -39.51921875 -1.13375 -38.671875 -1.484375 C-27.73675984 -5.25751378 -10.02903694 -6.4446519 0 0 Z M-29.1640625 12.546875 C-29.1640625 12.876875 -29.1640625 13.206875 -29.1640625 13.546875 C-27.5140625 13.546875 -25.8640625 13.546875 -24.1640625 13.546875 C-24.1640625 13.216875 -24.1640625 12.886875 -24.1640625 12.546875 C-25.8140625 12.546875 -27.4640625 12.546875 -29.1640625 12.546875 Z M-29.1640625 18.546875 C-29.2053125 19.701875 -29.2465625 20.856875 -29.2890625 22.046875 C-30.47045693 32.76381021 -36.03540167 43.48889686 -40.28125 53.2890625 C-41.28544794 55.45327629 -41.28544794 55.45327629 -41.1640625 57.546875 C-41.8240625 57.546875 -42.4840625 57.546875 -43.1640625 57.546875 C-43.1640625 59.196875 -43.1640625 60.846875 -43.1640625 62.546875 C-32.29159392 57.49052214 -23.54527664 49.30146629 -15.1640625 40.921875 C-13.96317993 39.72316772 -13.96317993 39.72316772 -12.73803711 38.50024414 C-5.71533277 31.59606471 -5.71533277 31.59606471 -0.1640625 23.546875 C-0.88611342 20.26103066 -0.88611342 20.26103066 -4.1640625 18.859375 C-11.29683062 16.36877407 -22.05470239 16.1770883 -29.1640625 18.546875 Z " fill="#999DEF" transform="translate(765.1640625,508.453125)"/>
<path d="M0 0 C0.78439453 -0.0100708 1.56878906 -0.0201416 2.37695312 -0.03051758 C11.28461304 0.102644 17.60234655 2.98140753 24.078125 9.06640625 C31.11259895 17.21511939 33.85238512 28.96476669 33.54296875 39.55859375 C31.87936948 51.01721676 23.03547327 60.5537505 14.125 67.4375 C12.47888137 68.15340201 10.81670958 68.83721596 9.125 69.4375 C8.4753125 70.55125 8.4753125 70.55125 7.8125 71.6875 C2.42808959 80.46209474 -12.28784136 88.33930607 -21.953125 91.41796875 C-24.25762261 91.8315059 -26.55282289 92.14504536 -28.875 92.4375 C-33.29806705 93.49183575 -35.50512006 94.85004362 -38 98.8125 C-38.65666618 100.34094713 -39.27717832 101.88509208 -39.875 103.4375 C-40.2978125 104.49453125 -40.720625 105.5515625 -41.15625 106.640625 C-43.20708327 111.86309578 -45.12948292 117.10486525 -46.875 122.4375 C-49.62996074 123.22463164 -51.54816784 123.50286643 -54.375 122.9375 C-58.53821835 120.43956899 -61.14181367 116.75076167 -62.60546875 112.1328125 C-64.45911785 93.59632153 -50.93580812 69.19718617 -44.0625 52.3125 C-43.77819122 51.61382813 -43.49388245 50.91515625 -43.20095825 50.1953125 C-40.60827263 43.84488493 -38.00626071 37.54730522 -34.875 31.4375 C-35.47828125 31.54449219 -36.0815625 31.65148437 -36.703125 31.76171875 C-43.17934783 32.73315217 -43.17934783 32.73315217 -46.375 31.375 C-48.47607973 28.66110535 -48.80777632 26.86590751 -48.875 23.4375 C-45.4422725 14.89533321 -37.59071946 10.552939 -29.5625 6.6875 C-27.68014311 5.90429086 -25.78324713 5.1553279 -23.875 4.4375 C-22.32232422 3.84775391 -22.32232422 3.84775391 -20.73828125 3.24609375 C-13.73348192 0.91116064 -7.35192468 0.06078926 0 0 Z M-6.875 6.4375 C-2.875 7.4375 -2.875 7.4375 -2.875 7.4375 Z M-9.875 16.4375 C-9.875 16.7675 -9.875 17.0975 -9.875 17.4375 C-7.895 17.4375 -5.915 17.4375 -3.875 17.4375 C-3.875 17.1075 -3.875 16.7775 -3.875 16.4375 C-5.855 16.4375 -7.835 16.4375 -9.875 16.4375 Z M-10.875 23.4375 C-10.813125 24.448125 -10.75125 25.45875 -10.6875 26.5 C-10.89649565 30.88890857 -12.02969448 33.47351036 -13.875 37.4375 C-14.32907147 38.78620038 -14.7654614 40.14093524 -15.1875 41.5 C-20.61057692 58.17307692 -20.61057692 58.17307692 -24.875 62.4375 C-25.04187448 65.02104218 -25.04187448 65.02104218 -24.875 67.4375 C-13.71329317 61.30067254 -4.37428245 53.20432264 4.625 44.25 C5.28298584 43.59741211 5.94097168 42.94482422 6.61889648 42.27246094 C13.08671601 35.89631273 13.08671601 35.89631273 18.125 28.4375 C17.97591306 26.27706404 17.97591306 26.27706404 17.125 24.4375 C10.4723185 19.91232578 -4.11787188 19.16536107 -10.875 23.4375 Z " fill="#999DEF" transform="translate(318.875,540.5625)"/>
<path d="M0 0 C4.86831281 0.45286631 7.48559226 1.58321469 11 5 C13.51667585 8.47540951 13.16078393 11.81961777 13 16 C13.66 16 14.32 16 15 16 C15.01981934 17.05276123 15.03963867 18.10552246 15.06005859 19.19018555 C15.13708892 23.15833386 15.22564101 27.12616099 15.31738281 31.09399414 C15.35527575 32.79965803 15.39019155 34.50539111 15.421875 36.21118164 C15.05210995 52.53158859 15.05210995 52.53158859 19 68 C19.47308594 67.04222656 19.94617188 66.08445312 20.43359375 65.09765625 C37.54273376 30.58129232 37.54273376 30.58129232 48 17 C50.64 17.33 53.28 17.66 56 18 C56.061875 18.61875 56.12375 19.2375 56.1875 19.875 C56.81740446 22.27117929 56.81740446 22.27117929 59.5 23.125 C60.325 23.41375 61.15 23.7025 62 24 C63.35439668 26.70879335 63.06501451 29.00933268 63 32 C63.66 32 64.32 32 65 32 C65.35902303 36.66729933 64.4485879 40.15380839 62.8515625 44.4609375 C61.89902839 47.14974008 61.89902839 47.14974008 61.20703125 50.62109375 C59.89386388 55.97592615 57.48211652 60.75652595 55.0625 65.6875 C54.57523438 66.69063232 54.08796875 67.69376465 53.5859375 68.72729492 C45.48052638 85.3092679 36.88118096 101.40701444 27 117 C26.5143457 117.7748877 26.02869141 118.54977539 25.52832031 119.34814453 C24.068935 121.67502675 22.59916218 123.9949566 21.125 126.3125 C20.68478516 127.01213867 20.24457031 127.71177734 19.79101562 128.43261719 C16.22045931 133.97866395 12.81407884 138.93332093 6.1875 140.8125 C5.39730469 141.04582031 4.60710938 141.27914062 3.79296875 141.51953125 C3.20128906 141.67808594 2.60960937 141.83664062 2 142 C1.67 141.01 1.34 140.02 1 139 C-1.31 139.33 -3.62 139.66 -6 140 C-8.875 135.25 -8.875 135.25 -10 133 C-10.66 133 -11.32 133 -12 133 C-13.63535723 129.72928554 -13.6028073 126.52762524 -13 123 C-11.49844118 119.99038836 -9.51064021 117.45065148 -7.4375 114.8125 C-6.33332925 113.32808178 -5.2343898 111.83975848 -4.140625 110.34765625 C-3.60373047 109.61691895 -3.06683594 108.88618164 -2.51367188 108.13330078 C3.63103514 99.9470615 3.63103514 99.9470615 5.83984375 90.46875 C4.89718494 87.69777155 3.66921475 85.31043898 2.25 82.75 C-8.58051505 61.47855677 -11.34419216 36.97105599 -6.1875 13.8125 C-6.03466553 13.11753418 -5.88183105 12.42256836 -5.72436523 11.70654297 C-4.56803614 7.02521064 -2.8269323 3.81072844 0 0 Z M23 117 C24 119 24 119 24 119 Z M22 119 C23 121 23 121 23 121 Z M8 130 C9 132 9 132 9 132 Z " fill="#999DEF" transform="translate(517,370)"/>
<path d="M0 0 C5.33791713 1.97138985 9.33020996 9.07779297 12.0625 13.76171875 C14.79962682 20.70681279 14.32609609 27.83689547 14.25 35.19921875 C14.23965277 36.65836466 14.22948538 38.11751185 14.21948242 39.57666016 C14.19409939 42.81180817 14.1592018 46.04672864 14.12011719 49.28173828 C14.07488673 53.18380342 14.05006399 57.08549178 14.03613281 60.98779297 C14.01622102 66.45292545 13.96982885 71.91731014 13.90689087 77.3821106 C13.88565724 79.54909903 13.87259517 81.71618318 13.86776733 83.88327026 C13.85851429 86.94508739 13.81775209 90.0049878 13.76953125 93.06640625 C13.77344879 93.98787949 13.77736633 94.90935272 13.78140259 95.85874939 C13.63592589 102.17437128 13.63592589 102.17437128 10.51831055 105.36767578 C9.30268433 106.05772705 9.30268433 106.05772705 8.0625 106.76171875 C2.23654704 105.01393286 -0.51430865 102.62909597 -3.71484375 97.45703125 C-5.84617225 92.75857545 -6.4370788 87.86083819 -6.9375 82.76171875 C-12.4865891 83.80524214 -18.00430331 84.96512923 -23.5 86.26171875 C-24.51191406 86.49890625 -25.52382813 86.73609375 -26.56640625 86.98046875 C-27.34886719 87.23828125 -28.13132812 87.49609375 -28.9375 87.76171875 C-29.2675 88.42171875 -29.5975 89.08171875 -29.9375 89.76171875 C-30.5975 89.76171875 -31.2575 89.76171875 -31.9375 89.76171875 C-32.05480469 90.76460938 -32.17210937 91.7675 -32.29296875 92.80078125 C-32.85937043 96.73881044 -33.95324994 100.37092444 -35.25 104.13671875 C-35.65863281 105.36132812 -36.06726563 106.5859375 -36.48828125 107.84765625 C-37.9375 110.76171875 -37.9375 110.76171875 -39.953125 111.70703125 C-43.5165276 111.80523526 -45.77028454 110.8324444 -48.40234375 108.41796875 C-50.51743827 105.93375801 -51.88542504 103.87602411 -52.04052734 100.55712891 C-51.31790238 94.11427344 -49.79868329 88.25857102 -47.6875 82.13671875 C-47.34323975 81.12472412 -46.99897949 80.11272949 -46.64428711 79.07006836 C-18.36836658 -2.25901283 -18.36836658 -2.25901283 0 0 Z M-8.9375 39.76171875 C-9.2675 40.91671875 -9.5975 42.07171875 -9.9375 43.26171875 C-12.41304581 50.78496285 -16.31231083 57.74383473 -19.9375 64.76171875 C-15.38717137 64.84201867 -12.05263709 64.8192873 -7.9375 62.76171875 C-6.70965191 61.75612081 -6.70965191 61.75612081 -6.82397461 59.72045898 C-6.82921143 58.84591064 -6.83444824 57.9713623 -6.83984375 57.0703125 C-6.84306641 56.12607422 -6.84628906 55.18183594 -6.84960938 54.20898438 C-6.85798828 53.21576172 -6.86636719 52.22253906 -6.875 51.19921875 C-6.87951172 50.20212891 -6.88402344 49.20503906 -6.88867188 48.17773438 C-6.90049993 45.70567026 -6.91698151 43.23372357 -6.9375 40.76171875 C-7.5975 40.43171875 -8.2575 40.10171875 -8.9375 39.76171875 Z " fill="#999DEF" transform="translate(331.9375,391.23828125)"/>
<path d="M0 0 C2.66419869 1.9387169 4.27421788 3.72208958 6.1640625 6.41015625 C6.73382812 7.19519531 7.30359375 7.98023438 7.890625 8.7890625 C12.40406548 17.1635267 12.96533905 25.16044872 12.7890625 34.53515625 C12.77262695 36.34209961 12.77262695 36.34209961 12.75585938 38.18554688 C12.63127494 48.72105667 12.29075768 59.25324257 11.88891602 69.78149414 C11.67423574 75.55290742 11.50326664 81.29892209 11.61328125 87.07421875 C11.63003906 87.99847656 11.64679688 88.92273438 11.6640625 89.875 C11.70417592 91.54221382 11.76129169 93.2091547 11.83984375 94.875 C11.935538 98.72327576 11.69075872 100.61967009 9.52734375 103.87109375 C8.87121094 104.52335937 8.21507812 105.175625 7.5390625 105.84765625 C1.86263678 104.7964663 -2.10246251 102.00761048 -5.390625 97.23046875 C-7.68611508 92.12007113 -7.94734469 86.37452816 -8.4609375 80.84765625 C-11.16967623 81.63795642 -13.87793166 82.42985191 -16.5859375 83.22265625 C-17.34648438 83.444375 -18.10703125 83.66609375 -18.890625 83.89453125 C-20.39104785 84.33431036 -21.8888618 84.78309864 -23.38378906 85.24121094 C-25.17729525 85.76484392 -27.00177531 86.18013401 -28.828125 86.57421875 C-31.9803103 88.09886624 -32.68476024 89.61118871 -33.83447266 92.85986328 C-34.14457275 93.8438208 -34.14457275 93.8438208 -34.4609375 94.84765625 C-34.68958496 95.49976074 -34.91823242 96.15186523 -35.15380859 96.82373047 C-35.84443364 98.80326305 -36.50074498 100.79120254 -37.1484375 102.78515625 C-37.37337891 103.46900391 -37.59832031 104.15285156 -37.83007812 104.85742188 C-38.37649273 106.51991736 -38.91912041 108.18365673 -39.4609375 109.84765625 C-44.140625 110.98828125 -44.140625 110.98828125 -47.0234375 109.72265625 C-49.79204396 107.59295898 -51.62741382 105.83562076 -53.4609375 102.84765625 C-53.82395163 97.70912868 -53.03107003 93.28554928 -51.5234375 88.41015625 C-51.30526367 87.68989258 -51.08708984 86.96962891 -50.86230469 86.22753906 C-29.1008712 16.37421624 -29.1008712 16.37421624 -5.4609375 -0.15234375 C-2.4609375 -1.15234375 -2.4609375 -1.15234375 0 0 Z M-10.4609375 38.84765625 C-10.8115625 40.04390625 -11.1621875 41.24015625 -11.5234375 42.47265625 C-13.0043089 46.93662918 -14.92801982 51.08566437 -17.0234375 55.28515625 C-17.32838135 55.9002002 -17.6333252 56.51524414 -17.94750977 57.14892578 C-19.25924197 59.73219485 -20.39881738 61.78553613 -22.4609375 63.84765625 C-19.08794006 64.99771716 -17.11240535 64.69965578 -13.7734375 63.53515625 C-12.98582031 63.27089844 -12.19820312 63.00664062 -11.38671875 62.734375 C-9.2804448 62.007836 -9.2804448 62.007836 -8.4609375 59.84765625 C-8.224166 56.68645827 -8.27575749 53.51675887 -8.2734375 50.34765625 C-8.26119141 49.46722656 -8.24894531 48.58679688 -8.23632812 47.6796875 C-8.23439453 46.83792969 -8.23246094 45.99617188 -8.23046875 45.12890625 C-8.22430542 43.9697168 -8.22430542 43.9697168 -8.21801758 42.78710938 C-8.28917134 40.61025912 -8.28917134 40.61025912 -10.4609375 38.84765625 Z " fill="#999DEF" transform="translate(743.4609375,357.15234375)"/>
<path d="M0 0 C5.41044348 2.85551184 8.23903361 5.75843128 10.22265625 11.6015625 C11.36457659 16.45901791 10.47840062 20.42944174 9.25 25.1875 C9.06695313 25.96802734 8.88390625 26.74855469 8.6953125 27.55273438 C7.93802343 30.6965506 7.13173603 33.67304645 5.921875 36.67578125 C4.83021814 39.42805173 4.47172931 42.08047845 4 45 C3.39619955 47.05448984 2.7497696 49.09690632 2.0625 51.125 C1.72347656 52.13820313 1.38445313 53.15140625 1.03515625 54.1953125 C0.15600146 56.57732433 -0.8561308 58.74097799 -2 61 C-2.68939809 63.32671854 -3.35466922 65.66067594 -4 68 C-4.309375 68.9075 -4.61875 69.815 -4.9375 70.75 C-7.67198154 79.11429646 -9.61231356 87.6051242 -11.3515625 96.2265625 C-12 99 -12 99 -13 100 C-13.10448396 101.45697071 -13.18388668 102.9157846 -13.25 104.375 C-13.68492818 108.71047454 -13.68492818 108.71047454 -16.3125 111.125 C-19.1261937 112.04108632 -20.29901665 112.10040063 -23 111 C-23 110.34 -23 109.68 -23 109 C-25.475 109.495 -25.475 109.495 -28 110 C-28.391875 109.319375 -28.78375 108.63875 -29.1875 107.9375 C-30.80373594 105.1508239 -30.80373594 105.1508239 -32.3125 103.4609375 C-35.8158115 99.26094473 -36.43155992 96.32792555 -36.29614258 90.9284668 C-35.72512416 85.2818337 -34.08978038 79.93162785 -32.5 74.5 C-32.1390625 73.23696045 -31.778125 71.9739209 -31.40625 70.67260742 C-30.47096183 67.41005445 -29.51684661 64.15332686 -28.55712891 60.89788818 C-28.02050912 59.06986538 -27.49250306 57.23932075 -26.96484375 55.40869141 C-13.82443423 9.87459588 -13.82443423 9.87459588 0 0 Z " fill="#999DEF" transform="translate(688,368)"/>
<path d="" fill="#999DEF" transform="translate(0,0)"/>
<path d="" fill="#999DEF" transform="translate(0,0)"/>
</svg>
