<?xml version="1.0" encoding="UTF-8"?>
<svg version="1.1" xmlns="http://www.w3.org/2000/svg" width="965" height="140">
<path d="M0 0 C1.24910156 -0.020625 2.49820313 -0.04125 3.78515625 -0.0625 C4.98011719 -0.06765625 6.17507813 -0.0728125 7.40625 -0.078125 C8.50259766 -0.0874707 9.59894531 -0.09681641 10.72851562 -0.10644531 C13.5 0.25 13.5 0.25 15.14619446 1.28627014 C17.23592494 4.3174781 16.9392078 7.47025148 16.93237305 11.02612305 C16.94766052 12.21183899 16.94766052 12.21183899 16.96325684 13.42150879 C16.99345733 16.03498354 17.00266338 18.64809221 17.01171875 21.26171875 C17.02856024 23.07348353 17.04670976 24.88523659 17.06611633 26.69697571 C17.11368017 31.46611875 17.14344816 36.23521427 17.16955566 41.0045166 C17.19932904 45.8709451 17.2458704 50.73720975 17.29101562 55.60351562 C17.37712132 65.15225816 17.44443423 74.70103435 17.5 84.25 C19.975 83.755 19.975 83.755 22.5 83.25 C22.50808685 82.23966705 22.51617371 81.22933411 22.52450562 80.18838501 C22.60187945 70.68226504 22.68959623 61.17628974 22.78752708 51.67035866 C22.83754354 46.78287233 22.88387293 41.89540818 22.921875 37.0078125 C22.95866045 32.29392757 23.00500165 27.58022588 23.05806351 22.86649704 C23.07664342 21.06514057 23.09173798 19.26374477 23.10334396 17.46232986 C23.12014518 14.94556022 23.14916452 12.42921353 23.18115234 9.91259766 C23.18331253 9.16237839 23.18547272 8.41215912 23.18769836 7.63920593 C23.27189568 2.47810432 23.27189568 2.47810432 25.5 0.25 C28.27335427 0.05017975 30.94469643 -0.029792 33.71875 -0.015625 C34.53243042 -0.01753845 35.34611084 -0.0194519 36.18444824 -0.02142334 C37.906009 -0.02278527 39.62758003 -0.01908828 41.34912109 -0.01074219 C43.9894917 -0.00004258 46.62918189 -0.010637 49.26953125 -0.0234375 C50.94010567 -0.02211591 52.61067967 -0.01955352 54.28125 -0.015625 C55.47034973 -0.02169769 55.47034973 -0.02169769 56.68347168 -0.02789307 C62.27007973 0.02007973 62.27007973 0.02007973 64.5 2.25 C64.71735168 4.83785466 64.81138821 7.32198042 64.81884766 9.91259766 C64.82889328 10.70292892 64.8389389 11.49326019 64.84928894 12.30754089 C64.88024134 14.92637385 64.89718933 17.54510405 64.9140625 20.1640625 C64.93276447 21.97725313 64.95233715 23.79043498 64.9727478 25.60360718 C65.02417765 30.38096953 65.06374513 35.15836013 65.10089111 39.93585205 C65.14086291 44.80886892 65.19198629 49.68176717 65.2421875 54.5546875 C65.33907519 64.11970847 65.42343871 73.68479625 65.5 83.25 C67.15614657 83.63218767 68.82457024 83.96395102 70.5 84.25 C72.4698527 82.2801473 71.66420506 78.42669456 71.67358398 75.73266602 C71.6836145 74.55220703 71.6836145 74.55220703 71.69384766 73.34790039 C71.70793044 71.6334598 71.71981412 69.91900009 71.72979546 68.20453072 C71.74615092 65.49443249 71.76938561 62.78447611 71.79469299 60.07444763 C71.86562422 52.36733008 71.92565857 44.66015457 71.97680664 36.95288086 C72.0085374 32.24434236 72.04979801 27.53596608 72.09700203 22.82755852 C72.11305842 21.02899014 72.12536308 19.23038434 72.13390923 17.4317646 C72.14601643 14.91991766 72.1701461 12.40845449 72.19702148 9.89672852 C72.19761063 9.14808029 72.19819977 8.39943207 72.19880676 7.62809753 C72.27210438 2.47789562 72.27210438 2.47789562 74.5 0.25 C79.02242807 -0.24201768 83.57891792 -0.12043107 88.125 -0.125 C89.38441406 -0.14949219 90.64382813 -0.17398438 91.94140625 -0.19921875 C99.76074674 -0.22383367 106.08800929 0.01922624 112.00976562 5.69775391 C115.66436762 9.85296841 117.74436763 13.35680004 117.76742554 18.89117432 C117.78022049 20.28303703 117.78022049 20.28303703 117.79327393 21.70301819 C117.79191437 23.21949196 117.79191437 23.21949196 117.79052734 24.76660156 C117.79724457 25.83698166 117.80396179 26.90736176 117.81088257 28.01017761 C117.82990168 31.55370714 117.83378901 35.09704759 117.8359375 38.640625 C117.84236355 41.10439126 117.84909176 43.56815674 117.85610962 46.03192139 C117.86809279 51.20017261 117.87178945 56.36835695 117.87060547 61.53662109 C117.87040242 68.15205447 117.897686 74.76705759 117.93214989 81.38238907 C117.95441436 86.47312378 117.95844311 91.56375497 117.95738602 96.65453339 C117.95974336 99.09292837 117.96857433 101.53132615 117.98405075 103.96967316 C118.00369715 107.38535947 117.99787669 110.80011832 117.98583984 114.21582031 C117.99707886 115.2187059 118.00831787 116.22159149 118.01989746 117.25486755 C117.95589473 124.42029203 116.61411606 130.1000208 111.46484375 135.30859375 C110.46130859 135.99115234 110.46130859 135.99115234 109.4375 136.6875 C108.76589844 137.16058594 108.09429688 137.63367188 107.40234375 138.12109375 C104.32577547 139.94681907 101.74838678 140.38110111 98.24731445 140.42700195 C97.39244949 140.43983719 96.53758453 140.45267242 95.65681458 140.46589661 C94.73494858 140.47328354 93.81308258 140.48067047 92.86328125 140.48828125 C91.9098735 140.496353 90.95646576 140.50442474 89.97416687 140.51274109 C87.95423191 140.52657449 85.93427365 140.53729998 83.91430664 140.54516602 C80.84150166 140.56233793 77.76978424 140.6062261 74.69726562 140.65039062 C72.73177872 140.66052164 70.76628269 140.66903646 68.80078125 140.67578125 C67.88903641 140.69328934 66.97729156 140.71079742 66.03791809 140.72883606 C60.0292045 140.70864495 55.51943251 139.65334311 50.5 136.25 C49.4171875 135.1053125 49.4171875 135.1053125 48.3125 133.9375 C46.63722299 132.01696882 46.63722299 132.01696882 44.25 132.125 C40.8154479 133.53004404 38.24029209 135.54968578 35.3671875 137.875 C32.40152307 140.05892025 29.81623796 140.38021154 26.24731445 140.42700195 C25.39244949 140.43983719 24.53758453 140.45267242 23.65681458 140.46589661 C22.73494858 140.47328354 21.81308258 140.48067047 20.86328125 140.48828125 C19.9098735 140.496353 18.95646576 140.50442474 17.97416687 140.51274109 C15.95423191 140.52657449 13.93427365 140.53729998 11.91430664 140.54516602 C8.84150166 140.56233793 5.76978424 140.6062261 2.69726562 140.65039062 C0.73177872 140.66052164 -1.23371731 140.66903646 -3.19921875 140.67578125 C-4.11096359 140.69328934 -5.02270844 140.71079742 -5.96208191 140.72883606 C-12.92294632 140.70544544 -18.2024329 139.09558396 -23.5234375 134.50390625 C-23.96945312 133.94574219 -24.41546875 133.38757813 -24.875 132.8125 C-25.33648437 132.25691406 -25.79796875 131.70132813 -26.2734375 131.12890625 C-29.91122322 125.55637462 -29.8019986 120.38609288 -29.80639648 113.92700195 C-29.81472 112.88894913 -29.82304352 111.8508963 -29.83161926 110.78138733 C-29.85570952 107.35031375 -29.86449119 103.91943043 -29.87109375 100.48828125 C-29.88006224 98.09799646 -29.88918413 95.70771224 -29.89845276 93.31742859 C-29.91494368 88.30478553 -29.92264283 83.29220926 -29.92553711 78.27954102 C-29.93091466 71.87162625 -29.96856937 65.46434373 -30.01428127 59.05660725 C-30.04409907 54.11762734 -30.05126174 49.17879863 -30.05226326 44.23973656 C-30.0564577 41.87833962 -30.06886059 39.51694191 -30.08978081 37.15563393 C-30.11678585 33.84328085 -30.11184108 30.53237948 -30.09936523 27.2199707 C-30.11419952 26.25389893 -30.12903381 25.28782715 -30.14431763 24.29248047 C-30.07111541 17.43046142 -28.47974449 11.91656855 -24.5 6.25 C-16.84130875 -0.09006601 -9.60395194 0.0396448 0 0 Z M-12.3125 16.4375 C-13.86678206 18.80982525 -13.72537188 20.47041345 -13.5 23.25 C-12.35073734 22.29578192 -11.20569459 21.33647955 -10.0625 20.375 C-9.42441406 19.84132813 -8.78632813 19.30765625 -8.12890625 18.7578125 C-6.39194996 17.3277243 -6.39194996 17.3277243 -5.5 15.25 C-9.10988065 14.95392303 -9.10988065 14.95392303 -12.3125 16.4375 Z M93.5 15.25 C94.42652701 16.42539996 95.36663387 17.59010577 96.3125 18.75 C96.83457031 19.3996875 97.35664062 20.049375 97.89453125 20.71875 C99.49204833 22.59509128 99.49204833 22.59509128 102.5 22.25 C101.92547254 18.31924356 101.92547254 18.31924356 99.5 15.25 C96.41652174 15.08318891 96.41652174 15.08318891 93.5 15.25 Z M-7.0625 21.25 C-7.70316406 21.806875 -8.34382812 22.36375 -9.00390625 22.9375 C-9.49761719 23.370625 -9.99132812 23.80375 -10.5 24.25 C-10.17 24.91 -9.84 25.57 -9.5 26.25 C-5.56924356 25.67547254 -5.56924356 25.67547254 -2.5 23.25 C-2.33312552 20.66645782 -2.33312552 20.66645782 -2.5 18.25 C-4.37824891 18.25 -5.71518837 20.07416439 -7.0625 21.25 Z M90.5 18.25 C90.76656572 21.18443402 90.76656572 21.18443402 91.5 24.25 C94.45377498 26.61980013 94.45377498 26.61980013 98.5 26.25 C97.05922954 22.88820226 95.25249979 20.65843732 92.5 18.25 C91.84 18.25 91.18 18.25 90.5 18.25 Z M-9.5 114.25 C-9.5 115.24 -9.5 116.23 -9.5 117.25 C-6.41280986 120.5530197 -6.41280986 120.5530197 -2.5 122.25 C-2.16574265 119.87625139 -2.16574265 119.87625139 -2.5 117.25 C-4.23038072 115.34798258 -4.23038072 115.34798258 -6.5 114.25 C-7.49 114.25 -8.48 114.25 -9.5 114.25 Z M92.25 116 C90.09070626 118.30116172 90.09070626 118.30116172 90.5 122.25 C93.86179774 120.80922954 96.09156268 119.00249979 98.5 116.25 C98.5 115.59 98.5 114.93 98.5 114.25 C94.55116172 113.84070626 94.55116172 113.84070626 92.25 116 Z M-13.5 118.25 C-13.17 120.23 -12.84 122.21 -12.5 124.25 C-10.19 124.58 -7.88 124.91 -5.5 125.25 C-6.45117134 124.0774869 -7.41117009 122.91212985 -8.375 121.75 C-8.90867187 121.1003125 -9.44234375 120.450625 -9.9921875 119.78125 C-10.48976563 119.2759375 -10.98734375 118.770625 -11.5 118.25 C-12.16 118.25 -12.82 118.25 -13.5 118.25 Z M96.875 121.1875 C95.92753906 122.00541016 95.92753906 122.00541016 94.9609375 122.83984375 C94.47882813 123.30519531 93.99671875 123.77054687 93.5 124.25 C93.5 124.58 93.5 124.91 93.5 125.25 C96.37413125 125.58397787 96.37413125 125.58397787 99.5 125.25 C101.47098426 123.5390789 101.47098426 123.5390789 102.5 121.25 C102.5 120.26 102.5 119.27 102.5 118.25 C99.74437459 118.25 98.92380716 119.39584765 96.875 121.1875 Z " fill="#000000" transform="translate(520.5,-0.25)"/>
<path d="M0 0 C0.97617279 -0.01825333 1.95234558 -0.03650665 2.95809937 -0.05531311 C6.19030389 -0.1086607 9.42171133 -0.13103576 12.65429688 -0.14868164 C14.90669903 -0.1691594 17.15909973 -0.18979668 19.41149902 -0.21058655 C24.13928973 -0.24810578 28.86680247 -0.26748076 33.59472656 -0.27734375 C39.63027214 -0.29365166 45.66266758 -0.37923752 51.69727325 -0.48203182 C56.35418567 -0.54931619 61.01035233 -0.56668565 65.66770935 -0.57074165 C67.8908215 -0.58095255 70.11393169 -0.6092854 72.33656311 -0.65662956 C91.52855156 -1.03458203 91.52855156 -1.03458203 98.09804535 4.50253201 C100.37907626 6.73646977 102.39610274 9.12458752 104.37304688 11.62866211 C104.94865356 12.18107071 105.52426025 12.73347931 106.11730957 13.30262756 C108.25300032 15.5578761 108.2286971 17.85365694 108.49804688 20.87866211 C108.01568713 28.44128203 105.6139321 33.05007413 100.45756531 38.56051636 C88.67694349 48.68552711 68.95856394 45.30819669 54.49127197 44.83349609 C50.73320594 44.72656424 46.97582338 44.68792981 43.2165041 44.65223885 C38.72267419 44.60792166 34.22958308 44.53239789 29.73632812 44.44897461 C28.45766089 44.42687613 28.45766089 44.42687613 27.153162 44.40433121 C24.74557474 44.35547001 22.33965981 44.28529684 19.93286133 44.20727539 C19.22274902 44.19449554 18.51263672 44.1817157 17.78100586 44.16854858 C13.62828503 44.00545338 11.51537787 43.2986151 8.37304688 40.62866211 C5.23264747 40.45755762 5.23264747 40.45755762 2.37304688 41.62866211 C0.70913939 43.87174768 0.70913939 43.87174768 0.37304688 46.62866211 C0.70638021 48.96199544 0.70638021 48.96199544 2.37304688 50.62866211 C5.28971354 51.62866211 5.28971354 51.62866211 8.37304688 51.62866211 C9.36304688 50.96866211 10.35304688 50.30866211 11.37304688 49.62866211 C14.21682739 49.32759094 14.21682739 49.32759094 17.72119141 49.25878906 C19.03330597 49.2298909 20.34542053 49.20099274 21.69729614 49.17121887 C23.13346326 49.15155804 24.56965319 49.13350683 26.00585938 49.11694336 C26.73105648 49.10754416 27.45625359 49.09814495 28.20342636 49.08846092 C32.04574706 49.04089312 35.88793148 49.00721595 39.73046875 48.98339844 C43.68230218 48.95576182 47.63134304 48.87666855 51.58215523 48.78585529 C54.63473219 48.72576543 57.68665798 48.70610501 60.7397728 48.69688988 C62.19506806 48.68536783 63.65033159 48.65868169 65.10504532 48.61596107 C76.45508892 48.30254078 76.45508892 48.30254078 81.19549561 51.58016968 C83.44291136 53.82493174 85.39667687 56.14655506 87.37304688 58.62866211 C88.61816015 59.76175271 89.88529285 60.87179741 91.18554688 61.94116211 C91.82806396 62.51181396 92.47058105 63.08246582 93.13256836 63.67041016 C94.83462133 65.15806047 96.58258352 66.59337496 98.34985352 68.00292969 C103.73495814 72.54865924 107.85482783 76.58839892 108.87330627 83.7858429 C109.15563989 87.54118241 109.13211516 91.24239026 108.99804688 95.00366211 C108.98797607 95.78213501 108.97790527 96.56060791 108.9675293 97.3626709 C108.8217386 105.6203072 108.53136166 113.2885275 102.74389648 119.71679688 C100.31773994 121.87193815 97.82956781 123.77062064 95.09521484 125.51782227 C92.82786908 126.98031493 90.90920149 128.73320367 88.93554688 130.56616211 C88.35858566 131.03445938 87.78162445 131.50275665 87.18717957 131.98524475 C85.3327079 133.52967873 85.3327079 133.52967873 84.18232727 135.42259216 C82.11442203 138.32002352 80.08606416 140.23990324 76.5257225 141.04790115 C70.64221815 141.78107682 64.70999317 141.68584429 58.79101562 141.66381836 C56.85198395 141.67616587 54.91296204 141.69014355 52.97395325 141.70567322 C48.91449262 141.72949268 44.85610016 141.72655824 40.79663086 141.70605469 C35.61384973 141.68300115 30.4351619 141.73699415 25.25300121 141.81266117 C21.24884204 141.86066521 17.2456549 141.86192354 13.24126625 141.8500042 C11.33198247 141.85087308 9.42263626 141.86724923 7.51363182 141.89991951 C-7.36183136 142.12146837 -7.36183136 142.12146837 -12.94955444 138.43893433 C-15.43649312 135.95963045 -17.51792739 133.42877478 -19.62695312 130.62866211 C-20.88528112 129.4664924 -22.17664154 128.3388243 -23.50195312 127.25366211 C-24.13575897 126.69053314 -24.76956482 126.12740417 -25.4225769 125.54721069 C-27.10480605 124.08310565 -28.83782326 122.67715107 -30.59133911 121.29922485 C-36.09204165 116.71005372 -40.11811351 112.61822033 -41.10391045 105.31004906 C-41.40755517 101.25168788 -41.45417738 97.22024652 -41.43164062 93.15209961 C-41.45503564 91.37387579 -41.48105841 89.59568483 -41.509552 87.8175354 C-41.5540953 84.10324212 -41.55277186 80.39237084 -41.52099609 76.67797852 C-41.49320144 72.90148164 -41.53455394 69.13657079 -41.64404297 65.36157227 C-42.63760213 30.85798522 -42.63760213 30.85798522 -33.44363403 20.71255493 C-30.42550296 17.94434221 -27.32446424 15.49887816 -23.92877197 13.21148682 C-19.56741671 10.2124407 -15.18678927 6.70710289 -11.99966431 2.46034241 C-8.28039055 -0.41085427 -4.5779549 0.01442396 0 0 Z M1.62304688 91.12866211 C0.88054688 91.95366211 0.13804687 92.77866211 -0.62695312 93.62866211 C0.64251202 98.45308395 0.64251202 98.45308395 4.37304688 101.62866211 C8.8815487 101.28420613 8.8815487 101.28420613 12.37304688 98.62866211 C14.29501343 98.3679657 14.29501343 98.3679657 16.66748047 98.35400391 C17.55535248 98.34447189 18.44322449 98.33493988 19.35800171 98.32511902 C20.31945099 98.32603043 21.28090027 98.32694183 22.27148438 98.32788086 C23.25798981 98.32359573 24.24449524 98.31931061 25.26089478 98.31489563 C27.35067985 98.30914522 29.44048494 98.30865728 31.53027344 98.31298828 C34.7282128 98.31614255 37.92522238 98.29271746 41.12304688 98.26733398 C43.15169154 98.26506051 45.1803387 98.26435772 47.20898438 98.26538086 C48.16638519 98.25617111 49.12378601 98.24696136 50.11019897 98.23747253 C51.00437531 98.24370132 51.89855164 98.24993011 52.81982422 98.25634766 C53.60432953 98.25571823 54.38883484 98.25508881 55.19711304 98.25444031 C57.90241279 98.7197036 59.22636576 99.9705783 61.37304688 101.62866211 C64.89188223 101.55684914 66.67919305 101.25536879 69.31054688 98.87866211 C70.57583668 96.65622979 70.57583668 96.65622979 70.24804688 94.06616211 C69.06726139 90.73488706 69.06726139 90.73488706 66.37304688 88.62866211 C62.02795471 88.67932831 62.02795471 88.67932831 58.37304688 90.62866211 C56.91578469 90.73206785 55.4535865 90.76716503 53.99267578 90.77392578 C52.59585068 90.78349556 52.59585068 90.78349556 51.17080688 90.79325867 C50.15731171 90.79437149 49.14381653 90.79548431 48.09960938 90.79663086 C47.06492523 90.79995926 46.03024109 90.80328766 44.96420288 90.80671692 C42.7700851 90.81179116 40.57595958 90.81412509 38.38183594 90.81396484 C35.01940198 90.81614824 31.65729757 90.83429033 28.29492188 90.85327148 C26.16731884 90.85620587 24.03971423 90.85819037 21.91210938 90.85913086 C20.90266266 90.86631638 19.89321594 90.87350189 18.85317993 90.88090515 C17.91565887 90.87782852 16.97813782 90.87475189 16.01220703 90.87158203 C14.77429916 90.87371956 14.77429916 90.87371956 13.51138306 90.87590027 C11.37304688 90.62866211 11.37304688 90.62866211 8.37304688 88.62866211 C4.24692073 88.18021358 4.24692073 88.18021358 1.62304688 91.12866211 Z " fill="#000000" transform="translate(857.626953125,-0.628662109375)"/>
<path d="M0 0 C3.96 0 7.92 0 12 0 C21.48377144 22.74183258 30.96633446 45.484182 40.40823364 68.24343872 C41.12959841 69.98219499 41.85117252 71.72086443 42.57296753 73.45944214 C44.7221613 78.63681971 46.86478605 83.81684236 49 89 C49.44601563 90.07926758 49.89203125 91.15853516 50.3515625 92.27050781 C50.72023437 93.17381836 51.08890625 94.07712891 51.46875 95.0078125 C51.77232422 95.74918457 52.07589844 96.49055664 52.38867188 97.25439453 C53 99 53 99 53 101 C53.66 101 54.32 101 55 101 C56.24984732 93.81663876 55.89125083 88.94403026 52.90625 82.3203125 C52.5679718 81.5215419 52.2296936 80.7227713 51.88116455 79.89979553 C50.77436944 77.29897124 49.63747111 74.71253539 48.5 72.125 C47.72204299 70.31126226 46.94635574 68.49654941 46.17285156 66.6809082 C44.58275876 62.95465935 42.98200594 59.23327636 41.37304688 55.51513672 C38.07329019 47.87190837 34.88983305 40.18080529 31.7043457 32.48944092 C30.48333845 29.54429583 29.25666652 26.60153516 28.02880859 23.65924072 C27.46733541 22.31358467 26.90644152 20.96768672 26.34619141 19.621521 C25.06475269 16.54335448 23.77464336 13.46963481 22.47070312 10.40087891 C22.01115234 9.31597168 21.55160156 8.23106445 21.078125 7.11328125 C20.6749707 6.16880127 20.27181641 5.22432129 19.85644531 4.2512207 C19 2 19 2 19 0 C22.96 0 26.92 0 31 0 C38.93765168 18.33765773 46.6669772 36.75540033 54.29858398 55.22241211 C54.65435516 56.08315338 55.01012634 56.94389465 55.37667847 57.83071899 C56.04324641 59.44400434 56.70931949 61.05749429 57.37478638 62.67123413 C59.21566041 67.12939649 61.09013253 71.57093509 63 76 C64.68864588 74.36290685 64.68864588 74.36290685 66 72 C65.62061803 66.50938402 63.42216101 61.77535173 61.28125 56.78125 C60.71976761 55.4497139 60.71976761 55.4497139 60.14694214 54.09127808 C58.937023 51.22505792 57.71845491 48.36260044 56.5 45.5 C55.67322492 43.54410616 54.84721597 41.58788829 54.02197266 39.63134766 C52.80115981 36.73714874 51.57996017 33.84312286 50.35635376 30.95010376 C47.32160697 23.77491751 44.32302867 16.58633167 41.375 9.375 C41.01599609 8.50166016 40.65699219 7.62832031 40.28710938 6.72851562 C38 1.1258021 38 1.1258021 38 0 C41.96 0 45.92 0 50 0 C53.18230762 6.16175898 55.9205433 12.4274592 58.546875 18.84375 C58.96294006 19.85344849 59.37900513 20.86314697 59.80767822 21.90344238 C61.12460143 25.10114474 62.43736248 28.30053635 63.75 31.5 C64.64686009 33.6798008 65.54399274 35.85948948 66.44140625 38.0390625 C68.63075846 43.35808219 70.81670397 48.67849178 73 54 C80.72308115 36.02354722 88.39416356 18.02643125 96 0 C99.96 0 103.92 0 108 0 C108 46.2 108 92.4 108 140 C104.04 140 100.08 140 96 140 C95.67 135.38 95.34 130.76 95 126 C93.02 130.62 91.04 135.24 89 140 C85.04 140 81.08 140 77 140 C78.89508802 134.08315032 81.02419469 128.43388713 83.57421875 122.7734375 C84.24949162 121.23110049 84.92327299 119.68810976 85.59570312 118.14453125 C86.63572324 115.76252606 87.68283253 113.38529467 88.75610352 111.01806641 C93.59498773 100.30889566 96.15493819 91.83893905 95 80 C92.72250117 85.3291611 90.44810825 90.65963445 88.17626953 95.99121094 C87.40721172 97.79493722 86.63738684 99.59833668 85.86669922 101.40136719 C80.39758881 114.19837064 75.11444549 127.05710832 70 140 C66.04 140 62.08 140 58 140 C58.86136951 135.69315244 60.0804904 132.0710688 61.78125 128.078125 C62.06679245 127.39706696 62.3523349 126.71600891 62.64653015 126.01431274 C63.26763495 124.53438036 63.89086049 123.05533662 64.51596069 121.5770874 C65.51382306 119.2173108 66.50632127 116.8553447 67.49731445 114.49267578 C68.55053953 111.9817468 69.60409082 109.47096036 70.65925598 106.96084595 C74.49167575 97.84254499 78.28364421 88.70756792 82.0703125 79.57019043 C83.51453552 76.08603395 84.96070299 72.6026867 86.40786743 69.11975098 C87.07268495 67.51377648 87.73389798 65.90630432 88.39120483 64.29724121 C89.65582113 61.20352289 90.92870324 58.1487778 92.37353516 55.13378906 C95.76618437 47.90267602 95.37610434 40.83550709 95 33 C94.28074042 34.73468487 93.56148133 36.46936994 92.84222412 38.20405579 C92.18642929 39.78567311 91.53062658 41.36728715 90.87481689 42.94889832 C89.00384714 47.46113707 87.13302519 51.97343702 85.26245117 56.48583984 C81.66188887 65.17110584 78.06057507 73.85605421 74.45387268 82.53877258 C72.93669303 86.19134882 71.42021356 89.84421558 69.90377808 93.49710083 C69.18596595 95.22565923 68.46781547 96.95407716 67.7492981 98.68234253 C63.42189737 109.09153688 59.15482771 119.52056864 55 130 C54.34 130 53.68 130 53 130 C52.34 128.35 51.68 126.7 51 125 C50.67 129.95 50.34 134.9 50 140 C46.04 140 42.08 140 38 140 C37.99589111 138.6087793 37.99178223 137.21755859 37.98754883 135.78417969 C37.96561171 130.57287641 37.91117187 125.3623126 37.84741211 120.15136719 C37.82435863 117.90534608 37.80986642 115.65921881 37.80444336 113.41308594 C37.79506102 110.16535234 37.75386763 106.91925975 37.70703125 103.671875 C37.7109639 102.68386902 37.71489655 101.69586304 37.71894836 100.67791748 C37.54529477 92.19030329 35.59342568 88.62422163 32 80 C31.67 99.8 31.34 119.6 31 140 C27.04 140 23.08 140 19 140 C19.00079559 138.85567001 19.00159119 137.71134003 19.00241089 136.53233337 C19.00603013 125.69099759 18.97796124 114.85013318 18.9197216 104.00894833 C18.8907827 98.43676132 18.87259209 92.86499133 18.87988281 87.29272461 C18.88652232 81.90424201 18.86372987 76.5165801 18.82144547 71.12826729 C18.81039605 69.08366382 18.80953936 67.03897629 18.81957626 64.9943676 C18.8319254 62.1059571 18.80635499 59.21998571 18.77294922 56.33178711 C18.78517014 55.50674683 18.79739105 54.68170654 18.8099823 53.83166504 C18.62541721 44.84219061 15.72522586 40.31306465 12 31 C11.67 66.97 11.34 102.94 11 140 C7.37 140 3.74 140 0 140 C0 93.8 0 47.6 0 0 Z " fill="#000000" transform="translate(0,0)"/>
<path d="M0 0 C0.76030014 -0.00004028 1.52060028 -0.00008057 2.30393982 -0.00012207 C3.9051036 0.00522114 5.50626777 0.0227529 7.10717773 0.05175781 C9.55469003 0.09368313 11.99945405 0.09281821 14.44726562 0.0859375 C16.00652949 0.09642876 17.56577921 0.10936654 19.125 0.125 C19.85425186 0.12520142 20.58350372 0.12540283 21.33485413 0.12561035 C24.37724952 0.19635592 26.68751212 0.4391956 29.42553711 1.81054688 C31.36789381 4.01589016 31.51589399 5.73942875 31.99609375 8.59375 C32.82579681 8.58930878 33.65549988 8.58486755 34.51034546 8.58029175 C42.36563847 8.54006055 50.22089641 8.50968752 58.07626915 8.49012566 C62.11387944 8.47973033 66.15140392 8.46564971 70.18896484 8.44287109 C74.09229998 8.42098991 77.99555307 8.40914948 81.89894485 8.40399551 C83.38113317 8.40032697 84.86331747 8.39316399 86.34547043 8.38228989 C99.15393017 8.29213604 110.05945699 8.4380273 119.94140625 17.34765625 C124.58484588 22.15623913 127.18806929 26.92305919 127.99609375 33.59375 C127.90537528 37.41629643 127.61327149 41.17482443 127.24609375 44.98046875 C127.02710777 48.14550048 127.14982695 50.78901648 127.62109375 53.90625 C128.46673724 60.60463663 126.45260223 66.68546403 122.87109375 72.34375 C117.7549975 78.84257497 110.99708501 82.09519902 102.99609375 83.59375 C100.06927802 83.8509661 97.1652921 83.8648055 94.22851562 83.84912109 C93.39163712 83.85274155 92.55475861 83.856362 91.69252014 83.86009216 C89.88926782 83.86694486 88.08599494 83.86949941 86.2827301 83.86814499 C83.42333126 83.86717339 80.5643018 83.88019557 77.70495605 83.89712524 C69.58018804 83.94321319 61.45546083 83.96800469 53.33056641 83.97460938 C48.34801622 83.97963465 43.36585601 84.00392996 38.38343811 84.03993607 C36.49213506 84.04970445 34.6007782 84.05208225 32.7094574 84.04676437 C30.06044001 84.03966266 27.41258 84.05703733 24.76367188 84.07958984 C23.99148819 84.07141739 23.2193045 84.06324493 22.42372131 84.05482483 C16.28576142 84.14731782 10.84462863 85.76949437 6.39362335 90.18256187 C5.1988068 91.60279302 4.0877257 93.09275606 2.99609375 94.59375 C6.16522829 100.7879675 10.42685049 103.42972154 16.99609375 105.59375 C22.57721155 106.31110269 28.10297717 106.31718182 33.72265625 106.30078125 C35.32264063 106.31391901 36.9226085 106.32922955 38.52255249 106.34660339 C42.70152653 106.38622409 46.88006445 106.39662888 51.0592041 106.40063477 C55.33647704 106.41000983 59.61349832 106.44745036 63.890625 106.48242188 C72.25911956 106.54676373 80.62736343 106.58019534 88.99609375 106.59375 C89.28109741 105.64195358 89.56610107 104.69015717 89.85974121 103.70951843 C90.99609375 100.59375 90.99609375 100.59375 93.17773438 98.74145508 C96.64987186 97.32751551 99.34212006 97.22146448 103.08984375 97.23046875 C104.09356018 97.22972099 104.09356018 97.22972099 105.11755371 97.22895813 C106.5261534 97.23128882 107.93475804 97.24095789 109.34326172 97.25756836 C111.48963982 97.28117901 113.63477476 97.27811992 115.78125 97.27148438 C127.75179209 97.32008482 127.75179209 97.32008482 131.99609375 99.59375 C134.37794157 103.16652174 134.33509948 105.79705231 134.3671875 109.9296875 C134.37621597 110.64605377 134.38524445 111.36242004 134.39454651 112.10049438 C134.40904236 113.61513088 134.41793411 115.1298299 134.42163086 116.64453125 C134.4335189 118.95420683 134.4826944 121.26120152 134.53320312 123.5703125 C134.54266909 125.04425783 134.5499033 126.51821953 134.5546875 127.9921875 C134.58398598 129.02211319 134.58398598 129.02211319 134.61387634 130.07284546 C134.58003043 133.69606896 134.03742951 135.53406263 131.96142578 138.53173828 C128.25803091 141.10697895 125.34859411 141.28571469 120.9921875 141.1875 C120.23188736 141.18754028 119.47158722 141.18758057 118.68824768 141.18762207 C117.0870839 141.18227886 115.48591973 141.1647471 113.88500977 141.13574219 C111.43749747 141.09381687 108.99273345 141.09468179 106.54492188 141.1015625 C104.98565801 141.09107124 103.42640829 141.07813346 101.8671875 141.0625 C101.13793564 141.06229858 100.40868378 141.06209717 99.65733337 141.06188965 C96.61493798 140.99114408 94.30467538 140.7483044 91.56665039 139.37695312 C89.62429369 137.17160984 89.47629351 135.44807125 88.99609375 132.59375 C88.151642 132.59819122 87.30719025 132.60263245 86.43714905 132.60720825 C78.4490989 132.64741008 70.46108311 132.67779774 62.47295475 132.69737434 C58.36693542 132.70777745 54.26100022 132.72187263 50.1550293 132.74462891 C46.18686034 132.7664819 42.21877193 132.7783447 38.25054741 132.78350449 C36.74241304 132.78717801 35.23428269 132.79435103 33.72618294 132.80521011 C21.34268581 132.8907692 10.33927918 132.73456418 1.01171875 123.6640625 C-5.01783529 117.06145167 -6.7322589 111.46756356 -7.00390625 102.59375 C-6.80623687 100.05893091 -6.50670252 97.55334398 -6.1875 95.03125 C-6.00216739 92.57066388 -6.19875191 90.4653753 -6.56640625 88.03125 C-7.39434442 81.86528944 -6.20912298 76.75482828 -3.19140625 71.34375 C2.69514672 63.94351197 8.57474238 59.29805202 17.99609375 57.59375 C20.88736939 57.34005604 23.75490993 57.32266277 26.65600586 57.33837891 C27.89428383 57.33294823 27.89428383 57.33294823 29.15757751 57.32740784 C30.93627257 57.32055573 32.71498847 57.31800048 34.49369621 57.31935501 C37.31556588 57.32032701 40.13706166 57.30729923 42.95887756 57.29037476 C50.97703197 57.24430241 58.99514532 57.21950118 67.01342773 57.21289062 C71.93114588 57.20786045 76.84846982 57.18353931 81.76605415 57.14756393 C83.63141062 57.13780584 85.49682157 57.13541206 87.36219597 57.14073563 C102.08557488 57.67976431 102.08557488 57.67976431 114.62364197 51.0050354 C116.21436185 49.2185434 116.21436185 49.2185434 117.99609375 46.59375 C114.82695921 40.3995325 110.56533701 37.75777846 103.99609375 35.59375 C98.41497595 34.87639731 92.88921033 34.87031818 87.26953125 34.88671875 C85.66954687 34.87358099 84.069579 34.85827045 82.46963501 34.84089661 C78.29066097 34.80127591 74.11212305 34.79087112 69.9329834 34.78686523 C65.65571046 34.77749017 61.37868918 34.74004964 57.1015625 34.70507812 C48.73306794 34.64073627 40.36482407 34.60730466 31.99609375 34.59375 C31.79113281 35.77710937 31.79113281 35.77710937 31.58203125 36.984375 C30.93111629 39.88311628 30.31661508 40.80873359 27.99609375 42.59375 C22.80486848 44.32415842 17.23467971 43.77966782 11.79980469 43.77905273 C9.63586642 43.7812351 7.47244159 43.79939122 5.30859375 43.81835938 C3.92578299 43.82129445 2.54296981 43.82327848 1.16015625 43.82421875 C-0.72002197 43.83038208 -0.72002197 43.83038208 -2.63818359 43.83666992 C-5.93140099 43.59898304 -8.10950377 43.15324808 -11.00390625 41.59375 C-13.38575407 38.02097826 -13.34291198 35.39044769 -13.375 31.2578125 C-13.38402847 30.54144623 -13.39305695 29.82507996 -13.40235901 29.08700562 C-13.41685486 27.57236912 -13.42574661 26.0576701 -13.42944336 24.54296875 C-13.4413314 22.23329317 -13.4905069 19.92629848 -13.54101562 17.6171875 C-13.55048159 16.14324217 -13.5577158 14.66928047 -13.5625 13.1953125 C-13.58203232 12.50869537 -13.60156464 11.82207825 -13.62168884 11.11465454 C-13.58784293 7.49143104 -13.04524201 5.65343737 -10.96923828 2.65576172 C-7.26584341 0.08052105 -4.35640661 -0.09821469 0 0 Z M31.99609375 14.59375 C31.99609375 19.21375 31.99609375 23.83375 31.99609375 28.59375 C34.1551123 28.6030957 36.31413086 28.61244141 38.53857422 28.62207031 C45.70322904 28.65596504 52.86759962 28.71158271 60.03202629 28.77765274 C64.37227682 28.81702063 68.71232772 28.84926112 73.05273438 28.86474609 C77.24809951 28.87998364 81.44291541 28.91455325 85.63803482 28.96205902 C87.23180469 28.97680012 88.825653 28.98478681 90.41949081 28.98563385 C102.16474043 28.99814394 111.34615399 30.48326807 120.99609375 37.59375 C121.65953171 31.22474563 119.98775288 27.55466317 115.99609375 22.59375 C110.2272229 16.75110843 104.83017047 14.76974371 96.69302368 14.47349548 C95.49833466 14.47571609 94.30364563 14.47793671 93.07275391 14.48022461 C92.07657547 14.48000557 92.07657547 14.48000557 91.06027222 14.4797821 C88.88519926 14.48047366 86.71021407 14.48823027 84.53515625 14.49609375 C83.01915534 14.49796062 81.50315383 14.49938325 79.9871521 14.50038147 C76.01204744 14.50418544 72.03697977 14.51399747 68.06188965 14.52508545 C63.99959819 14.5353453 59.93730071 14.53988886 55.875 14.54492188 C47.91534578 14.55562178 39.95572864 14.57320126 31.99609375 14.59375 Z M114.296875 59.0859375 C108.98655728 62.56604385 103.66213716 62.88530969 97.47143555 62.86499023 C96.63645538 62.87021698 95.80147522 62.87544373 94.94119263 62.88082886 C93.13573259 62.89103587 91.3302434 62.89684348 89.52475548 62.89871025 C86.6610442 62.90238776 83.79767496 62.91915305 80.93403625 62.93946838 C72.7947121 62.99474268 64.65533788 63.02551875 56.51586914 63.05004883 C51.52918707 63.06597982 46.54274807 63.09625683 41.5561924 63.13481331 C39.6629273 63.14641456 37.76961862 63.15239323 35.87631798 63.15249443 C33.22026781 63.15268787 30.56488181 63.17105477 27.90893555 63.19311523 C26.7513398 63.18624947 26.7513398 63.18624947 25.57035828 63.179245 C17.91609584 63.27961709 10.53947876 65.05036499 4.99609375 70.59375 C0.89465622 76.17626219 -0.13400658 79.69843225 -0.00390625 86.59375 C0.57617188 86.18382813 1.15625 85.77390625 1.75390625 85.3515625 C2.53507813 84.81273438 3.31625 84.27390625 4.12109375 83.71875 C4.88679687 83.18507813 5.6525 82.65140625 6.44140625 82.1015625 C11.99192005 78.82557117 17.18524984 78.30171504 23.52075195 78.32250977 C24.35573212 78.31728302 25.19071228 78.31205627 26.05099487 78.30667114 C27.85645491 78.29646413 29.6619441 78.29065652 31.46743202 78.28878975 C34.3311433 78.28511224 37.19451254 78.26834695 40.05815125 78.24803162 C48.1974754 78.19275732 56.33684962 78.16198125 64.47631836 78.13745117 C69.46300043 78.12152018 74.44943943 78.09124317 79.4359951 78.05268669 C81.3292602 78.04108544 83.22256888 78.03510677 85.11586952 78.03500557 C87.77191969 78.03481213 90.42730569 78.01644523 93.08325195 77.99438477 C94.2408477 78.00125053 94.2408477 78.00125053 95.42182922 78.008255 C103.07609166 77.90788291 110.45270874 76.13713501 115.99609375 70.59375 C120.09753128 65.01123781 121.12619408 61.48906775 120.99609375 54.59375 C118.62666934 54.59375 116.07880115 57.65347648 114.296875 59.0859375 Z M-0.00390625 103.59375 C0.29981802 110.42754607 1.32391493 115.04955597 6.453125 120 C13.19561738 125.87194273 19.11426838 126.72364187 27.91943359 126.70727539 C28.91561203 126.70749443 28.91561203 126.70749443 29.93191528 126.7077179 C32.10698824 126.70702634 34.28197343 126.69926973 36.45703125 126.69140625 C37.97303216 126.68953938 39.48903367 126.68811675 41.0050354 126.68711853 C44.98014006 126.68331456 48.95520773 126.67350253 52.93029785 126.66241455 C56.99258931 126.6521547 61.05488679 126.64761114 65.1171875 126.64257812 C73.07684172 126.63187822 81.03645886 126.61429874 88.99609375 126.59375 C88.99609375 121.97375 88.99609375 117.35375 88.99609375 112.59375 C86.8370752 112.5844043 84.67805664 112.57505859 82.45361328 112.56542969 C75.28895846 112.53153496 68.12458788 112.47591729 60.96016121 112.40984726 C56.61991068 112.37047937 52.27985978 112.33823888 47.93945312 112.32275391 C43.74408799 112.30751636 39.54927209 112.27294675 35.35415268 112.22544098 C33.76038281 112.21069988 32.1665345 112.20271319 30.57269669 112.20186615 C18.82744707 112.18935606 9.64603351 110.70423193 -0.00390625 103.59375 Z " fill="#000000" transform="translate(667.00390625,-0.59375)"/>
<path d="M0 0 C0.78153946 -0.00761353 1.56307892 -0.01522705 2.36830139 -0.02307129 C4.01820691 -0.03385721 5.66818061 -0.0367315 7.31811523 -0.03222656 C9.83628721 -0.03125439 12.35140862 -0.0728829 14.86914062 -0.1171875 C16.47525409 -0.1223951 18.0813781 -0.12508268 19.6875 -0.125 C20.81115211 -0.1495929 20.81115211 -0.1495929 21.95750427 -0.17468262 C25.74984502 -0.1248008 27.75595144 0.3609976 30.88696289 2.54882812 C33.42828248 6.21652239 33.52844219 8.34247535 33.50390625 12.78125 C33.50394653 13.47259033 33.50398682 14.16393066 33.50402832 14.8762207 C33.49868781 16.33196141 33.48116738 17.78770282 33.45214844 19.24316406 C33.41027433 21.4624915 33.41108457 23.67878129 33.41796875 25.8984375 C33.32753627 38.12960317 33.32753627 38.12960317 29.91015625 42.46875 C26.74770084 43.5229018 24.04067407 43.78150672 20.72265625 44.03125 C19.63597656 44.11503906 18.54929688 44.19882812 17.4296875 44.28515625 C16.59824219 44.34574219 15.76679688 44.40632813 14.91015625 44.46875 C21.19923047 55.34514895 28.86401467 61.02946424 40.91015625 64.46875 C42.02583984 64.80712891 42.02583984 64.80712891 43.1640625 65.15234375 C59.93239237 69.38087911 79.69281927 67.00527978 94.56640625 58.1796875 C99.58366564 54.51708815 103.29754967 50.09397948 105.91015625 44.46875 C105.17410156 44.45457031 104.43804687 44.44039062 103.6796875 44.42578125 C102.70386719 44.37808594 101.72804688 44.33039062 100.72265625 44.28125 C99.75972656 44.24644531 98.79679687 44.21164063 97.8046875 44.17578125 C93.84222267 43.20789173 92.45061122 41.63827001 89.91015625 38.46875 C89.42175349 35.66322093 89.22873163 33.47763872 89.28125 30.68359375 C89.27883804 29.94548965 89.27642609 29.20738556 89.27394104 28.44691467 C89.27491699 26.89285893 89.28825083 25.33876735 89.31323242 23.78491211 C89.34761005 21.40944256 89.33386662 19.03768278 89.31445312 16.66210938 C89.3213505 15.14842171 89.33102191 13.63474361 89.34375 12.12109375 C89.3363102 11.06002663 89.3363102 11.06002663 89.32872009 9.9775238 C89.40413814 6.81406634 89.74823188 4.73026791 91.42407227 2.02368164 C94.94629767 -0.17930899 98.22508685 -0.10453004 102.25390625 -0.0625 C103.06001343 -0.0663269 103.86612061 -0.07015381 104.69665527 -0.07409668 C106.39788057 -0.0768139 108.09914778 -0.0694659 109.80029297 -0.05273438 C112.40166521 -0.0313199 115.00027597 -0.05254019 117.6015625 -0.078125 C119.2565165 -0.07548169 120.91146879 -0.07035663 122.56640625 -0.0625 C123.34254272 -0.07059692 124.1186792 -0.07869385 124.91833496 -0.08703613 C128.26684557 -0.02900591 130.5325507 0.23257503 133.39624023 2.02368164 C135.45462874 5.34810688 135.50318955 8.32353534 135.4765625 12.12109375 C135.48276108 12.85824112 135.48895966 13.59538849 135.49534607 14.35487366 C135.50243518 15.9106413 135.49928591 17.46648495 135.48657227 19.0222168 C135.47271726 21.39579775 135.50676677 23.76542458 135.54492188 26.13867188 C135.54587328 27.65364679 135.54401307 29.16862662 135.5390625 30.68359375 C135.55232071 31.3889476 135.56557892 32.09430145 135.57923889 32.82102966 C135.50747279 36.64274043 134.98998303 38.36508819 132.63378906 41.42480469 C129.92433806 43.45810729 128.98925718 44.08245614 125.703125 43.95703125 C124.95224609 43.94091797 124.20136719 43.92480469 123.42773438 43.90820312 C122.2743457 43.84536133 122.2743457 43.84536133 121.09765625 43.78125 C120.30939453 43.75869141 119.52113281 43.73613281 118.70898438 43.71289062 C116.77521696 43.65429161 114.84243458 43.56461827 112.91015625 43.46875 C112.79800781 44.20351563 112.68585938 44.93828125 112.5703125 45.6953125 C110.70869393 53.51631361 104.38667767 60.03408755 97.91015625 64.46875 C87.1881357 70.5853389 76.22470644 73.46875 63.91015625 73.46875 C63.91015625 81.38875 63.91015625 89.30875 63.91015625 97.46875 C67.39322917 97.37109375 70.87630208 97.2734375 74.359375 97.17578125 C78.13956541 97.48767815 79.96405233 98.12389178 82.91015625 100.46875 C84.68253504 105.78588636 84.17543552 111.52359096 84.20532227 117.09228516 C84.21685143 118.58977704 84.23731842 120.08722752 84.2668457 121.58447266 C84.30958325 123.75191068 84.32569735 125.91813013 84.3359375 128.0859375 C84.35052002 129.38128418 84.36510254 130.67663086 84.38012695 132.01123047 C83.81445258 136.17283074 83.14442992 137.77790013 79.91015625 140.46875 C76.93267844 140.95245578 74.53739971 141.12525987 71.56640625 141.0625 C70.76029907 141.06254028 69.95419189 141.06258057 69.12365723 141.06262207 C67.42236519 141.05726976 65.72107354 141.03969904 64.02001953 141.01074219 C61.4188262 140.9688895 58.82022324 140.96967379 56.21875 140.9765625 C54.56378413 140.96606927 52.90883158 140.95313045 51.25390625 140.9375 C50.47776978 140.93729858 49.7016333 140.93709717 48.90197754 140.93688965 C45.83731149 140.8698644 43.26877077 140.61697827 40.42407227 139.44116211 C38.0659012 136.36880861 38.31947025 133.15896807 38.34375 129.44140625 C38.33445213 128.26341713 38.33445213 128.26341713 38.32496643 127.06163025 C38.31786623 125.40153238 38.32104591 123.74136334 38.33374023 122.08129883 C38.3475916 119.5430968 38.31356364 117.00859266 38.27539062 114.47070312 C38.27443926 112.85676993 38.27629921 111.24283213 38.28125 109.62890625 C38.26799179 108.8715065 38.25473358 108.11410675 38.24107361 107.33375549 C38.30853025 103.50824038 38.58443933 101.81606084 41.24121094 98.9831543 C46.19327747 96.17326876 51.34793783 97.2440139 56.91015625 97.46875 C56.91015625 89.54875 56.91015625 81.62875 56.91015625 73.46875 C55.03328125 73.38625 53.15640625 73.30375 51.22265625 73.21875 C37.16377897 72.1172928 23.56523115 67.05687835 13.91015625 56.46875 C11.25926262 52.63071704 8.9947137 48.63786491 6.91015625 44.46875 C4.64782767 44.2112016 2.37266805 44.0624683 0.09765625 43.96875 C-7.89075435 43.63762417 -7.89075435 43.63762417 -11.08984375 41.46875 C-12.66102877 38.32637995 -12.29490905 34.95603255 -12.328125 31.50390625 C-12.33619675 30.71479355 -12.34426849 29.92568085 -12.35258484 29.11265564 C-12.36642122 27.44239498 -12.37714538 25.7721061 -12.38500977 24.10180664 C-12.40225411 21.54454327 -12.44614527 18.98856246 -12.49023438 16.43164062 C-12.50035864 14.80990535 -12.50887558 13.18815908 -12.515625 11.56640625 C-12.53313309 10.80070816 -12.55064117 10.03501007 -12.56867981 9.24610901 C-12.55586195 6.11755806 -12.51214199 4.01760215 -10.56884766 1.49194336 C-7.06831817 0.0471217 -3.72867234 0.00099985 0 0 Z " fill="#000000" transform="translate(176.08984375,-0.46875)"/>
<path d="M0 0 C28.72051184 2.29764095 28.72051184 2.29764095 38.02758789 3.23681641 C39.65703339 3.3981884 39.65703339 3.3981884 41.31939697 3.56282043 C44.78737822 3.90681774 48.25501786 4.25412781 51.72265625 4.6015625 C54.1755519 4.84553606 56.62846881 5.08929604 59.08140564 5.33285522 C65.44514806 5.9652937 71.80860345 6.60057417 78.17199707 7.23651123 C84.70237958 7.88860694 91.23303817 8.53792571 97.76367188 9.1875 C110.50938141 10.45566363 123.25479817 11.72674447 136 13 C136.02693575 15.12493141 136.04636628 17.24995912 136.0625 19.375 C136.07410156 20.55835937 136.08570313 21.74171875 136.09765625 22.9609375 C136 26 136 26 135 28 C132.8054285 28.65214729 132.8054285 28.65214729 129.8440094 29.22756958 C128.72644257 29.44908691 127.60887573 29.67060425 126.45744324 29.89883423 C125.22053238 30.13476288 123.98362152 30.37069153 122.70922852 30.61376953 C121.41507019 30.86765442 120.12091187 31.12153931 118.78753662 31.38311768 C115.22915696 32.08093537 111.6687615 32.76792034 108.1078999 33.45294428 C104.38806483 34.17032581 100.67008854 34.89721455 96.95188904 35.62301636 C90.70592797 36.84084355 84.45875274 38.05226386 78.21069336 39.25927734 C69.39252557 40.9628115 60.57675747 42.67851643 51.76136506 44.39634538 C45.66443084 45.58394149 39.56690693 46.76850529 33.46928668 47.9525733 C31.98831395 48.24018644 30.50736035 48.52789812 29.0264256 48.81570673 C24.15823203 49.76172357 19.28937627 50.70424936 14.42016602 51.64501953 C13.18527939 51.88499664 11.95039276 52.12497375 10.67808533 52.3722229 C9.55769867 52.58810059 8.43731201 52.80397827 7.28297424 53.02639771 C6.30532891 53.21553301 5.32768358 53.40466831 4.32041264 53.59953499 C2 54 2 54 0 54 C0 36.18 0 18.36 0 0 Z " fill="#000000" transform="translate(327,45)"/>
<path d="M0 0 C-0.51652733 5.78510615 -1.31002321 11.51987011 -2.25 17.25 C-2.39562378 18.27770508 -2.39562378 18.27770508 -2.54418945 19.32617188 C-3.72107719 26.12707355 -7.43333083 28.9397844 -12.77734375 32.75390625 C-14.16033533 33.69560137 -15.54713902 34.63171981 -16.9375 35.5625 C-17.62779297 36.03107422 -18.31808594 36.49964844 -19.02929688 36.98242188 C-21.01516918 38.32829742 -23.00578192 39.66652391 -25 41 C-25.79903244 41.67918991 -26.59806488 42.35837982 -27.42131042 43.05815125 C-31.99514173 46.07707378 -37.03233351 45.52575934 -42.32958984 45.45410156 C-44.02802536 45.45497772 -44.02802536 45.45497772 -45.76077271 45.45587158 C-49.49447538 45.45309019 -53.22737468 45.42199378 -56.9609375 45.390625 C-59.55310632 45.38316285 -62.14528079 45.3774698 -64.73745728 45.37347412 C-70.85728816 45.35977451 -76.97678869 45.32826587 -83.09649527 45.28807616 C-90.06623139 45.24330176 -97.03598153 45.22135724 -104.00582576 45.20129442 C-118.33737544 45.1595312 -132.66866718 45.088405 -147 45 C-147 39.72 -147 34.44 -147 29 C-128.28275211 24.93298829 -109.538905 21.06670202 -90.7421875 17.3828125 C-88.16379831 16.87587593 -85.58543998 16.36878242 -83.0071106 15.86154175 C-77.67499009 14.81292089 -72.34250024 13.76619618 -67.00976562 12.72070312 C-60.85118125 11.51327586 -54.69322043 10.30270665 -48.53556144 9.09056962 C-42.55897427 7.91414848 -36.58196941 6.73986477 -30.60477066 5.56655502 C-28.07759328 5.07027977 -25.550521 4.57346894 -23.02355576 4.07611465 C-19.52371314 3.38759906 -16.02340349 2.70151141 -12.52294922 2.01611328 C-11.48009262 1.81047256 -10.43723602 1.60483185 -9.36277771 1.39295959 C-8.41603683 1.20810501 -7.46929596 1.02325043 -6.49386597 0.83279419 C-5.25698438 0.59006869 -5.25698438 0.59006869 -3.99511528 0.34243965 C-2 0 -2 0 0 0 Z " fill="#000000" transform="translate(474,95)"/>
<path d="M0 0 C15.47981448 -0.67440188 30.95746013 -1.19031141 46.44851589 -1.50255299 C53.64439911 -1.65148465 60.83085279 -1.85467233 68.02075195 -2.18774414 C116.10830125 -4.37373489 116.10830125 -4.37373489 125.32305908 2.90777588 C132.42418409 9.9175047 136.0354558 19.37123197 138 29 C138 29.66 138 30.32 138 31 C113.23069052 29.40183146 88.50995626 27.20753 63.78369141 25.05883789 C57.76332611 24.53573096 51.74261278 24.0167517 45.72179604 23.4988699 C41.0496858 23.09651153 36.37777169 22.69191227 31.70591354 22.28663826 C29.48364829 22.09415186 27.26132066 21.90238415 25.03892899 21.71136284 C21.95364522 21.44585971 18.86864132 21.17730974 15.78369141 20.90795898 C14.87677551 20.8305397 13.96985962 20.75312042 13.03546143 20.6733551 C12.1926059 20.59914337 11.34975037 20.52493164 10.48135376 20.44847107 C9.75631968 20.3856214 9.03128559 20.32277174 8.28428078 20.25801754 C5.50884482 19.9445223 2.75508211 19.45918035 0 19 C0 12.73 0 6.46 0 0 Z " fill="#000000" transform="translate(327,0)"/>
<path d="M0 0 C3.96 0 7.92 0 12 0 C12 46.2 12 92.4 12 140 C8.04 140 4.08 140 0 140 C0 93.8 0 47.6 0 0 Z " fill="#000000" transform="translate(135,0)"/>
<path d="M0 0 C3.96 0 7.92 0 12 0 C12 46.2 12 92.4 12 140 C8.04 140 4.08 140 0 140 C0 93.8 0 47.6 0 0 Z " fill="#000000" transform="translate(115,0)"/>
<path d="M0 0 C1.703125 2.8359375 1.703125 2.8359375 3.25 6.375 C4.03117187 8.11910156 4.03117187 8.11910156 4.828125 9.8984375 C6 13 6 13 6 16 C-0.40493767 17.48152448 -6.80173206 18.6934178 -13.29296875 19.7265625 C-14.24263016 19.87910492 -15.19229156 20.03164734 -16.17073059 20.18881226 C-18.1629913 20.50782881 -20.15548296 20.82540609 -22.14819336 21.14160156 C-25.19018806 21.62542753 -28.2308333 22.11718416 -31.27148438 22.609375 C-33.21606885 22.91975354 -35.16072786 23.22966556 -37.10546875 23.5390625 C-38.46033638 23.75932602 -38.46033638 23.75932602 -39.84257507 23.98403931 C-44.27779682 24.68046499 -48.49276871 25.17280415 -53 25 C-54.00696568 22.89915791 -55.0053589 20.79420511 -56 18.6875 C-56.556875 17.51574219 -57.11375 16.34398437 -57.6875 15.13671875 C-59 12 -59 12 -59 9 C-58.38469925 8.88946793 -57.7693985 8.77893585 -57.13545227 8.66505432 C-50.72764696 7.51386284 -44.3199648 6.36198775 -37.91235352 5.2097168 C-35.5214345 4.77985404 -33.1304842 4.35016522 -30.73950195 3.9206543 C-27.30151246 3.30303002 -23.86363618 2.68477901 -20.42578125 2.06640625 C-19.35789871 1.87470352 -18.29001617 1.68300079 -17.18977356 1.48548889 C-16.18911362 1.30537766 -15.18845367 1.12526642 -14.1574707 0.93969727 C-12.84175835 0.70320213 -12.84175835 0.70320213 -11.49946594 0.46192932 C-9.76554417 0.14148114 -8.03563153 -0.20114323 -6.30949402 -0.56117249 C-3.65264876 -1.06600029 -2.42505999 -1.23257181 0 0 Z " fill="#000000" transform="translate(469,76)"/>
<path d="M0 0 C10.04642233 -0.09160871 19.98592299 0.16086974 30.01098633 0.79956055 C32.22377834 0.93979919 34.43699242 1.07088635 36.65039062 1.20117188 C38.07294945 1.2885303 39.49547692 1.37640108 40.91796875 1.46484375 C42.81712036 1.58267212 42.81712036 1.58267212 44.75463867 1.70288086 C48 2 48 2 52 3 C52 9.6 52 16.2 52 23 C34.61926296 22.2099665 17.3229303 20.58114002 0 19 C0 12.73 0 6.46 0 0 Z " fill="#000000" transform="translate(327,23)"/>
<path d="M0 0 C9.85211382 -0.08924016 19.58986789 0.14606851 29.41894531 0.79956055 C31.5263617 0.93924734 33.63418256 1.07069716 35.7421875 1.20117188 C41.88596097 1.5939842 47.89386675 2.12769525 54 3 C54 9.27 54 15.54 54 22 C51.39952995 23.30023503 49.88955358 22.94075289 46.99951172 22.65454102 C45.95858368 22.55436172 44.91765564 22.45418243 43.84518433 22.35096741 C42.1545134 22.17917213 42.1545134 22.17917213 40.4296875 22.00390625 C39.27832306 21.89151108 38.12695862 21.77911591 36.94070435 21.66331482 C33.25156853 21.30189876 29.56330502 20.93228913 25.875 20.5625 C23.37895929 20.31651854 20.8828661 20.07106886 18.38671875 19.82617188 C12.2571859 19.22362446 6.12842328 18.61372584 0 18 C0 12.06 0 6.12 0 0 Z " fill="#000000" transform="translate(412,31)"/>
<path d="M0 0 C0 6.6 0 13.2 0 20 C-6.92265574 21.42789981 -13.84608432 22.85196779 -20.77026367 24.27246094 C-23.12660111 24.75642851 -25.48272233 25.24145001 -27.83862305 25.72753906 C-31.2212816 26.42528804 -34.60469481 27.11926652 -37.98828125 27.8125 C-39.57277824 28.14060669 -39.57277824 28.14060669 -41.18928528 28.4753418 C-42.17007553 28.67554932 -43.15086578 28.87575684 -44.16137695 29.08203125 C-45.02519485 29.25968018 -45.88901276 29.4373291 -46.77900696 29.62036133 C-49 30 -49 30 -52 30 C-52 23.73 -52 17.46 -52 11 C-47.12950871 9.91509162 -42.25894076 8.83053871 -37.38818359 7.74682617 C-35.73774899 7.37951068 -34.08735699 7.01200374 -32.43701172 6.64428711 C-24.27666254 4.82619108 -16.11500451 3.01398354 -7.9453125 1.23828125 C-6.83945801 0.99762939 -5.73360352 0.75697754 -4.59423828 0.5090332 C-2 0 -2 0 0 0 Z " fill="#000000" transform="translate(379,91)"/>
</svg>
