<?xml version="1.0" encoding="UTF-8"?>
<svg version="1.1" xmlns="http://www.w3.org/2000/svg" width="945" height="209">
<path d="M0 0 C5.94 0 11.88 0 18 0 C18.54003662 1.62534668 19.08007324 3.25069336 19.63647461 4.92529297 C21.41938119 10.29012567 23.2036724 15.65449649 24.98891354 21.01855278 C26.07144897 24.2713818 27.15342443 27.52439485 28.23413086 30.77783203 C29.47604596 34.51650216 30.7203775 38.25436574 31.96484375 41.9921875 C32.35341049 43.16304901 32.74197723 44.33391052 33.14231873 45.54025269 C33.50261673 46.62122223 33.86291473 47.70219177 34.23413086 48.81591797 C34.55167831 49.77078094 34.86922577 50.72564392 35.19639587 51.70944214 C35.94244515 53.9898033 35.94244515 53.9898033 37 56 C38.90299782 50.43587943 40.80522345 44.87149563 42.70678711 39.30688477 C43.35144065 37.42074758 43.99629157 35.53467785 44.64135742 33.64868164 C48.47249304 22.44700072 52.27336378 11.23691264 56 0 C61.94 0 67.88 0 74 0 C75.82885816 10.7521851 77.65493884 21.50483173 79.47612 32.25831985 C80.32185719 37.25144967 81.16881497 42.24436606 82.01855469 47.23681641 C82.83839247 52.05385541 83.65503381 56.8714263 84.4694519 61.68938446 C84.78089367 63.52839252 85.09349111 65.36720524 85.40725708 67.20581818 C85.84617077 69.77895879 86.28098851 72.35276018 86.71484375 74.92675781 C86.91120926 76.0693531 86.91120926 76.0693531 87.11154175 77.23503113 C87.66843139 80.562586 88 83.61283349 88 87 C82.39 87 76.78 87 71 87 C70.51789063 84.31230469 70.03578125 81.62460938 69.5390625 78.85546875 C69.06578586 76.2175238 68.59246528 73.57958673 68.11914062 70.94165039 C67.79324845 69.12525236 67.46740109 67.30884629 67.14160156 65.49243164 C66.67004334 62.8634222 66.19831745 60.23444289 65.7265625 57.60546875 C65.58376862 56.8091655 65.44097473 56.01286224 65.29385376 55.19242859 C64.20513063 49.12660155 63.10441085 43.06298925 62 37 C59.73953102 43.63854498 57.47921056 50.27714051 55.21899414 56.91577148 C54.44982278 59.17489777 53.68061721 61.43401241 52.91137695 63.69311523 C51.80671373 66.93730672 50.70217286 70.18153984 49.59765625 73.42578125 C49.25283707 74.43836502 48.90801788 75.45094879 48.55274963 76.49421692 C48.23249313 77.43496567 47.91223663 78.37571442 47.58227539 79.3449707 C47.30025772 80.17325882 47.01824005 81.00154694 46.72767639 81.85493469 C46.14649091 83.56816989 45.57209714 85.28370857 45 87 C39.72 87 34.44 87 29 87 C27.06068684 81.32591172 25.12181911 75.65167149 23.18334961 69.97729492 C22.52494101 68.05017057 21.86641438 66.12308654 21.20776367 64.19604492 C20.25668192 61.41335682 19.30603604 58.63052013 18.35546875 55.84765625 C18.0647197 54.99728287 17.77397064 54.14690948 17.47441101 53.27076721 C15.62515914 47.8552079 13.80191618 42.43149239 12 37 C10.8783625 43.15629903 9.75742329 49.31272491 8.63696289 55.46923828 C8.2559378 57.56236634 7.87475455 59.65546561 7.4934082 61.74853516 C6.94440509 64.76196814 6.39597617 67.77550514 5.84765625 70.7890625 C5.6778273 71.72054108 5.50799835 72.65201965 5.33302307 73.61172485 C5.17293259 74.49218475 5.0128421 75.37264465 4.84790039 76.27978516 C4.70800186 77.04811676 4.56810333 77.81644836 4.42396545 78.60806274 C3.92877941 81.40181382 3.46644875 84.20130748 3 87 C-2.94 87 -8.88 87 -15 87 C-13.19265465 76.39475198 -11.38470488 65.78960748 -9.57569218 55.18464375 C-8.73571169 50.26028583 -7.89599571 45.33588312 -7.05688477 40.41137695 C-6.24702246 35.65858163 -5.43646463 30.90590539 -4.62542534 26.15331078 C-4.31618944 24.34048877 -4.00720377 22.52762406 -3.69847298 20.71471596 C-3.26587246 18.17468722 -2.83238089 15.63481204 -2.39868164 13.0949707 C-2.27136658 12.34618652 -2.14405151 11.59740234 -2.01287842 10.82592773 C-1.39337841 7.20355283 -0.72091311 3.60456554 0 0 Z " fill="#000000" transform="translate(262,59)"/>
<path d="M0 0 C8.46824611 6.61238049 13.69429633 16.29591992 15.40625 26.87890625 C15.40625 31.49890625 15.40625 36.11890625 15.40625 40.87890625 C-5.71375 40.87890625 -26.83375 40.87890625 -48.59375 40.87890625 C-44.46290669 49.14059287 -41.95199513 53.30109628 -33.59375 56.87890625 C-25.49053916 58.03102153 -18.79600252 57.33989522 -11.77734375 53.0703125 C-9.18077494 51.65357997 -7.56964678 51.01612339 -4.59375 50.87890625 C-1.85563768 51.76613034 0.65653342 53.01445696 3.21875 54.31640625 C3.91162109 54.65478516 4.60449219 54.99316406 5.31835938 55.34179688 C7.02039682 56.17520832 8.71418715 57.02542549 10.40625 57.87890625 C8.03905529 64.90727818 2.80936246 69.12565717 -3.6796875 72.46875 C-15.79451592 77.62876951 -29.35904463 79.00237014 -42.0703125 74.91796875 C-55.01454233 69.58799176 -62.2154312 61.67497345 -67.59375 48.87890625 C-70.76013357 38.09795911 -69.9304729 23.7070947 -64.59375 13.87890625 C-59.13766657 3.91913265 -51.37068097 -3.1898668 -40.546875 -6.8046875 C-26.4409676 -10.53709 -11.96449773 -8.23418737 0 0 Z M-43.59375 16.87890625 C-45.93947511 20.10267105 -45.93947511 20.10267105 -46.59375 23.87890625 C-33.06375 23.87890625 -19.53375 23.87890625 -5.59375 23.87890625 C-8.90319662 17.26001301 -11.81030343 13.86583172 -18.46875 11.06640625 C-27.62821729 8.01905496 -36.63683384 10.12075912 -43.59375 16.87890625 Z " fill="#000000" transform="translate(592.59375,71.12109375)"/>
<path d="M0 0 C9.75710135 6.58245624 15.92760515 14.88522282 18.65234375 26.453125 C20.58986779 38.67073529 18.93631255 49.59360673 12.4375 60.18359375 C5.5734616 69.63234486 -2.98214685 75.19970904 -14.31640625 78.046875 C-26.8727882 79.94470983 -37.81742103 78.02386386 -48.48828125 71.22265625 C-57.95563205 64.12601686 -63.95371162 54.10658853 -65.65234375 42.4140625 C-66.51964296 30.8044257 -64.88328102 20.16853928 -57.82421875 10.67578125 C-55.61419364 8.11841195 -53.32784417 5.75777773 -50.875 3.43359375 C-49.93333984 2.53640625 -49.93333984 2.53640625 -48.97265625 1.62109375 C-35.16737616 -10.05356171 -14.83060045 -8.92484348 0 0 Z M-41.4609375 23.30078125 C-45.14517342 28.85766748 -45.27613114 34.49668139 -44.41015625 40.9765625 C-42.88566547 47.97586689 -39.70491382 52.38834743 -33.875 56.43359375 C-28.0394921 59.17744183 -21.77097243 59.5899026 -15.55859375 57.74609375 C-9.52097227 54.99651281 -5.68078829 50.71831139 -3.0625 44.62109375 C-0.8580485 38.00773925 -1.15203814 31.67449151 -3.91015625 25.28125 C-6.90719939 19.54197306 -10.57191998 16.46097028 -16.48046875 14.12890625 C-26.8899136 11.10626158 -34.87708011 15.15363351 -41.4609375 23.30078125 Z " fill="#000000" transform="translate(417.875,69.56640625)"/>
<path d="M0 0 C7.8534395 7.22766743 12.18770151 16.81629959 13.12890625 27.35546875 C13.51659276 39.6238708 10.79703972 50.30540946 2.8125 59.8125 C-6.76405549 69.77993531 -16.40741911 73.78317512 -30.125 74.125 C-41.99008764 73.89584595 -51.41335255 69.9615378 -60.26171875 61.9296875 C-68.34500197 53.26777446 -72.02347476 43.17778709 -72.25390625 31.42578125 C-71.75803661 17.76682668 -67.09829637 8.14128651 -57.1875 -1.1875 C-40.37919681 -16.13172445 -16.86465836 -13.57477236 0 0 Z M-47.7734375 18.6796875 C-51.45767342 24.23657373 -51.58863114 29.87558764 -50.72265625 36.35546875 C-49.19816547 43.35477314 -46.01741382 47.76725368 -40.1875 51.8125 C-34.3519921 54.55634808 -28.08347243 54.96880885 -21.87109375 53.125 C-15.83347227 50.37541906 -11.99328829 46.09721764 -9.375 40 C-7.16728414 33.37685242 -7.48644007 27.07597224 -10.20703125 20.6640625 C-12.78753826 15.79091381 -16.18379175 12.25020402 -21.1875 9.8125 C-32.19428535 6.57655069 -40.67810086 9.8996134 -47.7734375 18.6796875 Z " fill="#000000" transform="translate(199.1875,74.1875)"/>
<path d="M0 0 C4.8141483 3.66214808 8.01611644 8.92554882 9.11328125 14.8671875 C9.20025181 16.94481389 9.23096552 19.02505043 9.22680664 21.10449219 C9.22669334 22.99600006 9.22669334 22.99600006 9.22657776 24.92572021 C9.22147153 26.29683471 9.21625555 27.66794881 9.2109375 29.0390625 C9.20907153 30.44582061 9.20764847 31.85257938 9.20664978 33.25933838 C9.20283869 36.95499477 9.19302045 40.65061163 9.1819458 44.34625244 C9.17170139 48.12015244 9.16714567 51.89405885 9.16210938 55.66796875 C9.15139688 63.06772841 9.13381152 70.46744737 9.11328125 77.8671875 C2.51328125 77.8671875 -4.08671875 77.8671875 -10.88671875 77.8671875 C-10.93570313 74.75796875 -10.9846875 71.64875 -11.03515625 68.4453125 C-11.08933729 65.39692834 -11.14657714 62.34861566 -11.20410156 59.30029297 C-11.24212313 57.19976236 -11.27702005 55.09917257 -11.30859375 52.99853516 C-10.65873814 34.65246038 -10.65873814 34.65246038 -15.88671875 17.6171875 C-20.23246156 15.08217086 -23.97481635 15.12959159 -28.88671875 15.8671875 C-33.06189504 17.59171684 -35.41345378 20.11464755 -37.88671875 23.8671875 C-40.06823002 29.8587518 -40.22699207 35.4955217 -40.30078125 41.83203125 C-40.3201474 42.86534073 -40.33951355 43.89865021 -40.35946655 44.96327209 C-40.41895174 48.24366155 -40.46552327 51.52408668 -40.51171875 54.8046875 C-40.54992711 57.03712416 -40.58898049 59.26954652 -40.62890625 61.50195312 C-40.72620839 66.95695429 -40.80602425 72.41181455 -40.88671875 77.8671875 C-47.81671875 77.8671875 -54.74671875 77.8671875 -61.88671875 77.8671875 C-61.88671875 51.1371875 -61.88671875 24.4071875 -61.88671875 -3.1328125 C-54.95671875 -3.1328125 -48.02671875 -3.1328125 -40.88671875 -3.1328125 C-40.55671875 -1.1528125 -40.22671875 0.8271875 -39.88671875 2.8671875 C-39.24605469 2.45726563 -38.60539062 2.04734375 -37.9453125 1.625 C-25.30992123 -6.24622735 -13.2094479 -7.93113849 0 0 Z " fill="#000000" transform="translate(506.88671875,68.1328125)"/>
<path d="M0 0 C5.91644601 6.26447224 8.25564308 11.92845841 8.23852539 20.48730469 C8.23841209 22.37881256 8.23841209 22.37881256 8.23829651 24.30853271 C8.23319028 25.67964721 8.2279743 27.05076131 8.22265625 28.421875 C8.22079028 29.82863311 8.21936722 31.23539188 8.21836853 32.64215088 C8.21455744 36.33780727 8.2047392 40.03342413 8.19366455 43.72906494 C8.18342014 47.50296494 8.17886442 51.27687135 8.17382812 55.05078125 C8.16311563 62.45054091 8.14553027 69.85025987 8.125 77.25 C1.525 77.25 -5.075 77.25 -11.875 77.25 C-11.92398438 74.14078125 -11.97296875 71.0315625 -12.0234375 67.828125 C-12.07761854 64.77974084 -12.13485839 61.73142816 -12.19238281 58.68310547 C-12.23040438 56.58257486 -12.2653013 54.48198507 -12.296875 52.38134766 C-11.64701939 34.03527288 -11.64701939 34.03527288 -16.875 17 C-21.22074281 14.46498336 -24.9630976 14.51240409 -29.875 15.25 C-34.05017629 16.97452934 -36.40173503 19.49746005 -38.875 23.25 C-41.05651127 29.2415643 -41.21527332 34.8783342 -41.2890625 41.21484375 C-41.30842865 42.24815323 -41.3277948 43.28146271 -41.3477478 44.34608459 C-41.40723299 47.62647405 -41.45380452 50.90689918 -41.5 54.1875 C-41.53820836 56.41993666 -41.57726174 58.65235902 -41.6171875 60.88476562 C-41.71448964 66.33976679 -41.7943055 71.79462705 -41.875 77.25 C-48.805 77.25 -55.735 77.25 -62.875 77.25 C-62.875 50.52 -62.875 23.79 -62.875 -3.75 C-55.945 -3.75 -49.015 -3.75 -41.875 -3.75 C-41.545 -1.77 -41.215 0.21 -40.875 2.25 C-40.23433594 1.84007813 -39.59367187 1.43015625 -38.93359375 1.0078125 C-25.70733115 -7.23149863 -13.61012003 -8.28442089 0 0 Z " fill="#000000" transform="translate(111.875,68.75)"/>
<path d="M0 0 C7.26 0 14.52 0 22 0 C23.10859375 2.7225 24.2171875 5.445 25.359375 8.25 C26.44423471 10.90802294 27.53017158 13.56560339 28.61621094 16.22314453 C29.36603474 18.0595993 30.11475122 19.89650661 30.86230469 21.73388672 C31.9416964 24.38631196 33.02515978 27.03704337 34.109375 29.6875 C34.43871033 30.49928711 34.76804565 31.31107422 35.10736084 32.14746094 C37.18994328 37.2246158 39.49108321 42.11883894 42 47 C42.23137161 46.49967255 42.46274323 45.99934509 42.7011261 45.4838562 C45.11727202 40.25955871 47.53470766 35.03585942 49.95288086 29.8125 C50.85425121 27.86506095 51.7552966 25.91747146 52.65600586 23.96972656 C53.95340193 21.16431352 55.25197954 18.35945001 56.55078125 15.5546875 C57.15095818 14.25590164 57.15095818 14.25590164 57.76325989 12.93087769 C58.33351143 11.70028122 58.33351143 11.70028122 58.9152832 10.44482422 C59.24615433 9.72978729 59.57702545 9.01475037 59.91792297 8.27804565 C61.23796592 5.4990216 62.62410116 2.75179768 64 0 C70.93 0 77.86 0 85 0 C84.13495359 5.19027845 83.15472839 8.24230878 80.9296875 12.86328125 C80.61702438 13.5190918 80.30436127 14.17490234 79.98222351 14.85058594 C79.30659887 16.2662179 78.62768877 17.68028562 77.9458313 19.09292603 C76.10003637 22.91881195 74.28016824 26.75702936 72.45703125 30.59375 C72.08205002 31.3813118 71.70706879 32.1688736 71.32072449 32.9803009 C67.64354232 40.71678812 64.08959444 48.5066997 60.5625 56.3125 C59.34423045 59.00542592 58.12537912 61.69808812 56.90625 64.390625 C56.59854172 65.07042419 56.29083344 65.75022339 55.97380066 66.45062256 C51.87162414 75.50389177 47.71560337 84.53251183 43.5625 93.5625 C43.18102814 94.39206207 42.79955627 95.22162415 42.40652466 96.07632446 C40.27194248 100.71797675 38.13613828 105.3590631 36 110 C28.74 110 21.48 110 14 110 C15.85662449 104.43012653 17.36999094 99.89822157 19.953125 94.828125 C20.7575 93.21357422 20.7575 93.21357422 21.578125 91.56640625 C22.70215964 89.33672072 23.83247943 87.11019365 24.96875 84.88671875 C25.76539063 83.27990234 25.76539063 83.27990234 26.578125 81.640625 C27.31144043 80.19478027 27.31144043 80.19478027 28.05957031 78.71972656 C29.93568456 73.29399636 27.16794706 68.60236494 25.078125 63.54296875 C24.78146439 62.81469879 24.48480377 62.08642883 24.17915344 61.33609009 C23.53955909 59.76765352 22.89791373 58.20005208 22.25442505 56.63320923 C21.24232209 54.16880478 20.2355997 51.70226349 19.23022461 49.23510742 C17.15865056 44.1546185 15.07996289 39.07705923 13 34 C10.80461068 28.6404508 8.61106491 23.28016638 6.42297363 17.91763306 C5.57238404 15.83668113 4.71748211 13.75753673 3.86230469 11.6784668 C3.34681834 10.41723131 2.83150846 9.15592368 2.31640625 7.89453125 C1.86724854 6.79987549 1.41809082 5.70521973 0.95532227 4.57739258 C0 2 0 2 0 0 Z " fill="#000000" transform="translate(607,65)"/>
<path d="M0 0 C0.99 0.103125 1.98 0.20625 3 0.3125 C5.44333955 3.97750932 5.65737969 7.16909651 6.0625 11.4375 C6.14556396 12.28820068 6.22862793 13.13890137 6.31420898 14.01538086 C8.8479818 41.64272279 8.49953708 69.59389556 9 97.3125 C9.27038086 96.64532959 9.54076172 95.97815918 9.81933594 95.29077148 C32.66467876 39.26414805 32.66467876 39.26414805 48 31.3125 C52.08083724 30.67926663 54.08278004 30.80056328 57.6875 32.8125 C67.78851085 43.73251173 67.1525976 60.43457247 67.203125 74.37109375 C67.20882507 75.59659439 67.21452515 76.82209503 67.22039795 78.08473206 C67.22979859 80.65893705 67.23636216 83.2331538 67.24023438 85.80737305 C67.25002914 89.76176292 67.28113441 93.71565176 67.3125 97.66992188 C67.31902225 100.17447609 67.32427576 102.679034 67.328125 105.18359375 C67.3404718 106.36996933 67.3528186 107.55634491 67.36553955 108.77867126 C67.36253845 109.87063309 67.35953735 110.96259491 67.35644531 112.08764648 C67.36191376 113.53251686 67.36191376 113.53251686 67.36749268 115.00657654 C67.24622009 115.76753128 67.12494751 116.52848602 67 117.3125 C64 119.3125 64 119.3125 61.375 119 C59 118.3125 59 118.3125 58 117.3125 C57.91679491 115.59579311 57.90365287 113.87564284 57.91821289 112.15698242 C57.9247438 111.05460739 57.93127472 109.95223236 57.93800354 108.81645203 C57.94943893 107.61245255 57.96087433 106.40845306 57.97265625 105.16796875 C57.98531739 102.62825664 57.99767722 100.08854302 58.00976562 97.54882812 C58.03337538 93.53779003 58.0622747 89.52683684 58.09594727 85.51586914 C58.12640309 81.64989762 58.14401468 77.78402303 58.16015625 73.91796875 C58.17361588 72.73623581 58.1870755 71.55450287 58.20094299 70.33695984 C58.33845092 55.64338689 58.33845092 55.64338689 53 42.3125 C51.24124711 40.89362399 51.24124711 40.89362399 49 41.3125 C44.33482987 44.70593197 41.30971344 48.29596283 38.4375 53.3125 C38.02113281 54.03179687 37.60476563 54.75109375 37.17578125 55.4921875 C27.58796067 72.59327099 20.13365403 91.21949511 13.24609375 109.54492188 C12.68921875 110.99415039 12.68921875 110.99415039 12.12109375 112.47265625 C11.64820923 113.73541382 11.64820923 113.73541382 11.16577148 115.02368164 C9.82473981 117.65659723 8.17534606 119.33509365 6 121.3125 C4.35 120.6525 2.7 119.9925 1 119.3125 C0.97938507 118.60095261 0.95877014 117.88940521 0.93753052 117.15629578 C-0.1598055 76.43829085 -0.1598055 76.43829085 -2 35.75 C-2.0707373 34.44442139 -2.14147461 33.13884277 -2.21435547 31.79370117 C-2.65289154 24.57608836 -3.46247625 17.49771442 -4.59765625 10.35571289 C-4.96235985 7.59719928 -5.22886188 5.08531994 -5 2.3125 C-3 0.3125 -3 0.3125 0 0 Z " fill="#000000" transform="translate(832,33.6875)"/>
<path d="M0 0 C3.62822302 1.78782004 5.5914393 4.2006421 7.4375 7.8125 C8.23501115 12.33172984 8.09636695 16.8072661 6 21 C6.99 21 7.98 21 9 21 C9.89451386 23.68354157 10.16351371 25.43688971 10.26538086 28.20849609 C10.29889145 29.05302338 10.33240204 29.89755066 10.3669281 30.76766968 C10.39924026 31.67707306 10.43155243 32.58647644 10.46484375 33.5234375 C10.54336662 35.45053117 10.6221508 37.3776142 10.70117188 39.3046875 C10.82079467 42.3416819 10.93763735 45.37872734 11.04956055 48.41601562 C11.1593442 51.34802505 11.28015412 54.27942253 11.40234375 57.2109375 C11.43263168 58.11629242 11.46291962 59.02164734 11.49412537 59.95443726 C11.68864597 64.46867246 12.20460069 67.81057193 14 72 C12.9375 75.25 12.9375 75.25 11 78 C8.3125 78.875 8.3125 78.875 6 79 C2.05089074 74.02068833 1.86098702 70.017748 1.90234375 63.83203125 C1.9037587 63.03721848 1.90517365 62.2424057 1.90663147 61.42350769 C1.91222622 58.88646675 1.92477772 56.34951425 1.9375 53.8125 C1.94251568 52.09179815 1.94707847 50.37109492 1.95117188 48.65039062 C1.96219393 44.4335597 1.97945494 40.21679484 2 36 C-0.45132811 38.34628495 -2.50485478 40.52235992 -4.19140625 43.46875 C-4.57304932 44.11658447 -4.95469238 44.76441895 -5.34790039 45.43188477 C-5.9491272 46.45560181 -5.9491272 46.45560181 -6.5625 47.5 C-14.3619677 60.34024832 -25.83180702 74.93752042 -41 79 C-46.59629926 79.69328356 -51.24383762 80.03303669 -56.1875 77.125 C-59.65194756 73.0632339 -59.40006605 69.54141337 -59.33203125 64.33984375 C-57.22609343 43.15658682 -36.32052643 20.43572662 -21 7 C-14.57254694 1.78576097 -8.48831737 -2.11093006 0 0 Z M-19.71606445 16.15966797 C-20.22226318 16.68447754 -20.72846191 17.20928711 -21.25 17.75 C-21.79938232 18.31219238 -22.34876465 18.87438477 -22.91479492 19.45361328 C-34.41764083 31.51111065 -46.15050854 46.50217946 -50 63 C-49.7138877 66.31460798 -49.7138877 66.31460798 -49 69 C-44.64797478 70.3161754 -41.17864819 69.62134498 -37 68 C-22.98532622 60.12712065 -14.40241658 48.12688439 -6 34.8125 C-5.53118408 34.08909424 -5.06236816 33.36568848 -4.5793457 32.62036133 C-0.96162713 26.73301435 1.85978744 20.04100097 0.375 13.0625 C-1.17341935 10.73987098 -2.60332068 9.42302835 -5 8 C-10.61267814 8 -15.89085648 12.39803857 -19.71606445 16.15966797 Z " fill="#000000" transform="translate(808,68)"/>
<path d="M0 0 C0.78375 0.04125 1.5675 0.0825 2.375 0.125 C5.93596015 7.24692031 3.14427382 18.83924097 2.6628418 26.71459961 C1.68253964 42.80558612 1.14022894 58.87957244 1.07543945 75.0010376 C1.06686531 77.02967069 1.05325573 79.05828922 1.03442383 81.08685303 C1.01060187 83.94224491 1.00785633 86.79687025 1.01171875 89.65234375 C1.00258957 90.49350235 0.99346039 91.33466095 0.98405457 92.2013092 C1.02760225 97.83843399 2.20040473 101.92641898 4.375 107.125 C4.75 110 4.75 110 4.375 112.125 C0.9397952 114.41513653 -0.610331 114.30342973 -4.625 114.125 C-8.68273395 107.06807138 -8.79205615 100.03322037 -8.66259766 92.0793457 C-8.65459641 91.31877365 -8.64659515 90.5582016 -8.63835144 89.77458191 C-8.61068566 87.28321642 -8.57510411 84.79203855 -8.5390625 82.30078125 C-8.51724902 80.54974301 -8.49580151 78.79870017 -8.47470093 77.0476532 C-8.4293373 73.38368281 -8.38015166 69.71978989 -8.328125 66.0559082 C-8.26214618 61.39411432 -8.20471932 56.73226408 -8.15009499 52.0703249 C-8.10691284 48.4539914 -8.05957542 44.83772122 -8.01099777 41.22145653 C-7.98832954 39.50453351 -7.96679728 37.78759505 -7.94649124 36.07064247 C-7.51347099 0.35778433 -7.51347099 0.35778433 0 0 Z " fill="#000000" transform="translate(739.625,30.875)"/>
</svg>
