<?xml version="1.0" encoding="UTF-8"?>
<svg id="Layer_1" data-name="Layer 1" xmlns="http://www.w3.org/2000/svg" viewBox="0 0 841.89 595.28">
  <defs>
    <style>
      .cls-1 {
        fill: #8dc63f;
      }
    </style>
  </defs>
  <polygon class="cls-1" points="69.34 315.83 52.11 315.83 75.41 266.17 30.95 266.17 30.95 329.11 92.59 329.11 92.59 266.17 91.77 266.17 69.34 315.83"/>
  <g>
    <path class="cls-1" d="M153.89,282.71c-1.2-1.11-2.67-1.97-4.37-2.55-1.68-.59-3.57-.85-5.61-.85h-28.95v36.75h10.04v-12.37h18.57c4.57,0,8.11-1.03,10.48-3.05,2.42-2.09,3.65-5.1,3.65-9.01,0-1.83-.33-3.5-1-5.03-.66-1.5-1.6-2.8-2.81-3.9ZM125,287.71h17.96c1.62,0,2.84.35,3.67,1.03.74.63,1.13,1.58,1.13,2.85,0,1.14-.38,2.03-1.15,2.65-.81.68-2.04,1.01-3.59,1.01h-18.01v-7.54Z"/>
    <polygon class="cls-1" points="197.18 297.38 182.53 279.31 171.48 279.31 171.48 316.06 181.55 316.06 181.55 292.57 197.18 311.76 212.81 292.57 212.81 316.06 222.85 316.06 222.85 279.31 211.84 279.31 197.18 297.38"/>
    <path class="cls-1" d="M279.73,299.92c-.78-1.09-1.85-2.11-3.15-3,.81-.72,1.48-1.53,1.93-2.4.62-1.22.95-2.63.95-4.23,0-2.42-.86-4.63-2.54-6.54-1.22-1.38-2.79-2.49-4.6-3.27-1.83-.79-3.76-1.18-5.83-1.18h-29.84v36.75h30.77c2.11,0,4.02-.26,5.68-.78,1.68-.54,3.14-1.29,4.35-2.25,1.23-.97,2.17-2.14,2.82-3.48.65-1.35.99-2.82.99-4.41,0-2.02-.51-3.76-1.53-5.22ZM268.56,292.22c-.53.55-1.11.78-1.79.78h-20.06v-5.29h19.73c.9,0,1.59.26,2.13.72.51.46.75,1.09.75,1.86s-.25,1.44-.75,1.92ZM246.7,301.41h20.22c1.34,0,2.4.33,3.11.94.71.64,1.04,1.41,1.04,2.38,0,.91-.31,1.59-.98,2.09-.7.55-1.84.82-3.33.82h-20.06v-6.23Z"/>
  </g>
  <g>
    <path class="cls-1" d="M302.56,315.33h-6.76v-35.26h6.76v35.26Z"/>
    <path class="cls-1" d="M358.3,315.33h-10.06l-23.47-29.42v29.42h-6.73v-35.26h10.03l23.49,29.41v-29.41h6.74v35.26Z"/>
    <path class="cls-1" d="M419.71,280.07l-19.09,35.26h-7.75l-19.09-35.26h7.44l15.52,29.27,15.52-29.27h7.45Z"/>
    <path class="cls-1" d="M472.37,315.33h-37.17v-35.26h35.86v6.19h-29.12v7.64h20.24v6.18h-20.24v9.03h30.43v6.23Z"/>
    <path class="cls-1" d="M522.49,288.78c-4.49-2.41-9.37-3.61-14.65-3.61-7.69,0-11.52,1.38-11.52,4.18,0,1.65,1.48,2.73,4.33,3.21,3.95.34,7.87.72,11.8,1.09,5.63.56,9.68,1.6,12.09,3.09,2.65,1.65,3.96,4.14,3.96,7.52,0,3.77-1.65,6.7-4.97,8.76-3.3,2.07-8.11,3.08-14.4,3.08-8.87,0-15.97-2.07-21.26-6.19l3.64-4.86c4.73,3.4,10.6,5.1,17.52,5.1,3.89,0,6.9-.52,9.02-1.5,2.14-1.04,3.22-2.38,3.22-4.07,0-1.86-1.31-3.17-3.93-3.95-1.47-.43-3.74-.72-6.81-.87-4.79-.21-7.72-.4-8.82-.5-4.25-.43-7.39-1.37-9.44-2.8-2-1.45-3.02-3.6-3.02-6.37,0-3.36,1.63-6.04,4.86-7.99,3.22-1.98,7.78-2.96,13.61-2.96,7.81,0,14.09,1.71,18.93,5.17l-4.16,4.46Z"/>
    <path class="cls-1" d="M583.74,286.26h-16.51v29.08h-6.75v-29.08h-16.48v-6.19h39.74v6.19Z"/>
    <path class="cls-1" d="M647.69,315.33h-6.75l-.16-29.04-17.36,24.04-17.28-24.24-.19.21v29.04h-6.72v-35.26h10.13l14.06,19.93,14.11-19.93h10.16v35.26Z"/>
    <path class="cls-1" d="M700.33,315.33h-37.15v-35.26h35.87v6.19h-29.15v7.64h20.28v6.18h-20.28v9.03h30.44v6.23Z"/>
    <path class="cls-1" d="M756.08,315.33h-10.05l-23.47-29.42v29.42h-6.72v-35.26h10.04l23.47,29.41v-29.41h6.73v35.26Z"/>
    <path class="cls-1" d="M811.33,286.26h-16.51v29.08h-6.74v-29.08h-16.5v-6.19h39.76v6.19Z"/>
  </g>
</svg>