<?xml version="1.0" encoding="UTF-8"?>
<svg version="1.1" xmlns="http://www.w3.org/2000/svg" width="1240" height="579">
<path d="M0 0 C2.53978363 1.88845202 4.730163 3.78420673 7 6 C7.51046875 5.48050781 8.0209375 4.96101562 8.546875 4.42578125 C17.83251756 -4.48119149 26.84566546 -7.74051344 39.55615234 -7.52172852 C45.41951366 -7.24670806 50.0692279 -6.33668714 55 -3 C56.14855469 -2.27103516 56.14855469 -2.27103516 57.3203125 -1.52734375 C66.40687171 4.81525451 70.67445224 13.96628957 73.6875 24.375 C75.3961485 38.72764738 71.1102334 50.04264733 62.30810547 61.34960938 C61.66059326 62.16655273 61.66059326 62.16655273 61 63 C60.57219238 63.54205078 60.14438477 64.08410156 59.70361328 64.64257812 C48.78152357 78.2821063 36.26754613 91.30848339 22.4609375 102.03515625 C18.87545379 104.89785198 15.59200611 108.06856937 12.2890625 111.25 C9.63171897 113.28155273 8.36247847 114.08557206 5 114 C2.61681106 112.3958121 0.71048276 110.87171496 -1.375 108.9375 C-1.97932861 108.39818848 -2.58365723 107.85887695 -3.20629883 107.30322266 C-5.15474292 105.55340514 -7.0795309 103.78044988 -9 102 C-9.6388916 101.4107373 -10.2777832 100.82147461 -10.93603516 100.21435547 C-14.01917116 97.36555968 -17.08617964 94.50083961 -20.13671875 91.6171875 C-23.30450671 88.63173234 -26.51858498 85.6997813 -29.74145508 82.77392578 C-30.24867348 82.31329239 -30.75589188 81.852659 -31.27848053 81.37806702 C-32.51874702 80.25178034 -33.7593401 79.12585331 -35 78 C-35.00364563 78.90931274 -35.00729126 79.81862549 -35.01104736 80.75549316 C-35.0489984 89.34744593 -35.10593177 97.93902186 -35.18390274 106.53070831 C-35.22332166 110.94724459 -35.25553737 115.36358315 -35.27099609 119.78027344 C-35.28619971 124.04694898 -35.32071026 128.31308078 -35.36830902 132.57951355 C-35.38308479 134.20284789 -35.39103882 135.82625989 -35.39188385 137.44966125 C-35.40841743 153.29353577 -35.40841743 153.29353577 -40 160 C-42.21875 162.05859375 -42.21875 162.05859375 -44.5 163.4375 C-45.2528125 163.91058594 -46.005625 164.38367188 -46.78125 164.87109375 C-51.24349661 167.14149739 -55.01742476 167.03144835 -60 167 C-60.0936164 148.41475578 -60.16406377 129.82955969 -60.20724869 111.24412823 C-60.22783694 102.61376226 -60.25588567 93.98354316 -60.30175781 85.35327148 C-60.34174047 77.8274196 -60.36745996 70.30167414 -60.37635398 62.77571899 C-60.38154948 58.79409308 -60.39368185 54.81277149 -60.42292023 50.83124352 C-60.45027053 47.07604757 -60.45840592 43.32127845 -60.45243073 39.56599236 C-60.45403885 37.54628907 -60.47545822 35.52663122 -60.49768066 33.50704956 C-60.44303795 21.31616913 -57.1848438 11.20189539 -49 2 C-46.18383492 -0.44033317 -43.30601169 -2.29057758 -40 -4 C-39.34773438 -4.33902344 -38.69546875 -4.67804688 -38.0234375 -5.02734375 C-24.85358551 -10.54444391 -11.43326129 -7.49746585 0 0 Z M-31.25 25.375 C-34.42657486 30.13986229 -35.56848731 34.13751897 -34.58203125 39.8828125 C-30.96078878 53.05538579 -18.18955805 64.59027742 -8 73 C-7.4652002 73.45101074 -6.93040039 73.90202148 -6.37939453 74.36669922 C-4.66375682 75.80557402 -2.92962324 77.21835486 -1.1875 78.625 C-0.64818848 79.07576904 -0.10887695 79.52653809 0.44677734 79.9909668 C2.82271818 81.8575667 4.43783435 82.98067556 7.5 83.0859375 C10.8931723 81.61202828 13.45723559 79.43777979 16.1875 77 C16.75702393 76.50306641 17.32654785 76.00613281 17.91333008 75.49414062 C19.07104538 74.48091676 20.22497992 73.46335592 21.375 72.44140625 C22.81174757 71.16698352 24.26412906 69.91023357 25.71875 68.65625 C35.76434368 59.88225046 46.19450197 50.41865306 49.125 36.875 C48.92403258 30.64501007 45.92005677 27.08463307 41.8125 22.625 C37.07310252 19.88668145 32.15208279 18.58817009 26.66796875 19.3046875 C18.31121892 21.67560426 11.82859447 27.79536718 6 34 C5.21625 32.989375 4.4325 31.97875 3.625 30.9375 C-1.07512171 25.42972015 -7.83393703 19.54239215 -15.26953125 18.76171875 C-22.52013231 18.55010367 -26.16324234 20.00564469 -31.25 25.375 Z " fill="#1CA3D5" transform="translate(146,145)"/>
<path d="M0 0 C1.18615402 -0.00021904 1.18615402 -0.00021904 2.39627075 -0.0004425 C4.99882796 0.00025177 7.60131278 0.00802139 10.20385742 0.01586914 C12.01275086 0.01773504 13.82164481 0.01915813 15.63053894 0.02015686 C20.3832642 0.02396845 25.13595873 0.03378714 29.88867188 0.04486084 C34.74177637 0.05510416 39.59488585 0.05966074 44.44799805 0.06469727 C53.96428974 0.07541064 63.48055059 0.09299644 72.99682617 0.11352539 C72.99682617 8.69352539 72.99682617 17.27352539 72.99682617 26.11352539 C70.62986572 26.12810791 68.26290527 26.14269043 65.82421875 26.15771484 C58.00098917 26.20806734 50.17795849 26.2746636 42.3549242 26.3492403 C37.61212172 26.39395473 32.86940535 26.43320851 28.12646484 26.45996094 C23.54866147 26.4859832 18.97118929 26.52637799 14.39359093 26.57671165 C12.647754 26.59338766 10.90185977 26.60489737 9.15595436 26.6111393 C6.70908572 26.6207725 4.26306576 26.64882158 1.81640625 26.68115234 C0.7353083 26.67899971 0.7353083 26.67899971 -0.36763 26.67680359 C-4.74231489 26.75847592 -7.50153739 27.46660403 -11.00317383 30.11352539 C-13.57391322 33.54117791 -13.43354835 36.95323836 -13.00317383 41.11352539 C-11.29358678 44.46938145 -10.1207779 46.54753642 -6.72645569 48.26652527 C-3.710454 49.20456765 -1.27399207 49.358472 1.88183594 49.35302734 C3.62503868 49.35862419 3.62503868 49.35862419 5.40345764 49.36433411 C6.65243332 49.36020004 7.901409 49.35606598 9.18823242 49.35180664 C11.16953595 49.3632824 13.15083979 49.37478843 15.13213253 49.38799572 C19.99858237 49.41805302 24.86491667 49.42893731 29.73144531 49.41894531 C32.46369499 49.41418787 35.19531435 49.42283322 37.92747498 49.44535828 C40.49075834 49.46577515 43.05429187 49.46706481 45.61756897 49.44587708 C57.59135844 49.57922184 67.12566346 53.18131851 75.79760742 61.50415039 C84.08696519 71.33948074 85.89723194 81.63833821 84.99682617 94.11352539 C83.14744533 103.86694791 78.49824048 111.86161531 70.60620117 117.96118164 C58.96701884 125.40952631 47.66501652 125.52923421 34.30151367 125.40649414 C32.49976965 125.40088965 30.69802101 125.39662359 28.89627075 125.39363098 C24.18460167 125.38224934 19.47321589 125.35284067 14.76165771 125.31951904 C9.94164867 125.2886731 5.12159325 125.27509478 0.30151367 125.26000977 C-9.13352581 125.22796368 -18.56828179 125.17525135 -28.00317383 125.11352539 C-28.00317383 116.53352539 -28.00317383 107.95352539 -28.00317383 99.11352539 C-24.4072937 99.09950684 -24.4072937 99.09950684 -20.73876953 99.08520508 C-12.81573029 99.05142865 -4.89295134 98.99587607 3.02987957 98.92962265 C7.83324736 98.89012367 12.63643117 98.85794709 17.43994141 98.8425293 C22.07616435 98.82737862 26.71188156 98.79296149 31.34787941 98.74521637 C33.11604223 98.73038614 34.88427725 98.72248343 36.65250206 98.72164154 C39.13069874 98.71927501 41.60749419 98.69222252 44.08544922 98.65942383 C44.81553192 98.66445419 45.54561462 98.66948456 46.29782104 98.67466736 C51.12571579 98.57588937 53.60537514 97.5424365 56.99682617 94.11352539 C58.1598059 91.78756593 58.16283308 90.32629309 58.18432617 87.73852539 C58.19850586 86.96766602 58.21268555 86.19680664 58.22729492 85.40258789 C57.95683913 82.71636599 57.57831173 81.31582333 55.99682617 79.11352539 C50.12390959 74.95359586 43.62430691 75.70809942 36.67260742 75.74243164 C34.6899775 75.7294944 32.70734744 75.716534 30.72472668 75.70226192 C25.86048409 75.67239399 20.99615052 75.67574016 16.13183594 75.67773438 C13.39788808 75.67777587 10.66433124 75.6670701 7.9304657 75.64598083 C5.36608958 75.62742463 2.80152398 75.6252619 0.23713684 75.64222717 C-11.63855997 75.5413175 -21.42586987 72.60722989 -30.00317383 64.11352539 C-37.3605895 55.16227131 -40.98733655 44.69085777 -40.00317383 33.11352539 C-38.22836476 23.28918856 -34.45312464 15.81848112 -27.00317383 9.11352539 C-26.26067383 8.43290039 -25.51817383 7.75227539 -24.75317383 7.05102539 C-16.9812343 1.57534072 -9.38761482 -0.04564449 0 0 Z " fill="#E80E8C" transform="translate(1072.003173828125,134.886474609375)"/>
<path d="M0 0 C0.83015625 0.63550781 1.6603125 1.27101562 2.515625 1.92578125 C3.79179688 2.89451172 3.79179688 2.89451172 5.09375 3.8828125 C15.51932632 12.50150212 22.24084511 23.84615442 25.515625 36.92578125 C25.70640625 37.66570312 25.8971875 38.405625 26.09375 39.16796875 C29.0718266 58.63576578 24.81825544 76.20519994 13.26171875 92.0078125 C3.54754706 103.45037059 -9.66131465 111.29432369 -24.484375 113.92578125 C-35.37483322 114.65313426 -47.30056626 115.2814133 -57.484375 110.92578125 C-59.17240234 110.21228516 -59.17240234 110.21228516 -60.89453125 109.484375 C-76.48386216 102.48405701 -87.28120673 90.67247289 -94.2578125 75.19921875 C-99.41781898 61.42824605 -100.00966032 43.5168183 -94.73828125 29.66796875 C-94.32449219 28.76304687 -93.91070313 27.858125 -93.484375 26.92578125 C-92.84822266 25.50652344 -92.84822266 25.50652344 -92.19921875 24.05859375 C-85.00602554 9.59206034 -72.52707808 -1.41713383 -57.484375 -7.07421875 C-56.70320312 -7.39390625 -55.92203125 -7.71359375 -55.1171875 -8.04296875 C-37.20263784 -14.22434691 -15.36937794 -10.74475973 0 0 Z M-63.796875 27.17578125 C-71.50764977 37.0114002 -73.39776614 46.66024304 -72.484375 58.92578125 C-70.32520606 69.07127385 -64.35500155 77.7190372 -55.84375 83.640625 C-46.22448167 88.88025957 -35.99384382 90.51696401 -25.421875 87.80078125 C-15.49155013 84.44405172 -7.37569685 77.67373821 -2.1328125 68.58203125 C2.44105429 58.44713218 2.475027 48.26584291 -1.19140625 37.8671875 C-5.19010635 28.77044678 -12.46693159 21.35312043 -21.671875 17.55078125 C-36.47309771 12.05113468 -52.8709812 15.3277532 -63.796875 27.17578125 Z " fill="#E80E8C" transform="translate(847.484375,146.07421875)"/>
<path d="M0 0 C11.76580296 10.92538846 18.4370201 26.09764046 19.5093689 42.04458618 C19.63008512 46.28683251 19.58877192 50.52641316 19.54296875 54.76953125 C19.53735734 56.32036422 19.53309457 57.8712026 19.53010559 59.42204285 C19.51877815 63.45801075 19.48941902 67.4936427 19.45599365 71.52947998 C19.42502808 75.6660915 19.4115443 79.80275854 19.39648438 83.93945312 C19.36453447 92.02230501 19.31186937 100.10482172 19.25 108.1875 C10.67 108.1875 2.09 108.1875 -6.75 108.1875 C-6.7593457 106.11936035 -6.76869141 104.0512207 -6.77832031 101.92041016 C-6.81222455 95.0551026 -6.86784731 88.19009138 -6.93390274 81.32502174 C-6.97326023 77.16637313 -7.0055057 73.00793253 -7.02099609 68.84912109 C-7.03624067 64.82880886 -7.07082217 60.80906897 -7.11830902 56.78901291 C-7.13304301 55.2622312 -7.14103639 53.73536773 -7.14188385 52.20851517 C-7.15584151 39.66033961 -8.98496811 29.62363642 -17.75 20.1875 C-24.90174902 13.39726796 -33.42252899 10.03723206 -43.25 9.6875 C-53.07747101 10.03723206 -61.59825098 13.39726796 -68.75 20.1875 C-78.15168951 30.30904044 -79.35199104 41.17300939 -79.359375 54.4765625 C-79.37438268 56.03170471 -79.39111519 57.58683113 -79.40948486 59.14193726 C-79.45288089 63.20246172 -79.4730952 67.2627713 -79.48822021 71.32348633 C-79.50789231 75.48010826 -79.54985038 79.63650147 -79.58984375 83.79296875 C-79.66484486 91.92444687 -79.71325353 100.05575895 -79.75 108.1875 C-88.33 108.1875 -96.91 108.1875 -105.75 108.1875 C-105.81819379 99.43281606 -105.87305454 90.67831296 -105.90543652 81.92342186 C-105.92099025 77.85672389 -105.94203636 73.79021945 -105.97631836 69.72363281 C-106.00928419 65.78784958 -106.02693004 61.85225068 -106.03463173 57.91633987 C-106.04010934 56.42627695 -106.05080222 54.93622234 -106.06719017 53.44623947 C-106.20038154 40.81648309 -105.19553537 28.37876269 -99.1875 17 C-98.84090332 16.33347412 -98.49430664 15.66694824 -98.13720703 14.98022461 C-90.52944142 0.9865875 -77.62880776 -9.28803766 -62.4375 -14.1015625 C-39.35883912 -20.20667337 -18.36917235 -15.33856815 0 0 Z " fill="#1CA3D5" transform="translate(453.75,151.8125)"/>
<path d="M0 0 C8.25 0 16.5 0 25 0 C25.01981934 1.95220459 25.03963867 3.90440918 25.06005859 5.91577148 C25.12805839 12.39384964 25.20485022 18.87177788 25.28752708 25.34968472 C25.33729571 29.27402202 25.38362603 33.19833491 25.421875 37.12280273 C25.45897514 40.91603254 25.50539904 44.70904786 25.55806351 48.50209236 C25.57647703 49.94318917 25.59163214 51.38433173 25.60334396 52.82549858 C25.72420636 67.19453859 27.40077594 79.40077594 38 90 C48.09483013 97.06299356 56.69656508 99.00436203 69 98 C79.91539717 95.61055982 87.06503471 89.88066412 93.45703125 80.953125 C98.28595305 71.71093544 98.4684334 62.35650776 98.51171875 52.1484375 C98.52859672 50.63813854 98.54675106 49.12785335 98.56611633 47.61758423 C98.6132847 43.67547922 98.64330711 39.73343008 98.66955566 35.7911377 C98.69953021 31.75517749 98.74600171 27.71940928 98.79101562 23.68359375 C98.87667069 15.78914178 98.94265422 7.89470841 99 0 C107.25 0 115.5 0 124 0 C124.09081899 9.42386774 124.16401234 18.8474389 124.20724869 28.27164745 C124.228013 32.64895742 124.25612313 37.02594924 124.30175781 41.40307617 C124.34561827 45.63712446 124.3692207 49.87086917 124.37950897 54.10512733 C124.38682899 55.71047041 124.4011205 57.31579923 124.42292023 58.92101097 C124.65994076 77.11831197 120.0791848 92.2757065 107.26953125 105.72265625 C106.14611328 106.84994141 106.14611328 106.84994141 105 108 C104.38511719 108.63808594 103.77023437 109.27617187 103.13671875 109.93359375 C92.05320614 120.58990459 77.05822376 124.95484867 62 125.375 C44.25731839 124.8799475 29.39962667 118.75645046 17 106 C16.36578125 105.38640625 15.7315625 104.7728125 15.078125 104.140625 C2.20522246 90.81204449 -0.47467568 73.66630939 -0.29296875 55.95703125 C-0.28736124 54.33607886 -0.28309661 52.71512132 -0.28010559 51.09416199 C-0.26874757 46.86418178 -0.23936036 42.63451929 -0.20599365 38.40466309 C-0.17509573 34.07385554 -0.16155846 29.74299578 -0.14648438 25.41210938 C-0.11448018 16.94124546 -0.06178829 8.47069907 0 0 Z " fill="#E80E8C" transform="translate(892,135)"/>
<path d="M0 0 C3.59756367 3.07162863 6.99109784 6.33091733 10.34130859 9.67089844 C11.53046875 10.70150391 11.53046875 10.70150391 12.74365234 11.75292969 C13.27087891 12.38585937 13.79810547 13.01878906 14.34130859 13.67089844 C13.98674832 17.21787542 12.45914331 18.90897552 9.96240234 21.34277344 C9.28886719 22.00664062 8.61533203 22.67050781 7.92138672 23.35449219 C7.21433594 24.03640625 6.50728516 24.71832031 5.77880859 25.42089844 C5.06789063 26.11828125 4.35697266 26.81566406 3.62451172 27.53417969 C1.87000146 29.25336424 0.10887507 30.96515716 -1.65869141 32.67089844 C-4.74497841 31.18976968 -7.05401398 29.60147718 -9.59619141 27.29589844 C-10.29615234 26.67328125 -10.99611328 26.05066406 -11.71728516 25.40917969 C-12.35794922 24.83554688 -12.99861328 24.26191406 -13.65869141 23.67089844 C-22.18955717 16.2063909 -30.50625242 14.07151016 -41.70166016 14.33886719 C-52.36363533 15.23350479 -60.7594572 20.65969975 -67.65869141 28.67089844 C-73.61053837 38.02380081 -74.44718582 46.77634887 -73.65869141 57.67089844 C-71.44332724 67.15265709 -65.48879775 75.03322187 -57.65869141 80.67089844 C-48.13277193 86.13537938 -38.40534375 87.12585345 -27.58056641 85.09277344 C-20.0656609 82.73094599 -15.19268511 78.09865491 -9.65869141 72.67089844 C-7.68804127 70.96378834 -5.67907987 69.31911008 -3.65869141 67.67089844 C0.98211746 69.76781413 4.07458812 72.9991835 7.65380859 76.54589844 C8.311875 77.17109375 8.96994141 77.79628906 9.64794922 78.44042969 C10.26476562 79.05015625 10.88158203 79.65988281 11.51708984 80.28808594 C12.08339111 80.84093262 12.64969238 81.3937793 13.2331543 81.96337891 C14.34130859 83.67089844 14.34130859 83.67089844 14.15014648 85.72290039 C9.7115579 96.41275802 -4.82986632 104.11957854 -14.72119141 108.48339844 C-31.46147242 115.00781565 -48.68939855 114.03348245 -65.13525391 107.23339844 C-77.59278987 101.04922784 -87.093159 91.95360794 -93.65869141 79.67089844 C-94.05572266 78.95675781 -94.45275391 78.24261719 -94.86181641 77.50683594 C-102.21046085 62.86438768 -102.47797602 45.09260919 -97.65869141 29.67089844 C-91.51336596 12.96329487 -80.70560095 1.00796879 -64.65087891 -6.79003906 C-43.82638642 -16.00394495 -18.22135486 -14.60068529 0 0 Z " fill="#E80E8C" transform="translate(678.65869140625,147.3291015625)"/>
<path d="M0 0 C8.58 0 17.16 0 26 0 C26 24.42 26 48.84 26 74 C42.17 74 58.34 74 75 74 C75 82.25 75 90.5 75 99 C58.83 99 42.66 99 26 99 C25.9993902 115.07839235 25.9993902 115.07839235 31 129 C31.5775 130.051875 32.155 131.10375 32.75 132.1875 C38.56544144 139.4568018 45.79581656 144.99868751 55 147 C56.58567839 147.1421701 58.17518632 147.24504041 59.765625 147.31640625 C60.56774414 147.35451416 61.36986328 147.39262207 62.19628906 147.43188477 C63.20401367 147.47498779 64.21173828 147.51809082 65.25 147.5625 C68.4675 147.706875 71.685 147.85125 75 148 C75 156.58 75 165.16 75 174 C53.93633516 174.5851018 36.74876041 172.59475902 20.125 158.1875 C7.57949393 146.11609736 0.18075288 130.43670085 -0.36076355 112.91899109 C-0.36928629 110.81278115 -0.36188598 108.70646117 -0.34057617 106.6003418 C-0.34101425 105.43776855 -0.34145233 104.27519531 -0.34190369 103.07739258 C-0.33983542 99.28448924 -0.3165974 95.49204361 -0.29296875 91.69921875 C-0.2873658 89.04978183 -0.2829512 86.40036934 -0.28010559 83.75093079 C-0.2708378 77.52161802 -0.24629669 71.29246609 -0.21605712 65.06322366 C-0.18234749 57.96271735 -0.16598579 50.86220274 -0.15097082 43.76163614 C-0.11974136 29.17432986 -0.06479654 14.58719697 0 0 Z " fill="#1CA3D5" transform="translate(490,86)"/>
<path d="M0 0 C3.25875 0.04125 6.5175 0.0825 9.875 0.125 C9.875 8.705 9.875 17.285 9.875 26.125 C6.61625 26.2075 3.3575 26.29 0 26.375 C-7.64019233 26.68397192 -14.45199384 27.03762049 -21.125 31.125 C-21.83527344 31.55941406 -22.54554688 31.99382812 -23.27734375 32.44140625 C-31.82337494 38.28198995 -36.60653421 46.16736379 -39.125 56.125 C-39.69549991 61.5173438 -39.73131353 66.87841505 -39.734375 72.29296875 C-39.74938761 73.82426169 -39.76612112 75.35553863 -39.78448486 76.88679504 C-39.82782574 80.87990134 -39.84808269 84.87278938 -39.86322021 88.86608887 C-39.88291259 92.9557773 -39.92486811 97.04523407 -39.96484375 101.13476562 C-40.03978483 109.13147761 -40.08823082 117.12802133 -40.125 125.125 C-48.705 125.125 -57.285 125.125 -66.125 125.125 C-66.26314256 117.88274847 -66.38246754 110.64510981 -66.45458984 103.40258789 C-66.48466826 100.94181791 -66.52554218 98.48115431 -66.57763672 96.02075195 C-66.65084126 92.47320237 -66.68454774 88.92707622 -66.7109375 85.37890625 C-66.74190521 84.2879213 -66.77287292 83.19693634 -66.80477905 82.07289124 C-66.80815914 74.31308448 -64.86846907 70.15037327 -60.125 64.125 C-59.12751246 62.21769009 -58.17567553 60.2842354 -57.3125 58.3125 C-56.91417969 57.41917969 -56.51585937 56.52585938 -56.10546875 55.60546875 C-54.13791663 50.62779706 -53.97258753 46.06802003 -54 40.75 C-53.99613281 40.0075 -53.99226562 39.265 -53.98828125 38.5 C-53.99428099 35.1041459 -54.0873831 32.27309371 -54.9296875 28.95703125 C-55.125 26.125 -55.125 26.125 -53.203125 23.16015625 C-52.28266434 22.14857082 -51.33829262 21.15838632 -50.375 20.1875 C-49.87347412 19.66534912 -49.37194824 19.14319824 -48.85522461 18.60522461 C-35.61015985 5.26080634 -18.45648852 -0.33428165 0 0 Z " fill="#1CA3D5" transform="translate(280.125,134.875)"/>
<path d="M0 0 C8.58 0 17.16 0 26 0 C26 41.25 26 82.5 26 125 C17.42 125 8.84 125 0 125 C0 83.75 0 42.5 0 0 Z " fill="#E80E8C" transform="translate(707,135)"/>
<path d="M0 0 C8.25 0 16.5 0 25 0 C25 41.25 25 82.5 25 125 C16.75 125 8.5 125 0 125 C0 83.75 0 42.5 0 0 Z " fill="#1CA3D5" transform="translate(306,135)"/>
<path d="M0 0 C3.02286884 1.38548155 4.66871425 2.66871425 7 5 C7.763125 4.175 8.52625 3.35 9.3125 2.5 C13.08284758 -0.63449324 16.59626185 -0.71824432 21.37109375 -0.484375 C25.63629879 0.30148744 27.1918686 1.68784502 30 5 C31.80031405 9.35853333 32.23837982 13.01660012 32.1953125 17.7109375 C32.18886719 18.95488281 32.18242188 20.19882812 32.17578125 21.48046875 C32.15902344 22.76566406 32.14226562 24.05085938 32.125 25.375 C32.11597656 26.68339844 32.10695313 27.99179687 32.09765625 29.33984375 C32.07415085 32.5600837 32.04129087 35.77994707 32 39 C29.36 39 26.72 39 24 39 C23.99589111 38.20827393 23.99178223 37.41654785 23.98754883 36.60083008 C23.95459846 33.00396748 23.88394957 29.40879525 23.8125 25.8125 C23.80669922 24.56662109 23.80089844 23.32074219 23.79492188 22.03710938 C23.91871063 14.76398025 23.91871063 14.76398025 20.61328125 8.63671875 C18.14313863 6.76777684 18.14313863 6.76777684 15.375 7 C12.88799346 8.04716065 11.6364318 8.87263866 10 11 C8.96285478 14.11143567 8.79968139 16.49468096 8.68359375 19.76171875 C8.62075195 21.43911133 8.62075195 21.43911133 8.55664062 23.15039062 C8.51732422 24.31763672 8.47800781 25.48488281 8.4375 26.6875 C8.37272461 28.45577148 8.37272461 28.45577148 8.30664062 30.25976562 C8.20048824 33.17305883 8.09843758 36.08643757 8 39 C5.69 39 3.38 39 1 39 C0.98541748 38.30962646 0.97083496 37.61925293 0.95581055 36.90795898 C0.88089383 33.7506034 0.78437783 30.59425499 0.6875 27.4375 C0.66494141 26.35146484 0.64238281 25.26542969 0.61914062 24.14648438 C0.4163779 18.08203562 0.05212237 13.30965327 -3 8 C-5.33333333 6.66666667 -5.33333333 6.66666667 -8 7 C-11.71261227 8.75113525 -11.71261227 8.75113525 -14 12 C-14.15411106 14.0307477 -14.24982453 16.06606421 -14.31640625 18.1015625 C-14.35830078 19.31328125 -14.40019531 20.525 -14.44335938 21.7734375 C-14.48267578 23.04445313 -14.52199219 24.31546875 -14.5625 25.625 C-14.60568359 26.90375 -14.64886719 28.1825 -14.69335938 29.5 C-14.79969886 32.66655348 -14.90172833 35.83318753 -15 39 C-17.64 39 -20.28 39 -23 39 C-23.33 26.46 -23.66 13.92 -24 1 C-21.36 1 -18.72 1 -16 1 C-15.67 1.66 -15.34 2.32 -15 3 C-14.38125 2.505 -13.7625 2.01 -13.125 1.5 C-8.7276195 -0.61074264 -4.8013675 -0.60017094 0 0 Z " fill="#000000" transform="translate(1057,455)"/>
<path d="M0 0 C2.97 0 5.94 0 9 0 C11.31 8.91 13.62 17.82 16 27 C18.59122426 18.48945276 18.59122426 18.48945276 21.17553711 9.97680664 C21.4978833 8.92356201 21.82022949 7.87031738 22.15234375 6.78515625 C22.48226318 5.70113525 22.81218262 4.61711426 23.15209961 3.50024414 C24 1 24 1 25 0 C27.33297433 -0.04092937 29.66705225 -0.04241723 32 0 C32.20157715 0.61520508 32.4031543 1.23041016 32.61083984 1.86425781 C33.52905198 4.66055921 34.45197451 7.45528393 35.375 10.25 C35.69210937 11.21808594 36.00921875 12.18617188 36.3359375 13.18359375 C36.6453125 14.11816406 36.9546875 15.05273438 37.2734375 16.015625 C37.55622559 16.87446289 37.83901367 17.73330078 38.13037109 18.61816406 C39.06663609 21.32216026 39.06663609 21.32216026 41 25 C44.465 12.625 44.465 12.625 48 0 C50.64 0 53.28 0 56 0 C54.53320468 7.37405296 52.38247304 14.43982189 50.05883789 21.58691406 C49.43023533 23.52236778 48.80946013 25.4602152 48.18945312 27.3984375 C45.13106216 36.86893784 45.13106216 36.86893784 44 38 C41.66702567 38.04092937 39.33294775 38.04241723 37 38 C33.35505296 29.52906163 30.66804955 20.81331122 28 12 C27.6443396 13.1281311 27.6443396 13.1281311 27.28149414 14.27905273 C26.21168355 17.66621828 25.13715759 21.05186933 24.0625 24.4375 C23.68931641 25.62150391 23.31613281 26.80550781 22.93164062 28.02539062 C22.57392578 29.15009766 22.21621094 30.27480469 21.84765625 31.43359375 C21.51773682 32.47572021 21.18781738 33.51784668 20.84790039 34.59155273 C20 37 20 37 19 38 C16.32941149 38.14115161 13.67567762 38.04247107 11 38 C9.43170027 32.74945688 7.86516563 27.49839172 6.30029297 22.24682617 C5.7672545 20.45891954 5.23372672 18.67115872 4.69970703 16.88354492 C3.93394538 14.3198772 3.16992244 11.75569697 2.40625 9.19140625 C2.16563843 8.3872377 1.92502686 7.58306915 1.67712402 6.75453186 C0 1.11387171 0 1.11387171 0 0 Z " fill="#000000" transform="translate(302,456)"/>
<path d="M0 0 C2.64 0 5.28 0 8 0 C8.79298919 2.832969 9.58442272 5.66635785 10.375 8.5 C10.59671875 9.29148437 10.8184375 10.08296875 11.046875 10.8984375 C11.26601562 11.68476563 11.48515625 12.47109375 11.7109375 13.28125 C11.90993652 13.99345703 12.10893555 14.70566406 12.31396484 15.43945312 C13.253985 18.94796965 14.1190471 22.47618841 15 26 C17.97 17.42 20.94 8.84 24 0 C26.31 0 28.62 0 31 0 C39 18.85106383 39 18.85106383 39 27 C39.66 27 40.32 27 41 27 C41.1134375 25.87464844 41.226875 24.74929688 41.34375 23.58984375 C41.94645606 18.77562296 43.16528402 14.21875204 44.5 9.5625 C44.72558594 8.74845703 44.95117188 7.93441406 45.18359375 7.09570312 C46.86350356 1.13649644 46.86350356 1.13649644 48 0 C50.67058851 -0.14115161 53.32432238 -0.04247107 56 0 C52.24538208 12.75504954 48.28669163 25.41354373 44 38 C41.36 38 38.72 38 36 38 C33.36 30.08 30.72 22.16 28 14 C26.17130348 16.74304477 25.28510799 18.79550338 24.2734375 21.88671875 C23.9640625 22.82451172 23.6546875 23.76230469 23.3359375 24.72851562 C23.01882812 25.70498047 22.70171875 26.68144531 22.375 27.6875 C21.88773438 29.16959961 21.88773438 29.16959961 21.390625 30.68164062 C20.58968568 33.11979416 19.79298249 35.55924933 19 38 C16.36 38 13.72 38 11 38 C0 5.60286678 0 5.60286678 0 0 Z " fill="#000000" transform="translate(154,456)"/>
<path d="M0 0 C2.64 0 5.28 0 8 0 C10.92608728 8.19304439 12.95838673 16.5537319 15 25 C16.87922366 22.18116451 17.7292963 20.08947666 18.7265625 16.89453125 C19.0359375 15.91162109 19.3453125 14.92871094 19.6640625 13.91601562 C19.98117188 12.89185547 20.29828125 11.86769531 20.625 10.8125 C20.94984375 9.77673828 21.2746875 8.74097656 21.609375 7.67382812 C22.41053337 5.11719037 23.20722579 2.55924752 24 0 C26.64 0 29.28 0 32 0 C34.64 8.58 37.28 17.16 40 26 C42.64 17.42 45.28 8.84 48 0 C50.64 0 53.28 0 56 0 C53.98106905 8.79784514 51.32808227 17.24673134 48.3125 25.75 C47.89677734 26.9359375 47.48105469 28.121875 47.05273438 29.34375 C46.03991112 32.23087835 45.02227771 35.11620876 44 38 C41.36 38 38.72 38 36 38 C33.36 29.75 30.72 21.5 28 13 C25.03 21.25 22.06 29.5 19 38 C16.36 38 13.72 38 11 38 C9.42987374 32.91075614 7.86338538 27.82041253 6.30029297 22.72900391 C5.76776973 20.99627272 5.23424471 19.26384909 4.69970703 17.53173828 C3.93259803 15.04539428 3.16907066 12.55797502 2.40625 10.0703125 C2.16563843 9.29317902 1.92502686 8.51604553 1.67712402 7.71536255 C0 2.22774341 0 2.22774341 0 0 Z " fill="#000000" transform="translate(228,456)"/>
<path d="M0 0 C4.25701393 1.75508469 6.45646691 4.13034706 8.875 8 C11.76498339 15.70662237 11.60383804 22.80712617 9.125 30.625 C7.02100071 35.06677628 3.3300236 37.8349882 -1 40 C-2.93359586 40.14851844 -4.87342097 40.22130833 -6.8125 40.25 C-7.85019531 40.27578125 -8.88789063 40.3015625 -9.95703125 40.328125 C-13 40 -13 40 -18 37 C-18 42.94 -18 48.88 -18 55 C-20.64 55 -23.28 55 -26 55 C-26.33 37.18 -26.66 19.36 -27 1 C-24.36 1 -21.72 1 -19 1 C-18.67 1.99 -18.34 2.98 -18 4 C-17.2575 3.34 -16.515 2.68 -15.75 2 C-10.96670436 -1.16992751 -5.49334778 -0.84682975 0 0 Z M-15 9 C-18.45600019 12.53988369 -18.4616463 15.60013969 -18.5 20.4375 C-18.5309375 21.73558594 -18.561875 23.03367187 -18.59375 24.37109375 C-17.86224075 28.84196281 -16.53190454 30.25353353 -13 33 C-9.08702676 34.11799235 -7.00708715 34.43487854 -3.25 32.8125 C-0.30463821 30.43984745 1.63525844 28.37816907 2.6171875 24.66796875 C3.32663624 17.84221195 2.60177588 13.90266382 -1.25 8.125 C-6.13379976 4.98541444 -10.62925183 5.47911953 -15 9 Z " fill="#000000" transform="translate(435,455)"/>
<path d="M0 0 C1.65 0 3.3 0 5 0 C7.64 8.58 10.28 17.16 13 26 C16.11226813 20.06312589 16.11226813 20.06312589 19.22167969 14.12475586 C21.72439086 9.36013547 24.29719922 4.65412191 27 0 C28.65 0 30.3 0 32 0 C32 12.54 32 25.08 32 38 C30.02 38 28.04 38 26 38 C25.67 31.73 25.34 25.46 25 19 C23.89591797 21.05734375 23.89591797 21.05734375 22.76953125 23.15625 C21.78485147 24.93805151 20.79911963 26.71927189 19.8125 28.5 C19.08836914 29.85931641 19.08836914 29.85931641 18.34960938 31.24609375 C17.86943359 32.10332031 17.38925781 32.96054687 16.89453125 33.84375 C16.45987549 34.63974609 16.02521973 35.43574219 15.57739258 36.25585938 C15.05685303 36.83142578 14.53631348 37.40699219 14 38 C12.35 38 10.7 38 9 38 C7.02 31.4 5.04 24.8 3 18 C0.49366144 25.50025405 0.49366144 25.50025405 -1.6875 33.0625 C-1.93886719 34.00222656 -2.19023437 34.94195312 -2.44921875 35.91015625 C-2.63097656 36.59980469 -2.81273437 37.28945313 -3 38 C-5.31 38 -7.62 38 -10 38 C-7.14528697 25.18737623 -3.70124248 12.59275434 0 0 Z " fill="#000000" transform="translate(392,293)"/>
<path d="M0 0 C5.06660285 4.22216904 7.65451652 7.4301325 8.41015625 14.14453125 C8.57850116 21.6029428 8.58411248 27.61449625 3.28125 33.36328125 C2.6934375 33.84152344 2.105625 34.31976563 1.5 34.8125 C0.61828125 35.54919922 0.61828125 35.54919922 -0.28125 36.30078125 C-5.10690265 39.66777072 -11.39299161 39.02293343 -17 38.5 C-21.87137861 36.91075592 -25.29397668 33.8095927 -28 29.5 C-31.04565124 21.27674165 -30.46004232 14.40018247 -27 6.5 C-21.41646169 -2.35664697 -9.36757769 -4.63231864 0 0 Z M-20 9.5 C-22.21458306 14.60316967 -22.50728431 19.19220596 -21 24.5 C-18.93920539 28.2094303 -17.53429917 30.14380056 -14 32.5 C-10.60966458 32.86851472 -8.46741012 32.69566005 -5.3125 31.375 C-1.74482355 28.48228936 -0.25966077 25.68755308 0.28515625 21.09765625 C0.46709305 15.8373097 0.0481908 11.96342225 -3 7.5 C-5.44907109 4.87599526 -6.78425618 4.53196205 -10.375 4 C-15.06117585 4.64636908 -16.82411915 6.02868837 -20 9.5 Z " fill="#000000" transform="translate(1002,456.5)"/>
<path d="M0 0 C5.03043987 3.68080966 8.24164202 7.7510221 9.5625 13.875 C10.35089567 21.43515135 8.85229831 27.32186468 4.75 33.6875 C0.27719627 38.16030373 -3.59904283 39.10922206 -9.8125 39.375 C-15.89752784 39.208477 -20.07740593 38.23509407 -24.4375 33.875 C-29.02583962 28.45004004 -29.09623527 22.08513367 -28.890625 15.2265625 C-28.05304859 9.03138523 -25.28383086 5.58945008 -20.8125 1.4375 C-14.82232811 -2.50340256 -6.63622873 -2.17185667 0 0 Z M-18.4375 8.875 C-21.21464193 13.37132503 -21.09081918 18.75998887 -20.4375 23.875 C-19.20226355 27.35149022 -17.53795392 30.03131866 -14.5625 32.3125 C-11.64436068 33.08494864 -9.44882541 33.24373372 -6.4375 32.875 C-2.63649526 30.66511352 -0.43789066 28.08940606 1.1171875 23.93359375 C2.14315096 19.19076266 1.90035164 14.18710598 -0.55859375 9.9375 C-2.30156712 7.78593643 -3.94778956 6.11985522 -6.4375 4.875 C-11.91054681 4.35867483 -14.61384296 4.83284827 -18.4375 8.875 Z " fill="#000000" transform="translate(755.4375,456.125)"/>
<path d="M0 0 C2.64 0 5.28 0 8 0 C8.01458252 0.76143311 8.02916504 1.52286621 8.04418945 2.30737305 C8.11880541 5.76791888 8.21542259 9.22751445 8.3125 12.6875 C8.33505859 13.88568359 8.35761719 15.08386719 8.38085938 16.31835938 C8.41630859 17.47529297 8.45175781 18.63222656 8.48828125 19.82421875 C8.51446533 20.88729248 8.54064941 21.95036621 8.56762695 23.0456543 C9.05557628 26.37974508 10.00000622 28.30706169 12 31 C14.34872531 32.16977494 14.34872531 32.16977494 17 32 C20.48634601 30.37844371 21.84302194 29.23546708 24 26 C24.36844508 23.1913957 24.36844508 23.1913957 24.4140625 20.01953125 C24.45273437 18.85615234 24.49140625 17.69277344 24.53125 16.49414062 C24.57765625 14.67172852 24.57765625 14.67172852 24.625 12.8125 C24.66367187 11.58595703 24.70234375 10.35941406 24.7421875 9.09570312 C24.83656103 6.06395344 24.92214549 3.03221159 25 0 C27.64 0 30.28 0 33 0 C33 12.54 33 25.08 33 38 C30.69 38 28.38 38 26 38 C25.67 37.01 25.34 36.02 25 35 C24.236875 35.66 23.47375 36.32 22.6875 37 C18.16430729 39.99755526 13.21636286 39.89910563 8 39 C4.6110501 37.36256678 2.57610007 35.13628645 0.85986328 31.7512207 C-0.17719832 28.43303582 -0.22593299 25.64339398 -0.1953125 22.16796875 C-0.18886719 20.87568359 -0.18242188 19.58339844 -0.17578125 18.25195312 C-0.15907327 16.8971327 -0.14214342 15.54231499 -0.125 14.1875 C-0.11496003 12.81315749 -0.10583596 11.43880797 -0.09765625 10.06445312 C-0.07411242 6.70945683 -0.04122567 3.35481801 0 0 Z " fill="#000000" transform="translate(788,456)"/>
<path d="M0 0 C4.43400363 1.97946591 6.57388327 4.12139116 8.40673828 8.62133789 C9.7696315 14.08581058 9.29756819 19.84660019 9.1875 25.4375 C9.16719727 27.39333008 9.16719727 27.39333008 9.14648438 29.38867188 C9.11127334 32.59287622 9.06202094 35.79622105 9 39 C6.36 39 3.72 39 1 39 C0.98541748 38.23856689 0.97083496 37.47713379 0.95581055 36.69262695 C0.88119459 33.23208112 0.78457741 29.77248555 0.6875 26.3125 C0.66494141 25.11431641 0.64238281 23.91613281 0.61914062 22.68164062 C0.58369141 21.52470703 0.54824219 20.36777344 0.51171875 19.17578125 C0.48553467 18.11270752 0.45935059 17.04963379 0.43237305 15.9543457 C-0.05538483 12.62156308 -1.00413086 10.69389453 -3 8 C-5.30371421 6.82221688 -5.30371421 6.82221688 -8 7 C-12.29799298 8.57957082 -12.29799298 8.57957082 -15 12 C-15.15411106 14.0307477 -15.24982453 16.06606421 -15.31640625 18.1015625 C-15.35830078 19.31328125 -15.40019531 20.525 -15.44335938 21.7734375 C-15.48267578 23.04445313 -15.52199219 24.31546875 -15.5625 25.625 C-15.60568359 26.90375 -15.64886719 28.1825 -15.69335938 29.5 C-15.79969886 32.66655348 -15.90172833 35.83318753 -16 39 C-18.64 39 -21.28 39 -24 39 C-24.33 26.46 -24.66 13.92 -25 1 C-22.36 1 -19.72 1 -17 1 C-16.67 1.99 -16.34 2.98 -16 4 C-15.401875 3.34 -14.80375 2.68 -14.1875 2 C-9.5261869 -0.92474547 -5.36601303 -0.76432197 0 0 Z " fill="#000000" transform="translate(569,455)"/>
<path d="M0 0 C4.22199517 4.63389713 6.19443334 9.27983742 5.91015625 15.6328125 C5.01179177 21.26525495 3.0932918 26.88412097 -1.25 30.75 C-8.00057789 35.11802099 -13.47590261 36.73558376 -21.4375 35.8125 C-27.33676349 34.07173372 -29.94362237 31.64227202 -33.4375 26.8125 C-35.88287761 21.92174478 -35.18518701 14.50417324 -33.75390625 9.3515625 C-31.22701959 3.8783889 -27.52264705 0.80291745 -22.5 -2.4375 C-15.19807488 -5.0927455 -6.37878166 -4.80788767 0 0 Z M-23.1875 6.0625 C-26.75742449 10.42574105 -28.7597073 13.66055868 -28.4375 19.375 C-27.76568551 23.85124714 -26.03892104 26.0016348 -22.4375 28.8125 C-19.36555092 30.34847454 -16.83505707 30.0390038 -13.4375 29.8125 C-8.76147346 28.03560991 -5.72155261 25.56570299 -2.4375 21.8125 C-0.7789141 16.83674229 -0.67431054 11.87760089 -2.5 6.9375 C-5.11738323 4.06682162 -7.80043925 3.06893917 -11.4375 1.8125 C-16.05206974 1.8125 -19.64520568 3.16425919 -23.1875 6.0625 Z " fill="#000000" transform="translate(289.4375,296.1875)"/>
<path d="M0 0 C2.28027344 -0.31225586 2.28027344 -0.31225586 5 0 C6.83691406 2.09545898 6.83691406 2.09545898 8.515625 4.99609375 C9.12664063 6.02927734 9.73765625 7.06246094 10.3671875 8.12695312 C11.29917969 9.76567383 11.29917969 9.76567383 12.25 11.4375 C13.50465697 13.58235387 14.75983672 15.72690205 16.015625 17.87109375 C16.56508789 18.82943115 17.11455078 19.78776855 17.68066406 20.77514648 C18.81538606 22.89790002 18.81538606 22.89790002 20 24 C20.08564209 23.37955811 20.17128418 22.75911621 20.25952148 22.11987305 C20.6492433 19.30866566 21.0433213 16.49808577 21.4375 13.6875 C21.57220703 12.71103516 21.70691406 11.73457031 21.84570312 10.72851562 C21.97783203 9.79072266 22.10996094 8.85292969 22.24609375 7.88671875 C22.36654053 7.02264404 22.4869873 6.15856934 22.61108398 5.26831055 C23 3 23 3 24 0 C25.98 0 27.96 0 30 0 C29.49080682 12.8062086 27.12198238 25.38460091 25 38 C22.72192383 38.29638672 22.72192383 38.29638672 20 38 C18.1472168 36.01220703 18.1472168 36.01220703 16.44921875 33.2578125 C15.83369141 32.27425781 15.21816406 31.29070312 14.58398438 30.27734375 C13.64522461 28.71693359 13.64522461 28.71693359 12.6875 27.125 C12.04232422 26.09246094 11.39714844 25.05992187 10.73242188 23.99609375 C6 16.33407738 6 16.33407738 6 14 C5.34 14 4.68 14 4 14 C3.95101562 14.89460938 3.90203125 15.78921875 3.8515625 16.7109375 C3.40311654 23.96339121 2.67886409 30.92595133 1 38 C-0.98 38 -2.96 38 -5 38 C-4.49080682 25.1937914 -2.12198238 12.61539909 0 0 Z " fill="#000000" transform="translate(912,293)"/>
<path d="M0 0 C16.2339437 -0.48701831 16.2339437 -0.48701831 23.3125 4.1875 C27.37991306 8.44409506 29.1219129 12.53154853 29.4375 18.375 C29.20112331 24.66047117 27.00647726 29.99352274 22.5625 34.4375 C16.50910206 38.1285963 11.63483067 38.25265413 4.6875 38.125 C3.75615234 38.11597656 2.82480469 38.10695313 1.86523438 38.09765625 C-0.4234436 38.07418263 -2.71158672 38.04134729 -5 38 C-1.83112696 12.23623663 -1.83112696 12.23623663 0 0 Z M6 6 C4.68 14.58 3.36 23.16 2 32 C12.56579642 32.23474245 12.56579642 32.23474245 20.375 26.9375 C22.70943356 22.71756242 22.66142122 18.72993083 22 14 C20.42584224 10.12303504 18.8649553 8.72689492 15 7 C12.03 6.67 9.06 6.34 6 6 Z " fill="#000000" transform="translate(658,293)"/>
<path d="M0 0 C3.02051532 0.31449082 4.55597442 0.50436531 6.62158203 2.81005859 C7.07903809 3.58172363 7.53649414 4.35338867 8.0078125 5.1484375 C8.51957031 5.98890625 9.03132812 6.829375 9.55859375 7.6953125 C10.33396484 9.02175781 10.33396484 9.02175781 11.125 10.375 C12.16585833 12.1140262 13.21000628 13.85108871 14.2578125 15.5859375 C14.7130127 16.3598584 15.16821289 17.1337793 15.63720703 17.93115234 C16.93102102 19.89528344 18.27550977 21.41113671 20 23 C20.08564209 22.37432129 20.17128418 21.74864258 20.25952148 21.10400391 C20.64853518 18.27715353 21.0429495 15.45108268 21.4375 12.625 C21.57220703 11.64015625 21.70691406 10.6553125 21.84570312 9.640625 C21.97783203 8.69960938 22.10996094 7.75859375 22.24609375 6.7890625 C22.36654053 5.91975098 22.4869873 5.05043945 22.61108398 4.15478516 C23 2 23 2 24 0 C25.98 0 27.96 0 30 0 C28.69327466 12.7290421 26.97935861 25.35849632 25 38 C22.77734375 38.3984375 22.77734375 38.3984375 20 38 C18.23708691 35.87224055 16.93000694 33.98816942 15.5625 31.625 C15.20607422 31.04105469 14.84964844 30.45710938 14.48242188 29.85546875 C13.30331853 27.91464378 12.15247806 25.95675256 11 24 C9.02 20.7 7.04 17.4 5 14 C3.68 21.92 2.36 29.84 1 38 C-0.98 38 -2.96 38 -5 38 C-5.29622339 30.41285907 -4.17086773 23.11894651 -3.0625 15.625 C-2.88009766 14.34238281 -2.69769531 13.05976563 -2.50976562 11.73828125 C-1.13502139 2.27004278 -1.13502139 2.27004278 0 0 Z " fill="#000000" transform="translate(618,293)"/>
<path d="M0 0 C16.04978038 -0.47437775 16.04978038 -0.47437775 20.9375 3.625 C22.48288371 7.07938712 22.54166695 10.31812867 22 14 C20.68809491 17.0173817 19.74276847 18.51255819 17 20.3125 C15 21 15 21 12 21 C12.6496875 22.14339844 13.299375 23.28679687 13.96875 24.46484375 C14.81261164 25.95566598 15.65635558 27.44655484 16.5 28.9375 C16.92925781 29.69224609 17.35851562 30.44699219 17.80078125 31.22460938 C18.40986328 32.30258789 18.40986328 32.30258789 19.03125 33.40234375 C19.40830078 34.06741943 19.78535156 34.73249512 20.17382812 35.41772461 C21 37 21 37 21 38 C17.8125 38.5 17.8125 38.5 14 38 C11.78253342 35.63189031 10.45315647 32.88125852 9 30 C8.2353496 28.66311123 7.46504139 27.32943266 6.6875 26 C6.130625 25.01 5.57375 24.02 5 23 C3.04848373 24.95151627 3.29031251 28.45168745 2.9375 31.0625 C2.76089844 32.35285156 2.58429687 33.64320313 2.40234375 34.97265625 C2.26957031 35.97167969 2.13679687 36.97070312 2 38 C-0.31 38 -2.62 38 -5 38 C-1.83112696 10.83596307 -1.83112696 10.83596307 0 0 Z M6 6 C5.67 9.3 5.34 12.6 5 16 C10.62006722 15.88785352 10.62006722 15.88785352 15 12.9375 C16.243759 11.05551169 16.243759 11.05551169 15.5 9.0625 C14.218214 6.83880759 14.218214 6.83880759 12.0859375 6.51171875 C10.06424845 6.2724022 8.03158061 6.13106972 6 6 Z " fill="#000000" transform="translate(856,293)"/>
<path d="M0 0 C7.06794224 -0.31335705 12.74650697 -0.53458302 19 3 C21.67666871 5.67666871 21.78714133 7.23949675 22 11 C21.04253528 14.4708096 20.31806499 17.08041111 17.2734375 19.20458984 C15.515625 20.13639323 13.7578125 21.06819661 12 22 C12.5775 22.98742187 13.155 23.97484375 13.75 24.9921875 C14.500226 26.28632735 15.25021368 27.58060537 16 28.875 C16.3815625 29.52597656 16.763125 30.17695313 17.15625 30.84765625 C20 35.7734375 20 35.7734375 20 38 C17.69 38 15.38 38 13 38 C10.03 32.72 7.06 27.44 4 22 C3.01 27.28 2.02 32.56 1 38 C-0.98 38 -2.96 38 -5 38 C-5.29622339 30.41285907 -4.17086773 23.11894651 -3.0625 15.625 C-2.88009766 14.34238281 -2.69769531 13.05976563 -2.50976562 11.73828125 C-1.13502139 2.27004278 -1.13502139 2.27004278 0 0 Z M5 6 C4.67 9.3 4.34 12.6 4 16 C9.28744604 15.69675189 9.28744604 15.69675189 14.0625 13.75 C15.40469845 11.24456289 14.7875684 9.6490937 14 7 C11.03 6.67 8.06 6.34 5 6 Z " fill="#000000" transform="translate(341,293)"/>
<path d="M0 0 C6.18782683 0.04419876 10.8448633 0.7198633 15.375 5.25 C15.94401895 8.63416533 15.90318445 11.86215021 15.375 15.25 C12.76077574 18.73563235 10.2307143 20.40452991 6.375 22.25 C6.9525 23.23742187 7.53 24.22484375 8.125 25.2421875 C8.875226 26.53632735 9.62521368 27.83060537 10.375 29.125 C10.7565625 29.77597656 11.138125 30.42695313 11.53125 31.09765625 C14.375 36.0234375 14.375 36.0234375 14.375 38.25 C12.065 38.25 9.755 38.25 7.375 38.25 C4.405 32.97 1.435 27.69 -1.625 22.25 C-2.615 27.53 -3.605 32.81 -4.625 38.25 C-6.605 38.25 -8.585 38.25 -10.625 38.25 C-10.90507278 31.15783444 -9.96866233 24.32649043 -8.97094727 17.3112793 C-8.6848424 15.29375949 -8.40926938 13.27498697 -8.13476562 11.25585938 C-6.57639302 0.09791156 -6.57639302 0.09791156 0 0 Z M-0.625 6.25 C-0.955 9.55 -1.285 12.85 -1.625 16.25 C3.66244604 15.94675189 3.66244604 15.94675189 8.4375 14 C9.77969845 11.49456289 9.1625684 9.8990937 8.375 7.25 C5.405 6.92 2.435 6.59 -0.625 6.25 Z " fill="#000000" transform="translate(988.625,292.75)"/>
<path d="M0 0 C7.06794224 -0.31335705 12.74650697 -0.53458302 19 3 C21.47035712 5.47035712 21.35042281 6.3960007 21.4375 9.8125 C21.36387466 13.73729699 21.19422516 14.74103312 18.75 18 C16.51165751 19.62788545 14.47497895 20.81539469 12 22 C12.5775 22.98742187 13.155 23.97484375 13.75 24.9921875 C14.500226 26.28632735 15.25021368 27.58060537 16 28.875 C16.3815625 29.52597656 16.763125 30.17695313 17.15625 30.84765625 C20 35.7734375 20 35.7734375 20 38 C17.69 38 15.38 38 13 38 C10.03 32.72 7.06 27.44 4 22 C3.01 27.28 2.02 32.56 1 38 C-0.98 38 -2.96 38 -5 38 C-5.29622339 30.41285907 -4.17086773 23.11894651 -3.0625 15.625 C-2.88009766 14.34238281 -2.69769531 13.05976563 -2.50976562 11.73828125 C-1.13502139 2.27004278 -1.13502139 2.27004278 0 0 Z M5 6 C4.67 9.3 4.34 12.6 4 16 C9.28744604 15.69675189 9.28744604 15.69675189 14.0625 13.75 C15.40469845 11.24456289 14.7875684 9.6490937 14 7 C11.03 6.67 8.06 6.34 5 6 Z " fill="#000000" transform="translate(468,293)"/>
<path d="M0 0 C2.31 0 4.62 0 7 0 C6.34 4.95 5.68 9.9 5 15 C9.62 15 14.24 15 19 15 C19.66 10.05 20.32 5.1 21 0 C22.98 0 24.96 0 27 0 C27.29622339 7.58714093 26.17086773 14.88105349 25.0625 22.375 C24.88009766 23.65761719 24.69769531 24.94023437 24.50976562 26.26171875 C23.13502139 35.72995722 23.13502139 35.72995722 22 38 C20.02 38 18.04 38 16 38 C16.14213297 36.10388566 16.28886907 34.20811606 16.4375 32.3125 C16.51871094 31.25675781 16.59992187 30.20101563 16.68359375 29.11328125 C17 26 17 26 18 21 C13.38 21 8.76 21 4 21 C3.86722656 22.14339844 3.73445312 23.28679687 3.59765625 24.46484375 C3.4194969 25.9557562 3.24109918 27.44664018 3.0625 28.9375 C2.97548828 29.69224609 2.88847656 30.44699219 2.79882812 31.22460938 C2.11328125 36.88671875 2.11328125 36.88671875 1 38 C-0.99958364 38.04080783 -3.00045254 38.04254356 -5 38 C-3.69327466 25.2709579 -1.97935861 12.64150368 0 0 Z " fill="#000000" transform="translate(542,293)"/>
<path d="M0 0 C1.98 0 3.96 0 6 0 C5.1491255 12.03896901 5.1491255 12.03896901 4.4375 16.625 C3.81612571 21.4184588 3.92145091 26.17359494 4 31 C9.28199593 32.19988045 9.28199593 32.19988045 14 30 C14.67392717 27.54390985 15.16428349 25.25190825 15.5625 22.75 C15.68471924 22.04359375 15.80693848 21.3371875 15.93286133 20.609375 C17.0968332 13.76158248 18.08556562 6.88515294 19 0 C21.31 0 23.62 0 26 0 C25.57863693 3.98104547 25.13496285 7.9593104 24.6875 11.9375 C24.56955078 13.05447266 24.45160156 14.17144531 24.33007812 15.32226562 C22.55988024 30.8001497 22.55988024 30.8001497 18 36.5 C13.77155644 39.67133267 9.06402573 39.4903546 4 39 C-0.25730529 37.24154781 -2.00547885 35.09825238 -4 31 C-4.14453125 27.9765625 -4.14453125 27.9765625 -3.8125 24.625 C-3.69519531 23.40554688 -3.57789063 22.18609375 -3.45703125 20.9296875 C-3.30621094 19.63289063 -3.15539062 18.33609375 -3 17 C-2.92056152 16.31325195 -2.84112305 15.62650391 -2.75927734 14.91894531 C-1.30799901 2.61599802 -1.30799901 2.61599802 0 0 Z " fill="#000000" transform="translate(305,293)"/>
<path d="M0 0 C1.04929687 -0.01417969 2.09859375 -0.02835937 3.1796875 -0.04296875 C6.06047071 0.18245063 7.68740208 0.69785683 10.125 2.1875 C9.465 4.1675 8.805 6.1475 8.125 8.1875 C7.609375 8.0225 7.09375 7.8575 6.5625 7.6875 C3.34817332 7.02815094 0.39653915 7.00574783 -2.875 7.1875 C-3.535 7.8475 -4.195 8.5075 -4.875 9.1875 C-4.96009769 11.21369466 -4.96009769 11.21369466 -3.875 13.1875 C-1.47722987 14.80827142 -1.47722987 14.80827142 1.4375 16.125 C9.15529228 20.15428896 9.15529228 20.15428896 11.125 24.1875 C11.90889626 28.79815866 11.79139431 32.06890954 9.375 36.125 C5.25704774 39.89978957 2.26086423 40.46327278 -3.3125 40.4375 C-4.42496094 40.44265625 -5.53742187 40.4478125 -6.68359375 40.453125 C-9.822009 40.19191051 -12.04335425 39.52128454 -14.875 38.1875 C-14.215 35.8775 -13.555 33.5675 -12.875 31.1875 C-12.029375 31.5175 -11.18375 31.8475 -10.3125 32.1875 C-6.13233112 33.40354913 -1.89748275 34.19874138 2.125 32.1875 C2.125 30.2075 2.125 28.2275 2.125 26.1875 C1.22136719 25.76339844 0.31773437 25.33929688 -0.61328125 24.90234375 C-11.45770693 19.50976049 -11.45770693 19.50976049 -13.3125 15.6875 C-13.99154109 11.46235542 -13.57574989 9.1066193 -11.875 5.1875 C-8.11213179 0.71909401 -5.73850253 0.03507642 0 0 Z " fill="#000000" transform="translate(858.875,454.8125)"/>
<path d="M0 0 C-0.8125 1.9375 -0.8125 1.9375 -2 4 C-2.99 4.33 -3.98 4.66 -5 5 C-5.845625 4.525625 -6.69125 4.05125 -7.5625 3.5625 C-12.15016043 1.4771998 -16.033942 1.2732598 -21 2 C-25.40617281 4.16303029 -28.1644597 6.41114924 -30 11 C-30.64337867 14.860272 -30.88809228 18.36332418 -28.98046875 21.87890625 C-26.84791481 24.55265213 -25.26139319 25.91286894 -22 27 C-15.78518213 27.42134358 -11.71625482 26.4498235 -6 24 C-5.01 25.65 -4.02 27.3 -3 29 C-9.99387318 33.92750156 -15.50103779 34.84636968 -24 34 C-29.31587826 32.37790779 -33.04317482 29.7764099 -36 25 C-38.76286732 19.47426537 -38.20778366 13.9066792 -37 8 C-34.13228969 2.26457938 -29.10312846 -2.71132683 -23 -5 C-14.05515734 -7.28821556 -7.27310459 -5.37060311 0 0 Z " fill="#000000" transform="translate(532,298)"/>
<path d="M0 0 C2.6875 -0.3125 2.6875 -0.3125 5 0 C6.43111416 4.76682812 7.8550678 9.5357146 9.27246094 14.30664062 C9.75552859 15.92896984 10.24053941 17.55072178 10.72753906 19.171875 C11.42766177 21.50371228 12.12074407 23.83754398 12.8125 26.171875 C13.03123779 26.89493835 13.24997559 27.61800171 13.4753418 28.36297607 C14.47488676 31.75992059 15 34.42267714 15 38 C13.02 38 11.04 38 9 38 C7.515 33.05 7.515 33.05 6 28 C1.19940109 27.83759814 -3.31270828 27.88524206 -8 29 C-10.64434111 31.67973382 -11.88920661 34.42959268 -13 38 C-15.31 38 -17.62 38 -20 38 C-18.65551912 33.56233978 -16.8950594 29.72474268 -14.62890625 25.68359375 C-14.30591049 25.10464859 -13.98291473 24.52570343 -13.65013123 23.92921448 C-12.62569658 22.09592047 -11.59415045 20.26674112 -10.5625 18.4375 C-9.87389556 17.20663375 -9.18574051 15.97551598 -8.49804688 14.74414062 C-6.67660571 11.48960438 -4.85002474 8.23841406 -3 5 C-2.53585693 4.04746338 -2.07171387 3.09492676 -1.59350586 2.11352539 C-0.80472046 1.06733032 -0.80472046 1.06733032 0 0 Z M1 12 C0.10409711 13.2630762 -0.74219095 14.5615707 -1.5625 15.875 C-2.01753906 16.59429687 -2.47257813 17.31359375 -2.94140625 18.0546875 C-4.15932895 19.92367363 -4.15932895 19.92367363 -4 22 C-1.36 22 1.28 22 4 22 C3.34 18.7 2.68 15.4 2 12 C1.67 12 1.34 12 1 12 Z " fill="#000000" transform="translate(591,293)"/>
<path d="M0 0 C0 3.63 0 7.26 0 11 C3.3 11 6.6 11 10 11 C10 12.98 10 14.96 10 17 C6.7 17 3.4 17 0 17 C0.33 24.92 0.66 32.84 1 41 C5.56671088 43.18569534 5.56671088 43.18569534 9 43 C9 45.31 9 47.62 9 50 C-0.88689004 50.62334158 -0.88689004 50.62334158 -5.125 48.25 C-8.27739607 44.46712472 -8.12219661 40.95053488 -8.09765625 36.140625 C-8.09282227 34.46806641 -8.09282227 34.46806641 -8.08789062 32.76171875 C-8.07951172 31.60285156 -8.07113281 30.44398438 -8.0625 29.25 C-8.05798828 28.07566406 -8.05347656 26.90132813 -8.04882812 25.69140625 C-8.03705094 22.79421928 -8.02060326 19.89713546 -8 17 C-9.98 17 -11.96 17 -14 17 C-14 15.02 -14 13.04 -14 11 C-12.02 11 -10.04 11 -8 11 C-8 7.7 -8 4.4 -8 1 C-4 0 -4 0 0 0 Z " fill="#000000" transform="translate(613,445)"/>
<path d="M0 0 C1.67542976 0.28604898 3.34385343 0.61781233 5 1 C6.42751719 5.94695453 7.8515943 10.89488118 9.27246094 15.84375 C9.75653641 17.52794278 10.24155886 19.21186366 10.72753906 20.89550781 C11.42500641 23.31244568 12.11908729 25.73033371 12.8125 28.1484375 C13.03123779 28.9036972 13.24997559 29.65895691 13.4753418 30.43710327 C15 35.77225659 15 35.77225659 15 38 C12.69 38 10.38 38 8 38 C7.34 34.7 6.68 31.4 6 28 C1.05 28 -3.9 28 -9 28 C-9.66 29.98 -10.32 31.96 -11 34 C-12.1875 36.375 -12.1875 36.375 -14 38 C-16.33241214 38.06555969 -18.66771515 38.06994164 -21 38 C-16.72350432 29.02713452 -12.01799258 20.33855758 -7.125 11.6875 C-6.24968628 10.13857056 -6.24968628 10.13857056 -5.35668945 8.55834961 C-1.13598094 1.13598094 -1.13598094 1.13598094 0 0 Z M0 12 C-1.65 15.3 -3.3 18.6 -5 22 C-2.03 22 0.94 22 4 22 C3.01 18.7 2.02 15.4 1 12 C0.67 12 0.34 12 0 12 Z " fill="#000000" transform="translate(830,293)"/>
<path d="M0 0 C1.85625 -0.00386719 1.85625 -0.00386719 3.75 -0.0078125 C7 0.125 7 0.125 10 1.125 C9.67 3.435 9.34 5.745 9 8.125 C8.20335937 8.01800781 7.40671875 7.91101563 6.5859375 7.80078125 C-1.69744135 6.67646396 -1.69744135 6.67646396 -9 10.125 C-12.14226241 14.62890946 -12.76578649 18.79640231 -12 24.125 C-10.73482146 27.85024794 -9.63746759 29.618295 -6.5625 32.0625 C-1.28400038 33.63678936 3.59924911 32.85034357 9 32.125 C9.33 34.105 9.66 36.085 10 38.125 C6.39674126 40.37479588 3.31989966 40.42396807 -0.875 40.4375 C-2.06867187 40.45425781 -3.26234375 40.47101563 -4.4921875 40.48828125 C-9.89474429 39.9287737 -13.0237958 38.14557712 -16.75 34.25 C-21.19425281 28.07742666 -21.82733199 22.58146045 -21 15.125 C-19.2250726 8.91806826 -15.30026542 4.67900628 -10 1.125 C-6.49904689 -0.04198437 -3.6877768 -0.00768287 0 0 Z " fill="#000000" transform="translate(943,454.875)"/>
<path d="M0 0 C0.52851562 0.32355469 1.05703125 0.64710938 1.6015625 0.98046875 C0.9415625 2.96046875 0.2815625 4.94046875 -0.3984375 6.98046875 C-1.48511719 6.81998047 -1.48511719 6.81998047 -2.59375 6.65625 C-10.4535964 5.60315473 -10.4535964 5.60315473 -17.3984375 8.98046875 C-20.54069991 13.48437821 -21.16422399 17.65187106 -20.3984375 22.98046875 C-19.13325896 26.70571669 -18.03590509 28.47376375 -14.9609375 30.91796875 C-9.68243788 32.49225811 -4.79918839 31.70581232 0.6015625 30.98046875 C0.9315625 32.96046875 1.2615625 34.94046875 1.6015625 36.98046875 C-5.10110259 40.1133718 -12.90321889 40.10393188 -19.8984375 37.85546875 C-24.55456424 34.3633737 -27.56616388 30.48543304 -29.3984375 24.98046875 C-30.15222708 18.34320461 -29.76267049 12.78087046 -26.3984375 6.98046875 C-19.90003425 -0.74736215 -9.71417136 -4.12931389 0 0 Z " fill="#000000" transform="translate(671.3984375,456.01953125)"/>
<path d="M0 0 C6.93 0 13.86 0 21 0 C21 1.65 21 3.3 21 5 C20 6 20 6 16.83984375 6.09765625 C14.90818359 6.08025391 14.90818359 6.08025391 12.9375 6.0625 C11.64714844 6.05347656 10.35679687 6.04445313 9.02734375 6.03515625 C8.02832031 6.02355469 7.02929688 6.01195312 6 6 C5.67 8.97 5.34 11.94 5 15 C9.62 15 14.24 15 19 15 C19 16.65 19 18.3 19 20 C18 21 18 21 14.83984375 21.09765625 C13.55207031 21.08605469 12.26429688 21.07445312 10.9375 21.0625 C9.64714844 21.05347656 8.35679687 21.04445313 7.02734375 21.03515625 C6.02832031 21.02355469 5.02929688 21.01195312 4 21 C3.93941406 21.62648438 3.87882813 22.25296875 3.81640625 22.8984375 C3.73261719 23.71570313 3.64882813 24.53296875 3.5625 25.375 C3.48128906 26.18710937 3.40007813 26.99921875 3.31640625 27.8359375 C3 30 3 30 2 32 C6.95 32 11.9 32 17 32 C16.67 33.98 16.34 35.96 16 38 C9.07 38 2.14 38 -5 38 C-4.3741469 29.33028762 -3.31101 20.83079743 -1.9375 12.25 C-1.75123047 11.0640625 -1.56496094 9.878125 -1.37304688 8.65625 C-0.91919666 5.7702281 -0.46014855 2.88502439 0 0 Z " fill="#000000" transform="translate(743,293)"/>
<path d="M0 0 C6.93 0 13.86 0 21 0 C20.67 1.98 20.34 3.96 20 6 C15.05 6 10.1 6 5 6 C5 8.31 5 10.62 5 13 C4.67 13.66 4.34 14.32 4 15 C8.95 15 13.9 15 19 15 C18.67 16.98 18.34 18.96 18 21 C13.05 21 8.1 21 3 21 C2.67 24.63 2.34 28.26 2 32 C6.62 32 11.24 32 16 32 C16 33.98 16 35.96 16 38 C9.07 38 2.14 38 -5 38 C-5 32.71301814 -4.89839937 28.2856472 -4.16015625 23.1640625 C-3.98419922 21.93558594 -3.80824219 20.70710938 -3.62695312 19.44140625 C-3.44068359 18.18199219 -3.25441406 16.92257812 -3.0625 15.625 C-2.88009766 14.34238281 -2.69769531 13.05976563 -2.50976562 11.73828125 C-1.13502139 2.27004278 -1.13502139 2.27004278 0 0 Z " fill="#000000" transform="translate(438,293)"/>
<path d="M0 0 C6.93 0 13.86 0 21 0 C20.67 1.98 20.34 3.96 20 6 C15.05 6 10.1 6 5 6 C4.67 8.97 4.34 11.94 4 15 C8.95 15 13.9 15 19 15 C18.67 16.98 18.34 18.96 18 21 C13.05 21 8.1 21 3 21 C2.67 24.63 2.34 28.26 2 32 C6.62 32 11.24 32 16 32 C16 33.98 16 35.96 16 38 C9.07 38 2.14 38 -5 38 C-5 32.71301814 -4.89839937 28.2856472 -4.16015625 23.1640625 C-3.98419922 21.93558594 -3.80824219 20.70710938 -3.62695312 19.44140625 C-3.44068359 18.18199219 -3.25441406 16.92257812 -3.0625 15.625 C-2.88009766 14.34238281 -2.69769531 13.05976563 -2.50976562 11.73828125 C-1.13502139 2.27004278 -1.13502139 2.27004278 0 0 Z " fill="#000000" transform="translate(953,293)"/>
<path d="M0 0 C14.04929577 -0.57042254 14.04929577 -0.57042254 20 3 C22.67976626 7.01964938 22.80526656 10.27632299 22 15 C18.97536009 19.18111987 16.00590478 20.92029505 11 22 C8.30782565 22.14118093 5.69988904 22.09309962 3 22 C2.93941406 22.90363281 2.87882813 23.80726563 2.81640625 24.73828125 C2.73261719 25.91777344 2.64882813 27.09726562 2.5625 28.3125 C2.48128906 29.48425781 2.40007813 30.65601563 2.31640625 31.86328125 C2 35 2 35 1 38 C-0.98 38 -2.96 38 -5 38 C-4.49080682 25.1937914 -2.12198238 12.61539909 0 0 Z M6 6 C4.41727399 7.58272601 4.65264253 9.38034003 4.4375 11.5625 C4.35371094 12.38878906 4.26992188 13.21507812 4.18359375 14.06640625 C4.12300781 14.70449219 4.06242188 15.34257812 4 16 C5.43861294 15.91253716 6.87597508 15.80434652 8.3125 15.6875 C9.11300781 15.62949219 9.91351562 15.57148438 10.73828125 15.51171875 C13.39181609 14.91135076 14.3666063 14.14614189 16 12 C16.1576585 9.87957244 16.1576585 9.87957244 15 8 C11.70173093 6.21715186 9.8225249 6 6 6 Z " fill="#000000" transform="translate(790,293)"/>
<path d="M0 0 C1.5625 2.0625 1.5625 2.0625 1.5625 5.0625 C-1.4375 7.0625 -1.4375 7.0625 -4.4375 7.0625 C-5.77083333 5.72916667 -7.10416667 4.39583333 -8.4375 3.0625 C-9.4275 3.0625 -10.4175 3.0625 -11.4375 3.0625 C-11.4375 9.01410402 -8.28333391 11.80930068 -4.34765625 15.81640625 C-1.36164413 19.32756569 -0.41790724 21.96530568 -0.5 26.5625 C-1.61473038 30.72416007 -3.15723673 32.34228168 -6.4375 35.0625 C-9.50179776 36.59464888 -12.0540642 36.29188548 -15.4375 36.0625 C-18.53760713 34.58290342 -21.408474 32.88059167 -23.4375 30.0625 C-23.375 28 -23.375 28 -22.4375 26.0625 C-20.375 24.8125 -20.375 24.8125 -18.4375 24.0625 C-17.715625 24.8875 -16.99375 25.7125 -16.25 26.5625 C-13.70832634 29.30657806 -13.70832634 29.30657806 -10.625 29.375 C-9.5421875 29.2203125 -9.5421875 29.2203125 -8.4375 29.0625 C-7.84619572 26.40315953 -7.84619572 26.40315953 -8.4375 23.0625 C-10.53137224 20.17498264 -12.99812096 17.65908347 -15.4375 15.0625 C-18.25755547 11.42371875 -19.03075356 8.52905657 -18.859375 3.99609375 C-18.12025259 0.60844937 -16.12249683 -0.92375238 -13.4375 -2.9375 C-8.83317736 -5.23966132 -3.77211954 -2.99835143 0 0 Z " fill="#000000" transform="translate(731.4375,295.9375)"/>
<path d="M0 0 C2.31 0 4.62 0 7 0 C7.83986084 1.93467942 8.67168027 3.87285129 9.5 5.8125 C9.9640625 6.89144531 10.428125 7.97039062 10.90625 9.08203125 C12 12 12 12 12 15 C12.66 15 13.32 15 14 15 C14.25394531 14.45859375 14.50789062 13.9171875 14.76953125 13.359375 C21.24310693 0.94655053 21.24310693 0.94655053 26.08203125 -0.71484375 C28 -0.6875 28 -0.6875 31 0 C29.69141305 4.40472079 27.25498491 7.23723109 24.35229492 10.67407227 C17.00949788 19.44716724 13.78172379 26.61135737 13 38 C11.02 38 9.04 38 7 38 C7.165 36.98164063 7.33 35.96328125 7.5 34.9140625 C9.01486279 23.08034402 6.38523816 15.12109764 0.75024414 4.72314453 C0 3 0 3 0 0 Z " fill="#000000" transform="translate(224,293)"/>
<path d="M0 0 C0 2.31 0 4.62 0 7 C-0.62648438 7.07476562 -1.25296875 7.14953125 -1.8984375 7.2265625 C-2.71570313 7.35804688 -3.53296875 7.48953125 -4.375 7.625 C-5.18710937 7.74101562 -5.99921875 7.85703125 -6.8359375 7.9765625 C-9.20634102 8.83632399 -9.20634102 8.83632399 -10.25 11.3125 C-11.33609027 16.65244381 -11.47130159 21.93791888 -11.625 27.375 C-11.68300781 29.05142578 -11.68300781 29.05142578 -11.7421875 30.76171875 C-11.83606555 33.50765161 -11.92174911 36.25358476 -12 39 C-14.64 39 -17.28 39 -20 39 C-20 26.46 -20 13.92 -20 1 C-17.69 1 -15.38 1 -13 1 C-12.67 1.99 -12.34 2.98 -12 4 C-11.319375 3.34 -10.63875 2.68 -9.9375 2 C-6.35542625 -0.43885872 -4.24480464 -0.33292585 0 0 Z " fill="#000000" transform="translate(489,455)"/>
<path d="M0 0 C7.59 0 15.18 0 23 0 C23 1.98 23 3.96 23 6 C20.03 6 17.06 6 14 6 C13.96261719 6.63421875 13.92523437 7.2684375 13.88671875 7.921875 C13.17453783 18.03205125 11.57796432 27.99484525 10 38 C8.02 38 6.04 38 4 38 C3.80414315 31.21029594 4.5664996 24.71952088 5.5 18 C5.71462891 16.40865234 5.71462891 16.40865234 5.93359375 14.78515625 C6.2843679 12.18942757 6.63994284 9.59445445 7 7 C4.36 6.67 1.72 6.34 -1 6 C-0.67 4.02 -0.34 2.04 0 0 Z " fill="#000000" transform="translate(883,293)"/>
<path d="M0 0 C2.64 0 5.28 0 8 0 C8 12.54 8 25.08 8 38 C5.36 38 2.72 38 0 38 C0 25.46 0 12.92 0 0 Z " fill="#000000" transform="translate(695,456)"/>
<path d="M0 0 C2.64 0 5.28 0 8 0 C8 12.54 8 25.08 8 38 C5.36 38 2.72 38 0 38 C0 25.46 0 12.92 0 0 Z " fill="#000000" transform="translate(511,456)"/>
<path d="M0 0 C1.98 0 3.96 0 6 0 C5.58718984 8.46972574 4.6986307 16.79708509 3.5 25.1875 C3.36940186 26.10813232 3.23880371 27.02876465 3.10424805 27.97729492 C2.59411701 31.45516739 2.11431935 34.65704195 1 38 C-0.98 38 -2.96 38 -5 38 C-4.49080682 25.1937914 -2.12198238 12.61539909 0 0 Z " fill="#000000" transform="translate(698,293)"/>
<path d="M0 0 C2.4375 0.8125 2.4375 0.8125 4.4375 3.8125 C3.88194444 9.36805556 3.88194444 9.36805556 2.4375 10.8125 C-1 11.0625 -1 11.0625 -4.5625 10.8125 C-6.5625 7.8125 -6.5625 7.8125 -6.375 4.75 C-5.32123803 0.94024517 -4.03360211 -0.29514162 0 0 Z " fill="#000000" transform="translate(897.5625,484.1875)"/>
<path d="M0 0 C2.4375 0.8125 2.4375 0.8125 4.4375 3.8125 C3.88194444 9.36805556 3.88194444 9.36805556 2.4375 10.8125 C-1 11.0625 -1 11.0625 -4.5625 10.8125 C-6.5625 7.8125 -6.5625 7.8125 -6.375 4.75 C-5.32123803 0.94024517 -4.03360211 -0.29514162 0 0 Z " fill="#000000" transform="translate(381.5625,484.1875)"/>
<path d="M0 0 C3.5 0.125 3.5 0.125 4.5 1.125 C4.6875 4.0625 4.6875 4.0625 4.5 7.125 C3.84 7.785 3.18 8.445 2.5 9.125 C-1.125 8.75 -1.125 8.75 -4.5 8.125 C-4.54241723 5.79205225 -4.54092937 3.45797433 -4.5 1.125 C-3.5 0.125 -3.5 0.125 0 0 Z " fill="#000000" transform="translate(699.5,440.875)"/>
<path d="M0 0 C3.5 0.125 3.5 0.125 4.5 1.125 C4.54092937 3.45797433 4.54241723 5.79205225 4.5 8.125 C1.125 8.75 1.125 8.75 -2.5 9.125 C-4.5 7.125 -4.5 7.125 -4.6875 4.0625 C-4.41655112 -0.18236574 -4.359711 0.15570396 0 0 Z " fill="#000000" transform="translate(514.5,440.875)"/>
</svg>
