<?xml version="1.0" encoding="UTF-8"?>
<svg id="Layer_1" xmlns="http://www.w3.org/2000/svg" version="1.1" viewBox="0 0 1220 200">
  <!-- Generator: Adobe Illustrator 29.1.0, SVG Export Plug-In . SVG Version: 2.1.0 Build 142)  -->
  <defs>
    <style>
      .st0 {
        fill: #231f20;
      }
    </style>
  </defs>
  <path class="st0" d="M144.91,142.65h-18.97l-24.65-28.27h-15.35v28.27h-15.95V57.95c13.41,0,26.82.12,40.23.12,19.94.12,30.45,13.41,30.45,28.03,0,11.6-5.32,23.32-21.39,26.58l25.61,28.88v1.09ZM85.95,72.94v27.06h24.29c10.15,0,14.5-6.77,14.5-13.53s-4.47-13.53-14.5-13.53h-24.29Z"/>
  <path class="st0" d="M157.6,142.65V58.07h15.83v84.58h-15.83Z"/>
  <path class="st0" d="M254.51,126.7h-44.22l-7.25,15.95h-17.28l37.94-84.58h17.4l37.94,84.58h-17.4l-7.13-15.95ZM232.4,75.84l-15.71,36h31.41l-15.71-36Z"/>
  <path class="st0" d="M347.91,57.95h15.95v84.7h-9.91v.12l-44.46-57.15v57.03h-15.95V58.07h12.93l41.44,52.44v-52.56Z"/>
  <path class="st0" d="M444.58,126.7h-44.22l-7.25,15.95h-17.28l37.94-84.58h17.4l37.94,84.58h-17.4l-7.13-15.95ZM422.47,75.84l-15.71,36h31.42l-15.71-36Z"/>
  <path class="st0" d="M585.95,99.64c.36,21.39-12.69,43.01-42.29,43.01h-33.23V58.07h33.23c29,0,41.93,20.66,42.29,41.56ZM526.26,127.31h17.4c19.21,0,26.82-14.02,26.46-27.79-.36-13.17-8.1-26.34-26.46-26.34h-17.4v54.13Z"/>
  <path class="st0" d="M676.7,58.2v48.45c0,25.01-15.35,37.82-36.61,37.82s-37.58-12.32-37.58-37.82v-48.45h15.83v48.45c0,15.23,8.7,23.32,21.87,23.32s20.66-8.82,20.66-23.32v-48.45h15.83Z"/>
  <path class="st0" d="M720.2,72.57h-26.82v-14.5h69.59v14.5h-26.82v70.08h-15.95v-70.08Z"/>
  <path class="st0" d="M838.73,126.7h-44.22l-7.25,15.95h-17.28l37.94-84.58h17.4l37.94,84.58h-17.4l-7.13-15.95ZM816.62,75.84l-15.71,36h31.42l-15.71-36Z"/>
  <path class="st0" d="M948.93,81.39l-27.55,36.73h-3.14l-26.94-36.85v61.5h-15.95V58.2h18.37l26.46,36.37,26.46-36.37h18.25v84.57h-15.95v-61.38Z"/>
  <path class="st0" d="M1045.96,126.7h-44.22l-7.25,15.95h-17.28l37.94-84.58h17.4l37.94,84.58h-17.4l-7.13-15.95ZM1023.85,75.84l-15.71,36h31.42l-15.71-36Z"/>
  <path class="st0" d="M1134.66,78.49c-2.9-4.83-10.88-9.43-20.06-9.43-11.84,0-17.52,4.95-17.52,11.24,0,7.37,8.7,9.42,18.85,10.63,17.64,2.18,34.07,6.77,34.07,26.94,0,18.85-16.67,26.94-35.52,26.94-17.28,0-30.57-5.32-36.85-20.78l13.29-6.89c3.75,9.3,13.53,13.41,23.8,13.41s19.45-3.5,19.45-12.69c0-7.97-8.34-11.24-19.58-12.44-17.28-2.05-33.23-6.65-33.23-25.61,0-17.4,17.16-24.53,32.74-24.65,13.17,0,26.82,3.75,33.23,16.79l-12.68,6.53Z"/>
</svg>