<?xml version="1.0" encoding="UTF-8"?>
<svg id="Layer_1" data-name="Layer 1" xmlns="http://www.w3.org/2000/svg" viewBox="0 0 528.85 595.28">
  <defs>
    <style>
      .cls-1 {
        fill: none;
      }

      .cls-2 {
        fill: #bc9311;
      }
    </style>
  </defs>
  <g>
    <g>
      <path class="cls-1" d="m307.01,200.04c-1.16,0-2.31-.32-3.35-.9l-40.61-23.45c-2.06-1.18-3.32-3.39-3.32-5.77v-46.91c0-2.37,1.26-4.59,3.32-5.78l32.53-18.77c3.47-2.01,7.43-3.07,11.43-3.07s7.96,1.06,11.42,3.07l24.44,14.1c7.03,4.08,11.42,11.67,11.42,19.81v37.56c0,2.38-1.26,4.59-3.35,5.77l-40.61,23.45c-1.02.58-2.17.9-3.33.9Z"/>
      <path class="cls-1" d="m351.08,273.51c-1.17,0-2.31-.3-3.35-.9l-40.61-23.45c-2.06-1.21-3.34-3.41-3.34-5.78v-46.9c0-2.38,1.28-4.58,3.34-5.78l40.61-23.44c1.03-.6,2.17-.9,3.35-.9s2.3.3,3.34.9l32.45,18.74c7.08,4.08,11.48,11.71,11.48,19.9v28.05c0,8.2-4.39,15.82-11.48,19.91l-32.45,18.75c-1.03.6-2.2.9-3.34.9Z"/>
      <path class="cls-1" d="m307.01,344.5c-3.98,0-7.89-1.05-11.34-3.04l-32.62-18.83c-2.06-1.2-3.32-3.4-3.32-5.78v-46.89c0-2.38,1.26-4.59,3.32-5.78l40.61-23.45c1.04-.6,2.2-.9,3.35-.9s2.31.3,3.33.9l40.61,23.45c2.08,1.2,3.35,3.4,3.35,5.78v37.65c0,8.09-4.33,15.64-11.36,19.66l-24.57,14.2c-3.45,1.99-7.37,3.04-11.36,3.04Z"/>
      <path class="cls-1" d="m221.21,344.46c-4,0-7.94-1.05-11.39-3.04l-24.47-14.14c-7.05-4.05-11.43-11.62-11.43-19.74v-37.6c0-2.38,1.28-4.59,3.35-5.78l40.61-23.45c1.03-.6,2.2-.9,3.34-.9s2.3.3,3.33.9l40.62,23.45c2.05,1.2,3.33,3.4,3.33,5.78v46.89c0,2.39-1.28,4.58-3.33,5.78l-32.55,18.8c-3.47,1.99-7.41,3.04-11.41,3.04Z"/>
      <path class="cls-1" d="m177.8,273.5c-1.16,0-2.32-.3-3.35-.9l-32.42-18.71c-7.11-4.11-11.53-11.76-11.53-19.97v-27.99c0-8.2,4.42-15.87,11.53-19.96l32.42-18.72c1.03-.6,2.19-.9,3.35-.9s2.3.3,3.33.9l40.62,23.44c2.06,1.2,3.33,3.41,3.33,5.78v46.9c0,2.38-1.27,4.58-3.33,5.78l-40.62,23.44c-1.04.6-2.19.9-3.33.9Z"/>
      <path class="cls-1" d="m221.21,200.04c-1.15,0-2.31-.32-3.34-.9l-40.61-23.45c-2.06-1.18-3.35-3.39-3.35-5.77v-37.37c0-8.26,4.46-15.96,11.62-20.08l24.08-13.91c3.52-2.04,7.54-3.11,11.6-3.11s8.08,1.07,11.61,3.11l32.35,18.68c2.05,1.19,3.33,3.41,3.33,5.78v46.91c0,2.38-1.28,4.59-3.33,5.77l-40.62,23.45c-1.03.58-2.17.9-3.33.9Z"/>
    </g>
    <g>
      <path class="cls-2" d="m180.24,270.16v37.75c0,5.78,3.1,11.14,8.1,14.04l24.58,14.19c5.02,2.89,11.19,2.89,16.21,0l32.67-18.89v-47.09l-40.78-23.54-40.78,23.54Z"/>
      <path class="cls-2" d="m218.2,196.37l-40.78-23.54-32.55,18.81c-5.11,2.93-8.22,8.36-8.22,14.24v28.1c0,5.87,3.11,11.3,8.22,14.25l32.55,18.79,40.78-23.55v-47.1Z"/>
      <path class="cls-2" d="m266.4,270.16v47.09l32.75,18.92c4.98,2.86,11.11,2.86,16.08,0l24.69-14.25c4.98-2.9,8.07-8.19,8.07-13.93v-37.82l-40.79-23.54-40.8,23.54Z"/>
      <path class="cls-2" d="m212.76,103.84l-24.22,13.96c-5.13,2.97-8.3,8.46-8.3,14.37v37.53l40.78,23.54,40.78-23.54v-47.11l-32.48-18.75c-5.14-2.97-11.46-2.97-16.57,0Z"/>
      <path class="cls-2" d="m384.04,191.65l-32.59-18.82-40.8,23.54v47.1l40.8,23.55,32.59-18.82c5.06-2.93,8.19-8.33,8.19-14.19v-28.17c0-5.85-3.13-11.26-8.19-14.19Z"/>
      <path class="cls-2" d="m347.99,131.98c0-5.82-3.1-11.17-8.12-14.08l-24.56-14.16c-5.03-2.91-11.21-2.91-16.26,0l-32.65,18.84v47.11l40.8,23.54,40.79-23.54v-37.72Z"/>
    </g>
  </g>
  <g>
    <g>
      <path class="cls-2" d="m193.74,415.5h-10.74l-13.97-16.02h-8.7v16.02h-9.03v-48.01c7.59,0,15.2.05,22.8.05,11.32.07,17.26,7.61,17.26,15.91,0,6.58-3,13.22-12.11,15.07l14.5,16.36v.61Zm-33.42-39.51v15.35h13.77c5.76,0,8.23-3.86,8.23-7.68s-2.53-7.67-8.23-7.67h-13.77Z"/>
      <path class="cls-2" d="m200.94,415.5v-47.96h8.99v47.96h-8.99Z"/>
      <path class="cls-2" d="m255.9,406.46h-25.08l-4.11,9.04h-9.79l21.49-47.96h9.87l21.52,47.96h-9.88l-4.02-9.04Zm-12.54-28.84l-8.9,20.42h17.78l-8.88-20.42Z"/>
      <path class="cls-2" d="m308.84,367.49h9.02v48.01h-5.58v.07l-25.22-32.38v32.31h-9.03v-47.96h7.34l23.47,29.73v-29.78Z"/>
      <path class="cls-2" d="m363.65,406.46h-25.06l-4.12,9.04h-9.81l21.53-47.96h9.84l21.51,47.96h-9.87l-4.03-9.04Zm-12.54-28.84l-8.89,20.42h17.8l-8.91-20.42Z"/>
    </g>
    <g>
      <path class="cls-2" d="m125.93,458.95c.19,12.11-7.2,24.38-24,24.38h-18.81v-47.96h18.81c16.45,0,23.77,11.74,24,23.58Zm-33.85,15.69h9.86c10.91,0,15.22-7.95,14.99-15.76-.19-7.49-4.54-14.95-14.99-14.95h-9.86v30.71Z"/>
      <path class="cls-2" d="m177.39,435.44v27.48c0,14.18-8.7,21.46-20.8,21.46s-21.3-7-21.3-21.46v-27.48h8.99v27.48c0,8.62,4.95,13.22,12.4,13.22s11.73-5,11.73-13.22v-27.48h8.98Z"/>
      <path class="cls-2" d="m202.02,443.59h-15.2v-8.23h39.46v8.23h-15.2v39.73h-9.06v-39.73Z"/>
      <path class="cls-2" d="m269.24,474.29h-25.07l-4.11,9.04h-9.79l21.5-47.96h9.87l21.5,47.96h-9.86l-4.05-9.04Zm-12.53-28.84l-8.9,20.42h17.81l-8.92-20.42Z"/>
      <path class="cls-2" d="m331.7,448.63l-15.63,20.79h-1.75l-15.3-20.89v34.87h-9.01v-47.96h10.39l15.01,20.62,15.01-20.62h10.31v47.96h-9.04v-34.77Z"/>
      <path class="cls-2" d="m386.72,474.29h-25.07l-4.1,9.04h-9.8l21.52-47.96h9.84l21.54,47.96h-9.87l-4.06-9.04Zm-12.54-28.84l-8.9,20.42h17.8l-8.9-20.42Z"/>
      <path class="cls-2" d="m437.02,446.97c-1.65-2.77-6.16-5.36-11.39-5.36-6.7,0-9.93,2.8-9.93,6.37,0,4.18,4.95,5.33,10.69,6.02,10.02,1.22,19.32,3.84,19.32,15.28,0,10.68-9.47,15.28-20.16,15.28-9.78,0-17.31-3.01-20.88-11.79l7.54-3.91c2.12,5.27,7.65,7.62,13.48,7.62s11.04-1.99,11.04-7.2c0-4.53-4.73-6.37-11.1-7.06-9.79-1.14-18.85-3.75-18.85-14.53,0-9.86,9.75-13.89,18.58-13.95,7.46,0,15.22,2.11,18.84,9.53l-7.18,3.69Z"/>
    </g>
  </g>
</svg>