<?xml version="1.0" encoding="UTF-8"?>
<svg id="Layer_1" xmlns="http://www.w3.org/2000/svg" version="1.1" viewBox="0 0 595.28 96.38">
  <!-- Generator: Adobe Illustrator 29.1.0, SVG Export Plug-In . SVG Version: 2.1.0 Build 142)  -->
  <defs>
    <style>
      .st0 {
        fill: #26a042;
      }

      .st1 {
        fill: #0066b3;
      }
    </style>
  </defs>
  <path class="st1" d="M133.32,16.19s-14.77,38.31-15.97,41.48c-1.22-3.17-15.82-41.48-15.82-41.48h-17.75v62.45h11.77V30.77c2.09,5.76,17.47,47.87,17.47,47.87h8.59s15.42-42.16,17.52-47.89v47.89h11.75V16.19h-17.56ZM58.3,57.85c0,7.89-2.14,11.11-7.28,11.11-3.4,0-5.92-2.33-6.54-6.05l-.16-.75-11.55,2.75.14.66c1.88,9.55,8.31,14.61,18.61,14.61,13.18,0,19.06-9.59,19.06-19.16V16.19h-12.27v41.66ZM14.17,78.64h12.27V16.19h-12.27v62.45Z"/>
  <g>
    <g>
      <g>
        <g>
          <path class="st0" d="M196.16,78.8V16.3h27.71c5.57,0,9.8.56,12.7,1.68,2.9,1.12,5.21,3.11,6.95,5.95,1.73,2.84,2.6,5.98,2.6,9.42,0,4.43-1.44,8.17-4.31,11.21-2.87,3.04-7.31,4.97-13.3,5.8,2.19,1.05,3.85,2.09,4.99,3.11,2.41,2.22,4.7,4.99,6.86,8.31l10.87,17.01h-10.4l-8.27-13c-2.41-3.75-4.41-6.62-5.97-8.61-1.56-1.99-2.96-3.38-4.2-4.18-1.24-.8-2.49-1.35-3.77-1.66-.94-.2-2.47-.3-4.6-.3h-9.59v27.75h-8.27ZM204.43,43.89h17.78c3.78,0,6.74-.39,8.87-1.17,2.13-.78,3.75-2.03,4.86-3.75,1.11-1.72,1.66-3.59,1.66-5.61,0-2.95-1.07-5.38-3.22-7.29-2.15-1.9-5.54-2.86-10.17-2.86h-19.78v20.67Z"/>
          <path class="st0" d="M260.49,78.8V16.3h8.27v62.49h-8.27Z"/>
          <path class="st0" d="M283.08,78.8V16.3h12.45l14.79,44.25c1.36,4.12,2.36,7.21,2.98,9.25.71-2.27,1.82-5.61,3.32-10.02l14.96-43.48h11.13v62.49h-7.97V26.49l-18.16,52.31h-7.46l-18.07-53.2v53.2h-7.97Z"/>
          <path class="st0" d="M355.72,78.8V16.3h23.44c4.78,0,8.6.63,11.49,1.9,2.88,1.26,5.14,3.21,6.78,5.84,1.63,2.63,2.45,5.38,2.45,8.25,0,2.67-.72,5.19-2.17,7.55-1.45,2.36-3.64,4.26-6.57,5.71,3.78,1.11,6.69,3,8.72,5.67,2.03,2.67,3.05,5.83,3.05,9.46,0,2.93-.62,5.65-1.85,8.16-1.24,2.52-2.76,4.45-4.58,5.82-1.82,1.36-4.1,2.39-6.84,3.09-2.74.7-6.1,1.04-10.08,1.04h-23.83ZM363.99,42.56h13.51c3.67,0,6.29-.24,7.89-.72,2.1-.62,3.69-1.66,4.75-3.11,1.07-1.45,1.6-3.27,1.6-5.46,0-2.07-.5-3.9-1.49-5.48-1-1.58-2.42-2.66-4.26-3.24-1.85-.58-5.02-.87-9.51-.87h-12.49v18.88ZM363.99,71.42h15.56c2.67,0,4.55-.1,5.63-.3,1.9-.34,3.5-.91,4.77-1.71,1.28-.79,2.33-1.95,3.15-3.47.82-1.52,1.24-3.28,1.24-5.26,0-2.33-.6-4.36-1.79-6.08-1.19-1.72-2.85-2.93-4.97-3.62-2.12-.7-5.17-1.05-9.15-1.05h-14.45v21.48Z"/>
          <path class="st0" d="M407.43,78.8l24-62.49h8.91l25.58,62.49h-9.42l-7.29-18.93h-26.13l-6.86,18.93h-8.78ZM425.46,53.14h21.19l-6.52-17.31c-1.99-5.26-3.47-9.58-4.43-12.96-.8,4.01-1.92,7.99-3.37,11.94l-6.86,18.33Z"/>
        </g>
        <path class="st0" d="M572.83,16.3h8.27v36.11c0,6.28-.71,11.27-2.13,14.96-1.42,3.69-3.98,6.7-7.69,9.02-3.71,2.32-8.57,3.47-14.6,3.47s-10.64-1.01-14.36-3.03c-3.72-2.02-6.38-4.94-7.97-8.76-1.59-3.82-2.39-9.04-2.39-15.67V16.3h8.27v36.06c0,5.43.5,9.43,1.51,12,1.01,2.57,2.74,4.55,5.2,5.95,2.46,1.39,5.46,2.09,9.02,2.09,6.08,0,10.42-1.38,13-4.14,2.59-2.76,3.88-8.06,3.88-15.9V16.3Z"/>
      </g>
      <path class="st1" d="M478.84,78.8v-26.47l-24.09-36.02h10.06l12.32,18.84c2.27,3.52,4.39,7.05,6.35,10.57,1.88-3.27,4.15-6.95,6.82-11.04l12.1-18.37h9.63l-24.93,36.02v26.47h-8.27Z"/>
    </g>
    <g>
      <polygon class="st0" points="472.35 16.31 483.8 33.87 488.08 27.36 480.86 16.31 472.35 16.31"/>
      <polygon class="st0" points="519.71 16.31 494.52 52.78 494.52 78.8 502.31 78.8 502.31 53.61 528.09 16.31 519.71 16.31"/>
    </g>
  </g>
</svg>