<?xml version="1.0" encoding="UTF-8"?>
<svg version="1.1" xmlns="http://www.w3.org/2000/svg" width="2048" height="445">
<path d="M0 0 C675.84 0 1351.68 0 2048 0 C2048 146.85 2048 293.7 2048 445 C1372.16 445 696.32 445 0 445 C0 298.15 0 151.3 0 0 Z " fill="#FEFEFE" transform="translate(0,0)"/>
<path d="M0 0 C113.79163534 0 113.79163534 0 136.453125 21.28515625 C140.37289754 25.46344139 143.23686987 30.00365511 146 35 C146.59748047 35.99773438 146.59748047 35.99773438 147.20703125 37.015625 C154.65261131 50.28939319 154.92242062 67.58356399 151 82 C146.51879768 96.76801089 137.84568571 109.63156092 124.12109375 117.23046875 C107.41160807 126 107.41160807 126 99 126 C99.4947583 126.74213745 99.4947583 126.74213745 99.99951172 127.49926758 C111.26790365 144.40185547 122.53629557 161.30444336 133.8046875 178.20703125 C134.19962402 178.7992749 134.59456055 179.39151855 135.00146484 180.00170898 C135.73937289 181.10889174 136.47669626 182.21646442 137.21337891 183.32446289 C139.84592516 187.28124245 142.49874695 191.22399447 145.15625 195.1640625 C146.27365559 196.8264694 147.39105817 198.48887846 148.50775146 200.15176392 C149.6088565 201.78850347 150.71479438 203.42198841 151.82080078 205.05541992 C152.49095215 206.05420166 153.16110352 207.0529834 153.8515625 208.08203125 C154.45822754 208.98155518 155.06489258 209.8810791 155.68994141 210.80786133 C157 213 157 213 157 215 C128.86221931 217.83120084 128.86221931 217.83120084 121.43652344 213.50732422 C117.46108947 209.52275832 115.27601552 204.63457774 113.11865234 199.49707031 C111.33468824 195.51488243 108.88572224 192.03467235 106.4375 188.4375 C105.52583918 187.03260563 104.61827238 185.62504599 103.71484375 184.21484375 C100.9831858 179.97226516 98.24239726 175.73564229 95.5 171.5 C92.73480441 167.22879551 89.97118979 162.95660973 87.21484375 158.6796875 C86.28917713 157.24471771 85.36339667 155.80982136 84.4375 154.375 C83.98914795 153.67947021 83.5407959 152.98394043 83.07885742 152.26733398 C80.78003098 148.71181023 78.45571583 145.1766673 76.0859375 141.66796875 C75.62002197 140.97719238 75.15410645 140.28641602 74.67407227 139.57470703 C73.78556004 138.26161438 72.89299603 136.95125167 71.99584961 135.64404297 C69 131.21912107 69 131.21912107 69 129 C55.47 129 41.94 129 28 129 C28 157.38 28 185.76 28 215 C18.76 215 9.52 215 0 215 C0 144.05 0 73.1 0 0 Z " fill="#013669" transform="translate(1387,20)"/>
<path d="M0 0 C1.26947983 -0.00551376 1.26947983 -0.00551376 2.56460571 -0.01113892 C57.40208899 -0.13529424 106.11356655 20.41766996 147.875 55.3125 C147.215 55.6425 146.555 55.9725 145.875 56.3125 C144.11352539 55.69506836 144.11352539 55.69506836 141.97265625 54.65234375 C140.77588257 54.08435059 140.77588257 54.08435059 139.55493164 53.50488281 C138.6911792 53.09077148 137.82742676 52.67666016 136.9375 52.25 C127.11924394 47.70125993 117.29736314 44.18901331 106.875 41.3125 C106.07046387 41.08578613 105.26592773 40.85907227 104.43701172 40.62548828 C72.12777438 31.68508901 36.85234634 30.39348912 3.875 36.3125 C3.12250977 36.44108398 2.37001953 36.56966797 1.59472656 36.70214844 C-39.87451156 44.00058578 -78.89298776 64.39502371 -110.125 92.3125 C-110.67671875 92.80250488 -111.2284375 93.29250977 -111.796875 93.79736328 C-145.64347192 123.98565543 -169.20573213 164.60524107 -180.5 208.4375 C-180.83994995 209.73856689 -180.83994995 209.73856689 -181.18676758 211.06591797 C-185.43415141 228.67842422 -186.67964158 246.5052411 -186.5625 264.5625 C-186.56012329 265.53608459 -186.55774658 266.50966919 -186.55529785 267.51275635 C-186.49603725 283.08841668 -185.55375069 298.06680497 -182.125 313.3125 C-181.97546875 314.01181641 -181.8259375 314.71113281 -181.671875 315.43164062 C-179.10380589 327.16628977 -174.79512355 338.54673832 -170.90942383 349.89331055 C-170.21946245 352.02117463 -169.63455349 354.13543194 -169.125 356.3125 C-185.56368778 340.69388282 -196.14092654 317.16774809 -204.125 296.3125 C-204.82689453 294.55486328 -204.82689453 294.55486328 -205.54296875 292.76171875 C-209.44344006 282.54848463 -211.93610672 272.00343409 -214.125 261.3125 C-214.37709229 260.10883789 -214.37709229 260.10883789 -214.63427734 258.88085938 C-223.16487861 216.05989303 -216.99852042 168.8499182 -199.125 129.3125 C-198.76067871 128.50151855 -198.39635742 127.69053711 -198.02099609 126.85498047 C-189.85542947 108.97369016 -179.23365927 92.00444317 -166.125 77.3125 C-165.26519531 76.34441406 -164.40539062 75.37632813 -163.51953125 74.37890625 C-160.76668192 71.31343359 -157.95680184 68.30498551 -155.125 65.3125 C-154.24972656 64.38308594 -153.37445313 63.45367187 -152.47265625 62.49609375 C-146.06593403 55.88239959 -139.24897193 50.14889129 -131.88818359 44.63574219 C-130.21230314 43.37801966 -128.55350494 42.1001937 -126.89453125 40.8203125 C-101.39314758 21.52602176 -71.14811562 9.9252297 -40.125 3.3125 C-39.3834668 3.14443848 -38.64193359 2.97637695 -37.87792969 2.80322266 C-25.35983921 0.0414583 -12.75776 0.02652097 0 0 Z " fill="#657CA2" transform="translate(222.125,2.6875)"/>
<path d="M0 0 C3.3 0 6.6 0 10 0 C24.74073972 31.29527569 24.74073972 31.29527569 30 43.0625 C30.35537842 43.85744873 30.71075684 44.65239746 31.0769043 45.47143555 C31.41761963 46.23367432 31.75833496 46.99591309 32.109375 47.78125 C36.38868762 57.3518169 40.90086691 66.80646867 45.46166992 76.24511719 C52.22130518 90.23467497 58.81348179 104.2944249 65.33203125 118.39794922 C68.18696054 124.5632927 71.0623002 130.71909024 73.9375 136.875 C74.52540312 138.13402737 75.11329373 139.39306058 75.70117188 140.65209961 C76.58535655 142.54568366 77.4695694 144.43925453 78.35388184 146.33277893 C80.39355479 150.70037468 82.4315402 155.06875488 84.46875 159.4375 C85.04744351 160.67814181 85.62613817 161.91878309 86.20483398 163.15942383 C87.35362056 165.62241353 88.50144355 168.08584924 89.64868164 170.54956055 C92.46157676 176.58642677 95.28754776 182.61663548 98.14241028 188.63378906 C99.54861257 191.59813224 100.95085312 194.56434285 102.35305786 197.53057861 C103.03020171 198.95976525 103.70943738 200.3879628 104.39083862 201.81512451 C105.33600881 203.79493324 106.27415894 205.77792885 107.2109375 207.76171875 C107.75024902 208.89569092 108.28956055 210.02966309 108.84521484 211.19799805 C110 214 110 214 110 217 C100.1 217 90.2 217 80 217 C73.81506729 204.97374194 68.30983538 192.75516944 63.01806641 180.31152344 C62.07810916 178.17734714 61.0429025 176.085805 60 174 C23.7 174 -12.6 174 -50 174 C-52.64 179.94 -55.28 185.88 -58 192 C-61.88053462 200.41878696 -65.85259717 208.70519433 -70 217 C-79.9 217 -89.8 217 -100 217 C-99.08059273 212.40296365 -97.65214537 208.77955341 -95.640625 204.62109375 C-95.29979889 203.90476273 -94.95897278 203.1884317 -94.6078186 202.45039368 C-93.87473903 200.91112525 -93.13915224 199.37304886 -92.40130615 197.83605957 C-90.84610678 194.59605401 -89.30337703 191.35016538 -87.75985718 188.10458374 C-86.97551423 186.4557039 -86.1905382 184.80712507 -85.40493774 183.15884399 C-81.85444401 175.70792025 -78.35072602 168.23605945 -74.875 160.75 C-74.34334229 159.6055542 -73.81168457 158.4611084 -73.26391602 157.28198242 C-70.20788832 150.67899692 -67.24762793 144.04375921 -64.375 137.359375 C-62.51882775 133.08012075 -60.49024258 128.90534332 -58.375 124.75 C-54.14895203 116.44359397 -50.24911163 107.99399233 -46.34130859 99.53417969 C-45.76928247 98.2961885 -45.1971783 97.05823336 -44.625 95.8203125 C-44.33444733 95.19169312 -44.04389465 94.56307373 -43.74453735 93.91540527 C-40.20104085 86.25907032 -36.59864842 78.63051924 -33 71 C-21.8721333 47.39256159 -10.92453213 23.70209372 0 0 Z " fill="#02366A" transform="translate(1935,18)"/>
<path d="M0 0 C2.97 0 5.94 0 9 0 C14.70962867 11.29785787 20.22322282 22.67708455 25.625 34.125 C26.41628436 35.79885497 27.20762648 37.47268264 27.99902344 39.14648438 C34.48315503 52.86938338 40.91200329 66.61774802 47.31445312 80.37890625 C49.91243738 85.96020731 52.51677649 91.5385383 55.12097168 97.11694336 C56.58094055 100.24449228 58.04044759 103.37225671 59.5 106.5 C60.08333111 107.75000104 60.66666444 109.00000104 61.25 110.25 C78.75 147.74999999 78.75 147.74999999 79.62486267 149.62471008 C80.20864931 150.87567855 80.79244042 152.12664494 81.37623596 153.37760925 C82.8276701 156.4877747 84.27902865 159.59797537 85.73022461 162.70825195 C88.43725914 168.50989844 91.14502477 174.31120025 93.8553772 180.11129761 C95.12058706 182.81893752 96.38538145 185.52677142 97.65014648 188.23461914 C98.24694533 189.51205932 98.84394249 190.78940687 99.44116211 192.06665039 C101.29983923 196.04178512 103.15174015 200.02001224 105 204 C105.49870605 205.06686035 105.99741211 206.1337207 106.51123047 207.23291016 C106.97029785 208.22468262 107.42936523 209.21645508 107.90234375 210.23828125 C108.30831787 211.11137939 108.71429199 211.98447754 109.13256836 212.8840332 C110 215 110 215 110 217 C99.77 217 89.54 217 79 217 C77.659375 213.82375 76.31875 210.6475 74.9375 207.375 C71.72917984 199.82250566 68.35613565 192.45358891 64.5078125 185.203125 C62.66093986 181.27971681 61.37127934 177.11383803 60 173 C5.55 173.495 5.55 173.495 -50 174 C-55.27158623 185.29127834 -55.27158623 185.29127834 -60.52734375 196.58984375 C-61.03773193 197.6893335 -61.54812012 198.78882324 -62.07397461 199.92163086 C-62.68893799 201.24686768 -63.30390137 202.57210449 -63.9375 203.9375 C-65.938125 208.248125 -67.93875 212.55875 -70 217 C-79.9 217 -89.8 217 -100 217 C-99.19915741 212.19494444 -98.57525237 209.64850681 -96.515625 205.4921875 C-95.99943604 204.43797607 -95.48324707 203.38376465 -94.95141602 202.29760742 C-94.38994873 201.16814697 -93.82848145 200.03868652 -93.25 198.875 C-92.05202528 196.43292162 -90.86011721 193.98789554 -89.66796875 191.54296875 C-89.20903481 190.60433739 -89.20903481 190.60433739 -88.74082947 189.64674377 C-85.59481931 183.20043467 -82.57004239 176.69944689 -79.5625 170.1875 C-79.02906982 169.03411133 -78.49563965 167.88072266 -77.94604492 166.69238281 C-76.85308324 164.32906348 -75.7603931 161.96561854 -74.66796875 159.60205078 C-71.81303958 153.43670755 -68.93774828 147.28088691 -66.0625 141.125 C-65.47386773 139.86450626 -64.8852447 138.6040082 -64.29663086 137.34350586 C-63.41165801 135.44837007 -62.52666865 133.55324201 -61.6415863 131.65815735 C-59.61444228 127.31734557 -57.58983701 122.97535624 -55.56640625 118.6328125 C-49.38405517 105.36725975 -43.17607799 92.11421059 -36.9375 78.875 C-31.00019702 66.27479454 -25.11081492 53.65344699 -19.25390625 41.015625 C-15.93058759 33.8457112 -12.59505821 26.68152699 -9.25445557 19.51965332 C-8.63245335 18.18601415 -8.01066365 16.85227584 -7.38909912 15.51843262 C-6.52688585 13.66827764 -5.663851 11.8185056 -4.80078125 9.96875 C-4.30747314 8.91107422 -3.81416504 7.85339844 -3.3059082 6.76367188 C-2.23379056 4.49476709 -1.12226246 2.24452492 0 0 Z " fill="#02366A" transform="translate(823,18)"/>
<path d="M0 0 C12 0 12 0 15.91796875 2.89453125 C17.04278858 4.17052049 18.13212409 5.47850229 19.1875 6.8125 C19.77644043 7.49812012 20.36538086 8.18374023 20.97216797 8.89013672 C22.68486166 10.89946576 24.34728221 12.94124222 26 15 C26.81339844 15.98613281 27.62679688 16.97226562 28.46484375 17.98828125 C29.89353143 19.73215861 31.31172704 21.48469001 32.71875 23.24609375 C36.3787719 27.66444211 40.31563258 31.82016149 44.2265625 36.015625 C48.53105514 40.63353761 52.64312405 45.40761607 56.73828125 50.2109375 C57.76283092 51.41162041 58.78757646 52.61213621 59.8125 53.8125 C60.32981689 54.41868164 60.84713379 55.02486328 61.38012695 55.64941406 C64.58502229 59.3907082 67.85209278 63.06115383 71.1875 66.6875 C74.35830742 70.14015696 77.38035031 73.65530966 80.3125 77.3125 C84.38813044 82.36916714 88.7536296 87.08348303 93.20239258 91.80786133 C97.22329242 96.10108601 100.94989767 100.56237209 104.625 105.15625 C107.4646455 108.55635185 110.46389371 111.775851 113.5 115 C118.12294958 119.90960298 122.46601179 124.94478543 126.68359375 130.2109375 C130.34989747 134.62534029 134.28273451 138.78512984 138.1953125 142.98046875 C143.01882429 148.15451706 147.5807341 153.47591763 152 159 C152.33 107.19 152.66 55.38 153 2 C162.57 2 172.14 2 182 2 C182 73.28 182 144.56 182 218 C169 218 169 218 165.203125 215.32421875 C164.1804517 214.14410932 163.19634383 212.92965631 162.25 211.6875 C161.71181641 211.048125 161.17363281 210.40875 160.61914062 209.75 C159.04111754 207.8608971 157.51734128 205.93796479 156 204 C154.50094626 202.16589286 153.00104388 200.33247875 151.5 198.5 C150.79875 197.6234375 150.0975 196.746875 149.375 195.84375 C146.5353545 192.44364815 143.53610629 189.224149 140.5 186 C135.87379473 181.08693945 131.52729122 176.04878041 127.30859375 170.77734375 C124.6472065 167.5755733 121.84539173 164.5376359 119 161.5 C115.37049392 157.62527236 111.88252041 153.71100257 108.5625 149.5625 C105.05356861 145.18748028 101.34155495 141.07979091 97.5 137 C92.8738141 132.08691885 88.52729313 127.04878279 84.30859375 121.77734375 C81.6472065 118.5755733 78.84539173 115.5376359 76 112.5 C72.37049392 108.62527236 68.88252041 104.71100257 65.5625 100.5625 C61.53916752 95.54611268 57.2168821 90.88293341 52.81030273 86.20703125 C48.64752809 81.76478136 44.80367514 77.16084393 41 72.40625 C38.66342329 69.59505615 36.16344028 67.04324915 33.5078125 64.53515625 C32 63 32 63 29 59 C29 111.14 29 163.28 29 217 C19.43 217 9.86 217 0 217 C0 145.39 0 73.78 0 0 Z " fill="#03376B" transform="translate(1602,18)"/>
<path d="M0 0 C-2.51761038 2.51761038 -4.22938807 2.66571485 -7.6875 3.5 C-33.36731596 10.61863481 -58.31507136 24.73535893 -77.78125 42.9375 C-79.75737093 44.77445749 -81.78954621 46.47811165 -83.875 48.1875 C-112.36378752 73.17262615 -124.88825776 109.48388619 -134 145 C-135.03908221 149.02150526 -136.08149876 153.04213938 -137.125 157.0625 C-137.3712915 158.01479492 -137.61758301 158.96708984 -137.87133789 159.94824219 C-139.49272004 166.17790575 -141.23986569 172.35597123 -143.11254883 178.5144043 C-144.30578012 182.48445594 -145.37962752 186.46468349 -146.36328125 190.4921875 C-152.04414246 213.69146515 -160.11579603 233.67533853 -177 251 C-177.73089844 251.78117188 -178.46179688 252.56234375 -179.21484375 253.3671875 C-208.85279097 284.30732924 -259.76526615 295.74156458 -301 297 C-308.33344735 297.09181565 -315.66644379 297.06474887 -323 297 C-320.57037406 294.57037406 -318.99549557 294.32563889 -315.6875 293.4375 C-292.11436211 286.37594327 -270.04360999 274.50779328 -251 259 C-250.37867188 258.49823242 -249.75734375 257.99646484 -249.1171875 257.47949219 C-232.43387718 243.91121418 -219.04465348 227.77537696 -208.95166016 208.77587891 C-207.99743532 206.99521409 -207.00610802 205.23895237 -206.01171875 203.48046875 C-195.50536219 184.35455939 -191.16567462 162.1819906 -185.72241211 141.20556641 C-182.57617229 129.08981577 -179.23219475 117.04967387 -175.73046875 105.03125 C-174.65050427 101.31519306 -173.62195862 97.5960612 -172.67578125 93.84375 C-165.76479151 66.58404885 -148.81272429 43.00564667 -124.7265625 28.19921875 C-123.48653897 27.4624913 -122.24438241 26.72934088 -121 26 C-120.4131543 25.6488916 -119.82630859 25.2977832 -119.22167969 24.93603516 C-83.62798386 3.88186067 -40.64255701 -1.25083627 0 0 Z " fill="#02366A" transform="translate(390,78)"/>
<path d="M0 0 C0.66 0.33 1.32 0.66 2 1 C1.29037109 1.73089844 1.29037109 1.73089844 0.56640625 2.4765625 C-22.22338321 26.91005997 -31.06050308 60.0412276 -37.70880127 91.90667725 C-38.26963296 94.59407748 -38.8378688 97.27982956 -39.40771484 99.96533203 C-40.61111184 105.64230311 -41.80586211 111.32107539 -43 117 C-52.03031294 159.91595008 -52.03031294 159.91595008 -57.453125 180.92578125 C-58.69109811 185.72406212 -59.81858237 190.53814396 -60.90429688 195.37280273 C-66.29191721 219.13353322 -74.82196829 240.53435068 -91 259 C-91.71671875 259.81855469 -92.4334375 260.63710938 -93.171875 261.48046875 C-112.76753634 282.29165044 -140.699177 293.64961866 -168 300 C-169.04696045 300.24806396 -170.0939209 300.49612793 -171.17260742 300.75170898 C-179.80258322 302.71099599 -188.37691196 303.91691083 -197.1875 304.6875 C-197.88975708 304.75003967 -198.59201416 304.81257935 -199.31555176 304.87701416 C-236.88062436 308.14085097 -274.95349598 305.93264814 -312 299 C-312 298.67 -312 298.34 -312 298 C-311.0205542 297.95512451 -310.0411084 297.91024902 -309.03198242 297.86401367 C-252.8403793 295.24647026 -192.75082346 288.75602335 -148 251 C-147.38769531 250.52175781 -146.77539062 250.04351562 -146.14453125 249.55078125 C-119.55958007 228.31932138 -112.56985265 193.29523635 -104.60546875 162.2265625 C-102.77089171 155.08271736 -100.82653965 147.97737825 -98.80761719 140.88378906 C-97.99187613 137.97099178 -97.19941611 135.05228501 -96.40942383 132.13241577 C-83.18374156 83.38223852 -61.53320716 34.6642812 -16 8 C-13.09243401 6.37584928 -10.15582567 4.82250647 -7.1875 3.3125 C-6.49946289 2.96098877 -5.81142578 2.60947754 -5.10253906 2.24731445 C-3.43314148 1.43052313 -1.71921935 0.70591867 0 0 Z " fill="#02366A" transform="translate(401,96)"/>
<path d="M0 0 C9.57 0 19.14 0 29 0 C29.01981934 4.42575439 29.03963867 8.85150879 29.06005859 13.41137695 C29.12701944 28.04779463 29.20456017 42.68414221 29.28752708 57.32047749 C29.33756337 66.19288232 29.38400704 75.06527833 29.421875 83.93774414 C29.45490537 91.67459521 29.49479691 99.41137595 29.54279006 107.14814919 C29.56794568 111.24142036 29.58975871 115.33464552 29.60334396 119.42797279 C29.61626429 123.28819806 29.63842387 127.14826467 29.66738319 131.00840187 C29.67638167 132.41797662 29.6821309 133.82757687 29.68421364 135.2371788 C29.71157157 150.95392843 31.60711914 165.71811764 42.9375 177.5625 C57.90277508 191.00831229 75.61137387 191.88794103 94.87402344 191.2265625 C104.97920411 190.49416578 114.18946834 186.42658817 122 180 C122.62261719 179.49984375 123.24523438 178.9996875 123.88671875 178.484375 C132.44262658 170.83788037 136.63786773 159.13794142 138 148 C138.09405761 145.84793075 138.14540734 143.69365164 138.15821838 141.53956604 C138.1680072 140.28464859 138.17779602 139.02973114 138.18788147 137.73678589 C138.19378405 136.36431923 138.1995946 134.99185217 138.20532227 133.61938477 C138.21491234 132.16023997 138.22492307 130.70109788 138.23532104 129.24195862 C138.26225386 125.29623541 138.28332601 121.35050039 138.30332303 117.40473676 C138.32525466 113.27541299 138.3526081 109.14612516 138.37937927 105.01683044 C138.42920942 97.20432089 138.47418398 89.39179128 138.51740164 81.57924265 C138.56685694 72.682007 138.62174421 63.78480744 138.67708123 54.88760674 C138.79075263 36.59176989 138.89690677 18.29589972 139 0 C148.57 0 158.14 0 168 0 C168.06785649 19.59382229 168.12306278 39.18754868 168.15543652 58.78145885 C168.1708712 67.88030914 168.19189535 76.97908096 168.22631836 86.07788086 C168.2563252 94.01320127 168.27559967 101.94846481 168.28226548 109.88384038 C168.28615872 114.08120825 168.29523658 118.27841351 168.31719017 122.47572899 C168.33773414 126.43607274 168.34379812 130.39618875 168.33932304 134.35658073 C168.34014032 135.80082187 168.34599845 137.24507157 168.35761642 138.6892662 C168.52233317 160.24378383 162.16952584 180.59458089 146.9296875 196.203125 C128.92556204 213.83640136 105.07726693 219.3227203 80.63476562 219.3828125 C58.34635724 219.06037621 36.85919224 211.16734851 20.57421875 195.6953125 C5.00189574 179.31165837 -0.69319124 158.34152715 -0.45410156 136.23046875 C-0.45296925 134.73059113 -0.45361441 133.23071131 -0.45587158 131.73083496 C-0.45700471 127.71517996 -0.43372679 123.70001702 -0.40557575 119.68447495 C-0.38032442 115.46716656 -0.37820162 111.24984303 -0.37347412 107.0324707 C-0.36111327 99.071387 -0.32838651 91.11052682 -0.28807616 83.1495409 C-0.243142 74.07561364 -0.22131736 65.00167489 -0.20129442 55.9276638 C-0.15964647 37.28495729 -0.08638196 18.64255661 0 0 Z " fill="#02366A" transform="translate(1144,20)"/>
<path d="M0 0 C0.66 0 1.32 0 2 0 C10.11811962 15.94340126 17.01914963 31.79975892 22 49 C22.22123535 49.76183594 22.4424707 50.52367187 22.67041016 51.30859375 C35.19686571 95.81987835 31.53744487 147.77799455 13 190 C12.46321858 191.30947218 11.93004922 192.62043777 11.40234375 193.93359375 C3.96741659 211.71793952 -5.84389608 228.05364433 -18 243 C-18.48436523 243.5986084 -18.96873047 244.1972168 -19.46777344 244.81396484 C-30.904798 258.82947691 -43.4554975 271.24049423 -58 282 C-58.56686523 282.42764648 -59.13373047 282.85529297 -59.71777344 283.29589844 C-68.69368811 290.05983642 -78.02893188 295.81940352 -88 301 C-88.7822998 301.40750488 -89.56459961 301.81500977 -90.37060547 302.23486328 C-120.54794707 317.74423857 -153.99096955 326.49458256 -188 326.3125 C-188.71444275 326.31067719 -189.4288855 326.30885437 -190.16497803 326.30697632 C-202.95805546 326.25244169 -215.40552652 325.30226431 -228 323 C-228.93424805 322.83371094 -229.86849609 322.66742188 -230.83105469 322.49609375 C-253.60219939 318.32640296 -274.39318794 310.43056883 -295 300 C-290.8247105 298.60823683 -288.0166729 300.22954623 -284.0625 301.6875 C-277.44548382 304.0015743 -270.8754151 305.87600583 -264 307.25 C-263.26789307 307.40041748 -262.53578613 307.55083496 -261.78149414 307.70581055 C-246.71457739 310.57731175 -231.70706556 311.3278235 -216.40478516 311.26074219 C-213.50271731 311.25001005 -210.60126818 311.26071565 -207.69921875 311.2734375 C-189.65741759 311.28749634 -172.47681132 309.51450501 -155 305 C-153.61071289 304.64228516 -153.61071289 304.64228516 -152.19335938 304.27734375 C-137.79296862 300.4942708 -124.29391156 295.71864426 -111 289 C-110.28908203 288.64180176 -109.57816406 288.28360352 -108.84570312 287.91455078 C-70.79010777 268.39542499 -43.18949321 234.52448523 -30 194 C-28.00216706 187.40755875 -26.43643031 180.73438332 -25 174 C-24.73558105 172.78787842 -24.73558105 172.78787842 -24.46582031 171.55126953 C-19.46305734 147.9688268 -18.18520625 123.58179405 -16.22265625 99.59765625 C-13.46253374 65.88121723 -9.6699567 32.54713535 0 0 Z " fill="#03376A" transform="translate(414,115)"/>
<path d="M0 0 C0.9446814 0.54648193 0.9446814 0.54648193 1.90844727 1.10400391 C6.06091832 3.66974884 6.06091832 3.66974884 7.11962891 6.11157227 C7.37594778 8.95346717 6.57504388 10.13690095 5.07421875 12.54296875 C4.58373047 13.33767578 4.09324219 14.13238281 3.58789062 14.95117188 C3.06388672 15.77166016 2.53988281 16.59214844 2 17.4375 C1.48759766 18.26958984 0.97519531 19.10167969 0.44726562 19.95898438 C-3.39331098 26.10290549 -3.39331098 26.10290549 -5.6875 27.25 C-7.40478516 26.52490234 -7.40478516 26.52490234 -9.4765625 25.3359375 C-10.24589111 24.90659912 -11.01521973 24.47726074 -11.80786133 24.03491211 C-12.63439209 23.56964111 -13.46092285 23.10437012 -14.3125 22.625 C-31.95946064 12.99281962 -52.42363311 7.62782622 -72.45703125 12.55859375 C-82.11998142 15.55393907 -90.67883931 18.97470243 -95.6875 28.25 C-98.83261139 36.74180076 -98.39228916 44.12521142 -94.6875 52.25 C-86.61035261 67.98077395 -64.75489808 73.8424708 -49.25 79.1875 C-24.73818246 87.65939162 -1.34697879 98.6343463 11.625 122.25 C17.59088344 135.20595287 17.18332098 153.03974311 12.3125 166.25 C8.79764359 175.03714102 4.0169715 181.61710649 -2.6875 188.25 C-3.20570313 188.80171875 -3.72390625 189.3534375 -4.2578125 189.921875 C-14.09353038 199.50011335 -28.59358816 203.68057384 -41.6875 206.25 C-42.60015625 206.44078125 -43.5128125 206.6315625 -44.453125 206.828125 C-76.58429704 211.01914744 -107.84235157 201.13683924 -133.6875 182.25 C-133.11797883 178.43450324 -132.05337116 175.83719011 -129.96484375 172.60546875 C-129.42666016 171.76435547 -128.88847656 170.92324219 -128.33398438 170.05664062 C-127.48803711 168.76016602 -127.48803711 168.76016602 -126.625 167.4375 C-126.05716797 166.55384766 -125.48933594 165.67019531 -124.90429688 164.75976562 C-123.50556956 162.58527359 -122.09983662 160.4156675 -120.6875 158.25 C-117.62985068 159.73410584 -115.03963801 161.40378104 -112.3125 163.4375 C-94.07607298 176.29136926 -71.94261117 182.34164579 -49.6875 180.25 C-36.95282513 177.97225328 -26.39992474 172.75775823 -18.5 162.375 C-13.80226712 154.27546056 -13.86818371 145.62107343 -15.25 136.5625 C-21.5421058 122.06329968 -35.26485378 115.89823939 -49.08496094 110.25732422 C-53.67247875 108.48170522 -58.33696459 106.93874642 -63 105.375 C-85.55628288 97.76074675 -110.39874582 86.94923347 -122.4375 64.9921875 C-128.36747761 51.98329912 -130.11317497 37.51423529 -125.65234375 23.76171875 C-119.76616202 8.4385817 -109.05682578 -2.72157251 -94.125 -9.5 C-63.39133237 -22.54805326 -28.11544677 -16.45129401 0 0 Z " fill="#02366A" transform="translate(670.6875,31.75)"/>
<path d="M0 0 C51.15 0 102.3 0 155 0 C155 8.58 155 17.16 155 26 C134.21 26 113.42 26 92 26 C92 88.37 92 150.74 92 215 C82.43 215 72.86 215 63 215 C63 152.63 63 90.26 63 26 C42.21 26 21.42 26 0 26 C0 17.42 0 8.84 0 0 Z " fill="#013669" transform="translate(937,20)"/>
<path d="M0 0 C9.796875 -0.0825 19.59375 -0.165 29.6875 -0.25 C34.28691528 -0.30462402 34.28691528 -0.30462402 38.97924805 -0.36035156 C41.44839786 -0.37204957 43.91755547 -0.38223875 46.38671875 -0.390625 C48.26260681 -0.4213208 48.26260681 -0.4213208 50.1763916 -0.45263672 C63.2752081 -0.45775594 74.61725578 2.67193352 84.625 11.25 C93.15680521 21.12893234 96.59350191 29.1979196 96.28125 42.3125 C95.49086331 52.67534776 91.34847287 61.27673362 83.625 68.3125 C72.66862789 76.97233996 60.17531657 78.45843863 46.58203125 78.29296875 C45.39395874 78.28994751 44.20588623 78.28692627 42.98181152 78.28381348 C38.5919512 78.26825206 34.20221582 78.22636937 29.8125 78.1875 C19.974375 78.125625 10.13625 78.06375 0 78 C0 52.26 0 26.52 0 0 Z " fill="#FDFDFD" transform="translate(1415,46)"/>
<path d="M0 0 C6.6 0 13.2 0 20 0 C22.40234375 6.00585938 24.8046875 12.01171875 27.20703125 18.01757812 C27.4676535 18.66909348 27.72827576 19.32060883 27.99679565 19.99186707 C28.5274457 21.31857393 29.05798258 22.64532607 29.58840942 23.97212219 C30.93504555 27.34014602 32.28366253 30.70735157 33.63623047 34.07299805 C36.11822417 40.25337626 38.57929302 46.43490675 40.875 52.6875 C43.07481294 58.62170835 45.38341954 64.50543504 47.75 70.375 C52.64893884 82.52567342 57.3222703 94.76282811 62 107 C62.27561768 106.29842773 62.55123535 105.59685547 62.83520508 104.87402344 C63.67373667 102.73957938 64.51227945 100.60513971 65.35083008 98.47070312 C66.34163298 95.94859919 67.33236643 93.42646809 68.32299805 90.90429688 C70.7759138 84.65939959 73.2297933 78.4148889 75.6875 72.171875 C79.67382574 62.04194403 83.65085043 51.90863068 87.59375 41.76171875 C87.90217331 40.96802887 88.21059662 40.17433899 88.52836609 39.3565979 C90.03827878 35.47003784 91.54695176 31.58300157 93.05395508 27.6953125 C96.64465933 18.43961617 100.29841019 9.21197465 104 0 C110.6 0 117.2 0 124 0 C124 40.26 124 80.52 124 122 C119.71 122 115.42 122 111 122 C110.67 87.35 110.34 52.7 110 17 C102.29479898 36.23109823 102.29479898 36.23109823 94.6875 55.5 C93.7697042 57.84121364 92.85172713 60.18235623 91.93359375 62.5234375 C91.22565674 64.32893066 91.22565674 64.32893066 90.50341797 66.17089844 C88.89316905 70.27443171 87.27707129 74.37565209 85.66015625 78.4765625 C85.37824936 79.1916095 85.09634247 79.90665649 84.80589294 80.64337158 C83.67429367 83.51340107 82.54258853 86.38338862 81.41036987 89.25317383 C78.80901154 95.84725455 76.20864882 102.44144923 73.65625 109.0546875 C73.32592773 109.91046387 72.99560547 110.76624023 72.65527344 111.64794922 C72.07267725 113.16163089 71.49240978 114.67621199 70.91503906 116.19189453 C69.10820809 120.89179191 69.10820809 120.89179191 68 122 C65.81360547 122.07258946 63.62499611 122.08373783 61.4375 122.0625 C59.64119141 122.04896484 59.64119141 122.04896484 57.80859375 122.03515625 C56.41833984 122.01775391 56.41833984 122.01775391 55 122 C54.55914063 120.80697266 54.55914063 120.80697266 54.109375 119.58984375 C40.93635577 84.19681794 26.83945527 49.13092492 13 14 C12.67 49.64 12.34 85.28 12 122 C8.04 122 4.08 122 0 122 C0 81.74 0 41.48 0 0 Z " fill="#6980A4" transform="translate(548,306)"/>
<path d="M0 0 C2.29077148 0.11352539 2.29077148 0.11352539 5 1 C6.75415039 3.63842773 6.75415039 3.63842773 8.34765625 7.18359375 C8.78703522 8.13977097 8.78703522 8.13977097 9.23529053 9.11526489 C10.19533817 11.21515161 11.12862632 13.32585933 12.0625 15.4375 C12.73150366 16.91285163 13.40234188 18.38737266 14.07495117 19.86108398 C15.43240042 22.84173105 16.78008074 25.82647689 18.11914062 28.81542969 C20.18263259 33.41702198 22.29796891 37.99375373 24.42211914 42.56762695 C25.85440545 45.65276411 27.27779035 48.74187744 28.69921875 51.83203125 C31.25909097 57.39435164 33.82562487 62.95356534 36.39453125 68.51171875 C39.88959091 76.0737619 43.38019035 83.63784599 46.86628723 91.20402527 C48.50133171 94.7521271 50.1376205 98.29961573 51.78125 101.84375 C53.23393599 104.97699429 54.68043164 108.11300746 56.125 111.25 C56.73625732 112.56049316 56.73625732 112.56049316 57.35986328 113.89746094 C57.89716064 115.06970215 57.89716064 115.06970215 58.4453125 116.265625 C58.90188232 117.25224121 58.90188232 117.25224121 59.36767578 118.25878906 C60 120 60 120 60 123 C56.04 123 52.08 123 48 123 C46.95553435 120.93887992 45.91446403 118.87614182 44.875 116.8125 C44.29492188 115.66394531 43.71484375 114.51539063 43.1171875 113.33203125 C40.31596565 107.60037989 37.67340302 101.79237321 35 96 C13.22 96 -8.56 96 -31 96 C-34.96 104.58 -38.92 113.16 -43 122 C-47.29 122 -51.58 122 -56 122 C-53.18974564 114.74357027 -50.06783216 107.69537449 -46.74649048 100.65927124 C-45.1904229 97.36181599 -43.6446909 94.05951272 -42.09765625 90.7578125 C-41.60228615 89.70139809 -41.60228615 89.70139809 -41.09690857 88.62364197 C-37.13237194 80.16174593 -33.22333543 71.67431008 -29.3125 63.1875 C-27.79976263 59.90611925 -26.286692 56.6248923 -24.7734375 53.34375 C-24.39085281 52.51418793 -24.00826813 51.68462585 -23.61408997 50.82992554 C-18.89968755 40.61063223 -14.16919989 30.39879291 -9.4375 20.1875 C-9.01796051 19.28180267 -8.59842102 18.37610535 -8.16616821 17.44296265 C-6.98481779 14.89280646 -5.80303892 12.34284933 -4.62109375 9.79296875 C-4.26782013 9.03032715 -3.91454651 8.26768555 -3.55056763 7.48193359 C-1.11532655 2.2306531 -1.11532655 2.2306531 0 0 Z " fill="#677FA3" transform="translate(1105,306)"/>
<path d="M0 0 C2.29077148 0.11352539 2.29077148 0.11352539 5 1 C6.75415039 3.63842773 6.75415039 3.63842773 8.34765625 7.18359375 C8.78703522 8.13977097 8.78703522 8.13977097 9.23529053 9.11526489 C10.19533817 11.21515161 11.12862632 13.32585933 12.0625 15.4375 C12.73150366 16.91285163 13.40234188 18.38737266 14.07495117 19.86108398 C15.43240042 22.84173105 16.78008074 25.82647689 18.11914062 28.81542969 C20.18263259 33.41702198 22.29796891 37.99375373 24.42211914 42.56762695 C25.85440545 45.65276411 27.27779035 48.74187744 28.69921875 51.83203125 C31.25909098 57.39435167 33.82563775 62.95355937 36.39453125 68.51171875 C40.60284389 77.61747711 44.80525323 86.72594261 49.00292969 95.83660889 C49.9284033 97.84465321 50.85469964 99.85231563 51.78125 101.85986328 C53.23321618 105.0089039 54.68029529 108.16012307 56.125 111.3125 C56.73625732 112.63556152 56.73625732 112.63556152 57.35986328 113.98535156 C60 119.76918684 60 119.76918684 60 122 C55.71 122 51.42 122 47 122 C43.04 113.42 39.08 104.84 35 96 C13.22 96 -8.56 96 -31 96 C-34.96 104.58 -38.92 113.16 -43 122 C-47.29 122 -51.58 122 -56 122 C-51.80714155 111.68423716 -47.1869076 101.59832367 -42.5 91.5 C-41.68926455 89.74878521 -40.87872008 87.99748199 -40.06835938 86.24609375 C-37.7153646 81.16261088 -35.35834756 76.08100142 -33 71 C-32.68788574 70.32743164 -32.37577148 69.65486328 -32.05419922 68.96191406 C-29.70399023 63.89769481 -27.35276437 58.83394959 -24.9987793 53.77148438 C-21.7444142 46.76949765 -18.50324168 39.76154605 -15.26953125 32.75 C-14.85988129 31.86183594 -14.45023132 30.97367187 -14.02816772 30.05859375 C-11.98912262 25.63718342 -9.9510232 21.21533974 -7.9140625 16.79296875 C-7.16798233 15.17447291 -6.4218892 13.55598304 -5.67578125 11.9375 C-5.33368118 11.1940332 -4.99158112 10.45056641 -4.63911438 9.68457031 C-3.139119 6.43196222 -1.63298793 3.18833777 0 0 Z " fill="#677EA3" transform="translate(792,305)"/>
<path d="M0 0 C1.65 0 3.3 0 5 0 C10.69099293 11.20184892 16.08043194 22.51497963 21.3125 33.9375 C22.48759506 36.4948616 23.6636719 39.05177026 24.83979797 41.60865784 C25.65282521 43.37629438 26.46555697 45.14406686 27.27799988 46.91197205 C31.40387686 55.88764024 35.56013691 64.84913702 39.71844482 73.80981445 C42.08215772 78.90482108 44.44238576 84.00144248 46.80270386 89.09802246 C48.50052221 92.76392163 50.19897958 96.42951669 51.90039062 100.09375 C53.50030151 103.53972668 55.09441866 106.9883601 56.6875 110.4375 C57.36510376 111.89337524 57.36510376 111.89337524 58.05639648 113.37866211 C58.45415283 114.24241455 58.85190918 115.10616699 59.26171875 115.99609375 C59.60162842 116.73013428 59.94153809 117.4641748 60.29174805 118.22045898 C61 120 61 120 61 122 C56.71 122 52.42 122 48 122 C44.04 113.09 40.08 104.18 36 95 C14.22 95 -7.56 95 -30 95 C-33.96 103.58 -37.92 112.16 -42 121 C-43 122 -43 122 -45.72265625 122.09765625 C-46.82480469 122.08605469 -47.92695312 122.07445312 -49.0625 122.0625 C-50.16722656 122.05347656 -51.27195312 122.04445313 -52.41015625 122.03515625 C-53.26480469 122.02355469 -54.11945313 122.01195312 -55 122 C-54.38691509 118.25584795 -53.3107623 115.18324345 -51.69140625 111.7578125 C-51.2013208 110.71262451 -50.71123535 109.66743652 -50.20629883 108.59057617 C-49.66384521 107.44693604 -49.1213916 106.3032959 -48.5625 105.125 C-47.67996977 103.24731295 -46.79955404 101.3686425 -45.91911316 99.48997498 C-45.28694479 98.14150254 -44.65412451 96.79333557 -44.02070618 95.44544983 C-40.45725859 87.85961288 -36.94878678 80.24857714 -33.44122314 72.63677979 C-31.92356764 69.34353381 -30.40453986 66.05092156 -28.88552856 62.75830078 C-28.11094639 61.07929495 -27.33643093 59.40025833 -26.5619812 57.72119141 C-23.71749402 51.55423024 -20.87085924 45.38826294 -18.0234375 39.22265625 C-16.80437578 36.58265949 -15.58533697 33.94265216 -14.36630249 31.30264282 C-13.59119798 29.62418949 -12.81599336 27.94578238 -12.04067993 26.26742554 C-8.00141946 17.52318956 -3.96869511 8.77657507 0 0 Z " fill="#677EA3" transform="translate(1657,306)"/>
<path d="M0 0 C2.65730356 2.32856498 3.77943952 4.45425518 5.0234375 7.7421875 C5.39815186 8.71172363 5.77286621 9.68125977 6.15893555 10.68017578 C6.56023682 11.73446777 6.96153809 12.78875977 7.375 13.875 C11.22593376 23.75004468 15.32638893 33.46679799 19.6875 43.125 C19.96903931 43.74875519 20.25057861 44.37251038 20.54064941 45.01516724 C24.02961304 52.73309769 27.56371043 60.42899812 31.16796875 68.09375 C33.78192894 73.65549775 36.36192167 79.23289715 38.9375 84.8125 C39.68410889 86.41798706 39.68410889 86.41798706 40.44580078 88.0559082 C41.13585205 89.55383911 41.13585205 89.55383911 41.83984375 91.08203125 C42.46427368 92.43131714 42.46427368 92.43131714 43.10131836 93.80786133 C44 96 44 96 44 98 C15.29 98 -13.42 98 -43 98 C-40.75045537 91.25136612 -40.75045537 91.25136612 -39.21923828 87.98364258 C-38.87728928 87.24939056 -38.53534027 86.51513855 -38.18302917 85.75863647 C-37.81583267 84.97848175 -37.44863617 84.19832703 -37.0703125 83.39453125 C-36.68382034 82.56603668 -36.29732819 81.73754211 -35.89912415 80.88394165 C-35.07218293 79.11140093 -34.24394365 77.33946531 -33.41452026 75.56808472 C-31.24024391 70.92185863 -29.07882124 66.26966864 -26.91796875 61.6171875 C-26.49034744 60.69665085 -26.06272614 59.7761142 -25.62214661 58.8276825 C-16.61571456 39.41481717 -8.11765641 19.80108874 0 0 Z " fill="#FCFDFD" transform="translate(827,68)"/>
<path d="M0 0 C0.66 0 1.32 0 2 0 C2.22437744 0.58450928 2.44875488 1.16901855 2.67993164 1.77124023 C9.31836971 18.95512238 16.73952823 35.69301822 24.44035339 52.42012024 C26.83955395 57.63519915 29.18652804 62.87144174 31.5 68.125 C37.02895763 80.83069096 37.02895763 80.83069096 43.1953125 93.2265625 C44 95 44 95 44 98 C15.62 98 -12.76 98 -42 98 C-41.07934579 93.39672896 -39.64725886 89.69912781 -37.67578125 85.5078125 C-37.33782532 84.77785065 -36.99986938 84.04788879 -36.65167236 83.29580688 C-35.92316566 81.72360367 -35.19227934 80.15250134 -34.45925903 78.58239746 C-33.29872869 76.09548938 -32.14526661 73.6054189 -30.99389648 71.11425781 C-29.42132578 67.71183685 -27.84716075 64.3101635 -26.27148438 60.90917969 C-23.01111945 53.86705267 -19.76959287 46.81655829 -16.5625 39.75 C-16.27845306 39.12425079 -15.99440613 38.49850159 -15.70175171 37.85379028 C-10.06160056 25.39386571 -4.92397628 12.75914554 0 0 Z " fill="#FCFDFD" transform="translate(1939,68)"/>
<path d="M0 0 C7.88628347 5.84059339 12.75398638 12.92813396 16 22.1875 C16 23.1775 16 24.1675 16 25.1875 C11.71 25.1875 7.42 25.1875 3 25.1875 C2.319375 23.66125 1.63875 22.135 0.9375 20.5625 C-3.20656772 12.34401275 -9.31988581 8.05149707 -18 5.1875 C-29.60130013 2.64335523 -44.47369996 2.24119888 -55 8.1875 C-58.69388164 10.57234823 -61.36481256 13.04453632 -63 17.1875 C-63.64593717 22.51272616 -63.94212043 28.21914746 -61.5 33.125 C-53.80967788 42.5456446 -41.77912922 44.01549769 -30.44140625 46.3359375 C4.98620938 53.61051751 4.98620938 53.61051751 15 66.75 C19.78422728 74.97289064 20.26508863 83.19649397 17.875 92.375 C14.6777776 101.68672606 8.45257821 107.40095355 0 112.1875 C-9.60565623 116.53033895 -19.30480893 118.5712731 -29.8125 118.5 C-30.6890625 118.49436035 -31.565625 118.4887207 -32.46875 118.48291016 C-47.12415625 118.20960956 -60.35453457 113.47640563 -71.09765625 103.2578125 C-77.51095821 96.27824363 -81 88.64094648 -81 79.1875 C-77.04 79.1875 -73.08 79.1875 -69 79.1875 C-68.27296875 80.81558594 -68.27296875 80.81558594 -67.53125 82.4765625 C-62.45874895 93.69368624 -62.45874895 93.69368624 -53 101.1875 C-52.01 101.765 -51.02 102.3425 -50 102.9375 C-36.32815754 108.63410103 -20.57688317 107.57936116 -7 102.1875 C-1.56810275 99.80255761 2.01977419 97.05160369 4.375 91.5 C5.94974145 85.67345664 6.00337032 80.27142298 3.375 74.8125 C-7.28513186 63.030249 -22.61499607 60.33222759 -37.6015625 57.2265625 C-52.12822509 54.20055538 -65.33229286 50.81502156 -74.5078125 38.09765625 C-78.31997859 30.9398479 -78.38561478 22.03049013 -76.1875 14.34765625 C-71.96680951 4.83644747 -64.26228227 -0.70291245 -54.96875 -4.8046875 C-37.017483 -10.89867024 -16.31387402 -9.95746491 0 0 Z " fill="#677FA3" transform="translate(1434,311.8125)"/>
<path d="M0 0 C4.96004759 -1.02917414 9.06961366 -1.29067705 14 0 C17.87287005 4.00177889 20.18173671 8.56088798 22.69433594 13.49755859 C25.00226569 17.92094678 27.62228431 22.16008382 30.1875 26.4375 C31.28017157 28.29207066 32.37127625 30.14756526 33.4609375 32.00390625 C39.56956537 42.37813153 45.79362331 52.68408296 52 63 C55.91427342 57.17470042 59.75562704 51.31090208 63.5 45.375 C64.0062793 44.57376709 64.51255859 43.77253418 65.03417969 42.94702148 C68.55567992 37.35168943 72.01019902 31.71830112 75.43164062 26.0612793 C77.21752279 23.11606037 79.02249845 20.18314114 80.828125 17.25 C82.71656013 14.16944888 84.51492541 11.08554169 86.171875 7.875 C89.23778383 2.31967801 89.23778383 2.31967801 92 0 C96.82727035 -0.94971297 101.15520191 -0.7348851 106 0 C101.82442005 8.15735661 96.99111702 15.76617025 91.98046875 23.42578125 C89.00075237 27.98270748 86.08734598 32.57945296 83.1875 37.1875 C78.6400932 44.40547479 74.07769137 51.61368703 69.5 58.8125 C68.9124292 59.73764404 68.3248584 60.66278809 67.71948242 61.6159668 C67.16236572 62.49164307 66.60524902 63.36731934 66.03125 64.26953125 C65.54205078 65.03885986 65.05285156 65.80818848 64.54882812 66.60083008 C63 69 63 69 60.84863281 71.61645508 C58.24561698 76.3807441 58.39721566 80.51854328 58.390625 85.8671875 C58.37408875 86.90191193 58.35755249 87.93663635 58.34051514 89.00271606 C58.2920983 92.29353815 58.27067758 95.58389829 58.25 98.875 C58.22183514 101.11200233 58.19190699 103.3489832 58.16015625 105.5859375 C58.08634056 111.05725364 58.03672697 116.52831428 58 122 C54.04 122 50.08 122 46 122 C46.04302246 120.69667725 46.08604492 119.39335449 46.13037109 118.05053711 C47.73300874 84.03325758 47.73300874 84.03325758 32.99804688 54.56982422 C29.38213359 49.91915178 26.57238759 44.77676822 23.625 39.6875 C22.39103881 37.61591019 21.15271313 35.54691424 19.91015625 33.48046875 C19.28125488 32.4342334 18.65235352 31.38799805 18.00439453 30.31005859 C15.85156726 26.75487807 13.6785538 23.21281646 11.49609375 19.67578125 C11.12411865 19.07287766 10.75214355 18.46997406 10.36889648 17.84880066 C8.55870406 14.91711796 6.74469494 11.98786202 4.92626953 9.0612793 C4.28157715 8.02011963 3.63688477 6.97895996 2.97265625 5.90625 C2.39781494 4.98134766 1.82297363 4.05644531 1.23071289 3.10351562 C0 1 0 1 0 0 Z " fill="#667EA2" transform="translate(1196,306)"/>
<path d="M0 0 C4.29 0 8.58 0 13 0 C13 36.63 13 73.26 13 111 C35.44 111 57.88 111 81 111 C81 114.63 81 118.26 81 122 C54.27 122 27.54 122 0 122 C0 81.74 0 41.48 0 0 Z " fill="#6B82A5" transform="translate(912,306)"/>
<path d="M0 0 C0.66 0 1.32 0 2 0 C2.32049316 0.71615479 2.64098633 1.43230957 2.97119141 2.17016602 C4.23308103 4.9892194 5.49535689 7.80809943 6.75796509 10.62683105 C7.33517083 11.91545187 7.91229915 13.20410738 8.48934937 14.49279785 C11.97083548 22.26660183 15.46414474 30.03485452 18.98046875 37.79296875 C19.30277466 38.50453629 19.62508057 39.21610382 19.95715332 39.94923401 C21.52922509 43.41974812 23.10319392 46.88938027 24.68017578 50.35766602 C25.25170848 51.61861569 25.82316441 52.87960016 26.39453125 54.140625 C26.89831299 55.24954102 27.40209473 56.35845703 27.92114258 57.50097656 C29 60 29 60 29 61 C10.52 61 -7.96 61 -27 61 C-23.94422067 53.6661296 -20.88792589 46.3641833 -17.625 39.125 C-17.23852295 38.26495361 -16.8520459 37.40490723 -16.45385742 36.51879883 C-14.18671981 31.5101586 -11.81764296 26.58113847 -9.3125 21.6875 C-5.71760388 14.64049569 -2.8222133 7.38117324 0 0 Z " fill="#FCFDFD" transform="translate(793,328)"/>
<path d="M0 0 C0.66 0 1.32 0 2 0 C2.4640625 1.03769531 2.928125 2.07539063 3.40625 3.14453125 C4.1038551 4.70066055 4.80180783 6.25663402 5.5 7.8125 C5.88293213 8.66602051 6.26586426 9.51954102 6.66040039 10.39892578 C9.44241704 16.58224541 12.25783534 22.74962786 15.08984375 28.91015625 C15.81251364 30.48396184 16.53516981 32.05777372 17.2578125 33.6315918 C18.34430809 35.99751012 19.4319098 38.36288838 20.52294922 40.72671509 C21.55840249 42.97020706 22.59004481 45.21541873 23.62109375 47.4609375 C23.93223618 48.13218155 24.2433786 48.8034256 24.56394958 49.49501038 C26.31036442 53.30858795 27.66437457 56.99312371 29 61 C10.52 61 -7.96 61 -27 61 C-23.04 52.09 -23.04 52.09 -19 43 C-17.93394531 40.59847656 -16.86789062 38.19695312 -15.76953125 35.72265625 C-15.27646484 34.61212891 -14.78339844 33.50160156 -14.27539062 32.35742188 C-13.28805942 30.13361981 -12.30108873 27.90965765 -11.31445312 25.68554688 C-8.60552605 19.58599962 -5.87197081 13.49950256 -3.0847168 7.43530273 C-1.99107286 4.97995763 -0.98193006 2.50186957 0 0 Z " fill="#FBFCFC" transform="translate(1106,329)"/>
<path d="M0 0 C2.3059777 2.09601237 3.57351548 3.87821405 4.734375 6.76171875 C5.0540625 7.53580078 5.37375 8.30988281 5.703125 9.10742188 C6.04859375 9.95884766 6.3940625 10.81027344 6.75 11.6875 C9.63985803 18.64623801 12.67266718 25.51973926 15.890625 32.33203125 C16.2284198 33.04719406 16.5662146 33.76235687 16.91424561 34.49919128 C18.61187265 38.08544731 20.31943499 41.66677452 22.03417969 45.24487305 C22.66870248 46.57987607 23.3031461 47.91491672 23.9375 49.25 C24.50339844 50.43078125 25.06929687 51.6115625 25.65234375 52.828125 C27 56 27 56 28 61 C9.85 61 -8.3 61 -27 61 C-25.49100128 56.47300383 -23.91280664 52.49760729 -21.875 48.22265625 C-21.24872408 46.90106783 -20.62250566 45.57945216 -19.99633789 44.2578125 C-19.67005402 43.57235352 -19.34377014 42.88689453 -19.00759888 42.18066406 C-12.37715445 28.24221155 -6.02622178 14.21192986 0 0 Z " fill="#FDFDFD" transform="translate(1659,328)"/>
<path d="M0 0 C4.29 0 8.58 0 13 0 C13 40.26 13 80.52 13 122 C8.71 122 4.42 122 0 122 C0 81.74 0 41.48 0 0 Z " fill="#6D83A7" transform="translate(1524,306)"/>
<path d="M0 0 C4.83628305 0.99043705 9.47618873 1.95698846 14 4 C13.67 4.99 13.34 5.98 13 7 C8.71 5.02 4.42 3.04 0 1 C0 0.67 0 0.34 0 0 Z " fill="#40678E" transform="translate(119,414)"/>
</svg>
