<?xml version="1.0" encoding="UTF-8"?>
<svg version="1.1" xmlns="http://www.w3.org/2000/svg" width="1000" height="1000">
<path d="M0 0 C18.08047852 13.89970721 29.76537213 32.91424196 33.70703125 55.453125 C36.39017401 79.0246595 31.69543287 101.27837943 17.6875 120.625 C16.19668414 122.48282486 14.67718762 124.31813566 13.125 126.125 C12.45082031 126.91132812 11.77664063 127.69765625 11.08203125 128.5078125 C-3.3526411 144.05284426 -24.18194316 153.42050792 -45.26953125 154.44140625 C-68.29070753 155.1224606 -89.43972971 149.86161344 -106.875 134.125 C-107.555625 133.58488281 -108.23625 133.04476562 -108.9375 132.48828125 C-125.30357397 119.28674111 -133.93618083 98.64917476 -136.625 78.25 C-136.73084861 76.87654978 -136.81459437 75.50119788 -136.875 74.125 C-136.91496094 73.38765625 -136.95492187 72.6503125 -136.99609375 71.890625 C-137.68521012 47.08243559 -128.13167992 25.3161879 -111.3125 7.39453125 C-80.8450497 -21.84878043 -34.19648067 -23.7595801 0 0 Z " fill="#040301" transform="translate(262.875,450.875)"/>
<path d="M0 0 C24.42 0 48.84 0 74 0 C74 3.3 74 6.6 74 10 C71.36 10 68.72 10 66 10 C66 12.97 66 15.94 66 19 C68.64 19 71.28 19 74 19 C74.18604458 26.42364279 74.32784608 33.84677652 74.41449738 41.27228546 C74.45610549 44.72110306 74.51245233 48.16831657 74.60351562 51.61621094 C74.70774092 55.58768945 74.74600891 59.55853767 74.78125 63.53125 C74.82254028 64.75863892 74.86383057 65.98602783 74.90637207 67.25061035 C74.90958417 73.42019755 74.5735374 77.21302835 70.23242188 81.81054688 C67.33361149 84.42051877 65.41794673 85.46550072 61.5 85.5 C60.345 85.335 59.19 85.17 58 85 C57.505 81.04 57.505 81.04 57 77 C56.18901855 77.97791504 55.37803711 78.95583008 54.54248047 79.96337891 C51.34364257 83.14491378 49.11044271 83.68249178 44.6789856 83.67977905 C43.51144241 83.63332748 43.51144241 83.63332748 42.3203125 83.5859375 C41.50754852 83.57744781 40.69478455 83.56895813 39.85739136 83.56021118 C37.27854022 83.5268026 34.70289475 83.45155683 32.125 83.375 C30.36983705 83.34488374 28.61462474 83.31751083 26.859375 83.29296875 C22.5707089 83.23216536 18.28891186 83.11476771 14 83 C14 72.11 14 61.22 14 50 C28.85 50 43.7 50 59 50 C59 58.25 59 66.5 59 75 C60.65 75 62.3 75 64 75 C64 65.43 64 55.86 64 46 C61.669375 46.144375 59.33875 46.28875 56.9375 46.4375 C52.15382903 46.53885332 48.29151806 46.4285077 44.5625 43.125 C41.47083808 39.28408328 41.4043731 35.72787036 41.75390625 30.94140625 C41.83511719 30.30074219 41.91632813 29.66007812 42 29 C39.03 29 36.06 29 33 29 C33.2475 30.98 33.2475 30.98 33.5 33 C33.4543479 37.11521111 32.56656866 39.38831127 29.9375 42.5625 C25 46 25 46 10 46 C10 58.87 10 71.74 10 85 C7.03 85 4.06 85 1 85 C-8.93131713 74.3408176 -11.3677743 54.03874689 -11.1484375 39.84765625 C-10.38774958 25.25445909 -7.27924964 12.73868687 0 0 Z " fill="#ECC067" transform="translate(137,478)"/>
<path d="M0 0 C16.5 0 33 0 50 0 C50 11.88 50 23.76 50 36 C50.99 36 51.98 36 53 36 C53 39.3 53 42.6 53 46 C52.01 46 51.02 46 50 46 C50.02618408 46.81154541 50.05236816 47.62309082 50.0793457 48.45922852 C50.18371152 52.16011965 50.24845503 55.86070054 50.3125 59.5625 C50.35439453 60.83931641 50.39628906 62.11613281 50.43945312 63.43164062 C50.45556641 64.67236328 50.47167969 65.91308594 50.48828125 67.19140625 C50.51446533 68.32779541 50.54064941 69.46418457 50.56762695 70.63500977 C49.82047051 75.06428169 48.5904257 78.17155805 45 81 C41.53878682 81.94606574 38.2340256 81.81800817 34.66796875 81.68359375 C33.18034782 81.6687368 33.18034782 81.6687368 31.66267395 81.65357971 C28.5027624 81.61447086 25.34635683 81.5266545 22.1875 81.4375 C20.04236797 81.40238166 17.89718134 81.37044357 15.75195312 81.34179688 C10.49887348 81.27067201 5.25334738 81.13372157 0 81 C0 69.45 0 57.9 0 46 C-0.99 46 -1.98 46 -3 46 C-3 42.7 -3 39.4 -3 36 C-2.01 36 -1.02 36 0 36 C0 24.12 0 12.24 0 0 Z " fill="#EEC36A" transform="translate(233,494)"/>
<path d="M0 0 C4.62 0 9.24 0 14 0 C17.66175809 3.85814996 19.73772715 6.61250991 22.25 11.125 C23.60780805 13.35772451 24.96717407 15.58950233 26.328125 17.8203125 C27.28041992 19.43728027 27.28041992 19.43728027 28.25195312 21.08691406 C30.3321052 24.55344682 32.58922863 27.75597544 35 31 C39.66191835 37.43408594 44.08741808 44.01784194 48.5 50.625 C49.20769531 51.68203125 49.91539062 52.7390625 50.64453125 53.828125 C51.30839844 54.82585937 51.97226562 55.82359375 52.65625 56.8515625 C53.25244141 57.74697754 53.84863281 58.64239258 54.46289062 59.56494141 C56 62 56 62 58 66 C58 44.22 58 22.44 58 0 C62.62 0 67.24 0 72 0 C72 29.37 72 58.74 72 89 C58 89 58 89 53.66015625 84.7421875 C52.41177211 82.81746954 51.21466673 80.858813 50.0625 78.875 C48.71783206 76.75756851 47.37277005 74.64038721 46.02734375 72.5234375 C45.02936768 70.89486816 45.02936768 70.89486816 44.01123047 69.23339844 C40.8839618 64.2057769 37.49672847 59.36536947 34.125 54.5 C29.38465342 47.55514238 24.68655435 40.58249634 20.05517578 33.56445312 C18.11504554 30.63147821 16.1131072 27.81747626 14 25 C14 46.12 14 67.24 14 89 C9.38 89 4.76 89 0 89 C0 59.63 0 30.26 0 0 Z " fill="#000000" transform="translate(544,456)"/>
<path d="M0 0 C4.29 0 8.58 0 13 0 C13 12.87 13 25.74 13 39 C27.52 39 42.04 39 57 39 C57 26.13 57 13.26 57 0 C61.62 0 66.24 0 71 0 C71 29.37 71 58.74 71 89 C66.38 89 61.76 89 57 89 C57 76.46 57 63.92 57 51 C42.48 51 27.96 51 13 51 C13 63.54 13 76.08 13 89 C8.71 89 4.42 89 0 89 C0 59.63 0 30.26 0 0 Z " fill="#000000" transform="translate(380,456)"/>
<path d="M0 0 C4.62 0 9.24 0 14 0 C17.10627164 6.75698195 19.74629832 13.58653995 22.23046875 20.59375 C22.82254875 22.25029602 22.82254875 22.25029602 23.42658997 23.94030762 C24.6834817 27.45905359 25.93563034 30.97946459 27.1875 34.5 C28.41755057 37.94880807 29.64857801 41.39726639 30.87966919 44.84570312 C31.69489883 47.13054621 32.50925461 49.41570128 33.32272339 51.70117188 C35.40470606 57.54794061 37.50017653 63.38935538 39.61962891 69.22265625 C40.03843826 70.3772937 40.45724762 71.53193115 40.88874817 72.72155762 C41.68950281 74.9267236 42.49285334 77.13094911 43.29911804 79.33410645 C43.65456192 80.31375366 44.0100058 81.29340088 44.3762207 82.30273438 C44.69081741 83.16459351 45.00541412 84.02645264 45.32954407 84.91442871 C46 87 46 87 46 89 C41.38 89 36.76 89 32 89 C30.84748058 85.96071901 29.702829 82.91885275 28.5625 79.875 C28.23701172 79.0190625 27.91152344 78.163125 27.57617188 77.28125 C27.10727539 76.02441406 27.10727539 76.02441406 26.62890625 74.7421875 C26.1968689 73.59532471 26.1968689 73.59532471 25.75610352 72.42529297 C25 70 25 70 24 64 C13.11 64 2.22 64 -9 64 C-9.99 67.63 -10.98 71.26 -12 75 C-13.5768387 79.70386529 -15.29308866 84.34059336 -17 89 C-21.62 89 -26.24 89 -31 89 C-29.04072402 81.50484697 -26.77953468 74.24622017 -24.12109375 66.97265625 C-23.75233627 65.95271072 -23.3835788 64.9327652 -23.00364685 63.88191223 C-21.81884279 60.60734244 -20.62819952 57.33493009 -19.4375 54.0625 C-18.62274062 51.81348366 -17.80845193 49.56429674 -16.99462891 47.31494141 C-15.39521526 42.89480049 -13.79413049 38.47527091 -12.19189453 34.05615234 C-9.39562918 26.33762667 -6.63014179 18.60828287 -3.875 10.875 C-3.46822021 9.73426025 -3.06144043 8.59352051 -2.64233398 7.41821289 C-1.76091958 4.94570204 -0.88033328 2.47289599 0 0 Z M7 15 C6.72027344 15.92296875 6.44054687 16.8459375 6.15234375 17.796875 C3.39825615 26.78709561 0.41615834 35.67341645 -2.76391602 44.52246094 C-3.05451904 45.3374707 -3.34512207 46.15248047 -3.64453125 46.9921875 C-3.90596924 47.71776855 -4.16740723 48.44334961 -4.43676758 49.19091797 C-5.09908745 51.00247665 -5.09908745 51.00247665 -5 53 C3.25 53 11.5 53 20 53 C18.4730286 48.23012947 16.94411778 43.46097349 15.41015625 38.69335938 C14.88913965 37.07198683 14.36927178 35.45024467 13.85058594 33.828125 C13.10394668 31.49380456 12.35315816 29.16085361 11.6015625 26.828125 C11.256129 25.74352997 11.256129 25.74352997 10.90371704 24.63702393 C9.82020543 21.2871767 8.71008332 18.08512991 7 15 Z " fill="#000000" transform="translate(490,456)"/>
<path d="M0 0 C1.671875 1.09375 1.671875 1.09375 3.921875 2.84375 C3.27737893 5.85592112 2.27165318 8.36030836 0.859375 11.09375 C0.49714844 11.80015625 0.13492188 12.5065625 -0.23828125 13.234375 C-0.51542969 13.76546875 -0.79257812 14.2965625 -1.078125 14.84375 C-3.46775265 13.91873285 -5.82302299 12.96645116 -8.1328125 11.85546875 C-14.53539678 8.8092565 -19.59124922 7.25275411 -26.765625 8.46875 C-30.62739292 10.071748 -32.55679572 11.50669654 -35.078125 14.84375 C-36.32775889 18.88668316 -36.42209215 20.95667682 -34.890625 24.90625 C-31.28223232 29.54211721 -25.26557499 31.46829476 -20.078125 33.84375 C-17.25444557 35.17552127 -14.44626547 36.53696845 -11.640625 37.90625 C-10.96676758 38.22255371 -10.29291016 38.53885742 -9.59863281 38.86474609 C-3.03600423 42.06078885 1.22869992 46.51259272 4.921875 52.84375 C7.12999 60.02012374 6.15261184 67.17605907 2.921875 73.84375 C-1.44751489 80.3862756 -6.79767359 84.57093761 -14.4765625 86.421875 C-27.2309754 88.49015817 -39.00571163 85.65506985 -49.46875 78.11328125 C-51.078125 76.84375 -51.078125 76.84375 -52.078125 75.84375 C-51.68350476 71.10830717 -51.11276738 67.18432042 -49.078125 62.84375 C-46.53297907 64.07736665 -44.078497 65.40435219 -41.609375 66.7890625 C-33.56982152 71.19972029 -26.51445877 74.8637152 -17.078125 72.84375 C-13.31810326 71.30889738 -11.34581354 69.24528281 -9.078125 65.84375 C-8.44634915 60.27775137 -8.44634915 60.27775137 -10.63671875 55.328125 C-13.58400239 52.32896916 -16.75143345 50.70245921 -20.515625 48.96875 C-21.94980047 48.27594252 -23.38338609 47.58191277 -24.81640625 46.88671875 C-25.53135254 46.54431152 -26.24629883 46.2019043 -26.98291016 45.84912109 C-43.69856234 37.828257 -43.69856234 37.828257 -48.078125 30.84375 C-48.44808594 30.25464844 -48.81804687 29.66554688 -49.19921875 29.05859375 C-51.411615 23.4833552 -50.92988758 16.08758833 -49.42578125 10.359375 C-46.30548952 3.44920104 -40.87985519 -0.64423554 -34.015625 -3.53125 C-22.53818293 -7.27321056 -10.51788812 -5.85205805 0 0 Z " fill="#000000" transform="translate(364.078125,460.15625)"/>
<path d="M0 0 C0.99 0.99 0.99 0.99 2 2 C1.63951129 5.17230063 0.32634855 7.23153527 -1.5625 9.75 C-2.01753906 10.36359375 -2.47257813 10.9771875 -2.94140625 11.609375 C-3.29074219 12.06828125 -3.64007812 12.5271875 -4 13 C-5.01320313 12.50628906 -6.02640625 12.01257813 -7.0703125 11.50390625 C-8.42168478 10.8563737 -9.77325802 10.20926044 -11.125 9.5625 C-11.79015625 9.23701172 -12.4553125 8.91152344 -13.140625 8.57617188 C-22.55063005 4.10180673 -31.87325334 3.80063036 -41.71875 7.09765625 C-48.75528818 9.88094447 -54.60140589 15.34236634 -58.07421875 22.0859375 C-62.56787194 33.52831294 -61.50437453 43.75313986 -57 55 C-53.44540295 61.83149121 -48.0133503 65.9773448 -41 69 C-30.50069519 72.13039959 -21.71103904 70.64440997 -12 66 C-12 70.29 -12 74.58 -12 79 C-24.32194086 84.70119652 -34.86325491 85.72017306 -47.95703125 81.26171875 C-52.46518901 79.3924826 -56.21767367 77.06896026 -60 74 C-60.62519531 73.49855469 -61.25039063 72.99710938 -61.89453125 72.48046875 C-69.18977904 65.94812269 -74.26513923 55.50262533 -75.21899414 45.76416016 C-75.96527126 30.44288844 -74.23331836 18.05397009 -64 6 C-47.20490273 -11.87752558 -20.23856973 -12.21571041 0 0 Z " fill="#000000" transform="translate(702,463)"/>
<path d="M0 0 C1.98 0 3.96 0 6 0 C6 13.53 6 27.06 6 41 C23.82 41 41.64 41 60 41 C60 27.47 60 13.94 60 0 C62.31 0 64.62 0 67 0 C67 29.04 67 58.08 67 88 C64.69 88 62.38 88 60 88 C60 74.47 60 60.94 60 47 C42.18 47 24.36 47 6 47 C6 60.53 6 74.06 6 88 C4.02 88 2.04 88 0 88 C0 58.96 0 29.92 0 0 Z " fill="#000000" transform="translate(721,457)"/>
<path d="M0 0 C2.31 0 4.62 0 7 0 C12.38844382 13.26460843 17.49996698 26.60140646 22.375 40.0625 C23.35003843 42.74349405 24.32624081 45.42406238 25.30253601 48.104599 C25.94831666 49.87779934 26.59375768 51.65112342 27.23884583 53.42457581 C30.10985995 61.31451771 33.01609861 69.19109591 35.9375 77.0625 C36.35628418 78.19115479 36.77506836 79.31980957 37.20654297 80.48266602 C38.13696638 82.98871598 39.06801958 85.49452875 40 88 C37.36 88 34.72 88 32 88 C30.5695796 84.21204894 29.1456021 80.42174552 27.72753906 76.62915039 C27.24427735 75.33942542 26.75926331 74.05035562 26.27246094 72.76196289 C25.57286085 70.90945042 24.88008767 69.05436431 24.1875 67.19921875 C23.76855469 66.08377686 23.34960938 64.96833496 22.91796875 63.8190918 C22 61 22 61 22 58 C9.79 58 -2.42 58 -15 58 C-15.33 59.98 -15.66 61.96 -16 64 C-16.63926771 65.96214827 -17.33046029 67.9079664 -18.06640625 69.8359375 C-18.46923828 70.89941406 -18.87207031 71.96289062 -19.28710938 73.05859375 C-19.70798828 74.15300781 -20.12886719 75.24742187 -20.5625 76.375 C-21.19961914 78.05142578 -21.19961914 78.05142578 -21.84960938 79.76171875 C-22.89479747 82.50974139 -23.94506524 85.25570752 -25 88 C-27.31 88 -29.62 88 -32 88 C-31.34442108 82.34997536 -29.4332123 77.3855855 -27.421875 72.109375 C-27.0584903 71.1432428 -26.69510559 70.1771106 -26.32070923 69.18170166 C-25.13581997 66.03575393 -23.94305411 62.89285937 -22.75 59.75 C-21.93400126 57.58869502 -21.11841117 55.42723571 -20.30322266 53.265625 C-13.59231187 35.48886659 -6.82278989 17.73411551 0 0 Z M3 9 C2.5875 10.20011719 2.175 11.40023438 1.75 12.63671875 C-1.81904015 22.95610454 -5.53640413 33.19853804 -9.50976562 43.36987305 C-9.83525391 44.20945557 -10.16074219 45.04903809 -10.49609375 45.9140625 C-10.78669678 46.6560791 -11.0772998 47.3980957 -11.37670898 48.16259766 C-12.10708132 49.99229182 -12.10708132 49.99229182 -12 52 C-1.77 52 8.46 52 19 52 C16.62223283 44.07410945 14.03693016 36.3446556 11.18383789 28.59301758 C10.43057788 26.5436674 9.68481172 24.49168841 8.93945312 22.43945312 C8.45877945 21.12744064 7.97767549 19.8155857 7.49609375 18.50390625 C7.06482178 17.32642822 6.6335498 16.1489502 6.18920898 14.93579102 C5.06722438 11.88228841 5.06722438 11.88228841 3 9 Z " fill="#000000" transform="translate(828,457)"/>
<path d="M0 0 C3.76072481 2.82054361 5.34287296 5.47287086 6.234375 10.01953125 C7.00552574 21.77958006 3.40350525 31.08064561 -3.953125 40.20703125 C-9.53064782 46.29491564 -16.67876627 50.4021595 -24.765625 52.01953125 C-26.085625 52.01953125 -27.405625 52.01953125 -28.765625 52.01953125 C-28.765625 51.02953125 -28.765625 50.03953125 -28.765625 49.01953125 C-28.18554688 48.73980469 -27.60546875 48.46007812 -27.0078125 48.171875 C-19.87980279 44.51377101 -15.19696658 40.31312707 -11.765625 33.01953125 C-12.9825 32.95765625 -14.199375 32.89578125 -15.453125 32.83203125 C-18.91741386 32.40206632 -19.80569496 31.98798681 -22.703125 29.70703125 C-26.14343287 25.22420584 -26.13378066 21.63390505 -25.765625 16.01953125 C-24.41213692 9.90219145 -22.363639 5.31101098 -17.765625 1.01953125 C-12.11042555 -2.29349332 -5.89568134 -3.27392924 0 0 Z M-8.765625 2.01953125 C-14.16633274 9.4004985 -15.79507458 16.89073569 -14.765625 26.01953125 C-14.105625 26.67953125 -13.445625 27.33953125 -12.765625 28.01953125 C-10.73666662 28.16041124 -10.73666662 28.16041124 -8.765625 27.01953125 C-3.97982723 19.4726963 -3.44614239 11.68105974 -3.765625 3.01953125 C-5.415625 2.68953125 -7.065625 2.35953125 -8.765625 2.01953125 Z " fill="#000000" transform="translate(804.765625,575.98046875)"/>
<path d="M0 0 C4.71902791 5.14803045 4.55547505 10.86307625 4.4296875 17.55078125 C3.26788041 29.25536972 -3.2891419 37.19810291 -11.72265625 44.875 C-17.22610939 49.24653725 -23.97029496 51.25 -30.9375 51.25 C-30.9375 50.26 -30.9375 49.27 -30.9375 48.25 C-22.9375 44.25 -22.9375 44.25 -20.734375 43.22265625 C-18.33608819 41.92445317 -18.01716135 40.74671688 -16.9375 38.25 C-16.24044325 36.99367679 -15.53127132 35.74402729 -14.8125 34.5 C-14.19375 33.4275 -13.575 32.355 -12.9375 31.25 C-14.154375 31.3325 -15.37125 31.415 -16.625 31.5 C-19.96866277 31.50592848 -20.8918162 31.27818788 -23.875 29.4375 C-27.75377473 25.32364801 -27.27578187 20.69981728 -27.2109375 15.32421875 C-26.65073332 9.02592323 -24.05211549 5.01031151 -19.4375 0.8125 C-13.71587501 -3.95985539 -6.2751849 -3.73840803 0 0 Z M-10.9375 1.25 C-14.93376137 8.70968789 -17.78421845 15.61347183 -16.9375 24.25 C-15.85075006 26.33984231 -15.85075006 26.33984231 -13.9375 27.25 C-11.89672962 27.26281714 -11.89672962 27.26281714 -9.9375 26.25 C-6.39758436 19.5297792 -4.52887607 10.85040507 -4.9375 3.25 C-5.5975 2.59 -6.2575 1.93 -6.9375 1.25 C-8.2575 1.25 -9.5775 1.25 -10.9375 1.25 Z " fill="#000000" transform="translate(881.9375,576.75)"/>
<path d="M0 0 C2.91562667 5.83125335 3.16275519 11.54125436 4 18 C9.94 18.66 15.88 19.32 22 20 C20.64412646 24.06762061 18.0515406 24.86334252 14.4375 26.6875 C13.82197266 27.00783203 13.20644531 27.32816406 12.57226562 27.65820312 C11.0526445 28.44746371 9.52688189 29.22487915 8 30 C8.51241107 36.02900687 9.069785 42.02004643 10 48 C6.28954753 46.42219077 3.70093616 44.09296752 0.75 41.375 C-0.14203125 40.55773437 -1.0340625 39.74046875 -1.953125 38.8984375 C-2.62859375 38.27195312 -3.3040625 37.64546875 -4 37 C-4.97582031 37.49371094 -5.95164063 37.98742187 -6.95703125 38.49609375 C-8.24213405 39.14333531 -9.52729325 39.79046488 -10.8125 40.4375 C-11.45509766 40.76298828 -12.09769531 41.08847656 -12.75976562 41.42382812 C-15.48265466 42.79232676 -18.10449794 44.03483265 -21 45 C-19.6115932 40.48767788 -17.80094316 36.36585725 -15.70703125 32.1484375 C-14.83084556 29.48599479 -14.8414432 28.55563999 -16 26 C-18.29970947 23.37454576 -18.29970947 23.37454576 -21.0625 20.8125 C-22.72217442 19.2226576 -24.37191436 17.62217607 -26 16 C-26 15.67 -26 15.34 -26 15 C-20.39 15.33 -14.78 15.66 -9 16 C-6.03 10.72 -3.06 5.44 0 0 Z " fill="#000000" transform="translate(228,375)"/>
<path d="M0 0 C4.06270321 2.0313516 5.81185649 3.75477657 8.75 7.125 C9.54921875 8.03507813 10.3484375 8.94515625 11.171875 9.8828125 C11.77515625 10.58148437 12.3784375 11.28015625 13 12 C18.72210596 10.13236819 24.37661751 8.14710968 30 6 C29.30150228 9.9745504 27.37107231 13.26574098 25.4375 16.75 C25.10814453 17.35199219 24.77878906 17.95398438 24.43945312 18.57421875 C23.6303535 20.05170503 22.81572338 21.52616036 22 23 C22.7940625 23.84304688 23.588125 24.68609375 24.40625 25.5546875 C25.4377598 26.6612162 26.46899569 27.76800029 27.5 28.875 C28.02464844 29.43058594 28.54929688 29.98617187 29.08984375 30.55859375 C33 34.7734375 33 34.7734375 33 37 C30.0703125 36.51171875 27.140625 36.0234375 24.2109375 35.53515625 C23.15132812 35.35855469 22.09171875 35.18195312 21 35 C18.03 34.505 18.03 34.505 15 34 C12.03 38.95 9.06 43.9 6 49 C3.51955685 45.27933528 3.55618827 42.13459526 3.375 37.8125 C3.33632812 37.06291016 3.29765625 36.31332031 3.2578125 35.54101562 C3.16371784 33.69440801 3.08077681 31.8472381 3 30 C1.865625 29.87625 0.73125 29.7525 -0.4375 29.625 C-4.9798184 29.04909892 -9.64736325 28.4572285 -14 27 C-14.33 26.34 -14.66 25.68 -15 25 C-9.72 22.69 -4.44 20.38 1 18 C0.67 12.06 0.34 6.12 0 0 Z " fill="#000000" transform="translate(83,511)"/>
<path d="M0 0 C0.33 0 0.66 0 1 0 C1 5.94 1 11.88 1 18 C6.28 20.31 11.56 22.62 17 25 C16.67 25.66 16.34 26.32 16 27 C13.19921875 27.8515625 13.19921875 27.8515625 9.6875 28.625 C8.53636719 28.88539063 7.38523437 29.14578125 6.19921875 29.4140625 C3 30 3 30 -1 30 C-1.04898438 31.12019531 -1.09796875 32.24039063 -1.1484375 33.39453125 C-1.22347856 34.86721203 -1.29902582 36.33986707 -1.375 37.8125 C-1.42140625 38.91948242 -1.42140625 38.91948242 -1.46875 40.04882812 C-1.67346148 43.81893115 -1.86433827 45.79650741 -4 49 C-8.455 41.575 -8.455 41.575 -13 34 C-15.2275 34.515625 -17.455 35.03125 -19.75 35.5625 C-27.46428571 37.34821429 -27.46428571 37.34821429 -31 36 C-30.04287109 34.87851562 -30.04287109 34.87851562 -29.06640625 33.734375 C-28.24011719 32.74953125 -27.41382813 31.7646875 -26.5625 30.75 C-25.32693359 29.28820312 -25.32693359 29.28820312 -24.06640625 27.796875 C-21.60326037 24.68412068 -21.60326037 24.68412068 -21 21 C-22.41665829 17.95332692 -22.41665829 17.95332692 -24.4375 14.875 C-28 9.17221135 -28 9.17221135 -28 7 C-23.410109 7.76361335 -19.60541396 9.41907739 -15.40234375 11.35546875 C-13.0620625 12.20257083 -13.0620625 12.20257083 -10.984375 11.43359375 C-8.36188531 9.53899982 -6.42302723 7.32390928 -4.3125 4.875 C-2.89273316 3.23448381 -1.4598524 1.60494929 0 0 Z " fill="#000000" transform="translate(254,612)"/>
<path d="M0 0 C2.93333885 2.93333885 2.46115407 6.18726208 2.625 10.125 C2.74875 12.72375 2.8725 15.3225 3 18 C11.415 19.98 11.415 19.98 20 22 C20 22.66 20 23.32 20 24 C18.39318359 24.63228516 18.39318359 24.63228516 16.75390625 25.27734375 C15.35671698 25.83059319 13.95958449 26.38398602 12.5625 26.9375 C11.85544922 27.21529297 11.14839844 27.49308594 10.41992188 27.77929688 C6.95326119 28.96222034 6.95326119 28.96222034 4 31 C3.95512088 32.85105071 3.95512088 32.85105071 4.12109375 35.03515625 C4.19360352 36.24848633 4.19360352 36.24848633 4.26757812 37.48632812 C4.32365234 38.33646484 4.37972656 39.18660156 4.4375 40.0625 C4.51581055 41.34350586 4.51581055 41.34350586 4.59570312 42.65039062 C4.72578761 44.76721995 4.86229971 46.88365244 5 49 C0.50179378 45.30813227 -3.49736383 41.67018156 -7 37 C-7 36.34 -7 35.68 -7 35 C-8.04800781 35.433125 -9.09601563 35.86625 -10.17578125 36.3125 C-11.55457596 36.87527335 -12.93348839 37.43775835 -14.3125 38 C-15.00279297 38.28617188 -15.69308594 38.57234375 -16.40429688 38.8671875 C-19.41545674 40.08910744 -21.71886984 41 -25 41 C-23.62712658 37.30123909 -21.93644547 34.0485524 -19.875 30.6875 C-19.33617188 29.80449219 -18.79734375 28.92148437 -18.2421875 28.01171875 C-17.62730469 27.01591797 -17.62730469 27.01591797 -17 26 C-19.42003489 21.73329234 -22.26135509 18.35675215 -25.57421875 14.76953125 C-27 13 -27 13 -27 11 C-20.91043879 11.67661791 -14.99909623 12.75018829 -9 14 C-6.03 9.38 -3.06 4.76 0 0 Z " fill="#000000" transform="translate(126,572)"/>
<path d="M0 0 C2.93447357 2.93447357 2.46158423 6.18259456 2.625 10.125 C2.66367188 10.87910156 2.70234375 11.63320313 2.7421875 12.41015625 C2.83651031 14.27303184 2.91934662 16.13648255 3 18 C4.299375 18.12375 5.59875 18.2475 6.9375 18.375 C11.71849952 18.89863328 16.33114101 19.86313835 21 21 C21 21.66 21 22.32 21 23 C16.05 25.31 11.1 27.62 6 30 C6.495 38.91 6.495 38.91 7 48 C1.25810647 45.12905324 -1.78764436 40.83181971 -6 36 C-11.61 38.31 -17.22 40.62 -23 43 C-21.82013265 38.28053062 -19.65486851 34.80816653 -17.1796875 30.65625 C-15.84111239 28.16497957 -15.84111239 28.16497957 -16.07421875 25.90625 C-17.29328962 23.39609564 -18.89327135 21.89266739 -20.9375 20 C-23.6491628 17.48026977 -25.54109088 15.42194389 -27 12 C-24.95825942 12.31201674 -22.91661087 12.62463569 -20.875 12.9375 C-19.73804687 13.11152344 -18.60109375 13.28554688 -17.4296875 13.46484375 C-14.28267331 13.95589266 -11.14069217 14.47018719 -8 15 C-7.73445313 14.28457031 -7.46890625 13.56914062 -7.1953125 12.83203125 C-5.97085901 9.93095681 -4.52016937 7.36984136 -2.875 4.6875 C-2.33617188 3.80449219 -1.79734375 2.92148437 -1.2421875 2.01171875 C-0.83226563 1.34785156 -0.42234375 0.68398438 0 0 Z " fill="#000000" transform="translate(109,443)"/>
<path d="M0 0 C5.11723176 3.19826985 9.52692892 6.95834187 14 11 C15.48113281 10.15115234 15.48113281 10.15115234 16.9921875 9.28515625 C18.28644206 8.54424241 19.58071379 7.80335855 20.875 7.0625 C21.52597656 6.68931641 22.17695313 6.31613281 22.84765625 5.93164062 C27.7734375 3.11328125 27.7734375 3.11328125 30 2 C29.46916292 7.04295227 27.7622812 11.08567047 25.64453125 15.6328125 C24.80373446 17.93960896 24.80373446 17.93960896 25.53515625 20.01171875 C27.54966478 22.74607833 29.95307599 24.59898059 32.625 26.6875 C34.43154113 28.10626173 36.22760168 29.53880874 38 31 C38 31.33 38 31.66 38 32 C31.55929529 32.10655578 25.37358711 31.96205088 19 31 C18.82984375 31.556875 18.6596875 32.11375 18.484375 32.6875 C16.76684063 38.09590609 14.64657745 42.98062896 12 48 C8.84120257 42.56137486 8.23751392 36.07506834 7 30 C1.06 29.67 -4.88 29.34 -11 29 C-11 28.34 -11 27.68 -11 27 C-8.69404616 25.37053772 -6.39803293 23.8564103 -4 22.375 C-2.99839844 21.74464844 -2.99839844 21.74464844 -1.9765625 21.1015625 C-0.32168546 20.06135408 1.33866288 19.02985949 3 18 C2.7834375 17.03578125 2.566875 16.0715625 2.34375 15.078125 C2.0653125 13.81484375 1.786875 12.5515625 1.5 11.25 C1.2215625 9.99703125 0.943125 8.7440625 0.65625 7.453125 C0 4 0 4 0 0 Z " fill="#000000" transform="translate(138,394)"/>
<path d="M0 0 C4.94515667 2.62711448 8.87775489 6.26645294 13 10 C17.65208836 8.27947899 21.60484829 5.86682671 25.79296875 3.2421875 C28 2 28 2 30 2 C27.31261426 11.22669104 27.31261426 11.22669104 25.8125 14.9375 C24.81673774 17.09574278 24.81673774 17.09574278 25 20 C27.42260824 22.26465779 27.42260824 22.26465779 30.4375 24.5 C35.89365352 28.68096055 35.89365352 28.68096055 37 32 C31.06 32 25.12 32 19 32 C17.10810945 36.55934497 17.10810945 36.55934497 15.23095703 41.12475586 C13.22222222 45.88888889 13.22222222 45.88888889 11 47 C10.32844651 44.73050898 9.6626037 42.4596039 9 40.1875 C8.62875 38.92292969 8.2575 37.65835938 7.875 36.35546875 C7 33 7 33 7 30 C5.42798828 29.92652344 5.42798828 29.92652344 3.82421875 29.8515625 C2.44528646 29.77651857 1.0663815 29.70097143 -0.3125 29.625 C-1.34793945 29.57859375 -1.34793945 29.57859375 -2.40429688 29.53125 C-6.06990789 29.31875081 -7.87900792 29.08066139 -11 27 C-9.98679687 26.29423828 -9.98679687 26.29423828 -8.953125 25.57421875 C-8.06109375 24.95160156 -7.1690625 24.32898438 -6.25 23.6875 C-4.92742187 22.76517578 -4.92742187 22.76517578 -3.578125 21.82421875 C-1.35567831 20.25166935 0.83192994 18.64631488 3 17 C2.7834375 16.10796875 2.566875 15.2159375 2.34375 14.296875 C2.0653125 13.12640625 1.786875 11.9559375 1.5 10.75 C1.2215625 9.58984375 0.943125 8.4296875 0.65625 7.234375 C0 4 0 4 0 0 Z " fill="#000000" transform="translate(275,406)"/>
<path d="M0 0 C-0.66 3.3 -1.32 6.6 -2 10 C-0.906875 8.72125 0.18625 7.4425 1.3125 6.125 C3.49138447 3.57611627 5.1807767 1.8794822 8 0 C11.5625 -0.25 11.5625 -0.25 15 0 C17 2 17 2 17.375 5.8125 C17.28660762 11.24863157 15.61452333 16.06983772 13.875 21.1796875 C12.851842 23.9853902 12.851842 23.9853902 13 27 C13.66 26.01 14.32 25.02 15 24 C15.99 24.33 16.98 24.66 18 25 C16.60497573 29.88258495 14.20415961 32.22366818 10 35 C6.52008816 35.34799118 4.14911479 35.57455739 1 34 C0.71009004 27.67996284 1.68163116 22.53501876 3.5 16.5 C3.85771484 15.26636719 3.85771484 15.26636719 4.22265625 14.0078125 C4.80561739 12.00242618 5.40147151 10.00079525 6 8 C-2.19036826 14.46547899 -6.10001245 21.66247804 -8.45703125 31.84765625 C-9 34 -9 34 -10 35 C-11.68608966 35.07205511 -13.37500659 35.08386068 -15.0625 35.0625 C-15.98160156 35.05347656 -16.90070312 35.04445313 -17.84765625 35.03515625 C-18.55792969 35.02355469 -19.26820313 35.01195312 -20 35 C-18.67734006 27.54500758 -16.76585084 20.34049172 -14.67700195 13.07080078 C-13.45222361 9.09965985 -13.45222361 9.09965985 -13 5 C-13.99 4.67 -14.98 4.34 -16 4 C-16 3.34 -16 2.68 -16 2 C-10.42932723 0.40837921 -5.78898419 -0.20674944 0 0 Z " fill="#000000" transform="translate(628,592)"/>
<path d="M0 0 C4.55078688 3.99069004 7.05022587 9.82398125 10 15 C15.61 14.01 21.22 13.02 27 12 C24.94842055 16.1031589 22.65886764 18.69991636 19.55859375 22 C17.83675738 24.20947424 17.08601847 25.19680992 17 28 C18.08318479 30.3334566 19.18385054 32.43304849 20.5 34.625 C21.74664882 36.72900953 22.89243917 38.81433475 24 41 C23.505 41.99 23.505 41.99 23 43 C22.11957031 42.55527344 21.23914063 42.11054687 20.33203125 41.65234375 C19.17058594 41.08644531 18.00914062 40.52054688 16.8125 39.9375 C15.66394531 39.36902344 14.51539063 38.80054688 13.33203125 38.21484375 C9.77876745 36.9193396 8.45175317 36.54183365 5 38 C2.53043355 40.27675804 2.53043355 40.27675804 0.3125 43.0625 C-1.08759881 44.74026546 -2.51720588 46.39485352 -4 48 C-4.66 48 -5.32 48 -6 48 C-5.85860519 45.74971671 -5.71171997 43.49977794 -5.5625 41.25 C-5.48128906 39.99703125 -5.40007812 38.7440625 -5.31640625 37.453125 C-5.07484478 34.81682447 -4.75716066 32.51962706 -4 30 C-4.78375 29.773125 -5.5675 29.54625 -6.375 29.3125 C-11.12301625 27.59339067 -15.52102552 25.31915279 -20 23 C-20 22.34 -20 21.68 -20 21 C-18.94039063 20.79503906 -17.88078125 20.59007812 -16.7890625 20.37890625 C-15.40101178 20.10692334 -14.01299256 19.83477956 -12.625 19.5625 C-11.92632812 19.42779297 -11.22765625 19.29308594 -10.5078125 19.15429688 C-6.64371266 18.4227578 -6.64371266 18.4227578 -3 17 C-2.54978899 14.3163893 -2.20448319 11.70233423 -1.9375 9 C-1.11816874 1.11816874 -1.11816874 1.11816874 0 0 Z " fill="#000000" transform="translate(293,578)"/>
<path d="M0 0 C3.17729325 3.17729325 5.74084058 5.78394406 8.3125 9.3125 C9.08013672 10.35857422 9.08013672 10.35857422 9.86328125 11.42578125 C10.23839844 11.94527344 10.61351562 12.46476563 11 13 C11.6290625 12.80664062 12.258125 12.61328125 12.90625 12.4140625 C18.24216385 10.7907875 23.57759268 9.30539435 29 8 C27.56691865 11.95906817 25.66858051 15.28718181 23.375 18.8125 C22.74335938 19.78832031 22.11171875 20.76414062 21.4609375 21.76953125 C20.97882813 22.50558594 20.49671875 23.24164062 20 24 C20.721875 24.91523437 21.44375 25.83046875 22.1875 26.7734375 C23.1252527 27.97376095 24.06273895 29.1742926 25 30.375 C25.47695312 30.97828125 25.95390625 31.5815625 26.4453125 32.203125 C30 36.7734375 30 36.7734375 30 39 C24.06 37.68 18.12 36.36 12 35 C8.75040324 39.6048713 8.75040324 39.6048713 5.50805664 44.21484375 C4.3631975 45.82756607 3.18277673 47.41487699 2 49 C1.67 49 1.34 49 1 49 C0.505 39.595 0.505 39.595 0 30 C-1.505625 29.731875 -3.01125 29.46375 -4.5625 29.1875 C-9.06412219 28.29742108 -12.8695024 26.97545538 -17 25 C-14.35343384 22.35343384 -11.33754243 21.55475389 -7.875 20.375 C-5.60625 19.59125 -3.3375 18.8075 -1 18 C-0.67 12.06 -0.34 6.12 0 0 Z " fill="#000000" transform="translate(168,609)"/>
<path d="M0 0 C10.23 0 20.46 0 31 0 C31 8.25 31 16.5 31 25 C20.77 25 10.54 25 0 25 C0 16.75 0 8.5 0 0 Z " fill="#080603" transform="translate(242,540)"/>
<path d="M0 0 C9.9 0 19.8 0 30 0 C30 8.25 30 16.5 30 25 C20.1 25 10.2 25 0 25 C0 16.75 0 8.5 0 0 Z " fill="#010100" transform="translate(243,505)"/>
<path d="M0 0 C8.91 0 17.82 0 27 0 C27 14.85 27 29.7 27 45 C23.04 45 19.08 45 15 45 C15 34.11 15 23.22 15 12 C10.05 12 5.1 12 0 12 C0 8.04 0 4.08 0 0 Z " fill="#000000" transform="translate(682,500)"/>
<path d="M0 0 C0.33 0 0.66 0 1 0 C1 2.97 1 5.94 1 9 C3.31 9 5.62 9 8 9 C8 11.97 8 14.94 8 18 C5.69 18 3.38 18 1 18 C1 39.12 1 60.24 1 82 C-10.71103797 66.38528271 -11.40033231 43.51680471 -8.765625 24.9609375 C-7.23156461 16.23759408 -4.08825635 7.83085838 0 0 Z " fill="#010000" transform="translate(136,479)"/>
<path d="M0 0 C-0.63891298 5.51165271 -1.9288364 10.58818193 -3.5390625 15.890625 C-4.04186277 17.58587935 -4.54446108 19.28119361 -5.046875 20.9765625 C-5.83833712 23.62628292 -6.63257188 26.27512028 -7.43066406 28.92285156 C-8.20340778 31.4932911 -8.96558512 34.06668181 -9.7265625 36.640625 C-9.9691983 37.43438538 -10.21183411 38.22814575 -10.46182251 39.04595947 C-11.83749126 43.50234988 -11.83749126 43.50234988 -11 48 C-9.35 48.33 -7.7 48.66 -6 49 C-6 49.99 -6 50.98 -6 52 C-14.58 52 -23.16 52 -32 52 C-32 51.01 -32 50.02 -32 49 C-30.36417969 48.7525 -30.36417969 48.7525 -28.6953125 48.5 C-24.69746675 47.34240472 -24.69746675 47.34240472 -23.1796875 43.5 C-22.71441485 42.00914261 -22.28127382 40.50800397 -21.875 39 C-21.63765137 38.20779053 -21.40030273 37.41558105 -21.15576172 36.59936523 C-20.40785191 34.07373899 -19.70311072 31.53842233 -19 29 C-18.50705899 27.3028468 -18.01229055 25.60622322 -17.515625 23.91015625 C-15.00824339 16.0731677 -15.00824339 16.0731677 -14 8 C-16.31 7.67 -18.62 7.34 -21 7 C-21 6.01 -21 5.02 -21 4 C-18.43923903 3.32595716 -15.87673417 2.660586 -13.3125 2 C-12.2306543 1.71382812 -12.2306543 1.71382812 -11.12695312 1.421875 C-7.33149039 0.45134572 -3.95384561 -0.24955239 0 0 Z " fill="#000000" transform="translate(769,575)"/>
<path d="M0 0 C2.36827756 2.41401682 2.98657731 3.39597885 3.0625 6.8125 C1.25561902 12.23314294 -2.09970147 15.73313431 -6.8125 18.875 C-10.85663102 20.30234036 -14.73811686 20.72534531 -19 21 C-18.1395861 25.33229715 -18.1395861 25.33229715 -16 29 C-10.25498208 28.65529893 -6.74867882 27.00426619 -2 24 C-2 28 -2 28 -3.3203125 29.6328125 C-9.63074062 34.85052579 -14.81374017 36.64970316 -23 36 C-25.84124653 34.76467542 -27.42097859 33.7444561 -29.3125 31.3125 C-31.23608152 24.84227124 -29.96322762 19.42258308 -27.32421875 13.39453125 C-21.86448828 3.52192129 -11.3282749 -2.48892631 0 0 Z M-11.375 5 C-14.30483821 8.34838653 -16.56061296 11.76595889 -18 16 C-17.67 16.66 -17.34 17.32 -17 18 C-11.22734158 15.7696547 -9.45337451 13.47291236 -7 8 C-6.6615115 5.20526411 -6.6615115 5.20526411 -7 3 C-9.26251887 2.78528808 -9.26251887 2.78528808 -11.375 5 Z " fill="#000000" transform="translate(714,592)"/>
<path d="M0 0 C3.3 0 6.6 0 10 0 C10.27386293 6.20692129 10.47239316 12.41026221 10.60424805 18.62182617 C10.65925176 20.72987169 10.73408744 22.83750359 10.82983398 24.9440918 C11.64791298 43.41867782 11.64791298 43.41867782 7.60791016 48.79833984 C5.03145176 51.59997557 2.11023482 53.80946591 -1 56 C-1.99 56.99 -2.98 57.98 -4 59 C-6.97 55.535 -6.97 55.535 -10 52 C-8.17113966 48.34227933 -7.36888078 47.30544498 -4.43139648 44.85327148 C-0.85492119 41.36210353 -0.17139166 38.87695192 -0.05445862 33.95582581 C-0.06871384 33.09512985 -0.08296906 32.2344339 -0.09765625 31.34765625 C-0.07921913 29.99745644 -0.07921913 29.99745644 -0.06040955 28.61997986 C-0.02881069 25.76664476 -0.04491756 22.91591307 -0.0625 20.0625 C-0.04938326 18.11911673 -0.03313953 16.1757519 -0.01367188 14.23242188 C0.02706918 9.48772957 0.02505433 4.74478258 0 0 Z " fill="#E6A04B" transform="translate(216,516)"/>
<path d="M0 0 C2.97 0 5.94 0 9 0 C9.52237601 3.05963091 9.52199057 5.16907918 7.8422699 7.84291077 C4.35092206 11.76185464 1.83085209 13.45768321 -3.47631836 13.79467773 C-5.59781637 13.79357863 -7.71953278 13.75456125 -9.83984375 13.68359375 C-10.96193741 13.67368912 -12.08403107 13.66378448 -13.24012756 13.65357971 C-16.80727469 13.61454348 -20.37129058 13.5267334 -23.9375 13.4375 C-26.36258562 13.4023726 -28.7877197 13.37043612 -31.21289062 13.34179688 C-37.1429868 13.26481692 -43.07126968 13.14783395 -49 13 C-49.6875 9.6875 -49.6875 9.6875 -50 6 C-48.81047058 4.29081726 -48.81047058 4.29081726 -47 3 C-44.85493469 2.63923645 -44.85493469 2.63923645 -42.3449707 2.65942383 C-41.40422195 2.65965042 -40.46347321 2.65987701 -39.49421692 2.66011047 C-37.97534126 2.68333626 -37.97534126 2.68333626 -36.42578125 2.70703125 C-35.38681198 2.71127609 -34.34784271 2.71552094 -33.27738953 2.71989441 C-29.95549724 2.73670151 -26.63420925 2.77435804 -23.3125 2.8125 C-21.06185771 2.82754418 -18.81120593 2.84123305 -16.56054688 2.85351562 C-11.04015803 2.88661164 -5.52012218 2.93683131 0 3 C0 2.01 0 1.02 0 0 Z " fill="#EFC66F" transform="translate(193,462)"/>
<path d="M0 0 C0.88365234 0.02255859 1.76730469 0.04511719 2.67773438 0.06835938 C4.8483891 0.12702572 7.0181669 0.21670021 9.1875 0.3125 C8.5275 4.2725 7.8675 8.2325 7.1875 12.3125 C6.1975 11.9825 5.2075 11.6525 4.1875 11.3125 C3.47022222 9.66698038 2.80424772 7.99827711 2.1875 6.3125 C0.34866119 4.02521266 0.34866119 4.02521266 -2.4375 4.1875 C-3.22125 4.22875 -4.005 4.27 -4.8125 4.3125 C-4.31979165 8.71608092 -2.96454935 10.52302385 0.1875 13.5625 C3.73943495 17.38864178 5.31237636 20.06178376 5.421875 25.30859375 C4.89240692 29.83554581 2.824601 31.77675598 -0.5625 34.625 C-5.27405976 37.0713868 -8.87673693 36.65410525 -14 35.75 C-17.03129472 35.09181912 -17.03129472 35.09181912 -20.8125 36.3125 C-20.1525 32.0225 -19.4925 27.7325 -18.8125 23.3125 C-17.8225 23.3125 -16.8325 23.3125 -15.8125 23.3125 C-15.59335937 23.87839844 -15.37421875 24.44429687 -15.1484375 25.02734375 C-14.17316957 27.28314641 -13.22015852 29.29485613 -11.8125 31.3125 C-8.69116256 32.44728935 -8.69116256 32.44728935 -5.8125 32.3125 C-4.85596192 30.12797311 -4.85596192 30.12797311 -4.8125 27.3125 C-6.3876509 25.03957197 -7.92441955 23.10894865 -9.75 21.0625 C-13.45318345 16.58900874 -15.9476184 13.3597248 -15.65234375 7.3125 C-12.45673719 -0.29750259 -7.24204322 -0.35103118 0 0 Z " fill="#000000" transform="translate(576.8125,591.6875)"/>
<path d="M0 0 C1.98 0 3.96 0 6 0 C6 29.04 6 58.08 6 88 C4.02 88 2.04 88 0 88 C0 58.96 0 29.92 0 0 Z " fill="#000000" transform="translate(876,457)"/>
<path d="M0 0 C1.89782227 0.05414062 1.89782227 0.05414062 3.83398438 0.109375 C6.95489744 0.20359124 10.06965808 0.33501803 13.1875 0.5 C12.5985082 4.91028058 10.94964497 7.99797777 8.6875 11.8046875 C8.33551041 12.40146301 7.98352081 12.99823853 7.62086487 13.61309814 C6.48328094 15.53790122 5.33562226 17.45646782 4.1875 19.375 C3.40687758 20.69089182 2.62684888 22.00713602 1.84741211 23.32373047 C-0.03377683 26.49742792 -1.92306308 29.66619541 -3.81622314 32.83276367 C-5.17110495 35.10011351 -6.52090827 37.37047627 -7.87109375 39.640625 C-13.22574691 48.61987036 -13.22574691 48.61987036 -15.8125 52.5 C-17.1325 52.17 -18.4525 51.84 -19.8125 51.5 C-19.24893928 46.99992562 -17.36895187 43.70872431 -15 39.9375 C-14.192277 38.62266071 -13.38501149 37.3075403 -12.578125 35.9921875 C-12.13919922 35.2815918 -11.70027344 34.57099609 -11.24804688 33.83886719 C-8.54537977 29.43554221 -5.90292994 24.99589863 -3.25 20.5625 C-2.20726147 18.82408064 -1.16431174 17.08578793 -0.12109375 15.34765625 C0.32435791 14.60523682 0.76980957 13.86281738 1.22875977 13.09790039 C1.70333618 12.3069397 1.70333618 12.3069397 2.1875 11.5 C-0.39646679 11.41887546 -2.97787568 11.35945252 -5.5625 11.3125 C-6.29210937 11.28736328 -7.02171875 11.26222656 -7.7734375 11.23632812 C-12.21016157 11.17582734 -14.50118272 11.55230868 -17.8125 14.5 C-18.8025 14.5 -19.7925 14.5 -20.8125 14.5 C-20.125 12 -20.125 12 -18.8125 8.5 C-18.56951172 7.81550781 -18.32652344 7.13101563 -18.07617188 6.42578125 C-14.32487528 -1.64360824 -7.98456806 -0.42958876 0 0 Z " fill="#000000" transform="translate(839.8125,575.5)"/>
<path d="M0 0 C2.75 1.5625 2.75 1.5625 4 4 C3.78571429 10.21428571 3.78571429 10.21428571 1 13 C-1.5 13.25 -1.5 13.25 -4 13 C-6 11 -6 11 -6.25 8.5625 C-6 6 -6 6 -4 3 C-8.9942853 4.24857132 -11.32189495 5.5672744 -14 10 C-16.3945225 15.83788543 -17.7938108 20.84979154 -16 27 C-13.20011357 29.30546619 -13.20011357 29.30546619 -10.125 28.8125 C-6.93968805 27.98431889 -4.75442881 26.75977396 -2 25 C-1.34 25 -0.68 25 0 25 C-0.38067797 27.61929172 -0.78704318 28.79191633 -2.70703125 30.66796875 C-3.74923828 31.42013672 -3.74923828 31.42013672 -4.8125 32.1875 C-5.84310547 32.95126953 -5.84310547 32.95126953 -6.89453125 33.73046875 C-11.09952732 36.26594875 -15.14942343 36.33452252 -20 36 C-25.3916955 33.96539792 -25.3916955 33.96539792 -27.14453125 31.18359375 C-29.32549363 25.61666237 -28.55347184 19.61301078 -26.3125 14.1875 C-24.40090821 10.39761941 -22.31699778 7.71390727 -19 5 C-18.43539062 4.53464844 -17.87078125 4.06929687 -17.2890625 3.58984375 C-11.82974988 -0.40993835 -6.64816803 -1.12933624 0 0 Z " fill="#000000" transform="translate(679,592)"/>
<path d="M0 0 C3.3 0 6.6 0 10 0 C10 1.32 10 2.64 10 4 C32.275 3.505 32.275 3.505 55 3 C56.6415049 6.2830098 55.51888624 9.42545033 55 13 C48.29264143 13.17797963 41.58589485 13.30027756 34.87670898 13.38452148 C32.59620408 13.41965101 30.31585601 13.4673665 28.03588867 13.52807617 C24.75139639 13.61332254 21.46899317 13.65276428 18.18359375 13.68359375 C17.16978134 13.71972275 16.15596893 13.75585175 15.11143494 13.79307556 C9.82799483 13.79598398 6.74154095 13.39594691 2.82836914 9.67211914 C0.45411105 7.03610446 0.02764448 6.2172066 -0.4375 2.5625 C-0.293125 1.716875 -0.14875 0.87125 0 0 Z " fill="#F5CB70" transform="translate(231,474)"/>
<path d="M0 0 C-1.61050105 9.22377877 -4.28138519 18.05554976 -7 27 C-6.67 27.33 -6.34 27.66 -6 28 C-4.68 26.68 -3.36 25.36 -2 24 C-1.1875 25.625 -1.1875 25.625 -1 28 C-5.8267148 34.89530686 -5.8267148 34.89530686 -10 36 C-13.625 35.8125 -13.625 35.8125 -17 35 C-19 32 -19 32 -18.8984375 30.01171875 C-18.72570312 29.24472656 -18.55296875 28.47773437 -18.375 27.6875 C-18.1790625 26.81351563 -17.983125 25.93953125 -17.78125 25.0390625 C-16.56990054 20.3269131 -15.20592611 15.66276894 -13.8046875 11.00390625 C-12.87062149 8.03533196 -12.87062149 8.03533196 -13 5 C-13.99 4.67 -14.98 4.34 -16 4 C-15.67 3.01 -15.34 2.02 -15 1 C-9.94997778 -0.03590199 -5.12583611 -0.10251672 0 0 Z " fill="#000000" transform="translate(606,592)"/>
<path d="M0 0 C12.87 0 25.74 0 39 0 C39 2.97 39 5.94 39 9 C26.13 9 13.26 9 0 9 C0 6.03 0 3.06 0 0 Z " fill="#080603" transform="translate(154,488)"/>
<path d="M0 0 C1.5631897 0.00785522 1.5631897 0.00785522 3.15795898 0.01586914 C4.28266602 0.0190918 5.40737305 0.02231445 6.56616211 0.02563477 C7.75016602 0.03401367 8.93416992 0.04239258 10.15405273 0.05102539 C11.34192383 0.05553711 12.52979492 0.06004883 13.75366211 0.06469727 C16.69964685 0.07652853 19.64560589 0.09446463 22.59155273 0.11352539 C22.59155273 4.40352539 22.59155273 8.69352539 22.59155273 13.11352539 C14.01155273 13.11352539 5.43155273 13.11352539 -3.40844727 13.11352539 C-3.40844727 0.16066173 -3.40844727 0.16066173 0 0 Z " fill="#16130B" transform="translate(164.408447265625,537.886474609375)"/>
<path d="M0 0 C1.98 0 3.96 0 6 0 C6.99 2.97 7.98 5.94 9 9 C9.66 9 10.32 9 11 9 C11.99 6.03 12.98 3.06 14 0 C15.98 0 17.96 0 20 0 C20 5.61 20 11.22 20 17 C18.35 17 16.7 17 15 17 C14.67 15.68 14.34 14.36 14 13 C13.34 14.32 12.68 15.64 12 17 C9.625 16.75 9.625 16.75 7 16 C5.6875 13.9375 5.6875 13.9375 5 12 C4.67 13.65 4.34 15.3 4 17 C2.68 17 1.36 17 0 17 C0 11.39 0 5.78 0 0 Z " fill="#000000" transform="translate(921,458)"/>
<path d="M0 0 C3.3 0 6.6 0 10 0 C10 1.98 10 3.96 10 6 C12.31 6 14.62 6 17 6 C17 9.63 17 13.26 17 17 C9.51870324 17.93516209 9.51870324 17.93516209 5.62109375 15.53515625 C2.57181539 12.78044145 0.30990187 10.58367175 -0.49609375 6.46484375 C-0.5 4 -0.5 4 0 0 Z " fill="#ECCD7B" transform="translate(250,510)"/>
<path d="M0 0 C3.3 0 6.6 0 10 0 C10 1.98 10 3.96 10 6 C12.31 6 14.62 6 17 6 C17 9.3 17 12.6 17 16 C8.46449976 16.81847263 8.46449976 16.81847263 4.77734375 14.7578125 C1.95851081 12.24575194 0.22687586 10.31546367 -0.42578125 6.53125 C-0.4375 4.0625 -0.4375 4.0625 0 0 Z " fill="#EFD07D" transform="translate(250,545)"/>
<path d="M0 0 C5 1 5 1 6.8125 3.5625 C7.204375 4.366875 7.59625 5.17125 8 6 C8.33 4.02 8.66 2.04 9 0 C10.32 0 11.64 0 13 0 C13 4.95 13 9.9 13 15 C11.35 15 9.7 15 8 15 C6.1875 12.5 6.1875 12.5 5 10 C4.67 11.65 4.34 13.3 4 15 C2.68 15 1.36 15 0 15 C0 10.05 0 5.1 0 0 Z " fill="#000000" transform="translate(396,554)"/>
<path d="M0 0 C7.46490702 -0.36712657 7.46490702 -0.36712657 9.7421875 1.1953125 C11.41152609 3.59045047 11.36797071 5.16522235 11.3125 8.0625 C11.30863281 8.94035156 11.30476563 9.81820312 11.30078125 10.72265625 C11 13 11 13 9 15 C5.98173347 15.27240673 3.03629378 15.08675125 0 15 C0 10.05 0 5.1 0 0 Z M4 3 C4 3.99 4 4.98 4 6 C4.99 5.67 5.98 5.34 7 5 C6.67 4.34 6.34 3.68 6 3 C5.34 3 4.68 3 4 3 Z M4 9 C4 9.99 4 10.98 4 12 C4.99 12 5.98 12 7 12 C7 11.01 7 10.02 7 9 C6.01 9 5.02 9 4 9 Z " fill="#000000" transform="translate(313,554)"/>
<path d="M0 0 C4.95 0 9.9 0 15 0 C15 1.32 15 2.64 15 4 C13.35 4 11.7 4 10 4 C10 8.29 10 12.58 10 17 C8.35 17 6.7 17 5 17 C5 12.71 5 8.42 5 4 C3.35 4 1.7 4 0 4 C0 2.68 0 1.36 0 0 Z " fill="#000000" transform="translate(904,458)"/>
<path d="M0 0 C1.32 0 2.64 0 4 0 C4.33 3.63 4.66 7.26 5 11 C5.99 10.67 6.98 10.34 8 10 C8.33 6.7 8.66 3.4 9 0 C9.99 0 10.98 0 12 0 C12.05386629 2.12472576 12.09273071 4.24983652 12.125 6.375 C12.14820313 7.55835938 12.17140625 8.74171875 12.1953125 9.9609375 C12 13 12 13 10 15 C6.5625 15.375 6.5625 15.375 3 15 C0.68582748 12.74922946 0.04512216 11.43076623 -0.29296875 8.203125 C-0.25816406 7.22859375 -0.22335937 6.2540625 -0.1875 5.25 C-0.16042969 4.26515625 -0.13335937 3.2803125 -0.10546875 2.265625 C-0.07066406 1.51796875 -0.03585937 0.7703125 0 0 Z " fill="#000000" transform="translate(335,554)"/>
<path d="M0 0 C3.5625 0.1875 3.5625 0.1875 5.5625 2.1875 C5.8125 5.6875 5.8125 5.6875 5.5625 9.1875 C3.5625 11.1875 3.5625 11.1875 0.125 11.625 C-3.4375 11.1875 -3.4375 11.1875 -5.5 9 C-6.4375 6.1875 -6.4375 6.1875 -5.6875 3.4375 C-3.89583333 0.2125 -3.89583333 0.2125 0 0 Z " fill="#000000" transform="translate(603.4375,574.8125)"/>
<path d="M0 0 C0.94875 0.04125 1.8975 0.0825 2.875 0.125 C3.205 1.445 3.535 2.765 3.875 4.125 C2.555 4.455 1.235 4.785 -0.125 5.125 C0.514375 5.351875 1.15375 5.57875 1.8125 5.8125 C3.875 7.125 3.875 7.125 4.75 9.5625 C4.875 12.125 4.875 12.125 2.875 15.125 C0.9296875 15.41796875 0.9296875 15.41796875 -1.25 15.3125 C-3.168125 15.2196875 -3.168125 15.2196875 -5.125 15.125 C-5.125 13.805 -5.125 12.485 -5.125 11.125 C-3.475 11.125 -1.825 11.125 -0.125 11.125 C-0.95 10.568125 -1.775 10.01125 -2.625 9.4375 C-5.125 7.125 -5.125 7.125 -5.5625 4.5 C-4.8624594 0.6997796 -3.80831925 0.15233277 0 0 Z " fill="#000000" transform="translate(364.125,553.875)"/>
<path d="M0 0 C0 1.32 0 2.64 0 4 C-1.32 4.33 -2.64 4.66 -4 5 C-3.175 5.391875 -2.35 5.78375 -1.5 6.1875 C1 8 1 8 1.4375 10.5625 C1 13 1 13 -1 15 C-4.625 15.125 -4.625 15.125 -8 15 C-8.33 13.68 -8.66 12.36 -9 11 C-6.03 11.495 -6.03 11.495 -3 12 C-4.93254772 9.9754262 -6.63158688 8.57894208 -9 7 C-9.375 4.5 -9.375 4.5 -9 2 C-5.5647952 -0.29013653 -4.014669 -0.17842973 0 0 Z " fill="#000000" transform="translate(471,554)"/>
<path d="M0 0 C0 1.32 0 2.64 0 4 C-1.32 4.33 -2.64 4.66 -4 5 C-3.175 5.391875 -2.35 5.78375 -1.5 6.1875 C1 8 1 8 1.4375 10.5625 C1 13 1 13 -1 15 C-4.625 15.125 -4.625 15.125 -8 15 C-8.33 13.68 -8.66 12.36 -9 11 C-6.03 11.495 -6.03 11.495 -3 12 C-3.433125 11.566875 -3.86625 11.13375 -4.3125 10.6875 C-4.869375 10.130625 -5.42625 9.57375 -6 9 C-6.5775 8.54625 -7.155 8.0925 -7.75 7.625 C-9 6 -9 6 -8.8125 3.375 C-7.30126828 -1.04244658 -4.13648493 -0.08992359 0 0 Z " fill="#000000" transform="translate(450,554)"/>
<path d="M0 0 C3.3 0 6.6 0 10 0 C10 3.3 10 6.6 10 10 C6.7 10 3.4 10 0 10 C0 6.7 0 3.4 0 0 Z " fill="#E09B49" transform="translate(216,497)"/>
<path d="M0 0 C3.3 0 6.6 0 10 0 C10 3.3 10 6.6 10 10 C6.7 10 3.4 10 0 10 C0 6.7 0 3.4 0 0 Z " fill="#E69F4B" transform="translate(216,478)"/>
<path d="M0 0 C2.97 0 5.94 0 9 0 C9 0.99 9 1.98 9 3 C7.02 3 5.04 3 3 3 C3 3.99 3 4.98 3 6 C4.65 6 6.3 6 8 6 C8 6.99 8 7.98 8 9 C6.35 9 4.7 9 3 9 C3 9.99 3 10.98 3 12 C4.98 12 6.96 12 9 12 C9 12.99 9 13.98 9 15 C6.03 15 3.06 15 0 15 C0 10.05 0 5.1 0 0 Z " fill="#000000" transform="translate(421,554)"/>
<path d="M0 0 C3.96 0 7.92 0 12 0 C12 2.31 12 4.62 12 7 C8.04 7 4.08 7 0 7 C0 4.69 0 2.38 0 0 Z " fill="#040301" transform="translate(189,507)"/>
<path d="M0 0 C3.63 0 7.26 0 11 0 C11 2.31 11 4.62 11 7 C7.37 7 3.74 7 0 7 C0 4.69 0 2.38 0 0 Z " fill="#000000" transform="translate(148,507)"/>
<path d="M0 0 C1.32 0 2.64 0 4 0 C4 4.95 4 9.9 4 15 C2.68 15 1.36 15 0 15 C0 10.05 0 5.1 0 0 Z " fill="#000000" transform="translate(380,554)"/>
</svg>
