<?xml version="1.0" encoding="UTF-8"?>
<svg id="Layer_1" xmlns="http://www.w3.org/2000/svg" version="1.1" viewBox="0 0 540 540">
  <!-- Generator: Adobe Illustrator 29.5.0, SVG Export Plug-In . SVG Version: 2.1.0 Build 137)  -->
  <defs>
    <style>
      .st0 {
        fill: #dce667;
      }

      .st1 {
        fill: #fff;
      }

      .st2 {
        fill: #1d262d;
      }
    </style>
  </defs>
  <rect class="st2" x="-961.94" y="-725.64" width="841.89" height="595.28"/>
  <g>
    <path class="st1" d="M-641.63-330.1c-5.46,0-9.86-1.24-13.22-3.71-3.36-2.47-5.4-5.97-6.12-10.49l11.15-1.69c.45,2.03,1.46,3.62,3.03,4.77,1.56,1.15,3.55,1.73,5.96,1.73,1.98,0,3.5-.38,4.57-1.14,1.07-.76,1.6-1.83,1.6-3.19,0-.86-.21-1.54-.64-2.07-.43-.52-1.38-1.04-2.87-1.54-1.48-.51-3.79-1.18-6.92-2.01-3.53-.91-6.35-1.93-8.46-3.05-2.11-1.12-3.64-2.47-4.57-4.03-.94-1.56-1.4-3.46-1.4-5.68,0-2.78.71-5.19,2.13-7.24,1.42-2.05,3.42-3.62,6-4.73,2.58-1.11,5.62-1.66,9.12-1.66s6.4.52,9.02,1.56,4.74,2.53,6.36,4.45c1.62,1.93,2.61,4.2,2.99,6.82l-11.15,2.01c-.19-1.6-.88-2.87-2.09-3.81-1.2-.94-2.83-1.48-4.89-1.64-2.01-.13-3.62.13-4.83.8-1.22.67-1.82,1.63-1.82,2.89,0,.75.26,1.38.78,1.89.52.51,1.6,1.03,3.25,1.56,1.64.54,4.15,1.23,7.52,2.09,3.29.86,5.93,1.85,7.92,2.99,1.99,1.14,3.44,2.5,4.35,4.09.91,1.59,1.36,3.51,1.36,5.76,0,4.44-1.6,7.93-4.81,10.47-3.21,2.54-7.65,3.81-13.32,3.81Z"/>
    <path class="st1" d="M-618.69-380.64v-9.63h10.91v9.63h-10.91ZM-618.69-331.31v-43.32h10.91v43.32h-10.91Z"/>
    <path class="st1" d="M-560.13-359.06c-.11-1.58-.42-3.32-.92-5.23-.51-1.91-1.36-3.75-2.55-5.52-1.19-1.77-2.85-3.22-4.99-4.37-2.14-1.15-4.91-1.72-8.3-1.72-4.25,0-7.78.92-10.57,2.77-1.31.87-2.47,1.87-3.47,2.99v-4.47h-9.71v43.32h11.07v-21.98c0-2.7.3-4.87.9-6.5.6-1.63,1.37-2.87,2.31-3.71.94-.84,1.94-1.41,3.01-1.7,1.07-.29,2.07-.44,3.01-.44,2.33,0,4.12.52,5.39,1.56,1.27,1.04,2.19,2.34,2.75,3.89.56,1.55.9,3.1,1,4.63.11,1.54.16,2.8.16,3.79v20.46h11.07v-24.31c0-.72-.05-1.87-.16-3.45Z"/>
    <path class="st1" d="M-519.06-349.92h5.25c.45-5.24-.08-9.8-1.6-13.68-1.52-3.88-3.88-6.89-7.06-9.02-3.18-2.14-7.05-3.21-11.59-3.21-4.28,0-8.06.97-11.35,2.91-3.29,1.94-5.87,4.66-7.74,8.16-1.87,3.5-2.81,7.62-2.81,12.35,0,4.33.96,8.18,2.87,11.53,1.91,3.36,4.56,5.99,7.94,7.9,3.38,1.91,7.29,2.87,11.73,2.87,4.17,0,8.02-1.1,11.53-3.29,3.52-2.19,6.09-5.27,7.72-9.22l-10.91-3.13c-.8,1.77-1.97,3.12-3.49,4.05-1.52.94-3.36,1.4-5.5,1.4-3.4,0-5.97-1.1-7.72-3.31-1.28-1.61-2.09-3.72-2.43-6.32h25.16ZM-533.58-366.36c3.18,0,5.48.97,6.88,2.91.92,1.27,1.54,3.09,1.85,5.44h-19.07c.43-2,1.13-3.66,2.14-4.95,1.75-2.26,4.49-3.39,8.2-3.39Z"/>
    <path class="st1" d="M-478.71-374.63v2.39c-.25-.2-.5-.4-.76-.59-2.81-2.01-6.27-3.01-10.39-3.01s-7.76.99-10.83,2.97c-3.08,1.98-5.46,4.69-7.16,8.12-1.7,3.44-2.55,7.36-2.55,11.77s.84,8.22,2.51,11.67c1.67,3.45,4,6.18,7,8.18,2.99,2.01,6.48,3.01,10.47,3.01s7.54-.92,10.35-2.73v4.33c.05,1.6-.35,2.95-1.22,4.03-.87,1.08-2.03,1.9-3.47,2.45-1.44.55-2.98.82-4.61.82-1.52,0-2.94-.33-4.23-1-1.3-.67-2.29-1.64-2.99-2.93l-10.11,4.89c1.1,1.87,2.52,3.51,4.27,4.91,1.75,1.4,3.74,2.5,5.96,3.29,2.22.79,4.56,1.18,7.02,1.18,3.18,0,6.14-.42,8.86-1.26,2.73-.84,5.03-2.12,6.92-3.83,1.89-1.71,3.17-3.89,3.87-6.54.24-.94.41-1.88.5-2.83.09-.95.14-1.96.14-3.03v-46.29h-9.55ZM-482.82-341.45c-1.46,1.1-3.4,1.64-5.84,1.64s-4.28-.59-5.78-1.77c-1.5-1.18-2.61-2.76-3.33-4.75-.72-1.99-1.08-4.2-1.08-6.64s.37-4.61,1.12-6.6c.75-1.99,1.91-3.58,3.47-4.77s3.56-1.79,6-1.79c2.27,0,4.11.55,5.52,1.64,1.4,1.1,2.43,2.63,3.07,4.61.64,1.98.96,4.28.96,6.9s-.32,4.92-.96,6.9c-.64,1.98-1.69,3.52-3.15,4.61Z"/>
    <polygon class="st1" points="-431.94 -374.63 -443.26 -345.15 -454.65 -374.63 -465.96 -374.63 -448.48 -331.65 -455.61 -312.06 -445.5 -312.06 -421.03 -374.63 -431.94 -374.63"/>
  </g>
  <path class="st0" d="M-536.7-497.83l-4.74,4.74-9.07-22.4,22.4,9.07-4.74,4.74,21.4,21.4c5.99-6.88,9.63-15.86,9.63-25.69,0-21.63-17.54-39.17-39.17-39.17s-39.17,17.54-39.17,39.17c0,7.81,2.37,15.54,6.76,22,3.12,4.58,7.45,8.35,11.34,12.27s7.42,7.47,11.14,11.2c1.92,1.93,3.84,3.86,5.76,5.79l4.74-4.74,9.07,22.4-22.4-9.07,4.74-4.74-21.76-21.76c-5.85,6.84-9.39,15.71-9.39,25.42,0,21.63,17.54,39.17,39.17,39.17s39.17-17.54,39.17-39.17c0-5.73-1.25-11.67-3.79-16.91-2.75-5.67-7.09-9.71-11.48-14.09-3.7-3.7-7.4-7.4-11.1-11.1l-7.88-7.88-.63-.63Z"/>
  <g>
    <path class="st2" d="M-1592.63-330.1c-5.46,0-9.86-1.24-13.22-3.71-3.36-2.47-5.4-5.97-6.12-10.49l11.15-1.69c.45,2.03,1.46,3.62,3.03,4.77,1.56,1.15,3.55,1.73,5.96,1.73,1.98,0,3.5-.38,4.57-1.14,1.07-.76,1.6-1.83,1.6-3.19,0-.86-.21-1.54-.64-2.07-.43-.52-1.38-1.04-2.87-1.54-1.48-.51-3.79-1.18-6.92-2.01-3.53-.91-6.35-1.93-8.46-3.05-2.11-1.12-3.64-2.47-4.57-4.03-.94-1.56-1.4-3.46-1.4-5.68,0-2.78.71-5.19,2.13-7.24,1.42-2.05,3.42-3.62,6-4.73,2.58-1.11,5.62-1.66,9.12-1.66s6.4.52,9.02,1.56,4.74,2.53,6.36,4.45c1.62,1.93,2.61,4.2,2.99,6.82l-11.15,2.01c-.19-1.6-.88-2.87-2.09-3.81-1.2-.94-2.83-1.48-4.89-1.64-2.01-.13-3.62.13-4.83.8-1.22.67-1.82,1.63-1.82,2.89,0,.75.26,1.38.78,1.89.52.51,1.6,1.03,3.25,1.56,1.64.54,4.15,1.23,7.52,2.09,3.29.86,5.93,1.85,7.92,2.99,1.99,1.14,3.44,2.5,4.35,4.09.91,1.59,1.36,3.51,1.36,5.76,0,4.44-1.6,7.93-4.81,10.47-3.21,2.54-7.65,3.81-13.32,3.81Z"/>
    <path class="st2" d="M-1569.69-380.64v-9.63h10.91v9.63h-10.91ZM-1569.69-331.31v-43.32h10.91v43.32h-10.91Z"/>
    <path class="st2" d="M-1511.13-359.06c-.11-1.58-.42-3.32-.92-5.23-.51-1.91-1.36-3.75-2.55-5.52-1.19-1.77-2.85-3.22-4.99-4.37-2.14-1.15-4.91-1.72-8.3-1.72-4.25,0-7.78.92-10.57,2.77-1.31.87-2.47,1.87-3.47,2.99v-4.47h-9.71v43.32h11.07v-21.98c0-2.7.3-4.87.9-6.5.6-1.63,1.37-2.87,2.31-3.71.94-.84,1.94-1.41,3.01-1.7,1.07-.29,2.07-.44,3.01-.44,2.33,0,4.12.52,5.39,1.56,1.27,1.04,2.19,2.34,2.75,3.89.56,1.55.9,3.1,1,4.63.11,1.54.16,2.8.16,3.79v20.46h11.07v-24.31c0-.72-.05-1.87-.16-3.45Z"/>
    <path class="st2" d="M-1470.06-349.92h5.25c.45-5.24-.08-9.8-1.6-13.68-1.52-3.88-3.88-6.89-7.06-9.02-3.18-2.14-7.05-3.21-11.59-3.21-4.28,0-8.06.97-11.35,2.91-3.29,1.94-5.87,4.66-7.74,8.16-1.87,3.5-2.81,7.62-2.81,12.35,0,4.33.96,8.18,2.87,11.53,1.91,3.36,4.56,5.99,7.94,7.9,3.38,1.91,7.29,2.87,11.73,2.87,4.17,0,8.02-1.1,11.53-3.29,3.52-2.19,6.09-5.27,7.72-9.22l-10.91-3.13c-.8,1.77-1.97,3.12-3.49,4.05-1.52.94-3.36,1.4-5.5,1.4-3.4,0-5.97-1.1-7.72-3.31-1.28-1.61-2.09-3.72-2.43-6.32h25.16ZM-1484.58-366.36c3.18,0,5.48.97,6.88,2.91.92,1.27,1.54,3.09,1.85,5.44h-19.07c.43-2,1.13-3.66,2.14-4.95,1.75-2.26,4.49-3.39,8.2-3.39Z"/>
    <path class="st2" d="M-1429.71-374.63v2.39c-.25-.2-.5-.4-.76-.59-2.81-2.01-6.27-3.01-10.39-3.01s-7.76.99-10.83,2.97c-3.08,1.98-5.46,4.69-7.16,8.12-1.7,3.44-2.55,7.36-2.55,11.77s.84,8.22,2.51,11.67c1.67,3.45,4,6.18,7,8.18,2.99,2.01,6.48,3.01,10.47,3.01s7.54-.92,10.35-2.73v4.33c.05,1.6-.35,2.95-1.22,4.03-.87,1.08-2.03,1.9-3.47,2.45-1.44.55-2.98.82-4.61.82-1.52,0-2.94-.33-4.23-1-1.3-.67-2.29-1.64-2.99-2.93l-10.11,4.89c1.1,1.87,2.52,3.51,4.27,4.91,1.75,1.4,3.74,2.5,5.96,3.29,2.22.79,4.56,1.18,7.02,1.18,3.18,0,6.14-.42,8.86-1.26,2.73-.84,5.03-2.12,6.92-3.83,1.89-1.71,3.17-3.89,3.87-6.54.24-.94.41-1.88.5-2.83.09-.95.14-1.96.14-3.03v-46.29h-9.55ZM-1433.82-341.45c-1.46,1.1-3.4,1.64-5.84,1.64s-4.28-.59-5.78-1.77c-1.5-1.18-2.61-2.76-3.33-4.75-.72-1.99-1.08-4.2-1.08-6.64s.37-4.61,1.12-6.6c.75-1.99,1.91-3.58,3.47-4.77s3.56-1.79,6-1.79c2.27,0,4.11.55,5.52,1.64,1.4,1.1,2.43,2.63,3.07,4.61.64,1.98.96,4.28.96,6.9s-.32,4.92-.96,6.9c-.64,1.98-1.69,3.52-3.15,4.61Z"/>
    <polygon class="st2" points="-1382.94 -374.63 -1394.26 -345.15 -1405.65 -374.63 -1416.96 -374.63 -1399.48 -331.65 -1406.61 -312.06 -1396.5 -312.06 -1372.03 -374.63 -1382.94 -374.63"/>
  </g>
  <path class="st0" d="M-1487.7-497.83l-4.74,4.74-9.07-22.4,22.4,9.07-4.74,4.74,21.4,21.4c5.99-6.88,9.63-15.86,9.63-25.69,0-21.63-17.54-39.17-39.17-39.17s-39.17,17.54-39.17,39.17c0,7.81,2.37,15.54,6.76,22,3.12,4.58,7.45,8.35,11.34,12.27s7.42,7.47,11.14,11.2c1.92,1.93,3.84,3.86,5.76,5.79l4.74-4.74,9.07,22.4-22.4-9.07,4.74-4.74-21.76-21.76c-5.85,6.84-9.39,15.71-9.39,25.42,0,21.63,17.54,39.17,39.17,39.17s39.17-17.54,39.17-39.17c0-5.73-1.25-11.67-3.79-16.91-2.75-5.67-7.09-9.71-11.48-14.09-3.7-3.7-7.4-7.4-11.1-11.1l-7.88-7.88-.63-.63Z"/>
  <rect class="st2" x="-961.97" y="-27.62" width="841.89" height="595.28"/>
  <path class="st0" d="M-657.81,280.68c-1.31-2.73-3.17-5.22-5.47-7.67-3.34-3.57-6.69-7.15-10.03-10.72l-6.92-7.39c-.26-.28-.69-.3-.98-.06l-1.65,1.4c-.37.32-.95.17-1.13-.29l-4.32-11.29c-.23-.61.4-1.18.98-.89l11.1,5.52c.46.23.53.85.14,1.18l-1.75,1.49c-.31.26-.34.73-.06,1.03,2.29,2.44,11.61,12.35,13.9,14.78.28.3.75.3,1.03,0,3.79-4.02,6.27-9.22,7-14.69.69-5.2-.19-10.56-2.56-15.25-4.93-9.76-15.49-15.48-26.22-14.21-9.63,1.14-17.57,7.26-21.18,15.77-3.63,7.75-3.5,15.59,1.73,23.43,1.1,1.66,15.97,17.74,18.77,20.8.26.28.69.3.97.06l2-1.7c.37-.32.95-.17,1.13.29l4.32,11.29c.23.61-.4,1.18-.98.89l-11.1-5.52c-.46-.23-.53-.85-.14-1.18l1.4-1.19c.31-.26.34-.73.06-1.03l-12.16-13c-.28-.3-.75-.3-1.03,0h0c-7.35,7.9-9.04,19.83-4.14,29.53,4.93,9.76,15.49,15.48,26.22,14.21,12.09-1.43,21.53-10.71,23.05-22.71.12-.94.12-1.89.15-2.8.01-.42.01-.84,0-1.26-.13-3.29-.88-6.17-2.15-8.82Z"/>
  <g>
    <path class="st1" d="M-603.84,293.36c-5.71,0-10.32-1.29-13.83-3.88-3.51-2.59-5.65-6.25-6.4-10.97l11.67-1.76c.48,2.13,1.53,3.79,3.17,4.99,1.64,1.2,3.71,1.81,6.23,1.81,2.07,0,3.67-.4,4.78-1.2,1.12-.8,1.68-1.91,1.68-3.34,0-.89-.22-1.62-.67-2.16-.45-.55-1.45-1.08-3-1.62-1.55-.53-3.97-1.23-7.24-2.1-3.69-.95-6.65-2.01-8.86-3.19-2.21-1.17-3.81-2.58-4.78-4.22-.98-1.64-1.47-3.62-1.47-5.94,0-2.91.74-5.43,2.22-7.58,1.48-2.14,3.57-3.79,6.27-4.95,2.7-1.16,5.88-1.74,9.55-1.74s6.7.55,9.44,1.64c2.74,1.09,4.96,2.64,6.65,4.66,1.69,2.01,2.73,4.39,3.13,7.14l-11.67,2.1c-.2-1.68-.92-3.01-2.18-3.99-1.26-.98-2.97-1.55-5.12-1.72-2.1-.14-3.78.14-5.06.84-1.27.7-1.91,1.71-1.91,3.02,0,.78.27,1.44.82,1.97.55.53,1.68,1.08,3.4,1.64,1.72.56,4.34,1.29,7.87,2.18,3.44.9,6.2,1.94,8.29,3.13,2.08,1.19,3.6,2.62,4.55,4.28.95,1.66,1.43,3.67,1.43,6.02,0,4.65-1.68,8.3-5.04,10.95-3.36,2.66-8,3.99-13.93,3.99Z"/>
    <path class="st1" d="M-579.84,240.47v-10.07h11.42v10.07h-11.42ZM-579.84,292.1v-45.33h11.42v45.33h-11.42Z"/>
    <path class="st1" d="M-518.56,263.05c-.11-1.65-.43-3.48-.97-5.48-.53-2-1.42-3.92-2.66-5.77-1.25-1.85-2.99-3.37-5.23-4.57-2.24-1.2-5.13-1.8-8.69-1.8-4.45,0-8.14.97-11.06,2.9-1.37.91-2.58,1.95-3.63,3.13v-4.68h-10.16v45.33h11.58v-23c0-2.83.31-5.09.94-6.8.63-1.71,1.43-3,2.41-3.88.98-.88,2.03-1.48,3.15-1.78,1.12-.31,2.17-.46,3.15-.46,2.43,0,4.32.55,5.64,1.64,1.33,1.09,2.29,2.45,2.88,4.07.59,1.62.94,3.24,1.05,4.85.11,1.61.17,2.93.17,3.97v21.4h11.58v-25.43c0-.76-.06-1.96-.17-3.61Z"/>
    <path class="st1" d="M-475.58,272.62h5.5c.48-5.48-.08-10.25-1.68-14.31-1.59-4.06-4.06-7.2-7.39-9.44-3.33-2.24-7.37-3.36-12.13-3.36-4.48,0-8.44,1.01-11.88,3.04-3.44,2.03-6.14,4.88-8.1,8.54-1.96,3.67-2.94,7.97-2.94,12.93,0,4.53,1,8.55,3,12.07,2,3.51,4.77,6.27,8.31,8.27,3.54,2,7.63,3,12.28,3,4.37,0,8.39-1.15,12.07-3.44,3.68-2.29,6.37-5.51,8.08-9.65l-11.42-3.27c-.84,1.85-2.06,3.26-3.65,4.24-1.59.98-3.51,1.47-5.75,1.47-3.55,0-6.25-1.15-8.08-3.46-1.34-1.69-2.19-3.9-2.55-6.61h26.32ZM-490.78,255.42c3.33,0,5.73,1.01,7.2,3.04.97,1.33,1.61,3.24,1.94,5.69h-19.96c.45-2.09,1.19-3.83,2.24-5.18,1.83-2.36,4.69-3.55,8.58-3.55Z"/>
    <path class="st1" d="M-433.36,246.77v2.5c-.26-.21-.52-.42-.8-.61-2.94-2.1-6.56-3.15-10.87-3.15s-8.11,1.04-11.33,3.11c-3.22,2.07-5.71,4.9-7.49,8.5-1.78,3.6-2.67,7.7-2.67,12.32s.87,8.6,2.62,12.21c1.75,3.61,4.19,6.46,7.32,8.56,3.13,2.1,6.78,3.15,10.95,3.15s7.89-.96,10.83-2.86v4.54c.06,1.68-.37,3.08-1.28,4.22-.91,1.13-2.12,1.99-3.63,2.56-1.51.57-3.12.86-4.83.86-1.59,0-3.07-.35-4.43-1.05-1.36-.7-2.4-1.72-3.13-3.06l-10.58,5.12c1.15,1.96,2.64,3.67,4.47,5.14,1.83,1.47,3.91,2.62,6.23,3.44,2.32.82,4.77,1.24,7.34,1.24,3.33,0,6.42-.44,9.28-1.32,2.85-.88,5.27-2.22,7.24-4.01,1.97-1.79,3.32-4.07,4.05-6.84.25-.98.43-1.97.52-2.96.1-.99.15-2.05.15-3.17v-48.43h-9.99ZM-437.67,281.48c-1.53,1.15-3.56,1.72-6.11,1.72s-4.48-.62-6.04-1.85c-1.57-1.23-2.73-2.89-3.48-4.97-.76-2.08-1.13-4.4-1.13-6.95s.39-4.82,1.18-6.9c.78-2.08,1.99-3.75,3.63-4.99,1.64-1.25,3.73-1.87,6.27-1.87,2.38,0,4.3.57,5.77,1.72,1.47,1.15,2.54,2.76,3.21,4.83.67,2.07,1.01,4.48,1.01,7.22s-.34,5.15-1.01,7.22c-.67,2.07-1.77,3.68-3.3,4.83Z"/>
    <polygon class="st1" points="-384.43 246.77 -396.27 277.61 -408.18 246.77 -420.02 246.77 -401.73 291.74 -409.19 312.24 -398.61 312.24 -373.01 246.77 -384.43 246.77"/>
  </g>
  <path class="st0" d="M-1609.1,280.74c-1.31-2.73-3.17-5.22-5.47-7.67-3.34-3.57-6.69-7.15-10.03-10.72l-6.92-7.39c-.26-.28-.69-.3-.98-.06l-1.65,1.4c-.37.32-.95.17-1.13-.29l-4.32-11.29c-.23-.61.4-1.18.98-.89l11.1,5.52c.46.23.53.85.14,1.18l-1.75,1.49c-.31.26-.34.73-.06,1.03,2.29,2.44,11.61,12.35,13.9,14.78.28.3.75.3,1.03,0,3.79-4.02,6.27-9.22,7-14.69.69-5.2-.19-10.56-2.56-15.25-4.93-9.76-15.49-15.48-26.22-14.21-9.63,1.14-17.57,7.26-21.18,15.77-3.63,7.75-3.5,15.59,1.73,23.43,1.1,1.66,15.97,17.74,18.77,20.8.26.28.69.3.97.06l2-1.7c.37-.32.95-.17,1.13.29l4.32,11.29c.23.61-.4,1.18-.98.89l-11.1-5.52c-.46-.23-.53-.85-.14-1.18l1.4-1.19c.31-.26.34-.73.06-1.03l-12.16-13c-.28-.3-.75-.3-1.03,0h0c-7.35,7.9-9.04,19.83-4.14,29.53,4.93,9.76,15.49,15.48,26.22,14.21,12.09-1.43,21.53-10.71,23.05-22.71.12-.94.12-1.89.15-2.8.01-.42.01-.84,0-1.26-.13-3.29-.88-6.17-2.15-8.82Z"/>
  <g>
    <path class="st2" d="M-1555.13,293.41c-5.71,0-10.32-1.29-13.83-3.88-3.51-2.59-5.65-6.25-6.4-10.97l11.67-1.76c.48,2.13,1.53,3.79,3.17,4.99,1.64,1.2,3.71,1.81,6.23,1.81,2.07,0,3.67-.4,4.78-1.2,1.12-.8,1.68-1.91,1.68-3.34,0-.89-.22-1.62-.67-2.16-.45-.55-1.45-1.08-3-1.62-1.55-.53-3.97-1.23-7.24-2.1-3.69-.95-6.65-2.01-8.86-3.19-2.21-1.17-3.81-2.58-4.78-4.22-.98-1.64-1.47-3.62-1.47-5.94,0-2.91.74-5.43,2.22-7.58,1.48-2.14,3.57-3.79,6.27-4.95,2.7-1.16,5.88-1.74,9.55-1.74s6.7.55,9.44,1.64c2.74,1.09,4.96,2.64,6.65,4.66,1.69,2.01,2.73,4.39,3.13,7.14l-11.67,2.1c-.2-1.68-.92-3.01-2.18-3.99-1.26-.98-2.97-1.55-5.12-1.72-2.1-.14-3.78.14-5.06.84-1.27.7-1.91,1.71-1.91,3.02,0,.78.27,1.44.82,1.97.55.53,1.68,1.08,3.4,1.64,1.72.56,4.34,1.29,7.87,2.18,3.44.9,6.2,1.94,8.29,3.13,2.08,1.19,3.6,2.62,4.55,4.28.95,1.66,1.43,3.67,1.43,6.02,0,4.65-1.68,8.3-5.04,10.95-3.36,2.66-8,3.99-13.93,3.99Z"/>
    <path class="st2" d="M-1531.13,240.53v-10.07h11.42v10.07h-11.42ZM-1531.13,292.15v-45.33h11.42v45.33h-11.42Z"/>
    <path class="st2" d="M-1469.85,263.11c-.11-1.65-.43-3.48-.97-5.48-.53-2-1.42-3.92-2.66-5.77-1.25-1.85-2.99-3.37-5.23-4.57-2.24-1.2-5.13-1.8-8.69-1.8-4.45,0-8.14.97-11.06,2.9-1.37.91-2.58,1.95-3.63,3.13v-4.68h-10.16v45.33h11.58v-23c0-2.83.31-5.09.94-6.8.63-1.71,1.43-3,2.41-3.88.98-.88,2.03-1.48,3.15-1.78,1.12-.31,2.17-.46,3.15-.46,2.43,0,4.32.55,5.64,1.64,1.33,1.09,2.29,2.45,2.88,4.07.59,1.62.94,3.24,1.05,4.85.11,1.61.17,2.93.17,3.97v21.4h11.58v-25.43c0-.76-.06-1.96-.17-3.61Z"/>
    <path class="st2" d="M-1426.88,272.68h5.5c.48-5.48-.08-10.25-1.68-14.31-1.59-4.06-4.06-7.2-7.39-9.44-3.33-2.24-7.37-3.36-12.13-3.36-4.48,0-8.44,1.01-11.88,3.04-3.44,2.03-6.14,4.88-8.1,8.54-1.96,3.67-2.94,7.97-2.94,12.93,0,4.53,1,8.55,3,12.07,2,3.51,4.77,6.27,8.31,8.27,3.54,2,7.63,3,12.28,3,4.37,0,8.39-1.15,12.07-3.44,3.68-2.29,6.37-5.51,8.08-9.65l-11.42-3.27c-.84,1.85-2.06,3.26-3.65,4.24-1.59.98-3.51,1.47-5.75,1.47-3.55,0-6.25-1.15-8.08-3.46-1.34-1.69-2.19-3.9-2.55-6.61h26.32ZM-1442.07,255.47c3.33,0,5.73,1.01,7.2,3.04.97,1.33,1.61,3.24,1.94,5.69h-19.96c.45-2.09,1.19-3.83,2.24-5.18,1.83-2.36,4.69-3.55,8.58-3.55Z"/>
    <path class="st2" d="M-1384.65,246.83v2.5c-.26-.21-.52-.42-.8-.61-2.94-2.1-6.56-3.15-10.87-3.15s-8.11,1.04-11.33,3.11c-3.22,2.07-5.71,4.9-7.49,8.5-1.78,3.6-2.67,7.7-2.67,12.32s.87,8.6,2.62,12.21c1.75,3.61,4.19,6.46,7.32,8.56,3.13,2.1,6.78,3.15,10.95,3.15s7.89-.96,10.83-2.86v4.54c.06,1.68-.37,3.08-1.28,4.22-.91,1.13-2.12,1.99-3.63,2.56-1.51.57-3.12.86-4.83.86-1.59,0-3.07-.35-4.43-1.05-1.36-.7-2.4-1.72-3.13-3.06l-10.58,5.12c1.15,1.96,2.64,3.67,4.47,5.14,1.83,1.47,3.91,2.62,6.23,3.44,2.32.82,4.77,1.24,7.34,1.24,3.33,0,6.42-.44,9.28-1.32,2.85-.88,5.27-2.22,7.24-4.01,1.97-1.79,3.32-4.07,4.05-6.84.25-.98.43-1.97.52-2.96.1-.99.15-2.05.15-3.17v-48.43h-9.99ZM-1388.96,281.54c-1.53,1.15-3.56,1.72-6.11,1.72s-4.48-.62-6.04-1.85c-1.57-1.23-2.73-2.89-3.48-4.97-.76-2.08-1.13-4.4-1.13-6.95s.39-4.82,1.18-6.9c.78-2.08,1.99-3.75,3.63-4.99,1.64-1.25,3.73-1.87,6.27-1.87,2.38,0,4.3.57,5.77,1.72,1.47,1.15,2.54,2.76,3.21,4.83.67,2.07,1.01,4.48,1.01,7.22s-.34,5.15-1.01,7.22c-.67,2.07-1.77,3.68-3.3,4.83Z"/>
    <polygon class="st2" points="-1335.72 246.83 -1347.56 277.67 -1359.47 246.83 -1371.31 246.83 -1353.03 291.8 -1360.48 312.3 -1349.9 312.3 -1324.3 246.83 -1335.72 246.83"/>
  </g>
  <path class="st0" d="M-2436.1,280.74c-1.31-2.73-3.17-5.22-5.47-7.67-3.34-3.57-6.69-7.15-10.03-10.72l-6.92-7.39c-.26-.28-.69-.3-.98-.06l-1.65,1.4c-.37.32-.95.17-1.13-.29l-4.32-11.29c-.23-.61.4-1.18.98-.89l11.1,5.52c.46.23.53.85.14,1.18l-1.75,1.49c-.31.26-.34.73-.06,1.03,2.29,2.44,11.61,12.35,13.9,14.78.28.3.75.3,1.03,0,3.79-4.02,6.27-9.22,7-14.69.69-5.2-.19-10.56-2.56-15.25-4.93-9.76-15.49-15.48-26.22-14.21-9.63,1.14-17.57,7.26-21.18,15.77-3.63,7.75-3.5,15.59,1.73,23.43,1.1,1.66,15.97,17.74,18.77,20.8.26.28.69.3.97.06l2-1.7c.37-.32.95-.17,1.13.29l4.32,11.29c.23.61-.4,1.18-.98.89l-11.1-5.52c-.46-.23-.53-.85-.14-1.18l1.4-1.19c.31-.26.34-.73.06-1.03l-12.16-13c-.28-.3-.75-.3-1.03,0h0c-7.35,7.9-9.04,19.83-4.14,29.53,4.93,9.76,15.49,15.48,26.22,14.21,12.09-1.43,21.53-10.71,23.05-22.71.12-.94.12-1.89.15-2.8.01-.42.01-.84,0-1.26-.13-3.29-.88-6.17-2.15-8.82Z"/>
  <g>
    <path class="st2" d="M-2382.13,293.41c-5.71,0-10.32-1.29-13.83-3.88-3.51-2.59-5.65-6.25-6.4-10.97l11.67-1.76c.48,2.13,1.53,3.79,3.17,4.99,1.64,1.2,3.71,1.81,6.23,1.81,2.07,0,3.67-.4,4.78-1.2,1.12-.8,1.68-1.91,1.68-3.34,0-.89-.22-1.62-.67-2.16-.45-.55-1.45-1.08-3-1.62-1.55-.53-3.97-1.23-7.24-2.1-3.69-.95-6.65-2.01-8.86-3.19-2.21-1.17-3.81-2.58-4.78-4.22-.98-1.64-1.47-3.62-1.47-5.94,0-2.91.74-5.43,2.22-7.58,1.48-2.14,3.57-3.79,6.27-4.95,2.7-1.16,5.88-1.74,9.55-1.74s6.7.55,9.44,1.64c2.74,1.09,4.96,2.64,6.65,4.66,1.69,2.01,2.73,4.39,3.13,7.14l-11.67,2.1c-.2-1.68-.92-3.01-2.18-3.99-1.26-.98-2.97-1.55-5.12-1.72-2.1-.14-3.78.14-5.06.84-1.27.7-1.91,1.71-1.91,3.02,0,.78.27,1.44.82,1.97.55.53,1.68,1.08,3.4,1.64,1.72.56,4.34,1.29,7.87,2.18,3.44.9,6.2,1.94,8.29,3.13,2.08,1.19,3.6,2.62,4.55,4.28.95,1.66,1.43,3.67,1.43,6.02,0,4.65-1.68,8.3-5.04,10.95-3.36,2.66-8,3.99-13.93,3.99Z"/>
    <path class="st2" d="M-2358.13,240.53v-10.07h11.42v10.07h-11.42ZM-2358.13,292.15v-45.33h11.42v45.33h-11.42Z"/>
    <path class="st2" d="M-2296.85,263.11c-.11-1.65-.43-3.48-.97-5.48-.53-2-1.42-3.92-2.66-5.77-1.25-1.85-2.99-3.37-5.23-4.57-2.24-1.2-5.13-1.8-8.69-1.8-4.45,0-8.14.97-11.06,2.9-1.37.91-2.58,1.95-3.63,3.13v-4.68h-10.16v45.33h11.58v-23c0-2.83.31-5.09.94-6.8.63-1.71,1.43-3,2.41-3.88.98-.88,2.03-1.48,3.15-1.78,1.12-.31,2.17-.46,3.15-.46,2.43,0,4.32.55,5.64,1.64,1.33,1.09,2.29,2.45,2.88,4.07.59,1.62.94,3.24,1.05,4.85.11,1.61.17,2.93.17,3.97v21.4h11.58v-25.43c0-.76-.06-1.96-.17-3.61Z"/>
    <path class="st2" d="M-2253.88,272.68h5.5c.48-5.48-.08-10.25-1.68-14.31-1.59-4.06-4.06-7.2-7.39-9.44-3.33-2.24-7.37-3.36-12.13-3.36-4.48,0-8.44,1.01-11.88,3.04-3.44,2.03-6.14,4.88-8.1,8.54-1.96,3.67-2.94,7.97-2.94,12.93,0,4.53,1,8.55,3,12.07,2,3.51,4.77,6.27,8.31,8.27,3.54,2,7.63,3,12.28,3,4.37,0,8.39-1.15,12.07-3.44,3.68-2.29,6.37-5.51,8.08-9.65l-11.42-3.27c-.84,1.85-2.06,3.26-3.65,4.24-1.59.98-3.51,1.47-5.75,1.47-3.55,0-6.25-1.15-8.08-3.46-1.34-1.69-2.19-3.9-2.55-6.61h26.32ZM-2269.07,255.47c3.33,0,5.73,1.01,7.2,3.04.97,1.33,1.61,3.24,1.94,5.69h-19.96c.45-2.09,1.19-3.83,2.24-5.18,1.83-2.36,4.69-3.55,8.58-3.55Z"/>
    <path class="st2" d="M-2211.65,246.83v2.5c-.26-.21-.52-.42-.8-.61-2.94-2.1-6.56-3.15-10.87-3.15s-8.11,1.04-11.33,3.11c-3.22,2.07-5.71,4.9-7.49,8.5-1.78,3.6-2.67,7.7-2.67,12.32s.87,8.6,2.62,12.21c1.75,3.61,4.19,6.46,7.32,8.56,3.13,2.1,6.78,3.15,10.95,3.15s7.89-.96,10.83-2.86v4.54c.06,1.68-.37,3.08-1.28,4.22-.91,1.13-2.12,1.99-3.63,2.56-1.51.57-3.12.86-4.83.86-1.59,0-3.07-.35-4.43-1.05-1.36-.7-2.4-1.72-3.13-3.06l-10.58,5.12c1.15,1.96,2.64,3.67,4.47,5.14,1.83,1.47,3.91,2.62,6.23,3.44,2.32.82,4.77,1.24,7.34,1.24,3.33,0,6.42-.44,9.28-1.32,2.85-.88,5.27-2.22,7.24-4.01,1.97-1.79,3.32-4.07,4.05-6.84.25-.98.43-1.97.52-2.96.1-.99.15-2.05.15-3.17v-48.43h-9.99ZM-2215.96,281.54c-1.53,1.15-3.56,1.72-6.11,1.72s-4.48-.62-6.04-1.85c-1.57-1.23-2.73-2.89-3.48-4.97-.76-2.08-1.13-4.4-1.13-6.95s.39-4.82,1.18-6.9c.78-2.08,1.99-3.75,3.63-4.99,1.64-1.25,3.73-1.87,6.27-1.87,2.38,0,4.3.57,5.77,1.72,1.47,1.15,2.54,2.76,3.21,4.83.67,2.07,1.01,4.48,1.01,7.22s-.34,5.15-1.01,7.22c-.67,2.07-1.77,3.68-3.3,4.83Z"/>
    <polygon class="st2" points="-2162.72 246.83 -2174.56 277.67 -2186.47 246.83 -2198.31 246.83 -2180.03 291.8 -2187.48 312.3 -2176.9 312.3 -2151.3 246.83 -2162.72 246.83"/>
  </g>
  <rect class="st2" width="540" height="540"/>
  <path class="st0" d="M152.9,280.74c-1.31-2.73-3.17-5.22-5.47-7.67-3.34-3.57-6.69-7.15-10.03-10.72l-6.92-7.39c-.26-.28-.69-.3-.98-.06l-1.65,1.4c-.37.32-.95.17-1.13-.29l-4.32-11.29c-.23-.61.4-1.18.98-.89l11.1,5.52c.46.23.53.85.14,1.18l-1.75,1.49c-.31.26-.34.73-.06,1.03,2.29,2.44,11.61,12.35,13.9,14.78.28.3.75.3,1.03,0,3.79-4.02,6.27-9.22,7-14.69.69-5.2-.19-10.56-2.56-15.25-4.93-9.76-15.49-15.48-26.22-14.21-9.63,1.14-17.57,7.26-21.18,15.77-3.63,7.75-3.5,15.59,1.73,23.43,1.1,1.66,15.97,17.74,18.77,20.8.26.28.69.3.97.06l2-1.7c.37-.32.95-.17,1.13.29l4.32,11.29c.23.61-.4,1.18-.98.89l-11.1-5.52c-.46-.23-.53-.85-.14-1.18l1.4-1.19c.31-.26.34-.73.06-1.03l-12.16-13c-.28-.3-.75-.3-1.03,0h0c-7.35,7.9-9.04,19.83-4.14,29.53,4.93,9.76,15.49,15.48,26.22,14.21,12.09-1.43,21.53-10.71,23.05-22.71.12-.94.12-1.89.15-2.8.01-.42.01-.84,0-1.26-.13-3.29-.88-6.17-2.15-8.82Z"/>
  <g>
    <path class="st1" d="M206.87,293.41c-5.71,0-10.32-1.29-13.83-3.88-3.51-2.59-5.65-6.25-6.4-10.97l11.67-1.76c.48,2.13,1.53,3.79,3.17,4.99,1.64,1.2,3.71,1.81,6.23,1.81,2.07,0,3.67-.4,4.78-1.2,1.12-.8,1.68-1.91,1.68-3.34,0-.89-.22-1.62-.67-2.16-.45-.55-1.45-1.08-3-1.62-1.55-.53-3.97-1.23-7.24-2.1-3.69-.95-6.65-2.01-8.86-3.19-2.21-1.17-3.81-2.58-4.78-4.22-.98-1.64-1.47-3.62-1.47-5.94,0-2.91.74-5.43,2.22-7.58,1.48-2.14,3.57-3.79,6.27-4.95,2.7-1.16,5.88-1.74,9.55-1.74s6.7.55,9.44,1.64c2.74,1.09,4.96,2.64,6.65,4.66,1.69,2.01,2.73,4.39,3.13,7.14l-11.67,2.1c-.2-1.68-.92-3.01-2.18-3.99-1.26-.98-2.97-1.55-5.12-1.72-2.1-.14-3.78.14-5.06.84-1.27.7-1.91,1.71-1.91,3.02,0,.78.27,1.44.82,1.97.55.53,1.68,1.08,3.4,1.64,1.72.56,4.34,1.29,7.87,2.18,3.44.9,6.2,1.94,8.29,3.13,2.08,1.19,3.6,2.62,4.55,4.28.95,1.66,1.43,3.67,1.43,6.02,0,4.65-1.68,8.3-5.04,10.95-3.36,2.66-8,3.99-13.93,3.99Z"/>
    <path class="st1" d="M230.87,240.53v-10.07h11.42v10.07h-11.42ZM230.87,292.15v-45.33h11.42v45.33h-11.42Z"/>
    <path class="st1" d="M292.15,263.11c-.11-1.65-.43-3.48-.97-5.48-.53-2-1.42-3.92-2.66-5.77-1.25-1.85-2.99-3.37-5.23-4.57-2.24-1.2-5.13-1.8-8.69-1.8-4.45,0-8.14.97-11.06,2.9-1.37.91-2.58,1.95-3.63,3.13v-4.68h-10.16v45.33h11.58v-23c0-2.83.31-5.09.94-6.8.63-1.71,1.43-3,2.41-3.88.98-.88,2.03-1.48,3.15-1.78,1.12-.31,2.17-.46,3.15-.46,2.43,0,4.32.55,5.64,1.64,1.33,1.09,2.29,2.45,2.88,4.07.59,1.62.94,3.24,1.05,4.85.11,1.61.17,2.93.17,3.97v21.4h11.58v-25.43c0-.76-.06-1.96-.17-3.61Z"/>
    <path class="st1" d="M335.12,272.68h5.5c.48-5.48-.08-10.25-1.68-14.31-1.59-4.06-4.06-7.2-7.39-9.44-3.33-2.24-7.37-3.36-12.13-3.36-4.48,0-8.44,1.01-11.88,3.04-3.44,2.03-6.14,4.88-8.1,8.54-1.96,3.67-2.94,7.97-2.94,12.93,0,4.53,1,8.55,3,12.07,2,3.51,4.77,6.27,8.31,8.27,3.54,2,7.63,3,12.28,3,4.37,0,8.39-1.15,12.07-3.44,3.68-2.29,6.37-5.51,8.08-9.65l-11.42-3.27c-.84,1.85-2.06,3.26-3.65,4.24-1.59.98-3.51,1.47-5.75,1.47-3.55,0-6.25-1.15-8.08-3.46-1.34-1.69-2.19-3.9-2.55-6.61h26.32ZM319.93,255.47c3.33,0,5.73,1.01,7.2,3.04.97,1.33,1.61,3.24,1.94,5.69h-19.96c.45-2.09,1.19-3.83,2.24-5.18,1.83-2.36,4.69-3.55,8.58-3.55Z"/>
    <path class="st1" d="M377.35,246.83v2.5c-.26-.21-.52-.42-.8-.61-2.94-2.1-6.56-3.15-10.87-3.15s-8.11,1.04-11.33,3.11c-3.22,2.07-5.71,4.9-7.49,8.5-1.78,3.6-2.67,7.7-2.67,12.32s.87,8.6,2.62,12.21c1.75,3.61,4.19,6.46,7.32,8.56,3.13,2.1,6.78,3.15,10.95,3.15s7.89-.96,10.83-2.86v4.54c.06,1.68-.37,3.08-1.28,4.22-.91,1.13-2.12,1.99-3.63,2.56-1.51.57-3.12.86-4.83.86-1.59,0-3.07-.35-4.43-1.05-1.36-.7-2.4-1.72-3.13-3.06l-10.58,5.12c1.15,1.96,2.64,3.67,4.47,5.14,1.83,1.47,3.91,2.62,6.23,3.44,2.32.82,4.77,1.24,7.34,1.24,3.33,0,6.42-.44,9.28-1.32,2.85-.88,5.27-2.22,7.24-4.01,1.97-1.79,3.32-4.07,4.05-6.84.25-.98.43-1.97.52-2.96.1-.99.15-2.05.15-3.17v-48.43h-9.99ZM373.04,281.54c-1.53,1.15-3.56,1.72-6.11,1.72s-4.48-.62-6.04-1.85c-1.57-1.23-2.73-2.89-3.48-4.97-.76-2.08-1.13-4.4-1.13-6.95s.39-4.82,1.18-6.9c.78-2.08,1.99-3.75,3.63-4.99,1.64-1.25,3.73-1.87,6.27-1.87,2.38,0,4.3.57,5.77,1.72,1.47,1.15,2.54,2.76,3.21,4.83.67,2.07,1.01,4.48,1.01,7.22s-.34,5.15-1.01,7.22c-.67,2.07-1.77,3.68-3.3,4.83Z"/>
    <polygon class="st1" points="426.28 246.83 414.44 277.67 402.53 246.83 390.69 246.83 408.97 291.8 401.52 312.3 412.1 312.3 437.7 246.83 426.28 246.83"/>
  </g>
  <g>
    <path class="st2" d="M-2419.63-330.1c-5.46,0-9.86-1.24-13.22-3.71-3.36-2.47-5.4-5.97-6.12-10.49l11.15-1.69c.45,2.03,1.46,3.62,3.03,4.77,1.56,1.15,3.55,1.73,5.96,1.73,1.98,0,3.5-.38,4.57-1.14,1.07-.76,1.6-1.83,1.6-3.19,0-.86-.21-1.54-.64-2.07-.43-.52-1.38-1.04-2.87-1.54-1.48-.51-3.79-1.18-6.92-2.01-3.53-.91-6.35-1.93-8.46-3.05-2.11-1.12-3.64-2.47-4.57-4.03-.94-1.56-1.4-3.46-1.4-5.68,0-2.78.71-5.19,2.13-7.24,1.42-2.05,3.42-3.62,6-4.73,2.58-1.11,5.62-1.66,9.12-1.66s6.4.52,9.02,1.56,4.74,2.53,6.36,4.45c1.62,1.93,2.61,4.2,2.99,6.82l-11.15,2.01c-.19-1.6-.88-2.87-2.09-3.81-1.2-.94-2.83-1.48-4.89-1.64-2.01-.13-3.62.13-4.83.8-1.22.67-1.82,1.63-1.82,2.89,0,.75.26,1.38.78,1.89.52.51,1.6,1.03,3.25,1.56,1.64.54,4.15,1.23,7.52,2.09,3.29.86,5.93,1.85,7.92,2.99,1.99,1.14,3.44,2.5,4.35,4.09.91,1.59,1.36,3.51,1.36,5.76,0,4.44-1.6,7.93-4.81,10.47-3.21,2.54-7.65,3.81-13.32,3.81Z"/>
    <path class="st2" d="M-2396.69-380.64v-9.63h10.91v9.63h-10.91ZM-2396.69-331.31v-43.32h10.91v43.32h-10.91Z"/>
    <path class="st2" d="M-2338.13-359.06c-.11-1.58-.42-3.32-.92-5.23-.51-1.91-1.36-3.75-2.55-5.52-1.19-1.77-2.85-3.22-4.99-4.37-2.14-1.15-4.91-1.72-8.3-1.72-4.25,0-7.78.92-10.57,2.77-1.31.87-2.47,1.87-3.47,2.99v-4.47h-9.71v43.32h11.07v-21.98c0-2.7.3-4.87.9-6.5.6-1.63,1.37-2.87,2.31-3.71.94-.84,1.94-1.41,3.01-1.7,1.07-.29,2.07-.44,3.01-.44,2.33,0,4.12.52,5.39,1.56,1.27,1.04,2.19,2.34,2.75,3.89.56,1.55.9,3.1,1,4.63.11,1.54.16,2.8.16,3.79v20.46h11.07v-24.31c0-.72-.05-1.87-.16-3.45Z"/>
    <path class="st2" d="M-2297.06-349.92h5.25c.45-5.24-.08-9.8-1.6-13.68-1.52-3.88-3.88-6.89-7.06-9.02-3.18-2.14-7.05-3.21-11.59-3.21-4.28,0-8.06.97-11.35,2.91-3.29,1.94-5.87,4.66-7.74,8.16-1.87,3.5-2.81,7.62-2.81,12.35,0,4.33.96,8.18,2.87,11.53,1.91,3.36,4.56,5.99,7.94,7.9,3.38,1.91,7.29,2.87,11.73,2.87,4.17,0,8.02-1.1,11.53-3.29,3.52-2.19,6.09-5.27,7.72-9.22l-10.91-3.13c-.8,1.77-1.97,3.12-3.49,4.05-1.52.94-3.36,1.4-5.5,1.4-3.4,0-5.97-1.1-7.72-3.31-1.28-1.61-2.09-3.72-2.43-6.32h25.16ZM-2311.58-366.36c3.18,0,5.48.97,6.88,2.91.92,1.27,1.54,3.09,1.85,5.44h-19.07c.43-2,1.13-3.66,2.14-4.95,1.75-2.26,4.49-3.39,8.2-3.39Z"/>
    <path class="st2" d="M-2256.71-374.63v2.39c-.25-.2-.5-.4-.76-.59-2.81-2.01-6.27-3.01-10.39-3.01s-7.76.99-10.83,2.97c-3.08,1.98-5.46,4.69-7.16,8.12-1.7,3.44-2.55,7.36-2.55,11.77s.84,8.22,2.51,11.67c1.67,3.45,4,6.18,7,8.18,2.99,2.01,6.48,3.01,10.47,3.01s7.54-.92,10.35-2.73v4.33c.05,1.6-.35,2.95-1.22,4.03-.87,1.08-2.03,1.9-3.47,2.45-1.44.55-2.98.82-4.61.82-1.52,0-2.94-.33-4.23-1-1.3-.67-2.29-1.64-2.99-2.93l-10.11,4.89c1.1,1.87,2.52,3.51,4.27,4.91,1.75,1.4,3.74,2.5,5.96,3.29,2.22.79,4.56,1.18,7.02,1.18,3.18,0,6.14-.42,8.86-1.26,2.73-.84,5.03-2.12,6.92-3.83,1.89-1.71,3.17-3.89,3.87-6.54.24-.94.41-1.88.5-2.83.09-.95.14-1.96.14-3.03v-46.29h-9.55ZM-2260.82-341.45c-1.46,1.1-3.4,1.64-5.84,1.64s-4.28-.59-5.78-1.77c-1.5-1.18-2.61-2.76-3.33-4.75-.72-1.99-1.08-4.2-1.08-6.64s.37-4.61,1.12-6.6c.75-1.99,1.91-3.58,3.47-4.77s3.56-1.79,6-1.79c2.27,0,4.11.55,5.52,1.64,1.4,1.1,2.43,2.63,3.07,4.61.64,1.98.96,4.28.96,6.9s-.32,4.92-.96,6.9c-.64,1.98-1.69,3.52-3.15,4.61Z"/>
    <polygon class="st2" points="-2209.94 -374.63 -2221.26 -345.15 -2232.65 -374.63 -2243.96 -374.63 -2226.48 -331.65 -2233.61 -312.06 -2223.5 -312.06 -2199.03 -374.63 -2209.94 -374.63"/>
  </g>
  <path class="st0" d="M-2314.7-497.83l-4.74,4.74-9.07-22.4,22.4,9.07-4.74,4.74,21.4,21.4c5.99-6.88,9.63-15.86,9.63-25.69,0-21.63-17.54-39.17-39.17-39.17s-39.17,17.54-39.17,39.17c0,7.81,2.37,15.54,6.76,22,3.12,4.58,7.45,8.35,11.34,12.27s7.42,7.47,11.14,11.2c1.92,1.93,3.84,3.86,5.76,5.79l4.74-4.74,9.07,22.4-22.4-9.07,4.74-4.74-21.76-21.76c-5.85,6.84-9.39,15.71-9.39,25.42,0,21.63,17.54,39.17,39.17,39.17s39.17-17.54,39.17-39.17c0-5.73-1.25-11.67-3.79-16.91-2.75-5.67-7.09-9.71-11.48-14.09-3.7-3.7-7.4-7.4-11.1-11.1-2.63-2.63-5.25-5.25-7.88-7.88l-.63-.63Z"/>
  <rect class="st2" y="-698" width="540" height="540"/>
  <g>
    <path class="st1" d="M169.37-330.1c-5.46,0-9.86-1.24-13.22-3.71-3.36-2.47-5.4-5.97-6.12-10.49l11.15-1.69c.45,2.03,1.46,3.62,3.03,4.77,1.56,1.15,3.55,1.73,5.96,1.73,1.98,0,3.5-.38,4.57-1.14,1.07-.76,1.6-1.83,1.6-3.19,0-.86-.21-1.54-.64-2.07-.43-.52-1.38-1.04-2.87-1.54-1.48-.51-3.79-1.18-6.92-2.01-3.53-.91-6.35-1.93-8.46-3.05-2.11-1.12-3.64-2.47-4.57-4.03-.94-1.56-1.4-3.46-1.4-5.68,0-2.78.71-5.19,2.13-7.24,1.42-2.05,3.42-3.62,6-4.73,2.58-1.11,5.62-1.66,9.12-1.66s6.4.52,9.02,1.56,4.74,2.53,6.36,4.45c1.62,1.93,2.61,4.2,2.99,6.82l-11.15,2.01c-.19-1.6-.88-2.87-2.09-3.81-1.2-.94-2.83-1.48-4.89-1.64-2.01-.13-3.62.13-4.83.8-1.22.67-1.82,1.63-1.82,2.89,0,.75.26,1.38.78,1.89.52.51,1.6,1.03,3.25,1.56,1.64.54,4.15,1.23,7.52,2.09,3.29.86,5.93,1.85,7.92,2.99,1.99,1.14,3.44,2.5,4.35,4.09.91,1.59,1.36,3.51,1.36,5.76,0,4.44-1.6,7.93-4.81,10.47-3.21,2.54-7.65,3.81-13.32,3.81Z"/>
    <path class="st1" d="M192.31-380.64v-9.63h10.91v9.63h-10.91ZM192.31-331.31v-43.32h10.91v43.32h-10.91Z"/>
    <path class="st1" d="M250.87-359.06c-.11-1.58-.42-3.32-.92-5.23-.51-1.91-1.36-3.75-2.55-5.52-1.19-1.77-2.85-3.22-4.99-4.37-2.14-1.15-4.91-1.72-8.3-1.72-4.25,0-7.78.92-10.57,2.77-1.31.87-2.47,1.87-3.47,2.99v-4.47h-9.71v43.32h11.07v-21.98c0-2.7.3-4.87.9-6.5.6-1.63,1.37-2.87,2.31-3.71.94-.84,1.94-1.41,3.01-1.7,1.07-.29,2.07-.44,3.01-.44,2.33,0,4.12.52,5.39,1.56,1.27,1.04,2.19,2.34,2.75,3.89.56,1.55.9,3.1,1,4.63.11,1.54.16,2.8.16,3.79v20.46h11.07v-24.31c0-.72-.05-1.87-.16-3.45Z"/>
    <path class="st1" d="M291.94-349.92h5.25c.45-5.24-.08-9.8-1.6-13.68-1.52-3.88-3.88-6.89-7.06-9.02-3.18-2.14-7.05-3.21-11.59-3.21-4.28,0-8.06.97-11.35,2.91-3.29,1.94-5.87,4.66-7.74,8.16-1.87,3.5-2.81,7.62-2.81,12.35,0,4.33.96,8.18,2.87,11.53,1.91,3.36,4.56,5.99,7.94,7.9,3.38,1.91,7.29,2.87,11.73,2.87,4.17,0,8.02-1.1,11.53-3.29,3.52-2.19,6.09-5.27,7.72-9.22l-10.91-3.13c-.8,1.77-1.97,3.12-3.49,4.05-1.52.94-3.36,1.4-5.5,1.4-3.4,0-5.97-1.1-7.72-3.31-1.28-1.61-2.09-3.72-2.43-6.32h25.16ZM277.42-366.36c3.18,0,5.48.97,6.88,2.91.92,1.27,1.54,3.09,1.85,5.44h-19.07c.43-2,1.13-3.66,2.14-4.95,1.75-2.26,4.49-3.39,8.2-3.39Z"/>
    <path class="st1" d="M332.29-374.63v2.39c-.25-.2-.5-.4-.76-.59-2.81-2.01-6.27-3.01-10.39-3.01s-7.76.99-10.83,2.97c-3.08,1.98-5.46,4.69-7.16,8.12-1.7,3.44-2.55,7.36-2.55,11.77s.84,8.22,2.51,11.67c1.67,3.45,4,6.18,7,8.18,2.99,2.01,6.48,3.01,10.47,3.01s7.54-.92,10.35-2.73v4.33c.05,1.6-.35,2.95-1.22,4.03-.87,1.08-2.03,1.9-3.47,2.45-1.44.55-2.98.82-4.61.82-1.52,0-2.94-.33-4.23-1-1.3-.67-2.29-1.64-2.99-2.93l-10.11,4.89c1.1,1.87,2.52,3.51,4.27,4.91,1.75,1.4,3.74,2.5,5.96,3.29,2.22.79,4.56,1.18,7.02,1.18,3.18,0,6.14-.42,8.86-1.26,2.73-.84,5.03-2.12,6.92-3.83,1.89-1.71,3.17-3.89,3.87-6.54.24-.94.41-1.88.5-2.83.09-.95.14-1.96.14-3.03v-46.29h-9.55ZM328.18-341.45c-1.46,1.1-3.4,1.64-5.84,1.64s-4.28-.59-5.78-1.77c-1.5-1.18-2.61-2.76-3.33-4.75-.72-1.99-1.08-4.2-1.08-6.64s.37-4.61,1.12-6.6c.75-1.99,1.91-3.58,3.47-4.77s3.56-1.79,6-1.79c2.27,0,4.11.55,5.52,1.64,1.4,1.1,2.43,2.63,3.07,4.61.64,1.98.96,4.28.96,6.9s-.32,4.92-.96,6.9c-.64,1.98-1.69,3.52-3.15,4.61Z"/>
    <polygon class="st1" points="379.06 -374.63 367.74 -345.15 356.35 -374.63 345.04 -374.63 362.52 -331.65 355.39 -312.06 365.5 -312.06 389.97 -374.63 379.06 -374.63"/>
  </g>
  <path class="st0" d="M274.3-497.83l-4.74,4.74-9.07-22.4,22.4,9.07-4.74,4.74,21.4,21.4c5.99-6.88,9.63-15.86,9.63-25.69,0-21.63-17.54-39.17-39.17-39.17s-39.17,17.54-39.17,39.17c0,7.81,2.37,15.54,6.76,22,3.12,4.58,7.45,8.35,11.34,12.27s7.42,7.47,11.14,11.2c1.92,1.93,3.84,3.86,5.76,5.79l4.74-4.74,9.07,22.4-22.4-9.07,4.74-4.74-21.76-21.76c-5.85,6.84-9.39,15.71-9.39,25.42,0,21.63,17.54,39.17,39.17,39.17s39.17-17.54,39.17-39.17c0-5.73-1.25-11.67-3.79-16.91-2.75-5.67-7.09-9.71-11.48-14.09-3.7-3.7-7.4-7.4-11.1-11.1l-7.88-7.88-.63-.63Z"/>
</svg>