<?xml version="1.0" encoding="UTF-8"?>
<svg version="1.1" xmlns="http://www.w3.org/2000/svg" width="1120" height="315">
<path d="M0 0 C5.99538135 -0.24801107 11.98775502 -0.42901269 17.98706055 -0.54931641 C20.02535014 -0.59947674 22.06328215 -0.66762754 24.1003418 -0.75439453 C40.91651864 -1.45250199 40.91651864 -1.45250199 45.76831055 1.92993164 C47.66445379 4.55301932 48.83962627 6.98423293 50 10 C50.83246301 11.63135252 51.66953457 13.26036347 52.51171875 14.88671875 C53.24674525 16.48251702 53.97211961 18.08279848 54.6875 19.6875 C55.41783349 21.29681893 56.1508682 22.90491497 56.88671875 24.51171875 C57.23395996 25.2701709 57.58120117 26.02862305 57.93896484 26.81005859 C58.96243783 28.92247292 60.07968521 30.93455448 61.26953125 32.95703125 C63 36 63 36 63 38 C66.70855814 35.65817341 68.1459921 33.24722872 70 29.3125 C70.76183594 27.72115234 70.76183594 27.72115234 71.5390625 26.09765625 C72.02117187 25.07542969 72.50328125 24.05320312 73 23 C73.78683577 21.41426042 74.57768366 19.83049587 75.375 18.25 C75.91125 17.1775 76.4475 16.105 77 15 C77.66 15 78.32 15 79 15 C79.33 13.02 79.66 11.04 80 9 C80.66 9 81.32 9 82 9 C82.103125 8.2575 82.20625 7.515 82.3125 6.75 C83.09758842 3.60964632 83.65807642 2.24111017 86 0 C88.7165491 -0.38715448 91.02835278 -0.51676744 93.74438477 -0.4699707 C94.53164948 -0.4721611 95.31891418 -0.4743515 96.1300354 -0.47660828 C98.73425196 -0.47892126 101.33734029 -0.45265564 103.94140625 -0.42578125 C105.74836366 -0.42085876 107.55532616 -0.41755896 109.36228943 -0.41581726 C113.14948808 -0.40817332 116.93630934 -0.38759968 120.72338867 -0.35668945 C125.58492936 -0.3170861 130.44622446 -0.29907678 135.30790806 -0.28938007 C139.93577426 -0.27941916 144.56358009 -0.25951952 149.19140625 -0.23828125 C150.07843294 -0.2348855 150.96545963 -0.23148975 151.87936592 -0.2279911 C154.38132079 -0.21644708 156.88311796 -0.19793151 159.38500977 -0.17700195 C160.50326897 -0.1729686 160.50326897 -0.1729686 161.64411926 -0.16885376 C166.77017671 -0.11491164 166.77017671 -0.11491164 169 1 C169.65429688 3.20556641 169.65429688 3.20556641 170.21875 6.1015625 C170.42886719 7.14957031 170.63898438 8.19757812 170.85546875 9.27734375 C171.06816406 10.38207031 171.28085937 11.48679687 171.5 12.625 C173.04929986 20.85863731 173.04929986 20.85863731 175.12109375 28.96875 C175.90391399 31.66861002 176.33555535 34.08406369 176.5625 36.875 C176.61099667 39.73381652 176.61099667 39.73381652 178 42 C178.39454223 43.84599688 178.74176866 45.70225822 179.0625 47.5625 C179.32740234 49.08037109 179.32740234 49.08037109 179.59765625 50.62890625 C179.73042969 51.41136719 179.86320313 52.19382813 180 53 C185.27274962 45.09087557 187.59298759 35.24691888 190.19238281 26.17724609 C192.80871271 17.09013493 196.15110226 8.66001992 200 0 C212.21 0 224.42 0 237 0 C238.74070306 4.64187482 240.37356098 8.9978764 241.71875 13.71484375 C242.01136719 14.73126953 242.30398438 15.74769531 242.60546875 16.79492188 C243.04826172 18.35049805 243.04826172 18.35049805 243.5 19.9375 C245.32277939 26.31722788 247.18134007 32.660612 249.31689453 38.94311523 C250.37319239 42.12371189 251.27919168 45.33643941 252.1875 48.5625 C252.53167969 49.78066406 252.87585938 50.99882813 253.23046875 52.25390625 C253.48441406 53.16011719 253.73835937 54.06632812 254 55 C256.66430513 45.57100525 258.88051591 36.063953 261 26.5 C261.15597656 25.80003906 261.31195312 25.10007812 261.47265625 24.37890625 C261.88168394 22.53373688 262.28400609 20.68708043 262.68359375 18.83984375 C266.24852507 2.75147493 266.24852507 2.75147493 269 0 C271.95705321 -0.08868299 274.89065056 -0.11520296 277.84765625 -0.09765625 C279.17729652 -0.09553383 279.17729652 -0.09553383 280.53379822 -0.09336853 C283.37673254 -0.08775215 286.21958931 -0.07519691 289.0625 -0.0625 C290.98502491 -0.05748711 292.90755104 -0.05292384 294.83007812 -0.04882812 C299.55341549 -0.03777741 304.27669458 -0.02050183 309 0 C308.85987349 1.41193389 308.71486237 2.8233834 308.56787109 4.23461914 C308.48765717 5.02067032 308.40744324 5.8067215 308.32479858 6.61659241 C307.81652805 10.34633728 306.7492915 13.8538727 305.625 17.4375 C305.40021973 18.17468262 305.17543945 18.91186523 304.94384766 19.67138672 C304.49996895 21.12637574 304.05329977 22.5805171 303.60351562 24.03369141 C302.82957296 26.55526673 302.1047358 29.09033257 301.375 31.625 C300.53777931 34.42519575 299.6025737 36.92202902 298.4375 39.625 C297.13812007 42.6757181 296.28017368 45.6130788 295.52734375 48.8359375 C293.42001338 57.48379695 290.39051193 65.90231305 287.53515625 74.32421875 C284.82709139 82.33323441 282.24544783 90.32768739 280.0546875 98.49609375 C278.57652223 103.40688727 276.78717929 108.19446149 275 113 C269.66220951 113.24200419 264.32426926 113.45695113 258.984375 113.64697266 C257.16832503 113.71539882 255.35253692 113.79119026 253.53710938 113.87451172 C250.92612177 113.99306313 248.31533544 114.08502112 245.703125 114.171875 C244.89256653 114.21439392 244.08200806 114.25691284 243.24688721 114.30072021 C239.62379088 114.39754211 237.50323845 114.37037433 234.53564453 112.1862793 C232.484978 109.26676916 231.6222835 106.48933584 230.625 103.0625 C230.42148926 102.37663818 230.21797852 101.69077637 230.00830078 100.98413086 C229.323717 98.66020329 228.66042286 96.33090421 228 94 C227.48453784 92.19787008 226.96890728 90.39578832 226.453125 88.59375 C225.67707542 85.87995846 224.90386297 83.16561917 224.14306641 80.44750977 C222.77079663 75.56660635 221.28772348 70.75224482 219.62231445 65.96289062 C218.79238579 63.34514781 218.34868798 60.71976624 218 58 C217.34 58 216.68 58 216 58 C215.80531128 58.82745728 215.80531128 58.82745728 215.60668945 59.67163086 C214.93736371 62.24038726 214.13149589 64.73521836 213.29296875 67.25390625 C212.7834668 68.7843457 212.7834668 68.7843457 212.26367188 70.34570312 C211.7309668 71.93801758 211.7309668 71.93801758 211.1875 73.5625 C210.84396484 74.59697266 210.50042969 75.63144531 210.14648438 76.69726562 C207.87380914 83.50676348 205.49274795 90.26803972 203 97 C202.75241943 97.66974854 202.50483887 98.33949707 202.24975586 99.02954102 C201.63191349 100.68901246 201.00386195 102.34467305 200.375 104 C199.97023438 105.0725 199.56546875 106.145 199.1484375 107.25 C198 110 198 110 196 113 C193.02705026 113.33763588 190.25257498 113.48913038 187.2734375 113.51171875 C186.41062164 113.52966995 185.54780579 113.54762115 184.65884399 113.56611633 C181.89761269 113.6203852 179.13655582 113.65416757 176.375 113.6875 C174.50518397 113.7206585 172.635391 113.75514678 170.765625 113.79101562 C166.17720891 113.87612096 161.58884604 113.94285254 157 114 C156.66226563 112.90300781 156.32453125 111.80601562 155.9765625 110.67578125 C155.52614898 109.22132093 155.07562216 107.76689569 154.625 106.3125 C154.40328125 105.59126953 154.1815625 104.87003906 153.953125 104.12695312 C153.02107004 101.12518787 152.076113 98.18784406 150.89501953 95.27294922 C149.97791013 92.94390161 149.48618465 90.78244441 149.0546875 88.3203125 C148.05737047 83.06544326 146.64564021 77.99919039 145.125 72.875 C142.83657886 65.04016132 140.74534108 57.1909098 138.859375 49.25 C138.09660913 46.36535816 137.10590066 43.7624947 136 41 C135.60585922 39.25856752 135.2506418 37.50780438 134.9375 35.75 C134.57232333 32.57842443 134.57232333 32.57842443 133 30 C132.67415798 28.5070511 132.38976523 27.00498133 132.125 25.5 C131.16852057 20.48747248 129.71663818 15.79677753 128 11 C127.505 9.515 127.505 9.515 127 8 C126.00033203 9.65322266 126.00033203 9.65322266 124.98046875 11.33984375 C119.60925202 20.19065771 114.15515187 28.96804571 108.44213867 37.60327148 C106.61873019 40.38021475 105.05561046 42.83316863 104 46 C103.34 46 102.68 46 102 46 C101.773125 46.639375 101.54625 47.27875 101.3125 47.9375 C99.51258453 52.13730276 97.26485266 56.03650784 95 60 C94.443125 61.010625 93.88625 62.02125 93.3125 63.0625 C92.879375 63.701875 92.44625 64.34125 92 65 C91.34 65 90.68 65 90 65 C89.9175 65.70125 89.835 66.4025 89.75 67.125 C89 70 89 70 86.99121094 72.63720703 C84.48761862 76.86531892 84.39822099 79.86750501 84.390625 84.6796875 C84.37408875 85.49245148 84.35755249 86.30521545 84.34051514 87.14260864 C84.29221045 89.72015063 84.27070406 92.29710344 84.25 94.875 C84.22182552 96.6302377 84.19189603 98.38544815 84.16015625 100.140625 C84.08645669 104.42703478 84.03677548 108.71312086 84 113 C78.46428137 113.16722049 72.92842623 113.32781942 67.39233398 113.48217773 C65.50751524 113.5356766 63.62274772 113.5910118 61.73803711 113.64819336 C59.03510589 113.7298851 56.33206161 113.8050554 53.62890625 113.87890625 C52.78099014 113.90594131 51.93307404 113.93297638 51.0594635 113.96083069 C49.04026894 114.01280526 47.01982842 114.01188213 45 114 C42.11562792 111.11562792 43.00478739 103.51997263 42.96972656 99.71191406 C43.02211513 94.96067416 43.09836952 90.21106053 43.21484375 85.4609375 C43.22902344 84.30078125 43.24320312 83.140625 43.2578125 81.9453125 C43.2798877 80.89875488 43.30196289 79.85219727 43.32470703 78.77392578 C42.95287712 75.59743593 41.98493747 74.42908274 40 72 C40 71.01 40 70.02 40 69 C39.34 69 38.68 69 38 69 C36.484375 66.7265625 36.484375 66.7265625 34.75 63.625 C32.00131436 58.75442105 29.15452081 53.97947005 26.1640625 49.25390625 C24.91235163 46.83029159 24.40739515 44.68596568 24 42 C22.515 41.505 22.515 41.505 21 41 C19.8671875 39.29296875 19.8671875 39.29296875 18.875 37.1875 C18.54242188 36.50042969 18.20984375 35.81335938 17.8671875 35.10546875 C17.03418678 33.08300305 16.46975429 31.13306793 16 29 C15.34 29 14.68 29 14 29 C13.54109375 28.13117187 13.0821875 27.26234375 12.609375 26.3671875 C11.68898438 24.63855469 11.68898438 24.63855469 10.75 22.875 C10.14671875 21.73804687 9.5434375 20.60109375 8.921875 19.4296875 C7.09180602 16.16383269 5.11826323 13.08472082 3 10 C0.50229298 6.34264329 -0.14612068 4.39092657 0 0 Z " fill="#020202" transform="translate(388,33)"/>
<path d="M0 0 C0.92167969 0.33902344 1.84335938 0.67804687 2.79296875 1.02734375 C5.93963591 2.41410503 7.69036711 4.46503708 10 7 C10.49757813 7.51691406 10.99515625 8.03382812 11.5078125 8.56640625 C16.58299884 14.0623995 20.0320626 20.49848512 21 28 C21.66 28 22.32 28 23 28 C22.96970703 27.30438965 22.93941406 26.6087793 22.90820312 25.89208984 C22.77080518 22.71978257 22.63538474 19.5473938 22.5 16.375 C22.42845703 14.73337891 22.42845703 14.73337891 22.35546875 13.05859375 C22.28779297 11.46337891 22.28779297 11.46337891 22.21875 9.8359375 C22.17685547 8.86188965 22.13496094 7.8878418 22.09179688 6.88427734 C21.99748036 3.9208325 21.98461875 0.96473674 22 -2 C26.85227505 -3.27192839 31.59070555 -3.09339037 36.5637207 -3.02172852 C37.99859077 -3.0073172 37.99859077 -3.0073172 39.46244812 -2.99261475 C42.61696903 -2.9596949 45.7713484 -2.9193358 48.92578125 -2.87890625 C51.11581425 -2.85459829 53.30585246 -2.83075506 55.49589539 -2.80735779 C61.25479061 -2.74458423 67.01359348 -2.67549848 72.7723999 -2.60510254 C78.65095827 -2.53435835 84.529582 -2.4695778 90.40820312 -2.40429688 C101.93887394 -2.27537124 113.46945599 -2.13977776 125 -2 C125.33 -2.66 125.66 -3.32 126 -4 C126 -3.34 126 -2.68 126 -2 C126.99 -2 127.98 -2 129 -2 C129.68888353 5.18407111 130.12105967 12.34708028 130.1875 19.5625 C130.20039063 20.24054687 130.21328125 20.91859375 130.2265625 21.6171875 C130.23449272 25.57436564 129.83247783 27.33504434 128 31 C118.1 31 108.2 31 98 31 C97.67 57.07 97.34 83.14 97 110 C83.47 110 69.94 110 56 110 C55.30380001 105.12660007 54.87392727 100.97598612 54.87060547 96.13427734 C54.86797699 95.16455742 54.86797699 95.16455742 54.86529541 94.17524719 C54.86093407 92.06211575 54.86379384 89.94906962 54.8671875 87.8359375 C54.86651298 86.35576359 54.86554172 84.87558979 54.86428833 83.39541626 C54.86281925 80.30396462 54.86494107 77.212542 54.86962891 74.12109375 C54.87533575 70.16574491 54.87203615 66.2104638 54.86605644 62.25511742 C54.86243802 59.20274345 54.86359514 56.15038547 54.86618423 53.09801102 C54.86684944 51.63961402 54.86603934 50.18121556 54.86370468 48.72282028 C54.86115604 46.68419168 54.86573139 44.64555796 54.87060547 42.60693359 C54.87140106 41.44890228 54.87219666 40.29087097 54.87301636 39.0977478 C55 36 55 36 56 31 C45.11 31 34.22 31 23 31 C23 30.34 23 29.68 23 29 C22.34 29 21.68 29 21 29 C21.33 29.66 21.66 30.32 22 31 C22.039992 32.99960012 22.04346799 35.00047242 22 37 C19.10921519 37.81300751 16.44312971 38.16463721 13.4453125 38.28125 C12.58292969 38.31863281 11.72054687 38.35601562 10.83203125 38.39453125 C9.49205078 38.44673828 9.49205078 38.44673828 8.125 38.5 C2.67339439 38.71425524 -2.63173308 38.93697685 -8 40 C-7.39414063 40.21914062 -6.78828125 40.43828125 -6.1640625 40.6640625 C2.92215956 44.10284808 12.93748586 48.21970205 18 57 C22.95252882 68.68487269 23.35019604 78.38373385 19.16796875 90.2734375 C15.06346437 99.85519021 7.56469116 104.29919084 -1.625 108.67578125 C-14.30515198 113.65097977 -27.59765013 113.49250712 -41 113 C-42.01320312 112.9690625 -43.02640625 112.938125 -44.0703125 112.90625 C-54.37372073 112.2436514 -64.82749053 108.32827061 -73 102 C-73 101.34 -73 100.68 -73 100 C-73.99 99.67 -74.98 99.34 -76 99 C-76 98.34 -76 97.68 -76 97 C-76.66 97 -77.32 97 -78 97 C-79.66666667 93.66666667 -81.33333333 90.33333333 -83 87 C-83.36867188 86.32582031 -83.73734375 85.65164062 -84.1171875 84.95703125 C-85.11456384 82.74603327 -85.47315375 80.84361966 -85.75 78.4375 C-85.84796875 77.67308594 -85.9459375 76.90867187 -86.046875 76.12109375 C-86 74 -86 74 -84 71 C-81.47809229 70.45186606 -79.13996082 70.09052078 -76.5859375 69.83203125 C-75.85629791 69.74749191 -75.12665833 69.66295258 -74.37490845 69.57585144 C-72.04284282 69.30861966 -69.70919572 69.06036433 -67.375 68.8125 C-65.79413029 68.63470878 -64.2133984 68.45568746 -62.6328125 68.27539062 C-58.75666361 67.8359678 -54.87899081 67.41355261 -51 67 C-51 66.67 -51 66.34 -51 66 C-51.886875 65.79375 -52.77375 65.5875 -53.6875 65.375 C-64.74655688 62.13161061 -73.1523423 57.84574754 -79.26953125 47.9453125 C-84.17819412 38.47488874 -83.90832366 27.0607708 -81 17 C-79.5 13.8125 -79.5 13.8125 -78 12 C-77.34 12 -76.68 12 -76 12 C-75.74089844 11.40703125 -75.48179688 10.8140625 -75.21484375 10.203125 C-73.91255529 7.84141859 -72.60701522 6.49113554 -70.5625 4.75 C-69.96566406 4.22921875 -69.36882812 3.7084375 -68.75390625 3.171875 C-67 2 -67 2 -64 2 C-63.67 1.34 -63.34 0.68 -63 0 C-60.07286644 -1.77718823 -57.334153 -2.36091547 -54 -3 C-52.9028064 -3.25728882 -52.9028064 -3.25728882 -51.78344727 -3.51977539 C-34.68371984 -7.3858485 -16.2836856 -6.44318495 0 0 Z M-41 27 C-41.33 27.99 -41.66 28.98 -42 30 C-38.39062861 34.75780774 -33.60132448 35.81913825 -28 37 C-24.33791478 37.48027347 -20.68731169 37.79670715 -17 38 C-17.66 35.69 -18.32 33.38 -19 31 C-19.66 31 -20.32 31 -21 31 C-21.185625 30.38125 -21.37125 29.7625 -21.5625 29.125 C-23.74401443 25.90015259 -26.29414313 25.76672901 -30 25 C-34.13537997 25 -37.12137916 25.60955102 -41 27 Z M-48 67 C-47.33988646 71.52227039 -46.60001739 75.11872446 -44 78.9375 C-37.98506643 83.07276683 -31.02190923 83.55787026 -23.91796875 82.4765625 C-21.32050969 81.83116534 -19.74377636 81.04704181 -18 79 C-18 77.68 -18 76.36 -18 75 C-25.45360925 67.89892633 -38.29387345 68.02359895 -48 67 Z " fill="#020202" transform="translate(164,36)"/>
<path d="M0 0 C0.495 0.495 0.495 0.495 1 1 C2.32725037 1.29922386 3.66232286 1.56400789 5 1.8125 C10.74147456 3.02509943 15.7783589 5.38917945 21 8 C21 8.66 21 9.32 21 10 C21.70125 10.226875 22.4025 10.45375 23.125 10.6875 C33.25002873 15.30979573 39.40377288 26.3505586 43.30859375 36.3515625 C48.04860848 54.99410848 46.31300774 75.41980154 36.828125 92.078125 C33.01116742 98.17873242 29.20216201 102.25286045 23 106 C21.63875 106.99 21.63875 106.99 20.25 108 C1.66739064 119.43545191 -24.15599223 119.83930398 -44.91674805 114.92456055 C-51.85731827 113.0356558 -57.92858624 109.81876908 -64 106 C-64 105.34 -64 104.68 -64 104 C-64.5671875 103.76667969 -65.134375 103.53335938 -65.71875 103.29296875 C-74.30185526 98.4282293 -80.46653418 88.12542584 -83.3359375 78.90234375 C-87.72988939 59.69818933 -86.74127105 40.40337753 -77 23 C-76.34 23 -75.68 23 -75 23 C-74.773125 22.278125 -74.54625 21.55625 -74.3125 20.8125 C-72.72720026 17.41542913 -70.84076677 15.4250448 -68 13 C-67.01 13 -66.02 13 -65 13 C-65 12.34 -65 11.68 -65 11 C-63.68 10.67 -62.36 10.34 -61 10 C-61 9.34 -61 8.68 -61 8 C-41.64627601 -1.91288302 -21.45012898 -3.16255119 0 0 Z M-39 41 C-42.49769525 46.43709528 -42.45349576 51.24650468 -42.375 57.5 C-42.38660156 58.42425781 -42.39820313 59.34851563 -42.41015625 60.30078125 C-42.3738396 68.76256082 -39.81235439 73.77247744 -34 80 C-28.09234681 84.17858396 -22.09227387 84.75836061 -15 84 C-9.43558279 82.2856109 -4.23040007 78.89607511 -1 74 C0.4123752 70.39733981 1.24764303 66.78904415 2 63 C2.309375 61.741875 2.61875 60.48375 2.9375 59.1875 C3.56073857 53.05686754 1.38164555 46.56826069 -1 41 C-5.64577414 35.59511244 -10.66943677 32.60985172 -17.74609375 31.61328125 C-26.76061754 31.25069985 -33.18048151 34.01657782 -39 41 Z " fill="#020202" transform="translate(785,32)"/>
<path d="M0 0 C0.66 0.33 1.32 0.66 2 1 C2.33 11.23 2.66 21.46 3 32 C3.66 32 4.32 32 5 32 C5.2475 31.44828125 5.495 30.8965625 5.75 30.328125 C7.24234474 27.54863293 9.03672523 25.2185293 11 22.75 C11.70125 21.85796875 12.4025 20.9659375 13.125 20.046875 C13.74375 19.37140625 14.3625 18.6959375 15 18 C15.66 18 16.32 18 17 18 C17.268125 17.4225 17.53625 16.845 17.8125 16.25 C19.02929189 13.94449957 20.30333879 11.97943808 22 10 C22.66 10 23.32 10 24 10 C24.66 8.35 25.32 6.7 26 5 C26.66 5 27.32 5 28 5 C28 4.34 28 3.68 28 3 C30.84471105 0.32793442 32.72143232 -0.36815799 36.58496094 -0.2487793 C37.93590851 -0.21840828 37.93590851 -0.21840828 39.31414795 -0.18742371 C40.27782288 -0.15006607 41.2414978 -0.11270844 42.234375 -0.07421875 C43.22753723 -0.04777786 44.22069946 -0.02133698 45.24395752 0.00590515 C48.41325363 0.09361222 51.58139694 0.2027825 54.75 0.3125 C56.89969839 0.37576449 59.04943843 0.43763035 61.19921875 0.49804688 C66.46673655 0.64914378 71.73346907 0.81786318 77 1 C77 1.66 77 2.32 77 3 C76.34 3 75.68 3 75 3 C74.93167969 3.55042969 74.86335937 4.10085937 74.79296875 4.66796875 C73.67654302 7.95125034 71.68765504 9.80243331 69.3125 12.3125 C66.28530946 15.54323554 63.31232615 18.76804637 60.5 22.1875 C59.2625 23.5796875 59.2625 23.5796875 58 25 C57.34 25 56.68 25 56 25 C55.67 26.32 55.34 27.64 55 29 C54.34 29 53.68 29 53 29 C52.34 30.32 51.68 31.64 51 33 C50.34 33 49.68 33 49 33 C48.773125 33.721875 48.54625 34.44375 48.3125 35.1875 C46.75168987 38.53209313 44.6968713 40.51603959 42 43 C43.58558277 47.17008268 45.49578181 51.14431738 47.5 55.125 C47.84385742 55.81078125 48.18771484 56.4965625 48.54199219 57.203125 C51.78046572 63.62825649 55.12560377 69.99639412 58.49804688 76.35205078 C61.06915671 81.20153064 63.56280815 86.08200849 66 91 C66.68958072 92.38046993 67.37969009 93.76067591 68.0703125 95.140625 C72.1953125 103.390625 72.1953125 103.390625 73.14550781 105.30664062 C73.83508592 106.67318741 74.56396329 108.01986175 75.3046875 109.359375 C75.53414062 109.90078125 75.76359375 110.4421875 76 111 C75.67 111.66 75.34 112.32 75 113 C59.82 113 44.64 113 29 113 C23.39565943 101.79131886 23.39565943 101.79131886 21.4296875 97.60546875 C21.00816406 96.71279297 20.58664062 95.82011719 20.15234375 94.90039062 C19.29183603 93.07279853 18.43248401 91.24466188 17.57421875 89.41601562 C15.55789565 85.15071677 13.55264501 80.9791231 11 77 C10.38125 77.825 9.7625 78.65 9.125 79.5 C8.42375 80.325 7.7225 81.15 7 82 C6.34 82 5.68 82 5 82 C2.90465815 85.45547603 2.69928372 88.29197531 2.5859375 92.296875 C2.55032715 93.38323242 2.5147168 94.46958984 2.47802734 95.58886719 C2.44402832 96.96204102 2.4100293 98.33521484 2.375 99.75 C2.189375 106.30875 2.189375 106.30875 2 113 C-11.2 113.33 -24.4 113.66 -38 114 C-38.69716881 86.89756238 -39.10981107 59.80540879 -39.12338257 32.69444656 C-39.12500335 30.55808306 -39.12856559 28.42173014 -39.13256836 26.28536987 C-39.1394873 22.27486101 -39.13699707 18.2644192 -39.1328125 14.25390625 C-39.13479645 13.04155304 -39.1367804 11.82919983 -39.13882446 10.58010864 C-39.13571259 9.47545258 -39.13260071 8.37079651 -39.12939453 7.23266602 C-39.12859894 6.26571304 -39.12780334 5.29876007 -39.12698364 4.30250549 C-39 2 -39 2 -38 0 C-37.07662842 0.00523682 -36.15325684 0.01047363 -35.2019043 0.01586914 C-31.77465186 0.03291585 -28.3474445 0.0454525 -24.92016602 0.05493164 C-23.43708587 0.05995903 -21.95401067 0.06678185 -20.47094727 0.07543945 C-18.33869199 0.08757482 -16.20650227 0.09324425 -14.07421875 0.09765625 C-12.79119873 0.10289307 -11.50817871 0.10812988 -10.1862793 0.11352539 C-0.69625668 -0.22459893 -0.69625668 -0.22459893 0 0 Z " fill="#020202" transform="translate(879,33)"/>
<path d="M0 0 C1.26670784 -0.00262848 1.26670784 -0.00262848 2.55900574 -0.00531006 C5.34192986 -0.00970065 8.12479011 -0.00680094 10.90771484 -0.00341797 C12.8439434 -0.00409168 14.78017188 -0.00506228 16.71640015 -0.00631714 C20.76976326 -0.00779022 24.8231043 -0.00565158 28.87646484 -0.00097656 C34.07637596 0.00472811 39.27623555 0.00143458 44.47614479 -0.00454903 C48.47206004 -0.00815864 52.46796302 -0.00701433 56.46387863 -0.00442123 C58.38166688 -0.00375347 60.29945624 -0.00457515 62.21724319 -0.00690079 C64.89355685 -0.00943467 67.56978638 -0.00557661 70.24609375 0 C71.04096695 -0.00202423 71.83584015 -0.00404846 72.65480042 -0.00613403 C75.86608908 0.00628866 78.42453371 0.10635499 81.49365234 1.12939453 C81.49365234 11.68939453 81.49365234 22.24939453 81.49365234 33.12939453 C78.98815789 34.38214176 77.29629603 34.24969077 74.49316406 34.24291992 C72.931772 34.24280663 72.931772 34.24280663 71.33883667 34.24269104 C70.21172272 34.23752975 69.08460876 34.23236847 67.92333984 34.22705078 C66.7719754 34.22563583 65.62061096 34.22422089 64.43435669 34.22276306 C60.74576248 34.21715169 57.0572283 34.20459723 53.36865234 34.19189453 C50.87255947 34.186881 48.37646564 34.18231784 45.88037109 34.17822266 C39.75144426 34.16717856 33.62255259 34.15042933 27.49365234 34.12939453 C27.49365234 36.10939453 27.49365234 38.08939453 27.49365234 40.12939453 C29.3488147 40.16697876 29.3488147 40.16697876 31.24145508 40.20532227 C35.81301948 40.29921706 40.38442552 40.39948082 44.95581055 40.50170898 C46.93754381 40.54512597 48.91931612 40.5867959 50.90112305 40.62670898 C53.74328404 40.68424836 56.58524717 40.74798898 59.42724609 40.81298828 C60.31890976 40.82970078 61.21057343 40.84641327 62.1292572 40.8636322 C68.37978064 41.01552282 68.37978064 41.01552282 69.49365234 42.12939453 C69.74780784 46.76954778 69.67888032 51.42060759 69.68115234 56.06689453 C69.69339844 57.38109375 69.70564453 58.69529297 69.71826172 60.04931641 C69.72019531 61.30164063 69.72212891 62.55396484 69.72412109 63.84423828 C69.72822998 65.00044678 69.73233887 66.15665527 69.73657227 67.34790039 C69.49365234 70.12939453 69.49365234 70.12939453 67.49365234 72.12939453 C64.48056283 72.30485936 61.56054781 72.36066898 58.54833984 72.32470703 C57.66332794 72.32187714 56.77831604 72.31904724 55.8664856 72.31613159 C53.03373822 72.30491693 50.20130451 72.27981024 47.36865234 72.25439453 C45.45068815 72.24436638 43.53271902 72.23524025 41.61474609 72.22705078 C36.90759358 72.20497342 32.20067618 72.17043498 27.49365234 72.12939453 C27.49365234 74.76939453 27.49365234 77.40939453 27.49365234 80.12939453 C28.48630348 80.12606361 28.48630348 80.12606361 29.49900818 80.12266541 C36.36025454 80.10061488 43.22149091 80.08548891 50.08276367 80.07446289 C52.64656991 80.06942083 55.21037326 80.06258739 57.77416992 80.05395508 C61.45020256 80.04188389 65.12619732 80.03616511 68.80224609 80.03173828 C69.95639511 80.026577 71.11054413 80.02141571 72.29966736 80.01609802 C73.89120384 80.01598473 73.89120384 80.01598473 75.51489258 80.01586914 C76.45421127 80.01364853 77.39352997 80.01142792 78.36131287 80.00914001 C80.49365234 80.12939453 80.49365234 80.12939453 81.49365234 81.12939453 C81.49365234 91.68939453 81.49365234 102.24939453 81.49365234 113.12939453 C50.14365234 113.12939453 18.79365234 113.12939453 -13.50634766 113.12939453 C-13.69197266 98.73314453 -13.87759766 84.33689453 -14.06884766 69.50439453 C-14.13015869 65.0060498 -14.19146973 60.50770508 -14.25463867 55.87304688 C-14.32263184 50.25952148 -14.32263184 50.25952148 -14.35313416 47.60830688 C-14.3750182 45.80757724 -14.39932687 44.0068758 -14.42576599 42.20620728 C-14.62478051 28.47683495 -14.27433028 14.83901485 -13.50634766 1.12939453 C-9.01058246 0.00585402 -4.60296499 -0.01178196 0 0 Z " fill="#020202" transform="translate(973.50634765625,32.87060546875)"/>
<path d="M0 0 C0.495 0.99 0.495 0.99 1 2 C2.32 2 3.64 2 5 2 C5.38671875 3.05058594 5.7734375 4.10117187 6.171875 5.18359375 C6.69776506 6.60161873 7.2238154 8.01958428 7.75 9.4375 C8.00265625 10.12521484 8.2553125 10.81292969 8.515625 11.52148438 C9.86411348 15.14554715 11.29178948 18.6971302 12.8984375 22.21484375 C15.53764537 28.0666438 17.68009219 34.09584813 19.875 40.125 C22.98530326 48.59956506 26.12933451 57.04449498 29.55078125 65.3984375 C33.63490203 75.54819318 37.44558192 85.80537879 41.25 96.0625 C41.69601562 97.25810547 42.14203125 98.45371094 42.6015625 99.68554688 C43.02695312 100.83216797 43.45234375 101.97878906 43.890625 103.16015625 C44.27250977 104.18761963 44.65439453 105.21508301 45.04785156 106.27368164 C45.83139546 108.51722901 46.57894868 110.66168544 47 113 C46 114 46 114 42.12280273 114.11352539 C40.39305833 114.11336621 38.66330919 114.10766849 36.93359375 114.09765625 C36.02497086 114.0962413 35.11634796 114.09482635 34.18019104 114.09336853 C31.26592779 114.08775193 28.35174019 114.07519665 25.4375 114.0625 C23.46679798 114.05748714 21.49609476 114.05292386 19.52539062 114.04882812 C14.68356441 114.03777711 9.84179505 114.02050138 5 114 C5 113.34 5 112.68 5 112 C4.34 112 3.68 112 3 112 C2.80664062 111.26394531 2.61328125 110.52789062 2.4140625 109.76953125 C2.15367187 108.79371094 1.89328125 107.81789063 1.625 106.8125 C1.36976563 105.84957031 1.11453125 104.88664062 0.8515625 103.89453125 C-0.06655521 100.60586093 -0.06655521 100.60586093 -2 96 C-11.57 96 -21.14 96 -31 96 C-32.56049158 100.79975327 -32.56049158 100.79975327 -34.11083984 105.6027832 C-35.14441795 108.74262362 -36.15542748 111.23314123 -38 114 C-41.04440276 114.33761035 -43.8948124 114.48917443 -46.9453125 114.51171875 C-47.8303244 114.52966995 -48.7153363 114.54762115 -49.62716675 114.56611633 C-52.45972904 114.62038985 -55.29212126 114.65416919 -58.125 114.6875 C-60.04299251 114.72065808 -61.96096253 114.75514631 -63.87890625 114.79101562 C-68.58581506 114.87612593 -73.29267194 114.94285537 -78 115 C-78.99443643 110.9609534 -78.83268738 109.06573599 -77.0234375 105.28125 C-75.67072019 102.2660328 -74.59873135 99.17890165 -73.5 96.0625 C-73.06816406 94.84304687 -72.63632812 93.62359375 -72.19140625 92.3671875 C-71.79824219 91.25601563 -71.40507812 90.14484375 -71 89 C-69.53199551 84.90041143 -67.96079686 80.88702313 -66.125 76.9375 C-63.20047341 70.49900736 -61.16131888 63.72311898 -59 57 C-58.34 57 -57.68 57 -57 57 C-57.061875 56.319375 -57.12375 55.63875 -57.1875 54.9375 C-56.88038708 50.12606432 -54.63815338 46.2252545 -52.4375 42 C-50.90304873 39.01604899 -50.90304873 39.01604899 -50.0625 35.6875 C-49.23827444 32.82695247 -48.35269488 30.42990984 -47.125 27.75 C-43.6011411 20.03418999 -40.89552881 12.11655446 -38.80859375 3.8984375 C-38.54175781 3.27195313 -38.27492188 2.64546875 -38 2 C-26.8772789 -1.7075737 -11.57968566 1.41376575 0 2 C0 1.34 0 0.68 0 0 Z M-18 54 C-18.99 57.3 -19.98 60.6 -21 64 C-18.03 64 -15.06 64 -12 64 C-12.99 60.7 -13.98 57.4 -15 54 C-15.99 54 -16.98 54 -18 54 Z " fill="#020202" transform="translate(359,32)"/>
<path d="M0 0 C2.0234375 1.125 2.0234375 1.125 3.875 2.375 C4.50664062 2.7875 5.13828125 3.2 5.7890625 3.625 C11.5503161 7.93981121 14.77685627 13.88194134 16.47265625 20.8203125 C17.71176032 29.67919449 16.62858429 39.24390543 11.33984375 46.6328125 C5.29509562 53.82203294 -1.78966378 57.58207158 -11.18359375 58.7578125 C-18.08911422 59.02171774 -23.11779063 57.69349873 -29.125 54.375 C-29.81078125 54.05144531 -30.4965625 53.72789062 -31.203125 53.39453125 C-34.07649422 51.87024392 -35.99308604 49.80301312 -38.125 47.375 C-38.125 46.385 -38.125 45.395 -38.125 44.375 C-38.785 44.375 -39.445 44.375 -40.125 44.375 C-44.20692841 32.25677505 -45.486144 23.16140715 -40.1484375 11.18359375 C-38.80610076 8.81144905 -37.16929585 7.16375887 -35.125 5.375 C-34.465 5.375 -33.805 5.375 -33.125 5.375 C-33.125 4.715 -33.125 4.055 -33.125 3.375 C-23.34224291 -2.5411382 -10.85916306 -4.40688638 0 0 Z M-18.625 6.8125 C-19.4190625 7.07933594 -20.213125 7.34617188 -21.03125 7.62109375 C-23.14390474 8.33538898 -23.14390474 8.33538898 -25.125 9.375 C-25.125 10.035 -25.125 10.695 -25.125 11.375 C-26.115 11.375 -27.105 11.375 -28.125 11.375 C-32.93248862 18.98113378 -34.18859045 25.43382751 -33.125 34.375 C-31.6854897 40.58357495 -27.77417016 44.37022259 -22.8125 48.125 C-16.11608729 51.23961056 -10.96203559 50.40409767 -4.12890625 48.359375 C-3.13697266 47.87210938 -3.13697266 47.87210938 -2.125 47.375 C-1.795 46.385 -1.465 45.395 -1.125 44.375 C-0.50625 44.106875 0.1125 43.83875 0.75 43.5625 C4.24041932 41.61197156 5.33398777 38.20091626 6.4375 34.4765625 C8.01943354 26.87763175 7.01796812 20.87291841 2.875 14.375 C2.1015625 13.01375 2.1015625 13.01375 1.3125 11.625 C-4.21641196 6.52138896 -11.56272216 4.41637002 -18.625 6.8125 Z " fill="#030202" transform="translate(256.125,179.625)"/>
<path d="M0 0 C4.59964258 4.80871724 7.02299578 8.68119478 7.375 15.3125 C7.22474277 20.95653739 5.38762519 25.4272381 1.5390625 29.57421875 C-1.18394912 31.9862265 -3.47743246 33.27878466 -7 34 C-5.06402271 36.27214699 -3.12628828 38.54275363 -1.1875 40.8125 C-0.64029297 41.45509766 -0.09308594 42.09769531 0.47070312 42.75976562 C1.26831055 43.69272461 1.26831055 43.69272461 2.08203125 44.64453125 C2.56905518 45.21534424 3.0560791 45.78615723 3.55786133 46.37426758 C4.98235437 48.03986741 4.98235437 48.03986741 6.68237305 49.5222168 C8 51 8 51 8 54 C4.64185436 54.65858778 1.42717291 55.13100814 -2 55 C-5.3885413 52.51045945 -6.67651025 50.97046924 -8 47 C-8.66 47 -9.32 47 -10 47 C-11.36363208 45.02053408 -12.69418644 43.0180755 -14 41 C-14.5775 40.4225 -15.155 39.845 -15.75 39.25 C-16.1625 38.8375 -16.575 38.425 -17 38 C-17 37.34 -17 36.68 -17 36 C-20.3 35.67 -23.6 35.34 -27 35 C-27.33 41.27 -27.66 47.54 -28 54 C-31.47823115 55.15941038 -33.45895578 54.70820884 -37 54 C-37.1536152 46.71589121 -37.30179684 39.43169354 -37.4429636 32.14733219 C-37.50867923 28.76523329 -37.57629498 25.38319426 -37.64819336 22.0012207 C-37.73069127 18.11680222 -37.8050324 14.23224873 -37.87890625 10.34765625 C-37.90594131 9.12788589 -37.93297638 7.90811554 -37.96083069 6.65138245 C-37.99097511 4.96975258 -37.99097511 4.96975258 -38.02172852 3.25415039 C-38.04171402 2.26153702 -38.06169952 1.26892365 -38.08229065 0.24623108 C-38 -2 -38 -2 -37 -3 C-32.76215171 -3.38720155 -28.50199723 -3.47087643 -24.25 -3.625 C-23.05632812 -3.6765625 -21.86265625 -3.728125 -20.6328125 -3.78125 C-18.90417969 -3.84699219 -18.90417969 -3.84699219 -17.140625 -3.9140625 C-15.55556152 -3.9752124 -15.55556152 -3.9752124 -13.93847656 -4.03759766 C-8.61220565 -3.96944829 -4.57028171 -2.76121186 0 0 Z M-28 4 C-28 11.59 -28 19.18 -28 27 C-15.66939154 27.99713576 -15.66939154 27.99713576 -5 23 C-2.51866661 19.27799991 -2.47703852 16.31021482 -3 12 C-4.3391368 8.45522612 -5.58870903 7.27107814 -8.75 5.1875 C-14.66300773 2.90438638 -21.82250956 3.83599583 -28 4 Z " fill="#030202" transform="translate(188,182)"/>
<path d="M0 0 C3.90610051 4.85202229 5.00203606 9.60401597 4.37109375 15.703125 C3.65739013 18.84238656 2.91788036 21.86927341 1.37109375 24.703125 C0.05111683 25.39586098 -1.28185804 26.06462415 -2.62890625 26.703125 C-2.95890625 27.693125 -3.28890625 28.683125 -3.62890625 29.703125 C-6.59890625 30.198125 -6.59890625 30.198125 -9.62890625 30.703125 C-6.97062493 35.61280784 -3.33773768 39.36895965 0.51953125 43.33007812 C5.00436811 48.06206325 5.00436811 48.06206325 5.37109375 51.703125 C-2.61420284 53.30366375 -2.61420284 53.30366375 -6.69140625 50.890625 C-8.62890625 48.703125 -8.62890625 48.703125 -8.62890625 46.703125 C-9.28890625 46.703125 -9.94890625 46.703125 -10.62890625 46.703125 C-12.25390625 45.390625 -12.25390625 45.390625 -13.62890625 43.703125 C-13.62890625 42.713125 -13.62890625 41.723125 -13.62890625 40.703125 C-14.18578125 40.496875 -14.74265625 40.290625 -15.31640625 40.078125 C-17.62890625 38.703125 -17.62890625 38.703125 -19.87890625 35.578125 C-20.78640625 34.629375 -21.69390625 33.680625 -22.62890625 32.703125 C-25.26890625 32.703125 -27.90890625 32.703125 -30.62890625 32.703125 C-30.62890625 38.973125 -30.62890625 45.243125 -30.62890625 51.703125 C-33.59890625 51.703125 -36.56890625 51.703125 -39.62890625 51.703125 C-39.79875135 45.99656075 -39.95902902 40.28982971 -40.11108398 34.58276367 C-40.16390091 32.64812287 -40.21916876 30.71354716 -40.27709961 28.77905273 C-40.61769022 17.34409303 -40.69230462 6.10333217 -39.62890625 -5.296875 C-36.02578297 -5.52669731 -32.42155602 -5.72664227 -28.81640625 -5.921875 C-27.81158203 -5.98632812 -26.80675781 -6.05078125 -25.77148438 -6.1171875 C-16.59003431 -6.58954506 -6.92111527 -6.83812828 0 0 Z M-30.62890625 1.703125 C-30.62890625 9.293125 -30.62890625 16.883125 -30.62890625 24.703125 C-18.28316095 25.72715914 -18.28316095 25.72715914 -7.62890625 20.703125 C-4.97644695 17.3587198 -5.20095632 13.8399743 -5.62890625 9.703125 C-7.41135093 6.06968007 -8.54157929 4.17803104 -12.28515625 2.54296875 C-16.08581069 1.58836512 -19.62080978 1.48106906 -23.50390625 1.578125 C-27.03078125 1.64 -27.03078125 1.64 -30.62890625 1.703125 Z " fill="#030202" transform="translate(459.62890625,184.296875)"/>
<path d="M0 0 C1.07954201 -0.00143509 1.07954201 -0.00143509 2.18089294 -0.00289917 C3.69798877 -0.00357798 5.21508753 -0.00174456 6.73217773 0.00244141 C9.05393992 0.00780176 11.37550936 0.00248233 13.69726562 -0.00390625 C15.17317751 -0.00324557 16.64908927 -0.00196461 18.125 0 C18.81880264 -0.00202423 19.51260529 -0.00404846 20.22743225 -0.00613403 C23.26413971 0.00864819 25.59038685 0.16424353 28.49609375 1.1328125 C28.49609375 3.4428125 28.49609375 5.7528125 28.49609375 8.1328125 C18.92609375 8.4628125 9.35609375 8.7928125 -0.50390625 9.1328125 C-0.83390625 14.7428125 -1.16390625 20.3528125 -1.50390625 26.1328125 C8.06609375 26.1328125 17.63609375 26.1328125 27.49609375 26.1328125 C27.49609375 28.1128125 27.49609375 30.0928125 27.49609375 32.1328125 C21.58098152 34.81405715 15.93311373 34.14648368 9.62109375 33.7578125 C8.01621094 33.67273438 8.01621094 33.67273438 6.37890625 33.5859375 C3.75073312 33.44514251 1.12331582 33.29036066 -1.50390625 33.1328125 C-1.50390625 39.0728125 -1.50390625 45.0128125 -1.50390625 51.1328125 C1.96109375 50.6378125 1.96109375 50.6378125 5.49609375 50.1328125 C7.47431821 50.11847404 9.45374791 50.15777946 11.4296875 50.25390625 C12.48994141 50.30224609 13.55019531 50.35058594 14.64257812 50.40039062 C16.27163086 50.48450195 16.27163086 50.48450195 17.93359375 50.5703125 C19.04669922 50.62251953 20.15980469 50.67472656 21.30664062 50.72851562 C24.03679698 50.85740713 26.7665131 50.99233577 29.49609375 51.1328125 C29.49609375 53.4428125 29.49609375 55.7528125 29.49609375 58.1328125 C25.33396003 59.1356283 21.42319893 59.26188435 17.1484375 59.265625 C16.45472549 59.26658173 15.76101349 59.26753845 15.04627991 59.26852417 C13.58643503 59.26920188 12.12658707 59.26737622 10.66674805 59.26318359 C8.4372683 59.25782134 6.20798923 59.26314659 3.97851562 59.26953125 C2.55598914 59.26887055 1.13346278 59.26758957 -0.2890625 59.265625 C-1.5769165 59.26449707 -2.86477051 59.26336914 -4.19165039 59.26220703 C-6.88734304 59.15689878 -8.94146422 58.83582944 -11.50390625 58.1328125 C-12.26964095 51.53253957 -12.65298973 45.04104656 -12.63671875 38.3984375 C-12.63767548 37.51677917 -12.6386322 36.63512085 -12.63961792 35.72674561 C-12.64029268 33.88146899 -12.63848807 32.0361899 -12.63427734 30.19091797 C-12.62889307 27.37592245 -12.63425957 24.56108458 -12.640625 21.74609375 C-12.6399646 19.94270798 -12.63868421 18.13932232 -12.63671875 16.3359375 C-12.63874298 15.50145081 -12.64076721 14.66696411 -12.64285278 13.80718994 C-12.62550467 9.46971854 -12.37006864 5.40427468 -11.50390625 1.1328125 C-7.70901626 -0.08595778 -3.94152369 -0.0115334 0 0 Z " fill="#030303" transform="translate(368.50390625,177.8671875)"/>
<path d="M0 0 C1.26070312 0.02964844 2.52140625 0.05929688 3.8203125 0.08984375 C11.43047111 0.42679462 18.10178529 0.87651158 23.5546875 6.64453125 C27.88524838 12.25958053 28.73708346 17.9642033 28 25 C25.9221272 31.45234186 22.97179828 35.39684362 16.98046875 38.62890625 C12.25882013 40.57821072 7.59330801 40.32875379 2.5625 40.1875 C1.64017578 40.17396484 0.71785156 40.16042969 -0.23242188 40.14648438 C-2.48853709 40.11141523 -4.74434803 40.05761836 -7 40 C-7 45.61 -7 51.22 -7 57 C-11.35532149 59.17766075 -12.46625958 59.03039555 -17 58 C-18.09285774 47.25822507 -18.2185296 36.54574397 -18.24023438 25.75756836 C-18.25010721 22.78016904 -18.28130171 19.80341488 -18.3125 16.82617188 C-18.31901637 14.93229572 -18.32427217 13.0384147 -18.328125 11.14453125 C-18.3404718 10.25506302 -18.3528186 9.36559479 -18.36553955 8.44917297 C-18.35644531 5.96801758 -18.35644531 5.96801758 -18 2 C-12.79464085 -1.47023943 -6.10045376 -0.1843783 0 0 Z M-7 8 C-7 16.25 -7 24.5 -7 33 C4.55739121 33.87359076 4.55739121 33.87359076 15 30 C17.70969104 26.40032246 19.02623116 23.33778893 18.9375 18.8125 C17.95171935 15.85515806 16.8475561 13.5126763 15 11 C14.34 11 13.68 11 13 11 C13 10.34 13 9.68 13 9 C10.97945706 8.82984902 8.95854716 8.66405343 6.9375 8.5 C5.81214844 8.4071875 4.68679687 8.314375 3.52734375 8.21875 C0.02420162 8.00150088 -3.49012792 8 -7 8 Z " fill="#020202" transform="translate(104,178)"/>
<path d="M0 0 C1.65016628 0.11015887 3.30354004 0.17701814 4.95703125 0.2109375 C5.90513672 0.23929688 6.85324219 0.26765625 7.83007812 0.296875 C9.80645838 0.34864659 11.78304766 0.39300884 13.75976562 0.4296875 C20.42746779 0.64637653 25.71685867 1.18120734 30.9609375 5.68359375 C31.42757812 6.26238281 31.89421875 6.84117187 32.375 7.4375 C32.85710937 8.01371094 33.33921875 8.58992187 33.8359375 9.18359375 C36.83880412 13.86927488 36.45099915 19.6363315 36 25 C34.86045101 29.91011551 33.16009996 33.96425138 29 37 C22.62948909 39.91060297 17.44947674 40.38446918 10.5 40.1875 C9.5821875 40.17396484 8.664375 40.16042969 7.71875 40.14648438 C5.47853197 40.11148097 3.23959406 40.06238869 1 40 C1.01160156 41.28777344 1.02320313 42.57554687 1.03515625 43.90234375 C1.0445327 45.58072772 1.05363305 47.25911326 1.0625 48.9375 C1.07087891 49.78763672 1.07925781 50.63777344 1.08789062 51.51367188 C1.09111328 52.32255859 1.09433594 53.13144531 1.09765625 53.96484375 C1.10289307 54.7137085 1.10812988 55.46257324 1.11352539 56.23413086 C1 58 1 58 0 59 C-2.69082872 58.82364548 -5.32851446 58.38164079 -8 58 C-8.90663353 54.88541415 -9.1468863 52.05907963 -9.19287109 48.82006836 C-9.20893402 47.78897446 -9.22499695 46.75788055 -9.24154663 45.69554138 C-9.2860524 41.01244891 -9.32700746 36.32949435 -9.35009766 31.64624023 C-9.36671188 29.17186107 -9.39407269 26.69753095 -9.43212891 24.22338867 C-9.48667419 20.657787 -9.50873211 17.0933054 -9.5234375 13.52734375 C-9.54610687 12.4179393 -9.56877625 11.30853485 -9.59213257 10.16551208 C-9.57107666 2.57113774 -9.57107666 2.57113774 -6.71728516 -0.28295898 C-3.80917273 -1.05035577 -2.77281187 -0.97273806 0 0 Z M1 9 C1 16.92 1 24.84 1 33 C12.51727152 33.80577013 12.51727152 33.80577013 23 30 C25.78546475 26.85742438 26.86130626 24.74894619 27.625 20.625 C26.75608904 15.58531644 25.13389185 12.13289401 21 9 C16.97124733 7.98873415 13.13709826 7.9109104 9 8 C8.11441406 7.979375 7.22882813 7.95875 6.31640625 7.9375 C3.83953474 7.89208554 3.83953474 7.89208554 1 9 Z " fill="#030202" transform="translate(302,178)"/>
<path d="M0 0 C3.23265231 -0.24922943 5.92658463 -0.07667418 9 1 C11.93912667 3.98469452 13.93542516 7.37362243 16 11 C16.65355469 12.06347656 16.65355469 12.06347656 17.3203125 13.1484375 C20 17.5895979 20 17.5895979 20 20 C20.66 20 21.32 20 22 20 C22.66 21.65 23.32 23.3 24 25 C24.66 24.34 25.32 23.68 26 23 C26.66 22.67 27.32 22.34 28 22 C28.66776301 20.33377229 29.33409374 18.66697063 30 17 C31.52951541 14.19033093 33.19570729 11.4721188 34.875 8.75 C35.30941406 8.0178125 35.74382813 7.285625 36.19140625 6.53125 C36.62066406 5.83515625 37.04992187 5.1390625 37.4921875 4.421875 C37.87745605 3.78862305 38.26272461 3.15537109 38.65966797 2.50292969 C40.36201159 0.59407224 41.48780456 0.31769592 44 0 C46.00946222 0.27050453 48.01354224 0.59367909 50 1 C49.43432553 4.80582765 48.39308577 7.35044927 46.26953125 10.546875 C45.43518555 11.8153125 45.43518555 11.8153125 44.58398438 13.109375 C43.99939453 13.98078125 43.41480469 14.8521875 42.8125 15.75 C42.24724609 16.6059375 41.68199219 17.461875 41.09960938 18.34375 C40.53693359 19.19453125 39.97425781 20.0453125 39.39453125 20.921875 C38.83354736 21.77587891 38.27256348 22.62988281 37.69458008 23.50976562 C36.6011739 25.11655759 35.45990988 26.69226349 34.2644043 28.22460938 C29.62438389 34.35510246 29.13471705 39.4280461 29.1875 47 C29.16339897 49.06254044 29.13623165 51.12504816 29.10546875 53.1875 C29.10699951 54.08855469 29.10853027 54.98960937 29.11010742 55.91796875 C29 58 29 58 28 59 C25.30917128 58.82364548 22.67148554 58.38164079 20 58 C19.97494385 57.32420898 19.9498877 56.64841797 19.92407227 55.95214844 C19.80789258 52.8845832 19.68526563 49.81730842 19.5625 46.75 C19.52318359 45.68652344 19.48386719 44.62304688 19.44335938 43.52734375 C19.40146484 42.50253906 19.35957031 41.47773438 19.31640625 40.421875 C19.27974854 39.47924805 19.24309082 38.53662109 19.20532227 37.56542969 C19.02060772 35.25748623 18.64138388 33.21859476 18 31 C17.34 31 16.68 31 16 31 C12 24.25 12 24.25 12 22 C11.34 21.67 10.68 21.34 10 21 C8.82651648 19.3033625 7.70960475 17.56728628 6.625 15.8125 C4.66724541 12.65060347 2.70609388 9.55538261 0.5 6.5625 C-1 4 -1 4 -0.59375 1.83984375 C-0.3978125 1.23269531 -0.201875 0.62554687 0 0 Z " fill="#020202" transform="translate(538,178)"/>
<path d="M0 0 C0.81086563 -0.00315216 1.62173126 -0.00630432 2.45716858 -0.009552 C3.75732155 -0.00651566 3.75732155 -0.00651566 5.08374023 -0.00341797 C5.98100327 -0.00437469 6.8782663 -0.00533142 7.80271912 -0.00631714 C9.69644237 -0.0069967 11.59016796 -0.00515802 13.48388672 -0.00097656 C16.38506281 0.0043811 19.28608453 -0.00093235 22.18725586 -0.00732422 C24.02775099 -0.00666352 25.86824603 -0.00538253 27.70874023 -0.00341797 C29.01192955 -0.00645432 29.01192955 -0.00645432 30.34144592 -0.009552 C31.55301613 -0.00482376 31.55301613 -0.00482376 32.7890625 0 C33.49869644 0.00079559 34.20833038 0.00159119 34.93946838 0.00241089 C36.82983398 0.12939453 36.82983398 0.12939453 39.82983398 1.12939453 C39.82983398 3.43939453 39.82983398 5.74939453 39.82983398 8.12939453 C33.55983398 8.12939453 27.28983398 8.12939453 20.82983398 8.12939453 C20.82983398 24.62939453 20.82983398 41.12939453 20.82983398 58.12939453 C16.37483398 58.62439453 16.37483398 58.62439453 11.82983398 59.12939453 C11.49983398 42.62939453 11.16983398 26.12939453 10.82983398 9.12939453 C5.87983398 9.12939453 0.92983398 9.12939453 -4.17016602 9.12939453 C-5.49016602 8.46939453 -6.81016602 7.80939453 -8.17016602 7.12939453 C-8.17016602 5.14939453 -8.17016602 3.16939453 -8.17016602 1.12939453 C-5.37810588 0.33976698 -2.89829758 0.00324574 0 0 Z " fill="#030302" transform="translate(485.170166015625,177.87060546875)"/>
<path d="M0 0 C0.495 0.99 0.495 0.99 1 2 C1.99 2.495 1.99 2.495 3 3 C-1.87843481 4.28265418 -6.65491481 4.09304563 -11.65551758 4.02172852 C-12.6218512 4.01212097 -13.58818481 4.00251343 -14.58380127 3.99261475 C-17.77078696 3.95969242 -20.95763267 3.91933425 -24.14453125 3.87890625 C-26.35698456 3.85459853 -28.56944301 3.8307553 -30.78190613 3.80735779 C-36.59998446 3.74458181 -42.41797144 3.67549673 -48.23596191 3.60510254 C-54.17484381 3.53436054 -60.11379039 3.46957868 -66.05273438 3.40429688 C-77.701894 3.27536812 -89.35096582 3.13977486 -101 3 C-101 2.34 -101 1.68 -101 1 C-51.005 1.495 -51.005 1.495 0 2 C0 1.34 0 0.68 0 0 Z " fill="#110B0C" transform="translate(289,32)"/>
<path d="M0 0 C0.84914474 -0.00014603 1.69828949 -0.00029205 2.57316589 -0.0004425 C5.37595181 0.00025338 8.17867102 0.00803063 10.98144531 0.01586914 C12.92628951 0.01773447 14.87113417 0.01915783 16.815979 0.02015686 C21.9320404 0.02397297 27.04807336 0.03379555 32.16412354 0.04486084 C37.38577896 0.05509441 42.60743899 0.05965865 47.82910156 0.06469727 C58.07260363 0.07541861 68.31608461 0.09248419 78.55957031 0.11352539 C78.55957031 0.77352539 78.55957031 1.43352539 78.55957031 2.11352539 C67.1377611 2.29039939 55.71585087 2.45636139 44.29368114 2.60830116 C38.99020632 2.67919386 33.68684085 2.75387851 28.38354492 2.8371582 C23.26786378 2.91735337 18.15213433 2.98768053 13.03621864 3.05109787 C11.08209528 3.07706911 9.12801625 3.10662701 7.17400169 3.13978958 C4.44212129 3.18554767 1.71036289 3.2186778 -1.02172852 3.2487793 C-2.23984726 3.27359123 -2.23984726 3.27359123 -3.48257446 3.29890442 C-7.35127187 3.3283382 -9.14141345 3.31286955 -12.44042969 1.11352539 C-8.28944269 -0.04569546 -4.28105152 -0.01926032 0 0 Z " fill="#100B0C" transform="translate(973.4404296875,32.886474609375)"/>
<path d="M0 0 C2.17703606 -0.00219336 4.35357061 -0.02038948 6.53051758 -0.03930664 C7.91528147 -0.04223964 9.30004777 -0.04422506 10.68481445 -0.04516602 C11.94237549 -0.0492749 13.19993652 -0.05338379 14.49560547 -0.05761719 C17.6184082 0.18530273 17.6184082 0.18530273 20.6184082 2.18530273 C17.57312602 3.70794383 14.39695574 3.34815811 11.0559082 3.35327148 C10.30881592 3.35659988 9.56172363 3.35992828 8.79199219 3.36335754 C7.21167619 3.36842239 5.63134949 3.37076601 4.05102539 3.37060547 C1.62799578 3.37279407 -0.79458015 3.39095974 -3.2175293 3.40991211 C-4.7513819 3.41284565 -6.28523668 3.41483071 -7.8190918 3.41577148 C-8.54620361 3.422957 -9.27331543 3.43014252 -10.02246094 3.43754578 C-15.15276377 3.41413076 -15.15276377 3.41413076 -17.3815918 1.18530273 C-11.80446714 -0.56655923 -5.78785965 -0.00065511 0 0 Z " fill="#0F0B0C" transform="translate(533.381591796875,32.814697265625)"/>
<path d="M0 0 C1.28261719 -0.01224609 2.56523438 -0.02449219 3.88671875 -0.03710938 C5.10746094 -0.03904297 6.32820312 -0.04097656 7.5859375 -0.04296875 C9.25342041 -0.04913208 9.25342041 -0.04913208 10.95458984 -0.05541992 C13.625 0.1875 13.625 0.1875 15.625 2.1875 C7.18510242 3.03397096 -1.14598793 3.31506916 -9.625 3.25 C-10.76324219 3.24548828 -11.90148437 3.24097656 -13.07421875 3.23632812 C-15.84120409 3.22470214 -18.60807158 3.20836431 -21.375 3.1875 C-21.705 2.5275 -22.035 1.8675 -22.375 1.1875 C-14.92105956 0.01402071 -7.53459028 0.00385598 0 0 Z " fill="#0F0B0D" transform="translate(680.375,32.8125)"/>
<path d="M0 0 C0.66 0.99 1.32 1.98 2 3 C-4.75710985 4.27956226 -11.39378174 4.18403726 -18.25 4.1875 C-19.54164063 4.19974609 -20.83328125 4.21199219 -22.1640625 4.22460938 C-24.00871094 4.22750977 -24.00871094 4.22750977 -25.890625 4.23046875 C-27.01500977 4.23457764 -28.13939453 4.23868652 -29.29785156 4.24291992 C-32 4 -32 4 -34 2 C-26.18709348 1.07510464 -18.66056053 0.99953896 -10.8125 1.4375 C-9.76513672 1.48970703 -8.71777344 1.54191406 -7.63867188 1.59570312 C-5.09201218 1.72361754 -2.54593297 1.85847013 0 2 C0 1.34 0 0.68 0 0 Z " fill="#0C080A" transform="translate(359,32)"/>
<path d="M0 0 C0.495 0.99 0.495 0.99 1 2 C-5.80931266 3.03046499 -12.49439405 3.18335006 -19.375 3.1875 C-20.46683594 3.19974609 -21.55867187 3.21199219 -22.68359375 3.22460938 C-23.72386719 3.22654297 -24.76414062 3.22847656 -25.8359375 3.23046875 C-27.25205322 3.23663208 -27.25205322 3.23663208 -28.69677734 3.24291992 C-31 3 -31 3 -33 1 C-10.40510967 -0.19388403 -10.40510967 -0.19388403 0 0 Z " fill="#0F0B0D" transform="translate(622,33)"/>
<path d="M0 0 C0 0.99 0 1.98 0 3 C-11.88 3 -23.76 3 -36 3 C-36.33 2.34 -36.66 1.68 -37 1 C-36.10692139 0.97494385 -35.21384277 0.9498877 -34.29370117 0.92407227 C-30.97814546 0.82889814 -27.66276271 0.72966717 -24.34741211 0.62768555 C-22.91288997 0.58439207 -21.47831816 0.54271301 -20.04370117 0.50268555 C-17.9808048 0.44484733 -15.91815717 0.38119247 -13.85546875 0.31640625 C-12.61434326 0.27974854 -11.37321777 0.24309082 -10.09448242 0.20532227 C-1.23297752 -0.3826482 -1.23297752 -0.3826482 0 0 Z " fill="#0E090C" transform="translate(879,33)"/>
<path d="M0 0 C0.99 0 1.98 0 3 0 C2.00956295 4.83628305 1.04301154 9.47618873 -1 14 C-1.99 14 -2.98 14 -4 14 C-3.36843005 8.94744036 -1.86540627 4.70406799 0 0 Z " fill="#0C060A" transform="translate(300,89)"/>
<path d="M0 0 C1.21313964 3.63941892 0.66242173 4.58773784 -0.75 8.0625 C-1.26820313 9.37927734 -1.26820313 9.37927734 -1.796875 10.72265625 C-3 13 -3 13 -6 15 C-6 9.44803736 -3.64780666 4.1689219 0 0 Z " fill="#0C060A" transform="translate(309,71)"/>
<path d="M0 0 C0.99 0 1.98 0 3 0 C3 5.94 3 11.88 3 18 C2.67 18 2.34 18 2 18 C1.93941406 17.21753906 1.87882813 16.43507813 1.81640625 15.62890625 C1.73261719 14.61699219 1.64882813 13.60507813 1.5625 12.5625 C1.48128906 11.55316406 1.40007813 10.54382813 1.31640625 9.50390625 C1.26788532 7.06359221 1.26788532 7.06359221 0 6 C-0.04080783 4.00041636 -0.04254356 1.99954746 0 0 Z " fill="#0B0608" transform="translate(827,81)"/>
<path d="M0 0 C0.99 0 1.98 0 3 0 C3 1.98 3 3.96 3 6 C2.01 6 1.02 6 0 6 C0 4.02 0 2.04 0 0 Z " fill="#0B0708" transform="translate(186,41)"/>
<path d="M0 0 C4 1 4 1 4 1 Z " fill="#060103" transform="translate(425,32)"/>
<path d="M0 0 C3 1 3 1 3 1 Z " fill="#0A0306" transform="translate(1017,32)"/>
<path d="M0 0 C3 1 3 1 3 1 Z " fill="#0B0306" transform="translate(1013,32)"/>
<path d="M0 0 C3 1 3 1 3 1 Z " fill="#090305" transform="translate(949,32)"/>
<path d="M0 0 C3 1 3 1 3 1 Z " fill="#070203" transform="translate(512,32)"/>
<path d="M0 0 C3 1 3 1 3 1 Z " fill="#0A0306" transform="translate(269,32)"/>
<path d="M0 0 C3 1 3 1 3 1 Z " fill="#0B0306" transform="translate(265,32)"/>
<path d="M0 0 C3 1 3 1 3 1 Z " fill="#0A0306" transform="translate(261,32)"/>
<path d="M0 0 C3 1 3 1 3 1 Z " fill="#0B0304" transform="translate(237,32)"/>
<path d="M0 0 C3 1 3 1 3 1 Z " fill="#0B0304" transform="translate(233,32)"/>
<path d="M0 0 C3 1 3 1 3 1 Z " fill="#0B0305" transform="translate(229,32)"/>
<path d="M0 0 C3 1 3 1 3 1 Z " fill="#0B0305" transform="translate(225,32)"/>
<path d="M0 0 C3 1 3 1 3 1 Z " fill="#0C0305" transform="translate(221,32)"/>
<path d="M0 0 C3 1 3 1 3 1 Z " fill="#0C0305" transform="translate(217,32)"/>
<path d="M0 0 C3 1 3 1 3 1 Z " fill="#0B0306" transform="translate(213,32)"/>
<path d="M0 0 C2 1 2 1 2 1 Z " fill="#070104" transform="translate(1049,32)"/>
<path d="M0 0 C2 1 2 1 2 1 Z " fill="#090305" transform="translate(273,32)"/>
<path d="" fill="#020202" transform="translate(0,0)"/>
<path d="" fill="#030202" transform="translate(0,0)"/>
<path d="" fill="#020202" transform="translate(0,0)"/>
<path d="" fill="#050205" transform="translate(0,0)"/>
<path d="" fill="#080305" transform="translate(0,0)"/>
<path d="" fill="#090305" transform="translate(0,0)"/>
<path d="" fill="#0B0608" transform="translate(0,0)"/>
</svg>
