<?xml version="1.0" encoding="UTF-8"?>
<svg version="1.1" xmlns="http://www.w3.org/2000/svg" width="450" height="200">
<path d="M0 0 C148.5 0 297 0 450 0 C450 66 450 132 450 200 C301.5 200 153 200 0 200 C0 134 0 68 0 0 Z " fill="#FBFBFB" transform="translate(0,0)"/>
<path d="M0 0 C36.96 0 73.92 0 112 0 C112 12.87 112 25.74 112 39 C107.66666667 43.33333333 103.33333333 47.66666667 99 52 C99 39.79 99 27.58 99 15 C70.95 15.33 42.9 15.66 14 16 C13.67 27.55 13.34 39.1 13 51 C6 45 6 45 0 39 C0 26.13 0 13.26 0 0 Z " fill="#231F20" transform="translate(40,33)"/>
<path d="M0 0 C5.28 0 10.56 0 16 0 C16.16220331 15.39460253 16.28704334 30.78908009 16.3626852 46.18433475 C16.39874457 53.33306574 16.4478846 60.48125528 16.52807617 67.62963867 C16.59795727 73.86191583 16.64303331 80.0938008 16.65861946 86.32645887 C16.66772773 89.62538937 16.69275065 92.92293971 16.7401104 96.22157478 C16.79094421 99.90889054 16.79792249 103.59388425 16.79467773 107.28149414 C16.81984467 108.36906509 16.8450116 109.45663605 16.87094116 110.5771637 C16.81830063 116.10731185 16.43654649 119.21257678 12.45033264 123.23240662 C11.32504573 124.18505979 10.18260396 125.11950776 9 126 C5.11564053 124.13070768 2.61701904 122.54193288 0 119 C-0.72477742 115.1701461 -0.63145423 111.395626 -0.56762695 107.50854492 C-0.56835709 106.34713989 -0.56908722 105.18573486 -0.56983948 103.98913574 C-0.56635763 100.15243744 -0.52746471 96.31695484 -0.48828125 92.48046875 C-0.47895524 89.81958459 -0.47159222 87.15876767 -0.46684265 84.49787903 C-0.45131644 78.2115021 -0.41030521 71.92556114 -0.3600952 65.63937598 C-0.30416312 58.48105408 -0.27670564 51.32271109 -0.25161803 44.16422498 C-0.1993878 29.44258871 -0.11045984 14.72131637 0 0 Z " fill="#302C2E" transform="translate(88,57)"/>
<path d="M0 0 C4.29 0 8.58 0 13 0 C13.20897883 12.34380918 13.36867171 24.68719427 13.46630955 37.03241539 C13.51318337 42.76557488 13.57671033 48.4975199 13.67895508 54.22998047 C13.77709673 59.7673591 13.83063134 65.30357338 13.85389519 70.84175491 C13.87046266 72.94931993 13.90281691 75.05682466 13.95157051 77.16389084 C14.36410005 95.73990988 14.36410005 95.73990988 8.69506836 102.12353516 C7.16775635 103.46005256 5.60385055 104.75636655 4 106 C2.68 107.32 1.36 108.64 0 110 C0 73.7 0 37.4 0 0 Z " fill="#E91A27" transform="translate(113,57)"/>
<path d="M0 0 C4.29 0 8.58 0 13 0 C13 36.3 13 72.6 13 110 C11.35 108.35 9.7 106.7 8 105 C6.90564636 104.16451378 6.90564636 104.16451378 5.78918457 103.31214905 C1.78884835 99.88791524 -0.13359033 96.7058457 -0.69555664 91.48849487 C-1.03204529 85.69865823 -0.90012967 79.91600357 -0.78125 74.12109375 C-0.76631354 71.98163474 -0.75493317 69.84214822 -0.74694824 67.70265198 C-0.71652511 62.09434344 -0.63804597 56.4877146 -0.54931641 50.88006592 C-0.46721314 45.14879067 -0.4308845 39.41724176 -0.390625 33.68554688 C-0.30504288 22.45629663 -0.16865451 11.22828845 0 0 Z " fill="#E81C21" transform="translate(66,57)"/>
<path d="M0 0 C3.33333333 0 6.66666667 0 10 0 C11.36500026 -0.01498159 12.72998907 -0.03101457 14.0949707 -0.04760742 C18.81252084 -0.10169248 23.53003385 -0.13629451 28.24780273 -0.16479492 C30.28561042 -0.1798922 32.32338556 -0.20037185 34.36108398 -0.22631836 C37.29939742 -0.2627585 40.2372829 -0.27973588 43.17578125 -0.29296875 C44.08427322 -0.30845261 44.9927652 -0.32393646 45.92878723 -0.33988953 C50.76313279 -0.34117214 54.10406937 -0.21251967 58 3 C59.42662219 5.85324437 59.31033868 7.83454549 59 11 C57.1875 13.875 57.1875 13.875 55 16 C54.01 16 53.02 16 52 16 C53.07955259 17.73152958 54.16382512 19.46011684 55.25 21.1875 C55.85328125 22.15042969 56.4565625 23.11335938 57.078125 24.10546875 C58.91637545 26.87405327 60.88425949 29.43957951 63 32 C59.80859375 32.3984375 59.80859375 32.3984375 56 32 C53.92119928 29.82629085 52.58485428 28.13489889 51.0625 25.625 C50.66482422 25.02171875 50.26714844 24.4184375 49.85742188 23.796875 C47 19.37057605 47 19.37057605 47 17 C46.34 17 45.68 17 45 17 C45 21.29 45 25.58 45 30 C45.66 30 46.32 30 47 30 C47 30.66 47 31.32 47 32 C43.7 32 40.4 32 37 32 C37.33 31.34 37.66 30.68 38 30 C38.08449628 28.2595583 38.10723024 26.51590278 38.09765625 24.7734375 C38.09443359 23.7421875 38.09121094 22.7109375 38.08789062 21.6484375 C38.07951172 20.56820312 38.07113281 19.48796875 38.0625 18.375 C38.05798828 17.28703125 38.05347656 16.1990625 38.04882812 15.078125 C38.03701776 12.38536211 38.02054778 9.69270812 38 7 C34.10540926 6.78918149 34.10540926 6.78918149 31 8 C30.505 6.515 30.505 6.515 30 5 C25.71 4.67 21.42 4.34 17 4 C17 7.3 17 10.6 17 14 C22.58500567 13.80101292 22.58500567 13.80101292 27 11 C27 13.64 27 16.28 27 19 C26.505 18.01 26.505 18.01 26 17 C23.03 17 20.06 17 17 17 C17 20.63 17 24.26 17 28 C19.27156921 27.93998496 21.54239274 27.85120032 23.8125 27.75 C25.07707031 27.70359375 26.34164062 27.6571875 27.64453125 27.609375 C31.07152839 27.32743779 31.07152839 27.32743779 32.94921875 24.953125 C33.46935547 23.98632812 33.46935547 23.98632812 34 23 C34 25.97 34 28.94 34 32 C26.08 32 18.16 32 10 32 C10 31.34 10 30.68 10 30 C10.66 30 11.32 30 12 30 C12 21.09 12 12.18 12 3 C9.83333333 3.83333333 9.83333333 3.83333333 9 6 C7.68 6 6.36 6 5 6 C2.36 14.25 -0.28 22.5 -3 31 C-4.65 31.33 -6.3 31.66 -8 32 C-8.21914063 31.2471875 -8.43828125 30.494375 -8.6640625 29.71875 C-13.01670878 15.05114066 -13.01670878 15.05114066 -19 1 C-16.69 1 -14.38 1 -12 1 C-11.66226562 2.15757813 -11.32453125 3.31515625 -10.9765625 4.5078125 C-10.52610017 6.04689212 -10.07557606 7.58595367 -9.625 9.125 C-9.40328125 9.88554688 -9.1815625 10.64609375 -8.953125 11.4296875 C-8.62441406 12.55117187 -8.62441406 12.55117187 -8.2890625 13.6953125 C-7.99056396 14.7164917 -7.99056396 14.7164917 -7.68603516 15.75830078 C-6.84047594 18.52126331 -5.91372492 21.25882524 -5 24 C-2.69 16.74 -0.38 9.48 2 2 C1.34 2 0.68 2 0 2 C0 1.34 0 0.68 0 0 Z " fill="#BDBCBD" transform="translate(269,78)"/>
<path d="M0 0 C0.96808594 -0.01417969 1.93617188 -0.02835937 2.93359375 -0.04296875 C5.5625 0.1875 5.5625 0.1875 8.5625 2.1875 C9.2225 2.1875 9.8825 2.1875 10.5625 2.1875 C10.5625 1.5275 10.5625 0.8675 10.5625 0.1875 C13.8625 0.1875 17.1625 0.1875 20.5625 0.1875 C20.5625 0.8475 20.5625 1.5075 20.5625 2.1875 C19.9025 2.1875 19.2425 2.1875 18.5625 2.1875 C18.5625 11.7575 18.5625 21.3275 18.5625 31.1875 C19.2225 31.5175 19.8825 31.8475 20.5625 32.1875 C19.94761719 32.24808594 19.33273437 32.30867188 18.69921875 32.37109375 C17.89097656 32.45488281 17.08273437 32.53867188 16.25 32.625 C15.44949219 32.70621094 14.64898437 32.78742188 13.82421875 32.87109375 C11.40162821 33.14015693 11.40162821 33.14015693 8.5625 34.1875 C8.2325 33.1975 7.9025 32.2075 7.5625 31.1875 C6.77875 31.3525 5.995 31.5175 5.1875 31.6875 C-6.98439739 33.3663824 -6.98439739 33.3663824 -12.4375 30.1875 C-12.4375 27.5475 -12.4375 24.9075 -12.4375 22.1875 C-11.7775 22.1875 -11.1175 22.1875 -10.4375 22.1875 C-10.1075 23.8375 -9.7775 25.4875 -9.4375 27.1875 C-5.90755387 28.36414871 -3.14294587 28.38600603 0.5625 28.1875 C1.5525 27.5275 2.5425 26.8675 3.5625 26.1875 C3.8127157 23.10384129 3.8127157 23.10384129 3.5625 20.1875 C2.65886719 19.94515625 1.75523437 19.7028125 0.82421875 19.453125 C-0.94501953 18.95039062 -0.94501953 18.95039062 -2.75 18.4375 C-3.92175781 18.11265625 -5.09351563 17.7878125 -6.30078125 17.453125 C-9.62731282 16.11091301 -10.76652262 15.30665778 -12.4375 12.1875 C-12.9375 8.6875 -12.9375 8.6875 -12.4375 5.1875 C-8.40793964 1.15793964 -5.57644645 0.0370282 0 0 Z " fill="#F5F4F5" transform="translate(346.4375,77.8125)"/>
<path d="M0 0 C6.4856435 -0.37990617 6.4856435 -0.37990617 8.75683594 1.29760742 C9.16192383 1.89420166 9.56701172 2.4907959 9.984375 3.10546875 C10.44457031 3.75966797 10.90476563 4.41386719 11.37890625 5.08789062 C12.05759766 6.12719727 12.05759766 6.12719727 12.75 7.1875 C13.21792969 7.86103516 13.68585938 8.53457031 14.16796875 9.22851562 C16.58482006 12.73740032 18.85491826 16.31760969 21 20 C21.02689449 17.04160645 21.04678741 14.08345573 21.0625 11.125 C21.07087891 10.28324219 21.07925781 9.44148438 21.08789062 8.57421875 C21.09111328 7.76855469 21.09433594 6.96289062 21.09765625 6.1328125 C21.10289307 5.38918457 21.10812988 4.64555664 21.11352539 3.87939453 C21.11786636 1.90867432 21.11786636 1.90867432 20 0 C21.98 0 23.96 0 26 0 C25.67 10.23 25.34 20.46 25 31 C20.27677227 29.81919307 19.92323562 29.00488132 17.328125 25.08984375 C16.66425781 24.10048828 16.00039062 23.11113281 15.31640625 22.09179688 C14.29353516 20.53041992 14.29353516 20.53041992 13.25 18.9375 C12.55261719 17.89271484 11.85523438 16.84792969 11.13671875 15.77148438 C9.41413527 13.18760915 7.70251397 10.59712493 6 8 C5.94210994 11.45826342 5.90644179 14.91640293 5.875 18.375 C5.85824219 19.35984375 5.84148437 20.3446875 5.82421875 21.359375 C5.81777344 22.30039063 5.81132812 23.24140625 5.8046875 24.2109375 C5.79421387 25.08024902 5.78374023 25.94956055 5.77294922 26.84521484 C5.79404891 29.21345939 5.79404891 29.21345939 8 31 C5.03 31 2.06 31 -1 31 C-0.67 30.34 -0.34 29.68 0 29 C0.08559118 26.82175039 0.10713412 24.64084745 0.09765625 22.4609375 C0.09443359 21.15898438 0.09121094 19.85703125 0.08789062 18.515625 C0.07953466 17.13541601 0.07106971 15.75520768 0.0625 14.375 C0.05748501 12.98698074 0.0529221 11.59895978 0.04882812 10.2109375 C0.03700976 6.80724868 0.02053434 3.40364561 0 0 Z " fill="#2B2A2A" transform="translate(206,79)"/>
<path d="M0 0 C0.99 0 1.98 0 3 0 C3.09279212 10.83127094 3.16381185 21.66244688 3.20724869 32.49403477 C3.22809913 37.52391694 3.25637038 42.5535266 3.30175781 47.58325195 C3.34530618 52.43971869 3.36915624 57.29592376 3.37950897 62.15257072 C3.3868842 64.00289973 3.4012864 65.85321485 3.42292023 67.70343208 C3.45207403 70.30072801 3.45595105 72.89695082 3.45410156 75.49438477 C3.47567322 76.63482742 3.47567322 76.63482742 3.49768066 77.79830933 C3.45566683 83.2722277 2.02826769 86.44074768 -1 91 C-2.32 90.34 -3.64 89.68 -5 89 C-4.67 88.01 -4.34 87.02 -4 86 C-3.34 86 -2.68 86 -2 86 C-2 60.26 -2 34.52 -2 8 C-1.67 8 -1.34 8 -1 8 C-0.67 5.36 -0.34 2.72 0 0 Z " fill="#EF1B26" transform="translate(73,64)"/>
<path d="M0 0 C2.91765891 -0.10806144 5.83131125 -0.18732877 8.75 -0.25 C9.9875 -0.30027344 9.9875 -0.30027344 11.25 -0.3515625 C17.36197167 -0.45014269 17.36197167 -0.45014269 20.546875 1.796875 C22.67854428 5.02876068 22.54033891 7.21762765 22 11 C20.1875 13.4375 20.1875 13.4375 18 15 C17.01 15 16.02 15 15 15 C17.66005249 20.10730078 20.71258371 24.15781169 24.609375 28.3984375 C26 30 26 30 26 31 C22.83984375 31.4609375 22.83984375 31.4609375 19 31 C16.65639066 28.8746643 15.16579424 26.33256623 13.5625 23.625 C13.11712891 22.92632812 12.67175781 22.22765625 12.21289062 21.5078125 C9 16.37508401 9 16.37508401 9 14 C12.465 13.505 12.465 13.505 16 13 C16.020625 11.700625 16.04125 10.40125 16.0625 9.0625 C16.07410156 8.33160156 16.08570313 7.60070313 16.09765625 6.84765625 C16.20561184 4.98267859 16.20561184 4.98267859 15 4 C12.69 3.67 10.38 3.34 8 3 C8 11.91 8 20.82 8 30 C8.66 30.33 9.32 30.66 10 31 C6.7 31 3.4 31 0 31 C0.66 30.34 1.32 29.68 2 29 C2.37268887 26.08811755 2.37268887 26.08811755 2.4140625 22.6796875 C2.45273437 21.42285156 2.49140625 20.16601562 2.53125 18.87109375 C2.5621875 17.55238281 2.593125 16.23367187 2.625 14.875 C2.66318029 13.53513082 2.70223206 12.19528617 2.7421875 10.85546875 C2.8367203 7.57045381 2.92227156 4.28544862 3 1 C2.01 0.67 1.02 0.34 0 0 Z " fill="#2D2C2C" transform="translate(306,33)"/>
<path d="M0 0 C3.51774886 2.29246555 5.00363866 4.26933912 6.25 8.375 C6.86873243 14.00546513 7.05118314 18.71328681 4.5625 23.875 C3.799375 24.7 3.03625 25.525 2.25 26.375 C1.59 27.15875 0.93 27.9425 0.25 28.75 C-4.57208187 31.36196102 -9.39884274 31.22851329 -14.75 30.375 C-19.32475006 27.20068363 -22.09846196 22.82163621 -23.140625 17.30859375 C-23.58254571 11.53349359 -21.8820667 7.85784361 -18.45703125 3.26171875 C-13.40989989 -2.31668959 -6.66267064 -3.35237533 0 0 Z M-16.75 6.375 C-18.60766608 10.09033216 -18.19845555 14.32071942 -17.75 18.375 C-16.2660548 22.40809859 -14.37125446 24.96083036 -10.75 27.375 C-7.30341303 27.74962902 -5.19392615 27.56669538 -2 26.1875 C1.26711579 23.55565672 2.0086811 21.38351578 2.50390625 17.26171875 C2.78818364 11.80542694 1.97296044 8.61503828 -1.75 4.375 C-7.18714409 0.387761 -12.21537976 1.96994034 -16.75 6.375 Z " fill="#353434" transform="translate(297.75,33.625)"/>
<path d="M0 0 C1.98 0 3.96 0 6 0 C5.98952637 0.67579102 5.97905273 1.35158203 5.96826172 2.04785156 C5.92664024 5.11519642 5.90065427 8.18248178 5.875 11.25 C5.85824219 12.31347656 5.84148437 13.37695312 5.82421875 14.47265625 C5.81777344 15.49746094 5.81132812 16.52226563 5.8046875 17.578125 C5.79421387 18.52075195 5.78374023 19.46337891 5.77294922 20.43457031 C6.00880787 23.09951941 6.64338341 24.71863092 8 27 C11.41656024 27.16677282 11.41656024 27.16677282 15 27 C17.25615026 25.17108623 17.25615026 25.17108623 17.22705078 22.47802734 C17.21657715 21.4411377 17.20610352 20.40424805 17.1953125 19.3359375 C17.18886719 18.21445313 17.18242187 17.09296875 17.17578125 15.9375 C17.15902344 14.761875 17.14226562 13.58625 17.125 12.375 C17.11597656 11.19164063 17.10695312 10.00828125 17.09765625 8.7890625 C17.07402812 5.85917477 17.04108514 2.9296866 17 0 C19.31 0 21.62 0 24 0 C23.94805836 4.06353744 23.85296244 8.12496032 23.75 12.1875 C23.72873047 13.91323242 23.72873047 13.91323242 23.70703125 15.67382812 C23.67480469 16.78564453 23.64257812 17.89746094 23.609375 19.04296875 C23.5779541 20.57473755 23.5779541 20.57473755 23.54589844 22.13745117 C22.86727282 25.69598667 21.47575692 27.40172961 19 30 C15.04352612 31.97823694 10.3017582 31.56487734 6 31 C2.58688333 28.47429367 1.33362232 27.00086696 0 23 C-0.08209792 21.22686149 -0.10746294 19.45079225 -0.09765625 17.67578125 C-0.09443359 16.64775391 -0.09121094 15.61972656 -0.08789062 14.56054688 C-0.07951172 13.48869141 -0.07113281 12.41683594 -0.0625 11.3125 C-0.05798828 10.22904297 -0.05347656 9.14558594 -0.04882812 8.02929688 C-0.03703743 5.35280915 -0.02058063 2.67643223 0 0 Z " fill="#333031" transform="translate(176,79)"/>
<path d="M0 0 C6.93 0 13.86 0 21 0 C21 1.98 21 3.96 21 6 C20.34 5.34 19.68 4.68 19 4 C15.87803664 3.53513282 15.87803664 3.53513282 12.375 3.375 C11.18648438 3.30023438 9.99796875 3.22546875 8.7734375 3.1484375 C7.85820312 3.09945312 6.94296875 3.05046875 6 3 C6 6.3 6 9.6 6 13 C11.58500567 12.80101292 11.58500567 12.80101292 16 10 C16 12.64 16 15.28 16 18 C15.67 17.34 15.34 16.68 15 16 C12.03 16 9.06 16 6 16 C6 19.63 6 23.26 6 27 C8.27156921 26.93998496 10.54239274 26.85120032 12.8125 26.75 C14.07707031 26.70359375 15.34164063 26.6571875 16.64453125 26.609375 C20.07152839 26.32743779 20.07152839 26.32743779 21.94921875 23.953125 C22.29597656 23.30859375 22.64273437 22.6640625 23 22 C23 24.97 23 27.94 23 31 C15.08 31 7.16 31 -1 31 C-1 30.34 -1 29.68 -1 29 C-0.34 29 0.32 29 1 29 C0.67 19.43 0.34 9.86 0 0 Z " fill="#323031" transform="translate(280,79)"/>
<path d="M0 0 C2.75105422 -0.10812003 5.49785087 -0.18734945 8.25 -0.25 C9.02730469 -0.28351563 9.80460937 -0.31703125 10.60546875 -0.3515625 C16.38167612 -0.45030109 16.38167612 -0.45030109 19.515625 1.83203125 C21.55382029 4.8088691 21.57818809 6.45859793 21 10 C19.1875 12.875 19.1875 12.875 17 15 C16.01 15 15.02 15 14 15 C15.07955259 16.73152958 16.16382512 18.46011684 17.25 20.1875 C17.85328125 21.15042969 18.4565625 22.11335938 19.078125 23.10546875 C20.91637545 25.87405327 22.88425949 28.43957951 25 31 C21.83984375 31.4609375 21.83984375 31.4609375 18 31 C15.65639066 28.8746643 14.16579424 26.33256623 12.5625 23.625 C12.11712891 22.92632812 11.67175781 22.22765625 11.21289062 21.5078125 C8 16.37508401 8 16.37508401 8 14 C8.969375 13.690625 9.93875 13.38125 10.9375 13.0625 C13.84065792 12.30476658 13.84065792 12.30476658 15 11 C15.16666667 8 15.16666667 8 15 5 C13.28373595 3.07908908 13.28373595 3.07908908 6 3 C6 11.91 6 20.82 6 30 C4.68 30 3.36 30 2 30 C2 20.43 2 10.86 2 1 C1.34 0.67 0.68 0.34 0 0 Z " fill="#2D2B2C" transform="translate(307,79)"/>
<path d="M0 0 C1.98 0 3.96 0 6 0 C7.08492629 2.77021909 8.16822466 5.54105022 9.25 8.3125 C9.5699292 9.13105469 9.8898584 9.94960938 10.21948242 10.79296875 C12.31284071 16.17028616 14.31288462 21.56900106 16.17578125 27.03125 C16.93051253 29.18330392 16.93051253 29.18330392 19 31 C15.7 31 12.4 31 9 31 C9.66 30.67 10.32 30.34 11 30 C9.515 25.05 9.515 25.05 8 20 C5.03 20 2.06 20 -1 20 C-1.99 23.3 -2.98 26.6 -4 30 C-3.34 30.33 -2.68 30.66 -2 31 C-4.64 31 -7.28 31 -10 31 C-9.34 30.67 -8.68 30.34 -8 30 C-7.25914012 28.16394365 -7.25914012 28.16394365 -6.6875 25.875 C-5.77290425 22.60791313 -4.80637957 19.38065979 -3.6953125 16.17578125 C-3.46755127 15.51658691 -3.23979004 14.85739258 -3.00512695 14.17822266 C-2.33661865 12.25682093 -1.66255289 10.33735556 -0.98828125 8.41796875 C-0.10814369 5.37401474 0.2207236 3.13188892 0 0 Z " fill="#323031" transform="translate(207,33)"/>
<path d="M0 0 C0.99 0 1.98 0 3 0 C3 0.99 3 1.98 3 3 C1.68 3.33 0.36 3.66 -1 4 C-1 4.99558426 -1 5.99116852 -1 7.016922 C-1 33.677948 -1 60.338974 -1 87 C-0.73039044 89.25227676 -0.42910362 91.49876246 -0.12109375 93.74609375 C0.00340247 96.06332988 -0.32150093 97.79362155 -1 100 C-2.32 100 -3.64 100 -5 100 C-5.12536265 92.47824107 -5.12536265 92.47824107 -4.50141239 90.09795761 C-3.68665142 86.68891942 -3.87041564 83.22910799 -3.88647461 79.74316406 C-3.88632858 78.91352646 -3.88618256 78.08388885 -3.8860321 77.22911072 C-3.88672788 74.4912554 -3.89450461 71.75346841 -3.90234375 69.015625 C-3.90420912 67.11562131 -3.90563246 65.21561714 -3.90663147 63.31561279 C-3.91044727 58.31791859 -3.92026959 53.32025351 -3.93133545 48.3225708 C-3.94156969 43.22156162 -3.94613341 38.12054774 -3.95117188 33.01953125 C-3.96189268 23.01300805 -3.97895788 13.00650645 -4 3 C-2.68 3 -1.36 3 0 3 C0 2.01 0 1.02 0 0 Z " fill="#EF1A22" transform="translate(119,60)"/>
<path d="M0 0 C0.9796875 -0.01417969 1.959375 -0.02835937 2.96875 -0.04296875 C5.5 0.1875 5.5 0.1875 7.5 2.1875 C7.625 5.8125 7.625 5.8125 7.5 9.1875 C6 7.8125 6 7.8125 4.5 6.1875 C4.5 5.5275 4.5 4.8675 4.5 4.1875 C2.87581255 4.10659029 1.25048255 4.04835005 -0.375 4 C-1.27992188 3.96519531 -2.18484375 3.93039063 -3.1171875 3.89453125 C-3.90351563 3.99121094 -4.68984375 4.08789062 -5.5 4.1875 C-7.86980013 7.14127498 -7.86980013 7.14127498 -7.5 11.1875 C-6.42878906 11.52523437 -5.35757812 11.86296875 -4.25390625 12.2109375 C-2.85664325 12.66106249 -1.45951469 13.11160496 -0.0625 13.5625 C0.64455078 13.78421875 1.35160156 14.0059375 2.08007812 14.234375 C3.9062189 14.82852606 5.70577032 15.50299619 7.5 16.1875 C9.22515631 19.63781261 8.99677924 23.41466304 8.5 27.1875 C6.30168636 30.21965675 5.05036806 31.00404398 1.5 32.1875 C-0.14279217 32.30542999 -1.79052694 32.36261674 -3.4375 32.375 C-4.29214844 32.38917969 -5.14679688 32.40335938 -6.02734375 32.41796875 C-8.63909303 32.17453556 -10.25500652 31.5053268 -12.5 30.1875 C-12.5 27.5475 -12.5 24.9075 -12.5 22.1875 C-11.84 22.1875 -11.18 22.1875 -10.5 22.1875 C-10.17 23.8375 -9.84 25.4875 -9.5 27.1875 C-5.97005387 28.36414871 -3.20544587 28.38600603 0.5 28.1875 C1.49 27.5275 2.48 26.8675 3.5 26.1875 C3.7502157 23.10384129 3.7502157 23.10384129 3.5 20.1875 C2.59636719 19.94515625 1.69273437 19.7028125 0.76171875 19.453125 C-1.00751953 18.95039062 -1.00751953 18.95039062 -2.8125 18.4375 C-3.98425781 18.11265625 -5.15601563 17.7878125 -6.36328125 17.453125 C-9.68981282 16.11091301 -10.82902262 15.30665778 -12.5 12.1875 C-13 8.6875 -13 8.6875 -12.5 5.1875 C-8.44729243 1.13479243 -5.60763033 0.0368923 0 0 Z " fill="#2E2C2D" transform="translate(346.5,77.8125)"/>
<path d="M0 0 C0.78246094 -0.01417969 1.56492187 -0.02835938 2.37109375 -0.04296875 C4.5625 0.1875 4.5625 0.1875 7.5625 2.1875 C7.75 5.8125 7.75 5.8125 7.5625 9.1875 C7.33433594 8.54683594 7.10617187 7.90617187 6.87109375 7.24609375 C5.73697777 4.97352889 5.73697777 4.97352889 3.28515625 4.47265625 C2.40730469 4.39917969 1.52945312 4.32570313 0.625 4.25 C-0.25027344 4.15847656 -1.12554687 4.06695312 -2.02734375 3.97265625 C-4.47062051 3.99195768 -4.47062051 3.99195768 -6.25390625 5.43359375 C-7.81041849 7.38745667 -7.81041849 7.38745667 -7.4375 11.1875 C-4.42591292 12.50506935 -1.58457308 13.37008379 1.625 14 C4.64356042 14.74320616 5.65358229 15.26525317 8.125 17.375 C10.0787818 21.19761656 9.80119219 23.10710221 8.5625 27.1875 C6.8125 30.125 6.8125 30.125 3.5625 32.1875 C-7.1316896 33.3404052 -7.1316896 33.3404052 -11.4375 31.1875 C-11.4375 28.5475 -11.4375 25.9075 -11.4375 23.1875 C-10.798125 24.0125 -10.15875 24.8375 -9.5 25.6875 C-5.77650993 28.72708373 -3.95077317 28.65992567 0.671875 28.4609375 C2.5706446 28.37889241 2.5706446 28.37889241 3.5625 27.1875 C3.93010731 24.85932036 4.26491581 22.5256615 4.5625 20.1875 C3.75425781 20.01734375 2.94601562 19.8471875 2.11328125 19.671875 C-9.43017697 17.05405818 -9.43017697 17.05405818 -12.4375 13.1875 C-13.125 9.75 -13.125 9.75 -12.4375 6.1875 C-8.98243344 2.08132668 -5.29241089 0.04345165 0 0 Z " fill="#302F30" transform="translate(356.4375,31.8125)"/>
<path d="M0 0 C4.29 0 8.58 0 13 0 C13.20897883 12.34380918 13.36867171 24.68719427 13.46630955 37.03241539 C13.51318337 42.76557488 13.57671033 48.4975199 13.67895508 54.22998047 C13.77709673 59.7673591 13.83063134 65.30357338 13.85389519 70.84175491 C13.87046266 72.94931993 13.90281691 75.05682466 13.95157051 77.16389084 C14.36410005 95.73990988 14.36410005 95.73990988 8.69506836 102.12353516 C7.16775635 103.46005256 5.60385055 104.75636655 4 106 C2.68 107.32 1.36 108.64 0 110 C0 73.7 0 37.4 0 0 Z M1 2 C1 35.33 1 68.66 1 103 C2.32 103 3.64 103 5 103 C5.0825 102.38125 5.165 101.7625 5.25 101.125 C6 99 6 99 8.0625 97.75 C8.701875 97.5025 9.34125 97.255 10 97 C10 96.34 10 95.68 10 95 C10.66 95 11.32 95 12 95 C12 64.31 12 33.62 12 2 C8.37 2 4.74 2 1 2 Z " fill="#C13440" transform="translate(113,57)"/>
<path d="M0 0 C0.99 0 1.98 0 3 0 C3 28.71 3 57.42 3 87 C1.68 86.67 0.36 86.34 -1 86 C-0.67 57.62 -0.34 29.24 0 0 Z " fill="#E81B1D" transform="translate(121,64)"/>
<path d="M0 0 C4.29 0 8.58 0 13 0 C13 36.3 13 72.6 13 110 C11.68 108.68 10.36 107.36 9 106 C10.485 105.505 10.485 105.505 12 105 C12 71.01 12 37.02 12 2 C8.37 2 4.74 2 1 2 C1.08437018 13.90906567 1.17924081 25.81799691 1.28752708 37.72687054 C1.3374783 43.25660886 1.3838086 48.78632819 1.421875 54.31616211 C1.45874242 59.65249633 1.50510662 64.98867119 1.55806351 70.32486916 C1.57659965 72.36099261 1.59171049 74.39715022 1.60334396 76.43332481 C1.62021956 79.28473616 1.64925815 82.13578314 1.68115234 84.98706055 C1.68331253 85.82935211 1.68547272 86.67164368 1.68769836 87.53945923 C1.74866368 91.80447416 2.03120446 95.10952146 4 99 C2.02838135 98.07206726 2.02838135 98.07206726 0 96 C-0.61923014 92.9616 -0.50421604 89.93749231 -0.45410156 86.84692383 C-0.45468567 85.91014297 -0.45526978 84.97336212 -0.45587158 84.00819397 C-0.4530817 80.90743129 -0.42194666 77.80762628 -0.390625 74.70703125 C-0.38316584 72.55898056 -0.37747137 70.41092308 -0.37347412 68.26286316 C-0.35819232 62.60573581 -0.31888827 56.94901844 -0.2746582 51.29205322 C-0.23376056 45.52093045 -0.21547487 39.74974151 -0.1953125 33.97851562 C-0.15239672 22.6521635 -0.08411438 11.32611582 0 0 Z " fill="#C13540" transform="translate(66,57)"/>
<path d="M0 0 C7.59 0 15.18 0 23 0 C23.33 2.64 23.66 5.28 24 8 C23.34 8 22.68 8 22 8 C21.79375 7.360625 21.5875 6.72125 21.375 6.0625 C20.694375 5.0415625 20.694375 5.0415625 20 4 C17.03 3.505 17.03 3.505 14 3 C14 11.91 14 20.82 14 30 C14.99 30.33 15.98 30.66 17 31 C13.37 31 9.74 31 6 31 C6.66 30.34 7.32 29.68 8 29 C8.37207354 26.28384136 8.37207354 26.28384136 8.4140625 23.1171875 C8.47207031 21.36728516 8.47207031 21.36728516 8.53125 19.58203125 C8.5621875 18.35871094 8.593125 17.13539062 8.625 15.875 C8.66367188 14.64394531 8.70234375 13.41289063 8.7421875 12.14453125 C8.8366999 9.09650624 8.92225494 6.04849138 9 3 C6.69 3 4.38 3 2 3 C1.67 4.65 1.34 6.3 1 8 C0.34 8 -0.32 8 -1 8 C-0.67 5.36 -0.34 2.72 0 0 Z " fill="#1F1D1E" transform="translate(175,33)"/>
<path d="M0 0 C3.3 0 6.6 0 10 0 C9.01 0.495 9.01 0.495 8 1 C8 9.58 8 18.16 8 27 C11.96 26.67 15.92 26.34 20 26 C20.66 24.68 21.32 23.36 22 22 C22.33 22 22.66 22 23 22 C23.09765625 28.15234375 23.09765625 28.15234375 23 30 C22 31 22 31 19.86694336 31.11352539 C18.95050049 31.10828857 18.03405762 31.10305176 17.08984375 31.09765625 C16.10048828 31.09443359 15.11113281 31.09121094 14.09179688 31.08789062 C13.05087891 31.07951172 12.00996094 31.07113281 10.9375 31.0625 C9.89271484 31.05798828 8.84792969 31.05347656 7.77148438 31.04882812 C5.1809334 31.03699913 2.59049441 31.02051689 0 31 C0.33 30.34 0.66 29.68 1 29 C1.66 29 2.32 29 3 29 C3 19.76 3 10.52 3 1 C2.01 0.67 1.02 0.34 0 0 Z " fill="#222121" transform="translate(250,33)"/>
<path d="M0 0 C7.59 0 15.18 0 23 0 C23.33 2.64 23.66 5.28 24 8 C23.34 8 22.68 8 22 8 C21.67 6.68 21.34 5.36 21 4 C18.69 3.67 16.38 3.34 14 3 C14.13837796 7.29194146 14.28695939 11.58346929 14.4375 15.875 C14.47681641 17.09832031 14.51613281 18.32164063 14.55664062 19.58203125 C14.61948242 21.33193359 14.61948242 21.33193359 14.68359375 23.1171875 C14.72025146 24.19597168 14.75690918 25.27475586 14.79467773 26.38623047 C14.83376643 28.98069536 14.83376643 28.98069536 16 31 C13.03 31 10.06 31 7 31 C7 30.34 7 29.68 7 29 C7.66 29 8.32 29 9 29 C9 20.42 9 11.84 9 3 C6.69 3 4.38 3 2 3 C1.67 4.65 1.34 6.3 1 8 C0.67 8 0.34 8 0 8 C0 5.36 0 2.72 0 0 Z " fill="#282627" transform="translate(369,79)"/>
<path d="M0 0 C2.31 0 4.62 0 7 0 C7.33773438 1.15757813 7.67546875 2.31515625 8.0234375 3.5078125 C8.47389983 5.04689212 8.92442394 6.58595367 9.375 8.125 C9.59671875 8.88554688 9.8184375 9.64609375 10.046875 10.4296875 C11.28382784 14.64987953 12.57708693 18.83764682 14 23 C15.0094696 19.91968584 16.00589621 16.8353041 17 13.75 C17.42925781 12.44095703 17.42925781 12.44095703 17.8671875 11.10546875 C18.27324219 9.83896484 18.27324219 9.83896484 18.6875 8.546875 C18.93886719 7.77182617 19.19023437 6.99677734 19.44921875 6.19824219 C20.16202838 3.73102168 20.16202838 3.73102168 20 0 C21.98 0 23.96 0 26 0 C22.7 9.9 19.4 19.8 16 30 C14.35 30.33 12.7 30.66 11 31 C10.78085937 30.2471875 10.56171875 29.494375 10.3359375 28.71875 C5.98329122 14.05114066 5.98329122 14.05114066 0 0 Z " fill="#2F2D2E" transform="translate(250,79)"/>
<path d="M0 0 C2.31 0 4.62 0 7 0 C7.65134925 1.56020867 8.29582964 3.12328579 8.9375 4.6875 C9.29714844 5.55761719 9.65679687 6.42773438 10.02734375 7.32421875 C10.9570312 9.88179265 11.54162625 12.3221323 12 15 C12.66 15 13.32 15 14 15 C15.75734451 10.02638346 17.32584613 5.2584002 18 0 C19.98 0 21.96 0 24 0 C23.43410156 1.08796875 22.86820312 2.1759375 22.28515625 3.296875 C17.95731252 11.87527953 14.69653136 19.15623587 15 29 C15.66 29 16.32 29 17 29 C17 29.66 17 30.32 17 31 C13.7 31 10.4 31 7 31 C7.33 30.34 7.66 29.68 8 29 C8.66 29 9.32 29 10 29 C10.47292405 19.01184398 6.97055186 12.42891542 1.93359375 4.17578125 C0 1 0 1 0 0 Z " fill="#2A2929" transform="translate(396,79)"/>
<path d="M0 0 C3.63 0 7.26 0 11 0 C11 30.69 11 61.38 11 93 C10.67 93 10.34 93 10 93 C10 63.96 10 34.92 10 5 C9.34 5 8.68 5 8 5 C8 3.68 8 2.36 8 1 C7.01 1 6.02 1 5 1 C5 1.99 5 2.98 5 4 C3.68 4 2.36 4 1 4 C1.33 33.04 1.66 62.08 2 92 C1.01 92.495 1.01 92.495 0 93 C0 62.31 0 31.62 0 0 Z " fill="#DF232D" transform="translate(114,59)"/>
<path d="M0 0 C2.97 0 5.94 0 9 0 C8.01 0.495 8.01 0.495 7 1 C8.98 5.29 10.96 9.58 13 14 C15.31954564 10.90727248 16.71720383 8.69759103 18.1875 5.25 C18.53167969 4.45078125 18.87585938 3.6515625 19.23046875 2.828125 C19.61138672 1.92320313 19.61138672 1.92320313 20 1 C19.34 0.67 18.68 0.34 18 0 C20.31 0 22.62 0 25 0 C22 6 19 12 16 18 C15.87854007 19.83037287 15.82456815 21.66564133 15.8125 23.5 C15.79123047 24.96953125 15.79123047 24.96953125 15.76953125 26.46875 C15.74319966 29.169918 15.74319966 29.169918 18 31 C14.7 31 11.4 31 8 31 C8.66 30.34 9.32 29.68 10 29 C12.05305377 20.0641676 8.11329044 13.50355037 3.75 6.08984375 C2 3 2 3 2 1 C1.34 0.67 0.68 0.34 0 0 Z " fill="#2B292A" transform="translate(221,33)"/>
<path d="M0 0 C6.78222656 -0.15625 6.78222656 -0.15625 8.7421875 1.25 C11.7479556 5.89339348 12.70862407 9.46385733 13 15 C9.00003714 13.66667905 8.16217663 11.5042173 6 8 C5.94210994 11.45826342 5.90644179 14.91640293 5.875 18.375 C5.85824219 19.35984375 5.84148437 20.3446875 5.82421875 21.359375 C5.81777344 22.30039063 5.81132812 23.24140625 5.8046875 24.2109375 C5.79421387 25.08024902 5.78374023 25.94956055 5.77294922 26.84521484 C5.79404891 29.21345939 5.79404891 29.21345939 8 31 C5.03 31 2.06 31 -1 31 C-0.67 30.34 -0.34 29.68 0 29 C0.08559118 26.82175039 0.10713412 24.64084745 0.09765625 22.4609375 C0.09443359 21.15898438 0.09121094 19.85703125 0.08789062 18.515625 C0.07953466 17.13541601 0.07106971 15.75520768 0.0625 14.375 C0.05748501 12.98698074 0.0529221 11.59895978 0.04882812 10.2109375 C0.03700976 6.80724868 0.02053434 3.40364561 0 0 Z " fill="#414041" transform="translate(206,79)"/>
<path d="M0 0 C2.67168202 1.03898745 3.95674479 1.95674479 6 4 C8.06874034 4.6425235 8.06874034 4.6425235 10 5 C9.34 6.32 8.68 7.64 8 9 C8.99 10.485 8.99 10.485 10 12 C9.625 14.6875 9.625 14.6875 9 17 C8.34 17 7.68 17 7 17 C6.319375 16.21625 5.63875 15.4325 4.9375 14.625 C1.56667396 11.61277247 -0.56908956 11.13176254 -4.9140625 10.45703125 C-7 10 -7 10 -10 8 C-9.6875 5.125 -9.6875 5.125 -9 2 C-5.51195905 -0.32536063 -4.09859246 -0.33457898 0 0 Z " fill="#EFEFEF" transform="translate(358,35)"/>
<path d="M0 0 C2.31 0 4.62 0 7 0 C6.67 9.57 6.34 19.14 6 29 C6.66 29 7.32 29 8 29 C8 29.66 8 30.32 8 31 C5.03 31 2.06 31 -1 31 C-1 30.34 -1 29.68 -1 29 C-0.34 29 0.32 29 1 29 C0.67 19.43 0.34 9.86 0 0 Z " fill="#302F30" transform="translate(238,79)"/>
<path d="M0 0 C2.44191222 0.62237643 4.55998716 1.24874358 6.8125 2.375 C6.9375 5.75 6.9375 5.75 6.8125 9.375 C4.41963116 11.76786884 3.71802906 11.69550616 0.4375 11.75 C-3.04092253 11.69398675 -3.90961316 11.59188729 -6.75 9.375 C-7.224375 8.715 -7.69875 8.055 -8.1875 7.375 C-8.5175 9.025 -8.8475 10.675 -9.1875 12.375 C-9.5175 12.375 -9.8475 12.375 -10.1875 12.375 C-10.78155941 5.36509901 -10.78155941 5.36509901 -8.3125 1.25 C-4.73048004 -0.89921197 -3.94767152 -0.75411381 0 0 Z " fill="#F6F5F5" transform="translate(354.1875,49.625)"/>
<path d="M0 0 C2 0 2 0 3.625 1.5 C4.07875 1.995 4.5325 2.49 5 3 C6.98 2.34 8.96 1.68 11 1 C11 1.66 11 2.32 11 3 C11.99 3 12.98 3 14 3 C14.33 3.99 14.66 4.98 15 6 C15.33 5.34 15.66 4.68 16 4 C16.66 4 17.32 4 18 4 C17.34 7.3 16.68 10.6 16 14 C15.01 14.33 14.02 14.66 13 15 C12.649375 14.525625 12.29875 14.05125 11.9375 13.5625 C9.11492366 11.28622876 6.55725845 11.25408989 3 11 C2.01 11.33 1.02 11.66 0 12 C0 8.04 0 4.08 0 0 Z " fill="#E9E9E9" transform="translate(302,140)"/>
<path d="M0 0 C0.61875 0.33 1.2375 0.66 1.875 1 C5.5672096 2.7375104 9.05044312 1.58511954 13 1 C13 4.3 13 7.6 13 11 C6.375 13.125 6.375 13.125 3 12 C2.67 11.34 2.34 10.68 2 10 C-0.01669827 8.86649466 -0.01669827 8.86649466 -2 8 C-2.125 5.125 -2.125 5.125 -2 2 C-1.34 1.34 -0.68 0.68 0 0 Z " fill="#E8E8E8" transform="translate(278,143)"/>
<path d="M0 0 C2.31 0 4.62 0 7 0 C6.91912143 4.08414438 6.80627597 8.16679586 6.6875 12.25 C6.65366211 13.98830078 6.65366211 13.98830078 6.61914062 15.76171875 C6.58369141 16.87675781 6.54824219 17.99179688 6.51171875 19.140625 C6.48553467 20.16704102 6.45935059 21.19345703 6.43237305 22.25097656 C5.95100114 25.31153427 5.04762948 26.72114809 3 29 C2.01 28.67 1.02 28.34 0 28 C0 18.76 0 9.52 0 0 Z " fill="#3B393A" transform="translate(193,79)"/>
<path d="M0 0 C1.65 0 3.3 0 5 0 C5 0.66 5 1.32 5 2 C6.6396875 1.4740625 6.6396875 1.4740625 8.3125 0.9375 C12 0 12 0 15 1 C15 2.32 15 3.64 15 5 C14.34 5 13.68 5 13 5 C13.33 6.98 13.66 8.96 14 11 C13.34 10.34 12.68 9.68 12 9 C11.34 9.66 10.68 10.32 10 11 C7.6171875 11.1953125 7.6171875 11.1953125 4.875 11.125 C2.461875 11.063125 2.461875 11.063125 0 11 C0 7.37 0 3.74 0 0 Z " fill="#F2F2F2" transform="translate(341,141)"/>
<path d="M0 0 C4.29 0 8.58 0 13 0 C14 4 14 4 14 7 C13.34 7 12.68 7 12 7 C11.67 9.97 11.34 12.94 11 16 C10.34 15.67 9.68 15.34 9 15 C9 13.02 9 11.04 9 9 C8.67 9.33 8.34 9.66 8 10 C5.32941149 10.14115161 2.67567762 10.04247107 0 10 C0 6.7 0 3.4 0 0 Z " fill="#EEEDED" transform="translate(286,82)"/>
<path d="M0 0 C3.3 0 6.6 0 10 0 C8.515 1.485 8.515 1.485 7 3 C6.49335383 5.90087655 6.49335383 5.90087655 6.48828125 9.19921875 C6.43510742 11.01196289 6.43510742 11.01196289 6.38085938 12.86132812 C6.35830078 14.12396484 6.33574219 15.38660156 6.3125 16.6875 C6.27833984 17.96173828 6.24417969 19.23597656 6.20898438 20.54882812 C6.12639216 23.69913103 6.05727665 26.84915157 6 30 C4.68 30 3.36 30 2 30 C2 20.43 2 10.86 2 1 C1.34 0.67 0.68 0.34 0 0 Z " fill="#212020" transform="translate(307,79)"/>
<path d="M0 0 C2.31 0 4.62 0 7 0 C6.01 0.495 6.01 0.495 5 1 C5 10.57 5 20.14 5 30 C3.68 30 2.36 30 1 30 C0.67 20.1 0.34 10.2 0 0 Z " fill="#211F20" transform="translate(359,79)"/>
<path d="M0 0 C8.968 -0.456 8.968 -0.456 13 3 C16.93745454 8.29519749 16.70446258 14.6598368 16 21 C15.34 21.99 14.68 22.98 14 24 C13.34 23.67 12.68 23.34 12 23 C11.63955967 20.02522663 11.5556949 17.0717502 11.44140625 14.078125 C10.82262807 9.76310548 9.45021441 7.09805909 5.95703125 4.453125 C4.89548828 3.85757813 4.89548828 3.85757813 3.8125 3.25 C2.53014858 2.51986838 1.25551191 1.77537553 0 1 C0 0.67 0 0.34 0 0 Z " fill="#2A2829" transform="translate(288,33)"/>
<path d="M0 0 C-1.80500162 9.93812655 -1.80500162 9.93812655 -5 13 C-5.66 13 -6.32 13 -7 13 C-7.33 12.34 -7.66 11.68 -8 11 C-8.99 12.32 -9.98 13.64 -11 15 C-12.48604701 13.01860399 -13.05190228 11.57564347 -12.828125 9.09375 C-12.10683768 5.76090513 -11.19825627 3.30105582 -9.3125 0.4375 C-5.98259284 -1.63244229 -3.70807449 -0.8557095 0 0 Z " fill="#F3F1F2" transform="translate(340,33)"/>
<path d="M0 0 C2.68673942 3.94970385 2.27357954 8.25512731 2.24291992 12.8359375 C2.24481827 13.72742493 2.24671661 14.61891235 2.24867249 15.53741455 C2.25237621 18.48336592 2.24168135 21.42907055 2.23046875 24.375 C2.22927656 26.42236299 2.22882387 28.46972653 2.2290802 30.51708984 C2.227516 34.80765203 2.21923133 39.0981307 2.20581055 43.38867188 C2.18882088 48.89006804 2.18499628 54.39137242 2.18575573 59.89279175 C2.18548387 64.12037025 2.1800001 68.34792867 2.17275429 72.57550049 C2.16957083 74.60410408 2.16760096 76.63270996 2.16686058 78.66131592 C2.16469362 81.49560426 2.15594156 84.3297951 2.14526367 87.1640625 C2.14571686 88.00366516 2.14617004 88.84326782 2.14663696 89.70831299 C2.12680514 93.30651318 1.9709417 96.53736981 1 100 C0.34 100 -0.32 100 -1 100 C-1.33 100.99 -1.66 101.98 -2 103 C-3.32 102.67 -4.64 102.34 -6 102 C-4.78290092 100.80870987 -4.78290092 100.80870987 -3.54121399 99.59335327 C-0.14188145 95.4821855 -0.28976809 91.66688322 -0.34057617 86.50634766 C-0.33009247 85.56912872 -0.31960876 84.63190979 -0.30880737 83.66629028 C-0.28010597 80.58187556 -0.2863433 77.49858658 -0.29296875 74.4140625 C-0.27985078 72.27027991 -0.26454626 70.12650968 -0.24714661 67.98275757 C-0.20729564 62.35045858 -0.19710604 56.71848292 -0.19311523 51.08605957 C-0.18378408 45.33461702 -0.14637055 39.58336445 -0.11132812 33.83203125 C-0.04675111 22.55469637 -0.01351188 11.27750359 0 0 Z " fill="#FDE3E5" transform="translate(126,57)"/>
<path d="M0 0 C0.99 0.33 1.98 0.66 3 1 C2.67 1.99 2.34 2.98 2 4 C3.32 4.66 4.64 5.32 6 6 C6.125 8.375 6.125 8.375 6 11 C5.34 11.66 4.68 12.32 4 13 C0.98694043 12.61121812 -0.39685311 11.73543126 -3 10 C-3.33 10.66 -3.66 11.32 -4 12 C-4.66 12 -5.32 12 -6 12 C-6 10.02 -6 8.04 -6 6 C-8.33075929 6.95865509 -8.33075929 6.95865509 -10 10 C-9.67 8.02 -9.34 6.04 -9 4 C-8.01 4 -7.02 4 -6 4 C-6 3.01 -6 2.02 -6 1 C-5.34 1 -4.68 1 -4 1 C-4 1.66 -4 2.32 -4 3 C-3.01 3 -2.02 3 -1 3 C-0.67 2.01 -0.34 1.02 0 0 Z " fill="#EDEDED" transform="translate(213,139)"/>
<path d="M0 0 C0.33 0 0.66 0 1 0 C1 32.34 1 64.68 1 98 C-4 97 -4 97 -5.8125 94.4375 C-6.204375 93.633125 -6.59625 92.82875 -7 92 C-5.68 92 -4.36 92 -3 92 C-2.67 92.99 -2.34 93.98 -2 95 C-1.34 95.33 -0.68 95.66 0 96 C0 64.32 0 32.64 0 0 Z " fill="#D5272E" transform="translate(77,64)"/>
<path d="M0 0 C1.62463842 -0.05395478 3.24978541 -0.09277195 4.875 -0.125 C5.77992188 -0.14820312 6.68484375 -0.17140625 7.6171875 -0.1953125 C10 0 10 0 12 2 C12.99 2.33 13.98 2.66 15 3 C15.66 2.01 16.32 1.02 17 0 C19.1640625 -0.29296875 19.1640625 -0.29296875 21.625 -0.1875 C22.44226563 -0.16042969 23.25953125 -0.13335937 24.1015625 -0.10546875 C25.04128906 -0.05326172 25.04128906 -0.05326172 26 0 C25.67 0.66 25.34 1.32 25 2 C23.35 2 21.7 2 20 2 C19.80664062 2.59167969 19.61328125 3.18335937 19.4140625 3.79296875 C18.05585281 7.9146645 16.67949415 11.9950524 15 16 C14.34 16 13.68 16 13 16 C12.15733289 14.25447527 11.32619962 12.5033792 10.5 10.75 C10.0359375 9.77546875 9.571875 8.8009375 9.09375 7.796875 C8 5 8 5 8 1 C5.36 1.33 2.72 1.66 0 2 C0 1.34 0 0.68 0 0 Z " fill="#E6E4E5" transform="translate(395,78)"/>
<path d="M0 0 C0.33 0 0.66 0 1 0 C1 35.97 1 71.94 1 109 C-0.32 107.68 -1.64 106.36 -3 105 C-1.515 104.505 -1.515 104.505 0 104 C0 69.68 0 35.36 0 0 Z " fill="#B6353A" transform="translate(78,58)"/>
<path d="M0 0 C1.98 0 3.96 0 6 0 C7.4606285 2.64738916 8 3.89448334 8 7 C7.01 7.495 7.01 7.495 6 8 C6.33 10.97 6.66 13.94 7 17 C4.36 17 1.72 17 -1 17 C-2.13566646 12.23020088 -1.64851481 9.55765859 0 5 C0.16857483 2.24934768 0.16857483 2.24934768 0 0 Z " fill="#393738" transform="translate(207,33)"/>
<path d="M0 0 C0.33 0 0.66 0 1 0 C1.13060994 13.4908311 1.26101327 26.98166418 1.39115143 40.47249985 C1.45158356 46.73655037 1.51208738 53.00060018 1.57275391 59.26464844 C1.6312767 65.30761812 1.68961264 71.35058957 1.74781799 77.39356232 C1.77007872 79.7012768 1.79240725 82.00899063 1.81480408 84.3167038 C1.84611554 87.54414198 1.8771879 90.77158239 1.90820312 93.99902344 C1.91755386 94.95711914 1.9269046 95.91521484 1.9365387 96.90234375 C1.94495285 97.78291443 1.953367 98.66348511 1.96203613 99.57073975 C1.96941048 100.33398434 1.97678482 101.09722893 1.98438263 101.88360214 C1.99942702 103.92235257 2 105.96119407 2 108 C1.01 108.495 1.01 108.495 0 109 C0 73.03 0 37.06 0 0 Z " fill="#B93439" transform="translate(113,58)"/>
<path d="M0 0 C2.97 0 5.94 0 9 0 C9 0.99 9 1.98 9 3 C8.01 3.33 7.02 3.66 6 4 C5.34 3.34 4.68 2.68 4 2 C3.34 1.67 2.68 1.34 2 1 C1.67 31.03 1.34 61.06 1 92 C0.67 92 0.34 92 0 92 C0 61.64 0 31.28 0 0 Z " fill="#E6222F" transform="translate(67,59)"/>
<path d="M0 0 C3.3 0 6.6 0 10 0 C9.67 0.66 9.34 1.32 9 2 C7.02 2 5.04 2 3 2 C3 11.57 3 21.14 3 31 C4.32 31 5.64 31 7 31 C7 21.43 7 11.86 7 2 C7.33 2 7.66 2 8 2 C8 11.57 8 21.14 8 31 C8.66 31.33 9.32 31.66 10 32 C7.03 32 4.06 32 1 32 C1.01160156 30.53046875 1.02320313 29.0609375 1.03515625 27.546875 C1.0445363 25.6145846 1.05363627 23.68229283 1.0625 21.75 C1.07087891 20.78191406 1.07925781 19.81382813 1.08789062 18.81640625 C1.09272461 17.41455078 1.09272461 17.41455078 1.09765625 15.984375 C1.10551147 14.69611816 1.10551147 14.69611816 1.11352539 13.38183594 C1.00390712 11.08197381 0.76717391 9.17048178 0 7 C-0.66 6.67 -1.32 6.34 -2 6 C-2.33 6.66 -2.66 7.32 -3 8 C-3 6.35 -3 4.7 -3 3 C-2.01 2.67 -1.02 2.34 0 2 C0 1.34 0 0.68 0 0 Z " fill="#B9B8B9" transform="translate(357,78)"/>
<path d="M0 0 C0.33 0 0.66 0 1 0 C1 8.91 1 17.82 1 27 C1.66 27.33 2.32 27.66 3 28 C-0.3 28 -3.6 28 -7 28 C-6.34 27.34 -5.68 26.68 -5 26 C-4.74866728 23.69516467 -4.5956254 21.37902537 -4.5 19.0625 C-4.2216097 12.33241455 -4.2216097 12.33241455 -2 9 C-1.67 9.33 -1.34 9.66 -1 10 C-0.67 6.7 -0.34 3.4 0 0 Z " fill="#464445" transform="translate(313,36)"/>
<path d="M0 0 C0.33 0 0.66 0 1 0 C1 28.71 1 57.42 1 87 C1.66 87 2.32 87 3 87 C3.33 88.32 3.66 89.64 4 91 C3.01 91 2.02 91 1 91 C0.01 87.7 -0.98 84.4 -2 81 C-1.505 80.505 -1.505 80.505 -1 80 C-0.87502385 77.50600935 -0.8139712 75.03831671 -0.79467773 72.54272461 C-0.78477814 71.76229294 -0.77487854 70.98186127 -0.76467896 70.17778015 C-0.73297225 67.58599937 -0.7082705 64.99420023 -0.68359375 62.40234375 C-0.66303213 60.61014822 -0.64203587 58.81795763 -0.62062073 57.02577209 C-0.56531824 52.2993468 -0.51594517 47.57287715 -0.46777344 42.84637451 C-0.41761795 38.02709995 -0.36190089 33.20789012 -0.30664062 28.38867188 C-0.19895911 18.92583649 -0.09753649 9.46294501 0 0 Z " fill="#F71A2D" transform="translate(118,64)"/>
<path d="M0 0 C0.66 0.33 1.32 0.66 2 1 C2 1.66 2 2.32 2 3 C2.66 2.34 3.32 1.68 4 1 C3.76964842 4.91597693 3.26938523 7.54781766 1.25 10.9375 C-3.83359924 14.16363029 -9.13136897 13.56044225 -15 13 C-15.66 12.67 -16.32 12.34 -17 12 C-17 9.36 -17 6.72 -17 4 C-16.0409375 5.2375 -16.0409375 5.2375 -15.0625 6.5 C-10.79667979 9.98230222 -8.38778609 9.40207359 -3 9 C-2.01 6.03 -1.02 3.06 0 0 Z " fill="#3A3A3A" transform="translate(362,51)"/>
<path d="M0 0 C1.65322266 0.01740234 1.65322266 0.01740234 3.33984375 0.03515625 C4.99693359 0.04869141 4.99693359 0.04869141 6.6875 0.0625 C7.54214844 0.07410156 8.39679688 0.08570313 9.27734375 0.09765625 C9.60734375 1.41765625 9.93734375 2.73765625 10.27734375 4.09765625 C8.95734375 4.09765625 7.63734375 4.09765625 6.27734375 4.09765625 C6.27734375 4.75765625 6.27734375 5.41765625 6.27734375 6.09765625 C7.59734375 6.09765625 8.91734375 6.09765625 10.27734375 6.09765625 C10.27734375 6.75765625 10.27734375 7.41765625 10.27734375 8.09765625 C8.13157738 8.12451563 5.9857173 8.14398713 3.83984375 8.16015625 C2.64488281 8.17175781 1.44992187 8.18335938 0.21875 8.1953125 C-2.72265625 8.09765625 -2.72265625 8.09765625 -3.72265625 7.09765625 C-3.84765625 4.09765625 -3.84765625 4.09765625 -3.72265625 1.09765625 C-2.72265625 0.09765625 -2.72265625 0.09765625 0 0 Z " fill="#EEEEEE" transform="translate(362.72265625,143.90234375)"/>
<path d="M0 0 C4.75 0.875 4.75 0.875 7 2 C5.45941767 7.01508715 3.97068161 11.6147081 1 16 C-1.8326134 14.5836933 -2.01707833 12.85502707 -3.125 9.9375 C-3.47820312 9.01839844 -3.83140625 8.09929688 -4.1953125 7.15234375 C-4.46085938 6.44207031 -4.72640625 5.73179688 -5 5 C-3.68 5 -2.36 5 -1 5 C-1.33 4.01 -1.66 3.02 -2 2 C-1.34 2 -0.68 2 0 2 C0 1.34 0 0.68 0 0 Z " fill="#F2F0F1" transform="translate(234,32)"/>
<path d="M0 0 C3.375 -0.125 3.375 -0.125 7 0 C9 2 9 2 9.3125 4.9375 C9 8 9 8 7.8125 9.875 C5.43963721 11.34781139 3.74086056 11.22223194 1 11 C0.67 11.66 0.34 12.32 0 13 C0 8.71 0 4.42 0 0 Z " fill="#F5F3F4" transform="translate(314,36)"/>
<path d="M0 0 C0.33 0 0.66 0 1 0 C1 8.58 1 17.16 1 26 C4.96 25.67 8.92 25.34 13 25 C13.66 23.68 14.32 22.36 15 21 C15.33 21 15.66 21 16 21 C16.09765625 27.15234375 16.09765625 27.15234375 16 29 C15 30 15 30 12.86694336 30.11352539 C11.95050049 30.10828857 11.03405762 30.10305176 10.08984375 30.09765625 C9.10048828 30.09443359 8.11113281 30.09121094 7.09179688 30.08789062 C6.05087891 30.07951172 5.00996094 30.07113281 3.9375 30.0625 C2.89271484 30.05798828 1.84792969 30.05347656 0.77148438 30.04882812 C-1.8190666 30.03699913 -4.40950559 30.02051689 -7 30 C-6.67 29.34 -6.34 28.68 -6 28 C0.93 28.495 0.93 28.495 8 29 C8 28.34 8 27.68 8 27 C5.36 27 2.72 27 0 27 C0 18.09 0 9.18 0 0 Z " fill="#6E6E6E" transform="translate(257,34)"/>
<path d="M0 0 C0.66 0 1.32 0 2 0 C2.33 1.65 2.66 3.3 3 5 C6.52994613 6.17664871 9.29455413 6.19850603 13 6 C16.0109362 3.9927092 16.63016497 3.16115776 18 0 C18.33 0.99 18.66 1.98 19 3 C19.66 2.67 20.32 2.34 21 2 C20.4376049 5.26189156 19.5859495 6.91134848 17 9 C14.08913331 9.9702889 12.09776315 10.16467847 9.0625 10.1875 C8.20785156 10.20167969 7.35320312 10.21585938 6.47265625 10.23046875 C3.86090697 9.98703556 2.24499348 9.3178268 0 8 C0 5.36 0 2.72 0 0 Z " fill="#303030" transform="translate(334,100)"/>
<path d="M0 0 C3.375 -0.125 3.375 -0.125 7 0 C9 2 9 2 9.3125 4.9375 C9 8 9 8 7.875 9.875 C5.21965017 11.4682099 3.03210482 11.20214032 0 11 C0 7.37 0 3.74 0 0 Z " fill="#FBF9FA" transform="translate(314,82)"/>
<path d="M0 0 C1 1 1 1 1.09765625 2.84765625 C1.04882812 5.92382812 1.04882812 5.92382812 1 9 C0.67 9 0.34 9 0 9 C0 6.69 0 4.38 0 2 C-0.99 2 -1.98 2 -3 2 C-3 4.31 -3 6.62 -3 9 C-3.66 9 -4.32 9 -5 9 C-5 8.01 -5 7.02 -5 6 C-7.31 5.67 -9.62 5.34 -12 5 C-12 5.66 -12 6.32 -12 7 C-10.68 7 -9.36 7 -8 7 C-8 7.66 -8 8.32 -8 9 C-12.875 8.125 -12.875 8.125 -14 7 C-14.04063832 5.33382885 -14.042721 3.66611905 -14 2 C-8.85142431 -0.66305639 -5.78022262 -1.0704116 0 0 Z " fill="#9D9D9D" transform="translate(402,143)"/>
<path d="M0 0 C0.66 0 1.32 0 2 0 C2 7.26 2 14.52 2 22 C0.68 22 -0.64 22 -2 22 C-2.05807043 18.89591193 -2.09361914 15.7919636 -2.125 12.6875 C-2.14175781 11.80642578 -2.15851563 10.92535156 -2.17578125 10.01757812 C-2.18222656 9.17001953 -2.18867188 8.32246094 -2.1953125 7.44921875 C-2.20578613 6.66893311 -2.21625977 5.88864746 -2.22705078 5.0847168 C-2 3 -2 3 0 0 Z " fill="#211E1F" transform="translate(381,83)"/>
<path d="M0 0 C1.2065625 0.0309375 1.2065625 0.0309375 2.4375 0.0625 C2.4375 0.7225 2.4375 1.3825 2.4375 2.0625 C3.0975 2.0625 3.7575 2.0625 4.4375 2.0625 C4.7675 1.4025 5.0975 0.7425 5.4375 0.0625 C7.0875 0.0625 8.7375 0.0625 10.4375 0.0625 C10.4375 1.3825 10.4375 2.7025 10.4375 4.0625 C9.1175 4.0625 7.7975 4.0625 6.4375 4.0625 C6.4375 4.7225 6.4375 5.3825 6.4375 6.0625 C7.7575 6.0625 9.0775 6.0625 10.4375 6.0625 C10.4375 6.7225 10.4375 7.3825 10.4375 8.0625 C5.6875 7.1875 5.6875 7.1875 3.4375 6.0625 C3.1075 6.7225 2.7775 7.3825 2.4375 8.0625 C-2.4375 7.1875 -2.4375 7.1875 -3.5625 6.0625 C-3.6875 3.5625 -3.6875 3.5625 -3.5625 1.0625 C-2.5625 0.0625 -2.5625 0.0625 0 0 Z " fill="#A4A4A4" transform="translate(410.5625,143.9375)"/>
<path d="M0 0 C1.32 0 2.64 0 4 0 C4 7.26 4 14.52 4 22 C2.68 21.34 1.36 20.68 0 20 C0 13.4 0 6.8 0 0 Z " fill="#201E1F" transform="translate(184,36)"/>
<path d="M0 0 C0.33 0.99 0.66 1.98 1 3 C1.66 3 2.32 3 3 3 C3.33 2.01 3.66 1.02 4 0 C6.475 0.99 6.475 0.99 9 2 C9.28942283 7.01666244 9.03907548 9.10998339 6 13 C5.27518916 16.65274469 5.27518916 16.65274469 5 20 C4.67 20 4.34 20 4 20 C3.86722656 19.09636719 3.73445313 18.19273438 3.59765625 17.26171875 C3.42105469 16.08222656 3.24445313 14.90273438 3.0625 13.6875 C2.88847656 12.51574219 2.71445312 11.34398437 2.53515625 10.13671875 C2.07906969 6.98358597 2.07906969 6.98358597 1 4 C0.01 3.67 -0.98 3.34 -2 3 C-1.34 2.67 -0.68 2.34 0 2 C0 1.34 0 0.68 0 0 Z " fill="#ECEAEB" transform="translate(300,32)"/>
<path d="M0 0 C0.99 0.33 1.98 0.66 3 1 C4.62757511 5.29976609 4.22293873 10.09223734 4.25 14.625 C4.270625 15.49640625 4.29125 16.3678125 4.3125 17.265625 C4.31765625 18.09835938 4.3228125 18.93109375 4.328125 19.7890625 C4.3374707 20.54912598 4.34681641 21.30918945 4.35644531 22.09228516 C4.23881836 22.72183105 4.12119141 23.35137695 4 24 C3.01 24.66 2.02 25.32 1 26 C1 20.06 1 14.12 1 8 C0.34 8 -0.32 8 -1 8 C-1.93065133 5.39417629 -2.14917407 4.35801776 -1.0625 1.75 C-0.711875 1.1725 -0.36125 0.595 0 0 Z " fill="#FBF9FA" transform="translate(355,84)"/>
<path d="M0 0 C2 2 2 2 2.125 5.625 C2.08375 6.73875 2.0425 7.8525 2 9 C0.5 7.625 0.5 7.625 -1 6 C-1 5.34 -1 4.68 -1 4 C-2.62418745 3.91909029 -4.24951745 3.86085005 -5.875 3.8125 C-6.77992188 3.77769531 -7.68484375 3.74289063 -8.6171875 3.70703125 C-9.40351563 3.80371094 -10.18984375 3.90039062 -11 4 C-11.99 5.485 -11.99 5.485 -13 7 C-15.625 7.1875 -15.625 7.1875 -18 7 C-17.04908327 4.49303771 -16.06198622 3.05598755 -14.0625 1.25 C-9.5028795 -0.61106959 -4.86793984 -0.60359318 0 0 Z " fill="#2E2D2D" transform="translate(352,78)"/>
<path d="M0 0 C0.78246094 -0.01417969 1.56492187 -0.02835938 2.37109375 -0.04296875 C4.5625 0.1875 4.5625 0.1875 7.5625 2.1875 C7.75 5.8125 7.75 5.8125 7.5625 9.1875 C7.33304687 8.54683594 7.10359375 7.90617187 6.8671875 7.24609375 C5.73954163 4.97958737 5.73954163 4.97958737 3.3203125 4.47265625 C2.45148438 4.39917969 1.58265625 4.32570313 0.6875 4.25 C-0.60800781 4.11271484 -0.60800781 4.11271484 -1.9296875 3.97265625 C-4.94876864 4.23130027 -6.21184775 5.19476485 -8.4375 7.1875 C-9.0975 6.8575 -9.7575 6.5275 -10.4375 6.1875 C-10.7675 8.4975 -11.0975 10.8075 -11.4375 13.1875 C-11.7675 13.1875 -12.0975 13.1875 -12.4375 13.1875 C-12.8125 10 -12.8125 10 -12.4375 6.1875 C-9.0460991 2.05292174 -5.25601876 0.04315286 0 0 Z " fill="#403F3F" transform="translate(356.4375,31.8125)"/>
<path d="M0 0 C2 0 2 0 3.625 1.5 C4.07875 1.995 4.5325 2.49 5 3 C5.99 2.67 6.98 2.34 8 2 C9.1577506 5.47325181 9.06866652 8.36067448 9 12 C7.6078125 11.7215625 7.6078125 11.7215625 6.1875 11.4375 C2.98656229 10.75876119 2.98656229 10.75876119 0 12 C0 8.04 0 4.08 0 0 Z " fill="#B4B4B4" transform="translate(302,140)"/>
<path d="M0 0 C1.98 0 3.96 0 6 0 C5.67 7.92 5.34 15.84 5 24 C4.34 24.33 3.68 24.66 3 25 C2.07185143 22.21555429 1.82702758 20.29560128 1.71875 17.40234375 C1.68136719 16.51869141 1.64398438 15.63503906 1.60546875 14.72460938 C1.53500864 12.86263579 1.46469676 11.00065659 1.39453125 9.13867188 C1.35714844 8.25630859 1.31976563 7.37394531 1.28125 6.46484375 C1.25095703 5.656521 1.22066406 4.84819824 1.18945312 4.01538086 C1.11600056 1.93071754 1.11600056 1.93071754 0 0 Z " fill="#1F1F1F" transform="translate(226,79)"/>
<path d="M0 0 C0.66 0.33 1.32 0.66 2 1 C3.31120546 6.1137013 3.53336419 11.74771873 3 17 C2.34 17.99 1.68 18.98 1 20 C0.01 19.67 -0.98 19.34 -2 19 C-1.85982174 16.02046641 -1.71313658 13.04150696 -1.5625 10.0625 C-1.52318359 9.21236328 -1.48386719 8.36222656 -1.44335938 7.48632812 C-1.40146484 6.67744141 -1.35957031 5.86855469 -1.31640625 5.03515625 C-1.27974854 4.2862915 -1.24309082 3.53742676 -1.20532227 2.76586914 C-1 1 -1 1 0 0 Z " fill="#202020" transform="translate(195,88)"/>
<path d="M0 0 C0.99 1.32 1.98 2.64 3 4 C-1.75 9.875 -1.75 9.875 -4 11 C-6.04055005 11.07065617 -8.08334257 11.08421976 -10.125 11.0625 C-11.22070312 11.05347656 -12.31640625 11.04445313 -13.4453125 11.03515625 C-14.70988281 11.01775391 -14.70988281 11.01775391 -16 11 C-15.34 9.68 -14.68 8.36 -14 7 C-12.14375 7.061875 -12.14375 7.061875 -10.25 7.125 C-5.80915757 7.11243981 -5.80915757 7.11243981 -2 5 C-0.71745356 2.46229997 -0.71745356 2.46229997 0 0 Z " fill="#2F2D2E" transform="translate(299,53)"/>
<path d="M0 0 C4.4114727 3.23507998 4.84694558 6.84557192 5.703125 11.953125 C5.85007813 12.96632813 5.85007813 12.96632813 6 14 C3 13 3 13 -1 7 C-1.33 13.27 -1.66 19.54 -2 26 C-2.33 26 -2.66 26 -3 26 C-3.08703823 22.56265937 -3.14040272 19.12560163 -3.1875 15.6875 C-3.21263672 14.71103516 -3.23777344 13.73457031 -3.26367188 12.72851562 C-3.27333984 11.79072266 -3.28300781 10.85292969 -3.29296875 9.88671875 C-3.3086792 9.02264404 -3.32438965 8.15856934 -3.34057617 7.26831055 C-2.92813694 4.52137654 -2.02630041 3.80460598 0 2 C0 1.34 0 0.68 0 0 Z " fill="#4A4949" transform="translate(213,80)"/>
<path d="M0 0 C0.33 0 0.66 0 1 0 C1 8.91 1 17.82 1 27 C1.99 27.33 2.98 27.66 4 28 C0.37 28 -3.26 28 -7 28 C-6.34 27.34 -5.68 26.68 -5 26 C-4.60235737 24.01178687 -4.26224651 22.01055661 -4 20 C-3.01 20 -2.02 20 -1 20 C-0.67 13.4 -0.34 6.8 0 0 Z " fill="#3F3D3E" transform="translate(188,36)"/>
<path d="M0 0 C1.485 0.99 1.485 0.99 3 2 C3.33 1.34 3.66 0.68 4 0 C4.66 0 5.32 0 6 0 C6.66 0.99 7.32 1.98 8 3 C8.33 2.01 8.66 1.02 9 0 C9.66 0 10.32 0 11 0 C10.34 3.63 9.68 7.26 9 11 C8.34 11 7.68 11 7 11 C6.67 9.02 6.34 7.04 6 5 C5.34 5 4.68 5 4 5 C3.67 6.65 3.34 8.3 3 10 C2.34 10 1.68 10 1 10 C0.67 6.7 0.34 3.4 0 0 Z " fill="#4C4C4C" transform="translate(175,141)"/>
<path d="M0 0 C0.33 0 0.66 0 1 0 C1 2.97 1 5.94 1 9 C-6.92 9 -14.84 9 -23 9 C-23 8.34 -23 7.68 -23 7 C-17.06 7 -11.12 7 -5 7 C-8.63 6.67 -12.26 6.34 -16 6 C-16 5.67 -16 5.34 -16 5 C-14.51886719 4.96132812 -14.51886719 4.96132812 -13.0078125 4.921875 C-11.72648437 4.86515625 -10.44515625 4.8084375 -9.125 4.75 C-7.84882813 4.70359375 -6.57265625 4.6571875 -5.2578125 4.609375 C-1.90811895 4.37444944 -1.90811895 4.37444944 -0.5546875 1.953125 C-0.37164062 1.30859375 -0.18859375 0.6640625 0 0 Z " fill="#6F6E6F" transform="translate(302,101)"/>
<path d="M0 0 C11 0 22 0 33 0 C33 2.64 33 5.28 33 8 C32.34 7.67 31.68 7.34 31 7 C31.33 5.02 31.66 3.04 32 1 C28.72786715 1.05181808 25.45838623 1.14687405 22.1875 1.25 C21.25873047 1.26417969 20.32996094 1.27835937 19.37304688 1.29296875 C18.48037109 1.32519531 17.58769531 1.35742188 16.66796875 1.390625 C15.84578857 1.41157227 15.0236084 1.43251953 14.17651367 1.45410156 C11.28700179 2.17882939 10.52623827 3.52175171 9 6 C7.68 5.67 6.36 5.34 5 5 C5.33 4.01 5.66 3.02 6 2 C4.02 2 2.04 2 0 2 C0 1.34 0 0.68 0 0 Z " fill="#B3B3B3" transform="translate(269,78)"/>
<path d="M0 0 C2.31 0 4.62 0 7 0 C5.71319131 2.6274838 4.42082322 5.25196683 3.125 7.875 C2.76019531 8.62136719 2.39539063 9.36773437 2.01953125 10.13671875 C1.66503906 10.85214844 1.31054688 11.56757812 0.9453125 12.3046875 C0.62062988 12.96452637 0.29594727 13.62436523 -0.03857422 14.30419922 C-1 16 -1 16 -3 18 C-3 17.34 -3 16.68 -3 16 C-3.66 15.67 -4.32 15.34 -5 15 C-2.69 10.38 -0.38 5.76 2 1 C1.34 0.67 0.68 0.34 0 0 Z " fill="#312F30" transform="translate(239,33)"/>
<path d="M0 0 C2.29013653 3.4352048 2.17842973 4.985331 2 9 C0.68 9 -0.64 9 -2 9 C-2.3403125 7.824375 -2.3403125 7.824375 -2.6875 6.625 C-3.78125 3.78125 -3.78125 3.78125 -6.625 2.6875 C-7.40875 2.460625 -8.1925 2.23375 -9 2 C-9 1.34 -9 0.68 -9 0 C-5.85135005 -1.57432497 -3.35512575 -0.71895552 0 0 Z " fill="#2D2B2C" transform="translate(326,34)"/>
<path d="M0 0 C0.33 0 0.66 0 1 0 C1 7.59 1 15.18 1 23 C2.32 23 3.64 23 5 23 C5.66 24.65 6.32 26.3 7 28 C4.03 28 1.06 28 -2 28 C-2 27.34 -2 26.68 -2 26 C-1.34 26 -0.68 26 0 26 C0 17.42 0 8.84 0 0 Z " fill="#4A4748" transform="translate(378,82)"/>
<path d="M0 0 C0.20496094 0.69867188 0.40992188 1.39734375 0.62109375 2.1171875 C0.89050781 3.02726562 1.15992188 3.93734375 1.4375 4.875 C1.83775391 6.23238281 1.83775391 6.23238281 2.24609375 7.6171875 C2.92613826 9.98275381 2.92613826 9.98275381 4 12 C1.82575883 14.50037734 0.26954202 15.43628586 -3 16 C-2.96744792 13.98177083 -2.93489583 11.96354167 -2.90234375 9.9453125 C-2.87350758 7.91814596 -2.87350758 7.91814596 -4 6 C-3.34 6 -2.68 6 -2 6 C-2.33 4.35 -2.66 2.7 -3 1 C-1 0 -1 0 0 0 Z " fill="#F1F0F1" transform="translate(275,48)"/>
<path d="M0 0 C1.65 0 3.3 0 5 0 C5 3.3 5 6.6 5 10 C3.35 10.33 1.7 10.66 0 11 C0.99 10.67 1.98 10.34 3 10 C3 9.34 3 8.68 3 8 C1.68 7.67 0.36 7.34 -1 7 C-1.04254356 5.00045254 -1.04080783 2.99958364 -1 1 C-0.67 0.67 -0.34 0.34 0 0 Z " fill="#656565" transform="translate(286,144)"/>
<path d="M0 0 C2 2 2 2 2.3125 4 C2.539375 4.66 2.76625 5.32 3 6 C5.49034386 7.29660434 5.49034386 7.29660434 8 8 C8 8.66 8 9.32 8 10 C8.66 10.33 9.32 10.66 10 11 C9.01 11.33 8.02 11.66 7 12 C6.67 11.67 6.34 11.34 6 11 C4.824375 11.0928125 4.824375 11.0928125 3.625 11.1875 C1 11 1 11 -0.8125 9.3125 C-2.17577792 6.65769564 -2.24535485 4.94425817 -2 2 C-1.34 2 -0.68 2 0 2 C0 1.34 0 0.68 0 0 Z " fill="#232122" transform="translate(336,83)"/>
<path d="M0 0 C3 1 3 1 4.125 3 C4.41375 3.66 4.7025 4.32 5 5 C5.33 5.33 5.66 5.66 6 6 C5.5625 8.0625 5.5625 8.0625 5 10 C4.34 10 3.68 10 3 10 C3 10.66 3 11.32 3 12 C2.34 12 1.68 12 1 12 C1 9.36 1 6.72 1 4 C-0.32 4.99 -1.64 5.98 -3 7 C-3 6.01 -3 5.02 -3 4 C-4.32 3.67 -5.64 3.34 -7 3 C-4.625 1.9375 -4.625 1.9375 -2 1 C-1.34 1.33 -0.68 1.66 0 2 C0 1.34 0 0.68 0 0 Z " fill="#E1E1E1" transform="translate(294,140)"/>
<path d="M0 0 C3 2 3 2 6 4 C6.29296875 6.8203125 6.29296875 6.8203125 6.1875 10.125 C6.16042969 11.22070312 6.13335937 12.31640625 6.10546875 13.4453125 C6.07066406 14.28835937 6.03585938 15.13140625 6 16 C5.34 16 4.68 16 4 16 C4 13.36 4 10.72 4 8 C2.68 8.33 1.36 8.66 0 9 C0.33 7.68 0.66 6.36 1 5 C0.34 4.67 -0.32 4.34 -1 4 C-0.67 2.68 -0.34 1.36 0 0 Z " fill="#B7B7B7" transform="translate(185,136)"/>
<path d="M0 0 C0.33 0.99 0.66 1.98 1 3 C1.66 3.33 2.32 3.66 3 4 C2.01 7.3 1.02 10.6 0 14 C0.66 14.33 1.32 14.66 2 15 C-0.64 15 -3.28 15 -6 15 C-5.34 14.67 -4.68 14.34 -4 14 C-3.12232004 11.79227376 -3.12232004 11.79227376 -2.4375 9.1875 C-2.18871094 8.31480469 -1.93992188 7.44210938 -1.68359375 6.54296875 C-1.09865973 4.36701419 -0.53565572 2.18853624 0 0 Z " fill="#313131" transform="translate(203,49)"/>
<path d="M0 0 C0.33 0 0.66 0 1 0 C1 3.63 1 7.26 1 11 C-3 13 -3 13 -5.75 12.125 C-6.4925 11.75375 -7.235 11.3825 -8 11 C-7.1875 8.5625 -7.1875 8.5625 -6 6 C-5.01 5.67 -4.02 5.34 -3 5 C-3 5.66 -3 6.32 -3 7 C-2.34 7.33 -1.68 7.66 -1 8 C-0.67 8.33 -0.34 8.66 0 9 C0 6.03 0 3.06 0 0 Z " fill="#E4E2E3" transform="translate(231,51)"/>
<path d="M0 0 C2.3129482 2.3129482 2.49580975 3.47904875 3.125 6.625 C3.29257813 7.44226562 3.46015625 8.25953125 3.6328125 9.1015625 C3.81457031 10.04128906 3.81457031 10.04128906 4 11 C1.69 11 -0.62 11 -3 11 C-2.69078116 9.54096742 -2.37751201 8.08279278 -2.0625 6.625 C-1.88847656 5.81289063 -1.71445313 5.00078125 -1.53515625 4.1640625 C-1 2 -1 2 0 0 Z " fill="#E8E6E7" transform="translate(210,39)"/>
<path d="M0 0 C4.62 0 9.24 0 14 0 C14 1.98 14 3.96 14 6 C13.34 5.34 12.68 4.68 12 4 C8.87803664 3.53513282 8.87803664 3.53513282 5.375 3.375 C4.18648438 3.30023438 2.99796875 3.22546875 1.7734375 3.1484375 C0.85820312 3.09945312 -0.05703125 3.05046875 -1 3 C-0.67 2.01 -0.34 1.02 0 0 Z " fill="#2F2F2F" transform="translate(287,79)"/>
<path d="M0 0 C0 0.33 0 0.66 0 1 C-1.65 1.33 -3.3 1.66 -5 2 C-4.67 2.66 -4.34 3.32 -4 4 C-5.093125 4.433125 -6.18625 4.86625 -7.3125 5.3125 C-10.09408793 6.49495641 -12.06361939 7.60800043 -14 10 C-14.33 8.35 -14.66 6.7 -15 5 C-9.83783423 1.24569762 -6.43985624 -0.67081836 0 0 Z " fill="#333333" transform="translate(294,32)"/>
<path d="M0 0 C2.475 0.99 2.475 0.99 5 2 C4.01 4.31 3.02 6.62 2 9 C1.01 9 0.02 9 -1 9 C-1.33 9.66 -1.66 10.32 -2 11 C-2.99 10.67 -3.98 10.34 -5 10 C-4.35699811 8.51960029 -3.71051501 7.04071218 -3.0625 5.5625 C-2.70285156 4.73878906 -2.34320313 3.91507813 -1.97265625 3.06640625 C-1 1 -1 1 0 0 Z " fill="#F6F4F5" transform="translate(341,34)"/>
<path d="M0 0 C2.625 -0.5 2.625 -0.5 6 0 C8.3682433 2.43224987 10.19511787 5.13266952 12 8 C8.8125 8.5 8.8125 8.5 5 8 C2.84975764 5.57299378 1.40896506 2.90883109 0 0 Z " fill="#3A3839" transform="translate(320,102)"/>
<path d="M0 0 C1.67542976 0.28604898 3.34385343 0.61781233 5 1 C5.125 3.375 5.125 3.375 5 6 C4.34 6.66 3.68 7.32 3 8 C0.875 7.625 0.875 7.625 -1 7 C-1.04254356 5.00045254 -1.04080783 2.99958364 -1 1 C-0.67 0.67 -0.34 0.34 0 0 Z " fill="#757575" transform="translate(214,144)"/>
<path d="M0 0 C2.21538462 7.26153846 2.21538462 7.26153846 1.125 11 C0.75375 11.66 0.3825 12.32 0 13 C-1.90318884 10.14521674 -2.4619099 8.58058692 -3.125 5.3125 C-3.29257812 4.50425781 -3.46015625 3.69601563 -3.6328125 2.86328125 C-3.75398438 2.24839844 -3.87515625 1.63351563 -4 1 C-2 0 -2 0 0 0 Z " fill="#2B292A" transform="translate(260,90)"/>
<path d="M0 0 C0.66 0 1.32 0 2 0 C3.5078125 2.1875 3.5078125 2.1875 5.125 5 C5.66382813 5.928125 6.20265625 6.85625 6.7578125 7.8125 C7.37269531 8.8953125 7.37269531 8.8953125 8 10 C7.01 10.33 6.02 10.66 5 11 C4.34 10.01 3.68 9.02 3 8 C2.01 8.66 1.02 9.32 0 10 C0 6.7 0 3.4 0 0 Z " fill="#F6F6F6" transform="translate(314,95)"/>
<path d="M0 0 C1.66611905 -0.042721 3.33382885 -0.04063832 5 0 C6 1 6 1 6.09765625 2.84765625 C6.06510417 4.8984375 6.03255208 6.94921875 6 9 C5.34 9 4.68 9 4 9 C4 6.69 4 4.38 4 2 C3.34 2 2.68 2 2 2 C2 4.31 2 6.62 2 9 C1.34 9 0.68 9 0 9 C0 6.03 0 3.06 0 0 Z " fill="#636363" transform="translate(259,143)"/>
<path d="M0 0 C2.31 0 4.62 0 7 0 C7 2.97 7 5.94 7 9 C4 8 4 8 2.83203125 6.15234375 C2.49558594 5.42144531 2.15914063 4.69054687 1.8125 3.9375 C1.46832031 3.20402344 1.12414062 2.47054687 0.76953125 1.71484375 C0.51558594 1.14894531 0.26164062 0.58304687 0 0 Z " fill="#292828" transform="translate(396,79)"/>
<path d="M0 0 C2 2 2 2 2.25 5.4375 C2 9 2 9 0 12 C-0.66 11.67 -1.32 11.34 -2 11 C-2 7.7 -2 4.4 -2 1 C-1.34 0.67 -0.68 0.34 0 0 Z " fill="#222222" transform="translate(302,45)"/>
<path d="M0 0 C0.66 0.33 1.32 0.66 2 1 C2 1.66 2 2.32 2 3 C2.66 2.34 3.32 1.68 4 1 C3.73781251 5.4571874 3.42288711 7.51522698 0.4375 10.9375 C-0.366875 11.618125 -1.17125 12.29875 -2 13 C-2.33 12.34 -2.66 11.68 -3 11 C-2.34 11 -1.68 11 -1 11 C-1 9.68 -1 8.36 -1 7 C-0.68848712 4.66365343 -0.35840222 2.32961443 0 0 Z " fill="#413F40" transform="translate(362,51)"/>
<path d="M0 0 C1.32 0.66 2.64 1.32 4 2 C4 2.99 4 3.98 4 5 C2.68 5 1.36 5 0 5 C0 5.66 0 6.32 0 7 C1.32 7 2.64 7 4 7 C4 7.66 4 8.32 4 9 C-0.875 8.125 -0.875 8.125 -2 7 C-2.1875 4.5625 -2.1875 4.5625 -2 2 C-1.34 1.34 -0.68 0.68 0 0 Z " fill="#4D4D4D" transform="translate(390,143)"/>
<path d="M0 0 C1.65 0 3.3 0 5 0 C4.01 0.33 3.02 0.66 2 1 C2 1.99 2 2.98 2 4 C2.99 4 3.98 4 5 4 C5 4.66 5 5.32 5 6 C4.01 6 3.02 6 2 6 C2 6.99 2 7.98 2 9 C2.99 9 3.98 9 5 9 C5 9.66 5 10.32 5 11 C3.35 11 1.7 11 0 11 C0 7.37 0 3.74 0 0 Z " fill="#464646" transform="translate(341,141)"/>
<path d="M0 0 C0.33 0 0.66 0 1 0 C1 2.64 1 5.28 1 8 C0.67 7.34 0.34 6.68 0 6 C-2.97 6 -5.94 6 -9 6 C-9 5.01 -9 4.02 -9 3 C-5.92382812 2.70703125 -5.92382812 2.70703125 -2.84765625 2.4140625 C-2.23792969 2.27742188 -1.62820313 2.14078125 -1 2 C-0.67 1.34 -0.34 0.68 0 0 Z " fill="#302F2F" transform="translate(295,89)"/>
<path d="M0 0 C0.99 0 1.98 0 3 0 C3 0.66 3 1.32 3 2 C3.66 2 4.32 2 5 2 C5 4.64 5 7.28 5 10 C3.68 10 2.36 10 1 10 C0.67 6.7 0.34 3.4 0 0 Z " fill="#201E1F" transform="translate(231,47)"/>
<path d="M0 0 C0.33 0 0.66 0 1 0 C1 3.63 1 7.26 1 11 C1.66 11 2.32 11 3 11 C3 11.66 3 12.32 3 13 C-0.3 13 -3.6 13 -7 13 C-6.67 12.34 -6.34 11.68 -6 11 C-5.34 11 -4.68 11 -4 11 C-4 10.01 -4 9.02 -4 8 C-2 9 -2 9 -1 10 C-0.67 6.7 -0.34 3.4 0 0 Z " fill="#4E4E4E" transform="translate(410,97)"/>
<path d="M0 0 C3 2 3 2 3.6875 4.625 C3.790625 5.40875 3.89375 6.1925 4 7 C3.34 7 2.68 7 2 7 C2 8.65 2 10.3 2 12 C2.66 12 3.32 12 4 12 C4 12.66 4 13.32 4 14 C3.01 14 2.02 14 1 14 C1 11.69 1 9.38 1 7 C0.34 7 -0.32 7 -1 7 C-0.67 4.69 -0.34 2.38 0 0 Z " fill="#D2D2D2" transform="translate(269,138)"/>
<path d="M0 0 C0.66 0 1.32 0 2 0 C2.33 1.65 2.66 3.3 3 5 C3.99 5.33 4.98 5.66 6 6 C6.33 6.99 6.66 7.98 7 9 C4 10 4 10 1.8125 9.0625 C1.214375 8.711875 0.61625 8.36125 0 8 C0 5.36 0 2.72 0 0 Z " fill="#474647" transform="translate(334,100)"/>
<path d="M0 0 C0.99 0.33 1.98 0.66 3 1 C3 2.32 3 3.64 3 5 C2.01 5 1.02 5 0 5 C0 5.66 0 6.32 0 7 C0.99 7 1.98 7 3 7 C3 7.66 3 8.32 3 9 C1.35 8.67 -0.3 8.34 -2 8 C-2.125 5.125 -2.125 5.125 -2 2 C-1.34 1.34 -0.68 0.68 0 0 Z " fill="#5F5F5F" transform="translate(278,143)"/>
<path d="M0 0 C2.31 0 4.62 0 7 0 C7.33 1.32 7.66 2.64 8 4 C1.125 5 1.125 5 0 5 C0 3.35 0 1.7 0 0 Z " fill="#F1F1F1" transform="translate(383,82)"/>
<path d="M0 0 C1.65 0 3.3 0 5 0 C4.74445946 1.46109063 4.46999628 2.91888096 4.1875 4.375 C4.03667969 5.18710937 3.88585937 5.99921875 3.73046875 6.8359375 C3 9 3 9 0 11 C0 7.37 0 3.74 0 0 Z " fill="#3E3C3D" transform="translate(335,33)"/>
<path d="M0 0 C1.65 0.33 3.3 0.66 5 1 C5 1.99 5 2.98 5 4 C3.68 4 2.36 4 1 4 C1 4.66 1 5.32 1 6 C2.32 6 3.64 6 5 6 C5 6.66 5 7.32 5 8 C3.35 7.67 1.7 7.34 0 7 C-1.125 2.25 -1.125 2.25 0 0 Z " fill="#5D5D5D" transform="translate(368,144)"/>
<path d="M0 0 C0.66 0 1.32 0 2 0 C2 3.63 2 7.26 2 11 C1.34 11 0.68 11 0 11 C0 9.02 0 7.04 0 5 C-2.33075929 5.95865509 -2.33075929 5.95865509 -4 9 C-3.67 7.02 -3.34 5.04 -3 3 C-2.01 3 -1.02 3 0 3 C0 2.01 0 1.02 0 0 Z " fill="#494949" transform="translate(207,140)"/>
<path d="M0 0 C0.33 0 0.66 0 1 0 C1.06058594 0.77085938 1.12117188 1.54171875 1.18359375 2.3359375 C1.26738281 3.33882813 1.35117187 4.34171875 1.4375 5.375 C1.51871094 6.37273437 1.59992188 7.37046875 1.68359375 8.3984375 C1.84965626 10.97927613 1.84965626 10.97927613 3 13 C2.01 13.33 1.02 13.66 0 14 C-0.33 13.01 -0.66 12.02 -1 11 C-1.99 10.67 -2.98 10.34 -4 10 C-3.525625 9.649375 -3.05125 9.29875 -2.5625 8.9375 C-0.32126175 6.15836457 -0.32882342 3.4855283 0 0 Z " fill="#E1DFE0" transform="translate(355,98)"/>
<path d="M0 0 C4.875 0.875 4.875 0.875 6 2 C6.04092937 4.33297433 6.04241723 6.66705225 6 9 C4.5 7.625 4.5 7.625 3 6 C3 5.34 3 4.68 3 4 C2.01 4 1.02 4 0 4 C0 2.68 0 1.36 0 0 Z " fill="#464545" transform="translate(348,78)"/>
<path d="M0 0 C0.66 0 1.32 0 2 0 C2.05395478 1.62463842 2.09277195 3.24978541 2.125 4.875 C2.14820313 5.77992187 2.17140625 6.68484375 2.1953125 7.6171875 C2 10 2 10 0 12 C-0.66 12 -1.32 12 -2 12 C-1.85904936 10.3745692 -1.71207913 8.74965949 -1.5625 7.125 C-1.48128906 6.22007813 -1.40007812 5.31515625 -1.31640625 4.3828125 C-1 2 -1 2 0 0 Z " fill="#1E1C1D" transform="translate(311,36)"/>
<path d="M0 0 C0.66 0 1.32 0 2 0 C2.33 0.99 2.66 1.98 3 3 C3.33 2.34 3.66 1.68 4 1 C4.66 1 5.32 1 6 1 C5.34 4.3 4.68 7.6 4 11 C3.01 11 2.02 11 1 11 C0.67 7.37 0.34 3.74 0 0 Z " fill="#4B4B4B" transform="translate(314,143)"/>
<path d="M0 0 C1.65 0 3.3 0 5 0 C5 1.32 5 2.64 5 4 C3.68 4 2.36 4 1 4 C1 4.66 1 5.32 1 6 C2.32 6 3.64 6 5 6 C5 6.66 5 7.32 5 8 C3.35 7.67 1.7 7.34 0 7 C0 4.69 0 2.38 0 0 Z " fill="#5C5C5C" transform="translate(416,144)"/>
<path d="M0 0 C0.9590625 0.4640625 0.9590625 0.4640625 1.9375 0.9375 C5.92049104 2.31935403 9.81650849 2.6536543 14 3 C14 3.33 14 3.66 14 4 C7.565 4.495 7.565 4.495 1 5 C0.34 3.68 -0.32 2.36 -1 1 C-0.67 0.67 -0.34 0.34 0 0 Z " fill="#E9E7E8" transform="translate(177,107)"/>
<path d="M0 0 C0.33 0 0.66 0 1 0 C2.0070238 5.03511899 1.97387813 8.23947038 0 13 C-0.99 13 -1.98 13 -3 13 C-2.68817931 11.58318366 -2.37551263 10.16655349 -2.0625 8.75 C-1.88847656 7.96109375 -1.71445312 7.1721875 -1.53515625 6.359375 C-1.052444 4.23121297 -0.53836822 2.11467158 0 0 Z " fill="#393738" transform="translate(269,86)"/>
<path d="M0 0 C1.32 0.66 2.64 1.32 4 2 C4.36923077 7.53846154 4.36923077 7.53846154 2.5 9.875 C1.7575 10.431875 1.7575 10.431875 1 11 C0.34 10.67 -0.32 10.34 -1 10 C-0.835 9.278125 -0.67 8.55625 -0.5 7.8125 C-0.02412881 5.13572455 0.077443 2.71050513 0 0 Z " fill="#EBEAEB" transform="translate(319,82)"/>
<path d="M0 0 C0.66 0.66 1.32 1.32 2 2 C1.34 2 0.68 2 0 2 C0 2.66 0 3.32 0 4 C-0.66 4 -1.32 4 -2 4 C-2 4.66 -2 5.32 -2 6 C-5.3 6 -8.6 6 -12 6 C-11.67 5.34 -11.34 4.68 -11 4 C-9.00390625 3.4375 -9.00390625 3.4375 -6.5625 3 C-2.86159602 2.37748838 -2.86159602 2.37748838 0 0 Z " fill="#252425" transform="translate(361,58)"/>
<path d="M0 0 C0.66 0.33 1.32 0.66 2 1 C1.01 2.485 1.01 2.485 0 4 C0 4.99 0 5.98 0 7 C-2.97 6.505 -2.97 6.505 -6 6 C-6.33 5.01 -6.66 4.02 -7 3 C-4.69631264 1.93347808 -2.35981813 0.93578995 0 0 Z " fill="#F3F3F3" transform="translate(291,153)"/>
<path d="M0 0 C0.66 0.33 1.32 0.66 2 1 C1.34 3.31 0.68 5.62 0 8 C0.99 8.33 1.98 8.66 3 9 C2.01 9.33 1.02 9.66 0 10 C-0.99 9.34 -1.98 8.68 -3 8 C-2.25 2.25 -2.25 2.25 0 0 Z " fill="#E3E1E2" transform="translate(341,81)"/>
<path d="M0 0 C0.99 0 1.98 0 3 0 C2.45773019 3.79588866 0.79872437 5.47211993 -2 8 C-2.99 7.67 -3.98 7.34 -5 7 C-5 6.34 -5 5.68 -5 5 C-3.68 5 -2.36 5 -1 5 C-0.67 3.35 -0.34 1.7 0 0 Z " fill="#D03043" transform="translate(119,155)"/>
<path d="M0 0 C1.65 0 3.3 0 5 0 C5.33 2.64 5.66 5.28 6 8 C5.34 8 4.68 8 4 8 C3.67 6.68 3.34 5.36 3 4 C0.69 3.67 -1.62 3.34 -4 3 C-2.68 2.67 -1.36 2.34 0 2 C0 1.34 0 0.68 0 0 Z " fill="#363636" transform="translate(387,79)"/>
<path d="M0 0 C7.38461538 -0.36923077 7.38461538 -0.36923077 10.5 1.5 C10.995 1.995 11.49 2.49 12 3 C11.01 3.495 11.01 3.495 10 4 C9.67 4.66 9.34 5.32 9 6 C7.68 5.67 6.36 5.34 5 5 C5.33 4.01 5.66 3.02 6 2 C4.02 2 2.04 2 0 2 C0 1.34 0 0.68 0 0 Z " fill="#D7D6D6" transform="translate(269,78)"/>
<path d="M0 0 C2 1 2 1 3 3 C2.0625 5.125 2.0625 5.125 1 7 C-1.64 7 -4.28 7 -7 7 C-7 6.34 -7 5.68 -7 5 C-5.35 5 -3.7 5 -2 5 C-1.34 3.35 -0.68 1.7 0 0 Z " fill="#D8D8D8" transform="translate(244,73)"/>
<path d="M0 0 C0.99 0.33 1.98 0.66 3 1 C3 2.98 3 4.96 3 7 C1.68 7 0.36 7 -1 7 C-1.33 5.02 -1.66 3.04 -2 1 C-1.34 0.67 -0.68 0.34 0 0 Z " fill="#211F20" transform="translate(325,36)"/>
<path d="M0 0 C0.66 0.33 1.32 0.66 2 1 C2 3.31 2 5.62 2 8 C0.68 8 -0.64 8 -2 8 C-2.33 7.34 -2.66 6.68 -3 6 C-2.06553465 3.96855359 -1.06775224 1.96466413 0 0 Z " fill="#EEECED" transform="translate(242,39)"/>
<path d="M0 0 C0.66 0.33 1.32 0.66 2 1 C2.625 3.0625 2.625 3.0625 3 5 C2.34 5 1.68 5 1 5 C0.34 6.65 -0.32 8.3 -1 10 C-2.125 8.3125 -2.125 8.3125 -3 6 C-1.7 1.7 -1.7 1.7 0 0 Z " fill="#F2F2F2" transform="translate(195,37)"/>
<path d="M0 0 C1.65 0 3.3 0 5 0 C5 2.64 5 5.28 5 8 C4.34 7.34 3.68 6.68 3 6 C2.01 6.66 1.02 7.32 0 8 C0 5.36 0 2.72 0 0 Z " fill="#464646" transform="translate(350,144)"/>
<path d="M0 0 C3.875 0.875 3.875 0.875 5 2 C4.5625 4.0625 4.5625 4.0625 4 6 C3.34 6 2.68 6 2 6 C2 6.66 2 7.32 2 8 C1.34 8 0.68 8 0 8 C0 5.36 0 2.72 0 0 Z " fill="#7B7B7B" transform="translate(295,144)"/>
<path d="M0 0 C1.98 0 3.96 0 6 0 C6.33 1.98 6.66 3.96 7 6 C4.525 5.01 4.525 5.01 2 4 C2 3.01 2 2.02 2 1 C1.34 0.67 0.68 0.34 0 0 Z " fill="#242223" transform="translate(207,33)"/>
<path d="M0 0 C1.65 0 3.3 0 5 0 C5 0.99 5 1.98 5 3 C4.01 3 3.02 3 2 3 C1.67 4.65 1.34 6.3 1 8 C0.34 8 -0.32 8 -1 8 C-0.67 5.36 -0.34 2.72 0 0 Z " fill="#353334" transform="translate(175,33)"/>
<path d="M0 0 C0.66 0 1.32 0 2 0 C2 1.98 2 3.96 2 6 C2.66 6.33 3.32 6.66 4 7 C2.35 7 0.7 7 -1 7 C-2 4 -2 4 -1.0625 1.8125 C-0.5365625 0.9153125 -0.5365625 0.9153125 0 0 Z " fill="#A4A4A4" transform="translate(205,145)"/>
<path d="M0 0 C0.66 0 1.32 0 2 0 C3.1577506 3.47325181 3.06866652 6.36067448 3 10 C2.01 9.67 1.02 9.34 0 9 C-0.87890625 2.84765625 -0.87890625 2.84765625 -1 1 C-0.67 0.67 -0.34 0.34 0 0 Z " fill="#515151" transform="translate(308,142)"/>
<path d="M0 0 C0.66 0.33 1.32 0.66 2 1 C2 2.32 2 3.64 2 5 C3.65 5.33 5.3 5.66 7 6 C7 6.33 7 6.66 7 7 C3.7 7 0.4 7 -3 7 C-2.34 6.34 -1.68 5.68 -1 5 C-0.35232207 2.42938689 -0.35232207 2.42938689 0 0 Z " fill="#323031" transform="translate(309,57)"/>
<path d="M0 0 C0.33 0.66 0.66 1.32 1 2 C1.99 1.67 2.98 1.34 4 1 C4.33 2.32 4.66 3.64 5 5 C0.25 6.125 0.25 6.125 -2 5 C-2 4.01 -2 3.02 -2 2 C-1.34 2 -0.68 2 0 2 C0 1.34 0 0.68 0 0 Z " fill="#F1F0F0" transform="translate(316,58)"/>
<path d="M0 0 C0.99 1.32 1.98 2.64 3 4 C1.35 5.98 -0.3 7.96 -2 10 C-2.66 8.68 -3.32 7.36 -4 6 C-3.525625 5.566875 -3.05125 5.13375 -2.5625 4.6875 C-0.76313043 2.97690387 -0.76313043 2.97690387 0 0 Z " fill="#363636" transform="translate(299,53)"/>
<path d="M0 0 C0.99 0.33 1.98 0.66 3 1 C2.67 1.99 2.34 2.98 2 4 C1.34 4 0.68 4 0 4 C-0.66 6.64 -1.32 9.28 -2 12 C-2.33 12 -2.66 12 -3 12 C-3.36923077 4.61538462 -3.36923077 4.61538462 -1.5 1.5 C-1.005 1.005 -0.51 0.51 0 0 Z " fill="#E3E3E3" transform="translate(347,50)"/>
<path d="M0 0 C2.0625 0.4375 2.0625 0.4375 4 1 C3.01 1 2.02 1 1 1 C1 2.65 1 4.3 1 6 C1.99 6 2.98 6 4 6 C4 6.66 4 7.32 4 8 C2.35 7.67 0.7 7.34 -1 7 C-1.04254356 5.00045254 -1.04080783 2.99958364 -1 1 C-0.67 0.67 -0.34 0.34 0 0 Z " fill="#505050" transform="translate(360,144)"/>
<path d="M0 0 C0.66 0.66 1.32 1.32 2 2 C1.34 3.65 0.68 5.3 0 7 C-2.97 7 -5.94 7 -9 7 C-9 6.34 -9 5.68 -9 5 C-8.2575 4.87625 -7.515 4.7525 -6.75 4.625 C-4.19858515 4.04513299 -2.2732427 3.26291261 0 2 C0 1.34 0 0.68 0 0 Z " fill="#D2D2D2" transform="translate(201,73)"/>
<path d="M0 0 C0.33 1.32 0.66 2.64 1 4 C3.64 4.33 6.28 4.66 9 5 C9 5.33 9 5.66 9 6 C5.7 6 2.4 6 -1 6 C-0.67 4.02 -0.34 2.04 0 0 Z " fill="#1F1E1F" transform="translate(205,46)"/>
<path d="M0 0 C4 1 4 1 5.25 3.0625 C5.4975 3.701875 5.745 4.34125 6 5 C4.68 5.99 3.36 6.98 2 8 C1.34 5.36 0.68 2.72 0 0 Z " fill="#F3F2F3" transform="translate(214,35)"/>
<path d="M0 0 C0 0.33 0 0.66 0 1 C-1.65 1.33 -3.3 1.66 -5 2 C-4.67 2.66 -4.34 3.32 -4 4 C-6.31 4.33 -8.62 4.66 -11 5 C-8.45499142 -0.63537615 -5.97208347 -0.11059414 0 0 Z " fill="#403F3F" transform="translate(294,32)"/>
<path d="M0 0 C3.93846154 3.32307692 3.93846154 3.32307692 4.25 6.75 C4.1675 7.4925 4.085 8.235 4 9 C3.01 9.33 2.02 9.66 1 10 C0.67 6.7 0.34 3.4 0 0 Z " fill="#3C3C3C" transform="translate(175,141)"/>
<path d="M0 0 C2.31 0 4.62 0 7 0 C6.01 1.98 5.02 3.96 4 6 C1 4 1 4 0.3125 1.875 C0.209375 1.25625 0.10625 0.6375 0 0 Z " fill="#272627" transform="translate(193,79)"/>
<path d="M0 0 C0.33 0.99 0.66 1.98 1 3 C1.66 3.33 2.32 3.66 3 4 C2.34 5.98 1.68 7.96 1 10 C0.01 9.67 -0.98 9.34 -2 9 C-1.34 6.03 -0.68 3.06 0 0 Z " fill="#414141" transform="translate(203,49)"/>
<path d="M0 0 C0.33 1.32 0.66 2.64 1 4 C2.32 4.33 3.64 4.66 5 5 C4.01 6.485 4.01 6.485 3 8 C1.68 7.67 0.36 7.34 -1 7 C-0.67 4.69 -0.34 2.38 0 0 Z " fill="#434142" transform="translate(323,39)"/>
<path d="M0 0 C0.33 0 0.66 0 1 0 C1.16918268 1.58306647 1.33523936 3.16646719 1.5 4.75 C1.5928125 5.63171875 1.685625 6.5134375 1.78125 7.421875 C2 10 2 10 2 14 C1.01 14.495 1.01 14.495 0 15 C0 10.05 0 5.1 0 0 Z " fill="#AD3C3F" transform="translate(113,152)"/>
<path d="M0 0 C3.82946843 1.45255699 5.12050295 3.42895561 7 7 C5.35 6.67 3.7 6.34 2 6 C1.34 4.02 0.68 2.04 0 0 Z " fill="#FAE4DE" transform="translate(65,153)"/>
<path d="M0 0 C2.31 0 4.62 0 7 0 C6.34 1.32 5.68 2.64 5 4 C4.34 3.34 3.68 2.68 3 2 C1.02 2.99 1.02 2.99 -1 4 C-0.67 2.68 -0.34 1.36 0 0 Z " fill="#EFEDEE" transform="translate(371,82)"/>
<path d="M0 0 C0 0.66 0 1.32 0 2 C0.66 2 1.32 2 2 2 C2 2.66 2 3.32 2 4 C0.35 4.33 -1.3 4.66 -3 5 C-3.66 3.68 -4.32 2.36 -5 1 C-2 0 -2 0 0 0 Z " fill="#EFEDEE" transform="translate(221,82)"/>
<path d="M0 0 C1.125 3.75 1.125 3.75 0 6 C-1.65 6 -3.3 6 -5 6 C-3.63016497 2.83884224 -3.0109362 2.0072908 0 0 Z " fill="#424041" transform="translate(339,79)"/>
<path d="M0 0 C0.66 0 1.32 0 2 0 C2.33 2.31 2.66 4.62 3 7 C1.68 7 0.36 7 -1 7 C-0.67 4.69 -0.34 2.38 0 0 Z " fill="#1F1D1E" transform="translate(346,38)"/>
<path d="M0 0 C0.33 2.64 0.66 5.28 1 8 C0.34 8 -0.32 8 -1 8 C-1.268125 7.401875 -1.53625 6.80375 -1.8125 6.1875 C-2.98493467 4.02775192 -4.19369282 2.64209744 -6 1 C-1.125 0 -1.125 0 0 0 Z " fill="#2F2F2F" transform="translate(198,33)"/>
<path d="M0 0 C0.66 0 1.32 0 2 0 C4 3 4 3 4 6 C2.68 6.33 1.36 6.66 0 7 C0 4.69 0 2.38 0 0 Z " fill="#EFEFEF" transform="translate(314,95)"/>
<path d="M0 0 C1.65 1.65 3.3 3.3 5 5 C3.02 5.99 3.02 5.99 1 7 C0 6 0 6 -0.0625 2.9375 C-0.041875 1.968125 -0.02125 0.99875 0 0 Z " fill="#E8E6E7" transform="translate(211,86)"/>
<path d="M0 0 C-0.33 1.65 -0.66 3.3 -1 5 C-1.99 5.33 -2.98 5.66 -4 6 C-4.33 4.68 -4.66 3.36 -5 2 C-2 0 -2 0 0 0 Z " fill="#3E3C3D" transform="translate(259,86)"/>
<path d="M0 0 C3 3.75 3 3.75 3 6 C2.34 6 1.68 6 1 6 C0.67 7.32 0.34 8.64 0 10 C-0.66 8.35 -1.32 6.7 -2 5 C-1.34 5 -0.68 5 0 5 C0 3.35 0 1.7 0 0 Z " fill="#383637" transform="translate(403,83)"/>
<path d="M0 0 C4.875 0.875 4.875 0.875 6 2 C6.04063832 3.66617115 6.042721 5.33388095 6 7 C3.14869115 5.57434558 1.85455158 3.58024568 0 1 C0 0.67 0 0.34 0 0 Z " fill="#201E1F" transform="translate(359,48)"/>
<path d="M0 0 C0.66 0 1.32 0 2 0 C2 2.31 2 4.62 2 7 C1.01 6.67 0.02 6.34 -1 6 C-1.042721 4.33388095 -1.04063832 2.66617115 -1 1 C-0.67 0.67 -0.34 0.34 0 0 Z " fill="#EF1B1B" transform="translate(75,153)"/>
<path d="M0 0 C1.98 0 3.96 0 6 0 C5.34 1.98 4.68 3.96 4 6 C3.34 6 2.68 6 2 6 C1.34 4.02 0.68 2.04 0 0 Z " fill="#272727" transform="translate(226,79)"/>
<path d="M0 0 C-0.33 0.66 -0.66 1.32 -1 2 C-3.97 2 -6.94 2 -10 2 C-10 1.34 -10 0.68 -10 0 C-6.33694766 -0.74926071 -3.57644848 -1.2380014 0 0 Z " fill="#242424" transform="translate(297,61)"/>
<path d="M0 0 C2 2 2 2 2 5 C1.01 5 0.02 5 -1 5 C-1 7.31 -1 9.62 -1 12 C-1.33 12 -1.66 12 -2 12 C-2.28571429 3.42857143 -2.28571429 3.42857143 0 0 Z " fill="#E22124" transform="translate(116,148)"/>
<path d="M0 0 C0.66 0 1.32 0 2 0 C2 1.98 2 3.96 2 6 C1.01 6 0.02 6 -1 6 C-1.625 4.125 -1.625 4.125 -2 2 C-1.34 1.34 -0.68 0.68 0 0 Z " fill="#E7E7E7" transform="translate(268,145)"/>
<path d="M0 0 C2 2 2 2 2 5 C2.99 5 3.98 5 5 5 C5 5.66 5 6.32 5 7 C3.35 7 1.7 7 0 7 C0 4.69 0 2.38 0 0 Z " fill="#585858" transform="translate(341,145)"/>
<path d="M0 0 C0.99 0.33 1.98 0.66 3 1 C3 2.32 3 3.64 3 5 C1.68 5.33 0.36 5.66 -1 6 C-1.042721 4.33388095 -1.04063832 2.66617115 -1 1 C-0.67 0.67 -0.34 0.34 0 0 Z " fill="#E8E8E8" transform="translate(200,145)"/>
<path d="M0 0 C-0.33 1.32 -0.66 2.64 -1 4 C-1 3.34 -1 2.68 -1 2 C-1.99 2.33 -2.98 2.66 -4 3 C-6.1875 2.0625 -6.1875 2.0625 -8 1 C-4.93251126 -0.86240388 -3.40254489 -1.2151946 0 0 Z " fill="#E1E1E1" transform="translate(356,142)"/>
<path d="M0 0 C0.33 1.32 0.66 2.64 1 4 C-2.93670488 5.31223496 -5.12488144 4.24296256 -9 3 C-9 2.67 -9 2.34 -9 2 C-2.25 0 -2.25 0 0 0 Z " fill="#525152" transform="translate(194,105)"/>
<path d="M0 0 C1.98 0 3.96 0 6 0 C4.625 2.5 4.625 2.5 3 5 C2.34 5 1.68 5 1 5 C0.67 3.35 0.34 1.7 0 0 Z " fill="#252424" transform="translate(414,79)"/>
<path d="M0 0 C2.31 0.33 4.62 0.66 7 1 C6.67 2.65 6.34 4.3 6 6 C3.97945196 4.35830472 1.97956942 2.69088222 0 1 C0 0.67 0 0.34 0 0 Z " fill="#2E2A2B" transform="translate(40,71)"/>
<path d="M0 0 C1.32 1.65 2.64 3.3 4 5 C0.7 5 -2.6 5 -6 5 C-5.34 4.67 -4.68 4.34 -4 4 C-3.67 3.34 -3.34 2.68 -3 2 C-3 2.66 -3 3.32 -3 4 C-2.34 3.67 -1.68 3.34 -1 3 C-0.67 2.01 -0.34 1.02 0 0 Z " fill="#494748" transform="translate(222,59)"/>
<path d="M0 0 C2.31 0.33 4.62 0.66 7 1 C7 1.33 7 1.66 7 2 C4.03 2.66 1.06 3.32 -2 4 C-1.34 2.68 -0.68 1.36 0 0 Z " fill="#212020" transform="translate(350,33)"/>
<path d="M0 0 C0.66 0 1.32 0 2 0 C2 1.98 2 3.96 2 6 C1.01 6 0.02 6 -1 6 C-1.042721 4.33388095 -1.04063832 2.66617115 -1 1 C-0.67 0.67 -0.34 0.34 0 0 Z " fill="#EDFFFE" transform="translate(123,168)"/>
<path d="M0 0 C0.99 1.32 1.98 2.64 3 4 C1.02 4.33 -0.96 4.66 -3 5 C-1.125 1.125 -1.125 1.125 0 0 Z " fill="#FEE2E4" transform="translate(119,160)"/>
<path d="M0 0 C0.99 0 1.98 0 3 0 C3 2.31 3 4.62 3 7 C2.67 6.34 2.34 5.68 2 5 C1.34 5 0.68 5 0 5 C0 3.35 0 1.7 0 0 Z " fill="#D0D0D0" transform="translate(399,145)"/>
<path d="M0 0 C1.32 0.66 2.64 1.32 4 2 C3.67 2.66 3.34 3.32 3 4 C1.35 4 -0.3 4 -2 4 C-1.34 2.68 -0.68 1.36 0 0 Z " fill="#808080" transform="translate(390,143)"/>
<path d="M0 0 C0.33 0.66 0.66 1.32 1 2 C1.66 2.33 2.32 2.66 3 3 C2.34 3 1.68 3 1 3 C1 4.65 1 6.3 1 8 C1.66 8 2.32 8 3 8 C3 8.66 3 9.32 3 10 C2.01 10 1.02 10 0 10 C-1.125 2.25 -1.125 2.25 0 0 Z " fill="#3F3F3F" transform="translate(270,142)"/>
<path d="M0 0 C0.66 0.33 1.32 0.66 2 1 C2 2.32 2 3.64 2 5 C0.35 4.67 -1.3 4.34 -3 4 C-2.67 3.01 -2.34 2.02 -2 1 C-1.34 0.67 -0.68 0.34 0 0 Z " fill="#F2F0F1" transform="translate(323,107)"/>
<path d="M0 0 C1.98 0.99 1.98 0.99 4 2 C4 3.98 4 5.96 4 8 C3.67 7.34 3.34 6.68 3 6 C2.34 6 1.68 6 1 6 C1.33 4.68 1.66 3.36 2 2 C1.34 2 0.68 2 0 2 C0 1.34 0 0.68 0 0 Z " fill="#1F1D1E" transform="translate(215,48)"/>
<path d="M0 0 C0.66 0 1.32 0 2 0 C2.33 2.31 2.66 4.62 3 7 C2.01 7 1.02 7 0 7 C0 4.69 0 2.38 0 0 Z " fill="#201F20" transform="translate(276,42)"/>
</svg>
