<?xml version="1.0" encoding="UTF-8"?>
<svg version="1.1" xmlns="http://www.w3.org/2000/svg" width="1500" height="624">
<path d="M0 0 C0.74507812 0.58265625 1.49015625 1.1653125 2.2578125 1.765625 C18.75300669 15.44456652 28.41699771 35.13124561 31.75 56.0625 C32.79211358 72.47578894 31.56419182 88.14835509 24 103 C23.53795418 104.29776619 23.53795418 104.29776619 23.0665741 105.62174988 C21 108 21 108 18.98690224 108.45137978 C16.19742079 108.61958938 13.44783309 108.61743716 10.65356445 108.56762695 C9.05819855 108.56872215 9.05819855 108.56872215 7.43060303 108.56983948 C3.90764745 108.56635013 0.38600646 108.52742307 -3.13671875 108.48828125 C-5.57623065 108.47895798 -8.01575189 108.47183958 -10.45527649 108.46684265 C-16.88186405 108.44773493 -23.30788825 108.39860053 -29.73425293 108.34332275 C-36.28955463 108.29221225 -42.84494719 108.26934608 -49.40039062 108.24414062 C-62.2671677 108.19048636 -75.13355391 108.1060857 -88 108 C-87.70118953 106.56621206 -87.39689981 105.13356537 -87.09033203 103.70141602 C-86.92147491 102.90349136 -86.7526178 102.10556671 -86.5786438 101.28346252 C-84.40108911 92.69032712 -78.0236438 84.28608732 -71 79 C-62.37423341 74.08503328 -54.65342407 72.84100289 -44.8828125 72.90234375 C-44.02565643 72.9037587 -43.16850037 72.90517365 -42.28536987 72.90663147 C-39.5652101 72.91219978 -36.84513462 72.92474636 -34.125 72.9375 C-32.27343869 72.9425191 -30.42187609 72.94708129 -28.5703125 72.95117188 C-24.04684285 72.96215883 -19.52343568 72.97940148 -15 73 C-15.29037613 70.29082842 -15.58833051 67.58284604 -15.890625 64.875 C-15.97135254 64.11445313 -16.05208008 63.35390625 -16.13525391 62.5703125 C-17.59030078 49.71046964 -22.77950095 38.83284087 -32.84765625 30.50390625 C-42.90667193 23.47537443 -54.13334849 23.06483549 -66 24 C-80.73449885 26.70570546 -92.49308256 34.72062763 -100.98046875 46.859375 C-114.44152057 67.79300298 -117.74208822 91.66886675 -113 116 C-108.70711002 133.03251897 -100.12238902 148.21633211 -84.83984375 157.3984375 C-61.74652224 170.4221814 -37.97354073 167.85636934 -12.68359375 163.41796875 C-2.45041643 161.82415511 7.60045816 162.67541316 16.25 168.6875 C21.1725087 172.6833016 25.6997729 178.02870338 28 184 C27.76318359 186.00268555 27.76318359 186.00268555 27 188 C24.32583068 189.52853087 21.82451559 190.75598055 19 191.9375 C18.18402344 192.28522461 17.36804687 192.63294922 16.52734375 192.99121094 C-13.7263734 205.58133975 -52.93802385 210.80550397 -85 202 C-86.25683594 201.6596875 -87.51367188 201.319375 -88.80859375 200.96875 C-114.4059675 193.21355795 -135.7905175 176.16549018 -148.4609375 152.5390625 C-163.71186726 122.62161361 -166.4558122 86.54166876 -156.5390625 54.453125 C-148.10233976 29.0873789 -131.29395236 7.14527025 -107.375 -5.25 C-75.66462704 -20.87993823 -28.60535347 -23.16142807 0 0 Z " fill="#7161AB" transform="translate(1302,255)"/>
<path d="M0 0 C17.31398608 15.15303196 29.77665065 34.44483327 31.67333984 57.78808594 C32.66233248 77.03756409 29.5959655 90.26538204 21.44140625 107.93359375 C-14.85859375 107.93359375 -51.15859375 107.93359375 -88.55859375 107.93359375 C-84.92110446 95.80862944 -79.56890839 83.5289386 -67.94091797 77.078125 C-56.99738648 71.82056448 -45.12262678 72.57510966 -33.30859375 72.74609375 C-31.4843861 72.76117387 -29.66016633 72.77485636 -27.8359375 72.78710938 C-23.40985188 72.81983758 -18.98435986 72.87143411 -14.55859375 72.93359375 C-15.00431176 69.90369174 -15.45865596 66.87550183 -15.91796875 63.84765625 C-16.10431885 62.57160522 -16.10431885 62.57160522 -16.29443359 61.26977539 C-18.09213916 49.53946394 -22.38940991 38.92104399 -31.69140625 31.15234375 C-39.45077231 25.63697554 -47.33847246 23.37184732 -56.80859375 23.49609375 C-58.04802734 23.50854126 -58.04802734 23.50854126 -59.3125 23.52124023 C-72.81034898 23.88991204 -84.19213363 28.92128135 -94.18359375 37.99609375 C-111.25907114 56.42286791 -115.66552018 79.61221341 -114.74951172 103.96435547 C-113.5555204 122.53382145 -105.95460349 139.02654874 -92.55859375 151.99609375 C-77.15362897 165.02905888 -59.27191087 168.38579286 -39.55859375 166.93359375 C-30.67355997 166.0730543 -21.67807317 165.1685933 -12.92138672 163.40136719 C-3.78130554 161.59186155 5.20464573 162.5835546 13.44140625 166.93359375 C19.80189598 171.19600527 25.92185414 177.7095714 28.1015625 185.203125 C28.21371094 185.77417969 28.32585937 186.34523438 28.44140625 186.93359375 C4.4245236 200.50835351 -23.45099189 205.38223462 -50.74609375 205.30859375 C-51.51039703 205.30804993 -52.27470032 205.3075061 -53.06216431 205.3069458 C-65.25735087 205.26717491 -76.82168567 204.51058232 -88.55859375 200.93359375 C-89.60901855 200.62010986 -89.60901855 200.62010986 -90.68066406 200.30029297 C-106.79316924 195.3095286 -119.64437863 186.703175 -131.55859375 174.93359375 C-132.53892578 174.06154297 -132.53892578 174.06154297 -133.5390625 173.171875 C-145.44765844 162.35331073 -152.80837335 145.45305179 -157.37109375 130.30859375 C-157.56606445 129.66494873 -157.76103516 129.02130371 -157.96191406 128.3581543 C-161.13165354 117.11731894 -161.92335917 105.81638231 -161.87109375 94.18359375 C-161.8654541 92.86391602 -161.85981445 91.54423828 -161.85400391 90.18457031 C-161.73318832 80.45951365 -161.14972168 71.3342897 -158.55859375 61.93359375 C-158.35991699 61.20817383 -158.16124023 60.48275391 -157.95654297 59.73535156 C-150.28229706 32.72890415 -134.21804205 9.80453342 -109.55859375 -4.06640625 C-77.71107604 -20.94212895 -29.15030195 -23.54276295 0 0 Z " fill="#7161AA" transform="translate(500.55859375,255.06640625)"/>
<path d="M0 0 C1.59765705 1.50577901 3.18173557 3.02613248 4.75 4.5625 C5.44867187 5.22507812 6.14734375 5.88765625 6.8671875 6.5703125 C24.76019137 24.88105187 27.01652033 51.92787485 27.08552551 76.17421341 C27.09397883 79.05453125 27.11463074 81.93455594 27.13806152 84.81478882 C27.18581023 90.93898092 27.21899609 97.06320326 27.25 103.1875 C27.28602993 110.27768629 27.32848431 117.36772742 27.38594055 124.45777512 C27.40556461 127.25390555 27.4142366 130.04991606 27.42224121 132.84609985 C27.52496371 150.22773968 28.97349048 167.31801187 32.375 184.375 C32.60445312 185.56802734 32.83390625 186.76105469 33.0703125 187.99023438 C33.62149223 190.84947921 34.18124687 193.70670931 34.75 196.5625 C28.73697846 197.43143375 22.88480495 197.74537524 16.8125 197.75 C15.97009766 197.76224609 15.12769531 197.77449219 14.25976562 197.78710938 C4.28729828 197.81014048 -3.49907454 196.09698243 -11.25 189.5625 C-14.48730013 185.55847089 -16.3536511 181.30337225 -18.25 176.5625 C-22.11465588 178.70039474 -25.80779619 180.92055211 -29.4375 183.4375 C-50.88769304 197.83457872 -76.96188055 202.16451636 -102.34765625 197.83984375 C-117.73240848 194.54411608 -130.5434631 186.59197439 -139.43359375 173.53515625 C-151.76877096 153.34790924 -152.57898745 131.06108603 -147.25 108.5625 C-143.77028398 95.21259422 -138.75782373 81.10989713 -127.25 72.5625 C-118.50115985 67.65804071 -110.7918346 66.40443735 -100.9140625 66.46484375 C-100.03471039 66.4662587 -99.15535828 66.46767365 -98.24935913 66.46913147 C-95.45787058 66.47470123 -92.66646406 66.4872481 -89.875 66.5 C-87.97526158 66.50501891 -86.0755219 66.50958113 -84.17578125 66.51367188 C-79.53382286 66.52466075 -74.89192531 66.54190443 -70.25 66.5625 C-70.56058059 68.01103397 -70.87424028 69.45890799 -71.18920898 70.90649414 C-71.36354965 71.71284805 -71.53789032 72.51920197 -71.71751404 73.34999084 C-74.62975501 85.45051609 -85.54722123 94.16467649 -94.80078125 101.546875 C-101.9107749 107.39816164 -106.48471724 115.52440775 -107.48828125 124.75390625 C-107.77910667 134.04501312 -104.98482116 142.54024396 -99.0703125 149.77734375 C-92.06900234 156.64343548 -83.80489027 159.50463842 -74.15234375 159.58984375 C-57.4875658 158.81519972 -42.65832497 151.67010933 -31.25 139.5625 C-25.89333696 132.8417178 -23.01838234 126.70637509 -22.95947266 117.98486328 C-22.94671295 116.69556915 -22.93395325 115.40627502 -22.92080688 114.07791138 C-22.91774635 112.67954663 -22.91552013 111.28117984 -22.9140625 109.8828125 C-22.90762241 108.42756016 -22.90089318 106.97230907 -22.89389038 105.51705933 C-22.88193437 102.46576956 -22.87820719 99.41459277 -22.87939453 96.36328125 C-22.8795962 92.49950437 -22.85244691 88.63647572 -22.81785011 84.77287483 C-22.79532333 81.76291758 -22.79156494 78.75313203 -22.79261398 75.74309921 C-22.79029063 74.32167897 -22.78165726 72.90025151 -22.76594925 71.47891617 C-22.63112821 58.00453898 -24.30176411 43.86353156 -32.25 32.5625 C-32.65605469 31.94117188 -33.06210937 31.31984375 -33.48046875 30.6796875 C-38.89249839 23.34726025 -47.89175312 19.72422632 -56.60620117 17.9309082 C-62.04946763 17.17239965 -67.51465006 17.27718659 -73 17.3125 C-74.77890625 17.30089844 -74.77890625 17.30089844 -76.59375 17.2890625 C-83.66318071 17.30449794 -90.38977866 17.86672309 -97.35180664 19.10327148 C-108.67319585 20.8971838 -118.75008082 19.07319137 -128.140625 12.36328125 C-134.10666728 7.27004886 -137.33909676 2.15995586 -139.25 -5.4375 C-123.01802647 -12.7465258 -106.03598759 -19.23569768 -88.25 -21.4375 C-86.95449219 -21.60185547 -86.95449219 -21.60185547 -85.6328125 -21.76953125 C-54.80063214 -24.97232007 -24.01209123 -21.03811663 0 0 Z " fill="#7161AA" transform="translate(698.25,261.4375)"/>
<path d="M0 0 C14.85 0 29.7 0 45 0 C48.07140739 7.37137773 51.06786892 14.6767371 53.79296875 22.16796875 C54.13647873 23.10534378 54.47998871 24.04271881 54.83390808 25.00849915 C55.95422535 28.06727464 57.07086481 31.12737864 58.1875 34.1875 C58.98035698 36.35426714 59.77349375 38.52093192 60.56689453 40.6875 C62.21702099 45.19411978 63.86594169 49.70117818 65.51416016 54.20849609 C68.6948699 62.90293359 71.89157269 71.59147531 75.08764648 80.28027344 C78.39292062 89.26617727 81.69112164 98.25467495 84.98852539 107.24346924 C85.9754882 109.93319898 86.96324552 112.62263576 87.95117188 115.31201172 C89.41522529 119.29848363 90.87597751 123.2861482 92.33380127 127.27490234 C92.85575933 128.70157965 93.3788072 130.12785877 93.90301514 131.55371094 C94.60762419 133.47090167 95.30785871 135.38969851 96.0078125 137.30859375 C96.39598145 138.36876709 96.78415039 139.42894043 97.18408203 140.52124023 C98 143 98 143 98 145 C98.66 145 99.32 145 100 145 C100.10754608 144.1749144 100.21509216 143.3498288 100.32589722 142.4997406 C101.09602944 138.50144377 102.37613688 134.80917277 103.78564453 131.00415039 C104.37826581 129.37331192 104.97069385 127.74240322 105.56295776 126.11143494 C105.87879696 125.2472035 106.19463615 124.38297207 106.52004623 123.4925518 C112.75801043 106.39474526 118.69456051 89.20606912 124.4296875 71.93359375 C124.77716286 70.88781788 125.12463821 69.84204201 125.48264313 68.76457596 C127.5954249 62.40221185 129.70182553 56.03775056 131.80566406 49.67242432 C134.67149362 41.00279919 137.54298492 32.33505825 140.41937637 23.66893196 C141.41311989 20.67107379 142.40300067 17.6719598 143.39254761 14.67271423 C143.99055032 12.86826627 144.58869658 11.06386588 145.18701172 9.25952148 C145.59510574 8.01738388 145.59510574 8.01738388 146.01144409 6.75015259 C147.88626984 1.11373016 147.88626984 1.11373016 149 0 C150.71865409 -0.0935919 152.44115744 -0.11744611 154.16235352 -0.11352539 C155.26341934 -0.11344986 156.36448517 -0.11337433 157.49891663 -0.11329651 C158.6968132 -0.10813522 159.89470978 -0.10297394 161.12890625 -0.09765625 C162.34827377 -0.0962413 163.5676413 -0.09482635 164.82395935 -0.09336853 C168.7368307 -0.08774967 172.64964581 -0.07519396 176.5625 -0.0625 C179.20768147 -0.05748743 181.85286383 -0.0529241 184.49804688 -0.04882812 C190.99871726 -0.03777411 197.49935461 -0.02101764 204 0 C199.18136843 3.88167543 199.18136843 3.88167543 196.962677 5.32914734 C194.56760779 7.36810116 193.91803831 8.97597222 192.84716797 11.92114258 C192.28124435 13.44797165 192.28124435 13.44797165 191.70388794 15.00564575 C191.30402679 16.12397797 190.90416565 17.24231018 190.4921875 18.39453125 C189.82552702 20.20891407 189.15886579 22.0232966 188.49217796 23.83766937 C187.77521272 25.79657766 187.06462122 27.7576924 186.35583496 29.71957397 C184.85566052 33.87150191 183.33800248 38.0169006 181.81738281 42.16137695 C180.20761705 46.55137359 178.59912354 50.94181761 176.99658203 55.3344574 C173.15338765 65.86823885 169.27431579 76.38820692 165.3671875 86.8984375 C165.09361231 87.63438015 164.82003712 88.3703228 164.53817177 89.12856674 C163.15953692 92.83653026 161.78019126 96.54422881 160.40042114 100.25177002 C157.93503438 106.87681815 155.47388151 113.50343945 153.01215553 120.12984848 C151.94933051 122.99048759 150.88619048 125.85100959 149.82305813 128.7115345 C147.5974949 134.69983093 145.37284211 140.68846355 143.14990234 146.67773438 C140.977881 152.52973057 138.80405971 158.38105472 136.62878418 164.23184204 C135.8552248 166.31343333 135.08231898 168.39526765 134.31018066 170.47738647 C132.24343608 176.04983001 130.16287124 181.61670833 128.06219482 187.17645264 C127.31757608 189.15581297 126.57868121 191.1373316 125.84405518 193.12042236 C124.67064076 196.28449882 123.47956462 199.44145398 122.28515625 202.59765625 C121.93029648 203.56593857 121.57543671 204.53422089 121.20982361 205.53184509 C118.71768618 212.04307275 116.19004585 215.96390074 110.18896484 219.79418945 C106.3731607 221.23702031 102.99278378 221.38021869 98.9765625 221.29296875 C98.23038666 221.28872391 97.48421082 221.28447906 96.71542358 221.28010559 C94.35156902 221.26342382 91.98859324 221.22579339 89.625 221.1875 C88.0143353 221.17243949 86.40365713 221.15875348 84.79296875 221.14648438 C80.86164485 221.11355504 76.93097099 221.06184762 73 221 C73.52268466 218.23723823 74.10869587 215.6739124 75 213 C74.38591967 210.41496162 74.38591967 210.41496162 73.30029297 207.53930664 C72.90120728 206.41302353 72.50212158 205.28674042 72.09094238 204.12632751 C71.64585327 202.899991 71.20076416 201.67365448 70.7421875 200.41015625 C70.28254 199.12382055 69.82369282 197.83719861 69.36560059 196.55030823 C68.13485167 193.10006939 66.89285687 189.65397808 65.64867401 186.20856476 C64.35510704 182.62038878 63.07194395 179.02849601 61.78759766 175.43701172 C58.8707197 167.28688923 55.93683311 159.1429487 53 151 C52.33321096 149.14864433 51.66652721 147.29725073 51 145.44580078 C48.97115264 139.81203844 46.93905103 134.17947251 44.89819336 128.55004883 C39.1762434 112.76346877 33.53795871 96.94696895 27.89892578 81.13061523 C27.04072541 78.72378299 26.18248944 76.31696343 25.32421875 73.91015625 C24.89393372 72.70348801 24.46364868 71.49681976 24.02032471 70.25358582 C21.02094842 61.84757053 18.0065336 53.44707228 14.98526192 45.04890823 C13.58253584 41.1481867 12.18232273 37.24656233 10.78218365 33.34491158 C9.65876149 30.2151388 8.53301872 27.08622906 7.40426636 23.95837402 C6.15587732 20.49850225 4.91325395 17.03661068 3.671875 13.57421875 C3.29791092 12.54260117 2.92394684 11.51098358 2.53865051 10.44810486 C2.20201889 9.50576492 1.86538727 8.56342499 1.51855469 7.5925293 C1.22358093 6.77326462 0.92860718 5.95399994 0.62469482 5.10990906 C0 3 0 3 0 0 Z " fill="#7161AB" transform="translate(938,239)"/>
<path d="M0 0 C19.14 0 38.28 0 58 0 C58 0.66 58 1.32 58 2 C57.43410156 2.27714844 56.86820312 2.55429688 56.28515625 2.83984375 C55.18494141 3.38318359 55.18494141 3.38318359 54.0625 3.9375 C52.96615234 4.47697266 52.96615234 4.47697266 51.84765625 5.02734375 C50.03750973 5.86371827 50.03750973 5.86371827 49 7 C48.89548532 9.69520711 48.85667795 12.36501731 48.85955811 15.06092834 C48.85658698 15.91620682 48.85361586 16.77148529 48.8505547 17.65268129 C48.84182722 20.54198276 48.84035599 23.431243 48.83886719 26.32055664 C48.83424144 28.38338816 48.82921712 30.44621881 48.82382202 32.50904846 C48.8106624 38.13385078 48.80424479 43.75864115 48.79981136 49.38345647 C48.79688308 52.90045473 48.79277848 56.41744972 48.78830719 59.93444633 C48.77461566 70.94530347 48.7649602 81.95615312 48.7611053 92.96701819 C48.75663664 105.66139898 48.73915128 118.35567145 48.7101047 131.05001932 C48.68842663 140.86677107 48.67839756 150.68349251 48.67706418 160.50026792 C48.67601946 166.35933715 48.67018411 172.21830478 48.65224457 178.07734871 C48.63566054 183.6021075 48.63365817 189.12668952 48.64238358 194.65146446 C48.64314876 196.66850892 48.6388805 198.68556327 48.62892532 200.70258331 C48.2134533 224.8000013 48.2134533 224.8000013 58.5625 245.765625 C65.53411181 252.414477 73.12720254 253.2752754 82.43798828 253.19140625 C88.20378714 252.88157854 93.73730235 251.76208045 99.375 250.5625 C101.61170261 250.1041172 103.84867472 249.64704713 106.0859375 249.19140625 C107.0557959 248.98717041 108.0256543 248.78293457 109.02490234 248.57250977 C112.33765185 247.93502432 115.65765333 247.45435269 119 247 C119.98552743 251.10604436 120.96381417 255.21373045 121.93579102 259.32299805 C122.26654912 260.71701069 122.59918837 262.11057853 122.93383789 263.50366211 C124.72767583 270.97664617 126.39630692 278.32204434 127 286 C123.56472832 286.96644007 120.12641002 287.9215949 116.6875 288.875 C115.73037109 289.14441406 114.77324219 289.41382813 113.78710938 289.69140625 C102.09433269 292.91971497 91.34198646 294.34320866 79.1875 294.3125 C77.92357422 294.32861328 76.65964844 294.34472656 75.35742188 294.36132812 C58.44898835 294.3699858 42.56280659 290.37591761 29 280 C28.26136719 279.43796875 27.52273437 278.8759375 26.76171875 278.296875 C10.67568263 265.0724308 2.68633001 244.54117338 0.21240425 224.35038757 C-0.18940979 219.90406066 -0.12956712 215.45522456 -0.11352539 210.99414062 C-0.11367142 209.92007965 -0.11381744 208.84601868 -0.1139679 207.7394104 C-0.11327475 204.21166927 -0.10551047 200.68398184 -0.09765625 197.15625 C-0.09578994 194.701457 -0.09436704 192.24666362 -0.09336853 189.79187012 C-0.0895601 183.34752362 -0.07974416 176.90319985 -0.06866455 170.4588623 C-0.05841438 163.87622383 -0.05386319 157.29358166 -0.04882812 150.7109375 C-0.03812034 137.8072801 -0.02053714 124.9036455 0 112 C-12.54 112 -25.08 112 -38 112 C-38 99.13 -38 86.26 -38 73 C-25.46 73 -12.92 73 0 73 C0 48.91 0 24.82 0 0 Z " fill="#7161AB" transform="translate(205,166)"/>
<path d="M0 0 C19.14 0 38.28 0 58 0 C58 0.66 58 1.32 58 2 C56.54108177 2.83233414 55.0601688 3.6262734 53.57001591 4.40130043 C50.75495112 6.23620838 49.27042081 7.22480862 48.15267551 10.42895007 C47.84681865 13.50823078 47.81668146 16.48502346 47.87974548 19.57919312 C47.86208542 21.3387269 47.86208542 21.3387269 47.84406859 23.13380682 C47.82049001 26.38219093 47.83713663 29.62748622 47.87086642 32.87568879 C47.89743235 36.38083987 47.87200685 39.88566205 47.85293579 43.39080811 C47.82700608 49.46093602 47.83392484 55.53031141 47.86323357 61.60041428 C47.90556056 70.37657718 47.8982255 79.15214757 47.87881822 87.92836542 C47.84867729 102.16736498 47.85862958 116.40604254 47.89379883 130.64501953 C47.92787399 144.47579881 47.94306457 158.30638646 47.93286133 172.13720703 C47.93223884 172.98991143 47.93161636 173.84261582 47.93097501 174.72115974 C47.92773566 178.9989806 47.92412508 183.27680106 47.92032993 187.55462146 C47.88933162 223.03655595 47.92587529 258.51813868 48 294 C32.16 294 16.32 294 0 294 C0 196.98 0 99.96 0 0 Z " fill="#7161AB" transform="translate(766,166)"/>
<path d="M0 0 C19.14 0 38.28 0 58 0 C58 0.66 58 1.32 58 2 C56.02053408 3.36363208 54.0180755 4.69418644 52 6 C50.19512005 7.04164174 50.19512005 7.04164174 49 9 C48.69950041 11.87411333 48.5841908 14.53319878 48.60127258 17.40910339 C48.59462576 18.27737977 48.58797893 19.14565614 48.58113068 20.04024392 C48.56242153 22.96078504 48.56511128 25.88091932 48.56762695 28.80151367 C48.55861463 30.89060549 48.54828872 32.979692 48.53674316 35.06877136 C48.5090849 40.75024453 48.49987667 46.43161761 48.49388909 52.1131494 C48.48452835 58.04693453 48.4583269 63.98064422 48.43388367 69.91438293 C48.39015154 81.15529615 48.36164583 92.39619477 48.33856028 103.63716727 C48.31154455 116.43268358 48.26763085 129.22812425 48.22227156 142.02358663 C48.1293291 168.34902781 48.05992332 194.67446152 48 221 C32.16 221 16.32 221 0 221 C0 148.07 0 75.14 0 0 Z " fill="#7161AB" transform="translate(857,239)"/>
<path d="M0 0 C1.41678795 0.00424484 1.41678795 0.00424484 2.86219788 0.00857544 C5.85748349 0.01970566 8.85246211 0.0447969 11.84765625 0.0703125 C13.88736545 0.08035155 15.92707937 0.08947578 17.96679688 0.09765625 C22.94803365 0.11962154 27.92904303 0.15410174 32.91015625 0.1953125 C31.20006391 11.37281652 25.36411394 20.73996146 16.91015625 28.1953125 C4.93120135 36.43326692 -9.39542886 35.46121866 -23.27734375 35.3203125 C-25.00976044 35.31026011 -26.74218279 35.30113826 -28.47460938 35.29296875 C-32.67982961 35.27113999 -36.88477275 35.23673549 -41.08984375 35.1953125 C-39.84612487 25.23375168 -34.82923863 14.88411079 -27.08984375 8.1953125 C-18.22645788 1.86432259 -10.71882612 -0.12233582 0 0 Z " fill="#2894A2" transform="translate(297.08984375,238.8046875)"/>
<path d="M0 0 C0.87935211 0.00141495 1.75870422 0.0028299 2.66470337 0.00428772 C5.45619192 0.00985748 8.24759844 0.02240435 11.0390625 0.03515625 C12.93880092 0.04017516 14.8385406 0.04473738 16.73828125 0.04882812 C21.38023964 0.059817 26.02213719 0.07706068 30.6640625 0.09765625 C30.35348191 1.54619022 30.03982222 2.99406424 29.72485352 4.44165039 C29.55051285 5.2480043 29.37617218 6.05435822 29.19654846 6.88514709 C26.98080766 16.0916749 19.18599885 25.60519804 11.2265625 30.53515625 C3.37010296 33.98097184 -3.71450428 35.54756343 -12.28125 35.390625 C-13.17713837 35.38638016 -14.07302673 35.38213531 -14.99606323 35.37776184 C-17.81801229 35.36115779 -20.63920949 35.32354218 -23.4609375 35.28515625 C-25.39061458 35.27008571 -27.32030302 35.25640149 -29.25 35.24414062 C-33.94559597 35.21131455 -38.64063991 35.15966241 -43.3359375 35.09765625 C-43.03712703 33.66386831 -42.73283731 32.23122162 -42.42626953 30.79907227 C-42.25741241 30.00114761 -42.0885553 29.20322296 -41.9145813 28.38111877 C-39.73702661 19.78798337 -33.3595813 11.38374357 -26.3359375 6.09765625 C-17.6310417 1.13760166 -9.85649923 -0.06027631 0 0 Z " fill="#E59B18" transform="translate(597.3359375,327.90234375)"/>
<path d="M0 0 C1.82420765 0.01508012 3.64842742 0.02876261 5.47265625 0.04101562 C9.89874187 0.07374383 14.32423389 0.12534036 18.75 0.1875 C18.45209137 1.62058897 18.14849193 3.05249564 17.8425293 4.48388672 C17.58985542 5.6801619 17.58985542 5.6801619 17.33207703 6.90060425 C15.02494415 15.96499286 8.30360575 24.78250238 0.3671875 29.6484375 C-7.91599482 34.03067157 -15.51733561 35.49752031 -24.78125 35.3828125 C-26.09603333 35.37856766 -26.09603333 35.37856766 -27.43737793 35.37423706 C-30.20839699 35.36313492 -32.97908035 35.33804954 -35.75 35.3125 C-37.6406203 35.30245729 -39.53124571 35.29333371 -41.421875 35.28515625 C-46.03137729 35.26322835 -50.64063194 35.22876845 -55.25 35.1875 C-52.02127509 23.57229295 -46.81299685 12.53120855 -36.625 5.4375 C-25.18815175 -0.90727443 -12.65132762 -0.18310223 0 0 Z " fill="#B76E7A" transform="translate(467.25,327.8125)"/>
<path d="M0 0 C5.91872315 5.09599608 8.68198968 10.55326649 9.5 18.25 C9.72882035 26.44939578 7.42133639 32.04856816 1.859375 38.0078125 C-3.71486555 43.20541518 -9.64098404 44.70516483 -17.16796875 44.5 C-24.19795149 43.74636701 -29.58014562 41.2842696 -34.5 36.25 C-39.19067277 29.55977763 -40.29422219 23.27279521 -39.5 15.25 C-37.69646539 7.5189249 -34.00446649 2.70797102 -27.5 -1.75 C-18.97098825 -6.21757759 -7.8574588 -5.60616443 0 0 Z " fill="#2894A2" transform="translate(896.5,170.75)"/>
</svg>
