<?xml version="1.0" encoding="UTF-8" standalone="no"?>
<!-- Created with Inkscape (http://www.inkscape.org/) -->

<svg
   version="1.1"
   id="svg1"
   width="1106.3827"
   height="839.61865"
   viewBox="0 0 1106.3827 839.61865"
   sodipodi:docname="upload_e6e4g3mhg3deodl57vp2dzz4a5.pdf"
   xmlns:inkscape="http://www.inkscape.org/namespaces/inkscape"
   xmlns:sodipodi="http://sodipodi.sourceforge.net/DTD/sodipodi-0.dtd"
   xmlns="http://www.w3.org/2000/svg"
   xmlns:svg="http://www.w3.org/2000/svg">
  <defs
     id="defs1">
    <clipPath
       clipPathUnits="userSpaceOnUse"
       id="clipPath3">
      <path
         d="M 0,629.714 H 829.787 V 0 H 0 Z"
         transform="translate(-365.23701,-435.09551)"
         id="path3" />
    </clipPath>
    <clipPath
       clipPathUnits="userSpaceOnUse"
       id="clipPath5">
      <path
         d="M 0,629.714 H 829.787 V 0 H 0 Z"
         transform="translate(-365.23701,-352.82761)"
         id="path5" />
    </clipPath>
    <clipPath
       clipPathUnits="userSpaceOnUse"
       id="clipPath7">
      <path
         d="M 0,629.714 H 829.787 V 0 H 0 Z"
         transform="translate(-530.53631,-389.66961)"
         id="path7" />
    </clipPath>
    <clipPath
       clipPathUnits="userSpaceOnUse"
       id="clipPath9">
      <path
         d="M 0,629.714 H 829.787 V 0 H 0 Z"
         transform="translate(-464.89221,-425.65431)"
         id="path9" />
    </clipPath>
    <clipPath
       clipPathUnits="userSpaceOnUse"
       id="clipPath11">
      <path
         d="M 0,629.714 H 829.787 V 0 H 0 Z"
         transform="translate(-254.85001,-169.0427)"
         id="path11" />
    </clipPath>
    <clipPath
       clipPathUnits="userSpaceOnUse"
       id="clipPath13">
      <path
         d="M 0,629.714 H 829.787 V 0 H 0 Z"
         transform="translate(-689.02271,-131.5001)"
         id="path13" />
    </clipPath>
    <clipPath
       clipPathUnits="userSpaceOnUse"
       id="clipPath15">
      <path
         d="M 0,629.714 H 829.787 V 0 H 0 Z"
         transform="translate(-593.74931,-167.76701)"
         id="path15" />
    </clipPath>
    <clipPath
       clipPathUnits="userSpaceOnUse"
       id="clipPath17">
      <path
         d="M 0,629.714 H 829.787 V 0 H 0 Z"
         transform="translate(-484.72041,-218.97801)"
         id="path17" />
    </clipPath>
    <clipPath
       clipPathUnits="userSpaceOnUse"
       id="clipPath19">
      <path
         d="M 0,629.714 H 829.787 V 0 H 0 Z"
         transform="translate(-350.92281,-165.092)"
         id="path19" />
    </clipPath>
    <clipPath
       clipPathUnits="userSpaceOnUse"
       id="clipPath21">
      <path
         d="M 0,629.714 H 829.787 V 0 H 0 Z"
         transform="translate(-361.55371,-212.50851)"
         id="path21" />
    </clipPath>
    <clipPath
       clipPathUnits="userSpaceOnUse"
       id="clipPath23">
      <path
         d="M 0,629.714 H 829.787 V 0 H 0 Z"
         transform="translate(-625.01422,-203.45211)"
         id="path23" />
    </clipPath>
    <clipPath
       clipPathUnits="userSpaceOnUse"
       id="clipPath25">
      <path
         d="M 0,629.714 H 829.787 V 0 H 0 Z"
         transform="translate(-390.36771,-143.4801)"
         id="path25" />
    </clipPath>
    <clipPath
       clipPathUnits="userSpaceOnUse"
       id="clipPath27">
      <path
         d="M 0,629.714 H 829.787 V 0 H 0 Z"
         transform="translate(-543.57821,-143.4801)"
         id="path27" />
    </clipPath>
    <clipPath
       clipPathUnits="userSpaceOnUse"
       id="clipPath29">
      <path
         d="M 0,629.714 H 829.787 V 0 H 0 Z"
         transform="translate(-144.727,-159.6578)"
         id="path29" />
    </clipPath>
    <clipPath
       clipPathUnits="userSpaceOnUse"
       id="clipPath31">
      <path
         d="M 0,629.714 H 829.787 V 0 H 0 Z"
         transform="translate(-635.41091,-167.76701)"
         id="path31" />
    </clipPath>
    <clipPath
       clipPathUnits="userSpaceOnUse"
       id="clipPath33">
      <path
         d="M 0,629.714 H 829.787 V 0 H 0 Z"
         transform="translate(-666.67571,-203.45211)"
         id="path33" />
    </clipPath>
  </defs>
  <sodipodi:namedview
     id="namedview1"
     pagecolor="#ffffff"
     bordercolor="#000000"
     borderopacity="0.25"
     inkscape:showpageshadow="2"
     inkscape:pageopacity="0.0"
     inkscape:pagecheckerboard="0"
     inkscape:deskcolor="#d1d1d1">
    <inkscape:page
       x="0"
       y="0"
       inkscape:label="1"
       id="page1"
       width="1106.3827"
       height="839.61865"
       margin="0"
       bleed="0" />
  </sodipodi:namedview>
  <g
     id="g1"
     inkscape:groupmode="layer"
     inkscape:label="1">
    <path
       id="path1"
       d="M 0,0 H 829.787 V 629.715 H 0 Z"
       style="fill:#8b191d;fill-opacity:1;fill-rule:nonzero;stroke:none"
       transform="matrix(1.3333333,0,0,-1.3333333,0,839.61867)" />
    <path
       id="path2"
       d="m 0,0 c 17.911,-14.72 46.821,-13.604 63.544,2.451 5.789,5.558 10.313,13.344 9.142,21.283 -1.17,7.939 -10.084,14.678 -17.391,11.361 -4.354,-1.977 -6.875,-6.779 -7.433,-11.528 -0.558,-4.748 0.518,-9.52 1.587,-14.18 L 60.988,-40.91 c 1.918,-8.358 3.846,-16.962 2.533,-25.436 -1.313,-8.474 -6.649,-16.903 -14.892,-19.266 -8.244,-2.363 -18.562,3.904 -18.164,12.47"
       style="fill:none;stroke:#f5e7de;stroke-width:8.392;stroke-linecap:round;stroke-linejoin:round;stroke-miterlimit:10;stroke-dasharray:none;stroke-opacity:1"
       transform="matrix(1.3333333,0,0,-1.3333333,486.98267,259.49133)"
       clip-path="url(#clipPath3)" />
    <path
       id="path4"
       d="m 0,0 c 2.441,-7.036 6.043,-13.687 10.595,-19.587 24.561,-31.84 76.137,-20.254 81.281,19.628 0.121,0.944 0.214,1.894 0.275,2.847 4.02,-10.098 8.039,-20.195 12.058,-30.293"
       style="fill:none;stroke:#f5e7de;stroke-width:8.392;stroke-linecap:round;stroke-linejoin:round;stroke-miterlimit:10;stroke-dasharray:none;stroke-opacity:1"
       transform="matrix(1.3333333,0,0,-1.3333333,486.98267,369.18187)"
       clip-path="url(#clipPath5)" />
    <path
       id="path6"
       d="m 0,0 c 0,-63.868 -51.775,-115.643 -115.643,-115.643 -63.867,0 -115.642,51.775 -115.642,115.643 0,63.868 51.775,115.643 115.642,115.643 C -51.775,115.643 0,63.868 0,0 Z"
       style="fill:none;stroke:#f5e7de;stroke-width:9.037;stroke-linecap:round;stroke-linejoin:round;stroke-miterlimit:10;stroke-dasharray:none;stroke-opacity:1"
       transform="matrix(1.3333333,0,0,-1.3333333,707.38173,320.0592)"
       clip-path="url(#clipPath7)" />
    <path
       id="path8"
       d="m 0,0 c 0,-4.06 -3.291,-7.352 -7.352,-7.352 -4.06,0 -7.351,3.292 -7.351,7.352 0,4.06 3.291,7.352 7.351,7.352 C -3.291,7.352 0,4.06 0,0"
       style="fill:#f8e2df;fill-opacity:1;fill-rule:nonzero;stroke:#f5e7de;stroke-width:1;stroke-linecap:butt;stroke-linejoin:miter;stroke-miterlimit:10;stroke-dasharray:none;stroke-opacity:1"
       transform="matrix(1.3333333,0,0,-1.3333333,619.85627,272.0796)"
       clip-path="url(#clipPath9)" />
    <path
       id="path10"
       d="m 0,0 6.063,-40.95 c 0.343,9.266 1.093,18 5.135,26.269 4.041,8.269 12.782,14.832 21.547,13.058 7.856,-1.59 13.435,-9.402 15.137,-17.523 1.703,-8.121 0.561,-13.636 -0.916,-21.804"
       style="fill:none;stroke:#f5e7de;stroke-width:7.82;stroke-linecap:round;stroke-linejoin:round;stroke-miterlimit:10;stroke-dasharray:none;stroke-opacity:1"
       transform="matrix(1.3333333,0,0,-1.3333333,339.8,614.2284)"
       clip-path="url(#clipPath11)" />
    <path
       id="path12"
       d="m 0,0 c 0,-3.834 -3.108,-6.942 -6.942,-6.942 -3.834,0 -6.942,3.108 -6.942,6.942 0,3.834 3.108,6.942 6.942,6.942 C -3.108,6.942 0,3.834 0,0"
       style="fill:#f8e2df;fill-opacity:1;fill-rule:nonzero;stroke:#f5e7de;stroke-width:1;stroke-linecap:butt;stroke-linejoin:miter;stroke-miterlimit:10;stroke-dasharray:none;stroke-opacity:1"
       transform="matrix(1.3333333,0,0,-1.3333333,918.69693,664.2852)"
       clip-path="url(#clipPath13)" />
    <path
       id="path14"
       d="M 0,0 C 9.881,3.383 20.277,5.29 30.727,5.636"
       style="fill:none;stroke:#f5e7de;stroke-width:7.82;stroke-linecap:round;stroke-linejoin:round;stroke-miterlimit:10;stroke-dasharray:none;stroke-opacity:1"
       transform="matrix(1.3333333,0,0,-1.3333333,791.66573,615.92933)"
       clip-path="url(#clipPath15)" />
    <path
       id="path16"
       d="M 0,0 C 11.694,-18.507 37.945,-26.078 57.698,-16.641 64.536,-13.374 70.9,-7.735 72.204,-0.27 73.509,7.195 67.515,15.879 59.98,15.072 55.491,14.59 51.807,11.032 49.899,6.94 47.99,2.848 47.54,-1.749 47.117,-6.244 45.595,-22.416 44.074,-38.588 42.551,-54.76 41.793,-62.822 40.971,-71.108 37.281,-78.316 33.592,-85.524 26.309,-91.499 18.217,-91.174 10.126,-90.849 2.733,-82.17 5.63,-74.608"
       style="fill:none;stroke:#f5e7de;stroke-width:7.82;stroke-linecap:round;stroke-linejoin:round;stroke-miterlimit:10;stroke-dasharray:none;stroke-opacity:1"
       transform="matrix(1.3333333,0,0,-1.3333333,646.29387,547.648)"
       clip-path="url(#clipPath17)" />
    <path
       id="path18"
       d="m 0,0 c -3.019,2.37 -7.217,3.355 -11.203,2.995 -3.986,-0.361 -7.753,-1.989 -10.859,-4.266 -5.269,-3.862 -8.74,-9.724 -9.075,-15.832 -0.335,-6.109 2.564,-12.349 7.813,-16.233 5.25,-3.884 12.768,-5.223 19.179,-3.195 4.261,1.348 7.949,4.113 10.191,7.641"
       style="fill:none;stroke:#f5e7de;stroke-width:7.82;stroke-linecap:round;stroke-linejoin:round;stroke-miterlimit:10;stroke-dasharray:none;stroke-opacity:1"
       transform="matrix(1.3333333,0,0,-1.3333333,467.89707,619.496)"
       clip-path="url(#clipPath19)" />
    <path
       id="path20"
       d="m 0,0 c 3.923,-3.04 6.543,-7.785 8.054,-12.789 1.511,-5.004 2.006,-10.3 2.392,-15.555 1.346,-18.348 1.043,-39.473 0.947,-56.543"
       style="fill:none;stroke:#f5e7de;stroke-width:7.82;stroke-linecap:round;stroke-linejoin:round;stroke-miterlimit:10;stroke-dasharray:none;stroke-opacity:1"
       transform="matrix(1.3333333,0,0,-1.3333333,482.0716,556.274)"
       clip-path="url(#clipPath21)" />
    <path
       id="path22"
       d="m 0,0 c 0.206,1.708 0.41,3.459 -0.073,5.125 -0.482,1.666 -1.799,3.259 -3.708,3.723 -2.057,0.502 -4.3,-0.44 -5.664,-1.865 -1.365,-1.425 -2.019,-3.251 -2.56,-5.043 -0.71,-2.349 -1.281,-4.73 -1.734,-7.126 -0.453,-2.403 -0.789,-4.821 -1.034,-7.246 -0.245,-2.431 -0.399,-4.87 -0.49,-7.31 -0.091,-2.451 -0.118,-4.904 -0.11,-7.357 0.009,-2.462 0.053,-4.924 0.105,-7.386 0.053,-2.466 0.114,-4.931 0.156,-7.397 0.043,-2.463 0.066,-4.927 0.042,-7.391 -0.023,-2.456 -0.093,-4.912 -0.237,-7.366 -0.197,-3.353 -0.51,-6.717 -1.067,-10.04 -0.425,-2.539 -0.756,-5.369 -2.788,-7.383 -1.379,-1.369 -4.546,-2.289 -5.81,-0.284 -0.46,0.729 -0.375,1.618 -0.044,2.372"
       style="fill:none;stroke:#f5e7de;stroke-width:7.82;stroke-linecap:round;stroke-linejoin:round;stroke-miterlimit:10;stroke-dasharray:none;stroke-opacity:1"
       transform="matrix(1.3333333,0,0,-1.3333333,833.35227,568.3492)"
       clip-path="url(#clipPath23)" />
    <path
       id="path24"
       d="m 0,0 c 6.565,1.445 13.077,3.132 19.527,5.026 3.226,0.946 6.436,1.945 9.631,2.991 2.403,0.786 6.093,1.307 5.837,4.603 -0.582,7.515 -9.15,12.032 -15.938,12.056 C 9.766,24.707 2.019,17.353 0.065,8.527 -0.371,6.558 -1.432,0.085 2.436,-6.276 2.7,-6.709 6.127,-12.183 12.44,-14.555 c 8.617,-3.237 19.595,0.438 27.601,9.2"
       style="fill:none;stroke:#f5e7de;stroke-width:7.82;stroke-linecap:round;stroke-linejoin:round;stroke-miterlimit:10;stroke-dasharray:none;stroke-opacity:1"
       transform="matrix(1.3333333,0,0,-1.3333333,520.49027,648.31187)"
       clip-path="url(#clipPath25)" />
    <path
       id="path26"
       d="m 0,0 c 6.565,1.445 13.077,3.132 19.527,5.026 3.226,0.946 6.436,1.945 9.631,2.991 2.403,0.786 6.093,1.307 5.837,4.603 -0.582,7.515 -9.15,12.032 -15.938,12.056 C 9.766,24.707 2.019,17.353 0.065,8.527 -0.371,6.558 -1.432,0.085 2.436,-6.276 2.7,-6.709 6.127,-12.183 12.44,-14.555 c 8.617,-3.237 19.594,0.438 27.601,9.2"
       style="fill:none;stroke:#f5e7de;stroke-width:7.82;stroke-linecap:round;stroke-linejoin:round;stroke-miterlimit:10;stroke-dasharray:none;stroke-opacity:1"
       transform="matrix(1.3333333,0,0,-1.3333333,724.77093,648.31187)"
       clip-path="url(#clipPath27)" />
    <path
       id="path28"
       d="m 0,0 c 2.305,-6.644 5.707,-12.925 10.005,-18.496 23.193,-30.067 71.898,-19.127 76.754,18.535 0.115,0.892 0.202,1.788 0.26,2.688 3.796,-9.535 7.592,-19.071 11.387,-28.606"
       style="fill:none;stroke:#f5e7de;stroke-width:7.925;stroke-linecap:round;stroke-linejoin:round;stroke-miterlimit:10;stroke-dasharray:none;stroke-opacity:1"
       transform="matrix(1.3333333,0,0,-1.3333333,192.96933,626.7416)"
       clip-path="url(#clipPath29)" />
    <path
       id="path30"
       d="M 0,0 C 9.881,3.383 20.277,5.29 30.727,5.636"
       style="fill:none;stroke:#f5e7de;stroke-width:7.82;stroke-linecap:round;stroke-linejoin:round;stroke-miterlimit:10;stroke-dasharray:none;stroke-opacity:1"
       transform="matrix(1.3333333,0,0,-1.3333333,847.21453,615.92933)"
       clip-path="url(#clipPath31)" />
    <path
       id="path32"
       d="m 0,0 c 0.206,1.708 0.41,3.459 -0.073,5.125 -0.482,1.666 -1.799,3.259 -3.708,3.723 -2.057,0.502 -4.3,-0.44 -5.664,-1.865 -1.365,-1.425 -2.019,-3.251 -2.56,-5.043 -0.71,-2.349 -1.281,-4.73 -1.734,-7.126 -0.453,-2.403 -0.789,-4.821 -1.034,-7.246 -0.245,-2.431 -0.399,-4.87 -0.49,-7.31 -0.091,-2.451 -0.118,-4.904 -0.11,-7.357 0.009,-2.462 0.053,-4.924 0.105,-7.386 0.053,-2.466 0.114,-4.931 0.156,-7.397 0.043,-2.463 0.066,-4.927 0.042,-7.391 -0.023,-2.456 -0.093,-4.912 -0.237,-7.366 -0.197,-3.353 -0.51,-6.717 -1.067,-10.04 -0.425,-2.539 -0.756,-5.369 -2.788,-7.383 -1.379,-1.369 -4.546,-2.289 -5.81,-0.284 -0.46,0.729 -0.375,1.618 -0.044,2.372"
       style="fill:none;stroke:#f5e7de;stroke-width:7.82;stroke-linecap:round;stroke-linejoin:round;stroke-miterlimit:10;stroke-dasharray:none;stroke-opacity:1"
       transform="matrix(1.3333333,0,0,-1.3333333,888.90093,568.3492)"
       clip-path="url(#clipPath33)" />
  </g>
</svg>
