<?xml version="1.0" encoding="UTF-8"?>
<svg version="1.1" xmlns="http://www.w3.org/2000/svg" width="665" height="160">
<path d="M0 0 C1.53527344 0.00773438 1.53527344 0.00773438 3.1015625 0.015625 C4.16890625 0.03625 5.23625 0.056875 6.3359375 0.078125 C7.94855469 0.08585938 7.94855469 0.08585938 9.59375 0.09375 C17.55699936 0.17418686 17.55699936 0.17418686 18.7109375 1.328125 C18.74011502 3.02212634 18.69712755 4.71743965 18.625 6.41015625 C18.58173584 7.4789502 18.53847168 8.54774414 18.49389648 9.64892578 C18.44177002 10.80118652 18.38964355 11.95344727 18.3359375 13.140625 C18.28703369 14.30577637 18.23812988 15.47092773 18.18774414 16.67138672 C17.75143077 26.89298743 17.2528969 37.11161372 16.7109375 47.328125 C21.31726116 39.04427318 25.57850368 30.6649741 29.4609375 22.015625 C29.82501709 21.20512695 30.18909668 20.39462891 30.56420898 19.55957031 C32.80463488 14.51259766 34.89239169 9.42156907 36.88769531 4.27270508 C37.7109375 2.328125 37.7109375 2.328125 38.7109375 1.328125 C41.38830679 1.2265284 44.03368252 1.18680371 46.7109375 1.203125 C47.87036865 1.20820068 47.87036865 1.20820068 49.05322266 1.21337891 C63.23113707 1.34159138 63.23113707 1.34159138 67.7109375 4.328125 C67.36882031 12.11129101 64.35265909 18.21200328 60.9609375 25.140625 C60.67426208 25.73228455 60.38758667 26.32394409 60.09222412 26.93353271 C53.76492398 39.93631626 45.98812557 51.61026587 37.078125 62.9765625 C34.44686866 66.33413619 32.01248617 69.73770907 29.7109375 73.328125 C30.25878906 74.06289062 30.80664062 74.79765625 31.37109375 75.5546875 C38.44776154 85.43212314 43.75691011 96.07734699 49.07666016 106.95727539 C53.294212 115.57257224 57.70692026 124.02203879 62.56225586 132.30151367 C66.60450924 139.36243886 66.60450924 139.36243886 65.7109375 143.328125 C61.86236005 145.8938433 58.99368753 145.37638821 54.5859375 145.015625 C53.81910645 144.9542334 53.05227539 144.8928418 52.26220703 144.82958984 C50.75012828 144.70799471 49.23823685 144.58404297 47.7265625 144.45751953 C45.56898646 144.28689822 45.56898646 144.28689822 42.8359375 144.41796875 C40.43166791 144.45553546 38.900132 144.32916693 36.7109375 143.328125 C33.62458363 140.11435285 31.742363 136.25055052 29.7109375 132.328125 C28.79958179 130.63205695 27.88670288 128.93680687 26.97265625 127.2421875 C22.59655913 119.05277937 18.39451805 110.85448257 14.7109375 102.328125 C14.69635498 103.49907715 14.68177246 104.6700293 14.66674805 105.87646484 C14.60887401 110.21157724 14.53164139 114.54616423 14.44848633 118.88085938 C14.41518548 120.75870247 14.38716974 122.6366469 14.36450195 124.51464844 C14.33105008 127.21072675 14.27874109 129.905872 14.22265625 132.6015625 C14.21307137 133.86569473 14.21307137 133.86569473 14.20329285 135.15536499 C14.14331055 137.52099609 14.14331055 137.52099609 13.7109375 141.328125 C7.10465284 145.73231478 -3.88979229 142.40513353 -11.3984375 140.92578125 C-13.2890625 140.328125 -13.2890625 140.328125 -15.2890625 138.328125 C-15.44502068 136.22507286 -15.44502068 136.22507286 -15.31149292 133.59213257 C-15.26670366 132.60716608 -15.22191441 131.62219959 -15.1757679 130.60738564 C-15.1163143 129.5334474 -15.05686069 128.45950916 -14.99560547 127.35302734 C-14.94183683 126.23411795 -14.8880682 125.11520855 -14.83267021 123.96239281 C-14.71778273 121.59740107 -14.59821974 119.23263249 -14.47432709 116.8680954 C-14.29961401 113.52973957 -14.13705552 110.19107436 -13.97955322 106.85186768 C-13.36974073 94.03356492 -12.69281392 81.21850504 -12.01545906 68.40361977 C-11.6767623 61.99554044 -11.34386527 55.58726826 -11.02392578 49.17822266 C-10.71097224 42.91122793 -10.38436986 36.64508637 -10.04784775 30.37931442 C-9.92261113 28.0040417 -9.80224998 25.6285067 -9.68686295 23.25273514 C-9.52588921 19.95751642 -9.34740997 16.66369517 -9.16455078 13.36962891 C-9.12080322 12.39110962 -9.07705566 11.41259033 -9.03198242 10.40441895 C-8.95223679 9.06409103 -8.95223679 9.06409103 -8.87088013 7.69668579 C-8.83069826 6.92074381 -8.7905164 6.14480183 -8.7491169 5.34534645 C-7.63503892 0.46039804 -4.52519468 -0.04491893 0 0 Z " fill="#231F20" transform="translate(350.2890625,2.671875)"/>
<path d="M0 0 C7.87354995 5.5229912 10.6451209 13.4403687 12.55859375 22.60546875 C15.92536167 43.29706327 15.92536167 43.29706327 12.703125 51.1640625 C8.82439975 55.7126742 1.81191032 55.07278278 -3.8125 55.53125 C-9.38743186 55.75095175 -9.38743186 55.75095175 -11.83984375 54.30078125 C-13.8700538 51.16933606 -13.61941913 47.80825767 -13.69140625 44.1875 C-13.61574078 33.42822461 -13.61574078 33.42822461 -18.12890625 24.3125 C-21.08679194 23.8957448 -21.08679194 23.8957448 -24.12890625 24.3125 C-26.55350088 26.2724303 -27.69637612 28.15719744 -28.75390625 31.0625 C-28.99367188 31.69671875 -29.2334375 32.3309375 -29.48046875 32.984375 C-33.95046408 49.0332739 -31.42103878 67.86738494 -29.87890625 84.25 C-29.7696582 85.4862915 -29.66041016 86.72258301 -29.54785156 87.99633789 C-28.75632285 95.64103021 -27.05953932 102.22071349 -24.12890625 109.3125 C-23.79890625 110.3025 -23.46890625 111.2925 -23.12890625 112.3125 C-18.86165369 114.76940299 -14.91092608 114.55160099 -10.12890625 114.3125 C-8.78988833 113.20123341 -8.78988833 113.20123341 -9.03125 110.37109375 C-9.04285156 109.17613281 -9.05445313 107.98117188 -9.06640625 106.75 C-9.07542969 105.55246094 -9.08445312 104.35492188 -9.09375 103.12109375 C-9.10535156 102.19425781 -9.11695313 101.26742187 -9.12890625 100.3125 C-10.32515625 100.663125 -11.52140625 101.01375 -12.75390625 101.375 C-16.50563637 102.32962172 -19.32958015 102.26233153 -23.12890625 101.3125 C-25.18944864 94.30665588 -27.75740738 85.07027782 -25.33203125 77.984375 C-24.12890625 76.3125 -24.12890625 76.3125 -21.12890625 75.3125 C-12.64044876 74.14117963 -3.99436079 74.15442635 4.55859375 74.0625 C5.63455811 74.0411499 6.71052246 74.0197998 7.8190918 73.99780273 C8.83011963 73.99337158 9.84114746 73.98894043 10.8828125 73.984375 C11.79506592 73.9750293 12.70731934 73.96568359 13.6472168 73.95605469 C14.74803589 74.13249512 14.74803589 74.13249512 15.87109375 74.3125 C20.72829551 81.59830264 19.10339343 93.74771193 18.87109375 102.3125 C18.84426514 103.32763672 18.84426514 103.32763672 18.81689453 104.36328125 C18.20750336 124.39757187 18.20750336 124.39757187 10.74609375 131.625 C0.61064448 140.03000671 -12.54788628 140.00187096 -25.12890625 139.3125 C-35.29308495 137.54481675 -41.99036027 132.43219041 -48.12890625 124.3125 C-64.21105553 100.4265537 -61.28510926 57.22944827 -56.27734375 30.625 C-54.69523386 22.90592134 -52.71231055 15.8390304 -48.12890625 9.3125 C-47.53078125 8.405 -46.93265625 7.4975 -46.31640625 6.5625 C-35.64235907 -4.41651995 -13.6137296 -6.98886653 0 0 Z " fill="#231F20" transform="translate(598.12890625,5.6875)"/>
<path d="M0 0 C2 2 2 2 2.25284481 3.99993896 C2.1855843 10.43101405 1.4651854 16.5597229 0.36352539 22.890625 C0.10258842 24.44879944 0.10258842 24.44879944 -0.16362 26.03845215 C-0.73567629 29.44361805 -1.31906055 32.84674096 -1.90234375 36.25 C-2.30431919 38.6330021 -2.70547487 41.01614261 -3.10585022 43.39941406 C-4.15888395 49.65695404 -5.2210839 55.91290018 -6.28582764 62.16845703 C-7.98843957 72.17905613 -9.67842712 82.19178663 -11.36584663 92.20495605 C-11.95464255 95.68962625 -12.54816937 99.17346569 -13.14231873 102.65722656 C-13.50638892 104.80792023 -13.8703329 106.95863527 -14.23413086 109.109375 C-14.39884888 110.06759155 -14.56356689 111.02580811 -14.73327637 112.01306152 C-15.62889148 117.33428592 -16.28326088 122.58809748 -16.62360477 127.97564697 C-17 130 -17 130 -19.25 132.25 C-22.72620339 133.19805547 -23.82407404 132.61195033 -27 131 C-34.6052232 124.05485278 -40.72804674 115.13595433 -47 107 C-49.99882879 109.81198969 -52.19559586 112.63583334 -54.34765625 116.1328125 C-54.95287109 117.10347656 -55.55808594 118.07414062 -56.18164062 119.07421875 C-57.44011278 121.11547888 -58.69792064 123.15714869 -59.95507812 125.19921875 C-60.55900391 126.16730469 -61.16292969 127.13539063 -61.78515625 128.1328125 C-62.33051025 129.01855957 -62.87586426 129.90430664 -63.43774414 130.81689453 C-65 133 -65 133 -68 135 C-70.5 135.3125 -70.5 135.3125 -73 135 C-75.63337977 132.89781996 -76.47169582 131.16314045 -77.1708374 127.90731812 C-77.35492283 127.08636972 -77.53900826 126.26542133 -77.72867203 125.41959572 C-77.91843487 124.53008909 -78.10819771 123.64058247 -78.30371094 122.72412109 C-78.73679606 120.80519193 -79.17305964 118.88697787 -79.61218262 116.96942139 C-79.83850876 115.97931816 -80.0648349 114.98921494 -80.29801941 113.96910858 C-81.40535976 109.28548373 -82.66149387 104.64614906 -83.93847656 100.00634766 C-84.32200602 98.61079431 -84.32200602 98.61079431 -84.71328354 97.18704796 C-85.24529837 95.25768187 -85.7786174 93.32867498 -86.31317902 91.40001297 C-87.16598704 88.32254016 -88.01393351 85.24376095 -88.86077881 82.16464233 C-90.95871005 74.53998634 -93.06391891 66.91734533 -95.17016602 59.29498291 C-96.96501242 52.79895732 -98.75645657 46.30201371 -100.54308319 39.80372238 C-101.37560623 36.78109097 -102.21314067 33.75987755 -103.05084229 30.73867798 C-103.56052386 28.88656698 -104.0699571 27.03438762 -104.57910156 25.18212891 C-104.81077026 24.35196762 -105.04243896 23.52180634 -105.28112793 22.66648865 C-108.56384681 10.66186427 -108.56384681 10.66186427 -107.18359375 6.59375 C-103.50220477 3.90679704 -99.49011121 4.42479641 -95.0625 4.5 C-94.15564453 4.48453125 -93.24878906 4.4690625 -92.31445312 4.453125 C-91.43853516 4.45828125 -90.56261719 4.4634375 -89.66015625 4.46875 C-88.86230713 4.47326172 -88.06445801 4.47777344 -87.24243164 4.48242188 C-84.09728421 5.20835683 -83.04992621 6.51771302 -81 9 C-79.91156006 12.13848877 -79.91156006 12.13848877 -79.07714844 15.87988281 C-78.9205072 16.56321686 -78.76386597 17.2465509 -78.60247803 17.95059204 C-78.09080244 20.19853957 -77.60003296 22.45050529 -77.109375 24.703125 C-76.75764995 26.26711421 -76.40462442 27.83081147 -76.050354 29.39422607 C-75.12334548 33.50132714 -74.21402251 37.61214824 -73.30834961 41.72399902 C-72.38029582 45.92255981 -71.43553844 50.11735494 -70.4921875 54.3125 C-68.64510677 62.53807678 -66.81669623 70.76765946 -65 79 C-64.36530947 77.59523993 -63.7331639 76.18932989 -63.10205078 74.78295898 C-62.74974396 74.00017075 -62.39743713 73.21738251 -62.03445435 72.41087341 C-60.1260638 67.96322616 -58.64394739 63.36737052 -57.11328125 58.77929688 C-55.20795068 53.20795068 -55.20795068 53.20795068 -53 51 C-49.875 50.875 -49.875 50.875 -47 51 C-42.66666667 59.66666667 -38.33333333 68.33333333 -34 77 C-32.13384425 75.13384425 -32.41145682 72.03493507 -32.10791016 69.52416992 C-32.02480087 68.84769913 -31.94169159 68.17122833 -31.85606384 67.47425842 C-31.67534228 66.00066013 -31.49647077 64.52683408 -31.31920242 63.05281639 C-31.03775588 60.71963696 -30.74971585 58.38736397 -30.45956421 56.05525208 C-29.63497098 49.42276146 -28.81750581 42.78944846 -28.01660156 36.15405273 C-27.52668404 32.09912443 -27.02482724 28.04582363 -26.51533127 23.99331093 C-26.32344488 22.44812471 -26.13609898 20.9023676 -25.95338821 19.35606956 C-25.69712313 17.19049031 -25.42572596 15.02730173 -25.15087891 12.86401367 C-25.00067291 11.63236984 -24.85046692 10.40072601 -24.69570923 9.13175964 C-23.98631415 5.93839266 -23.24673704 4.33872558 -21 2 C-14.70158688 -0.4911634 -6.67273736 -0.78775372 0 0 Z " fill="#231F20" transform="translate(156,10)"/>
<path d="M0 0 C10.31553366 8.4281944 12.9777781 22.48373641 16.421875 34.78515625 C16.73220169 35.88135284 16.73220169 35.88135284 17.04879761 36.99969482 C20.8867806 50.57560757 24.41424338 64.22994299 27.859375 77.91015625 C28.22171234 79.33968628 28.22171234 79.33968628 28.59136963 80.7980957 C29.28274599 83.534279 29.96521138 86.27252011 30.64453125 89.01171875 C30.84823837 89.81666779 31.0519455 90.62161682 31.26182556 91.45095825 C34.46057794 104.50967124 34.46057794 104.50967124 33.109375 110.16015625 C30.94916688 113.65763606 28.6516392 115.00023485 24.796875 116.28515625 C22.28000697 116.45804921 19.81506429 116.56168212 17.296875 116.59765625 C16.28173828 116.64116211 16.28173828 116.64116211 15.24609375 116.68554688 C13.265625 116.7109375 13.265625 116.7109375 9.796875 116.28515625 C1.33425494 107.27541146 2.05279215 88.11793646 0.609375 76.53515625 C0.33464389 74.37361399 0.05925877 72.21215475 -0.21679688 70.05078125 C-0.88645459 64.79650026 -1.54723673 59.54117308 -2.203125 54.28515625 C-7.153125 54.28515625 -12.103125 54.28515625 -17.203125 54.28515625 C-17.4403125 56.50234375 -17.6775 58.71953125 -17.921875 61.00390625 C-19.25878486 72.72485668 -21.20052358 84.35703314 -23.08935547 95.99902344 C-23.70627462 99.80458519 -24.3164039 103.61119284 -24.92578125 107.41796875 C-25.31991292 109.86334569 -25.71443043 112.30866047 -26.109375 114.75390625 C-26.379776 116.44163147 -26.379776 116.44163147 -26.65563965 118.16345215 C-29.46425002 135.40554318 -29.46425002 135.40554318 -32.3359375 138.82421875 C-35.97506982 140.67849053 -39.09175923 140.80172812 -43.078125 140.66015625 C-44.10099609 140.65822266 -44.10099609 140.65822266 -45.14453125 140.65625 C-49.80516031 140.5763535 -53.81066871 139.86913665 -58.203125 138.28515625 C-61.82794678 131.0355127 -58.25360975 119.86372436 -56.953125 112.16015625 C-56.82807587 111.40893494 -56.70302673 110.65771362 -56.57418823 109.88372803 C-52.95942365 88.37199951 -48.12595727 67.09556566 -43.33612061 45.82116699 C-42.04293807 40.07324278 -40.7735299 34.32225215 -39.56315613 28.55630493 C-39.10377323 26.37287029 -38.63498074 24.191726 -38.16186523 22.01123047 C-37.62740246 19.5425289 -37.10854067 17.07036736 -36.60961914 14.59423828 C-34.73904055 6.19878873 -34.73904055 6.19878873 -31.28515625 3.15625 C-22.59747097 -2.11802281 -9.30234075 -4.9801556 0 0 Z M-13.203125 17.28515625 C-13.70783697 19.05465237 -14.20673185 20.82580848 -14.703125 22.59765625 C-14.9815625 23.58378906 -15.26 24.56992187 -15.546875 25.5859375 C-16.32124696 28.30802828 -16.32124696 28.30802828 -16.203125 31.28515625 C-13.563125 30.62515625 -10.923125 29.96515625 -8.203125 29.28515625 C-8.65163158 27.47019963 -9.11222071 25.65822491 -9.578125 23.84765625 C-9.96097656 22.33365234 -9.96097656 22.33365234 -10.3515625 20.7890625 C-10.92886454 18.12945301 -10.92886454 18.12945301 -13.203125 17.28515625 Z " fill="#231F20" transform="translate(205.203125,19.71484375)"/>
<path d="M0 0 C1.17046875 -0.0103125 2.3409375 -0.020625 3.546875 -0.03125 C9.43641101 0.81366234 13.72809418 2.54443284 17.4296875 7.30078125 C25.85056938 24.74403658 31.34215281 43.8023944 36.25 62.5 C36.3001123 61.47229492 36.35022461 60.44458984 36.40185547 59.38574219 C36.59241147 55.51622688 36.79222956 51.64723269 36.99462891 47.77832031 C37.08042868 46.11438316 37.1638271 44.45032016 37.24462891 42.78613281 C38.5398482 16.2101518 38.5398482 16.2101518 41.25 13.5 C49.2077568 12.63248773 58.05723152 13.90361576 65.25 17.5 C73.89263583 41.81777259 61.74396526 94.90971247 51.32421875 117.5078125 C50.375 119.1875 50.375 119.1875 48.25 121.5 C45 122.375 45 122.375 42.25 122.5 C37.65217102 116.77055235 34.04191581 110.83822781 30.6875 104.3125 C30.18444336 103.34304443 29.68138672 102.37358887 29.16308594 101.37475586 C22.66716314 88.6633888 16.95997431 75.5781763 11.25 62.5 C11.14828231 73.82456927 11.17871805 85.13002311 11.54296875 96.44921875 C11.56961105 97.30342407 11.59625336 98.15762939 11.623703 99.03771973 C11.75899178 103.33843068 11.90629266 107.63826891 12.07006836 111.93798828 C12.12263711 113.53807271 12.17481929 115.13816991 12.2265625 116.73828125 C12.25876389 117.47793625 12.29096527 118.21759125 12.32414246 118.97966003 C12.43550214 122.75596296 12.40711947 124.26432079 10.25 127.5 C5.34663399 128.40260966 -0.15238891 128.18047702 -4.8125 126.3125 C-7.88067983 124.14500303 -8.44796724 121.93633003 -9.125 118.3125 C-11.21854676 95.37790688 -10.99563004 72.23574971 -11.04516602 49.22680664 C-11.05642849 44.55649548 -11.09115918 39.88663523 -11.13033772 35.21648693 C-11.1563882 31.58857821 -11.16484517 27.96078251 -11.16844749 24.33278847 C-11.17330716 22.60837908 -11.18490346 20.88397454 -11.20348549 19.15965843 C-11.22773304 16.77035605 -11.22694465 14.38230658 -11.2199707 11.99291992 C-11.23278076 11.28916733 -11.24559082 10.58541473 -11.25878906 9.8603363 C-11.22311348 6.51609341 -10.95263336 4.76946919 -8.91886902 2.06489563 C-5.88662518 -0.12294747 -3.70867471 -0.03239017 0 0 Z " fill="#231F20" transform="translate(468.75,9.5)"/>
<path d="M0 0 C6.05642135 7.83772175 7.22909443 14.96127964 6.40869141 24.76220703 C5.35729627 32.12921151 1.84303947 38.15488909 -2.875 43.75 C-2.17375 44.245 -1.4725 44.74 -0.75 45.25 C5.57251981 50.74784332 10.13911387 57.40868303 11.44140625 65.78515625 C11.74873318 70.93040396 10.37455394 74.84869936 7.125 78.75 C-3.05510922 88.53134918 -16.06536721 90.12979139 -29.58203125 90.984375 C-33.25548184 90.72291944 -34.46835744 90.50829809 -36.875 87.75 C-37.89025656 85.23988715 -38.60830673 82.98504611 -39.25 80.375 C-39.45351074 79.57191406 -39.65702148 78.76882812 -39.86669922 77.94140625 C-45.92176597 52.60944905 -51.53535519 23.79734371 -50.875 -2.25 C-37.47481472 -9.75410376 -12.03820306 -9.4212024 0 0 Z M-28.875 9.75 C-28.3781058 19.20406594 -27.49720942 28.41048365 -25.875 37.75 C-21.53935535 36.45470367 -18.67177694 35.38007854 -15.85546875 31.65234375 C-13.61710877 27.30939032 -13.26947588 22.38870674 -14.35546875 17.65625 C-15.75234379 14.01357034 -17.31282363 11.38667563 -20.875 9.75 C-23.59486695 9.52029914 -26.13504872 9.61300244 -28.875 9.75 Z M-24.875 56.75 C-24.73430804 58.87534659 -24.58729079 61.00027529 -24.4375 63.125 C-24.35628906 64.30835937 -24.27507812 65.49171875 -24.19140625 66.7109375 C-24.06415064 69.66518901 -24.06415064 69.66518901 -22.875 71.75 C-18.07737871 71.50605315 -15.73332534 71.38060637 -11.8125 68.5 C-9.64895661 65.96976521 -9.64895661 65.96976521 -9.8125 63.25 C-11.13823627 60.13062054 -12.40119771 58.09008325 -14.875 55.75 C-18.49838983 55.29707627 -21.38873212 55.83335198 -24.875 56.75 Z " fill="#231F20" transform="translate(284.875,20.25)"/>
<path d="M0 0 C4.92024287 3.29806673 7.45761674 6.42962045 8.7890625 12.19921875 C9.67379764 18.26816486 9.94841139 24.28033857 9.95703125 30.40625 C9.96202385 31.67622078 9.96202385 31.67622078 9.96711731 32.97184753 C9.97214459 34.75083886 9.97452695 36.52983947 9.97436523 38.30883789 C9.97654847 40.99446548 9.99474047 43.67967933 10.01367188 46.36523438 C10.09595528 71.51337403 10.09595528 71.51337403 4.7890625 79.19921875 C-0.75815053 84.77278433 -4.53883454 86.36166192 -12.5234375 86.51171875 C-13.81894531 86.54910156 -15.11445313 86.58648437 -16.44921875 86.625 C-21.73301795 86.02693758 -24.66016391 83.70568452 -28.3984375 80.07421875 C-33.64180545 71.75715234 -34.36405319 61.6015807 -34.37890625 51.9921875 C-34.38223465 51.22675125 -34.38556305 50.461315 -34.38899231 49.67268372 C-34.39402711 48.06166174 -34.39640171 46.45062945 -34.39624023 44.83959961 C-34.39842206 42.40395504 -34.41660168 39.96876755 -34.43554688 37.53320312 C-34.48151559 25.19328824 -34.3309575 12.39395875 -25.76171875 2.53125 C-18.33897701 -4.11220127 -8.48617651 -4.81784922 0 0 Z M-14.8984375 17.26171875 C-17.82827354 21.58671481 -18.46519271 26.10863145 -18.4765625 31.234375 C-18.47914063 32.37455078 -18.48171875 33.51472656 -18.484375 34.68945312 C-18.47664063 35.86830078 -18.46890625 37.04714844 -18.4609375 38.26171875 C-18.46867187 39.41349609 -18.47640625 40.56527344 -18.484375 41.75195312 C-19.0586096 55.13535296 -19.0586096 55.13535296 -14.63769531 67.06274414 C-14.16686523 67.43778076 -13.69603516 67.81281738 -13.2109375 68.19921875 C-10.51974238 67.21244721 -9.42422378 66.62426784 -8.1171875 64.01953125 C-5.20545488 54.95801852 -6.10071868 44.16143198 -6.0234375 34.69921875 C-6.01038574 33.76795166 -5.99733398 32.83668457 -5.98388672 31.87719727 C-5.97720526 26.58118366 -6.46994968 22.20885959 -8.2109375 17.19921875 C-11.66961886 16.05992002 -11.66961886 16.05992002 -14.8984375 17.26171875 Z " fill="#231F20" transform="translate(442.2109375,37.80078125)"/>
<path d="M0 0 C0.86367188 0.04640625 1.72734375 0.0928125 2.6171875 0.140625 C3.44476563 0.21796875 4.27234375 0.2953125 5.125 0.375 C5.82882812 0.43171875 6.53265625 0.4884375 7.2578125 0.546875 C10.40928115 0.88971259 11.83170039 1.08170039 14.125 3.375 C14.34860229 5.66163635 14.34860229 5.66163635 14.30029297 8.66235352 C14.28190369 9.83943878 14.2635144 11.01652405 14.24456787 12.22927856 C14.01491124 20.74832446 13.67660481 29.26280314 13.3203125 37.77734375 C13.27867855 38.7839612 13.2370446 39.79057865 13.19414902 40.82769966 C12.97442134 46.13860062 12.75152988 51.44935729 12.52587891 56.76000977 C12.29394632 62.23259699 12.0727113 67.70556302 11.85386848 73.1786871 C11.6829551 77.40571694 11.5042825 81.63239325 11.32348251 85.8590107 C11.23847514 87.87746837 11.15636498 89.89605027 11.0772438 91.91474724 C10.9661156 94.73126128 10.84401243 97.5470991 10.71923828 100.36303711 C10.68902588 101.19066055 10.65881348 102.018284 10.62768555 102.87098694 C10.41533397 107.37383903 9.80227024 111.13025862 8.125 115.375 C5.00017438 115.46187496 1.87565754 115.51534568 -1.25 115.5625 C-2.13945312 115.58763672 -3.02890625 115.61277344 -3.9453125 115.63867188 C-5.22148437 115.65317383 -5.22148437 115.65317383 -6.5234375 115.66796875 C-7.30895996 115.6836792 -8.09448242 115.69938965 -8.90380859 115.71557617 C-9.55430176 115.60318604 -10.20479492 115.4907959 -10.875 115.375 C-13.92144466 110.80533301 -14.00516751 106.88938378 -13.82421875 101.49609375 C-13.78619141 100.29017578 -13.74816406 99.08425781 -13.70898438 97.84179688 C-13.66038237 96.49868972 -13.61154591 95.15559102 -13.5625 93.8125 C-13.51463413 92.39258954 -13.46711964 90.9726672 -13.41992188 89.55273438 C-13.28082846 85.44590566 -13.13190915 81.33948131 -12.98040771 77.23309326 C-12.86695625 74.15689645 -12.75500233 71.08064685 -12.64306641 68.00439453 C-12.39185652 61.12774671 -12.1344742 54.25134044 -11.875 47.375 C-11.83329681 46.26188446 -11.79159363 45.14876892 -11.74862671 44.00192261 C-11.54885414 38.70113751 -11.3401167 33.40109476 -11.109375 28.1015625 C-10.95178753 24.47098973 -10.83628325 20.84418461 -10.765625 17.2109375 C-10.71902545 15.68228325 -10.67216975 14.15363677 -10.625 12.625 C-10.59921875 11.33078125 -10.5734375 10.0365625 -10.546875 8.703125 C-9.39019875 2.97354263 -5.90511135 -0.35845724 0 0 Z " fill="#231F20" transform="translate(317.875,-0.375)"/>
<path d="M0 0 C1.16595703 0.36029297 2.33191406 0.72058594 3.53320312 1.09179688 C13.81857248 4.30708505 13.81857248 4.30708505 16.6875 6.0625 C17.5625 8.5625 17.5625 8.5625 17.6875 11.0625 C17.0275 11.7225 16.3675 12.3825 15.6875 13.0625 C9.43659116 12.10897153 3.61944991 10.08299957 -2.34887695 8.0300293 C-8.31401067 6.00028396 -14.35388362 4.40194347 -20.4609375 2.859375 C-23.3125 2.0625 -23.3125 2.0625 -24.3125 1.0625 C-24.35313832 -0.60367115 -24.355221 -2.27138095 -24.3125 -3.9375 C-17.60355948 -7.29197026 -6.58721973 -2.09206248 0 0 Z " fill="#231F20" transform="translate(24.3125,50.9375)"/>
<path d="M0 0 C0.495 2.475 0.495 2.475 1 5 C0.38592285 5.33209473 -0.2281543 5.66418945 -0.86083984 6.00634766 C-3.70015658 7.54357773 -6.53758081 9.08427045 -9.375 10.625 C-10.82326172 11.40810547 -10.82326172 11.40810547 -12.30078125 12.20703125 C-13.26113281 12.72910156 -14.22148438 13.25117187 -15.2109375 13.7890625 C-16.17483398 14.31274414 -17.13873047 14.83642578 -18.13183594 15.37597656 C-21.76657422 17.43405275 -25.25966907 19.69012648 -28.73291016 22.00927734 C-31.56226996 23.24571306 -33.090306 22.86591158 -36 22 C-36.23046875 19.6953125 -36.23046875 19.6953125 -36 17 C-30.87039698 11.22055509 -21.89398595 7.62310372 -15.1875 4 C-13.80848511 3.24178955 -13.80848511 3.24178955 -12.40161133 2.46826172 C-11.07939575 1.77240967 -11.07939575 1.77240967 -9.73046875 1.0625 C-8.94051514 0.64097656 -8.15056152 0.21945313 -7.33666992 -0.21484375 C-4.51040392 -1.16451165 -2.83100603 -0.80769427 0 0 Z " fill="#231F20" transform="translate(663,32)"/>
<path d="M0 0 C0.75 2.25 0.75 2.25 1 5 C-1.67260301 8.12818265 -4.76808783 10.3516533 -8.16796875 12.63671875 C-9.14314453 13.29607422 -10.11832031 13.95542969 -11.12304688 14.63476562 C-12.63995117 15.65086914 -12.63995117 15.65086914 -14.1875 16.6875 C-16.20239259 18.04472758 -18.21674578 19.4027564 -20.23046875 20.76171875 C-21.12145264 21.35944092 -22.01243652 21.95716309 -22.93041992 22.57299805 C-24.89778469 23.83753588 -24.89778469 23.83753588 -26 25 C-28.5 25.125 -28.5 25.125 -31 25 C-32 24 -32 24 -32.34375 21.6640625 C-32 19 -32 19 -30.15625 17.1484375 C-28.84140625 16.27058594 -28.84140625 16.27058594 -27.5 15.375 C-26.50742187 14.70210937 -25.51484375 14.02921875 -24.4921875 13.3359375 C-23.93885742 12.96952148 -23.38552734 12.60310547 -22.81542969 12.22558594 C-20.80735902 10.8699492 -18.84555399 9.4594795 -16.8828125 8.0390625 C-15.46391542 7.02551823 -14.04464666 6.01249409 -12.625 5 C-11.60889648 4.26015869 -11.60889648 4.26015869 -10.57226562 3.50537109 C-4.56192906 -0.70454503 -4.56192906 -0.70454503 0 0 Z " fill="#231F20" transform="translate(43,103)"/>
<path d="M0 0 C1.15242188 -0.00128906 2.30484375 -0.00257812 3.4921875 -0.00390625 C4.68585937 -0.00003906 5.87953125 0.00382812 7.109375 0.0078125 C8.92308594 0.00201172 8.92308594 0.00201172 10.7734375 -0.00390625 C11.92070313 -0.00261719 13.06796875 -0.00132813 14.25 0 C15.8282959 0.00169189 15.8282959 0.00169189 17.43847656 0.00341797 C19.859375 0.1328125 19.859375 0.1328125 20.859375 1.1328125 C20.984375 3.6328125 20.984375 3.6328125 20.859375 6.1328125 C18.20776664 8.78442086 10.88561082 7.61735421 7.07641602 7.74536133 C4.93383088 7.81989658 2.79231345 7.91054011 0.65039062 8.00195312 C-0.70569402 8.05047163 -2.06181345 8.09802959 -3.41796875 8.14453125 C-4.65796631 8.19053467 -5.89796387 8.23653809 -7.17553711 8.28393555 C-10.140625 8.1328125 -10.140625 8.1328125 -12.140625 6.1328125 C-11.765625 3.5078125 -11.765625 3.5078125 -11.140625 1.1328125 C-7.36778065 0.25619638 -3.86979052 0.00413061 0 0 Z " fill="#231F20" transform="translate(20.140625,83.8671875)"/>
<path d="M0 0 C9.099807 0.32499311 19.82482476 2.91241238 28 7 C28 8.98 28 10.96 28 13 C24.37130845 14.292087 22.03609689 13.68914318 18.39453125 12.6015625 C17.32912109 12.28703125 16.26371094 11.9725 15.16601562 11.6484375 C14.05935547 11.31070313 12.95269531 10.97296875 11.8125 10.625 C10.69423828 10.295 9.57597656 9.965 8.42382812 9.625 C0.15484984 7.15484984 0.15484984 7.15484984 -1 6 C-1.125 3.5 -1.125 3.5 -1 1 C-0.67 0.67 -0.34 0.34 0 0 Z " fill="#231F20" transform="translate(637,92)"/>
<path d="M0 0 C0.33 1.65 0.66 3.3 1 5 C-6.80727324 10.20484883 -17.96428888 9.54723321 -27 9 C-28 8 -28 8 -28.125 5.5 C-28 3 -28 3 -27 2 C-24.061661 1.62276089 -21.13445029 1.29218407 -18.1875 1 C-16.55572687 0.8359254 -14.9242037 0.6693415 -13.29296875 0.5 C-12.5661792 0.4278125 -11.83938965 0.355625 -11.09057617 0.28125 C-8.98134813 0.04230503 -8.98134813 0.04230503 -6.90356445 -0.55859375 C-4.39049511 -1.14133447 -2.47408537 -0.61852134 0 0 Z " fill="#231F20" transform="translate(662,70)"/>
</svg>
