<?xml version="1.0" encoding="UTF-8"?>
<svg version="1.1" xmlns="http://www.w3.org/2000/svg" width="1280" height="778">
<path d="M0 0 C3.43161675 0.58712871 5.11591002 1.7240518 7.59106445 4.1394043 C8.61651115 5.13130013 8.61651115 5.13130013 9.66267395 6.14323425 C10.38887436 6.86295914 11.11507477 7.58268402 11.86328125 8.32421875 C12.61465866 9.06323929 13.36603607 9.80225983 14.1401825 10.56367493 C15.72518125 12.12910821 17.30604419 13.69873844 18.88305664 15.2722168 C21.30354893 17.6786011 23.74938793 20.05706714 26.19726562 22.43554688 C27.73340532 23.95929148 29.26796558 25.48463037 30.80078125 27.01171875 C31.53710281 27.72132248 32.27342438 28.43092621 33.03205872 29.16203308 C34.03386421 30.17757011 34.03386421 30.17757011 35.0559082 31.21362305 C35.94715141 32.09512276 35.94715141 32.09512276 36.85639954 32.99443054 C38.55731694 35.97738491 37.88644491 37.74538782 37 41 C35.8167572 43.84750366 35.8167572 43.84750366 34.31616211 46.82177734 C33.75565659 47.94248627 33.19515106 49.06319519 32.61766052 50.21786499 C32.00439371 51.42397669 31.39095069 52.62999881 30.77734375 53.8359375 C30.15030632 55.08254419 29.52397913 56.32950837 28.89833069 57.57681274 C27.25648459 60.8452942 25.60508311 64.108854 23.95159912 67.37145996 C22.26333205 70.70694326 20.58420985 74.04702244 18.90429688 77.38671875 C15.61176394 83.9289942 12.30911594 90.46609385 9 97 C20.52997566 92.22015175 32.05373667 87.42956166 43.515625 82.48828125 C45.95218762 81.44309683 48.38912684 80.39879533 50.82617188 79.35473633 C52.47942794 78.64384288 54.13105895 77.92916117 55.78125 77.21118164 C58.22999786 76.14717613 60.68451726 75.0976632 63.140625 74.05078125 C63.87589417 73.72701004 64.61116333 73.40323883 65.36871338 73.06965637 C71.34340923 70.54924949 71.34340923 70.54924949 75 72 C77.04426575 73.62966919 77.04426575 73.62966919 79.23364258 75.76611328 C80.46930717 76.96338547 80.46930717 76.96338547 81.72993469 78.18484497 C82.60925156 79.05454926 83.48856842 79.92425354 84.39453125 80.8203125 C85.30128098 81.71233368 86.2080307 82.60435486 87.14225769 83.52340698 C89.05704131 85.41422757 90.96778513 87.30840078 92.8737793 89.20800781 C95.3146763 91.63802521 97.77997388 94.04157539 100.25217152 96.43968391 C102.60887831 98.73633829 104.9372472 101.0614005 107.26953125 103.3828125 C108.15896927 104.2403714 109.04840729 105.0979303 109.96479797 105.98147583 C115.94748184 112.03138087 115.94748184 112.03138087 116.203125 116.74633789 C115.0690464 119.81327489 113.93922255 122.74888199 112.48046875 125.67578125 C111.95815674 126.73917725 111.43584473 127.80257324 110.89770508 128.89819336 C110.3333374 130.02491455 109.76896973 131.15163574 109.1875 132.3125 C108.00586956 134.71522011 106.8260732 137.11876472 105.6484375 139.5234375 C105.34720474 140.13624069 105.04597198 140.74904388 104.73561096 141.38041687 C101.48239144 148.01487398 98.39090491 154.72033209 95.3125 161.4375 C94.32959943 163.58211025 93.34653966 165.72664754 92.36328125 167.87109375 C91.95376221 168.76755615 91.54424316 169.66401855 91.12231445 170.58764648 C90.11831003 172.74569905 89.0770635 174.87765115 88 177 C89.07145264 176.47680176 90.14290527 175.95360352 91.24682617 175.41455078 C100.69396845 170.80255691 110.14508245 166.19885373 119.60075378 161.60437012 C124.45103337 159.24593568 129.2925153 156.87123126 134.125 154.4765625 C135.97906874 153.56750857 137.83322412 152.65863133 139.6875 151.75 C140.50307373 151.3389502 141.31864746 150.92790039 142.15893555 150.50439453 C147.43630616 147.94002617 147.43630616 147.94002617 150.00138855 148.2129364 C152.4166342 149.16407272 153.74340961 150.34949462 155.59106445 152.17114258 C156.27469559 152.83886185 156.95832672 153.50658112 157.66267395 154.1945343 C158.75197456 155.28353279 158.75197456 155.28353279 159.86328125 156.39453125 C160.61465866 157.13829514 161.36603607 157.88205902 162.1401825 158.64836121 C163.72500721 160.22238384 165.30587455 161.80039956 166.88305664 163.38208008 C169.30677887 165.80677657 171.75103675 168.20936599 174.19726562 170.61132812 C175.73306969 172.14192699 177.26761893 173.67378621 178.80078125 175.20703125 C179.53710281 175.92695755 180.27342438 176.64688385 181.03205872 177.3886261 C181.69992905 178.06580185 182.36779938 178.7429776 183.0559082 179.44067383 C183.65007034 180.03278152 184.24423248 180.62488922 184.85639954 181.23493958 C186 183 186 183 185.90464783 185.09916687 C184.7605778 187.50307052 183.89316212 187.92450063 181.46972656 188.97265625 C180.71235703 189.30899582 179.95498749 189.64533539 179.17466736 189.99186707 C178.33843338 190.34517593 177.5021994 190.6984848 176.640625 191.0625 C175.32832664 191.63820488 175.32832664 191.63820488 173.98951721 192.22554016 C171.08212519 193.49743774 168.16619125 194.74842502 165.25 196 C163.21115184 196.8880055 161.1729934 197.77759609 159.13549805 198.66870117 C154.88707687 200.52533656 150.63572984 202.37502887 146.38232422 204.22021484 C137.4382759 208.10709612 128.53441142 212.08362994 119.62878418 216.05752563 C116.82071482 217.30883936 114.01083102 218.55597601 111.20019531 219.80151367 C103.21331644 223.34114419 95.22993877 226.88640591 87.27555847 230.49861145 C84.09581284 231.94131019 80.91179213 233.37440919 77.72714233 234.8062439 C76.25912736 235.46951494 74.79325951 236.13756187 73.32974243 236.81069946 C71.33963806 237.72576372 69.34285857 238.62434975 67.34375 239.51953125 C66.23193359 240.02589111 65.12011719 240.53225098 63.97460938 241.05395508 C60.64241592 242.11372606 59.3040617 241.97642651 56 241 C54.13919067 239.6605835 54.13919067 239.6605835 52.38720703 237.93652344 C51.72367218 237.29205261 51.06013733 236.64758179 50.37649536 235.98358154 C49.67733002 235.28259338 48.97816467 234.58160522 48.2578125 233.859375 C47.53004608 233.14017883 46.80227966 232.42098267 46.05245972 231.67999268 C44.51946625 230.15847251 42.99167032 228.63170017 41.46875 227.10009766 C39.12989439 224.75490764 36.76562892 222.43763691 34.3984375 220.12109375 C32.91244285 218.63964367 31.42801256 217.15662244 29.9453125 215.671875 C28.87834641 214.63253815 28.87834641 214.63253815 27.78982544 213.57220459 C27.14520355 212.91512512 26.50058167 212.25804565 25.83642578 211.58105469 C24.97635422 210.7228714 24.97635422 210.7228714 24.09890747 209.84735107 C23 208 23 208 23.26661682 205.42193604 C24.02867201 202.90531311 24.93582085 200.583691 26.01953125 198.1875 C26.45547607 197.21546631 26.8914209 196.24343262 27.34057617 195.24194336 C27.82631104 194.17210205 28.3120459 193.10226074 28.8125 192 C29.60067124 190.24613473 30.3888053 188.49225261 31.17616272 186.73802185 C31.76385457 185.42927447 32.35220909 184.12082451 32.94114685 182.81263733 C35.71756552 176.64299068 38.46621391 170.46114621 41.2109375 164.27734375 C41.66137924 163.26257965 42.11182098 162.24781555 42.57591248 161.20230103 C43.48991276 159.14295281 44.40384802 157.08357574 45.31771851 155.02416992 C47.52709221 150.04556029 49.7375123 145.0674175 51.94921875 140.08984375 C52.34350067 139.20143295 52.73778259 138.31302216 53.14401245 137.39768982 C53.50600739 136.58316849 53.86800232 135.76864716 54.2409668 134.92944336 C54.55784958 134.21590195 54.87473236 133.50236053 55.20121765 132.76719666 C55.7743693 131.49917706 56.37768553 130.24462894 57 129 C52.06644187 130.53382902 47.44705298 132.50684924 42.75390625 134.640625 C41.95768356 134.99995117 41.16146088 135.35927734 40.34111023 135.72949219 C38.63305061 136.5007426 36.92557315 137.27328339 35.21862793 138.04699707 C32.54244649 139.25908256 29.86382661 140.46562666 27.18457031 141.67089844 C19.38577631 145.18296943 11.59432977 148.70783684 3.84532166 152.32867432 C0.98497241 153.66485888 -1.88008321 154.99077504 -4.74539185 156.31628418 C-6.0769615 156.93650896 -7.40584428 157.56253667 -8.73190308 158.19445801 C-10.55954574 159.06531951 -12.39674443 159.91604196 -14.234375 160.765625 C-15.25756836 161.24805664 -16.28076172 161.73048828 -17.33496094 162.22753906 C-20 163 -20 163 -21.94885254 162.25180054 C-24.10924115 160.93333091 -25.70199352 159.53876037 -27.48339844 157.74365234 C-28.47397247 156.75285172 -28.47397247 156.75285172 -29.48455811 155.74203491 C-30.18574768 155.03052277 -30.88693726 154.31901062 -31.609375 153.5859375 C-32.69958954 152.49147812 -32.69958954 152.49147812 -33.81182861 151.37490845 C-36.12929198 149.0462612 -38.4396995 146.71075174 -40.75 144.375 C-42.32115444 142.79381347 -43.89276371 141.21307875 -45.46484375 139.6328125 C-49.31518653 135.7604331 -53.15976117 131.88239829 -57 128 C-55.40904944 122.86603432 -53.328892 118.0467757 -51.1328125 113.15234375 C-50.74608871 112.28432632 -50.35936493 111.4163089 -49.96092224 110.52198792 C-48.68486151 107.65933321 -47.40491982 104.79843109 -46.125 101.9375 C-45.22749351 99.92591048 -44.3302814 97.91418959 -43.43334961 95.90234375 C-41.56360425 91.70897886 -39.69258045 87.51618767 -37.82080078 83.32373047 C-33.8102914 74.33728575 -29.81975465 65.34198001 -25.82702637 56.34762573 C-22.59096519 49.06024025 -19.34933734 41.77532912 -16.10784912 34.49035645 C-15.0370607 32.08330949 -13.96694048 29.67596651 -12.89697266 27.26855469 C-11.33906232 23.7639978 -9.77834923 20.26070445 -8.21505737 16.75854492 C-7.40141783 14.93423306 -6.59043453 13.10873723 -5.77954102 11.28320312 C-5.30315186 10.21779297 -4.8267627 9.15238281 -4.3359375 8.0546875 C-3.92907715 7.14187012 -3.5222168 6.22905273 -3.10302734 5.28857422 C-2 3 -2 3 0 0 Z " fill="#231F20" transform="translate(703,56)"/>
<path d="M0 0 C2.40104675 0.88212585 2.40104675 0.88212585 4.39884949 4.15971375 C5.06366847 5.6327326 5.70746573 7.11534575 6.3346405 8.6047821 C6.86576698 9.80283981 6.86576698 9.80283981 7.40762329 11.02510071 C8.56937577 13.65740171 9.70380068 16.30058406 10.83854675 18.94462585 C11.64623611 20.78823437 12.45566171 22.63108315 13.26676941 24.47319031 C15.29545773 29.09145654 17.30309909 33.71851874 19.30418396 38.34880066 C20.85480425 41.93012868 22.42149383 45.50430782 23.9908905 49.07743835 C25.63362388 52.82033107 27.27476795 56.56386043 28.90592957 60.31181335 C35.10122631 74.54246437 41.42369725 88.71663013 47.7384491 102.89457703 C48.15761093 103.83604584 48.57677277 104.77751465 49.00863647 105.74751282 C49.79503158 107.51357556 50.58187591 109.27943837 51.3692627 111.0450592 C52.06620396 112.6100112 52.75960832 114.17654521 53.44874573 115.74494934 C54.06678342 117.13196417 54.70338603 118.51090969 55.36140442 119.87940979 C57.46084315 124.35583212 57.46084315 124.35583212 57.17674255 126.85632324 C56.23264565 129.32192119 55.04213998 130.60237315 53.16642761 132.45732117 C52.48579758 133.13772461 51.80516754 133.81812805 51.10391235 134.51914978 C49.99609154 135.60374481 49.99609154 135.60374481 48.8658905 136.71025085 C48.11263992 137.45925659 47.35938934 138.20826233 46.58331299 138.97996521 C44.17533631 141.37114629 41.7571393 143.75168751 39.33854675 146.13212585 C37.70439938 147.75122762 36.0709272 149.37101118 34.43815613 150.99150085 C30.43358829 154.96298767 26.42057868 158.92578795 22.40104675 162.88212585 C15.67093833 160.24009956 9.02756164 157.44743816 2.42448425 154.5032196 C1.50339371 154.09412857 0.58230316 153.68503754 -0.36669922 153.2635498 C-3.3200379 151.95096692 -6.27206572 150.63546862 -9.22395325 149.31962585 C-11.25088943 148.41760614 -13.27782629 147.51558791 -15.30476379 146.61357117 C-29.11286689 140.46305117 -42.88973133 134.25048953 -56.59895325 127.88212585 C-56.14270569 128.89484558 -55.68645813 129.90756531 -55.21638489 130.95097351 C-43.97261808 155.91110374 -32.76607734 180.88761294 -21.59895325 205.88212585 C-27.45743266 212.87355228 -33.75960238 219.36944244 -40.16706848 225.85527039 C-41.50471372 227.21469391 -42.83604644 228.58035575 -44.16120911 229.95195007 C-46.08587318 231.9432107 -48.02923263 233.91434395 -49.9778595 235.88212585 C-50.56757034 236.49966736 -51.15728119 237.11720886 -51.76486206 237.75346375 C-55.88879805 241.85699905 -55.88879805 241.85699905 -59.01399231 241.96757507 C-59.86702942 241.60937683 -60.72006653 241.25117859 -61.59895325 240.88212585 C-62.80833557 240.39888855 -64.0177179 239.91565125 -65.26374817 239.41777039 C-66.70461619 238.78875842 -68.14302498 238.15409428 -69.579422 237.51493835 C-70.7617466 236.99562492 -70.7617466 236.99562492 -71.96795654 236.46582031 C-74.57643803 235.31809733 -77.18148059 234.16278828 -79.78645325 233.00712585 C-81.62799037 232.19448741 -83.4696262 231.38207261 -85.31135559 230.56987 C-99.88872007 224.12984409 -114.41044016 217.56776095 -128.9099884 210.95463562 C-137.85655929 206.88188875 -146.83173797 202.89695801 -155.876297 199.04618835 C-156.7888324 198.65599014 -157.7013678 198.26579193 -158.64155579 197.86376953 C-163.01397316 195.99457435 -167.39147388 194.14003226 -171.78108215 192.31156921 C-173.33653497 191.64954071 -174.89172611 190.98689691 -176.4466095 190.3235321 C-177.16106735 190.03269745 -177.87552521 189.74186279 -178.6116333 189.44221497 C-183.30427548 187.4146604 -183.30427548 187.4146604 -184.70808411 184.87773132 C-184.56265735 182.21840633 -183.83466591 181.44131193 -182.00520325 179.5110321 C-181.35551575 178.81638855 -180.70582825 178.121745 -180.03645325 177.40605164 C-179.23207825 176.57315613 -178.42770325 175.74026062 -177.59895325 174.88212585 C-176.59803183 173.81902778 -175.59809973 172.75499773 -174.59895325 171.69023132 C-171.73874015 168.6567672 -168.83832042 165.66531857 -165.91975403 162.68803406 C-164.69780768 161.43413818 -163.48399785 160.17226532 -162.27815247 158.90287781 C-160.51855613 157.05228425 -158.73428982 155.22904381 -156.94270325 153.4094696 C-156.41019958 152.83881271 -155.87769592 152.26815582 -155.32905579 151.6802063 C-153.76106262 150.12016296 -153.76106262 150.12016296 -150.59895325 147.88212585 C-145.71976015 148.16429131 -141.9975223 149.37445942 -137.66365051 151.56596375 C-136.54301712 152.12646927 -135.42238373 152.68697479 -134.26779175 153.26446533 C-133.06687085 153.87768859 -131.86606265 154.49113261 -130.6653595 155.1047821 C-129.42027096 155.73199528 -128.17473422 156.35831942 -126.92877197 156.98379517 C-123.66760418 158.62387554 -120.41262586 160.27588246 -117.15882874 161.93052673 C-113.8307057 163.62026743 -110.49681569 165.29854803 -107.16340637 166.97782898 C-100.63625426 170.26813093 -94.11560428 173.57106579 -87.59895325 176.88212585 C-92.37258829 165.36106857 -97.15782524 153.84702181 -102.110672 142.4016571 C-103.15603552 139.97176365 -104.20030448 137.54140279 -105.24421692 135.11088562 C-105.95450409 133.46419736 -106.66920707 131.81940846 -107.38777161 130.17631531 C-108.45349631 127.73567562 -109.50233324 125.28837131 -110.548172 122.8391571 C-110.87194321 122.10904922 -111.19571442 121.37894135 -111.52929688 120.62670898 C-113.25113582 116.54549239 -113.94610611 114.11058294 -112.59895325 109.88212585 C-110.98706055 107.76902771 -110.98706055 107.76902771 -108.87702942 105.65849304 C-108.08918564 104.86126831 -107.30134186 104.06404358 -106.48962402 103.24266052 C-105.63238235 102.39665283 -104.77514069 101.55064514 -103.891922 100.67900085 C-103.01498184 99.80060547 -102.13804169 98.92221008 -101.23452759 98.01719666 C-98.90402008 95.68877341 -96.56430675 93.3700977 -94.22096252 91.05461121 C-92.78702935 89.63269713 -91.36009938 88.20413517 -89.93562317 86.77275085 C-87.2001687 84.0247234 -84.45434624 81.28754123 -81.704422 78.55400085 C-80.85325302 77.69989624 -80.00208405 76.84579163 -79.12512207 75.96580505 C-78.32782181 75.18118896 -77.53052155 74.39657288 -76.70906067 73.58818054 C-76.01036362 72.89488647 -75.31166656 72.20159241 -74.59179688 71.48728943 C-72.49342397 69.79712583 -71.26407924 69.15068982 -68.59895325 68.88212585 C-66.17562438 69.77464569 -63.98761111 70.72280015 -61.68489075 71.8625946 C-61.00543396 72.1870607 -60.32597717 72.51152679 -59.62593079 72.8458252 C-57.40334061 73.90983683 -55.18886644 74.98973746 -52.97395325 76.06962585 C-51.44740356 76.80336261 -49.92021724 77.53577625 -48.39241028 78.26689148 C-46.06750028 79.37972473 -43.74306013 80.49344115 -41.42070007 81.61158752 C-34.14165192 85.1155477 -26.81574656 88.51206264 -19.47395325 91.88212585 C-18.36713196 92.39154724 -17.26031067 92.90096863 -16.11994934 93.42582703 C-13.61354419 94.57922595 -11.10658089 95.73138792 -8.59895325 96.88212585 C-11.80274672 88.91803653 -15.32170749 81.21332651 -19.22395325 73.56962585 C-20.27331231 71.48428272 -21.32145637 69.3983278 -22.3684845 67.31181335 C-23.16440002 65.72771667 -23.16440002 65.72771667 -23.97639465 64.11161804 C-24.51183899 63.04588562 -25.04728333 61.9801532 -25.59895325 60.88212585 C-26.1408429 59.80608093 -26.68273254 58.73003601 -27.24104309 57.62138367 C-28.81245851 54.48613276 -30.36421111 51.34186276 -31.91145325 48.19462585 C-32.39759094 47.23322693 -32.88372864 46.271828 -33.38459778 45.28129578 C-33.8227179 44.38257751 -34.26083801 43.48385925 -34.7122345 42.5579071 C-35.1019342 41.77327087 -35.49163391 40.98863464 -35.8931427 40.18022156 C-36.77855386 37.29735223 -36.42140202 35.76923546 -35.59895325 32.88212585 C-34.25953674 31.02131653 -34.25953674 31.02131653 -32.53547668 29.26933289 C-31.89100586 28.60579803 -31.24653503 27.94226318 -30.58253479 27.25862122 C-29.88154663 26.55945587 -29.18055847 25.86029053 -28.45832825 25.13993835 C-27.73913208 24.41217194 -27.01993591 23.68440552 -26.27894592 22.93458557 C-24.75742576 21.40159211 -23.23065342 19.87379618 -21.6990509 18.35087585 C-19.35386089 16.01202024 -17.03659015 13.64775477 -14.720047 11.28056335 C-13.23859692 9.79456871 -11.75557569 8.31013841 -10.27082825 6.82743835 C-9.23149139 5.76047226 -9.23149139 5.76047226 -8.17115784 4.67195129 C-7.51407837 4.02732941 -6.8569989 3.38270752 -6.18000793 2.71855164 C-5.60788574 2.14517059 -5.03576355 1.57178955 -4.44630432 0.98103333 C-2.59895325 -0.11787415 -2.59895325 -0.11787415 0 0 Z " fill="#FBAE17" transform="translate(575.5989532470703,53.11787414550781)"/>
<path d="M0 0 C1.49672241 0.56871826 1.49672241 0.56871826 3.02368164 1.14892578 C3.62522568 1.37721573 4.22676971 1.60550568 4.84654236 1.8407135 C6.98307712 2.68840101 9.07491932 3.61056433 11.17211914 4.55126953 C12.36038803 5.07461632 12.36038803 5.07461632 13.57266235 5.60853577 C16.18438168 6.76107914 18.79152029 7.92361289 21.39868164 9.08642578 C23.24222056 9.90265789 25.08597419 10.71840524 26.92993164 11.53369141 C40.9515583 17.74285343 54.9328332 24.04225076 68.90795898 30.35522461 C87.54757336 38.76858749 106.28325595 46.96314995 125.02368164 55.14892578 C125.26066029 57.99148416 125.36833143 59.62556246 123.77328491 62.04769897 C123.18737579 62.64361847 122.60146667 63.23953796 121.99780273 63.85351562 C121.33646332 64.53707123 120.6751239 65.22062683 119.9937439 65.92489624 C119.26885773 66.64593536 118.54397156 67.36697449 117.79711914 68.10986328 C117.05668365 68.85982574 116.31624817 69.60978821 115.55337524 70.38247681 C113.98423299 71.96378311 112.40855276 73.5386245 110.8269043 75.10742188 C108.40749706 77.5151529 106.02179185 79.9530925 103.63696289 82.39501953 C102.10895858 83.92690858 100.57907132 85.45692226 99.04711914 86.98486328 C98.33437836 87.71804779 97.62163757 88.4512323 96.88729858 89.20663452 C95.86692001 90.20359848 95.86692001 90.20359848 94.82592773 91.22070312 C93.93990372 92.10742203 93.93990372 92.10742203 93.03598022 93.01205444 C90.04771113 94.7003116 88.27808023 94.03456124 85.02368164 93.14892578 C82.17617798 91.96568298 82.17617798 91.96568298 79.2019043 90.46508789 C78.08119537 89.90458237 76.96048645 89.34407684 75.80581665 88.7665863 C74.59970495 88.15331949 73.39368283 87.53987648 72.18774414 86.92626953 C70.94113745 86.2992321 69.69417328 85.67290491 68.4468689 85.04725647 C65.17838744 83.40541038 61.91482764 81.75400889 58.65222168 80.1005249 C55.31673838 78.41225783 51.9766592 76.73313563 48.63696289 75.05322266 C42.09468744 71.76068972 35.55758779 68.45804173 29.02368164 65.14892578 C31.27491467 72.3187097 34.08444172 79.10702083 37.12915039 85.97314453 C38.12240067 88.24054234 39.11522672 90.50812602 40.10766602 92.77587891 C41.66341827 96.31974211 43.22251046 99.86201947 44.7890625 103.40112305 C46.30806311 106.83758572 47.81331034 110.27980788 49.31665039 113.72314453 C50.02436836 115.30768684 50.02436836 115.30768684 50.74638367 116.92424011 C51.17715714 117.91579605 51.6079306 118.90735199 52.05175781 119.92895508 C52.43353683 120.79449509 52.81531586 121.6600351 53.20866394 122.55180359 C54.1820742 125.65365696 54.40871918 127.91496476 54.02368164 131.14892578 C52.51426697 133.43370056 52.51426697 133.43370056 50.37109375 135.60961914 C49.57283676 136.43324448 48.77457977 137.25686981 47.95213318 138.10545349 C47.07726761 138.97444778 46.20240204 139.84344208 45.30102539 140.73876953 C44.40758926 141.64268936 43.51415314 142.54660919 42.59364319 143.47792053 C40.69992243 145.38448902 38.80107472 147.2835283 36.89111328 149.17358398 C34.44799453 151.59370628 32.03805604 154.0441079 29.6358099 156.50472164 C27.33461279 158.85148353 25.00385377 161.16846787 22.67602539 163.48876953 C21.81532944 164.37193344 20.95463348 165.25509735 20.06785583 166.1650238 C14.00120292 172.09292397 14.00120292 172.09292397 9.31616211 172.36132812 C6.02731104 171.15026225 2.85406957 169.92457631 -0.30834961 168.41064453 C-0.8945961 168.13349106 -1.48084259 167.85633759 -2.08485413 167.57078552 C-3.99034508 166.66781716 -5.88943387 165.75215892 -7.78881836 164.83642578 C-9.11205559 164.20696989 -10.43579298 163.57856441 -11.76000977 162.95117188 C-13.79561491 161.98641348 -15.83080376 161.02085394 -17.86431885 160.05169678 C-24.83190419 156.73114041 -31.83877893 153.49818923 -38.85131836 150.27392578 C-41.01541553 149.27660518 -43.17948152 148.27921691 -45.34350586 147.28173828 C-46.88773127 146.57070212 -48.43198281 145.85972269 -49.97631836 145.14892578 C-49.2346226 149.06949179 -47.48074132 152.47228501 -45.73022461 156.02001953 C-45.40311996 156.69067947 -45.07601532 157.36133942 -44.73899841 158.05232239 C-44.03821801 159.48826304 -43.33577851 160.92339498 -42.63183594 162.35778809 C-41.5346197 164.59498676 -40.44309262 166.83487416 -39.35327148 169.07568359 C-36.14709953 175.66589479 -32.92743191 182.24921837 -29.69116211 188.82470703 C-28.78588175 190.682618 -27.88090499 192.54067695 -26.97631836 194.39892578 C-26.56196533 195.229646 -26.1476123 196.06036621 -25.72070312 196.91625977 C-25.35130615 197.6788208 -24.98190918 198.44138184 -24.60131836 199.22705078 C-24.28420898 199.87061523 -23.96709961 200.51417969 -23.64038086 201.17724609 C-22.79971737 203.67327489 -22.74716075 205.52209026 -22.97631836 208.14892578 C-24.20220947 209.99627686 -24.20220947 209.99627686 -25.94213867 211.72998047 C-26.58991272 212.38705994 -27.23768677 213.0441394 -27.90509033 213.72113037 C-28.61437683 214.41402161 -29.32366333 215.10691284 -30.05444336 215.82080078 C-30.77742615 216.54382385 -31.50040894 217.26684692 -32.24530029 218.01177979 C-33.77615996 219.53727945 -35.31314067 221.05665749 -36.85571289 222.5703125 C-39.21733821 224.89010471 -41.55694593 227.2304754 -43.89428711 229.57470703 C-45.38391355 231.0538406 -46.87475914 232.53174759 -48.36694336 234.00830078 C-49.06813293 234.70928894 -49.76932251 235.4102771 -50.49176025 236.13250732 C-51.15214294 236.77697815 -51.81252563 237.42144897 -52.49291992 238.08544922 C-53.07027893 238.65438904 -53.64763794 239.22332886 -54.24249268 239.80950928 C-56.15137889 241.2841637 -57.61908769 241.74086438 -59.97631836 242.14892578 C-62.97535261 238.60055498 -64.68895729 234.59959253 -66.50366211 230.37158203 C-66.84435226 229.5900174 -67.18504242 228.80845276 -67.53605652 228.00320435 C-68.27663463 226.30295017 -69.01486908 224.60167368 -69.7510376 222.89950562 C-71.75940805 218.25661824 -73.78546407 213.62144001 -75.80834961 208.98486328 C-76.23077942 208.01524155 -76.65320923 207.04561981 -77.08843994 206.0466156 C-81.29450971 196.39885991 -85.56245375 186.7790397 -89.8432312 177.16424561 C-91.09887399 174.34192003 -92.35155334 171.51829584 -93.60351562 168.69433594 C-97.25394345 160.46682806 -100.91863936 152.24742462 -104.6678772 144.06437683 C-106.20854678 140.69979147 -107.73851612 137.33039207 -109.26776123 133.96060181 C-109.98417692 132.39086736 -110.70629864 130.8237233 -111.43438721 129.2593689 C-112.4285075 127.12316715 -113.40352037 124.97919966 -114.37475586 122.83251953 C-114.67150208 122.20871399 -114.96824829 121.58490845 -115.27398682 120.94219971 C-117.17300479 116.67413932 -117.17300479 116.67413932 -116.23760986 114.17634583 C-114.90880021 112.04039604 -113.50451083 110.43644503 -111.7199707 108.66552734 C-110.72917007 107.67495331 -110.72917007 107.67495331 -109.71835327 106.66436768 C-109.00684113 105.9631781 -108.29532898 105.26198853 -107.56225586 104.53955078 C-106.83261627 103.81274109 -106.10297668 103.0859314 -105.35122681 102.33709717 C-103.02257956 100.0196338 -100.6870701 97.70922628 -98.35131836 95.39892578 C-96.77013183 93.82777134 -95.18939711 92.25616207 -93.60913086 90.68408203 C-89.73675146 86.83373926 -85.85871665 82.98916461 -81.97631836 79.14892578 C-76.11640734 81.00067231 -70.49855435 83.11674163 -64.90991211 85.66845703 C-64.16496994 86.00403625 -63.42002777 86.33961548 -62.6525116 86.68536377 C-61.06074142 87.40282829 -59.46982162 88.12218202 -57.87969971 88.84329224 C-53.67246366 90.7510287 -49.45886223 92.64461399 -45.24584961 94.53955078 C-44.39222839 94.92389786 -43.53860718 95.30824493 -42.65911865 95.70423889 C-33.99889486 99.59888367 -25.30495362 103.41498202 -16.60131836 107.21142578 C-15.90247528 107.51641998 -15.2036322 107.82141418 -14.48361206 108.13565063 C-10.64882219 109.80898555 -6.8130827 111.48012188 -2.97631836 113.14892578 C-8.49127899 100.22729193 -14.19493607 87.40052323 -20.04983521 74.63006592 C-21.09870107 72.34213497 -22.14597673 70.05348208 -23.19287109 67.76464844 C-26.05128184 61.51796485 -28.91454414 55.27413064 -31.81616211 49.04736328 C-32.55737756 47.43553584 -33.29830167 45.82357437 -34.03881836 44.21142578 C-34.3670459 43.52137451 -34.69527344 42.83132324 -35.03344727 42.12036133 C-37.04412776 37.70365475 -37.04412776 37.70365475 -36.73490906 35.17402649 C-35.833792 32.76844363 -34.72007409 31.48676616 -32.92871094 29.6496582 C-32.2874678 28.98604782 -31.64622467 28.32243744 -30.98554993 27.63871765 C-29.93877327 26.58222771 -29.93877327 26.58222771 -28.87084961 25.50439453 C-28.15402512 24.77521317 -27.43720062 24.0460318 -26.69865417 23.29475403 C-25.18029896 21.75683533 -23.65774767 20.2230497 -22.13134766 18.69311523 C-19.79737606 16.34503521 -17.491363 13.97164757 -15.18530273 11.59619141 C-13.70713123 10.1056248 -12.2273652 8.61663741 -10.74584961 7.12939453 C-10.05811966 6.41494675 -9.37038971 5.70049896 -8.66181946 4.96440125 C-3.82117066 0.19119958 -3.82117066 0.19119958 0 0 Z " fill="#231F20" transform="translate(759.976318359375,311.85107421875)"/>
<path d="M0 0 C2.52320968 1.6448904 4.49633853 3.59984568 6.62081909 5.73504639 C7.52380737 6.63996826 8.42679565 7.54489014 9.35714722 8.47723389 C9.82402954 8.95031982 10.29091187 9.42340576 10.77194214 9.91082764 C12.17487905 11.33181572 13.58627277 12.74443832 14.99777222 14.15692139 C22.01641992 21.22046449 28.52001974 28.57872511 34.88253784 36.22723389 C34.4816394 37.0989624 34.08074097 37.97069092 33.66769409 38.86883545 C26.05360833 55.43474748 18.48299261 72.01959405 11.06222534 88.67315674 C10.36232206 90.24364573 9.66148417 91.81371855 8.95968628 93.38336182 C7.97523522 95.58650592 6.99467838 97.79133983 6.01535034 99.99676514 C5.72644928 100.64222794 5.43754822 101.28769073 5.13989258 101.95271301 C3.50300945 105.65439914 2.10063042 109.36772196 0.88253784 113.22723389 C5.25136735 111.2913023 9.61941803 109.35362426 13.98703003 107.41494751 C16.39182291 106.34811477 18.79733355 105.28291165 21.20285034 104.2177124 C30.1736524 100.24010821 39.11999542 96.21473185 48.03878784 92.12176514 C50.76515081 90.87576742 53.49188649 89.6305888 56.21871948 88.38562012 C57.99326945 87.57230504 59.76590594 86.75480185 61.53659058 85.93310547 C64.02230361 84.77991008 66.51409398 83.64093837 69.00753784 82.50457764 C69.74766113 82.15643509 70.48778442 81.80829254 71.25033569 81.44960022 C76.31840859 79.16269151 76.31840859 79.16269151 78.88600159 79.45645142 C81.26113422 80.37339474 82.56042706 81.49881607 84.38180542 83.27484131 C85.0454158 83.91608444 85.70902618 84.55732758 86.39274597 85.21800232 C87.44923592 86.26477898 87.44923592 86.26477898 88.52706909 87.33270264 C89.25625046 88.04952713 89.98543182 88.76635162 90.73670959 89.50489807 C92.2746283 91.02325329 93.80841392 92.54580457 95.33834839 94.07220459 C97.68642841 96.40617619 100.05981605 98.71218925 102.43527222 101.01824951 C103.92583883 102.49642102 105.41482622 103.97618704 106.90206909 105.45770264 C107.61651688 106.14543259 108.33096466 106.83316254 109.06706238 107.54173279 C113.83596547 112.37802227 113.83596547 112.37802227 114.0451355 116.19207764 C112.56808308 120.0481708 111.00686391 123.81662029 109.26144409 127.55926514 C108.89025955 128.37108749 108.51907501 129.18290985 108.13664246 130.01933289 C107.33316204 131.77527227 106.52656491 133.52978815 105.7171936 135.28302002 C103.53161386 140.01908943 101.37032953 144.76623723 99.20675659 149.51239014 C98.76112366 150.48856293 98.31549072 151.46473572 97.85635376 152.4704895 C93.77448928 161.42720037 89.80194413 170.42971844 85.86233521 179.44973755 C84.75912955 181.97359246 83.65224363 184.49580087 82.54415894 187.01751709 C79.11632089 194.82169972 75.70369908 202.63156226 72.33712769 210.46240234 C70.79701454 214.03529667 69.24166109 217.60142526 67.68313599 221.1663208 C66.94648106 222.8611482 66.21667001 224.55896824 65.49404907 226.25982666 C64.49883444 228.60063854 63.48077621 230.93016028 62.45675659 233.25848389 C62.16791092 233.95423523 61.87906525 234.64998657 61.58146667 235.36682129 C60.72506714 237.27606201 60.72506714 237.27606201 58.88253784 240.22723389 C56.49891663 241.0927124 56.49891663 241.0927124 53.88253784 241.22723389 C51.98376465 240.1038208 51.98376465 240.1038208 50.177948 238.33074951 C49.4943924 237.67256226 48.81083679 237.014375 48.10656738 236.33624268 C47.38552826 235.60933228 46.66448914 234.88242187 45.92160034 234.13348389 C45.17163788 233.39400513 44.42167542 232.65452637 43.64898682 231.89263916 C42.06644619 230.32295297 40.49163797 228.74543852 38.92404175 227.16082764 C36.51980849 224.73959132 34.08072324 222.35795488 31.63644409 219.97723389 C30.10423354 218.44824794 28.57420948 216.91706711 27.04660034 215.38348389 C26.31341583 214.67276733 25.58023132 213.96205078 24.8248291 213.22979736 C23.82786514 212.20469055 23.82786514 212.20469055 22.8107605 211.15887451 C22.21961456 210.56739624 21.62846863 209.97591797 21.01940918 209.36651611 C19.26863136 206.07202908 20.04710422 203.78718057 20.88253784 200.22723389 C22.06578064 197.25947571 22.06578064 197.25947571 23.56637573 194.29193115 C24.12688126 193.17129776 24.68738678 192.05066437 25.26487732 190.89607239 C25.87810057 189.69515149 26.49154459 188.49434329 27.10519409 187.29364014 C27.73240727 186.0485516 28.3587314 184.80301486 28.98420715 183.55705261 C30.62428753 180.29588482 32.27629444 177.0409065 33.93093872 173.78710938 C35.62067941 170.45898634 37.29896001 167.12509633 38.97824097 163.79168701 C42.26854292 157.2645349 45.57147778 150.74388492 48.88253784 144.22723389 C48.24075592 144.50649719 47.598974 144.7857605 46.93774414 145.07348633 C40.84900988 147.72261086 34.75965855 150.3703113 28.66963387 153.01646805 C25.53974652 154.37648313 22.41008899 155.73702155 19.28097534 157.09881592 C15.67230454 158.6692855 12.06260024 160.23737114 8.45285034 161.80535889 C7.34515289 162.28781067 6.23745544 162.77026245 5.09619141 163.26733398 C3.0062832 164.17432584 0.91372215 165.07523748 -1.18185425 165.96905518 C-3.12340687 166.80118953 -5.05688506 167.65244783 -6.98129272 168.52349854 C-8.30384064 169.10146179 -8.30384064 169.10146179 -9.65310669 169.69110107 C-10.80554367 170.20939484 -10.80554367 170.20939484 -11.98126221 170.73815918 C-14.11746216 171.22723389 -14.11746216 171.22723389 -16.13188171 170.56770325 C-18.45131817 169.00184702 -20.35219112 167.2769887 -22.35110474 165.31585693 C-23.58676933 164.10901497 -23.58676933 164.10901497 -24.84739685 162.87779236 C-25.72671371 162.00697525 -26.60603058 161.13615814 -27.51199341 160.23895264 C-28.41874313 159.34360306 -29.32549286 158.44825348 -30.25971985 157.52577209 C-32.17310846 155.63126781 -34.08379914 153.73438031 -35.99124146 151.83392334 C-38.43712583 149.3990427 -40.90102922 146.9832874 -43.36963367 144.57147503 C-45.72181762 142.26544848 -48.05294251 139.938309 -50.38699341 137.61395264 C-51.27643143 136.74920822 -52.16586945 135.88446381 -53.08226013 134.99351501 C-53.89027573 134.17949722 -54.69829132 133.36547943 -55.53079224 132.52679443 C-56.24930862 131.81556931 -56.96782501 131.10434418 -57.70811462 130.37156677 C-59.11746216 128.22723389 -59.11746216 128.22723389 -58.93634033 125.67871094 C-57.77472031 122.20116701 -56.24737683 118.93125063 -54.65261841 115.63739014 C-54.1285994 114.53719795 -54.1285994 114.53719795 -53.59399414 113.41477966 C-52.84687293 111.84741987 -52.09728829 110.28123236 -51.34545898 108.71612549 C-49.39648923 104.65865941 -47.46498972 100.59288609 -45.53152466 96.52801514 C-45.14997726 95.72709442 -44.76842987 94.92617371 -44.37532043 94.10098267 C-39.82467465 84.53590914 -35.44996873 74.89287507 -31.11746216 65.22723389 C-32.4205835 65.86000244 -32.4205835 65.86000244 -33.75003052 66.5055542 C-34.98578242 67.10550261 -36.22154151 67.70543621 -37.45730591 68.30535889 C-38.12268875 68.62841003 -38.78807159 68.95146118 -39.47361755 69.28430176 C-43.17053134 71.07875567 -46.86833091 72.87135253 -50.56765747 74.66082764 C-52.08818105 75.39647213 -53.6086888 76.13214934 -55.12918091 76.86785889 C-56.26953293 77.41959778 -56.26953293 77.41959778 -57.43292236 77.98248291 C-61.59836733 79.9999942 -65.75746413 82.02951103 -69.90776062 84.07800293 C-71.64871537 84.93656733 -73.39196769 85.79046789 -75.13528442 86.64422607 C-77.24765912 87.67879345 -79.35640674 88.72080863 -81.46096802 89.7711792 C-82.87647949 90.46098877 -82.87647949 90.46098877 -84.32058716 91.16473389 C-85.13172974 91.56563232 -85.94287231 91.96653076 -86.77859497 92.37957764 C-89.47696662 93.35752611 -91.26112601 93.49699962 -94.11746216 93.22723389 C-96.00950623 91.96337891 -96.00950623 91.96337891 -97.80618286 90.1696167 C-98.48651077 89.5018219 -99.16683868 88.8340271 -99.86778259 88.14599609 C-100.58568466 87.41483582 -101.30358673 86.68367554 -102.04324341 85.93035889 C-102.7908342 85.18518005 -103.53842499 84.44000122 -104.30867004 83.67224121 C-105.88552801 82.09440397 -107.4561781 80.51034184 -109.02102661 78.92059326 C-111.42257953 76.48472202 -113.84721039 74.07375327 -116.27566528 71.66473389 C-117.80379587 70.12970563 -119.3305371 68.59329274 -120.85574341 67.05535889 C-121.58376663 66.33229553 -122.31178986 65.60923218 -123.06187439 64.86425781 C-123.7264415 64.18385437 -124.39100861 63.50345093 -125.07571411 62.8024292 C-125.9591021 61.90974335 -125.9591021 61.90974335 -126.8603363 60.99902344 C-128.11746216 59.22723389 -128.11746216 59.22723389 -128.11746216 55.22723389 C-108.97431723 46.57441421 -89.83087596 37.92635666 -70.56835938 29.54193115 C-57.74405225 23.95861585 -44.95938082 18.28746948 -32.17996216 12.60223389 C-31.19516876 12.16413391 -30.21037537 11.72603394 -29.19573975 11.2746582 C-24.71757866 9.28220775 -20.23972127 7.28907713 -15.76223755 5.29510498 C-14.99372467 4.9577533 -14.22521179 4.62040161 -13.43341064 4.27282715 C-11.82798616 3.54801784 -10.23791983 2.78858301 -8.66162109 2.00244141 C-7.87159698 1.61723328 -7.08157288 1.23202515 -6.26760864 0.83514404 C-5.56530624 0.47925201 -4.86300385 0.12335999 -4.13941956 -0.24331665 C-2.11746216 -0.77276611 -2.11746216 -0.77276611 0 0 Z " fill="#231F20" transform="translate(516.1174621582031,308.77276611328125)"/>
<path d="M0 0 C17.16 0 34.32 0 52 0 C52 3.3 52 6.6 52 10 C48.7 10 45.4 10 42 10 C42.34705742 11.18484734 42.34705742 11.18484734 42.7011261 12.39363098 C44.89391094 19.88042733 47.08571192 27.36751071 49.27644062 34.85490894 C50.40243009 38.70315203 51.52878407 42.5512876 52.65600586 46.39916992 C53.74619617 50.12069351 54.83538359 53.84250933 55.92391014 57.56451988 C56.33694806 58.97619515 56.750332 60.38776922 57.1640873 61.79923439 C59.33003284 69.18889405 61.46347669 76.58051926 63.4025116 84.03373718 C63.82634026 85.98333162 63.82634026 85.98333162 65 87 C67.72169508 77.68171292 70.44256092 68.36318423 73.16236782 59.04434586 C74.4253014 54.71727016 75.68852069 50.3902783 76.95239258 46.06347656 C78.17203537 41.8880519 79.39092809 37.71240896 80.60930061 33.53661346 C81.0743138 31.94333852 81.53959741 30.35014247 82.00515556 28.75702667 C82.65706607 26.52605144 83.30801545 24.29479788 83.95874023 22.06347656 C84.15151047 21.40460449 84.3442807 20.74573242 84.54289246 20.06689453 C85.4195927 17.05719776 86.27135733 14.04927122 87 11 C84.36 10.67 81.72 10.34 79 10 C79 6.7 79 3.4 79 0 C95.83 0 112.66 0 130 0 C130 3.3 130 6.6 130 10 C127.03 10 124.06 10 121 10 C123.84733321 19.89300799 126.69816445 29.78500041 129.55351925 39.67569637 C130.879132 44.26791842 132.20351768 48.86048708 133.52514648 53.45385742 C134.79961743 57.88316179 136.07724949 62.31154281 137.35711861 66.73929024 C137.845889 68.43231992 138.33350155 70.12568429 138.81995964 71.81937981 C139.49926435 74.18377583 140.18260298 76.54696951 140.86694336 78.90991211 C141.06906433 79.61697296 141.2711853 80.32403381 141.47943115 81.05252075 C142.23823736 84.29171165 142.23823736 84.29171165 144 87 C151.26 61.92 158.52 36.84 166 11 C162.7 10.67 159.4 10.34 156 10 C156 6.7 156 3.4 156 0 C166.23 0 176.46 0 187 0 C187 3.3 187 6.6 187 10 C184.36 10.33 181.72 10.66 179 11 C176.00840192 21.33811612 173.017326 31.67638318 170.0268631 42.01482773 C168.63729158 46.81871179 167.24755996 51.62254939 165.85742188 56.42626953 C164.51314841 61.07153413 163.16932531 65.71692882 161.82580566 70.3624115 C161.29657231 72.19209413 160.76719431 74.02173492 160.2376709 75.85133362 C157.62841904 84.86737872 155.02508219 93.88480355 152.46875 102.91601562 C152.27802666 103.58874134 152.08730331 104.26146706 151.89080048 104.9545784 C151.02157949 108.02124992 150.15572338 111.08878659 149.29602051 114.15814209 C149.00304077 115.19424622 148.71006104 116.23035034 148.40820312 117.29785156 C148.15784302 118.19038635 147.90748291 119.08292114 147.64953613 120.00250244 C147 122 147 122 146 123 C143.85441173 123.08775605 141.70595579 123.10695219 139.55859375 123.09765625 C138.25341797 123.09443359 136.94824219 123.09121094 135.60351562 123.08789062 C134.2148431 123.07953401 132.82617123 123.07106905 131.4375 123.0625 C130.04492344 123.05748666 128.65234519 123.05292347 127.25976562 123.04882812 C123.8398013 123.03699434 120.41992156 123.0205088 117 123 C113.99805844 112.60473342 110.99895794 102.20865189 108.00351715 91.81151009 C106.61263784 86.98412172 105.22076846 82.15702335 103.82666016 77.33056641 C102.4821873 72.67581426 101.14028419 68.02032849 99.80018616 63.36431503 C99.28756332 61.58498441 98.77400321 59.80592355 98.25950623 58.02713394 C97.54098964 55.5423897 96.82576285 53.05672122 96.11132812 50.57080078 C95.78872765 49.45949799 95.78872765 49.45949799 95.45960999 48.32574463 C94 43.22810432 94 43.22810432 94 41 C93.01 41 92.02 41 91 41 C90.64538948 42.45848106 90.64538948 42.45848106 90.28361511 43.94642639 C87.91162631 53.61715367 85.29147168 63.19161792 82.48828125 72.74609375 C82.07023245 74.17809479 81.65236411 75.61014853 81.23466492 77.04225159 C80.37029988 80.00312932 79.50372872 82.96334928 78.63549805 85.9230957 C77.52147642 89.72144967 76.41332828 93.5214895 75.30675983 97.32202053 C74.45039559 100.26080936 73.59096431 103.19869416 72.73058128 106.13630867 C72.32013638 107.53911198 71.91066771 108.94220131 71.50219154 110.34557915 C70.935997 112.28916476 70.36521397 114.23141193 69.79418945 116.17358398 C69.47094193 117.27782211 69.1476944 118.38206024 68.81465149 119.51976013 C68 122 68 122 67 123 C64.92737924 123.08767112 62.85179706 123.10695873 60.77734375 123.09765625 C59.51728516 123.09443359 58.25722656 123.09121094 56.95898438 123.08789062 C55.61848891 123.07953403 54.27799412 123.07106907 52.9375 123.0625 C51.59310058 123.0574866 50.2486994 123.05292342 48.90429688 123.04882812 C45.60282059 123.03699488 42.30143197 123.02050971 39 123 C36.99397709 117.79296907 35.2015703 112.58513646 33.65917969 107.22070312 C33.33889046 106.12097923 33.33889046 106.12097923 33.01213074 104.9990387 C32.31244338 102.59395083 31.61714264 100.18761887 30.921875 97.78125 C30.42754164 96.07889955 29.93292765 94.37663058 29.43804932 92.67443848 C28.13599633 88.19315284 26.83763801 83.71080517 25.5401001 79.22821045 C24.24370937 74.75178177 22.94404468 70.2763042 21.64453125 65.80078125 C20.13687451 60.60805632 18.62972933 55.41518649 17.12561035 50.22143555 C14.99727909 42.87326171 12.86508196 35.52643518 10.70507812 28.1875 C10.37171448 27.05332642 10.03835083 25.91915283 9.69488525 24.75061035 C9.09577739 22.71533569 8.49450053 20.68069763 7.89056396 18.64685059 C7.50822601 17.34729431 7.50822601 17.34729431 7.11816406 16.02148438 C6.89968811 15.28426147 6.68121216 14.54703857 6.45611572 13.78747559 C6 12 6 12 6 10 C4.02 10 2.04 10 0 10 C0 6.7 0 3.4 0 0 Z " fill="#231F20" transform="translate(47,597)"/>
<path d="M0 0 C18.15 0 36.3 0 55 0 C55 3.3 55 6.6 55 10 C51.7 10 48.4 10 45 10 C45 23.86 45 37.72 45 52 C54.24 52 63.48 52 73 52 C73 38.14 73 24.28 73 10 C69.7 10 66.4 10 63 10 C63 6.7 63 3.4 63 0 C81.15 0 99.3 0 118 0 C118 3.3 118 6.6 118 10 C114.37 10 110.74 10 107 10 C107 43.99 107 77.98 107 113 C110.63 113 114.26 113 118 113 C118 116.3 118 119.6 118 123 C99.85 123 81.7 123 63 123 C63 119.7 63 116.4 63 113 C66.3 113 69.6 113 73 113 C73 96.5 73 80 73 63 C63.76 63 54.52 63 45 63 C45 79.5 45 96 45 113 C48.3 113 51.6 113 55 113 C55 116.3 55 119.6 55 123 C36.85 123 18.7 123 0 123 C0 119.7 0 116.4 0 113 C3.63 113 7.26 113 11 113 C11 79.01 11 45.02 11 10 C7.37 10 3.74 10 0 10 C0 6.7 0 3.4 0 0 Z " fill="#231F20" transform="translate(678,597)"/>
<path d="M0 0 C9.55420032 -0.09318233 19.10824126 -0.16400738 28.66279888 -0.20724869 C33.10064066 -0.22801518 37.53816876 -0.2561295 41.97583008 -0.30175781 C46.26823264 -0.34561021 50.56033583 -0.36921907 54.85294533 -0.37950897 C56.48061643 -0.38683039 58.10827342 -0.40112478 59.73581505 -0.42292023 C75.75848797 -0.62871738 88.6669651 2.21974931 100.8125 13.3125 C107.54459044 20.5299272 108.68658062 27.60102487 108.375 37.34765625 C107.40825224 46.76337661 103.15703893 53.83766817 96 60 C92.77333336 61.96725545 89.49718291 63.57389467 86 65 C87.53617352 70.17741682 89.7898229 74.74167729 92.28125 79.50390625 C92.69540161 80.30481186 93.10955322 81.10571747 93.53625488 81.93089294 C94.85342528 84.47690018 96.1762899 87.01988757 97.5 89.5625 C98.82299684 92.10904016 100.14470668 94.65622585 101.46374512 97.20481873 C102.28264547 98.7865545 103.10390848 100.36706997 103.92785645 101.94618225 C105.80897803 105.57480172 107.57724174 109.15997545 109 113 C112.3 113 115.6 113 119 113 C119 116.3 119 119.6 119 123 C104.48 123 89.96 123 75 123 C65.79640281 104.59280562 65.79640281 104.59280562 63.0078125 98.39453125 C62.53249588 97.34757332 62.53249588 97.34757332 62.0475769 96.27946472 C61.39616282 94.84313088 60.74616495 93.40615382 60.09765625 91.96850586 C59.10749783 89.7737044 58.11268948 87.58105416 57.1171875 85.38867188 C56.47629946 83.97407748 55.83566456 82.55936835 55.1953125 81.14453125 C54.90262482 80.49869583 54.60993713 79.85286041 54.30838013 79.18745422 C53.1010396 76.50877684 51.98454561 73.94595539 51.17529297 71.1159668 C50.78744629 70.41769775 50.39959961 69.71942871 50 69 C47.03 68.505 47.03 68.505 44 68 C44 82.85 44 97.7 44 113 C47.63 113 51.26 113 55 113 C55 116.3 55 119.6 55 123 C36.85 123 18.7 123 0 123 C0 119.7 0 116.4 0 113 C3.3 113 6.6 113 10 113 C10 79.01 10 45.02 10 10 C6.7 10 3.4 10 0 10 C0 6.7 0 3.4 0 0 Z M44 10 C44 25.84 44 41.68 44 58 C56.83474174 59.02772136 56.83474174 59.02772136 66.51953125 54.58203125 C72.2308989 48.47885473 71.55036518 42.04499029 71.5625 34.125 C71.59923828 32.87074219 71.63597656 31.61648438 71.67382812 30.32421875 C71.79719863 22.44707504 71.79719863 22.44707504 68.15234375 15.73828125 C60.76900308 8.60116699 54.7112714 10 44 10 Z " fill="#231F20" transform="translate(1022,597)"/>
<path d="M0 0 C2.2691299 1.68379321 4.36316269 3.45983627 6.45703125 5.35546875 C7.05902344 5.85433594 7.66101563 6.35320313 8.28125 6.8671875 C19.88233894 17.21692303 26.33359738 34.69041126 27.68017578 49.87109375 C28.62232273 70.68805489 24.51095169 90.83673188 10.33203125 106.85546875 C1.29983845 116.44437481 -10.16191411 122.18878384 -23.29125977 122.63208008 C-38.26626896 122.88478658 -49.31814796 118.01369819 -60.19140625 107.796875 C-74.11521983 93.34108847 -79.09087825 74.89932394 -78.96264648 55.32202148 C-78.44643024 36.90588259 -72.56188056 20.17009055 -59.3671875 6.984375 C-42.92122162 -8.32424884 -19.58101698 -12.66299255 0 0 Z M-36.54296875 7.35546875 C-40.88834696 13.35821878 -41.69224381 18.60015556 -41.7199707 25.8269043 C-41.7265419 26.57381027 -41.7331131 27.32071625 -41.73988342 28.09025574 C-41.75956269 30.55756746 -41.77126826 33.0248184 -41.78125 35.4921875 C-41.78532553 36.33782572 -41.78940105 37.18346394 -41.79360008 38.05472755 C-41.81443998 42.5324949 -41.82874953 47.0102318 -41.83813477 51.48803711 C-41.84918262 56.09681794 -41.88356954 60.70511378 -41.92330647 65.31372356 C-41.94954107 68.87153477 -41.95783275 72.42923171 -41.96141624 75.98713112 C-41.96626612 77.68507976 -41.97783421 79.38302384 -41.99645424 81.0808773 C-42.25435068 94.85572378 -42.25435068 94.85572378 -36.27241516 106.9539032 C-32.88100136 110.30850343 -29.32098546 111.28396777 -24.71875 111.5546875 C-20.0083837 111.12339723 -17.35643753 108.2367266 -14.29296875 104.91796875 C-10.85361437 99.88177126 -10.24761966 95.56083219 -10.26831055 89.55517578 C-10.26319962 88.78540405 -10.25808868 88.01563232 -10.25282288 87.22253418 C-10.23895982 84.68603672 -10.2398813 82.14981202 -10.2421875 79.61328125 C-10.23829846 77.84357605 -10.23396336 76.07387177 -10.22920227 74.3041687 C-10.2217469 70.59711683 -10.22202616 66.89016021 -10.22729492 63.18310547 C-10.23308537 58.44306562 -10.21616558 53.70341704 -10.19295025 48.96344185 C-10.17818518 45.30876401 -10.17734504 41.65417977 -10.18045998 37.99947739 C-10.17994805 36.2524526 -10.17473455 34.50542241 -10.16464806 32.75842667 C-10.15224844 30.310213 -10.15909625 27.86275327 -10.1706543 25.41455078 C-10.16301056 24.69951385 -10.15536682 23.98447693 -10.14749146 23.24777222 C-10.22186765 16.08480563 -12.60694993 10.59064023 -17.54296875 5.35546875 C-24.02769998 1.46463001 -30.992036 2.32090184 -36.54296875 7.35546875 Z " fill="#231F20" transform="translate(986.54296875,600.64453125)"/>
<path d="M0 0 C32.34 0 64.68 0 98 0 C98 10.56 98 21.12 98 32 C94.37 32 90.74 32 87 32 C87.04125 30.205625 87.0825 28.41125 87.125 26.5625 C86.51687927 19.89671212 84.24961923 17.0826021 79.23095703 12.84399414 C72.97881202 9.2757267 66.39929872 9.8052973 59.375 9.9375 C54.30125 9.958125 49.2275 9.97875 44 10 C44 24.19 44 38.38 44 53 C50.6 53 57.2 53 64 53 C64 49.04 64 45.08 64 41 C67.3 41 70.6 41 74 41 C74 51.89 74 62.78 74 74 C70.7 74 67.4 74 64 74 C64 70.04 64 66.08 64 62 C57.4 62 50.8 62 44 62 C44 78.83 44 95.66 44 113 C49.754375 113.020625 55.50875 113.04125 61.4375 113.0625 C63.23501709 113.092229 65.03253418 113.12195801 66.88452148 113.15258789 C77.06545571 113.13892311 77.06545571 113.13892311 85.59375 107.96875 C89.13093501 103.57849711 90.28686534 100.00489114 90.0625 94.4375 C90.06958984 93.71498047 90.07667969 92.99246094 90.08398438 92.24804688 C90.0955707 90.4985123 90.05364265 88.7487504 90 87 C93.63 87 97.26 87 101 87 C101 98.88 101 110.76 101 123 C67.67 123 34.34 123 0 123 C0 119.7 0 116.4 0 113 C3.3 113 6.6 113 10 113 C10 79.01 10 45.02 10 10 C6.7 10 3.4 10 0 10 C0 6.7 0 3.4 0 0 Z " fill="#231F20" transform="translate(239,597)"/>
<path d="M0 0 C9.9 0 19.8 0 30 0 C33.64342706 10.79835431 37.28647383 21.59683673 40.92889404 32.3955307 C42.6211523 37.41252653 44.31356204 42.42947114 46.00634766 47.44628906 C49.51137666 57.83428246 53.01413389 68.22303166 56.5112915 78.61367798 C58.03440191 83.13783174 59.56138715 87.66062413 61.09533691 92.1811142 C62.04579962 94.98428792 62.99118721 97.7891731 63.9375 100.59375 C64.26153809 101.54262085 64.58557617 102.4914917 64.91943359 103.46911621 C65.20254395 104.31139771 65.4856543 105.1536792 65.77734375 106.02148438 C66.01702881 106.72801147 66.25671387 107.43453857 66.50366211 108.16247559 C67 110 67 110 67 113 C69.64 113 72.28 113 75 113 C75 116.3 75 119.6 75 123 C57.84 123 40.68 123 23 123 C23 119.7 23 116.4 23 113 C27.455 112.505 27.455 112.505 32 112 C31.78794922 111.37955811 31.57589844 110.75911621 31.35742188 110.11987305 C30.40024341 107.31065943 29.45004925 104.49913223 28.5 101.6875 C28.16613281 100.71103516 27.83226562 99.73457031 27.48828125 98.72851562 C27.17246094 97.79072266 26.85664063 96.85292969 26.53125 95.88671875 C26.23798828 95.02264404 25.94472656 94.15856934 25.64257812 93.26831055 C25 91 25 91 25 88 C11.14 88 -2.72 88 -17 88 C-17.33 89.65 -17.66 91.3 -18 93 C-18.51301671 94.63082 -19.05719645 96.2520991 -19.62890625 97.86328125 C-19.94150391 98.74951172 -20.25410156 99.63574219 -20.57617188 100.54882812 C-20.90166016 101.46083984 -21.22714844 102.37285156 -21.5625 103.3125 C-21.89185547 104.24384766 -22.22121094 105.17519531 -22.56054688 106.13476562 C-23.37067821 108.42426723 -24.18391683 110.71261458 -25 113 C-22.36 113 -19.72 113 -17 113 C-17 116.3 -17 119.6 -17 123 C-26.24 123 -35.48 123 -45 123 C-45 119.7 -45 116.4 -45 113 C-42.36 113 -39.72 113 -37 113 C-36.74508789 111.74703125 -36.49017578 110.4940625 -36.22753906 109.203125 C-34.9761574 103.58818233 -33.19707578 98.19638901 -31.359375 92.75 C-31.00027542 91.67421188 -30.64117584 90.59842377 -30.27119446 89.49003601 C-29.10200741 85.99181722 -27.92617921 82.49587343 -26.75 79 C-25.93911194 76.57926996 -25.12848596 74.15845211 -24.31811523 71.73754883 C-17.9592623 52.76331912 -11.52564971 33.81436002 -5.01472473 14.89176941 C-3.31226779 9.93734363 -1.65686392 4.97059175 0 0 Z M3 28 C0.71716769 34.7979177 -1.56102042 41.59737864 -3.8359375 48.39794922 C-4.6109013 50.71276348 -5.38694013 53.02721811 -6.1640625 55.34130859 C-7.27885108 58.66150163 -8.38980712 61.9829554 -9.5 65.3046875 C-9.84998047 66.34430634 -10.19996094 67.38392517 -10.56054688 68.45504761 C-11.04104492 69.89631516 -11.04104492 69.89631516 -11.53125 71.36669922 C-11.95760742 72.63910965 -11.95760742 72.63910965 -12.39257812 73.93722534 C-13.09415865 75.96136663 -13.09415865 75.96136663 -13 78 C-1.78 78 9.44 78 21 78 C19.3647301 72.95020427 17.72913961 67.90051452 16.09277344 62.85107422 C15.53790465 61.13856784 14.98321253 59.42600421 14.42871094 57.71337891 C13.10528693 53.62605313 11.77937454 49.53958231 10.44726562 45.45507812 C9.54659957 42.69234765 8.65869595 39.92632988 7.78710938 37.15429688 C7.43970703 36.06697266 7.09230469 34.97964844 6.734375 33.859375 C6.44272461 32.93092773 6.15107422 32.00248047 5.85058594 31.04589844 C5.1872233 28.82102422 5.1872233 28.82102422 3 28 Z " fill="#231F20" transform="translate(393,597)"/>
<path d="M0 0 C34.32 0 68.64 0 104 0 C104 11.88 104 23.76 104 36 C100.37 36 96.74 36 93 36 C93.03222656 34.94941406 93.06445312 33.89882813 93.09765625 32.81640625 C93.12160368 25.88073456 93.09205631 20.01473461 88.3125 14.5625 C82.12048575 9.77308618 82.12048575 9.77308618 69 10 C69 43.99 69 77.98 69 113 C73.29 113 77.58 113 82 113 C82 116.3 82 119.6 82 123 C62.53 123 43.06 123 23 123 C23 119.7 23 116.4 23 113 C26.96 113 30.92 113 35 113 C35 79.01 35 45.02 35 10 C22.78286874 10.23329139 22.78286874 10.23329139 14.61328125 16.96875 C11.4571766 22.89886431 11.79818595 29.42086188 12 36 C8.04 36 4.08 36 0 36 C0 24.12 0 12.24 0 0 Z " fill="#231F20" transform="translate(1143,597)"/>
<path d="M0 0 C32.01 0 64.02 0 97 0 C97 10.23 97 20.46 97 31 C93.37 31 89.74 31 86 31 C86.020625 29.370625 86.04125 27.74125 86.0625 26.0625 C85.44917114 19.98390313 83.38994766 17.00203853 79.00610352 12.86157227 C73.00430058 9.14487062 66.29286469 9.80921613 59.4375 9.9375 C54.343125 9.958125 49.24875 9.97875 44 10 C44 24.19 44 38.38 44 53 C50.27 53 56.54 53 63 53 C63 49.04 63 45.08 63 41 C66.3 41 69.6 41 73 41 C73 51.89 73 62.78 73 74 C69.7 74 66.4 74 63 74 C63 70.04 63 66.08 63 62 C56.73 62 50.46 62 44 62 C44 78.83 44 95.66 44 113 C47.96 113 51.92 113 56 113 C56 116.3 56 119.6 56 123 C37.52 123 19.04 123 0 123 C0 119.7 0 116.4 0 113 C3.3 113 6.6 113 10 113 C10 79.01 10 45.02 10 10 C6.7 10 3.4 10 0 10 C0 6.7 0 3.4 0 0 Z " fill="#231F20" transform="translate(803,597)"/>
<path d="M0 0 C34.32 0 68.64 0 104 0 C104 11.88 104 23.76 104 36 C100.37 36 96.74 36 93 36 C93.03222656 34.94941406 93.06445312 33.89882813 93.09765625 32.81640625 C93.12160368 25.88073456 93.09205631 20.01473461 88.3125 14.5625 C82.12048575 9.77308618 82.12048575 9.77308618 69 10 C69 43.99 69 77.98 69 113 C72.96 113 76.92 113 81 113 C81 116.3 81 119.6 81 123 C61.53 123 42.06 123 22 123 C22 119.7 22 116.4 22 113 C26.29 113 30.58 113 35 113 C35 79.01 35 45.02 35 10 C22.13505755 10.06093433 22.13505755 10.06093433 13.578125 16.96875 C10.48085828 22.91795539 10.79834711 29.42611576 11 36 C7.37 36 3.74 36 0 36 C0 24.12 0 12.24 0 0 Z " fill="#231F20" transform="translate(568,597)"/>
<path d="M0 0 C17.82 0 35.64 0 54 0 C54 3.3 54 6.6 54 10 C50.7 10 47.4 10 44 10 C44 43.99 44 77.98 44 113 C69.65351281 114.53529094 69.65351281 114.53529094 79.6875 106.875 C85.07079286 100.05342279 85.60652776 93.53804459 85 85 C88.63 85 92.26 85 96 85 C96 97.54 96 110.08 96 123 C64.32 123 32.64 123 0 123 C0 119.7 0 116.4 0 113 C3.3 113 6.6 113 10 113 C10 79.01 10 45.02 10 10 C6.7 10 3.4 10 0 10 C0 6.7 0 3.4 0 0 Z " fill="#231F20" transform="translate(474,597)"/>
</svg>
