<?xml version="1.0" encoding="UTF-8"?>
<svg version="1.1" xmlns="http://www.w3.org/2000/svg" width="4167" height="4167">
<path d="M0 0 C80.87418664 -0.05143703 161.74837526 -0.09913293 242.62257385 -0.12702942 C243.82021881 -0.12744359 245.01786377 -0.12785776 246.251801 -0.12828448 C272.28208748 -0.13726395 298.31237414 -0.14557439 324.34266105 -0.15319599 C337.10856769 -0.15693788 349.87447429 -0.16082756 362.64038086 -0.16479492 C363.91071786 -0.1651872 365.18105486 -0.16557948 366.48988691 -0.16598364 C407.63869068 -0.17875953 448.78748206 -0.20128737 489.93627832 -0.22889166 C532.23461232 -0.25721546 574.53293946 -0.27566237 616.83128278 -0.28174497 C622.81052157 -0.28260939 628.78976034 -0.2835863 634.7689991 -0.28463173 C635.94575773 -0.284834 637.12251637 -0.28503627 638.33493436 -0.28524467 C657.25025152 -0.28878489 676.16554746 -0.30268576 695.08085598 -0.3204961 C714.11361756 -0.33819466 733.14635817 -0.34489473 752.17912769 -0.34050413 C763.47612137 -0.33822862 774.77303808 -0.34424986 786.07001782 -0.36239263 C793.63218123 -0.37370354 801.19429465 -0.37394824 808.75646161 -0.36549544 C813.05516454 -0.36099837 817.35372266 -0.36102614 821.65240961 -0.37464955 C844.83980442 -0.44386375 867.73708839 0.36053995 890.4375 5.625 C891.54399902 5.87878418 892.65049805 6.13256836 893.79052734 6.39404297 C928.78663891 14.76515647 960.86943286 30.68197192 989 53 C989.54398438 53.42684082 990.08796875 53.85368164 990.6484375 54.29345703 C1006.18797796 66.58109739 1020.37101899 80.96489073 1032 97 C1032.85491814 98.14884745 1033.71039429 99.29727984 1034.56640625 100.4453125 C1072.26145748 151.54304861 1087.73712196 215.95088442 1078.54785156 278.67724609 C1072.25868386 316.8214406 1056.65172436 351.27771178 1034.57177734 382.74511719 C1031.55301037 387.07586148 1028.59384718 391.44745958 1025.625 395.8125 C1024.33875282 397.70066469 1023.05229502 399.58868593 1021.765625 401.4765625 C1021.13462891 402.40243164 1020.50363281 403.32830078 1019.85351562 404.28222656 C1015.44146295 410.75153247 1011.01648267 417.21200208 1006.59277344 423.67333984 C1003.89439624 427.61502205 1001.19725381 431.55754903 998.5 435.5 C995.27403062 440.21525004 992.04784344 444.9303499 988.8203125 449.64453125 C983.03843034 458.09061401 977.26446153 466.54201642 971.5 475 C965.20820063 484.23172711 958.90408356 493.45494319 952.59277344 502.67333984 C949.89439624 506.61502205 947.19725381 510.55754903 944.5 514.5 C941.27403062 519.21525004 938.04784344 523.9303499 934.8203125 528.64453125 C929.03843034 537.09061401 923.26446153 545.54201642 917.5 554 C911.20820063 563.23172711 904.90408356 572.45494319 898.59277344 581.67333984 C895.89439624 585.61502205 893.19725381 589.55754903 890.5 593.5 C887.27403062 598.21525004 884.04784344 602.9303499 880.8203125 607.64453125 C875.03843034 616.09061401 869.26446153 624.54201642 863.5 633 C857.20820063 642.23172711 850.90408356 651.45494319 844.59277344 660.67333984 C841.89439624 664.61502205 839.19725381 668.55754903 836.5 672.5 C833.27403062 677.21525004 830.04784344 681.9303499 826.8203125 686.64453125 C821.03843034 695.09061401 815.26446153 703.54201642 809.5 712 C803.20820063 721.23172711 796.90408356 730.45494319 790.59277344 739.67333984 C787.89439624 743.61502205 785.19725381 747.55754903 782.5 751.5 C779.27403062 756.21525004 776.04784344 760.9303499 772.8203125 765.64453125 C767.03843034 774.09061401 761.26446153 782.54201642 755.5 791 C749.20820063 800.23172711 742.90408356 809.45494319 736.59277344 818.67333984 C733.89439624 822.61502205 731.19725381 826.55754903 728.5 830.5 C725.27403062 835.21525004 722.04784344 839.9303499 718.8203125 844.64453125 C713.03843034 853.09061401 707.26446153 861.54201642 701.5 870 C695.20820063 879.23172711 688.90408356 888.45494319 682.59277344 897.67333984 C679.89439624 901.61502205 677.19725381 905.55754903 674.5 909.5 C671.27403062 914.21525004 668.04784344 918.9303499 664.8203125 923.64453125 C658.80990745 932.42437359 652.80716755 941.20940339 646.8125 950 C646.1642627 950.95044189 645.51602539 951.90088379 644.84814453 952.88012695 C644.24470215 953.76531006 643.64125977 954.65049316 643.01953125 955.5625 C642.48432861 956.34753906 641.94912598 957.13257812 641.39770508 957.94140625 C640.25670726 959.62191168 639.12673449 961.30989826 638 963 C638.94687026 962.9933824 639.89374052 962.9867648 640.86930382 962.97994667 C697.00164284 962.58967989 753.13349343 962.32122495 809.26710702 962.20767969 C816.0086399 962.19401197 822.75017008 962.1792126 829.49169922 962.16381836 C830.1625478 962.16230574 830.83339639 962.16079313 831.52457372 962.15923468 C853.25312775 962.10971149 874.98047208 961.98552482 896.70844569 961.82244527 C919.67828133 961.65045176 942.64736235 961.56390037 965.61793125 961.56693166 C979.3742168 961.56599883 993.12670366 961.49712337 1006.88211785 961.3410167 C1016.31782005 961.24046454 1025.75129534 961.22485892 1035.18738677 961.27563811 C1040.63156464 961.3024387 1046.0689334 961.2921933 1051.51218796 961.18089867 C1083.29966217 960.56606058 1083.29966217 960.56606058 1091.0610671 966.23633265 C1095.87848735 971.56314547 1098.57316006 977.40635269 1100.90541434 984.13693607 C1102.61245601 988.6019767 1105.20052182 992.37825346 1107.875 996.3125 C1108.86019535 997.85375971 1109.84116928 999.39773238 1110.81640625 1000.9453125 C1111.32445801 1001.7487207 1111.83250977 1002.55212891 1112.35595703 1003.37988281 C1115.5438072 1008.46037108 1118.67517054 1013.57571949 1121.8125 1018.6875 C1127.00529061 1027.14815682 1132.22806086 1035.58842723 1137.5 1044 C1143.39008421 1053.39916952 1149.21554238 1062.83653131 1155.01953125 1072.2890625 C1159.47995915 1079.5470015 1163.97639951 1086.78128596 1168.5 1094 C1174.39001022 1103.39921631 1180.21554193 1112.83653057 1186.01953125 1122.2890625 C1190.47995915 1129.5470015 1194.97639951 1136.78128596 1199.5 1144 C1205.39001022 1153.39921631 1211.21554193 1162.83653057 1217.01953125 1172.2890625 C1221.47995915 1179.5470015 1225.97639951 1186.78128596 1230.5 1194 C1235.7068149 1202.30898041 1240.86918046 1210.64388115 1246 1219 C1251.19459512 1227.45940918 1256.41964457 1235.89850749 1261.6875 1244.3125 C1266.50849232 1252.01556596 1271.328623 1259.71907343 1276.125 1267.4375 C1276.64537842 1268.27128174 1277.16575684 1269.10506348 1277.7019043 1269.96411133 C1278.194729 1270.75841553 1278.68755371 1271.55271973 1279.1953125 1272.37109375 C1279.82977295 1273.3909436 1279.82977295 1273.3909436 1280.47705078 1274.43139648 C1281.89327573 1276.81999903 1283.24925493 1279.23182356 1284.59518433 1281.66053772 C1285.04550459 1282.47267259 1285.49582485 1283.28480745 1285.95979118 1284.12155247 C1286.30306009 1284.74144015 1286.646329 1285.36132784 1287 1286 C1204.70987395 1286.05143809 1122.41974595 1286.09913384 1040.12960815 1286.12702942 C1038.91095519 1286.12744359 1037.69230222 1286.12785776 1036.43672038 1286.12828448 C1009.94970386 1286.137264 983.46268717 1286.14557443 956.97567023 1286.15319599 C943.98573324 1286.15693787 930.9957963 1286.16082755 918.00585938 1286.16479492 C916.06691606 1286.16538334 916.06691606 1286.16538334 914.08880216 1286.16598364 C872.21946115 1286.17875906 830.35013231 1286.20128655 788.48079867 1286.22889166 C745.44106349 1286.25721678 702.40133505 1286.27566267 659.3615907 1286.28174497 C653.2772632 1286.28260939 647.19293572 1286.2835863 641.10860825 1286.28463173 C639.91116978 1286.284834 638.71373131 1286.28503627 637.48000683 1286.28524467 C618.23386673 1286.28878461 598.9877475 1286.30268471 579.7416159 1286.3204961 C560.37501527 1286.33819654 541.00843525 1286.34489426 521.64182682 1286.34050413 C510.14730506 1286.33822897 498.65285896 1286.34424667 487.15835092 1286.36239263 C479.46324439 1286.37370636 471.76818697 1286.3739463 464.07307695 1286.36549544 C459.69926394 1286.36099982 455.32559323 1286.36101999 450.95179595 1286.37464955 C427.25867052 1286.44418795 403.69134252 1285.7998078 380.5 1280.375 C378.84701904 1279.99432373 378.84701904 1279.99432373 377.16064453 1279.60595703 C343.26834261 1271.46660001 309.94795157 1256.32229539 283 1234 C282.47390137 1233.56864746 281.94780273 1233.13729492 281.40576172 1232.69287109 C270.26977523 1223.54700393 259.22273721 1214.10782415 250 1203 C249.21753906 1202.12859375 248.43507813 1201.2571875 247.62890625 1200.359375 C235.00357665 1186.18397711 224.74305986 1169.81294517 216 1153 C215.64131836 1152.32453125 215.28263672 1151.6490625 214.91308594 1150.953125 C197.73743884 1118.26643097 189.51386742 1081.15307265 189.6875 1044.375 C189.69073273 1043.13225815 189.69073273 1043.13225815 189.69403076 1041.8644104 C189.92261899 986.85723061 210.11631561 940.5078859 240.95019531 895.96386719 C243.36701757 892.46931953 245.76520188 888.9623449 248.16064453 885.453125 C249.7350562 883.14689003 251.31233563 880.84264511 252.890625 878.5390625 C256.09573561 873.8607327 259.29802308 869.18047493 262.5 864.5 C263.58332167 862.91665869 264.66665499 861.33332534 265.75 859.75 C266.28625 858.96625 266.8225 858.1825 267.375 857.375 C321 779 374.625 700.625 442.87451172 600.87573242 C443.95949599 599.28997365 445.04445687 597.70419887 446.12939453 596.1184082 C448.81227845 592.19705358 451.49554807 588.2759641 454.1796875 584.35546875 C459.96156966 575.90938599 465.73553847 567.45798358 471.5 559 C477.79179937 549.76827289 484.09591644 540.54505681 490.40722656 531.32666016 C493.10560377 527.38497795 495.80273174 523.4424411 498.5 519.5 C499.5833275 517.91666268 500.66666083 516.33332934 501.75 514.75 C502.28625 513.96625 502.8225 513.1825 503.375 512.375 C535.33333333 465.66666667 567.29166667 418.95833333 599.25 372.25 C599.78641113 371.4660083 600.32282227 370.6820166 600.87548828 369.87426758 C601.95717066 368.29335968 603.03887634 366.71246771 604.12060547 365.1315918 C606.85439101 361.1362807 609.58775202 357.14068033 612.3203125 353.14453125 C612.87396484 352.335 613.42761719 351.52546875 613.99804688 350.69140625 C615.02294452 349.19281642 616.04770368 347.69413186 617.07226562 346.1953125 C620.61235271 341.01952605 624.16334203 335.85127508 627.71630859 330.68432617 C628.47985909 329.57382023 628.47985909 329.57382023 629.25883484 328.44087982 C630.50585428 326.62722872 631.75291027 324.81360277 633 323 C632.06908069 323.00889592 631.13816137 323.01779184 630.17903239 323.02695733 C574.97366543 323.55192976 519.76900081 323.92292523 464.56136486 324.09871228 C457.92884545 324.11996184 451.29633089 324.14247581 444.66381836 324.16577148 C444.00382595 324.16806865 443.34383354 324.17036582 442.66384136 324.17273261 C420.63203104 324.25010585 398.60258478 324.43073225 376.57180179 324.65562568 C354.64146748 324.87720843 332.7125652 324.98837215 310.78110355 324.9975993 C297.25259238 325.00675493 283.73028318 325.10143458 270.20329963 325.3064821 C260.9200381 325.43894028 251.6403112 325.46387669 242.3563059 325.40537015 C237.00125753 325.37476611 231.65724464 325.39048061 226.30380058 325.53433418 C195.81721967 326.30986714 195.81721967 326.30986714 188.26704392 320.71608588 C181.42269191 314.18693575 177.87470631 305.43517208 174.55718505 296.76239717 C172.11210556 290.55542069 168.44883641 285.02255161 164.9375 279.375 C163.6030396 277.14915193 162.2841574 274.91458943 160.96484375 272.6796875 C160.31112793 271.57850586 159.65741211 270.47732422 158.98388672 269.34277344 C155.65295273 263.73027673 152.32672625 258.11499143 149 252.5 C147.66668897 250.24998678 146.33335564 247.99998678 145 245.75 C126.33333333 214.25 107.66666667 182.75 89 151.25 C88.3397583 150.13584717 87.6795166 149.02169434 86.99926758 147.8737793 C85.6683578 145.62785889 84.33746582 143.38192793 83.0065918 141.13598633 C79.97905488 136.02685567 76.95138297 130.91780526 73.92300415 125.80917358 C66.91620781 113.98924603 59.91399261 102.16666387 52.92626953 90.33544922 C46.64481804 79.70219275 40.34600647 69.07922387 34.04833984 58.45556641 C32.02801938 55.04737884 30.00810436 51.6389511 27.98828125 48.23046875 C27.32868408 47.11744385 26.66908691 46.00441895 25.98950195 44.85766602 C24.67136247 42.63305289 23.35348799 40.40828271 22.03588867 38.18334961 C18.89230457 32.87585335 15.74573106 27.57022156 12.58935547 22.27032471 C11.08711877 19.74751908 9.58646344 17.22377461 8.0859375 14.69995117 C7.36537793 13.48902878 6.64403098 12.27857454 5.921875 11.06860352 C4.92513489 9.39845947 3.93124149 7.72661748 2.9375 6.0546875 C2.08478516 4.62358643 2.08478516 4.62358643 1.21484375 3.16357422 C0 1 0 1 0 0 Z " fill="#4192FF" transform="translate(472,1353)"/>
<path d="M0 0 C195.03 0 390.06 0 591 0 C591 43.23 591 86.46 591 131 C445.14 131 299.28 131 149 131 C149 213.83 149 296.66 149 382 C259.55 382 370.1 382 484 382 C484 423.58 484 465.16 484 508 C373.45 508 262.9 508 149 508 C149 601.06 149 694.12 149 790 C305.75 790 462.5 790 624 790 C624 832.9 624 875.8 624 920 C418.08 920 212.16 920 0 920 C0 616.4 0 312.8 0 0 Z " fill="#000000" transform="translate(2156,1500)"/>
<path d="M0 0 C260.7 0 521.4 0 790 0 C790 43.56 790 87.12 790 132 C684.07 132 578.14 132 469 132 C469 392.04 469 652.08 469 920 C420.16 920 371.32 920 321 920 C321 659.96 321 399.92 321 132 C215.07 132 109.14 132 0 132 C0 88.44 0 44.88 0 0 Z " fill="#000000" transform="translate(2871,1500)"/>
<path d="M0 0 C49.5 0 99 0 150 0 C150 303.6 150 607.2 150 920 C100.5 920 51 920 0 920 C0 616.4 0 312.8 0 0 Z " fill="#000000" transform="translate(1804,1500)"/>
</svg>
