<?xml version="1.0" encoding="UTF-8"?>
<svg version="1.1" xmlns="http://www.w3.org/2000/svg" width="2480" height="3230">
<path d="M0 0 C818.4 0 1636.8 0 2480 0 C2480 1065.9 2480 2131.8 2480 3230 C1661.6 3230 843.2 3230 0 3230 C0 2164.1 0 1098.2 0 0 Z " fill="#FEFEFE" transform="translate(0,0)"/>
<path d="M0 0 C-0.55123535 0.32049316 -1.1024707 0.64098633 -1.67041016 0.97119141 C-36.85887368 21.47784702 -70.92296903 43.87829234 -103 69 C-103.67240723 69.52223145 -104.34481445 70.04446289 -105.03759766 70.58251953 C-121.66164747 83.58713384 -133.42563335 101.73228974 -136.25900269 122.93849182 C-136.89580025 128.28871986 -137.15945706 133.54812888 -137.16796875 138.93359375 C-137.17220352 139.76030579 -137.17643829 140.58701782 -137.18080139 141.43878174 C-137.19064178 144.10507358 -137.19072635 146.77119327 -137.1875 149.4375 C-137.18689575 150.35383209 -137.1862915 151.27016418 -137.18566895 152.21426392 C-137.13497401 180.56231749 -135.01416137 209.23248901 -129 237 C-128.55011719 235.8346875 -128.10023438 234.669375 -127.63671875 233.46875 C-122.66732462 220.74504692 -117.17326459 208.31744915 -111.38037109 195.94873047 C-110.05451207 193.11644796 -108.73971327 190.27923633 -107.42578125 187.44140625 C-103.42034649 178.84527129 -99.25909146 170.34434184 -94.75 162 C-94.36191162 161.26410645 -93.97382324 160.52821289 -93.57397461 159.77001953 C-90.97865806 155.07876075 -88.64410862 151.79082583 -84 149 C-76.31205735 147.42126355 -70.23529389 150.19433814 -63.4375 153.5 C-44.74333476 162.08330728 -25.1189221 167.82344757 -5 172 C-3.8140625 172.24621094 -2.628125 172.49242187 -1.40625 172.74609375 C4.56374339 173.81744157 10.50800327 174.23727565 16.5625 174.375 C17.22282227 174.40118408 17.88314453 174.42736816 18.56347656 174.4543457 C29.47801152 174.49026628 39.29036472 169.07833117 48.72341919 164.14538574 C109.97624416 132.24183514 208.64094902 87.45378361 278.7578125 105.96875 C280.36269531 106.47921875 280.36269531 106.47921875 282 107 C282.62100586 107.19335938 283.24201172 107.38671875 283.88183594 107.5859375 C297.16799887 111.8207794 308.9404868 118.21857776 319.5 127.34765625 C320.09527496 127.86047653 320.69054993 128.37329681 321.30386353 128.9016571 C328.67777402 135.34721053 335.51296258 142.33221111 342.375 149.3125 C352.52607234 159.73815254 352.52607234 159.73815254 363.27734375 169.52905273 C366.39716221 172.19301336 369.33526178 175.05408361 372.3125 177.875 C378.33876898 183.5303416 384.4974715 188.89325846 391 194 C392.32552214 195.05598795 393.65104286 196.11197767 394.9765625 197.16796875 C435.87598258 229.55238342 482.18693554 255.47879585 534 265 C535.32644531 265.24556641 535.32644531 265.24556641 536.6796875 265.49609375 C562.70841304 270.06055142 590.86063689 269.51032214 617 266 C628.02905588 283.24610784 638.61808698 300.29288127 647 319 C642.93900278 319.63500742 638.87595507 320.25593229 634.8125 320.875 C633.70068359 321.04902344 632.58886719 321.22304688 631.44335938 321.40234375 C613.30421215 324.14608031 595.34428227 325.35292069 576.99951172 325.31567383 C573.76625709 325.31251588 570.53392384 325.33608834 567.30078125 325.36132812 C548.15183127 325.4195195 529.14078101 323.6698955 510.375 319.75 C509.35398193 319.53875488 508.33296387 319.32750977 507.28100586 319.10986328 C460.15759154 308.9914947 416.18775496 285.07874668 379.93359375 253.53515625 C377.21231398 251.18347772 374.43673709 248.92945777 371.625 246.6875 C365.06355769 241.34679115 358.97258441 235.52084977 352.82714844 229.71386719 C351.17152042 228.16088634 349.50199697 226.62621902 347.8203125 225.1015625 C341.08173595 218.98910846 334.56857029 212.6731322 328.125 206.25 C327.32803711 205.45762939 326.53107422 204.66525879 325.70996094 203.84887695 C321.49956038 199.62743359 317.47045219 195.31834683 313.58154297 190.79980469 C311.33218113 188.24001841 308.93837521 185.88100167 306.5 183.5 C303.31142736 180.37371475 300.27072951 177.20613813 297.4375 173.75 C291.24300367 166.53783641 282.68886658 161.64655761 274 158 C273.07832031 157.60554687 272.15664062 157.21109375 271.20703125 156.8046875 C250.88401053 149.5843348 226.59748874 154.07913504 206 158 C204.95054199 158.19835449 203.90108398 158.39670898 202.81982422 158.60107422 C174.50169955 164.14301454 147.23169028 174.12886519 121 186 C119.82405273 186.52964355 118.64810547 187.05928711 117.43652344 187.60498047 C95.63073389 197.45704407 74.21517311 208.12680408 53.32275391 219.79931641 C49.91589496 221.56039821 46.79571696 222.53435443 43 223 C42.22398437 223.10570312 41.44796875 223.21140625 40.6484375 223.3203125 C8.17450175 225.47276357 -38.49567094 202.45406673 -65.55029297 185.89428711 C-68.38394988 184.19942607 -70.94432318 183.01342025 -74.16015625 182.23828125 C-77.4274071 183.11464152 -77.76408565 183.59870706 -79.5546875 186.32421875 C-80.40240871 187.86531512 -81.2155474 189.42575625 -82 191 C-82.41024414 191.81678223 -82.82048828 192.63356445 -83.24316406 193.47509766 C-84.58221124 196.23539606 -85.86107749 199.01701986 -87.125 201.8125 C-87.59873047 202.85510986 -88.07246094 203.89771973 -88.56054688 204.97192383 C-112.43427096 258.02946222 -138.33657717 318.71991375 -145 377 C-144.23042969 376.7834375 -143.46085937 376.566875 -142.66796875 376.34375 C-124.74767693 371.99943683 -100.99707543 370.40734182 -84.28515625 379.47265625 C-75.97420419 385.32212833 -71.22671324 393.99310056 -67 403 C-66.68466309 403.63993896 -66.36932617 404.27987793 -66.04443359 404.93920898 C-62.2901457 413.42004907 -65.10274794 422.3161705 -67.4296875 430.89453125 C-67.68793304 431.87148453 -67.94617859 432.84843781 -68.21224976 433.85499573 C-69.0923684 437.17619665 -69.98369306 440.49428557 -70.875 443.8125 C-71.51461489 446.21614436 -72.1535876 448.61995968 -72.79199219 451.02392578 C-74.49310912 457.42305759 -76.20394018 463.81956514 -77.91674805 470.21557617 C-79.71710847 476.93984783 -81.5129768 483.66531292 -83.30761719 490.39111328 C-89.03060963 511.83865773 -94.75744408 533.28517122 -100.49644852 554.72843742 C-101.04417582 556.77498156 -101.59182342 558.82154703 -102.13938522 560.86813545 C-102.65517611 562.79583173 -103.17122931 564.72345784 -103.68757439 566.65100574 C-104.165748 568.43803105 -104.64263542 570.22540114 -105.11807442 572.01315594 C-106.53286015 577.32073865 -108.01692079 582.60135886 -109.64080811 587.84951782 C-110.08911677 590.5335422 -109.80249793 592.40604601 -109 595 C-106.97535363 596.81437153 -105.11692166 598.25868824 -102.875 599.75 C-102.24827393 600.18046631 -101.62154785 600.61093262 -100.97583008 601.05444336 C-94.16508841 605.6742342 -87.15769949 609.94242794 -80 614 C-79.34161133 614.37511719 -78.68322266 614.75023437 -78.00488281 615.13671875 C-63.99619989 623.04147387 -49.29302849 629.05306157 -34 634 C-36.70304103 636.8798662 -39.19723601 638.13004855 -42.875 639.625 C-44.41800781 640.26308594 -44.41800781 640.26308594 -45.9921875 640.9140625 C-60.12492201 646.01653029 -74.41864472 642.45106117 -88.22851562 638.3359375 C-102.82480526 633.99818447 -117.50944682 629.73579542 -131.75 637.3125 C-149.44237218 648.70573038 -160.09815414 667.89351665 -171.08422852 685.21386719 C-177.67012207 695.56652661 -184.4470996 705.7889663 -191.25 716 C-191.79335999 716.8174469 -192.33671997 717.6348938 -192.89654541 718.47711182 C-202.85309128 733.44973171 -212.98073089 748.29821751 -223.9375 762.5625 C-224.61006836 763.44107666 -225.28263672 764.31965332 -225.97558594 765.22485352 C-247.22786177 792.86937622 -270.22483543 821.65314863 -298 843 C-299.07384185 843.87226515 -300.14532173 844.74744347 -301.21484375 845.625 C-317.78733635 859.12291503 -336.14487304 869.17828332 -356 877 C-325.67881612 890.15698948 -289.95917902 884.61803881 -260.07592773 873.04711914 C-223.39346729 858.31774528 -192.00376106 835.50112528 -163 809 C-161.99886026 808.09226883 -160.99755047 807.18472519 -159.99609375 806.27734375 C-152.22694173 799.22056695 -144.67567911 792.08075715 -137.83203125 784.109375 C-135.84688413 781.82370454 -133.7996017 779.60298622 -131.75 777.375 C-126.65788433 771.72958144 -122.00330008 765.78012155 -117.36425781 759.76269531 C-116.06272937 758.08104976 -114.74852335 756.41027626 -113.4296875 754.7421875 C-102.58848488 740.96447349 -93.61716467 726.24936571 -85 711 C-83 712 -83 712 -82.3671875 713.71484375 C-78.2017464 732.52544682 -83.81715834 750.99502434 -94 767 C-99.69633508 774.69633508 -99.69633508 774.69633508 -103 778 C-97.20224208 777.43197642 -92.01171232 776.30518552 -86.5 774.4375 C-85.72245361 774.17428955 -84.94490723 773.9110791 -84.14379883 773.63989258 C-66.52980636 767.46704005 -51.47212241 757.92358322 -38 745 C-37.16726563 744.23042969 -36.33453125 743.46085937 -35.4765625 742.66796875 C-26.45271441 734.0744888 -19.69349973 724.07228339 -14 713 C-13.13375 713.763125 -12.2675 714.52625 -11.375 715.3125 C19.70690125 741.77580549 53.50063596 755.33779183 94.625 755.0625 C95.91535156 755.05798828 97.20570313 755.05347656 98.53515625 755.04882812 C101.69015375 755.03714295 104.84505137 755.02076044 108 755 C107.56429687 754.08863281 107.12859375 753.17726563 106.6796875 752.23828125 C95.27989174 727.72550007 91.24833509 702.87491149 92 676 C92.99 676 93.98 676 95 676 C96.45299734 677.97434883 97.69533254 679.8973757 98.9375 682 C115.44069584 708.73765583 137.97518819 733.80846058 162 754 C162.95261719 754.84175781 163.90523437 755.68351562 164.88671875 756.55078125 C174.81563427 765.29422105 185.31932004 773.20218674 196 781 C196.72590332 781.53125488 197.45180664 782.06250977 198.19970703 782.60986328 C258.12817481 826.26180972 327.52128104 857.0120389 399 876 C399 876.33 399 876.66 399 877 C392.46118018 877.07770605 385.92248404 877.12927133 379.38330078 877.16479492 C377.17069046 877.17964358 374.95810822 877.19992767 372.74560547 877.22631836 C352.04997411 877.4665271 331.94132863 875.64373597 311.6875 871.3125 C310.48367676 871.05758789 309.27985352 870.80267578 308.03955078 870.54003906 C275.00268035 863.31740342 244.07061103 851.22746497 214 836 C213.13632813 835.56800293 212.27265625 835.13600586 211.3828125 834.69091797 C196.85171789 827.40396543 183.23267359 818.64951573 169.8125 809.5 C169.16909668 809.06228271 168.52569336 808.62456543 167.86279297 808.17358398 C164.38094487 805.7669481 161.04127267 803.25572447 157.765625 800.57421875 C157.06203857 800.00960937 156.35845215 799.445 155.63354492 798.86328125 C154.29082678 797.77682395 152.96644279 796.66714842 151.6652832 795.53125 C149.16705034 793.52025996 147.28327399 792.00563114 143.99707031 791.99121094 C141.58598091 792.49108439 139.33255354 793.20990216 137 794 C134.91048247 794.60719422 132.81918649 795.20828732 130.7265625 795.8046875 C129.58711182 796.13919922 128.44766113 796.47371094 127.27368164 796.81835938 C87.65787226 808.29090692 40.03152153 813.75094647 2 794 C-1.79173388 791.8243416 -5.39933689 789.47392499 -9 787 C-10.66008445 785.98911059 -12.32500648 784.98598909 -14 784 C-14.4640625 784.44988281 -14.928125 784.89976562 -15.40625 785.36328125 C-46.24131195 814.06980348 -90.66323127 829.85271599 -131.79052734 835.37792969 C-142.52768669 836.8606406 -148.87553379 838.36697244 -156 847 C-156.98957235 847.97306825 -157.99318929 848.93198757 -159.0078125 849.87890625 C-172.34549381 862.38298248 -182.86459437 877.22766251 -192 893 C-192.3810791 893.65371582 -192.7621582 894.30743164 -193.15478516 894.98095703 C-210.86570154 925.76188073 -221.21439435 962.73794133 -221.1328125 998.3125 C-221.13376923 999.24803711 -221.13472595 1000.18357422 -221.13571167 1001.14746094 C-221.13638659 1003.10367908 -221.13458079 1005.05989955 -221.13037109 1007.01611328 C-221.12496417 1010.01990694 -221.13036411 1013.02355437 -221.13671875 1016.02734375 C-221.13605879 1017.93489616 -221.13477935 1019.84244849 -221.1328125 1021.75 C-221.13584885 1023.09831909 -221.13584885 1023.09831909 -221.13894653 1024.47387695 C-221.13579437 1025.30234131 -221.13264221 1026.13080566 -221.12939453 1026.984375 C-221.12859894 1027.71366211 -221.12780334 1028.44294922 -221.12698364 1029.19433594 C-221.10877457 1031.10192254 -221.10877457 1031.10192254 -220 1033 C-219.7097998 1032.4237085 -219.41959961 1031.84741699 -219.12060547 1031.25366211 C-201.06453027 995.58113178 -179.10669268 962.28214198 -153 932 C-152.39671875 931.29488281 -151.7934375 930.58976562 -151.171875 929.86328125 C-143.28574112 920.73297577 -135.29843762 911.71402226 -126 904 C-124.85640637 903.02017091 -123.71465273 902.03819234 -122.57421875 901.0546875 C-112.07804885 892.00697263 -112.07804885 892.00697263 -107 888 C-106.34 888.33 -105.68 888.66 -105 889 C-105.29543701 889.53963379 -105.59087402 890.07926758 -105.89526367 890.63525391 C-119.75143704 916.12550954 -130.81895575 942.49555687 -140 970 C-140.3810791 971.13131348 -140.7621582 972.26262695 -141.15478516 973.42822266 C-156.91031588 1020.65453652 -166.02013937 1070.58368628 -169.45581055 1120.22363281 C-169.5472937 1121.54379395 -169.5472937 1121.54379395 -169.640625 1122.890625 C-169.68735352 1123.64375977 -169.73408203 1124.39689453 -169.78222656 1125.17285156 C-170 1127 -170 1127 -171 1129 C-176.18044233 1127.49311033 -180.58477351 1125.20175501 -185.25 1122.5625 C-186.03938965 1122.1185791 -186.8287793 1121.6746582 -187.64208984 1121.21728516 C-216.17375093 1105.05670762 -243.46005217 1086.56484378 -269 1066 C-269.9178125 1065.26523438 -270.835625 1064.53046875 -271.78125 1063.7734375 C-277.05923457 1059.50447939 -282.23439998 1055.1201211 -287.375 1050.6875 C-288.22082642 1049.96071045 -288.22082642 1049.96071045 -289.08374023 1049.21923828 C-300.29247987 1039.49573083 -310.94179416 1029.22268697 -321.41357422 1018.71679688 C-323.3904601 1016.73449756 -325.37271039 1014.75767367 -327.35546875 1012.78125 C-333.44809768 1006.69214971 -339.46845273 1000.61148833 -345 994 C-345.94894857 992.90488561 -346.89944331 991.8111089 -347.8515625 990.71875 C-364.64004868 971.27992307 -380.03901236 951.1046015 -394.3125 929.75 C-394.72879669 929.1287323 -395.14509338 928.5074646 -395.57400513 927.86737061 C-401.67531847 918.74442717 -407.42202653 909.45094298 -413 900 C-413.51344971 899.14164551 -414.02689941 898.28329102 -414.5559082 897.39892578 C-435.51244591 862.29075757 -452.18678316 824.85218152 -464.96899414 786.0559082 C-465.96082277 783.11612156 -467.01638524 780.20868519 -468.09765625 777.30078125 C-469.93981247 772.28249363 -471.4412339 767.22727581 -472.8125 762.0625 C-473.06257812 761.12776855 -473.31265625 760.19303711 -473.5703125 759.22998047 C-474.38744052 756.15518406 -475.19392181 753.07770998 -476 750 C-476.42418213 748.40309326 -476.42418213 748.40309326 -476.85693359 746.77392578 C-499.41998876 661.50348645 -502.88391683 570.49287463 -482 460 C-481.8158252 459.14438477 -481.63165039 458.28876953 -481.44189453 457.40722656 C-472.84965909 417.82426485 -459.06512737 378.69556448 -442 342 C-441.46503906 340.8464502 -440.93007813 339.69290039 -440.37890625 338.50439453 C-425.8465017 307.28874197 -409.02580644 277.04713599 -389 249 C-388.4858252 248.27474121 -387.97165039 247.54948242 -387.44189453 246.80224609 C-380.23405314 236.64544707 -372.81425259 226.69801824 -365 217 C-364.25363281 216.07058594 -363.50726562 215.14117188 -362.73828125 214.18359375 C-353.69129472 203.02510229 -344.31939867 192.15371903 -334.52636719 181.64404297 C-332.85559434 179.84446134 -331.19748409 178.03362349 -329.5390625 176.22265625 C-321.3449661 167.32260358 -312.81333789 158.91609781 -303.89599609 150.74316406 C-302.08311708 149.0764172 -300.28350437 147.39666474 -298.48828125 145.7109375 C-292.8349229 140.41452899 -287.09841923 135.30955029 -281.05078125 130.4609375 C-278.73446366 128.59246109 -276.44547949 126.70384821 -274.16796875 124.7890625 C-264.85334125 116.97891201 -255.30013153 109.66145899 -245.36083984 102.66503906 C-242.91638475 100.94102833 -240.48328208 99.20176572 -238.05078125 97.4609375 C-227.99188049 90.29745593 -217.77069497 83.56095648 -207.14404297 77.27050781 C-205.07042251 76.04173067 -203.00529105 74.79972939 -200.94140625 73.5546875 C-151.85874879 44.1110173 -98.40157255 20.98981612 -42.65576172 7.64941406 C-39.12033513 6.78489533 -35.62787797 5.80039454 -32.125 4.8125 C-26.06715281 3.19049202 -19.96300415 1.90016518 -13.8125 0.6875 C-12.90193848 0.50356689 -11.99137695 0.31963379 -11.05322266 0.13012695 C-10.19647949 -0.03269775 -9.33973633 -0.19552246 -8.45703125 -0.36328125 C-7.3119812 -0.58431519 -7.3119812 -0.58431519 -6.14379883 -0.80981445 C-3.84613909 -1.01364966 -2.18842196 -0.68622904 0 0 Z " fill="#001588" transform="translate(1114,631)"/>
<path d="M0 0 C33 0 66 0 100 0 C100.1209091 56.41081356 100.1209091 56.41081356 100.14648438 80.11914062 C100.15237438 85.53556341 100.15841805 90.95198596 100.16479492 96.3684082 C100.16598179 97.38652713 100.16598179 97.38652713 100.16719264 98.42521411 C100.18019716 109.34541148 100.20382433 120.26556087 100.23145839 131.1857299 C100.25963443 142.41475041 100.27597771 153.64374719 100.28226548 164.87280482 C100.28615948 171.17073713 100.29524262 177.4685611 100.31719017 183.76645851 C100.33772638 189.70815388 100.34379954 195.64969745 100.33932304 201.59142494 C100.34014064 203.7587924 100.34600323 205.92616555 100.35761642 208.09350204 C100.44278845 224.8258692 99.19332969 241.09311743 94.5 257.25 C94.25427246 258.10005615 94.00854492 258.9501123 93.75537109 259.82592773 C83.54714463 293.03133855 61.66596192 321.12051453 32 339 C31.10740479 339.54116455 31.10740479 339.54116455 30.19677734 340.09326172 C19.70954826 346.33723643 8.59123816 350.29596364 -3 354 C-3.98355469 354.32871094 -4.96710938 354.65742188 -5.98046875 354.99609375 C-8.63945729 355.81196782 -11.27662952 356.43248243 -14 357 C-15.92392578 357.41572266 -15.92392578 357.41572266 -17.88671875 357.83984375 C-30.39101076 360.20715465 -42.94359918 360.32309151 -55.625 360.375 C-56.91993378 360.38664688 -56.91993378 360.38664688 -58.24102783 360.39852905 C-74.33130492 360.51242125 -90.08694502 358.92804472 -105.5625 354.3125 C-106.42762207 354.05831299 -107.29274414 353.80412598 -108.18408203 353.54223633 C-127.40274844 347.67406191 -144.91218373 338.28559625 -160 325 C-160.85207031 324.26910156 -161.70414063 323.53820313 -162.58203125 322.78515625 C-173.29792935 313.41903333 -181.58265911 303.06967387 -189 291 C-189.35980957 290.41653809 -189.71961914 289.83307617 -190.09033203 289.23193359 C-194.75469527 281.50623934 -198.18702784 273.41693066 -201.25 264.9375 C-201.56727051 264.08349609 -201.88454102 263.22949219 -202.21142578 262.34960938 C-208.3758059 244.45573877 -209.58763242 226.14887871 -209.45410156 207.38916016 C-209.45296972 205.11993429 -209.45361349 202.85070696 -209.45587158 200.58148193 C-209.45700653 194.49606937 -209.43369736 188.41098032 -209.40557575 182.32564211 C-209.38035608 175.93825253 -209.37820404 169.55085332 -209.37347412 163.16342163 C-209.36250447 152.46679114 -209.33761991 141.77030019 -209.30175781 131.07373047 C-209.26489992 120.06852797 -209.23665614 109.06335744 -209.21972656 98.05810547 C-209.21867567 97.3768764 -209.21762477 96.69564734 -209.21654204 95.99377497 C-209.21132094 92.57539273 -209.20626633 89.15701028 -209.20129442 85.73862767 C-209.15999681 57.49232071 -209.08634937 29.24620737 -209 1 C-176.33 1 -143.66 1 -110 1 C-109.98582031 17.28472656 -109.97164062 33.56945313 -109.95703125 50.34765625 C-109.93697229 60.66993771 -109.91565694 70.9921913 -109.88867188 81.31445312 C-109.87456796 86.73901284 -109.86071646 92.16357302 -109.84741211 97.58813477 C-109.84573192 98.26793571 -109.84405173 98.94773666 -109.84232062 99.64813763 C-109.81571075 110.5968799 -109.80656294 121.54556978 -109.80395857 132.49434108 C-109.80088995 143.74601581 -109.77846984 154.9975417 -109.73947543 166.2491588 C-109.71819986 172.56263804 -109.70551697 178.87586339 -109.71384621 185.18937874 C-109.72142059 191.14107332 -109.70542566 197.09225493 -109.67193985 203.04385567 C-109.66374738 205.21932972 -109.663908 207.39485518 -109.67340279 209.57032394 C-109.7414019 226.87409918 -107.93222071 242.91202997 -95.8515625 256.3984375 C-84.8278098 267.1367856 -70.11078199 272.22546884 -54.875 272.3125 C-39.05799427 272.09225384 -24.6623818 267.55405913 -13.2578125 256.27734375 C-2.75885789 244.81206745 -0.85897822 230.30690311 -0.84178162 215.37583923 C-0.83684364 214.44935013 -0.83190566 213.52286102 -0.82681805 212.56829649 C-0.8115509 209.48685754 -0.80311189 206.40543925 -0.79467773 203.32397461 C-0.78509072 201.10592469 -0.77508016 198.88787657 -0.76467896 196.66983032 C-0.73771307 190.66436799 -0.71665861 184.65889786 -0.69667697 178.65340877 C-0.67476597 172.37134692 -0.64740235 166.08930886 -0.62062073 159.80726624 C-0.57642423 149.26841267 -0.53557746 138.72955026 -0.49731445 128.19067383 C-0.45790694 117.33910162 -0.41645724 106.48754034 -0.37231445 95.63598633 C-0.36956495 94.95946012 -0.36681544 94.28293392 -0.36398262 93.58590692 C-0.34004549 87.70042912 -0.3159544 81.81495195 -0.29184818 75.92947483 C-0.18838159 50.61967101 -0.09502057 25.3098402 0 0 Z " fill="#001588" transform="translate(1286,1992)"/>
<path d="M0 0 C0.83804277 0.00037972 1.67608554 0.00075944 2.53952354 0.00115067 C3.98463588 -0.00183591 3.98463588 -0.00183591 5.45894241 -0.00488281 C6.5299313 -0.00196997 7.60092019 0.00094287 8.70436329 0.00394398 C9.83227816 0.00308955 10.96019304 0.00223513 12.12228715 0.00135481 C15.93338861 -0.00030327 19.74444686 0.00522674 23.55554432 0.01067311 C26.27486935 0.01151049 28.99419352 0.01084145 31.71351856 0.0102306 C37.58431239 0.00970517 43.45509515 0.01285398 49.32588619 0.01846844 C57.81415963 0.02658084 66.3024277 0.02919839 74.7907046 0.03045643 C88.56095369 0.03264736 102.33119687 0.03930856 116.10144275 0.04875904 C129.48132527 0.0579321 142.86120617 0.06501345 156.24109119 0.06926686 C157.47731328 0.06966094 157.47731328 0.06966094 158.73850954 0.07006299 C162.87284256 0.07136798 167.0071756 0.0726317 171.14150864 0.07387489 C205.46303716 0.08424878 239.78455865 0.10186821 274.10608143 0.1241985 C274.38611573 9.12175572 274.5983176 18.11777832 274.72782749 27.11876732 C274.79004065 31.3001392 274.87416224 35.47849705 275.01135486 39.65813404 C276.04125102 71.86097387 276.04125102 71.86097387 268.29309314 80.58977467 C266.3089085 82.56375534 264.25562001 84.32036056 262.10608143 86.1241985 C260.80916958 87.74863324 259.54804299 89.40410052 258.36389393 91.11247975 C257.84311268 91.82855397 257.32233143 92.54462818 256.78576893 93.28240162 C256.01619861 94.34877857 256.01619861 94.34877857 255.23108143 95.4366985 C250.62711547 101.75173663 245.9314561 107.97673865 241.10608143 114.1241985 C236.32839774 120.21331169 231.67295069 126.37543601 227.10608143 132.6241985 C221.86054204 139.80063839 216.47825706 146.85327892 211.00012439 153.85344654 C207.14910493 158.77539863 203.36653493 163.74086614 199.63342518 168.75310475 C196.222075 173.320166 192.75241939 177.84308049 189.29358143 182.3741985 C184.53880144 188.60530085 179.79853296 194.8460108 175.10608143 201.1241985 C169.79459394 208.23051435 164.41759545 215.28586145 159.03454822 222.33806568 C154.48751069 228.29929006 149.97509301 234.2849549 145.48645252 240.29021412 C141.24639423 245.95519818 136.95253124 251.57823188 132.6444115 257.19158131 C129.09918976 261.81298058 125.60137045 266.46381313 122.10608143 271.1241985 C195.36608143 271.6191985 195.36608143 271.6191985 270.10608143 272.1241985 C270.10608143 299.5141985 270.10608143 326.9041985 270.10608143 355.1241985 C177.70608143 355.1241985 85.30608143 355.1241985 -9.89391857 355.1241985 C-9.89391857 284.1241985 -9.89391857 284.1241985 3.10608143 267.1241985 C13.23173089 253.86896824 23.30243841 240.57575628 33.28186268 227.210136 C36.74191131 222.58370562 40.21867057 217.97178684 43.72717518 213.382011 C50.29946772 204.78389081 56.84096536 196.17139604 63.23108143 187.4366985 C68.31619697 180.48792804 73.54182389 173.66725981 78.85656971 166.89299732 C83.04079393 161.54155788 87.09797324 156.10850725 91.10608143 150.6241985 C95.67290659 144.37539532 100.32857455 138.21345244 105.10608143 132.1241985 C110.57951293 125.14733846 115.88112126 118.06056991 121.11755604 110.90447193 C125.300053 105.19474877 129.5705174 99.56495652 133.92248768 93.9835735 C136.39041569 90.75186812 138.74260738 87.43306216 141.10608143 84.1241985 C93.58608143 83.7941985 46.06608143 83.4641985 -2.89391857 83.1241985 C-2.91454357 69.6148235 -2.93516857 56.1054485 -2.95641857 42.1866985 C-2.96552258 37.91482594 -2.97462658 33.64295338 -2.98400646 29.24163014 C-2.98852307 24.04106861 -2.98852307 24.04106861 -2.9893623 21.6095348 C-2.99090189 19.9045761 -2.99442711 18.19961851 -2.99949414 16.49466664 C-3.00677133 13.91811427 -3.007826 11.34162867 -3.00744396 8.76506764 C-3.01284113 7.61815622 -3.01284113 7.61815622 -3.01834732 6.44807488 C-3.00586615 0.19711727 -3.00586615 0.19711727 0 0 Z " fill="#011688" transform="translate(748.8939185738564,1991.8758015036583)"/>
<path d="M0 0 C2.81360455 2.45193624 4.10870812 5.00046937 5.63671875 8.3828125 C6.37245117 9.99687988 6.37245117 9.99687988 7.12304688 11.64355469 C7.63931641 12.79243164 8.15558594 13.94130859 8.6875 15.125 C9.77449376 17.50792465 10.86173325 19.89073723 11.94921875 22.2734375 C13.34973952 25.35912729 14.74882202 28.44546233 16.14697266 31.53222656 C21.82704897 44.0267263 28.3050326 56.02218639 35 68 C35.73524902 69.32354492 35.73524902 69.32354492 36.48535156 70.67382812 C54.66674476 103.33952855 75.71692803 134.46737892 99.56738281 163.26318359 C101.62882132 165.76234405 103.65416707 168.29045371 105.6875 170.8125 C109.45604698 175.41773356 113.40788304 179.82873534 117.4453125 184.19921875 C119.40008004 186.34228959 121.30415877 188.50756559 123.19702148 190.70410156 C126.7827746 194.80605917 130.54479952 198.68983705 134.40234375 202.53515625 C135.08373917 203.21750839 135.76513458 203.89986053 136.46717834 204.60289001 C137.89705741 206.03344437 139.32817911 207.46275767 140.76049805 208.89086914 C142.93197711 211.05699074 145.09806325 213.22840174 147.26367188 215.40039062 C148.66374202 216.79979987 150.06412238 218.19889884 151.46484375 219.59765625 C152.10155502 220.23639175 152.7382663 220.87512726 153.39427185 221.53321838 C157.76877294 225.88538766 162.31790798 229.98209569 167 234 C167.51617889 234.44905197 168.03235779 234.89810394 168.56417847 235.36076355 C177.01457535 242.70738297 185.78449663 249.57946943 194.73779297 256.29980469 C196.24760554 257.43452676 197.75444516 258.5732152 199.25830078 259.71582031 C223.32885893 277.99973988 249.27296951 292.9701925 276 307 C273.35115275 318.25285717 270.17794448 329.22931813 266.5 340.1875 C266.24321472 340.95748322 265.98642944 341.72746643 265.72186279 342.52078247 C259.02122357 362.53957906 250.93931403 381.87816904 242 401 C238.33221401 399.6418501 235.15356139 397.98068918 231.84375 395.90234375 C230.83642822 395.27448975 229.82910645 394.64663574 228.79125977 393.99975586 C227.16208618 392.97893921 227.16208618 392.97893921 225.5 391.9375 C184.53978981 366.47645765 142.31050847 342.17182697 98 323 C96.98969727 322.56026855 95.97939453 322.12053711 94.93847656 321.66748047 C80.84577012 315.58686 66.55552159 310.34150298 52 305.5 C51.2315979 305.2442923 50.4631958 304.98858459 49.67150879 304.72512817 C41.17490519 301.9096741 32.67562251 299.2204347 24 297 C24.33 296.34 24.66 295.68 25 295 C27.30784056 294.38457585 29.52795979 293.9072414 31.875 293.5 C32.59623047 293.37254395 33.31746094 293.24508789 34.06054688 293.11376953 C53.26604501 289.84553777 72.56745346 289.44275321 92 289 C86.91005164 283.70353011 81.68221375 278.91523521 75.8125 274.5 C74.69633301 273.65719482 74.69633301 273.65719482 73.55761719 272.79736328 C67.27289248 268.10745161 60.84803693 263.82804027 54 260 C53.26894043 259.58540527 52.53788086 259.17081055 51.78466797 258.74365234 C7.88823886 234.06467672 -38.54136929 228.69717304 -88 229 C-84.70845668 236.68510571 -81.37420585 244.35082097 -78 252 C-77.43998291 253.27085449 -77.43998291 253.27085449 -76.86865234 254.56738281 C-63.54164196 284.51110039 -45.00755499 311.93187926 -24 337 C-23.5369043 337.55478027 -23.07380859 338.10956055 -22.59667969 338.68115234 C-16.69933161 345.72877525 -10.68983058 352.47765716 -4.10546875 358.89453125 C-2.39849718 360.60150282 -0.86796664 362.2977316 0.625 364.1875 C3.18517919 367.21929114 5.95809566 369.65719221 8.97265625 372.22265625 C10.85035132 373.86880511 12.58127698 375.57735116 14.3125 377.375 C17.94182755 381.07046564 21.91198518 384.27283412 25.9609375 387.49609375 C28.45516479 389.55110621 30.85030556 391.65791219 33.24609375 393.82421875 C37.8665957 397.95255353 42.70827036 401.69234831 47.6875 405.375 C48.55528076 406.02130371 49.42306152 406.66760742 50.31713867 407.33349609 C58.1083205 413.11950443 65.96788711 418.81048417 73.93896484 424.34667969 C75.64313411 425.54032444 77.32371665 426.76750058 79 428 C79 428.33 79 428.66 79 429 C72.42721292 428.45995136 66.61446939 427.23684812 60.375 425.125 C59.47402588 424.82037842 58.57305176 424.51575684 57.64477539 424.2019043 C25.19371615 412.81875319 -3.88390097 393.04438031 -30 371 C-30.94794434 370.20650146 -30.94794434 370.20650146 -31.91503906 369.39697266 C-38.27979632 364.06473497 -44.49576947 358.7009171 -50.2734375 352.7265625 C-51.96341959 351.03658041 -53.71867384 349.51892287 -55.5625 348 C-58.6862599 345.37352026 -61.28724296 342.49757796 -63.92578125 339.390625 C-66.00405423 336.99532733 -68.14597938 334.67629997 -70.31152344 332.36035156 C-76.15170781 326.11160963 -81.65107086 319.6774781 -87 313 C-88.02995495 311.73722387 -89.06129754 310.47557873 -90.09375 309.21484375 C-96.02903253 301.96099867 -101.86156412 294.64742088 -107.55078125 287.19921875 C-115.1836072 277.20743492 -123.06328633 267.41726246 -131.01171875 257.67578125 C-133.36881585 254.78428157 -135.69153123 251.86804036 -138 248.9375 C-174.42313816 203.37047778 -219.47734613 166.18193774 -279.61328125 159.3203125 C-320.00004326 155.19619371 -355.39772959 164.39001734 -392 181 C-392.61636905 174.09666663 -391.31931767 170.38977413 -387 165 C-384.34685152 162.01839933 -381.54893724 159.21840427 -378.6875 156.4375 C-377.96626953 155.72142578 -377.24503906 155.00535156 -376.50195312 154.26757812 C-372.39190151 150.21650483 -368.18163097 146.3437547 -363.76806641 142.62524414 C-357.78977996 137.12987644 -353.41512999 130.28967652 -352.625 122.125 C-352.73459985 118.92950377 -353.47457705 116.25558021 -354.5234375 113.2421875 C-354.79849121 112.44409668 -355.07354492 111.64600586 -355.35693359 110.82373047 C-355.56914551 110.22189941 -355.78135742 109.62006836 -356 109 C-325.60884409 108.16719008 -325.60884409 108.16719008 -315 117 C-311.66953746 120.30816034 -308.84416086 123.64812509 -307 128 C-307 128.99 -307 129.98 -307 131 C-305.31777344 130.76023437 -305.31777344 130.76023437 -303.6015625 130.515625 C-274.57212788 127.32159435 -244.68283625 129.84709725 -217 139 C-215.81148437 139.39058594 -214.62296875 139.78117187 -213.3984375 140.18359375 C-195.36674182 146.64905287 -179.86940937 156.88925918 -166 170 C-165.33871094 170.62003906 -164.67742187 171.24007813 -163.99609375 171.87890625 C-160.12035158 175.62071349 -156.93000093 179.47181675 -154 184 C-154 184.66 -154 185.32 -154 186 C-153.01 185.67 -152.02 185.34 -151 185 C-102.48677127 179.55417976 -53.39324432 191.36014611 -7 204 C-5.89833496 204.3000293 -4.79666992 204.60005859 -3.66162109 204.90917969 C-1.10753375 205.6053409 1.4463568 206.30221167 4 207 C-23.57345379 166.85988364 -64.05531205 139.97442252 -112 130 C-112 129.34 -112 128.68 -112 128 C-111.07277382 127.66959717 -111.07277382 127.66959717 -110.1268158 127.33251953 C-103.61519265 125.00959237 -97.10964213 122.67021651 -90.60717773 120.32177734 C-88.18906038 119.45079821 -85.76949183 118.58383601 -83.34838867 117.72119141 C-56.35875663 108.09836453 -32.28861316 97.47011365 -18.8125 70.625 C-13.33742252 58.87564467 -10.90007593 45.81301466 -7.98779297 33.24023438 C-7.00025099 28.98140584 -5.97545008 24.73212203 -4.94140625 20.484375 C-4.61140353 19.12793114 -4.28140667 17.77148586 -3.95141602 16.41503906 C-3.79295197 15.76378052 -3.63448792 15.11252197 -3.47122192 14.44152832 C-2.30349401 9.6302564 -1.15244523 4.81495109 0 0 Z " fill="#011688" transform="translate(1529,1078)"/>
<path d="M0 0 C0.90350693 -0.00701431 1.80701385 -0.01402863 2.73789978 -0.02125549 C5.64693206 -0.03870772 8.55576101 -0.04510993 11.46484375 -0.046875 C12.45621338 -0.04754974 13.44758301 -0.04822449 14.46899414 -0.04891968 C28.97257041 -0.03320346 43.14483837 0.29092885 57.40234375 3.203125 C58.2128418 3.3587793 59.02333984 3.51443359 59.85839844 3.67480469 C91.7268365 9.97803701 119.83265061 25.17636888 143.40234375 47.203125 C141.77603446 51.27872877 138.86713227 54.04097331 135.82275391 57.08911133 C135.25342636 57.66676239 134.68409882 58.24441345 134.09751892 58.83956909 C132.21758133 60.74356609 130.33010288 62.63984996 128.44140625 64.53515625 C127.13097524 65.85455264 125.82062272 67.17402698 124.51034546 68.49357605 C121.76517323 71.25522694 119.01564711 74.0124632 116.26367188 76.76733398 C112.73196235 80.30444352 109.21671259 83.85744577 105.70517921 87.41457081 C103.00618713 90.14323764 100.2960782 92.86064904 97.58271408 95.57501793 C96.28121595 96.88073302 94.9838558 98.19058596 93.6906929 99.50455666 C91.88558787 101.33639183 90.06549591 103.15189772 88.24072266 104.96411133 C87.70655228 105.513116 87.1723819 106.06212067 86.62202454 106.62776184 C85.10977173 108.11042786 85.10977173 108.11042786 82.40234375 110.203125 C78.37838672 110.10583205 76.51956341 107.58775558 73.77734375 104.828125 C55.87371559 87.79837551 32.87169681 79.46439864 8.390625 80.01953125 C-1.1832459 80.46024813 -10.84818083 82.44544669 -17.859375 89.46875 C-20.95062285 94.33138707 -20.19972381 99.63750048 -19.59765625 105.203125 C-18.34271163 108.72560506 -18.34271163 108.72560506 -16.59765625 111.203125 C-16.26765625 112.193125 -15.93765625 113.183125 -15.59765625 114.203125 C-13.77104343 115.27842368 -13.77104343 115.27842368 -11.59765625 116.203125 C-10.13482679 117.1125995 -8.67688599 118.02996209 -7.22265625 118.953125 C7.98878703 128.06243086 25.76336519 133.34679803 42.51171875 138.9140625 C67.03916076 147.10982968 90.57486958 157.34050678 110.40234375 174.203125 C111.29759766 174.88181641 111.29759766 174.88181641 112.2109375 175.57421875 C128.80859873 188.492029 139.79029301 211.97296294 142.8984375 232.203125 C146.63357911 263.29636733 141.89007424 294.48648056 122.27734375 319.50219727 C110.55813914 334.0533981 96.29507 343.64782849 79.40234375 351.203125 C78.72252441 351.51378906 78.04270508 351.82445313 77.34228516 352.14453125 C64.19781322 358.05382594 50.58020386 360.89945256 36.40234375 363.203125 C35.31719482 363.39148926 34.2320459 363.57985352 33.11401367 363.77392578 C22.47018975 365.43594027 11.93135097 365.50823159 1.17895508 365.46386719 C-1.89457084 365.4531792 -4.96750773 365.46380223 -8.04101562 365.4765625 C-61.94996543 365.51475066 -105.06908232 348.11025773 -144.59765625 311.203125 C-142.97406929 307.10691866 -140.03085229 304.36864601 -136.95458984 301.33300781 C-136.37883713 300.75696304 -135.80308441 300.18091827 -135.20988464 299.5874176 C-133.30999088 297.68891463 -131.40311634 295.79758978 -129.49609375 293.90625 C-128.17572191 292.58960918 -126.85579161 291.27252543 -125.5362854 289.95501709 C-122.06531349 286.49167463 -118.58837695 283.03438082 -115.11016846 279.57830811 C-111.5607124 276.0493252 -108.01692424 272.5146608 -104.47265625 268.98046875 C-97.51986162 262.04911192 -90.56075316 255.12413123 -83.59765625 248.203125 C-79.96657904 249.92181886 -77.31889338 252.05122753 -74.28515625 254.703125 C-57.73384791 268.73447552 -39.02179675 279.09966529 -17.59765625 283.203125 C-16.51355469 283.42613281 -15.42945313 283.64914062 -14.3125 283.87890625 C2.85826377 287.00666619 22.39320267 286.94752121 37.40234375 277.203125 C40.99564518 274.01779666 44.01523753 269.92292323 44.703125 265.08984375 C44.74327031 257.55590647 42.6073068 251.64967229 37.515625 246.02734375 C29.56222964 239.1618435 19.12091891 234.87029764 9.40234375 231.203125 C8.75265625 230.95771973 8.10296875 230.71231445 7.43359375 230.45947266 C-0.23782589 227.57387662 -7.93984391 224.7781343 -15.67578125 222.0703125 C-53.2461318 208.86482042 -92.27806084 191.80327035 -110.81494141 154.30761719 C-123.16699004 128.38476821 -122.6194447 97.66470202 -113.57714844 70.79003906 C-104.29169126 45.02196312 -84.40689336 25.53241174 -60.09765625 13.828125 C-52.06389455 10.08169678 -44.260852 7.16117917 -35.59765625 5.203125 C-34.07284756 4.84274019 -32.54811252 4.48204365 -31.0234375 4.12109375 C-27.96026177 3.41089101 -24.89605227 2.70700067 -21.82421875 2.03515625 C-21.20111816 1.89827393 -20.57801758 1.7613916 -19.93603516 1.62036133 C-13.25922631 0.4290201 -6.76734847 0.03507272 0 0 Z " fill="#001588" transform="translate(1562.59765625,1986.796875)"/>
<path d="M0 0 C5.03689894 3.62656724 9.76319331 7.48911912 14.4375 11.5625 C20.94669757 17.21109383 27.70861406 22.45830969 34.5859375 27.6484375 C37.55594619 29.89141967 40.4956515 32.16685234 43.4140625 34.4765625 C53.08994929 42.13092376 62.97937446 49.30290097 73.23876953 56.15429688 C75.75701503 57.83758034 78.26951746 59.52914985 80.78041077 61.22337341 C102.33298215 75.75868324 124.23413176 89.4299348 147 102 C147.98935547 102.54688477 148.97871094 103.09376953 149.99804688 103.65722656 C206.77580178 134.94930313 266.52207156 158.81825334 329 176 C330.17546387 176.32436035 331.35092773 176.6487207 332.56201172 176.98291016 C358.22566728 183.96384196 384.53102625 188.8088734 410.86889648 192.40258789 C412.17157471 192.5855542 413.47425293 192.76852051 414.81640625 192.95703125 C415.96568604 193.11147705 417.11496582 193.26592285 418.29907227 193.42504883 C421 194 421 194 423 196 C388.64749472 226.1524727 348.52222397 253.03736869 307.34277344 272.86767578 C304.65173366 274.16832631 301.97080635 275.48888652 299.2890625 276.80859375 C288.61724449 282.03059717 277.87774724 287.05096753 266.9375 291.6875 C265.95716797 292.10950684 264.97683594 292.53151367 263.96679688 292.96630859 C253.81297282 297.18884785 253.81297282 297.18884785 248 297 C244.8303775 295.51403863 242.22768247 293.48892251 239.5 291.3125 C238.71955322 290.71816162 237.93910645 290.12382324 237.13500977 289.51147461 C235.5235872 288.28264463 233.91883057 287.04502497 232.32080078 285.79882812 C230.19336126 284.14987227 228.04317067 282.54257794 225.87109375 280.953125 C202.49011672 263.81765263 180.30512872 244.6131656 159.98046875 223.9453125 C158.01360126 222.01335982 155.97568664 220.22208331 153.875 218.4375 C150.59515777 215.62069432 147.83615727 212.59546099 145.046875 209.30078125 C142.47800256 206.41325097 139.75052974 203.71332042 137 201 C133.07246307 197.11588125 129.28291343 193.18892376 125.69921875 188.98046875 C123.71969568 186.67330048 121.6735788 184.43353218 119.625 182.1875 C115.79963675 177.94423992 112.1490591 173.59140503 108.55859375 169.1484375 C106.67737591 166.82188546 104.76870248 164.52033191 102.84765625 162.2265625 C93.83288348 151.43720785 85.33025176 140.32414878 77 129 C76.44989258 128.25669434 75.89978516 127.51338867 75.33300781 126.74755859 C49.70628011 92.07747804 27.27069277 55.16187347 7.5 16.875 C7.12039124 16.14169464 6.74078247 15.40838928 6.34967041 14.65286255 C5.27981306 12.58117768 4.21656606 10.50626912 3.15625 8.4296875 C2.83522308 7.80709549 2.51419617 7.18450348 2.18344116 6.54304504 C0 2.23236176 0 2.23236176 0 0 Z " fill="#001588" transform="translate(1189,1491)"/>
<path d="M0 0 C3.039468 2.68371156 5.93171633 5.49068602 8.80078125 8.35546875 C9.69410156 9.23138672 9.69410156 9.23138672 10.60546875 10.125 C24.02501849 24.45127607 29.23309021 44.17197578 29.05078125 63.29296875 C29.03736694 64.88153687 29.03736694 64.88153687 29.02368164 66.50219727 C28.69541117 88.55755082 21.00865457 106.75557506 5.80078125 122.79296875 C-4.79526267 132.71356764 -18.11258393 139.90787408 -32.19921875 143.35546875 C-32.91102295 143.53376221 -33.62282715 143.71205566 -34.35620117 143.89575195 C-58.19724079 149.27871425 -83.36627193 146.01536197 -104.19921875 133.35546875 C-121.72345821 122.06624203 -134.80950396 105.70074973 -140.19921875 85.35546875 C-140.40417969 84.62070313 -140.60914063 83.8859375 -140.8203125 83.12890625 C-144.01713534 69.2392622 -143.5806391 52.87581737 -139.19921875 39.35546875 C-138.90917969 38.41832031 -138.61914062 37.48117188 -138.3203125 36.515625 C-131.15835493 15.14961769 -116.22160471 -0.71224415 -96.26171875 -10.67822266 C-66.38423893 -24.67621805 -25.66226572 -21.80012963 0 0 Z " fill="#011688" transform="translate(1061.19921875,2465.64453125)"/>
<path d="M0 0 C0.33 0 0.66 0 1 0 C1.22550537 1.62736084 1.22550537 1.62736084 1.45556641 3.28759766 C14.18777786 94.69144686 40.20176273 184.08348676 130.375 317.015625 C132 319 132 319 132 320 C114.22971601 320.3047674 96.70102768 319.56143016 79 318 C77.81889648 317.89816406 76.63779297 317.79632812 75.42089844 317.69140625 C43.20331811 314.8479042 11.280163 309.23404291 -20 301 C-22.10593685 289.40987947 -23.52194041 277.78754385 -24.625 266.0625 C-24.74786377 264.77988281 -24.87072754 263.49726562 -24.99731445 262.17578125 C-26.80577201 242.31390699 -27.20547797 222.5007345 -27.1875 202.5625 C-27.18689575 201.32000488 -27.1862915 200.07750977 -27.18566895 198.79736328 C-27.16352152 182.01069439 -27.00280561 165.34135281 -25.35058594 148.62304688 C-25.02291059 145.23676399 -24.73347575 141.84971881 -24.45370483 138.45927429 C-20.55476881 91.68813822 -12.28144342 45.28576839 0 0 Z " fill="#011688" transform="translate(1091,1509)"/>
<path d="M0 0 C5.7194649 5.22260019 11.39111152 10.75443048 16.14257812 16.88574219 C16.14257812 17.54574219 16.14257812 18.20574219 16.14257812 18.88574219 C11.70440556 17.44923223 7.29451532 15.97696772 2.95117188 14.27246094 C-39.57988249 -2.37859538 -90.88893867 -7.14849836 -135.85742188 1.88574219 C-136.72850586 2.05734863 -137.59958984 2.22895508 -138.49707031 2.40576172 C-157.62545521 6.32746613 -179.42602427 13.77465089 -191.85742188 29.88574219 C-193.25129227 32.18998617 -194.55493579 34.52726201 -195.85742188 36.88574219 C-194.9834375 36.6821106 -194.9834375 36.6821106 -194.09179688 36.47436523 C-159.60502987 28.46608787 -159.60502987 28.46608787 -144.85742188 27.88574219 C-142.97023438 27.7890625 -142.97023438 27.7890625 -141.04492188 27.69042969 C-99.81549043 26.20218165 -66.18182337 47.68845562 -36.65820312 74.13574219 C-36.06394531 74.71324219 -35.4696875 75.29074219 -34.85742188 75.88574219 C-34.85742188 76.21574219 -34.85742188 76.54574219 -34.85742188 76.88574219 C-41.22703419 76.47887268 -47.45374454 75.63829158 -53.73242188 74.51074219 C-61.94591307 73.0668384 -70.18877793 72.11818986 -78.48242188 71.26074219 C-79.66046387 71.13779785 -80.83850586 71.01485352 -82.05224609 70.88818359 C-97.3833348 69.3514714 -112.58456105 68.67632152 -127.98242188 68.69824219 C-129.26634323 68.69964706 -129.26634323 68.69964706 -130.57620239 68.70108032 C-172.85796904 67.77863972 -172.85796904 67.77863972 -209.73242188 84.26074219 C-214.21931088 89.97132819 -216.45001879 97.11326758 -218.85742188 103.88574219 C-222.4380975 102.69218365 -222.93502979 101.41790484 -224.61083984 98.17578125 C-225.10414795 97.16596191 -225.10414795 97.16596191 -225.60742188 96.13574219 C-225.95305176 95.43416992 -226.29868164 94.73259766 -226.65478516 94.00976562 C-237.86479105 70.44368295 -243.96505511 42.42478688 -235.85742188 16.88574219 C-231.81775785 6.62948407 -225.91621705 -1.76154273 -218.85742188 -10.11425781 C-218.30699219 -10.7678125 -217.7565625 -11.42136719 -217.18945312 -12.09472656 C-213.41082524 -16.18419273 -208.93613564 -19.42877562 -204.48242188 -22.73925781 C-203.86987549 -23.19510254 -203.2573291 -23.65094727 -202.6262207 -24.12060547 C-194.34419563 -30.12744477 -187.4276226 -33.79105795 -177.12304688 -34.69628906 C-176.10377106 -34.8005571 -175.08449524 -34.90482513 -174.03433228 -35.01225281 C-170.72716153 -35.34125452 -167.41821697 -35.63665842 -164.10742188 -35.92675781 C-162.97371155 -36.03165527 -161.84000122 -36.13655273 -160.67193604 -36.24462891 C-105.15419143 -41.35132688 -44.14567784 -38.95045175 0 0 Z " fill="#011688" transform="translate(1405.857421875,1017.1142578125)"/>
<path d="M0 0 C39.6 0 79.2 0 120 0 C120 12.21 120 24.42 120 37 C95.25 37 70.5 37 45 37 C45 44.59 45 52.18 45 60 C67.44 60 89.88 60 113 60 C113 71.88 113 83.76 113 96 C90.56 96 68.12 96 45 96 C45 104.25 45 112.5 45 121 C70.41 121 95.82 121 122 121 C122 133.21 122 145.42 122 158 C120.37459618 159.62540382 118.57593675 159.12602469 116.33081055 159.12698364 C114.81636856 159.13121338 114.81636856 159.13121338 113.27133179 159.13552856 C111.59594833 159.13249222 111.59594833 159.13249222 109.88671875 159.12939453 C108.13326645 159.13202301 108.13326645 159.13202301 106.34439087 159.13470459 C103.12959561 159.13836264 99.91484122 159.13748976 96.70004654 159.1343255 C93.34259197 159.13180142 89.98514022 159.13413958 86.62768555 159.13571167 C80.98843899 159.13753322 75.34920551 159.13512743 69.70996094 159.13037109 C63.1814974 159.1249285 56.65306509 159.12669116 50.12460232 159.1321975 C44.52885641 159.13672904 38.93311993 159.13737898 33.33737278 159.13475883 C29.99113516 159.13319628 26.64491223 159.13300169 23.29867554 159.13629532 C19.57018895 159.13882014 15.84176327 159.13498364 12.11328125 159.12939453 C10.99635895 159.13141876 9.87943665 159.13344299 8.72866821 159.13552856 C7.71904022 159.13270874 6.70941223 159.12988892 5.66918945 159.12698364 C4.7864888 159.12660662 3.90378815 159.12622959 2.99433899 159.12584114 C1 159 1 159 0 158 C-0.09678239 155.96238813 -0.12186965 153.92136288 -0.12025452 151.88145447 C-0.12110894 151.23539877 -0.12196337 150.58934307 -0.12284368 149.92370993 C-0.12450024 147.74330183 -0.11897429 145.56296945 -0.11352539 143.38256836 C-0.11324353 141.82579042 -0.11340123 140.26901236 -0.1139679 138.7122345 C-0.11425592 134.47274796 -0.10835846 130.23328946 -0.10139394 125.99380946 C-0.09516115 121.5681858 -0.09455666 117.14256157 -0.09336853 112.7169342 C-0.09025499 104.33046022 -0.0820413 95.9439992 -0.07201904 87.55753094 C-0.05877356 76.22907508 -0.05335818 64.90061569 -0.04751682 53.57215405 C-0.03810142 35.71475964 -0.01818266 17.85739261 0 0 Z " fill="#031889" transform="translate(1527,2450)"/>
<path d="M0 0 C39.6 0 79.2 0 120 0 C120 12.21 120 24.42 120 37 C95.25 37 70.5 37 45 37 C45 44.59 45 52.18 45 60 C67.44 60 89.88 60 113 60 C113 71.88 113 83.76 113 96 C90.56 96 68.12 96 45 96 C45 104.25 45 112.5 45 121 C70.08 121 95.16 121 121 121 C121 133.54 121 146.08 121 159 C105.37121316 159.02254736 89.74243914 159.04097937 74.11364079 159.05181217 C66.85741151 159.05697505 59.60119304 159.06401758 52.3449707 159.07543945 C46.02266144 159.08538656 39.70035999 159.09185349 33.37804312 159.09408849 C30.0284325 159.09539556 26.67884426 159.09848113 23.3292408 159.10573006 C19.59586355 159.1129362 15.86253342 159.11399112 12.12915039 159.11352539 C11.01065704 159.11712067 9.8921637 159.12071594 8.73977661 159.12442017 C7.22316689 159.12235817 7.22316689 159.12235817 5.67591858 159.12025452 C4.34991937 159.12163721 4.34991937 159.12163721 2.9971323 159.12304783 C1 159 1 159 0 158 C-0.09678239 155.96238813 -0.12186965 153.92136288 -0.12025452 151.88145447 C-0.12110894 151.23539877 -0.12196337 150.58934307 -0.12284368 149.92370993 C-0.12450024 147.74330183 -0.11897429 145.56296945 -0.11352539 143.38256836 C-0.11324353 141.82579042 -0.11340123 140.26901236 -0.1139679 138.7122345 C-0.11425592 134.47274796 -0.10835846 130.23328946 -0.10139394 125.99380946 C-0.09516115 121.5681858 -0.09455666 117.14256157 -0.09336853 112.7169342 C-0.09025499 104.33046022 -0.0820413 95.9439992 -0.07201904 87.55753094 C-0.05877356 76.22907508 -0.05335818 64.90061569 -0.04751682 53.57215405 C-0.03810142 35.71475964 -0.01818266 17.85739261 0 0 Z " fill="#031889" transform="translate(1385,2450)"/>
<path d="M0 0 C4.04732866 1.44547452 7.31354645 3.41895454 10.875 5.8125 C83.12774977 53.21360953 174.97731271 81.06593263 263.49609375 69.40234375 C266.38872932 69.0701905 269.09830285 68.96801083 272 69 C294 132.8366112 294 132.8366112 294 153 C280.39544927 152.63477716 267.34512166 150.58875292 254 148 C252.28828613 147.67273926 252.28828613 147.67273926 250.54199219 147.33886719 C173.77661654 132.53845252 101.20347948 99.44973516 43.84375 45.6328125 C41.69912271 43.64726471 39.53304892 41.73356981 37.31640625 39.83203125 C32.12571833 35.30933032 27.29327355 30.43906915 22.4375 25.5625 C21.0772168 24.20801758 21.0772168 24.20801758 19.68945312 22.82617188 C12.49849423 15.62478374 5.77047777 8.39342221 0 0 Z " fill="#011688" transform="translate(1521,954)"/>
<path d="M0 0 C1.54373291 -0.00845947 1.54373291 -0.00845947 3.11865234 -0.01708984 C23.98586251 0.17980211 43.72903883 7.12190693 59.25 21.3125 C53.72349666 28.05330425 47.55550441 34.1196129 41.375 40.25 C40.29403726 41.32593727 39.21330617 42.40210731 38.1328125 43.47851562 C35.50787359 46.09253292 32.87981372 48.70338596 30.25 51.3125 C29.30761475 50.68166504 28.36522949 50.05083008 27.39428711 49.40087891 C24.89829427 47.74308539 22.41503654 46.16784188 19.8125 44.6875 C19.11253906 44.28273438 18.41257812 43.87796875 17.69140625 43.4609375 C11.82553472 40.70163153 6.31289996 39.95027664 -0.0625 40 C-1.18289673 40.00737183 -1.18289673 40.00737183 -2.32592773 40.01489258 C-12.65092717 40.2331446 -21.29136244 43.17378259 -28.8828125 50.3203125 C-39.29555105 61.34782528 -40.23565773 72.49925454 -40.0234375 87.05078125 C-39.60816371 98.639387 -35.2019528 107.08350885 -26.94140625 115.05859375 C-18.43548578 122.14980811 -8.33667256 124.02818595 2.50390625 123.6953125 C11.55694083 122.77018488 19.14922999 120.06626408 26.34765625 114.484375 C28.25 113.3125 28.25 113.3125 32.25 113.3125 C34.57579361 115.28908663 36.65329476 117.25148299 38.765625 119.4375 C39.38145447 120.05898926 39.99728394 120.68047852 40.6317749 121.32080078 C42.59742603 123.30885054 44.54872117 125.31035163 46.5 127.3125 C47.82980703 128.66236738 49.16052555 130.01133748 50.4921875 131.359375 C53.7554613 134.66676252 57.00592647 137.98628203 60.25 141.3125 C45.97445803 155.8408907 24.91343812 163.44121093 4.70141602 163.64233398 C-19.12514509 163.50529989 -38.63477832 159.1343171 -57.75 144.3125 C-58.43449219 143.79945313 -59.11898437 143.28640625 -59.82421875 142.7578125 C-74.98381092 130.69827176 -83.97410562 111.13776764 -86.75 92.3125 C-88.56508876 70.15838897 -84.5901079 49.6302767 -70.75 31.8125 C-69.43704393 30.29463171 -68.10467534 28.79325403 -66.75 27.3125 C-66.17121094 26.6421875 -65.59242188 25.971875 -64.99609375 25.28125 C-48.04658862 6.83081677 -24.31123153 0.12581593 0 0 Z " fill="#011688" transform="translate(856.75,2447.6875)"/>
<path d="M0 0 C38.61 0 77.22 0 117 0 C117 12.21 117 24.42 117 37 C92.91 37 68.82 37 44 37 C44 46.24 44 55.48 44 65 C66.77 65 89.54 65 113 65 C113 77.21 113 89.42 113 102 C90.23 102 67.46 102 44 102 C44 120.81 44 139.62 44 159 C29.48 159 14.96 159 0 159 C0 106.53 0 54.06 0 0 Z " fill="#011688" transform="translate(1249,2450)"/>
<path d="M0 0 C38.61 0 77.22 0 117 0 C117 12.21 117 24.42 117 37 C92.91 37 68.82 37 44 37 C44 46.24 44 55.48 44 65 C67.1 65 90.2 65 114 65 C114 77.21 114 89.42 114 102 C90.9 102 67.8 102 44 102 C44 120.48 44 138.96 44 158 C29.48 158 14.96 158 0 158 C0 105.86 0 53.72 0 0 Z " fill="#011688" transform="translate(1112,2450)"/>
<path d="M0 0 C2.70339535 0.11771678 5.40202583 0.18402769 8.10742188 0.23193359 C34.75307944 0.85859768 61.74585012 4.11526815 87.90429688 9.12646484 C89.06832031 9.34560547 90.23234375 9.56474609 91.43164062 9.79052734 C116.08018827 14.45861857 140.10087772 20.1966729 163.90429688 28.12646484 C165.47324314 28.6448882 167.0422505 29.16312671 168.61132812 29.68115234 C172.04607304 30.81853412 175.4766322 31.96789283 178.90429688 33.12646484 C178.90429688 33.45646484 178.90429688 33.78646484 178.90429688 34.12646484 C178.28266663 34.13233109 177.66103638 34.13819733 177.02056885 34.14424133 C79.96565452 35.09877678 -13.71331813 48.10299368 -136.27416992 111.99414062 C-138.09570312 113.12646484 -138.09570312 113.12646484 -140.09570312 114.12646484 C-138.65180697 109.06892586 -136.44877952 105.02518825 -133.65820312 100.62646484 C-133.21790771 99.9286792 -132.7776123 99.23089355 -132.32397461 98.51196289 C-128.09788871 91.93399423 -123.41834728 85.79863861 -118.44726562 79.77050781 C-117.16887509 78.21547135 -115.91280879 76.64215994 -114.65820312 75.06787109 C-103.03963162 60.81696698 -89.78392973 47.21573853 -75.09570312 36.12646484 C-74.09925781 35.33626953 -73.1028125 34.54607422 -72.07617188 33.73193359 C-60.06430179 24.23041764 -47.30854273 15.96299435 -33.99804688 8.39990234 C-31.66914989 7.07274705 -29.53829592 5.72843011 -27.34960938 4.16552734 C-18.9708176 -1.54545713 -9.71836289 -0.44015476 0 0 Z " fill="#011688" transform="translate(1242.095703125,619.87353515625)"/>
<path d="M0 0 C0.89525391 -0.020625 1.79050781 -0.04125 2.71289062 -0.0625 C17.20838757 -0.1462285 29.20114912 6.1148945 39.59375 15.96484375 C51.07297216 27.78763418 55.21919862 40.67763811 55.18041992 56.89916992 C55.05074585 64.29182106 54.05775635 70.53530841 50.8125 77.25 C50.461875 78.02988281 50.11125 78.80976563 49.75 79.61328125 C42.65842407 93.87030369 30.26188693 102.57015136 15.8125 108.25 C0.42904046 111.86130333 -15.64901594 110.01460374 -29.0625 101.8125 C-30.78330247 100.6431421 -32.49339244 99.457708 -34.1875 98.25 C-35.239375 97.5075 -36.29125 96.765 -37.375 96 C-48.91000885 84.72132468 -55.10946881 70.93300662 -55.5 54.9375 C-55.24953354 40.98095244 -50.75944415 27.30715265 -41.02734375 16.9296875 C-28.68921793 5.66558112 -16.57603092 0.0934519 0 0 Z " fill="#FBFBFD" transform="translate(1807.1875,1986.75)"/>
<path d="M0 0 C2.71863504 1.31003144 5.24969768 2.74561525 7.7734375 4.3984375 C69.61840159 44.45509194 138.57915091 64.91832633 211 75 C212.21551333 82.34028435 213.15495068 89.63271431 213.5625 97.0625 C213.60447006 97.82682343 213.64644012 98.59114685 213.68968201 99.37863159 C214.19502634 109.62245019 214.10719607 119.87189009 214.0625 130.125 C214.05746809 132.1627593 214.05290822 134.20051982 214.04882812 136.23828125 C214.03797224 141.15888519 214.02080377 146.07942848 214 151 C210.01971133 150.44426568 206.62531355 149.6039964 202.9453125 147.99609375 C202.00977539 147.5897168 201.07423828 147.18333984 200.11035156 146.76464844 C198.63260254 146.10770996 198.63260254 146.10770996 197.125 145.4375 C196.09342773 144.9827832 195.06185547 144.52806641 193.99902344 144.05957031 C186.34536958 140.65874189 178.81513471 137.08628789 171.38183594 133.22998047 C168.52488793 131.75465205 165.6566985 130.30209854 162.7890625 128.84765625 C131.60604427 112.95745065 101.53766163 94.67858469 74 73 C73.10410156 72.30261719 72.20820312 71.60523438 71.28515625 70.88671875 C60.67472389 62.52241267 50.48769873 53.68562847 40.60058594 44.48291016 C38.8695742 42.87916316 37.1269376 41.28869009 35.3828125 39.69921875 C24.48302982 29.73279917 24.48302982 29.73279917 19.83984375 24.15625 C17.8093428 21.77655462 15.68710125 19.50186493 13.54833984 17.21972656 C0 2.75556987 0 2.75556987 0 0 Z " fill="#011688" transform="translate(1613,1093)"/>
<path d="M0 0 C1.051875 0.598125 2.10375 1.19625 3.1875 1.8125 C11.87707816 8.57106079 17.67239227 16.42465842 19.72265625 27.45703125 C20.69805091 36.40043864 20.48351474 45.32923179 18 54 C17.65001953 55.22976562 17.65001953 55.22976562 17.29296875 56.484375 C14.02270957 66.10102757 7.30032102 73.3914036 -1.6640625 78.0625 C-12.53479735 82.42533673 -26.62385793 83.2344094 -37.6875 79 C-49.2627665 73.13889891 -54.82444254 64.85009314 -59.13671875 52.83203125 C-62.07295578 39.79832751 -61.70225362 24.30108228 -54.64453125 12.7890625 C-43.04028751 -3.94842579 -18.10968083 -10.99516336 0 0 Z " fill="#FDFDFE" transform="translate(1025,2491)"/>
<path d="M0 0 C16.03288072 -0.48098642 31.22164728 0.81443152 45 10 C44.34258524 16.43063226 43.01368199 22.52632552 41.43969727 28.79052734 C41.17941742 29.84186859 40.91913757 30.89320984 40.65097046 31.97640991 C39.79428833 35.43080943 38.93068732 38.88343199 38.06640625 42.3359375 C37.46707282 44.7410474 36.86794969 47.14620972 36.26902771 49.55142212 C35.01548254 54.58049799 33.75831052 59.60865062 32.4987793 64.63623047 C30.8822332 71.09078355 29.27645154 77.54793011 27.67353916 84.00588036 C26.44055792 88.96719538 25.20109824 93.92687443 23.95973015 98.88609695 C23.36464322 101.26747382 22.77179076 103.64941018 22.18118477 106.03190231 C21.35739678 109.35160368 20.52473581 112.66895341 19.68969727 115.98583984 C19.32413475 117.47102112 19.32413475 117.47102112 18.95118713 118.98620605 C18.72270081 119.88612274 18.49421448 120.78603943 18.25880432 121.71322632 C18.06283944 122.49742132 17.86687456 123.28161633 17.66497135 124.08957481 C17 126 17 126 15 128 C-0.99820677 108.62189039 -7.93586678 88.86074722 -5.79766846 63.61065674 C-5.20128607 58.07367946 -4.38812484 52.56911779 -3.5625 47.0625 C-3.10092531 43.88736724 -2.64553009 40.71136248 -2.19140625 37.53515625 C-2.0832106 36.78133163 -1.97501495 36.02750702 -1.86354065 35.25083923 C-0.58671949 26.25324305 0.16190217 17.40397572 0.0625 8.3125 C0.05798828 7.50361328 0.05347656 6.69472656 0.04882812 5.86132812 C0.03726712 3.90751849 0.01934404 1.95374807 0 0 Z " fill="#FDFDFE" transform="translate(969,1079)"/>
<path d="M0 0 C4.26832981 -0.09965569 8.53602469 -0.17183391 12.80517578 -0.21972656 C14.25418917 -0.23971295 15.70312325 -0.26691197 17.15185547 -0.30175781 C26.36202443 -0.51757156 33.74667259 -0.63528889 41.05859375 5.81640625 C41.74115234 6.68072266 41.74115234 6.68072266 42.4375 7.5625 C42.91058594 8.14128906 43.38367187 8.72007813 43.87109375 9.31640625 C46.98721548 13.96363277 46.52649364 19.64731469 46 25 C44.36637757 30.36254319 41.75108958 33.94572813 37 37 C35.00594322 38.01179918 33.00658935 39.01328871 31 40 C32.35218308 42.27203552 33.70627781 44.5428759 35.0625 46.8125 C35.66952759 47.82896606 35.66952759 47.82896606 36.28881836 48.8659668 C39.34502541 53.96164706 42.51465083 58.96440228 45.78515625 63.92578125 C47 66 47 66 47 68 C43.12162887 68.75249336 39.85354827 68.97029941 36 68 C32.57834163 64.55696103 30.59790145 60.50092951 28.4375 56.1875 C27.53547852 54.50817383 27.53547852 54.50817383 26.61523438 52.79492188 C25.50319726 50.72152681 24.408695 48.63856362 23.33764648 46.54370117 C21.98600728 43.86667999 21.98600728 43.86667999 20 41 C17.57478506 40.41810734 17.57478506 40.41810734 14.875 40.3125 C13.96492188 40.24675781 13.05484375 40.18101562 12.1171875 40.11328125 C11.41851563 40.07589844 10.71984375 40.03851562 10 40 C10.00523682 40.81267334 10.01047363 41.62534668 10.01586914 42.46264648 C10.03656994 46.12092322 10.04963803 49.77918767 10.0625 53.4375 C10.07087891 54.71689453 10.07925781 55.99628906 10.08789062 57.31445312 C10.09111328 58.52939453 10.09433594 59.74433594 10.09765625 60.99609375 C10.10289307 62.12200928 10.10812988 63.2479248 10.11352539 64.40795898 C10 67 10 67 9 68 C7.1875 68.1328125 7.1875 68.1328125 5 68.125 C4.278125 68.12757813 3.55625 68.13015625 2.8125 68.1328125 C1 68 1 68 0 67 C-0.09417773 64.91380978 -0.11742878 62.82439523 -0.11352539 60.73608398 C-0.11367142 60.08244873 -0.11381744 59.42881348 -0.1139679 58.75537109 C-0.11326883 56.58557872 -0.10547678 54.41587121 -0.09765625 52.24609375 C-0.09579205 50.74536689 -0.09436816 49.24463943 -0.09336853 47.74391174 C-0.08954352 43.78681774 -0.0797134 39.82976022 -0.06866455 35.87268066 C-0.05845006 31.83765151 -0.05387083 27.80261647 -0.04882812 23.76757812 C-0.03809111 15.84503531 -0.0210149 7.92252219 0 0 Z " fill="#0F238F" transform="translate(1786,2008)"/>
<path d="M0 0 C0.89525391 -0.020625 1.79050781 -0.04125 2.71289062 -0.0625 C17.20838757 -0.1462285 29.20114912 6.1148945 39.59375 15.96484375 C51.07297216 27.78763418 55.21919862 40.67763811 55.18041992 56.89916992 C55.05074585 64.29182106 54.05775635 70.53530841 50.8125 77.25 C50.461875 78.02988281 50.11125 78.80976563 49.75 79.61328125 C42.65842407 93.87030369 30.26188693 102.57015136 15.8125 108.25 C0.42904046 111.86130333 -15.64901594 110.01460374 -29.0625 101.8125 C-30.78330247 100.6431421 -32.49339244 99.457708 -34.1875 98.25 C-35.239375 97.5075 -36.29125 96.765 -37.375 96 C-48.91000885 84.72132468 -55.10946881 70.93300662 -55.5 54.9375 C-55.24953354 40.98095244 -50.75944415 27.30715265 -41.02734375 16.9296875 C-28.68921793 5.66558112 -16.57603092 0.0934519 0 0 Z M-37.1875 23.25 C-46.1998825 34.94505667 -49.62559896 48.5748538 -48.1875 63.25 C-44.30391826 77.74647323 -36.70622661 89.4844101 -23.625 97.0625 C-11.60721271 103.30250494 -0.27003132 105.12016672 13 101.625 C26.55296258 97.31269373 36.27039234 89.215655 43.5234375 77 C46.92797015 69.73699702 48.32149013 63.3318861 48.1875 55.3125 C48.17734863 54.43223145 48.16719727 53.55196289 48.15673828 52.64501953 C47.84091947 39.44183471 43.20122413 29.62367892 34.125 20 C24.26322807 10.60994213 12.7430451 6.25684634 -0.8125 5.875 C-14.850407 6.27608306 -27.73844257 12.92735046 -37.1875 23.25 Z " fill="#091E8C" transform="translate(1807.1875,1986.75)"/>
<path d="M0 0 C4.021875 -0.0928125 4.021875 -0.0928125 8.125 -0.1875 C8.95789551 -0.21481201 9.79079102 -0.24212402 10.64892578 -0.27026367 C15.51434687 -0.32424651 18.7894438 0.30499039 23 3 C25.78945399 6.22989409 26.89519026 8.2663318 27.5 12.5 C26.80548943 17.36157397 24.744305 20.108853 21.46875 23.66015625 C17.54792658 25.78807149 13.62612227 25.31258478 9.25 25.1875 C4.67125 25.0946875 4.67125 25.0946875 0 25 C0 16.75 0 8.5 0 0 Z " fill="#FCFCFD" transform="translate(1796,2015)"/>
</svg>
