<?xml version="1.0" encoding="UTF-8"?>
<svg version="1.1" xmlns="http://www.w3.org/2000/svg" width="666" height="665">
<path d="M0 0 C212.52 0 425.04 0 644 0 C644 212.52 644 425.04 644 644 C431.48 644 218.96 644 0 644 C0 431.48 0 218.96 0 0 Z M417.75 182.2734375 C403.53762606 189.96543464 389.14642501 196.37888885 374 202 C373.18724609 202.30663574 372.37449219 202.61327148 371.53710938 202.92919922 C335.12739002 216.52414387 295.01373354 219.73303024 258 207 C256.9584375 206.64292969 255.916875 206.28585938 254.84375 205.91796875 C240.99821233 200.65145375 228.98214868 191.77577629 218 182 C212.68931195 186.43416672 207.75163383 191.11516686 202.87890625 196.0234375 C201.76176491 197.14270126 201.76176491 197.14270126 200.62205505 198.28457642 C198.26649173 200.64569389 195.91444784 203.01028162 193.5625 205.375 C191.95661237 206.98590856 190.35049484 208.59658796 188.74414062 210.20703125 C184.82676487 214.13537513 180.91226513 218.06656674 177 222 C178.79404494 225.9097807 181.23214851 228.27941996 184.5 231 C185.06750977 231.47421387 185.63501953 231.94842773 186.21972656 232.43701172 C222.72876201 262.26280578 265.86879301 274.35482991 312.4375 274.0625 C313.8626286 274.05746421 315.28775896 274.05290506 316.71289062 274.04882812 C320.14196493 274.03801182 323.57097032 274.02086761 327 274 C320.56978124 281.74757375 313.38333777 288.75047689 306.26196289 295.8515625 C304.87157052 297.24167244 303.48139903 298.63200333 302.09143066 300.02253723 C298.33593581 303.77831785 294.57737561 307.531017 290.8182404 311.28315353 C286.88333167 315.211792 282.95127288 319.14328082 279.01890564 323.07446289 C271.58024925 330.51001677 264.13904842 337.94301882 256.69692081 345.37509823 C248.22093629 353.839888 239.74780632 362.30753267 231.27491009 370.77541351 C213.85310533 388.18677837 196.42773457 405.59457067 179 423 C179.96026795 424.12813631 180.92164119 425.25533186 181.88348389 426.38212585 C182.41873058 427.00993297 182.95397728 427.63774008 183.50544357 428.28457165 C185.06859704 430.07873461 186.69342084 431.73050578 188.453125 433.33203125 C189.36964844 434.17592407 189.36964844 434.17592407 190.3046875 435.03686523 C190.94664062 435.62282471 191.58859375 436.20878418 192.25 436.8125 C201.42160209 445.28773164 210.22093892 454.12131619 219 463 C223.1425161 461.36703222 225.91463712 458.3582526 228.98577881 455.25473022 C229.879078 454.36399431 229.879078 454.36399431 230.79042363 453.45526373 C232.78661691 451.46236718 234.77557352 449.4624018 236.76464844 447.46240234 C238.19336215 446.03312456 239.62251626 444.60428689 241.05207825 443.17585754 C244.93430819 439.29420227 248.81033361 435.40640406 252.68529415 431.51749372 C256.73496938 427.45533012 260.79029548 423.39881603 264.84503174 419.34170532 C272.52355179 411.65696494 280.19695865 403.96713976 287.86855245 396.27548563 C296.60214374 387.51955257 305.34140343 378.76928655 314.08114958 370.01949763 C332.06042487 352.01930781 350.03255144 334.0119945 368 316 C368.02669266 317.00723114 368.05338531 318.01446228 368.08088684 319.05221558 C368.18166204 322.83401209 368.28518298 326.61572955 368.38948059 330.39743042 C368.43401801 332.02578777 368.47783748 333.65416495 368.52088928 335.28256226 C369.86956719 386.18856128 385.69379765 427.40215803 419 466 C422.27196452 464.56741228 424.43203956 462.81174684 426.94238281 460.28466797 C427.70286926 459.52403046 428.46335571 458.76339294 429.24688721 457.97970581 C430.05744568 457.15882477 430.86800415 456.33794373 431.703125 455.4921875 C432.95980988 454.23125778 432.95980988 454.23125778 434.24188232 452.94485474 C436.91598431 450.25955999 439.58304724 447.56739345 442.25 444.875 C444.06204062 443.05292845 445.87453518 441.23130823 447.6875 439.41015625 C452.13028036 434.94532748 456.56730165 430.47483717 461 426 C460.0429398 424.72271873 459.08571373 423.44556175 458.12841797 422.16845703 C457.59538055 421.45722687 457.06234314 420.7459967 456.51315308 420.01321411 C455.33001158 418.43907254 454.13914256 416.87073834 452.9453125 415.3046875 C430.39802123 385.20937597 424.45633487 349.64090587 429.52172852 312.80224609 C433.7607973 284.94817762 443.49537337 258.31790523 456.3828125 233.3359375 C456.75986328 232.60294434 457.13691406 231.86995117 457.52539062 231.11474609 C458.23817714 229.74392975 458.96277366 228.37916466 459.70117188 227.02197266 C461.51393286 223.71352123 461.51393286 223.71352123 461.80761719 220.04718018 C460.78033987 217.44319677 459.39867696 216.03143013 457.4140625 214.05761719 C456.65657715 213.29713074 455.8990918 212.53664429 455.11865234 211.75311279 C454.29574707 210.94255432 453.4728418 210.13199585 452.625 209.296875 C451.78533691 208.45908508 450.94567383 207.62129517 450.08056641 206.75811768 C448.30525307 204.98952651 446.52634573 203.22453677 444.74414062 201.46289062 C442.0038937 198.75384936 439.27450923 196.03423452 436.546875 193.3125 C434.82353946 191.59833199 433.09960167 189.88476917 431.375 188.171875 C430.55209473 187.3532196 429.72918945 186.53456421 428.88134766 185.69110107 C428.1238623 184.94322327 427.36637695 184.19534546 426.5859375 183.42480469 C425.58119385 182.43030304 425.58119385 182.43030304 424.55615234 181.41571045 C421.88249197 178.98334645 420.72261067 180.64029958 417.75 182.2734375 Z " fill="#C0FC71" transform="translate(12,10)"/>
</svg>
